<svg xmlns="http://www.w3.org/2000/svg" width="24" height="24" viewBox="0 0 24 24">
  <g id="date" transform="translate(24668 23706)">
    <rect id="Rectangle_978" data-name="Rectangle 978" width="24" height="24" transform="translate(-24668 -23706)" fill="#fff" opacity="0"/>
    <path id="Path_2499" data-name="Path 2499" stroke="#fff" d="M12.636,3.524V2.762a.728.728,0,1,1,1.455,0v.762h.727A2.236,2.236,0,0,1,17,5.81v7.619A4.471,4.471,0,0,1,12.636,18H5.364A4.471,4.471,0,0,1,1,13.429V5.81A2.236,2.236,0,0,1,3.182,3.524H4.636V2.762a.728.728,0,1,1,1.455,0v.762ZM2.455,8.1H15.545V5.81a.745.745,0,0,0-.727-.762h-.727a.728.728,0,1,1-1.455,0H6.091a.728.728,0,1,1-1.455,0H3.182a.745.745,0,0,0-.727.762Zm0,1.524v3.81a2.981,2.981,0,0,0,2.909,3.048h7.273a2.981,2.981,0,0,0,2.909-3.048V9.619Z" fill="#171e48" transform="translate(-24665 -23703.5)" stroke-linecap="round" stroke-linejoin="round" stroke-width="0.5" fill-rule="evenodd"/>
  </g>
</svg>
