<svg xmlns="http://www.w3.org/2000/svg" width="30" height="30" viewBox="0 0 30 30">
    <defs>
        <style>
            .cls-1{fill:#ffa16c}.cls-2{fill:#fff}
        </style>
    </defs>
    <g id="Group_972" data-name="Group 972" transform="translate(-548 -482)">
        <g id="Group_788" data-name="Group 788" transform="translate(538 477)">
            <circle id="Ellipse_354" cx="15" cy="15" r="15" class="cls-1" data-name="Ellipse 354" transform="translate(10 5)"/>
        </g>
        <path id="Path_1777" d="M32.188 5.778c.012-.141.02-.284.02-.439a5.351 5.351 0 0 0-2.75-4.7 5.168 5.168 0 0 0-5.369.23A5.37 5.37 0 0 0 22.347 2.8a4.606 4.606 0 0 0-.5-.026 4.118 4.118 0 0 0-2.545.882 4.439 4.439 0 0 0-1.444 2.004 3.731 3.731 0 0 0-1.834 4.171 3.656 3.656 0 0 0 3.538 2.815h2.153v2.745h.939v-2.745h4.454v2.5l-.935-.951-.664.675L27.6 17l2.156-2.2-.664-.675L28.04 15.2v-2.554h2.238a3.653 3.653 0 0 0 3.5-2.7 3.737 3.737 0 0 0-1.594-4.164zm.517 4.38a2.7 2.7 0 0 1-2.424 1.531H28.04V8.643h-.94v3.047h-4.45v-2.8l.935.951.664-.675-2.092-2.13L20 9.235l.664.675 1.05-1.069v2.843h-2.152a2.705 2.705 0 0 1-2.5-1.7 2.752 2.752 0 0 1 1.38-3.56l.193-.089.062-.2a3.356 3.356 0 0 1 3.153-2.41 3.436 3.436 0 0 1 .674.064l.362.074.156-.341a4.437 4.437 0 0 1 1.566-1.855 4.242 4.242 0 0 1 4.406-.186 4.393 4.393 0 0 1 2.256 3.854 5.9 5.9 0 0 1-.04.6l-.039.392.289.147a2.774 2.774 0 0 1 1.224 3.688z" class="cls-2" data-name="Path 1777" transform="translate(538.084 488.001)"/>
    </g>
</svg>
