<svg xmlns="http://www.w3.org/2000/svg" width="30" height="30" viewBox="0 0 30 30">
  <g id="Group_969" data-name="Group 969" transform="translate(-548 -236)">
    <g id="Group_788" data-name="Group 788" transform="translate(538 231)">
      <circle id="Ellipse_354" data-name="Ellipse 354" cx="15" cy="15" r="15" transform="translate(10 5)" fill="#42d8f4"/>
    </g>
    <g id="user" transform="translate(539.447 244.098)">
      <g id="Group_961" data-name="Group 961" transform="translate(17.44 7.28)">
        <g id="Group_960" data-name="Group 960">
          <path id="Path_1760" data-name="Path 1760" d="M23.462,288.389c-3.883,0-6.022,1.837-6.022,5.173a.472.472,0,0,0,.472.472h11.1a.472.472,0,0,0,.472-.472C29.484,290.226,27.345,288.389,23.462,288.389Zm-5.061,4.7c.186-2.494,1.886-3.758,5.061-3.758s4.876,1.264,5.061,3.758Z" transform="translate(-17.44 -288.389)" fill="#fff"/>
        </g>
      </g>
      <g id="Group_963" data-name="Group 963" transform="translate(20.333)">
        <g id="Group_962" data-name="Group 962">
          <path id="Path_1761" data-name="Path 1761" d="M135.178,0a3.091,3.091,0,0,0-3.129,3.192,3.139,3.139,0,1,0,6.258,0A3.091,3.091,0,0,0,135.178,0Zm0,5.644a2.333,2.333,0,0,1-2.185-2.453A2.145,2.145,0,0,1,135.178.943a2.169,2.169,0,0,1,2.185,2.248A2.333,2.333,0,0,1,135.178,5.644Z" transform="translate(-132.049)" fill="#fff"/>
        </g>
      </g>
    </g>
  </g>
</svg>
