<svg xmlns="http://www.w3.org/2000/svg" width="30" height="30" viewBox="0 0 30 30">
  <g id="Group_973" data-name="Group 973" transform="translate(-548 -564)">
    <g id="Group_788" data-name="Group 788" transform="translate(538 559)">
      <circle id="Ellipse_354" data-name="Ellipse 354" cx="15" cy="15" r="15" transform="translate(10 5)" fill="#3be0a0"/>
    </g>
    <g id="drone" transform="translate(555.146 571.356)">
      <path id="Path_1766" data-name="Path 1766" d="M241.454,241a.454.454,0,1,0,.454.454A.455.455,0,0,0,241.454,241Zm0,0" transform="translate(-233.705 -233.705)" fill="#fff"/>
      <path id="Path_1767" data-name="Path 1767" d="M98.223,99.512a.908.908,0,0,0,1.284-1.284l-1.557-1.557a2.724,2.724,0,0,1,0-3.853l1.557-1.557a.908.908,0,0,0-1.284-1.284l-1.557,1.557a2.724,2.724,0,0,1-3.853,0l-1.557-1.557a.908.908,0,0,0-1.284,1.284l1.557,1.557a2.724,2.724,0,0,1,0,3.853l-1.557,1.557a.908.908,0,0,0,1.284,1.284l1.557-1.557a2.724,2.724,0,0,1,3.853,0ZM94.74,96.107A1.362,1.362,0,1,1,96.1,94.744,1.364,1.364,0,0,1,94.74,96.107Zm0,0" transform="translate(-86.991 -86.995)" fill="#fff"/>
      <path id="Path_1768" data-name="Path 1768" d="M303.448,2.34a1.816,1.816,0,0,1,2.569,2.568l-1.4,1.4a3.173,3.173,0,1,0-2.568-2.568Zm0,0" transform="translate(-292.858)" fill="#fff" opacity="0.5"/>
      <path id="Path_1769" data-name="Path 1769" d="M305.178,302a3.192,3.192,0,0,0-.561.049l1.4,1.4a1.816,1.816,0,0,1-2.568,2.569l-1.4-1.4A3.179,3.179,0,1,0,305.178,302Zm0,0" transform="translate(-292.858 -292.858)" fill="#fff" opacity="0.5"/>
      <path id="Path_1770" data-name="Path 1770" d="M3.178,6.357a3.191,3.191,0,0,0,.561-.049l-1.4-1.4A1.816,1.816,0,0,1,4.908,2.339l1.4,1.4A3.179,3.179,0,1,0,3.178,6.357Zm0,0" fill="#fff" opacity="0.5"/>
      <path id="Path_1771" data-name="Path 1771" d="M4.908,306.017a1.816,1.816,0,0,1-2.569-2.568l1.4-1.4a3.173,3.173,0,1,0,2.568,2.568Zm0,0" transform="translate(0 -292.858)" fill="#fff" opacity="0.5"/>
    </g>
  </g>
</svg>
