<svg xmlns="http://www.w3.org/2000/svg" width="30" height="30" viewBox="0 0 30 30">
  <g id="Group_972" data-name="Group 972" transform="translate(-548 -482)">
    <g id="Group_788" data-name="Group 788" transform="translate(538 477)">
      <circle id="Ellipse_354" data-name="Ellipse 354" cx="15" cy="15" r="15" transform="translate(10 5)" fill="#ffa16c"/>
    </g>
    <path id="Path_1777" data-name="Path 1777" d="M32.806,5.894c.012-.144.021-.29.021-.448A5.444,5.444,0,0,0,24.4.889a5.513,5.513,0,0,0-1.809,1.965,4.864,4.864,0,0,0-.517-.027,4.322,4.322,0,0,0-2.642.9,4.532,4.532,0,0,0-1.5,2.047A3.782,3.782,0,0,0,19.7,12.9h2.235v2.8h.975V12.9h4.623v2.55l-.97-.97-.689.689,2.171,2.171L30.283,15.1l-.689-.689L28.5,15.5V12.9h2.323a3.781,3.781,0,0,0,1.979-7Zm.537,4.468a2.807,2.807,0,0,1-2.516,1.562H28.5V8.816h-.975v3.108H22.906V9.068l.97.97.689-.689L22.394,7.177,20.152,9.42l.689.689,1.09-1.09v2.9H19.7A2.808,2.808,0,0,1,17.71,7.129a2.9,2.9,0,0,1,.828-.572l.2-.091.064-.207A3.475,3.475,0,0,1,22.075,3.8a3.627,3.627,0,0,1,.7.065l.376.075.162-.348A4.547,4.547,0,0,1,24.938,1.7a4.469,4.469,0,0,1,6.915,3.742,5.912,5.912,0,0,1-.041.608l-.04.4.3.15A2.807,2.807,0,0,1,33.343,10.362Z" transform="translate(537.248 489.177)" fill="#fff"/>
  </g>
</svg>
