<svg xmlns="http://www.w3.org/2000/svg" width="30" height="30" viewBox="0 0 30 30">
  <g id="Group_971" data-name="Group 971" transform="translate(-548 -400)">
    <g id="Group_788" data-name="Group 788" transform="translate(538 395)">
      <circle id="Ellipse_354" data-name="Ellipse 354" cx="15" cy="15" r="15" transform="translate(10 5)" fill="#ff3d82"/>
    </g>
    <g id="Group_965" data-name="Group 965" transform="translate(-2446.937 -305.27)">
      <path id="Path_1764" data-name="Path 1764" d="M3042.948,815.727l-2.114-5.106a.193.193,0,0,0-.357,0l-2.1,5.09a.193.193,0,0,0,.269.244l1.946-1.027,2.088,1.044A.193.193,0,0,0,3042.948,815.727Z" transform="translate(-33.484 -90.977)" fill="#fff"/>
      <rect id="Rectangle_786" data-name="Rectangle 786" width="0.886" height="0.6" transform="translate(3014.908 717.615) rotate(-45.003)" fill="#fff"/>
      <rect id="Rectangle_787" data-name="Rectangle 787" width="0.886" height="0.6" transform="translate(3011.511 714.218) rotate(-44.997)" fill="#fff"/>
      <rect id="Rectangle_788" data-name="Rectangle 788" width="0.886" height="0.6" transform="translate(3015.757 718.464) rotate(-44.997)" fill="#fff"/>
      <rect id="Rectangle_789" data-name="Rectangle 789" width="0.886" height="0.6" transform="translate(3014.059 716.766) rotate(-45.003)" fill="#fff"/>
      <rect id="Rectangle_790" data-name="Rectangle 790" width="0.886" height="0.6" transform="translate(3012.361 715.068) rotate(-44.997)" fill="#fff"/>
      <rect id="Rectangle_791" data-name="Rectangle 791" width="0.886" height="0.6" transform="translate(3013.21 715.917) rotate(-44.997)" fill="#fff"/>
      <path id="Path_1765" data-name="Path 1765" d="M3015.951,712.27h-11.823a1.92,1.92,0,0,0-1.917,1.917V726.01a1.92,1.92,0,0,0,1.917,1.917h11.823a1.916,1.916,0,0,0,1.917-1.917V714.187A1.92,1.92,0,0,0,3015.951,712.27Zm-6.286.886-2.6,2.6-2.6-2.6Zm-6.568,1.031a1.029,1.029,0,0,1,.36-.782l2.98,2.98h0l-3.34,3.34Zm1.031,12.854a1.032,1.032,0,0,1-1.031-1.031v-5.033l3.966-3.966h0l5.606,5.606-4.425,4.424Zm11.823,0H3009.5l3.8-3.8,3.437,3.437A1.029,1.029,0,0,1,3015.951,727.042Zm-2.029-4.424,2.995-2.995.065.065v5.989Zm-.627-.627-5.605-5.605,2.995-2.995.4.4.627-.627-.011-.011h4.248a1.032,1.032,0,0,1,1.031,1.031V718.3Z" transform="translate(0)" fill="#fff"/>
    </g>
  </g>
</svg>
