<svg xmlns="http://www.w3.org/2000/svg" width="30" height="30" viewBox="0 0 30 30">
  <g id="Group_975" data-name="Group 975" transform="translate(-548 -728)">
    <g id="Group_788" data-name="Group 788" transform="translate(538 723)">
      <circle id="Ellipse_354" data-name="Ellipse 354" cx="15" cy="15" r="15" transform="translate(10 5)" fill="#2b84d1"/>
    </g>
    <g id="invoice" transform="translate(554.8 736.52)">
      <path id="Path_1773" data-name="Path 1773" d="M13.487.154a.323.323,0,0,0-.17-.048H3.64A1.5,1.5,0,0,0,2.131,1.6L2.074,9.931H.325A.325.325,0,0,0,0,10.256v1.5a2,2,0,0,0,2,2,.328.328,0,0,0,.067-.007h8.075c.048,0,.1.006.145.006a2.03,2.03,0,0,0,2.027-2.03V6.852H14.5a.325.325,0,0,0,.325-.325V1.7A1.575,1.575,0,0,0,13.487.154ZM.65,11.758V10.581H8.257v1.143A2.023,2.023,0,0,0,8.794,13.1H1.953a.323.323,0,0,0-.046,0A1.349,1.349,0,0,1,.65,11.758ZM11.661,1.7V11.724A1.38,1.38,0,0,1,10.328,13.1a.337.337,0,0,0-.053,0h-.111a1.4,1.4,0,0,1-1.257-1.374V10.256a.325.325,0,0,0-.325-.325H2.724L2.781,1.6A.853.853,0,0,1,3.64.755h8.344A1.551,1.551,0,0,0,11.661,1.7Zm2.516,4.5H12.311V1.7a.933.933,0,0,1,1.866,0Zm0,0" fill="#fff" stroke="#fff" stroke-width="0.2"/>
      <path id="Path_1774" data-name="Path 1774" d="M118.712,89.091h3.078a.325.325,0,0,0,0-.65h-3.078a.325.325,0,0,0,0,.65Zm0,0" transform="translate(-114.539 -85.465)" fill="#fff" stroke="#fff" stroke-width="0.2"/>
      <g id="Group_967" data-name="Group 967" transform="translate(3.847 5.3)">
        <path id="Path_1775" data-name="Path 1775" d="M124.453,159.941h-5.742a.325.325,0,0,0,0,.65h5.742a.325.325,0,0,0,0-.65Zm0,0" transform="translate(-118.387 -159.941)" fill="#fff" stroke="#fff" stroke-width="0.2"/>
        <path id="Path_1776" data-name="Path 1776" d="M124.453,231.438h-5.742a.325.325,0,0,0,0,.65h5.742a.325.325,0,0,0,0-.65Zm0,0" transform="translate(-118.387 -229.114)" fill="#fff" stroke="#fff" stroke-width="0.2"/>
      </g>
    </g>
  </g>
</svg>
