<svg width="600" height="280" viewBox="0 0 600 280" fill="none" xmlns="http://www.w3.org/2000/svg">
<rect width="600" height="280" fill="white"/>
<line x1="53" y1="235.5" x2="573" y2="235.5" stroke="#E7E7E7"/>
<rect x="53" y="196" width="25" height="40" fill="#E7E7E7"/>
<rect x="78" y="181" width="26" height="55" fill="#E7E7E7"/>
<rect x="104" y="152" width="25" height="84" fill="#E7E7E7"/>
<rect x="129" y="171" width="26" height="65" fill="#E7E7E7"/>
<rect x="155" y="141" width="25" height="95" fill="#E7E7E7"/>
<rect x="180" y="152" width="26" height="84" fill="#E7E7E7"/>
<rect x="206" y="125" width="25" height="111" fill="#E7E7E7"/>
<rect x="231" y="109" width="26" height="127" fill="#E7E7E7"/>
<rect x="257" y="94" width="25" height="142" fill="#E7E7E7"/>
<rect x="282" y="79" width="26" height="157" fill="#E7E7E7"/>
<rect x="308" y="29" width="25" height="207" fill="#E7E7E7"/>
<rect x="333" y="51" width="26" height="185" fill="#E7E7E7"/>
<rect x="359" y="94" width="25" height="142" fill="#E7E7E7"/>
<rect x="384" y="109" width="26" height="127" fill="#E7E7E7"/>
<rect x="410" y="131" width="25" height="105" fill="#E7E7E7"/>
<rect x="435" y="171" width="26" height="65" fill="#E7E7E7"/>
<rect x="461" y="164" width="25" height="72" fill="#E7E7E7"/>
<rect x="486" y="181" width="26" height="55" fill="#E7E7E7"/>
<rect x="512" y="189" width="25" height="47" fill="#E7E7E7"/>
<rect x="537" y="208" width="25" height="28" fill="#E7E7E7"/>
<path d="M56.4794 250.12C55.7114 250.12 55.0994 249.9 54.6434 249.46C54.1874 249.02 53.9594 248.432 53.9594 247.696V243.904C53.9594 243.168 54.1874 242.584 54.6434 242.152C55.0994 241.712 55.7114 241.492 56.4794 241.492C57.2554 241.492 57.8754 241.712 58.3394 242.152C58.8034 242.592 59.0354 243.176 59.0354 243.904V247.696C59.0354 248.432 58.8034 249.02 58.3394 249.46C57.8754 249.9 57.2554 250.12 56.4794 250.12ZM56.4794 249.376C56.9914 249.376 57.4034 249.228 57.7154 248.932C58.0274 248.636 58.1834 248.24 58.1834 247.744V243.868C58.1834 243.38 58.0274 242.988 57.7154 242.692C57.4114 242.396 56.9994 242.248 56.4794 242.248C55.9754 242.248 55.5714 242.396 55.2674 242.692C54.9634 242.988 54.8114 243.38 54.8114 243.868V247.744C54.8114 248.24 54.9634 248.636 55.2674 248.932C55.5714 249.228 55.9754 249.376 56.4794 249.376Z" fill="#E7E7E7"/>
<path d="M185.878 246.328C185.95 246.68 185.986 247.04 185.986 247.408C185.986 247.8 185.95 248.136 185.878 248.416C185.742 248.928 185.47 249.336 185.062 249.64C184.654 249.936 184.162 250.084 183.586 250.084C183.018 250.084 182.534 249.94 182.134 249.652C181.734 249.364 181.462 248.98 181.318 248.5C181.262 248.324 181.226 248.148 181.21 247.972V247.948C181.21 247.884 181.246 247.852 181.318 247.852H181.954C182.034 247.852 182.078 247.892 182.086 247.972C182.086 248.02 182.102 248.1 182.134 248.212C182.214 248.556 182.378 248.832 182.626 249.04C182.882 249.24 183.198 249.34 183.574 249.34C183.958 249.34 184.278 249.232 184.534 249.016C184.798 248.8 184.97 248.504 185.05 248.128C185.098 247.944 185.122 247.704 185.122 247.408C185.122 247.136 185.102 246.876 185.062 246.628C185.006 246.26 184.846 245.98 184.582 245.788C184.318 245.596 183.99 245.5 183.598 245.5C183.246 245.5 182.93 245.58 182.65 245.74C182.37 245.9 182.19 246.112 182.11 246.376C182.086 246.448 182.042 246.484 181.978 246.484H181.33C181.25 246.484 181.21 246.444 181.21 246.364V241.72C181.21 241.64 181.25 241.6 181.33 241.6H185.53C185.61 241.6 185.65 241.64 185.65 241.72V242.224C185.65 242.304 185.61 242.344 185.53 242.344H182.11C182.078 242.344 182.062 242.36 182.062 242.392L182.05 245.296C182.05 245.312 182.054 245.324 182.062 245.332C182.078 245.34 182.094 245.336 182.11 245.32C182.31 245.136 182.546 244.996 182.818 244.9C183.09 244.796 183.378 244.744 183.682 244.744C184.25 244.744 184.73 244.884 185.122 245.164C185.514 245.436 185.766 245.824 185.878 246.328Z" fill="#E7E7E7"/>
<path d="M307.17 241.636C307.218 241.612 307.27 241.6 307.326 241.6H307.974C308.054 241.6 308.094 241.64 308.094 241.72V249.88C308.094 249.96 308.054 250 307.974 250H307.362C307.282 250 307.242 249.96 307.242 249.88V242.572C307.242 242.556 307.234 242.544 307.218 242.536C307.21 242.528 307.198 242.528 307.182 242.536L305.91 243.052L305.862 243.064C305.814 243.064 305.782 243.032 305.766 242.968L305.706 242.512V242.488C305.706 242.448 305.734 242.408 305.79 242.368L307.17 241.636ZM312.577 250.12C311.809 250.12 311.197 249.9 310.741 249.46C310.285 249.02 310.057 248.432 310.057 247.696V243.904C310.057 243.168 310.285 242.584 310.741 242.152C311.197 241.712 311.809 241.492 312.577 241.492C313.353 241.492 313.973 241.712 314.437 242.152C314.901 242.592 315.133 243.176 315.133 243.904V247.696C315.133 248.432 314.901 249.02 314.437 249.46C313.973 249.9 313.353 250.12 312.577 250.12ZM312.577 249.376C313.089 249.376 313.501 249.228 313.813 248.932C314.125 248.636 314.281 248.24 314.281 247.744V243.868C314.281 243.38 314.125 242.988 313.813 242.692C313.509 242.396 313.097 242.248 312.577 242.248C312.073 242.248 311.669 242.396 311.365 242.692C311.061 242.988 310.909 243.38 310.909 243.868V247.744C310.909 248.24 311.061 248.636 311.365 248.932C311.669 249.228 312.073 249.376 312.577 249.376Z" fill="#E7E7E7"/>
<path d="M434.48 241.636C434.528 241.612 434.58 241.6 434.636 241.6H435.284C435.364 241.6 435.404 241.64 435.404 241.72V249.88C435.404 249.96 435.364 250 435.284 250H434.672C434.592 250 434.552 249.96 434.552 249.88V242.572C434.552 242.556 434.544 242.544 434.528 242.536C434.52 242.528 434.508 242.528 434.492 242.536L433.22 243.052L433.172 243.064C433.124 243.064 433.092 243.032 433.076 242.968L433.016 242.512V242.488C433.016 242.448 433.044 242.408 433.1 242.368L434.48 241.636ZM441.976 246.328C442.048 246.68 442.084 247.04 442.084 247.408C442.084 247.8 442.048 248.136 441.976 248.416C441.84 248.928 441.568 249.336 441.16 249.64C440.752 249.936 440.26 250.084 439.684 250.084C439.116 250.084 438.632 249.94 438.232 249.652C437.832 249.364 437.56 248.98 437.416 248.5C437.36 248.324 437.324 248.148 437.308 247.972V247.948C437.308 247.884 437.344 247.852 437.416 247.852H438.052C438.132 247.852 438.176 247.892 438.184 247.972C438.184 248.02 438.2 248.1 438.232 248.212C438.312 248.556 438.476 248.832 438.724 249.04C438.98 249.24 439.296 249.34 439.672 249.34C440.056 249.34 440.376 249.232 440.632 249.016C440.896 248.8 441.068 248.504 441.148 248.128C441.196 247.944 441.22 247.704 441.22 247.408C441.22 247.136 441.2 246.876 441.16 246.628C441.104 246.26 440.944 245.98 440.68 245.788C440.416 245.596 440.088 245.5 439.696 245.5C439.344 245.5 439.028 245.58 438.748 245.74C438.468 245.9 438.288 246.112 438.208 246.376C438.184 246.448 438.14 246.484 438.076 246.484H437.428C437.348 246.484 437.308 246.444 437.308 246.364V241.72C437.308 241.64 437.348 241.6 437.428 241.6H441.628C441.708 241.6 441.748 241.64 441.748 241.72V242.224C441.748 242.304 441.708 242.344 441.628 242.344H438.208C438.176 242.344 438.16 242.36 438.16 242.392L438.148 245.296C438.148 245.312 438.152 245.324 438.16 245.332C438.176 245.34 438.192 245.336 438.208 245.32C438.408 245.136 438.644 244.996 438.916 244.9C439.188 244.796 439.476 244.744 439.78 244.744C440.348 244.744 440.828 244.884 441.22 245.164C441.612 245.436 441.864 245.824 441.976 246.328Z" fill="#E7E7E7"/>
<path d="M559.215 249.196C559.191 249.236 559.199 249.256 559.239 249.256H563.007C563.087 249.256 563.127 249.296 563.127 249.376V249.88C563.127 249.96 563.087 250 563.007 250H558.219C558.139 250 558.099 249.96 558.099 249.88V249.376C558.099 249.32 558.119 249.272 558.159 249.232C558.431 248.912 559.043 248.16 559.995 246.976L560.883 245.872C561.635 244.92 562.011 244.18 562.011 243.652C562.011 243.228 561.867 242.888 561.579 242.632C561.291 242.376 560.915 242.248 560.451 242.248C559.995 242.248 559.627 242.38 559.347 242.644C559.067 242.9 558.931 243.24 558.939 243.664V244.036C558.939 244.116 558.899 244.156 558.819 244.156H558.195C558.115 244.156 558.075 244.116 558.075 244.036V243.556C558.091 242.94 558.319 242.444 558.759 242.068C559.207 241.692 559.771 241.504 560.451 241.504C560.931 241.504 561.355 241.596 561.723 241.78C562.091 241.964 562.375 242.22 562.575 242.548C562.775 242.868 562.875 243.232 562.875 243.64C562.875 244.32 562.499 245.14 561.747 246.1C561.355 246.604 560.599 247.532 559.479 248.884L559.215 249.196ZM567.196 250.12C566.428 250.12 565.816 249.9 565.36 249.46C564.904 249.02 564.676 248.432 564.676 247.696V243.904C564.676 243.168 564.904 242.584 565.36 242.152C565.816 241.712 566.428 241.492 567.196 241.492C567.972 241.492 568.592 241.712 569.056 242.152C569.52 242.592 569.752 243.176 569.752 243.904V247.696C569.752 248.432 569.52 249.02 569.056 249.46C568.592 249.9 567.972 250.12 567.196 250.12ZM567.196 249.376C567.708 249.376 568.12 249.228 568.432 248.932C568.744 248.636 568.9 248.24 568.9 247.744V243.868C568.9 243.38 568.744 242.988 568.432 242.692C568.128 242.396 567.716 242.248 567.196 242.248C566.692 242.248 566.288 242.396 565.984 242.692C565.68 242.988 565.528 243.38 565.528 243.868V247.744C565.528 248.24 565.68 248.636 565.984 248.932C566.288 249.228 566.692 249.376 567.196 249.376Z" fill="#E7E7E7"/>
<path d="M243.612 257.6C243.692 257.6 243.732 257.64 243.732 257.72V258.236C243.732 258.316 243.692 258.356 243.612 258.356H241.26C241.228 258.356 241.212 258.372 241.212 258.404V265.88C241.212 265.96 241.172 266 241.092 266H240.48C240.4 266 240.36 265.96 240.36 265.88V258.404C240.36 258.372 240.344 258.356 240.312 258.356H238.056C237.976 258.356 237.936 258.316 237.936 258.236V257.72C237.936 257.64 237.976 257.6 238.056 257.6H243.612ZM249.024 261.944C249.056 262.168 249.072 262.448 249.072 262.784V263.168C249.072 263.248 249.032 263.288 248.952 263.288H245.076C245.044 263.288 245.028 263.304 245.028 263.336C245.044 263.776 245.068 264.06 245.1 264.188C245.188 264.548 245.376 264.832 245.664 265.04C245.952 265.248 246.32 265.352 246.768 265.352C247.104 265.352 247.4 265.276 247.656 265.124C247.912 264.972 248.112 264.756 248.256 264.476C248.304 264.404 248.36 264.388 248.424 264.428L248.892 264.704C248.956 264.744 248.972 264.8 248.94 264.872C248.74 265.256 248.44 265.56 248.04 265.784C247.64 266 247.18 266.108 246.66 266.108C246.092 266.1 245.616 265.964 245.232 265.7C244.848 265.436 244.572 265.068 244.404 264.596C244.26 264.212 244.188 263.66 244.188 262.94C244.188 262.604 244.192 262.332 244.2 262.124C244.216 261.908 244.248 261.716 244.296 261.548C244.432 261.028 244.704 260.612 245.112 260.3C245.528 259.988 246.028 259.832 246.612 259.832C247.34 259.832 247.9 260.016 248.292 260.384C248.684 260.752 248.928 261.272 249.024 261.944ZM246.612 260.576C246.22 260.576 245.892 260.68 245.628 260.888C245.372 261.088 245.204 261.36 245.124 261.704C245.076 261.872 245.044 262.144 245.028 262.52C245.028 262.552 245.044 262.568 245.076 262.568H248.184C248.216 262.568 248.232 262.552 248.232 262.52C248.216 262.16 248.192 261.904 248.16 261.752C248.072 261.392 247.892 261.108 247.62 260.9C247.356 260.684 247.02 260.576 246.612 260.576ZM256.911 259.844C257.511 259.844 257.983 260.024 258.327 260.384C258.679 260.744 258.855 261.236 258.855 261.86V265.88C258.855 265.96 258.815 266 258.735 266H258.135C258.055 266 258.015 265.96 258.015 265.88V262.028C258.015 261.588 257.887 261.24 257.631 260.984C257.383 260.72 257.055 260.588 256.647 260.588C256.223 260.588 255.879 260.716 255.615 260.972C255.359 261.228 255.231 261.572 255.231 262.004V265.88C255.231 265.96 255.191 266 255.111 266H254.499C254.419 266 254.379 265.96 254.379 265.88V262.028C254.379 261.588 254.255 261.24 254.007 260.984C253.759 260.72 253.427 260.588 253.011 260.588C252.587 260.588 252.247 260.716 251.991 260.972C251.743 261.228 251.619 261.572 251.619 262.004V265.88C251.619 265.96 251.579 266 251.499 266H250.887C250.807 266 250.767 265.96 250.767 265.88V260.048C250.767 259.968 250.807 259.928 250.887 259.928H251.499C251.579 259.928 251.619 259.968 251.619 260.048V260.528C251.619 260.544 251.623 260.556 251.631 260.564C251.647 260.564 251.663 260.556 251.679 260.54C251.855 260.308 252.079 260.136 252.351 260.024C252.631 259.904 252.939 259.844 253.275 259.844C253.691 259.844 254.047 259.928 254.343 260.096C254.639 260.264 254.863 260.508 255.015 260.828C255.031 260.868 255.051 260.868 255.075 260.828C255.251 260.5 255.499 260.256 255.819 260.096C256.139 259.928 256.503 259.844 256.911 259.844ZM265.408 261.44C265.528 261.824 265.588 262.332 265.588 262.964C265.588 263.604 265.536 264.1 265.432 264.452C265.288 264.964 265.024 265.368 264.64 265.664C264.264 265.952 263.788 266.096 263.212 266.096C262.9 266.096 262.612 266.036 262.348 265.916C262.084 265.788 261.864 265.608 261.688 265.376C261.672 265.36 261.656 265.356 261.64 265.364C261.632 265.364 261.628 265.372 261.628 265.388V268.208C261.628 268.288 261.588 268.328 261.508 268.328H260.896C260.816 268.328 260.776 268.288 260.776 268.208V260.048C260.776 259.968 260.816 259.928 260.896 259.928H261.508C261.588 259.928 261.628 259.968 261.628 260.048V260.552C261.628 260.568 261.632 260.58 261.64 260.588C261.656 260.588 261.672 260.58 261.688 260.564C261.864 260.332 262.08 260.152 262.336 260.024C262.6 259.896 262.892 259.832 263.212 259.832C263.772 259.832 264.24 259.976 264.616 260.264C265 260.552 265.264 260.944 265.408 261.44ZM264.46 264.476C264.548 264.3 264.612 264.104 264.652 263.888C264.7 263.664 264.724 263.356 264.724 262.964C264.724 262.588 264.708 262.296 264.676 262.088C264.644 261.872 264.588 261.68 264.508 261.512C264.412 261.224 264.24 260.996 263.992 260.828C263.752 260.66 263.464 260.576 263.128 260.576C262.808 260.576 262.54 260.66 262.324 260.828C262.108 260.996 261.948 261.22 261.844 261.5C261.772 261.66 261.72 261.848 261.688 262.064C261.656 262.28 261.64 262.58 261.64 262.964C261.64 263.348 261.656 263.652 261.688 263.876C261.72 264.092 261.776 264.284 261.856 264.452C261.952 264.724 262.108 264.944 262.324 265.112C262.548 265.272 262.812 265.352 263.116 265.352C263.436 265.352 263.712 265.272 263.944 265.112C264.184 264.952 264.356 264.74 264.46 264.476ZM271.887 261.944C271.919 262.168 271.935 262.448 271.935 262.784V263.168C271.935 263.248 271.895 263.288 271.815 263.288H267.939C267.907 263.288 267.891 263.304 267.891 263.336C267.907 263.776 267.931 264.06 267.963 264.188C268.051 264.548 268.239 264.832 268.527 265.04C268.815 265.248 269.183 265.352 269.631 265.352C269.967 265.352 270.263 265.276 270.519 265.124C270.775 264.972 270.975 264.756 271.119 264.476C271.167 264.404 271.223 264.388 271.287 264.428L271.755 264.704C271.819 264.744 271.835 264.8 271.803 264.872C271.603 265.256 271.303 265.56 270.903 265.784C270.503 266 270.043 266.108 269.523 266.108C268.955 266.1 268.479 265.964 268.095 265.7C267.711 265.436 267.435 265.068 267.267 264.596C267.123 264.212 267.051 263.66 267.051 262.94C267.051 262.604 267.055 262.332 267.063 262.124C267.079 261.908 267.111 261.716 267.159 261.548C267.295 261.028 267.567 260.612 267.975 260.3C268.391 259.988 268.891 259.832 269.475 259.832C270.203 259.832 270.763 260.016 271.155 260.384C271.547 260.752 271.791 261.272 271.887 261.944ZM269.475 260.576C269.083 260.576 268.755 260.68 268.491 260.888C268.235 261.088 268.067 261.36 267.987 261.704C267.939 261.872 267.907 262.144 267.891 262.52C267.891 262.552 267.907 262.568 267.939 262.568H271.047C271.079 262.568 271.095 262.552 271.095 262.52C271.079 262.16 271.055 261.904 271.023 261.752C270.935 261.392 270.755 261.108 270.483 260.9C270.219 260.684 269.883 260.576 269.475 260.576ZM276.078 259.868C276.342 259.868 276.57 259.92 276.762 260.024C276.826 260.056 276.85 260.108 276.834 260.18L276.702 260.768C276.678 260.848 276.626 260.872 276.546 260.84C276.41 260.784 276.254 260.756 276.078 260.756L275.922 260.768C275.506 260.784 275.162 260.94 274.89 261.236C274.618 261.524 274.482 261.892 274.482 262.34V265.88C274.482 265.96 274.442 266 274.362 266H273.75C273.67 266 273.63 265.96 273.63 265.88V260.048C273.63 259.968 273.67 259.928 273.75 259.928H274.362C274.442 259.928 274.482 259.968 274.482 260.048V260.78C274.482 260.804 274.486 260.82 274.494 260.828C274.51 260.828 274.522 260.82 274.53 260.804C274.698 260.508 274.91 260.28 275.166 260.12C275.43 259.952 275.734 259.868 276.078 259.868ZM280.078 259.832C280.798 259.832 281.354 260.016 281.746 260.384C282.138 260.752 282.334 261.24 282.334 261.848V265.88C282.334 265.96 282.294 266 282.214 266H281.602C281.522 266 281.482 265.96 281.482 265.88V265.388C281.482 265.372 281.474 265.36 281.458 265.352C281.45 265.344 281.438 265.348 281.422 265.364C281.222 265.604 280.962 265.788 280.642 265.916C280.322 266.036 279.966 266.096 279.574 266.096C279.006 266.096 278.53 265.952 278.146 265.664C277.762 265.376 277.57 264.936 277.57 264.344C277.57 263.744 277.786 263.272 278.218 262.928C278.658 262.576 279.266 262.4 280.042 262.4H281.434C281.466 262.4 281.482 262.384 281.482 262.352V261.896C281.482 261.488 281.366 261.168 281.134 260.936C280.91 260.696 280.558 260.576 280.078 260.576C279.694 260.576 279.382 260.652 279.142 260.804C278.902 260.948 278.754 261.152 278.698 261.416C278.674 261.496 278.626 261.532 278.554 261.524L277.906 261.44C277.818 261.424 277.782 261.392 277.798 261.344C277.862 260.896 278.102 260.532 278.518 260.252C278.934 259.972 279.454 259.832 280.078 259.832ZM279.742 265.364C280.214 265.364 280.622 265.248 280.966 265.016C281.31 264.776 281.482 264.456 281.482 264.056V263.12C281.482 263.088 281.466 263.072 281.434 263.072H280.174C279.646 263.072 279.222 263.18 278.902 263.396C278.582 263.612 278.422 263.912 278.422 264.296C278.422 264.648 278.542 264.916 278.782 265.1C279.03 265.276 279.35 265.364 279.742 265.364ZM286.784 260.516C286.784 260.596 286.744 260.636 286.664 260.636H285.308C285.276 260.636 285.26 260.652 285.26 260.684V264.224C285.26 264.608 285.344 264.88 285.512 265.04C285.688 265.192 285.96 265.268 286.328 265.268H286.628C286.708 265.268 286.748 265.308 286.748 265.388V265.88C286.748 265.96 286.708 266 286.628 266C286.532 266.008 286.384 266.012 286.184 266.012C285.608 266.012 285.172 265.904 284.876 265.688C284.58 265.472 284.432 265.072 284.432 264.488V260.684C284.432 260.652 284.416 260.636 284.384 260.636H283.652C283.572 260.636 283.532 260.596 283.532 260.516V260.048C283.532 259.968 283.572 259.928 283.652 259.928H284.384C284.416 259.928 284.432 259.912 284.432 259.88V258.488C284.432 258.408 284.472 258.368 284.552 258.368H285.14C285.22 258.368 285.26 258.408 285.26 258.488V259.88C285.26 259.912 285.276 259.928 285.308 259.928H286.664C286.744 259.928 286.784 259.968 286.784 260.048V260.516ZM292.103 260.048C292.103 259.968 292.143 259.928 292.223 259.928H292.835C292.915 259.928 292.955 259.968 292.955 260.048V265.88C292.955 265.96 292.915 266 292.835 266H292.223C292.143 266 292.103 265.96 292.103 265.88V265.364C292.103 265.348 292.095 265.336 292.079 265.328C292.063 265.32 292.051 265.324 292.043 265.34C291.707 265.836 291.175 266.084 290.447 266.084C290.063 266.084 289.707 266.008 289.379 265.856C289.059 265.696 288.803 265.468 288.611 265.172C288.427 264.876 288.335 264.52 288.335 264.104V260.048C288.335 259.968 288.375 259.928 288.455 259.928H289.067C289.147 259.928 289.187 259.968 289.187 260.048V263.852C289.187 264.308 289.315 264.672 289.571 264.944C289.827 265.208 290.175 265.34 290.615 265.34C291.071 265.34 291.431 265.204 291.695 264.932C291.967 264.66 292.103 264.3 292.103 263.852V260.048ZM297.312 259.868C297.576 259.868 297.804 259.92 297.996 260.024C298.06 260.056 298.084 260.108 298.068 260.18L297.936 260.768C297.912 260.848 297.86 260.872 297.78 260.84C297.644 260.784 297.488 260.756 297.312 260.756L297.156 260.768C296.74 260.784 296.396 260.94 296.124 261.236C295.852 261.524 295.716 261.892 295.716 262.34V265.88C295.716 265.96 295.676 266 295.596 266H294.984C294.904 266 294.864 265.96 294.864 265.88V260.048C294.864 259.968 294.904 259.928 294.984 259.928H295.596C295.676 259.928 295.716 259.968 295.716 260.048V260.78C295.716 260.804 295.72 260.82 295.728 260.828C295.744 260.828 295.756 260.82 295.764 260.804C295.932 260.508 296.144 260.28 296.4 260.12C296.664 259.952 296.968 259.868 297.312 259.868ZM303.833 261.944C303.865 262.168 303.881 262.448 303.881 262.784V263.168C303.881 263.248 303.841 263.288 303.761 263.288H299.885C299.853 263.288 299.837 263.304 299.837 263.336C299.853 263.776 299.877 264.06 299.909 264.188C299.997 264.548 300.185 264.832 300.473 265.04C300.761 265.248 301.129 265.352 301.577 265.352C301.913 265.352 302.209 265.276 302.465 265.124C302.721 264.972 302.921 264.756 303.065 264.476C303.113 264.404 303.169 264.388 303.233 264.428L303.701 264.704C303.765 264.744 303.781 264.8 303.749 264.872C303.549 265.256 303.249 265.56 302.849 265.784C302.449 266 301.989 266.108 301.469 266.108C300.901 266.1 300.425 265.964 300.041 265.7C299.657 265.436 299.381 265.068 299.213 264.596C299.069 264.212 298.997 263.66 298.997 262.94C298.997 262.604 299.001 262.332 299.009 262.124C299.025 261.908 299.057 261.716 299.105 261.548C299.241 261.028 299.513 260.612 299.921 260.3C300.337 259.988 300.837 259.832 301.421 259.832C302.149 259.832 302.709 260.016 303.101 260.384C303.493 260.752 303.737 261.272 303.833 261.944ZM301.421 260.576C301.029 260.576 300.701 260.68 300.437 260.888C300.181 261.088 300.013 261.36 299.933 261.704C299.885 261.872 299.853 262.144 299.837 262.52C299.837 262.552 299.853 262.568 299.885 262.568H302.993C303.025 262.568 303.041 262.552 303.041 262.52C303.025 262.16 303.001 261.904 302.969 261.752C302.881 261.392 302.701 261.108 302.429 260.9C302.165 260.684 301.829 260.576 301.421 260.576ZM308.266 266C308.186 266 308.146 265.96 308.146 265.88V257.72C308.146 257.64 308.186 257.6 308.266 257.6H311.098C311.89 257.6 312.518 257.808 312.982 258.224C313.454 258.64 313.69 259.204 313.69 259.916V263.684C313.69 264.396 313.454 264.96 312.982 265.376C312.518 265.792 311.89 266 311.098 266H308.266ZM308.998 265.208C308.998 265.24 309.014 265.256 309.046 265.256H311.134C311.654 265.256 312.066 265.104 312.37 264.8C312.682 264.496 312.838 264.088 312.838 263.576V260.036C312.838 259.516 312.686 259.104 312.382 258.8C312.078 258.496 311.662 258.344 311.134 258.344H309.046C309.014 258.344 308.998 258.36 308.998 258.392V265.208ZM315.972 258.824C315.78 258.824 315.62 258.76 315.492 258.632C315.364 258.504 315.3 258.344 315.3 258.152C315.3 257.952 315.364 257.792 315.492 257.672C315.62 257.544 315.78 257.48 315.972 257.48C316.164 257.48 316.324 257.544 316.452 257.672C316.58 257.792 316.644 257.952 316.644 258.152C316.644 258.344 316.58 258.504 316.452 258.632C316.324 258.76 316.164 258.824 315.972 258.824ZM315.636 265.988C315.556 265.988 315.516 265.948 315.516 265.868V260.036C315.516 259.956 315.556 259.916 315.636 259.916H316.248C316.328 259.916 316.368 259.956 316.368 260.036V265.868C316.368 265.948 316.328 265.988 316.248 265.988H315.636ZM320.854 258.344C320.414 258.344 320.114 258.444 319.954 258.644C319.794 258.836 319.714 259.168 319.714 259.64V259.88C319.714 259.912 319.73 259.928 319.762 259.928H321.106C321.186 259.928 321.226 259.968 321.226 260.048V260.588C321.226 260.668 321.186 260.708 321.106 260.708H319.762C319.73 260.708 319.714 260.724 319.714 260.756V265.88C319.714 265.96 319.674 266 319.594 266H318.994C318.914 266 318.874 265.96 318.874 265.88V260.756C318.874 260.724 318.858 260.708 318.826 260.708H318.022C317.942 260.708 317.902 260.668 317.902 260.588V260.048C317.902 259.968 317.942 259.928 318.022 259.928H318.826C318.858 259.928 318.874 259.912 318.874 259.88V259.592C318.874 259.096 318.93 258.708 319.042 258.428C319.154 258.14 319.346 257.932 319.618 257.804C319.898 257.668 320.286 257.6 320.782 257.6H321.13C321.21 257.6 321.25 257.64 321.25 257.72V258.224C321.25 258.304 321.21 258.344 321.13 258.344H320.854ZM325.131 258.344C324.691 258.344 324.391 258.444 324.231 258.644C324.071 258.836 323.991 259.168 323.991 259.64V259.88C323.991 259.912 324.007 259.928 324.039 259.928H325.383C325.463 259.928 325.503 259.968 325.503 260.048V260.588C325.503 260.668 325.463 260.708 325.383 260.708H324.039C324.007 260.708 323.991 260.724 323.991 260.756V265.88C323.991 265.96 323.951 266 323.871 266H323.271C323.191 266 323.151 265.96 323.151 265.88V260.756C323.151 260.724 323.135 260.708 323.103 260.708H322.299C322.219 260.708 322.179 260.668 322.179 260.588V260.048C322.179 259.968 322.219 259.928 322.299 259.928H323.103C323.135 259.928 323.151 259.912 323.151 259.88V259.592C323.151 259.096 323.207 258.708 323.319 258.428C323.431 258.14 323.623 257.932 323.895 257.804C324.175 257.668 324.563 257.6 325.059 257.6H325.407C325.487 257.6 325.527 257.64 325.527 257.72V258.224C325.527 258.304 325.487 258.344 325.407 258.344H325.131ZM331.102 261.944C331.134 262.168 331.15 262.448 331.15 262.784V263.168C331.15 263.248 331.11 263.288 331.03 263.288H327.154C327.122 263.288 327.106 263.304 327.106 263.336C327.122 263.776 327.146 264.06 327.178 264.188C327.266 264.548 327.454 264.832 327.742 265.04C328.03 265.248 328.398 265.352 328.846 265.352C329.182 265.352 329.478 265.276 329.734 265.124C329.99 264.972 330.19 264.756 330.334 264.476C330.382 264.404 330.438 264.388 330.502 264.428L330.97 264.704C331.034 264.744 331.05 264.8 331.018 264.872C330.818 265.256 330.518 265.56 330.118 265.784C329.718 266 329.258 266.108 328.738 266.108C328.17 266.1 327.694 265.964 327.31 265.7C326.926 265.436 326.65 265.068 326.482 264.596C326.338 264.212 326.266 263.66 326.266 262.94C326.266 262.604 326.27 262.332 326.278 262.124C326.294 261.908 326.326 261.716 326.374 261.548C326.51 261.028 326.782 260.612 327.19 260.3C327.606 259.988 328.106 259.832 328.69 259.832C329.418 259.832 329.978 260.016 330.37 260.384C330.762 260.752 331.006 261.272 331.102 261.944ZM328.69 260.576C328.298 260.576 327.97 260.68 327.706 260.888C327.45 261.088 327.282 261.36 327.202 261.704C327.154 261.872 327.122 262.144 327.106 262.52C327.106 262.552 327.122 262.568 327.154 262.568H330.262C330.294 262.568 330.31 262.552 330.31 262.52C330.294 262.16 330.27 261.904 330.238 261.752C330.15 261.392 329.97 261.108 329.698 260.9C329.434 260.684 329.098 260.576 328.69 260.576ZM335.293 259.868C335.557 259.868 335.785 259.92 335.977 260.024C336.041 260.056 336.065 260.108 336.049 260.18L335.917 260.768C335.893 260.848 335.841 260.872 335.761 260.84C335.625 260.784 335.469 260.756 335.293 260.756L335.137 260.768C334.721 260.784 334.377 260.94 334.105 261.236C333.833 261.524 333.697 261.892 333.697 262.34V265.88C333.697 265.96 333.657 266 333.577 266H332.965C332.885 266 332.845 265.96 332.845 265.88V260.048C332.845 259.968 332.885 259.928 332.965 259.928H333.577C333.657 259.928 333.697 259.968 333.697 260.048V260.78C333.697 260.804 333.701 260.82 333.709 260.828C333.725 260.828 333.737 260.82 333.745 260.804C333.913 260.508 334.125 260.28 334.381 260.12C334.645 259.952 334.949 259.868 335.293 259.868ZM341.813 261.944C341.845 262.168 341.861 262.448 341.861 262.784V263.168C341.861 263.248 341.821 263.288 341.741 263.288H337.865C337.833 263.288 337.817 263.304 337.817 263.336C337.833 263.776 337.857 264.06 337.889 264.188C337.977 264.548 338.165 264.832 338.453 265.04C338.741 265.248 339.109 265.352 339.557 265.352C339.893 265.352 340.189 265.276 340.445 265.124C340.701 264.972 340.901 264.756 341.045 264.476C341.093 264.404 341.149 264.388 341.213 264.428L341.681 264.704C341.745 264.744 341.761 264.8 341.729 264.872C341.529 265.256 341.229 265.56 340.829 265.784C340.429 266 339.969 266.108 339.449 266.108C338.881 266.1 338.405 265.964 338.021 265.7C337.637 265.436 337.361 265.068 337.193 264.596C337.049 264.212 336.977 263.66 336.977 262.94C336.977 262.604 336.981 262.332 336.989 262.124C337.005 261.908 337.037 261.716 337.085 261.548C337.221 261.028 337.493 260.612 337.901 260.3C338.317 259.988 338.817 259.832 339.401 259.832C340.129 259.832 340.689 260.016 341.081 260.384C341.473 260.752 341.717 261.272 341.813 261.944ZM339.401 260.576C339.009 260.576 338.681 260.68 338.417 260.888C338.161 261.088 337.993 261.36 337.913 261.704C337.865 261.872 337.833 262.144 337.817 262.52C337.817 262.552 337.833 262.568 337.865 262.568H340.973C341.005 262.568 341.021 262.552 341.021 262.52C341.005 262.16 340.981 261.904 340.949 261.752C340.861 261.392 340.681 261.108 340.409 260.9C340.145 260.684 339.809 260.576 339.401 260.576ZM346.076 259.844C346.716 259.844 347.224 260.032 347.6 260.408C347.984 260.784 348.176 261.288 348.176 261.92V265.88C348.176 265.96 348.136 266 348.056 266H347.444C347.364 266 347.324 265.96 347.324 265.88V262.088C347.324 261.648 347.188 261.288 346.916 261.008C346.652 260.728 346.308 260.588 345.884 260.588C345.444 260.588 345.088 260.724 344.816 260.996C344.544 261.268 344.408 261.624 344.408 262.064V265.88C344.408 265.96 344.368 266 344.288 266H343.676C343.596 266 343.556 265.96 343.556 265.88V260.048C343.556 259.968 343.596 259.928 343.676 259.928H344.288C344.368 259.928 344.408 259.968 344.408 260.048V260.564C344.408 260.58 344.412 260.592 344.42 260.6C344.436 260.608 344.448 260.604 344.456 260.588C344.808 260.092 345.348 259.844 346.076 259.844ZM352.234 266.096C351.658 266.096 351.162 265.948 350.746 265.652C350.338 265.348 350.058 264.94 349.906 264.428C349.802 264.076 349.75 263.58 349.75 262.94C349.75 262.364 349.802 261.876 349.906 261.476C350.05 260.98 350.33 260.584 350.746 260.288C351.162 259.984 351.658 259.832 352.234 259.832C352.818 259.832 353.322 259.98 353.746 260.276C354.178 260.572 354.458 260.94 354.586 261.38C354.626 261.524 354.65 261.644 354.658 261.74V261.764C354.658 261.82 354.622 261.856 354.55 261.872L353.95 261.956H353.926C353.87 261.956 353.834 261.92 353.818 261.848L353.782 261.668C353.71 261.364 353.534 261.108 353.254 260.9C352.974 260.684 352.634 260.576 352.234 260.576C351.834 260.576 351.498 260.684 351.226 260.9C350.962 261.108 350.79 261.388 350.71 261.74C350.638 262.044 350.602 262.448 350.602 262.952C350.602 263.48 350.638 263.888 350.71 264.176C350.79 264.536 350.962 264.824 351.226 265.04C351.498 265.248 351.834 265.352 352.234 265.352C352.626 265.352 352.962 265.252 353.242 265.052C353.53 264.844 353.71 264.58 353.782 264.26V264.212L353.794 264.164C353.802 264.084 353.85 264.052 353.938 264.068L354.526 264.164C354.606 264.18 354.642 264.224 354.634 264.296L354.586 264.536C354.466 265 354.19 265.376 353.758 265.664C353.326 265.952 352.818 266.096 352.234 266.096ZM360.798 261.944C360.83 262.168 360.846 262.448 360.846 262.784V263.168C360.846 263.248 360.806 263.288 360.726 263.288H356.85C356.818 263.288 356.802 263.304 356.802 263.336C356.818 263.776 356.842 264.06 356.874 264.188C356.962 264.548 357.15 264.832 357.438 265.04C357.726 265.248 358.094 265.352 358.542 265.352C358.878 265.352 359.174 265.276 359.43 265.124C359.686 264.972 359.886 264.756 360.03 264.476C360.078 264.404 360.134 264.388 360.198 264.428L360.666 264.704C360.73 264.744 360.746 264.8 360.714 264.872C360.514 265.256 360.214 265.56 359.814 265.784C359.414 266 358.954 266.108 358.434 266.108C357.866 266.1 357.39 265.964 357.006 265.7C356.622 265.436 356.346 265.068 356.178 264.596C356.034 264.212 355.962 263.66 355.962 262.94C355.962 262.604 355.966 262.332 355.974 262.124C355.99 261.908 356.022 261.716 356.07 261.548C356.206 261.028 356.478 260.612 356.886 260.3C357.302 259.988 357.802 259.832 358.386 259.832C359.114 259.832 359.674 260.016 360.066 260.384C360.458 260.752 360.702 261.272 360.798 261.944ZM358.386 260.576C357.994 260.576 357.666 260.68 357.402 260.888C357.146 261.088 356.978 261.36 356.898 261.704C356.85 261.872 356.818 262.144 356.802 262.52C356.802 262.552 356.818 262.568 356.85 262.568H359.958C359.99 262.568 360.006 262.552 360.006 262.52C359.99 262.16 359.966 261.904 359.934 261.752C359.846 261.392 359.666 261.108 359.394 260.9C359.13 260.684 358.794 260.576 358.386 260.576Z" fill="#E7E7E7"/>
<path d="M19.732 154.618C19.812 154.618 19.852 154.658 19.852 154.738L19.852 155.65C19.852 155.69 19.868 155.71 19.9 155.71L21.808 155.998C21.84 155.998 21.856 155.986 21.856 155.962L21.856 155.158C21.856 155.078 21.896 155.038 21.976 155.038L22.48 155.05C22.56 155.05 22.6 155.09 22.6 155.17L22.6 156.07C22.6 156.11 22.616 156.13 22.648 156.13L24.7 156.454C24.772 156.462 24.808 156.502 24.808 156.574L24.784 157.186C24.784 157.218 24.772 157.246 24.748 157.27C24.724 157.294 24.692 157.302 24.652 157.294L22.648 156.994C22.616 156.994 22.6 157.006 22.6 157.03L22.6 158.938C22.6 158.978 22.616 158.998 22.648 158.998L24.7 159.322C24.772 159.33 24.808 159.37 24.808 159.442L24.784 160.054C24.784 160.086 24.772 160.114 24.748 160.138C24.724 160.162 24.692 160.17 24.652 160.162L22.648 159.862C22.616 159.862 22.6 159.874 22.6 159.898L22.6 160.666C22.6 160.746 22.56 160.786 22.48 160.786L21.976 160.774C21.896 160.774 21.856 160.734 21.856 160.654L21.856 159.778C21.856 159.738 21.84 159.718 21.808 159.718L19.9 159.43C19.868 159.43 19.852 159.442 19.852 159.466L19.852 160.222C19.852 160.302 19.812 160.342 19.732 160.342L19.216 160.342C19.136 160.342 19.096 160.302 19.096 160.222L19.096 159.346C19.096 159.306 19.08 159.286 19.048 159.286L16.996 158.962C16.924 158.954 16.888 158.914 16.888 158.842L16.912 158.23C16.912 158.198 16.924 158.17 16.948 158.146C16.972 158.122 17.004 158.114 17.044 158.122L19.048 158.422C19.08 158.422 19.096 158.41 19.096 158.386L19.096 156.49C19.096 156.45 19.08 156.43 19.048 156.43L16.996 156.106C16.924 156.098 16.888 156.058 16.888 155.986L16.912 155.374C16.912 155.342 16.924 155.314 16.948 155.29C16.972 155.266 17.004 155.258 17.044 155.266L19.048 155.566C19.08 155.566 19.096 155.554 19.096 155.53L19.096 154.726C19.096 154.646 19.136 154.606 19.216 154.606L19.732 154.618ZM21.856 156.91C21.856 156.87 21.84 156.85 21.808 156.85L19.9 156.562C19.868 156.562 19.852 156.574 19.852 156.598L19.852 158.506C19.852 158.546 19.868 158.566 19.9 158.566L21.808 158.854C21.84 158.854 21.856 158.842 21.856 158.818L21.856 156.91ZM25 150.09C25 150.17 24.96 150.21 24.88 150.21L16.72 150.21C16.64 150.21 16.6 150.17 16.6 150.09L16.6 149.478C16.6 149.398 16.64 149.358 16.72 149.358L24.88 149.358C24.96 149.358 25 149.398 25 149.478L25 150.09ZM25.06 145.28C25.06 145.728 24.988 146.128 24.844 146.48C24.7 146.824 24.508 147.092 24.268 147.284C24.028 147.468 23.76 147.56 23.464 147.56L23.32 147.56C23.24 147.56 23.2 147.52 23.2 147.44L23.2 146.864C23.2 146.784 23.24 146.744 23.32 146.744L23.416 146.744C23.68 146.744 23.912 146.608 24.112 146.336C24.304 146.056 24.4 145.708 24.4 145.292C24.4 144.876 24.308 144.54 24.124 144.284C23.932 144.028 23.692 143.9 23.404 143.9C23.204 143.9 23.04 143.968 22.912 144.104C22.784 144.232 22.684 144.388 22.612 144.572C22.54 144.748 22.448 145.024 22.336 145.4C22.208 145.848 22.08 146.216 21.952 146.504C21.824 146.792 21.648 147.036 21.424 147.236C21.192 147.428 20.9 147.524 20.548 147.524C20.036 147.524 19.628 147.324 19.324 146.924C19.02 146.524 18.868 145.996 18.868 145.34C18.868 144.9 18.94 144.512 19.084 144.176C19.228 143.832 19.428 143.568 19.684 143.384C19.932 143.2 20.212 143.108 20.524 143.108L20.56 143.108C20.64 143.108 20.68 143.148 20.68 143.228L20.68 143.792C20.68 143.872 20.64 143.912 20.56 143.912L20.524 143.912C20.252 143.912 20.024 144.044 19.84 144.308C19.656 144.564 19.564 144.912 19.564 145.352C19.564 145.76 19.648 146.088 19.816 146.336C19.976 146.584 20.2 146.708 20.488 146.708C20.76 146.708 20.968 146.588 21.112 146.348C21.256 146.108 21.4 145.736 21.544 145.232C21.68 144.768 21.808 144.392 21.928 144.104C22.048 143.816 22.224 143.568 22.456 143.36C22.68 143.152 22.976 143.048 23.344 143.048C23.864 143.048 24.28 143.252 24.592 143.66C24.904 144.068 25.06 144.608 25.06 145.28ZM25.06 139.679C25.06 140.127 24.988 140.527 24.844 140.879C24.7 141.223 24.508 141.491 24.268 141.683C24.028 141.867 23.76 141.959 23.464 141.959L23.32 141.959C23.24 141.959 23.2 141.919 23.2 141.839L23.2 141.263C23.2 141.183 23.24 141.143 23.32 141.143L23.416 141.143C23.68 141.143 23.912 141.007 24.112 140.735C24.304 140.455 24.4 140.107 24.4 139.691C24.4 139.275 24.308 138.939 24.124 138.683C23.932 138.427 23.692 138.299 23.404 138.299C23.204 138.299 23.04 138.367 22.912 138.503C22.784 138.631 22.684 138.787 22.612 138.971C22.54 139.147 22.448 139.423 22.336 139.799C22.208 140.247 22.08 140.615 21.952 140.903C21.824 141.191 21.648 141.435 21.424 141.635C21.192 141.827 20.9 141.923 20.548 141.923C20.036 141.923 19.628 141.723 19.324 141.323C19.02 140.923 18.868 140.395 18.868 139.739C18.868 139.299 18.94 138.911 19.084 138.575C19.228 138.231 19.428 137.967 19.684 137.783C19.932 137.599 20.212 137.507 20.524 137.507L20.56 137.507C20.64 137.507 20.68 137.547 20.68 137.627L20.68 138.191C20.68 138.271 20.64 138.311 20.56 138.311L20.524 138.311C20.252 138.311 20.024 138.443 19.84 138.707C19.656 138.963 19.564 139.311 19.564 139.751C19.564 140.159 19.648 140.487 19.816 140.735C19.976 140.983 20.2 141.107 20.488 141.107C20.76 141.107 20.968 140.987 21.112 140.747C21.256 140.507 21.4 140.135 21.544 139.631C21.68 139.167 21.808 138.791 21.928 138.503C22.048 138.215 22.224 137.967 22.456 137.759C22.68 137.551 22.976 137.447 23.344 137.447C23.864 137.447 24.28 137.651 24.592 138.059C24.904 138.467 25.06 139.007 25.06 139.679ZM19.048 132.222C18.968 132.222 18.928 132.182 18.928 132.102L18.928 131.49C18.928 131.41 18.968 131.37 19.048 131.37L24.88 131.37C24.96 131.37 25 131.41 25 131.49L25 132.102C25 132.182 24.96 132.222 24.88 132.222L24.364 132.222C24.348 132.222 24.336 132.23 24.328 132.246C24.32 132.262 24.324 132.274 24.34 132.282C24.836 132.618 25.084 133.15 25.084 133.878C25.084 134.262 25.008 134.618 24.856 134.946C24.696 135.266 24.468 135.522 24.172 135.714C23.876 135.898 23.52 135.99 23.104 135.99L19.048 135.99C18.968 135.99 18.928 135.95 18.928 135.87L18.928 135.258C18.928 135.178 18.968 135.138 19.048 135.138L22.852 135.138C23.308 135.138 23.672 135.01 23.944 134.754C24.208 134.498 24.34 134.15 24.34 133.71C24.34 133.254 24.204 132.894 23.932 132.63C23.66 132.358 23.3 132.222 22.852 132.222L19.048 132.222ZM20.944 124.804C21.168 124.772 21.448 124.756 21.784 124.756L22.168 124.756C22.248 124.756 22.288 124.796 22.288 124.876L22.288 128.752C22.288 128.784 22.304 128.8 22.336 128.8C22.776 128.784 23.06 128.76 23.188 128.728C23.548 128.64 23.832 128.452 24.04 128.164C24.248 127.876 24.352 127.508 24.352 127.06C24.352 126.724 24.276 126.428 24.124 126.172C23.972 125.916 23.756 125.716 23.476 125.572C23.404 125.524 23.388 125.468 23.428 125.404L23.704 124.936C23.744 124.872 23.8 124.856 23.872 124.888C24.256 125.088 24.56 125.388 24.784 125.788C25 126.188 25.108 126.648 25.108 127.168C25.1 127.736 24.964 128.212 24.7 128.596C24.436 128.98 24.068 129.256 23.596 129.424C23.212 129.568 22.66 129.64 21.94 129.64C21.604 129.64 21.332 129.636 21.124 129.628C20.908 129.612 20.716 129.58 20.548 129.532C20.028 129.396 19.612 129.124 19.3 128.716C18.988 128.3 18.832 127.8 18.832 127.216C18.832 126.488 19.016 125.928 19.384 125.536C19.752 125.144 20.272 124.9 20.944 124.804ZM19.576 127.216C19.576 127.608 19.68 127.936 19.888 128.2C20.088 128.456 20.36 128.624 20.704 128.704C20.872 128.752 21.144 128.784 21.52 128.8C21.552 128.8 21.568 128.784 21.568 128.752L21.568 125.644C21.568 125.612 21.552 125.596 21.52 125.596C21.16 125.612 20.904 125.636 20.752 125.668C20.392 125.756 20.108 125.936 19.9 126.208C19.684 126.472 19.576 126.808 19.576 127.216ZM25.06 121.175C25.06 121.623 24.988 122.023 24.844 122.375C24.7 122.719 24.508 122.987 24.268 123.179C24.028 123.363 23.76 123.455 23.464 123.455L23.32 123.455C23.24 123.455 23.2 123.415 23.2 123.335L23.2 122.759C23.2 122.679 23.24 122.639 23.32 122.639L23.416 122.639C23.68 122.639 23.912 122.503 24.112 122.231C24.304 121.951 24.4 121.603 24.4 121.187C24.4 120.771 24.308 120.435 24.124 120.179C23.932 119.923 23.692 119.795 23.404 119.795C23.204 119.795 23.04 119.863 22.912 119.999C22.784 120.127 22.684 120.283 22.612 120.467C22.54 120.643 22.448 120.919 22.336 121.295C22.208 121.743 22.08 122.111 21.952 122.399C21.824 122.687 21.648 122.931 21.424 123.131C21.192 123.323 20.9 123.419 20.548 123.419C20.036 123.419 19.628 123.219 19.324 122.819C19.02 122.419 18.868 121.891 18.868 121.235C18.868 120.795 18.94 120.407 19.084 120.071C19.228 119.727 19.428 119.463 19.684 119.279C19.932 119.095 20.212 119.003 20.524 119.003L20.56 119.003C20.64 119.003 20.68 119.043 20.68 119.123L20.68 119.687C20.68 119.767 20.64 119.807 20.56 119.807L20.524 119.807C20.252 119.807 20.024 119.939 19.84 120.203C19.656 120.459 19.564 120.807 19.564 121.247C19.564 121.655 19.648 121.983 19.816 122.231C19.976 122.479 20.2 122.603 20.488 122.603C20.76 122.603 20.968 122.483 21.112 122.243C21.256 122.003 21.4 121.631 21.544 121.127C21.68 120.663 21.808 120.287 21.928 119.999C22.048 119.711 22.224 119.463 22.456 119.255C22.68 119.047 22.976 118.943 23.344 118.943C23.864 118.943 24.28 119.147 24.592 119.555C24.904 119.963 25.06 120.503 25.06 121.175Z" fill="#E7E7E7"/>
</svg>
