<svg xmlns="http://www.w3.org/2000/svg" width="40" height="40" viewBox="0 0 40 40">
  <g id="sensehawk-created-40px" transform="translate(-206 -413)">
    <circle id="Ellipse_325" data-name="Ellipse 325" cx="20" cy="20" r="20" transform="translate(206 413)" fill="#5f6d7a"/>
    <g id="user-star" transform="translate(208.301 416.9)">
      <path id="Path_2415" data-name="Path 2415" d="M17,4.1a5.13,5.13,0,0,1,3.582,1.476,5.083,5.083,0,0,1,0,7.164,5.215,5.215,0,0,1-1.452,1.016,8.343,8.343,0,0,1,1.864.75.552.552,0,0,1-.532.968,6.831,6.831,0,0,0-1.694-.653,7.4,7.4,0,0,0-1.791-.218,7.272,7.272,0,0,0-7.236,7.212v.992a.676.676,0,0,0,.194.484.753.753,0,0,0,.532.194h6.946a.557.557,0,1,1,0,1.113h-6.9A1.818,1.818,0,0,1,8.7,22.784v-.992a8.339,8.339,0,0,1,6.172-8.035,4.958,4.958,0,0,1-1.428-1.016A5.058,5.058,0,0,1,17,4.1Zm2.783,2.275A3.953,3.953,0,0,0,17,5.213a3.854,3.854,0,0,0-2.783,1.162,3.953,3.953,0,0,0-1.162,2.783,3.854,3.854,0,0,0,1.162,2.783A3.953,3.953,0,0,0,17,13.1a3.854,3.854,0,0,0,2.783-1.162,3.953,3.953,0,0,0,1.162-2.783,3.854,3.854,0,0,0-1.162-2.783Z" transform="translate(0)" fill="#eff0f2" stroke="#eff0f2" stroke-linecap="round" stroke-width="1"/>
      <path id="Path_2416" data-name="Path 2416" d="M23.1,15.814l1.307,2.59,2.856.436a.564.564,0,0,1,.46.629.578.578,0,0,1-.169.315L25.5,21.84l.46,2.856a.564.564,0,0,1-.46.629.5.5,0,0,1-.363-.073l-2.565-1.307-2.59,1.331a.564.564,0,0,1-.75-.242.557.557,0,0,1-.048-.339l.484-2.856-2.057-2.057a.541.541,0,0,1,0-.774.645.645,0,0,1,.339-.169L20.8,18.4l1.307-2.59a.557.557,0,0,1,.75-.242.58.58,0,0,1,.242.242Z" fill="#feb817"/>
    </g>
  </g>
</svg>
