<svg xmlns="http://www.w3.org/2000/svg" width="24" height="24" viewBox="0 0 24 24">
  <g id="sensehawk-created-24px" transform="translate(-206 -413)">
    <circle id="Ellipse_325" data-name="Ellipse 325" cx="12" cy="12" r="12" transform="translate(206 413)" fill="#5f6d7a"/>
    <g id="user-star" transform="translate(212.6 417.8)">
      <path id="Path_2415" data-name="Path 2415" d="M13.681,4.1a3.078,3.078,0,0,1,2.149.886,3.05,3.05,0,0,1,0,4.3,3.129,3.129,0,0,1-.871.61,5.006,5.006,0,0,1,1.118.45.331.331,0,0,1-.319.581,4.1,4.1,0,0,0-1.016-.392,4.443,4.443,0,0,0-1.075-.131A4.363,4.363,0,0,0,9.324,14.73v.6a.405.405,0,0,0,.116.29.452.452,0,0,0,.319.116h4.168a.334.334,0,1,1,0,.668H9.789A1.091,1.091,0,0,1,8.7,15.31v-.6a5,5,0,0,1,3.7-4.821,2.975,2.975,0,0,1-.857-.61A3.035,3.035,0,0,1,13.681,4.1Zm1.67,1.365a2.372,2.372,0,0,0-1.67-.7,2.312,2.312,0,0,0-1.67.7,2.372,2.372,0,0,0-.7,1.67,2.312,2.312,0,0,0,.7,1.67,2.372,2.372,0,0,0,1.67.7,2.312,2.312,0,0,0,1.67-.7,2.372,2.372,0,0,0,.7-1.67,2.312,2.312,0,0,0-.7-1.67Z" transform="translate(-8.7 -4.1)" fill="#eff0f2" stroke="#eff0f2" stroke-linecap="round" stroke-width="0.5"/>
      <path id="Path_2416" data-name="Path 2416" d="M20.837,15.692l.784,1.554,1.714.261a.339.339,0,0,1,.276.378.347.347,0,0,1-.1.189l-1.234,1.234.276,1.714a.339.339,0,0,1-.276.378.3.3,0,0,1-.218-.044l-1.539-.784-1.554.8a.338.338,0,0,1-.45-.145.334.334,0,0,1-.029-.2l.29-1.714-1.234-1.234a.324.324,0,0,1,0-.465.387.387,0,0,1,.2-.1l1.714-.261.784-1.554a.334.334,0,0,1,.45-.145.348.348,0,0,1,.145.145Z" transform="translate(-12.197 -8.664)" fill="#feb817"/>
    </g>
  </g>
</svg>
