<svg xmlns="http://www.w3.org/2000/svg" width="36" height="36" viewBox="0 0 36 36">
  <g id="sensehawk-created-36px" transform="translate(-206 -413)">
    <circle id="Ellipse_325" data-name="Ellipse 325" cx="18" cy="18" r="18" transform="translate(206 413)" fill="#5f6d7a"/>
    <g id="user-star" transform="translate(215.901 420.2)">
      <path id="Path_2415" data-name="Path 2415" d="M16.171,4.1a4.617,4.617,0,0,1,3.224,1.329,4.575,4.575,0,0,1,0,6.447,4.694,4.694,0,0,1-1.307.915,7.509,7.509,0,0,1,1.677.675.5.5,0,0,1-.479.871,6.148,6.148,0,0,0-1.525-.588,6.664,6.664,0,0,0-1.612-.2,6.545,6.545,0,0,0-6.513,6.491v.893a.608.608,0,0,0,.174.436.678.678,0,0,0,.479.174h6.251a.5.5,0,1,1,0,1H10.334A1.636,1.636,0,0,1,8.7,20.916v-.893a7.505,7.505,0,0,1,5.554-7.232,4.462,4.462,0,0,1-1.285-.915,4.552,4.552,0,0,1,3.2-7.776Zm2.5,2.047a3.557,3.557,0,0,0-2.5-1.046,3.468,3.468,0,0,0-2.5,1.046,3.557,3.557,0,0,0-1.046,2.5,3.468,3.468,0,0,0,1.046,2.5,3.557,3.557,0,0,0,2.5,1.046,3.468,3.468,0,0,0,2.5-1.046,3.557,3.557,0,0,0,1.046-2.5,3.468,3.468,0,0,0-1.046-2.5Z" transform="translate(-8.7 -4.1)" fill="#eff0f2" stroke="#eff0f2" stroke-linecap="round" stroke-width="1"/>
      <path id="Path_2416" data-name="Path 2416" d="M22.535,15.783l1.176,2.331,2.57.392a.508.508,0,0,1,.414.566.52.52,0,0,1-.152.283l-1.851,1.851.414,2.57a.508.508,0,0,1-.414.566.449.449,0,0,1-.327-.065L22.055,23.1l-2.331,1.2a.507.507,0,0,1-.675-.218.5.5,0,0,1-.044-.3l.436-2.57L17.59,19.356a.487.487,0,0,1,0-.7.581.581,0,0,1,.3-.152l2.57-.392,1.176-2.331a.5.5,0,0,1,.675-.218.522.522,0,0,1,.218.218Z" transform="translate(-9.574 -5.241)" fill="#feb817"/>
    </g>
  </g>
</svg>
