<svg xmlns="http://www.w3.org/2000/svg" width="36" height="36" viewBox="0 0 36 36">
  <g id="unknown-user-36px" transform="translate(-206 -413)">
    <g id="Ellipse_325" data-name="Ellipse 325" transform="translate(206 413)" fill="#f4f7fc" stroke="#dde1e9" stroke-width="1">
      <circle cx="18" cy="18" r="18" stroke="none"/>
      <circle cx="18" cy="18" r="17.5" fill="none"/>
    </g>
    <g id="user-star" transform="translate(215.902 420.201)">
      <path id="Path_2415" data-name="Path 2415" d="M16.171,4.1a4.617,4.617,0,0,1,3.224,1.329,4.575,4.575,0,0,1,0,6.447,4.694,4.694,0,0,1-1.307.915,7.509,7.509,0,0,1,1.677.675.5.5,0,0,1-.479.871,6.148,6.148,0,0,0-1.525-.588,6.664,6.664,0,0,0-1.612-.2,6.545,6.545,0,0,0-6.513,6.491v.893a.608.608,0,0,0,.174.436.678.678,0,0,0,.479.174h6.251a.5.5,0,1,1,0,1H10.334A1.636,1.636,0,0,1,8.7,20.916v-.893a7.505,7.505,0,0,1,5.554-7.232,4.462,4.462,0,0,1-1.285-.915,4.552,4.552,0,0,1,3.2-7.776Zm2.5,2.047a3.557,3.557,0,0,0-2.5-1.046,3.468,3.468,0,0,0-2.5,1.046,3.557,3.557,0,0,0-1.046,2.5,3.468,3.468,0,0,0,1.046,2.5,3.557,3.557,0,0,0,2.5,1.046,3.468,3.468,0,0,0,2.5-1.046,3.557,3.557,0,0,0,1.046-2.5,3.468,3.468,0,0,0-1.046-2.5Z" transform="translate(-8.7 -4.1)" fill="#979cb0" stroke="#979cb0" stroke-linecap="round" stroke-width="1"/>
      <circle id="Ellipse_381" data-name="Ellipse 381" cx="5.4" cy="5.4" r="5.4" transform="translate(6.298 8.999)" fill="#f4f7fc"/>
      <g id="help_faq" transform="translate(9.311 10.565)">
        <path id="Path_2109" data-name="Path 2109" d="M35.925,23.483l.156.014a3.037,3.037,0,0,1,1.115.289,1.857,1.857,0,0,1,.769.658,1.7,1.7,0,0,1,.262.749,1.657,1.657,0,0,1-.055.688,1.787,1.787,0,0,1-.419.71,4.789,4.789,0,0,1-.723.594c-.145.1-.273.2-.409.308a.868.868,0,0,0-.268.386c-.029.078-.062.156-.093.234a.539.539,0,0,1-.5.357.7.7,0,0,1-.366-.058.6.6,0,0,1-.328-.447,1.027,1.027,0,0,1,.174-.766,2.105,2.105,0,0,1,.454-.48c.189-.155.385-.3.578-.457a1.526,1.526,0,0,0,.4-.453.849.849,0,0,0-.1-.94.781.781,0,0,0-.434-.24,1.381,1.381,0,0,0-.674.012.82.82,0,0,0-.522.434c-.068.127-.127.257-.191.386a.939.939,0,0,1-.187.262.646.646,0,0,1-.49.158.678.678,0,0,1-.309-.084.535.535,0,0,1-.289-.477,1.4,1.4,0,0,1,.289-.885,2.23,2.23,0,0,1,.868-.7,2.646,2.646,0,0,1,.823-.237l.162-.016Z" transform="translate(-33.467 -23.48)" fill="#979cb0"/>
        <path id="Path_2110" data-name="Path 2110" d="M44.169,67.014c-.043-.009-.087-.016-.129-.027a.8.8,0,1,1,.347.013l-.071.014Z" transform="translate(-42 -59.347)" fill="#979cb0"/>
      </g>
    </g>
  </g>
</svg>
