<svg xmlns="http://www.w3.org/2000/svg" width="24" height="24" viewBox="0 0 24 24">
  <g id="unknown-user-24px" transform="translate(-206 -413)">
    <g id="Ellipse_325" data-name="Ellipse 325" transform="translate(206 413)" fill="#f4f7fc" stroke="#dde1e9" stroke-width="1">
      <circle cx="12" cy="12" r="12" stroke="none"/>
      <circle cx="12" cy="12" r="11.5" fill="none"/>
    </g>
    <g id="user-star" transform="translate(212.601 417.801)">
      <path id="Path_2415" data-name="Path 2415" d="M13.681,4.1a3.078,3.078,0,0,1,2.149.886,3.05,3.05,0,0,1,0,4.3,3.129,3.129,0,0,1-.871.61,5.006,5.006,0,0,1,1.118.45.331.331,0,0,1-.319.581,4.1,4.1,0,0,0-1.016-.392,4.443,4.443,0,0,0-1.075-.131A4.363,4.363,0,0,0,9.324,14.73v.6a.405.405,0,0,0,.116.29.452.452,0,0,0,.319.116h4.168a.334.334,0,1,1,0,.668H9.789A1.091,1.091,0,0,1,8.7,15.31v-.6a5,5,0,0,1,3.7-4.821,2.975,2.975,0,0,1-.857-.61A3.035,3.035,0,0,1,13.681,4.1Zm1.67,1.365a2.372,2.372,0,0,0-1.67-.7,2.312,2.312,0,0,0-1.67.7,2.372,2.372,0,0,0-.7,1.67,2.312,2.312,0,0,0,.7,1.67,2.372,2.372,0,0,0,1.67.7,2.312,2.312,0,0,0,1.67-.7,2.372,2.372,0,0,0,.7-1.67,2.312,2.312,0,0,0-.7-1.67Z" transform="translate(-8.7 -4.1)" fill="#979cb0" stroke="#979cb0" stroke-linecap="round" stroke-width="0.5"/>
      <circle id="Ellipse_381" data-name="Ellipse 381" cx="3.6" cy="3.6" r="3.6" transform="translate(4.199 5.999)" fill="#f4f7fc"/>
      <g id="help_faq" transform="translate(6.207 7.044)">
        <path id="Path_2109" data-name="Path 2109" d="M35.106,23.482l.1.01a2.024,2.024,0,0,1,.743.193,1.238,1.238,0,0,1,.513.439,1.133,1.133,0,0,1,.174.5,1.1,1.1,0,0,1-.037.459,1.192,1.192,0,0,1-.28.473,3.192,3.192,0,0,1-.482.4c-.1.067-.182.136-.273.205a.578.578,0,0,0-.178.257c-.019.052-.041.1-.062.156a.36.36,0,0,1-.335.238.47.47,0,0,1-.244-.039.4.4,0,0,1-.219-.3.684.684,0,0,1,.116-.511,1.4,1.4,0,0,1,.3-.32c.126-.1.256-.2.386-.3a1.017,1.017,0,0,0,.264-.3.566.566,0,0,0-.067-.627.521.521,0,0,0-.289-.16.921.921,0,0,0-.449.008.547.547,0,0,0-.348.289c-.045.085-.085.172-.127.257a.626.626,0,0,1-.124.174.431.431,0,0,1-.327.105.452.452,0,0,1-.206-.056.357.357,0,0,1-.193-.318.933.933,0,0,1,.193-.59,1.487,1.487,0,0,1,.578-.469,1.764,1.764,0,0,1,.549-.158l.108-.011Z" transform="translate(-33.467 -23.48)" fill="#979cb0"/>
        <path id="Path_2110" data-name="Path 2110" d="M43.927,66.48c-.029-.006-.058-.011-.086-.018a.534.534,0,1,1,.231.009l-.047.01Z" transform="translate(-42.481 -61.368)" fill="#979cb0"/>
      </g>
    </g>
  </g>
</svg>
