<svg xmlns="http://www.w3.org/2000/svg" width="40" height="40" viewBox="0 0 40 40">
  <g id="unknown-user-40px" transform="translate(-206 -413)">
    <g id="Ellipse_325" data-name="Ellipse 325" transform="translate(206 413)" fill="#f4f7fc" stroke="#dde1e9" stroke-width="1">
      <circle cx="20" cy="20" r="20" stroke="none"/>
      <circle cx="20" cy="20" r="19.5" fill="none"/>
    </g>
    <g id="user-star" transform="translate(208.302 416.901)">
      <path id="Path_2415" data-name="Path 2415" d="M17,4.1a5.13,5.13,0,0,1,3.582,1.476,5.083,5.083,0,0,1,0,7.164,5.215,5.215,0,0,1-1.452,1.016,8.343,8.343,0,0,1,1.864.75.552.552,0,0,1-.532.968,6.831,6.831,0,0,0-1.694-.653,7.4,7.4,0,0,0-1.791-.218,7.272,7.272,0,0,0-7.236,7.212v.992a.676.676,0,0,0,.194.484.753.753,0,0,0,.532.194h6.946a.557.557,0,1,1,0,1.113h-6.9A1.818,1.818,0,0,1,8.7,22.784v-.992a8.339,8.339,0,0,1,6.172-8.035,4.958,4.958,0,0,1-1.428-1.016A5.058,5.058,0,0,1,17,4.1Zm2.783,2.275A3.953,3.953,0,0,0,17,5.213a3.854,3.854,0,0,0-2.783,1.162,3.953,3.953,0,0,0-1.162,2.783,3.854,3.854,0,0,0,1.162,2.783A3.953,3.953,0,0,0,17,13.1a3.854,3.854,0,0,0,2.783-1.162,3.953,3.953,0,0,0,1.162-2.783,3.854,3.854,0,0,0-1.162-2.783Z" transform="translate(0)" fill="#979cb0" stroke="#979cb0" stroke-linecap="round" stroke-width="1"/>
      <circle id="Ellipse_381" data-name="Ellipse 381" cx="6" cy="6" r="6" transform="translate(15.698 14.099)" fill="#f4f7fc"/>
      <g id="help_faq" transform="translate(16.292 13.908)">
        <path id="Path_2109" data-name="Path 2109" d="M36.2,23.483l.174.016a3.374,3.374,0,0,1,1.239.321,2.063,2.063,0,0,1,.855.731,1.888,1.888,0,0,1,.291.832,1.841,1.841,0,0,1-.061.765,1.986,1.986,0,0,1-.466.789,5.32,5.32,0,0,1-.8.66c-.161.111-.3.227-.455.342a.964.964,0,0,0-.3.429c-.032.087-.069.174-.1.26a.6.6,0,0,1-.559.4.783.783,0,0,1-.407-.064.664.664,0,0,1-.365-.5,1.141,1.141,0,0,1,.193-.852,2.339,2.339,0,0,1,.5-.533c.21-.172.427-.336.643-.508a1.7,1.7,0,0,0,.44-.5.943.943,0,0,0-.112-1.044.868.868,0,0,0-.482-.267,1.534,1.534,0,0,0-.749.013.911.911,0,0,0-.58.482c-.076.141-.141.286-.212.429a1.043,1.043,0,0,1-.207.291.718.718,0,0,1-.545.175.754.754,0,0,1-.344-.093.6.6,0,0,1-.321-.53,1.555,1.555,0,0,1,.321-.983,2.478,2.478,0,0,1,.964-.781,2.94,2.94,0,0,1,.914-.264l.18-.018Z" transform="translate(-30.715 -21.549)" fill="#979cb0"/>
        <path id="Path_2110" data-name="Path 2110" d="M44.25,67.192c-.048-.01-.1-.018-.143-.031a.89.89,0,1,1,.386.014l-.079.016Z" transform="translate(-39.087 -56.742)" fill="#979cb0"/>
      </g>
    </g>
  </g>
</svg>
