<svg xmlns="http://www.w3.org/2000/svg" width="36" height="36" viewBox="0 0 36 36">
  <g id="add-assignee" transform="translate(-757 -253)">
    <g id="ea864cbd0bed1ed28ea06bfb3472d51f" transform="translate(757 253)" fill="#fff" stroke="#8a8ea3" stroke-linecap="round" stroke-linejoin="bevel" stroke-width="1" stroke-dasharray="2 3">
      <circle cx="18" cy="18" r="18" stroke="none"/>
      <circle cx="18" cy="18" r="17.5" fill="none"/>
    </g>
    <g id="Group_1468" data-name="Group 1468" transform="translate(767.844 262.029)">
      <path id="Path_1983" data-name="Path 1983" d="M27.4,34.67l-3.759-2.019a5.681,5.681,0,0,0,1.79-4.326V25.9c0-1.615-2.208-3.4-4.446-3.4s-4.505,1.788-4.505,3.4v2.423a5.906,5.906,0,0,0,1.88,4.3l-3.849,2.019s-1.014.433-1.014.981v1.471a.99.99,0,0,0,1.014.981H27.434a.99.99,0,0,0,1.014-.981V35.622C28.418,35.074,27.4,34.67,27.4,34.67Zm-.179,2.25H14.693V35.882a1.592,1.592,0,0,1,.3-.173c.03,0,.06-.029.09-.029l3.849-2.019a1.109,1.109,0,0,0,.627-.923,1.156,1.156,0,0,0-.448-1.009,4.76,4.76,0,0,1-1.432-3.4V25.9c0-.836,1.611-2.25,3.312-2.25,1.731,0,3.252,1.413,3.252,2.25v2.423a4.663,4.663,0,0,1-1.313,3.4,1.1,1.1,0,0,0-.448,1.009,1.193,1.193,0,0,0,.627.923l3.759,2.019c.03.029.09.029.119.058a.79.79,0,0,1,.269.144V36.92Z" transform="translate(-13.5 -22.5)" fill="#8a8ea3"/>
      <ellipse id="Ellipse_391" data-name="Ellipse 391" cx="5.221" cy="5.137" rx="5.221" ry="5.137" transform="translate(5.869 7.668)" fill="#fff"/>
      <path id="Path_1987" data-name="Path 1987" d="M16.448,12.884H14.1V10.577a.586.586,0,0,0-1.172,0v2.307H10.586a.577.577,0,1,0,0,1.154h2.345v2.307a.586.586,0,0,0,1.172,0V14.038h2.345a.577.577,0,1,0,0-1.154Z" transform="translate(-2.086 -0.483)" fill="#8a8ea3"/>
    </g>
  </g>
</svg>
