<svg xmlns="http://www.w3.org/2000/svg" xmlns:xlink="http://www.w3.org/1999/xlink" width="39.752" height="40.616" viewBox="0 0 39.752 40.616">
  <defs>
    <filter id="Ticket-icon2" x="0" y="0.96" width="39.752" height="39.656" filterUnits="userSpaceOnUse">
      <feOffset dy="3" input="SourceAlpha"/>
      <feGaussianBlur stdDeviation="3" result="blur"/>
      <feFlood flood-color="#171e48" flood-opacity="0.302"/>
      <feComposite operator="in" in2="blur"/>
      <feComposite in="SourceGraphic"/>
    </filter>
  </defs>
  <g id="ticket-logo" transform="translate(-7.966 -10)">
    <circle id="Ellipse_422" data-name="Ellipse 422" cx="18" cy="18" r="18" transform="translate(10 10)" fill="#2585d3"/>
    <path id="Ticket-icon2-2" data-name="Ticket-icon2" d="M15.574.062a1.339,1.339,0,0,0-.931.4L14.628.447,11.836,3.209a.473.473,0,0,0-.177.192L.345,14.627s0,.01,0,.015a1.337,1.337,0,0,0,0,1.891l1.477,1.462a.473.473,0,0,0,.62.044A2.424,2.424,0,0,1,3.9,17.478,2.2,2.2,0,0,1,6.12,19.693a2.119,2.119,0,0,1-.547,1.433.473.473,0,0,0,.03.65l1.462,1.462a1.337,1.337,0,0,0,1.891,0L20.138,12.057h.015a.473.473,0,0,0,.355-.369s0-.01,0-.015l2.629-2.614c.018-.013.028-.03.044-.044a1.26,1.26,0,0,0,.059-1.846L21.763,5.705a.473.473,0,0,0-.62-.044,2.176,2.176,0,0,1-1.4.517,2.212,2.212,0,0,1-1.713-3.634.473.473,0,0,0-.044-.62L16.519.461A1.338,1.338,0,0,0,15.574.062Zm0,.96a.4.4,0,0,1,.281.1l1.211,1.211a3.109,3.109,0,0,0-.5,1.625,3.176,3.176,0,0,0,3.176,3.161,3.048,3.048,0,0,0,1.61-.5L22.56,7.832a.322.322,0,0,1,.015.473.473.473,0,0,0-.059.044L19.99,10.875a.471.471,0,0,0-.665.665L8.291,22.574a.428.428,0,0,1-.561,0L6.519,21.362a3.066,3.066,0,0,0,.547-1.669A3.163,3.163,0,0,0,3.9,16.532a3.128,3.128,0,0,0-1.669.547L1.024,15.868a.428.428,0,0,1,0-.561l11.064-11a.475.475,0,0,0,.679-.665l2.526-2.511A.4.4,0,0,1,15.574,1.023Zm-1.905,3.8-.355.236-.015.428.1.133.65.665.414.133.34-.251.015-.414L14.732,5.6l-.665-.65ZM15.647,6.8l-.34.251-.015.414.089.148.665.665.4.133.355-.251.015-.414L16.726,7.6l-.665-.665Zm1.994,1.994-.34.236-.015.428.089.133.665.665.4.133.355-.236.015-.428-.1-.133-.665-.665Z" transform="translate(16.047 15.937)" fill="#fff" opacity="0.2"/>
    <g transform="matrix(1, 0, 0, 1, 7.97, 10)" filter="url(#Ticket-icon2)">
      <path id="Ticket-icon2-3" data-name="Ticket-icon2" d="M15.574,1.023a.4.4,0,0,1,.281.1l1.211,1.211a3.109,3.109,0,0,0-.5,1.625,3.176,3.176,0,0,0,3.176,3.161,3.048,3.048,0,0,0,1.61-.5L22.56,7.832a.322.322,0,0,1,.015.473.473.473,0,0,0-.059.044L19.99,10.875a.471.471,0,0,0-.665.665L8.291,22.574a.428.428,0,0,1-.561,0L6.519,21.362a3.066,3.066,0,0,0,.547-1.669A3.163,3.163,0,0,0,3.9,16.532a3.128,3.128,0,0,0-1.669.547L1.024,15.868a.428.428,0,0,1,0-.561l11.064-11a.475.475,0,0,0,.679-.665l2.526-2.511A.4.4,0,0,1,15.574,1.023Zm-1.905,3.8-.355.236-.015.428.1.133.65.665.414.133.34-.251.015-.414L14.732,5.6l-.665-.65ZM15.647,6.8l-.34.251-.015.414.089.148.665.665.4.133.355-.251.015-.414L16.726,7.6l-.665-.665Zm1.994,1.994-.34.236-.015.428.089.133.665.665.4.133.355-.236.015-.428-.1-.133-.665-.665Z" transform="translate(8.08 5.94)" fill="#fff"/>
    </g>
  </g>
</svg>
