<svg width="0" height="0" class="hidden">
  <symbol xmlns="http://www.w3.org/2000/svg" viewBox="0 0 40 40" id="organizations">
    <g transform="translate(-151 -127)" fill="#2585d3">
      <circle cx="20" cy="20" r="20" transform="translate(151 127)" opacity=".1"></circle>
      <path d="M171 135a12 12 0 1 0 12 12 12.015 12.015 0 0 0-12-12zm0 2c.181 0 .451.111.812.531a6.781 6.781 0 0 1 1.062 2.031c.157.431.307.923.437 1.437h-4.624c.13-.515.281-1.007.437-1.437a6.781 6.781 0 0 1 1.062-2.031c.363-.42.633-.531.814-.531zm-3.187.5a10.672 10.672 0 0 0-.594 1.375 17.384 17.384 0 0 0-.594 2.125H163a10.006 10.006 0 0 1 4.812-3.5zm6.375 0A10.006 10.006 0 0 1 179 141h-3.625a17.383 17.383 0 0 0-.594-2.125 10.672 10.672 0 0 0-.594-1.375zm-12.376 5.5h4.469a29.467 29.467 0 0 0-.25 3h-4.969a9.974 9.974 0 0 1 .75-3zm6.5 0h5.375a26.369 26.369 0 0 1 .281 3h-5.937a26.368 26.368 0 0 1 .281-3zm7.406 0h4.469a9.974 9.974 0 0 1 .75 3h-4.968a29.467 29.467 0 0 0-.25-3zm-14.656 5h4.969a29.467 29.467 0 0 0 .25 3h-4.469a9.974 9.974 0 0 1-.75-3zm6.969 0h5.937a26.369 26.369 0 0 1-.281 3h-5.375a26.368 26.368 0 0 1-.281-3zm7.937 0h4.969a9.974 9.974 0 0 1-.75 3h-4.468a29.467 29.467 0 0 0 .25-3zM163 153h3.625a17.384 17.384 0 0 0 .594 2.125 10.672 10.672 0 0 0 .594 1.375A10.006 10.006 0 0 1 163 153zm5.687 0h4.625c-.13.515-.281 1.007-.437 1.437a6.781 6.781 0 0 1-1.062 2.031c-.361.42-.632.531-.812.531s-.451-.111-.812-.531a6.781 6.781 0 0 1-1.062-2.031 14.732 14.732 0 0 1-.44-1.437zm6.687 0H179a10.006 10.006 0 0 1-4.812 3.5 10.672 10.672 0 0 0 .594-1.375 17.383 17.383 0 0 0 .593-2.125z"
        stroke="#eef2ff" stroke-linecap="round" stroke-width=".5"></path>
    </g>
  </symbol>
  <symbol xmlns="http://www.w3.org/2000/svg" viewBox="0 0 40 40" id="users">
    <g transform="translate(-151 -127)" fill="#2585d3">
      <circle cx="20" cy="20" r="20" transform="translate(151 127)" opacity=".1"></circle>
      <path d="M178.743 151.066l-4.527-2.333c1.689-1.233 2.156-3.633 2.156-5v-2.8c0-1.867-2.659-3.933-5.353-3.933s-5.425 2.067-5.425 3.933v2.8a6.7 6.7 0 0 0 2.263 4.967l-4.635 2.333s-1.222.5-1.222 1.133v1.7a1.17 1.17 0 0 0 1.222 1.133h15.556a1.17 1.17 0 0 0 1.222-1.133v-1.7c-.036-.633-1.257-1.1-1.257-1.1zm-.216 2.6h-15.09v-1.2a1.939 1.939 0 0 1 .359-.2c.036 0 .072-.033.108-.033l4.635-2.333a1.283 1.283 0 0 0 .754-1.067 1.313 1.313 0 0 0-.539-1.167 5.391 5.391 0 0 1-1.725-3.933v-2.8c0-.967 1.94-2.6 3.988-2.6 2.084 0 3.916 1.633 3.916 2.6v2.8c0 1.033-.359 3.033-1.581 3.933a1.247 1.247 0 0 0-.539 1.167 1.379 1.379 0 0 0 .754 1.067l4.533 2.333c.036.033.108.033.144.067a.965.965 0 0 1 .323.167v1.2z"
        stroke="#2585d3" stroke-linecap="round" stroke-linejoin="round" stroke-width=".3"></path>
    </g>
  </symbol>
  <symbol xmlns="http://www.w3.org/2000/svg" viewBox="0 0 40 40" id="entities">
    <g transform="translate(-151 -127)" fill="#2585d3">
      <circle cx="20" cy="20" r="20" transform="translate(151 127)" opacity=".1"></circle>
      <path d="M169.665 153.651a2.594 2.594 0 0 0-1.22 1.749.739.739 0 0 1-.062.186q0 .151.007.3v.041a2.6 2.6 0 0 0 2.6 2.6 2.6 2.6 0 0 0 2.6-2.569 4.977 4.977 0 0 0-.08-.517 2.616 2.616 0 0 0-2.571-2.128 2.61 2.61 0 0 0-1.274.338zm-2.432.575a4.092 4.092 0 0 1 1.692-1.847 4.061 4.061 0 0 1 2.073-.567 4.071 4.071 0 0 1 3.728 2.433 8.214 8.214 0 0 0 3.531-3.534 4.068 4.068 0 0 1-2.457-3.734 4.068 4.068 0 0 1 2.433-3.724 8.2 8.2 0 0 0-3.474-3.471 4.093 4.093 0 0 1-2.159 2.069 4.062 4.062 0 0 1-1.627.339 4.071 4.071 0 0 1-3.728-2.434 8.167 8.167 0 0 0-3.481 3.444 4.122 4.122 0 0 1 2.347 3.073 4.076 4.076 0 0 1 .061.7 4.068 4.068 0 0 1-2.438 3.727 8.214 8.214 0 0 0 3.499 3.526zm7.824 1.5l.014.136v.068A4.076 4.076 0 0 1 171 160a4.076 4.076 0 0 1-4.08-4.053q-.006-.119-.008-.237a9.686 9.686 0 0 1-4.644-4.653q-.089 0-.18.006a4.09 4.09 0 0 1-2.891-1.2 4.084 4.084 0 0 1-1.197-2.886 4.084 4.084 0 0 1 1.2-2.889 4.09 4.09 0 0 1 2.86-1.2q.11-.008.221-.011a9.639 9.639 0 0 1 4.728-4.643c0-.056 0-.111.007-.162a4.076 4.076 0 0 1 4.075-4.072 4.076 4.076 0 0 1 4.077 4.074.734.734 0 0 1-.042.247 9.674 9.674 0 0 1 4.593 4.616q.134 0 .267.013a4.06 4.06 0 0 1 3.478 2.041 4.054 4.054 0 0 1-.015 4.057 4.062 4.062 0 0 1-3.528 2.016q-.1 0-.193-.006a9.686 9.686 0 0 1-4.672 4.664zm4.388-11.308l-.057.013q-.079.015-.156.034a2.614 2.614 0 0 0-1.9 2.515 2.614 2.614 0 0 0 1.933 2.52l.074.017a.735.735 0 0 1 .176.037 2.816 2.816 0 0 0 .416.036 2.587 2.587 0 0 0 2.245-1.284 2.583 2.583 0 0 0 .009-2.585 2.587 2.587 0 0 0-2.235-1.3h-.06a3 3 0 0 0-.446-.007zm-16.965 5.137a.748.748 0 0 1 .1-.028 2.606 2.606 0 0 0 .432-.121 2.647 2.647 0 0 0 1.677-2.453 2.653 2.653 0 0 0-.034-.432 2.6 2.6 0 0 0-2.075-2.094.738.738 0 0 1-.218-.078q-.109 0-.217.01h-.061a2.616 2.616 0 0 0-1.85.766 2.613 2.613 0 0 0-.766 1.848 2.613 2.613 0 0 0 .766 1.848 2.612 2.612 0 0 0 1.842.766 2.577 2.577 0 0 0 .404-.032zm9.546-9.055a2.6 2.6 0 0 0 1.5-1.891.736.736 0 0 1 .085-.23q0-.128-.008-.256a.732.732 0 0 1 .073-.368 2.6 2.6 0 0 0-2.584-2.28 2.614 2.614 0 0 0-2.605 2.644 4.789 4.789 0 0 0 0 .491 2.615 2.615 0 0 0 2.56 2.08 2.611 2.611 0 0 0 .979-.19z"></path>
    </g>
  </symbol>
</svg>