<svg xmlns="http://www.w3.org/2000/svg" width="18.3" height="18.3" viewBox="0 0 18.3 18.3">
    <defs>
        <style>
            .prefix__cls-1{fill:#171e48;stroke:#171e48;stroke-width:.3px}
        </style>
    </defs>
    <g id="prefix__app-icon" transform="translate(.15 .15)">
        <path id="prefix__Path_1250" d="M24.8 18.3h-5.229a1.241 1.241 0 0 0-1.241 1.241v5.225a1.241 1.241 0 0 0 1.241 1.239H24.8a1.241 1.241 0 0 0 1.241-1.239v-5.227A1.241 1.241 0 0 0 24.8 18.3zm.481 6.467a.481.481 0 0 1-.481.479h-5.229a.481.481 0 0 1-.481-.479v-5.228a.481.481 0 0 1 .481-.481H24.8a.481.481 0 0 1 .481.481z" class="prefix__cls-1" data-name="Path 1250" transform="translate(-18.33 -18.3)"/>
        <path id="prefix__Path_1251" d="M57.7 18.3h-5.229a1.241 1.241 0 0 0-1.241 1.241v5.225a1.241 1.241 0 0 0 1.241 1.239H57.7a1.241 1.241 0 0 0 1.241-1.239v-5.227A1.241 1.241 0 0 0 57.7 18.3zm.481 6.467a.481.481 0 0 1-.481.479h-5.229a.481.481 0 0 1-.481-.479v-5.228a.481.481 0 0 1 .481-.481H57.7a.481.481 0 0 1 .481.481z" class="prefix__cls-1" data-name="Path 1251" transform="translate(-40.94 -18.3)"/>
        <path id="prefix__Path_1252" d="M24.8 51.28h-5.229a1.241 1.241 0 0 0-1.241 1.241v5.225a1.241 1.241 0 0 0 1.241 1.241H24.8a1.241 1.241 0 0 0 1.241-1.241v-5.227A1.241 1.241 0 0 0 24.8 51.28zm.481 6.467a.481.481 0 0 1-.481.481h-5.229a.481.481 0 0 1-.481-.481v-5.228a.481.481 0 0 1 .481-.481H24.8a.481.481 0 0 1 .481.481z" class="prefix__cls-1" data-name="Path 1252" transform="translate(-18.33 -40.988)"/>
        <path id="prefix__Path_2088" d="M24.8 51.28h-5.229a1.241 1.241 0 0 0-1.241 1.241v5.225a1.241 1.241 0 0 0 1.241 1.241H24.8a1.241 1.241 0 0 0 1.241-1.241v-5.227A1.241 1.241 0 0 0 24.8 51.28zm.481 6.467a.481.481 0 0 1-.481.481h-5.229a.481.481 0 0 1-.481-.481v-5.228a.481.481 0 0 1 .481-.481H24.8a.481.481 0 0 1 .481.481z" class="prefix__cls-1" data-name="Path 2088" transform="translate(-8.33 -40.988)"/>
    </g>
</svg>
