<svg xmlns="http://www.w3.org/2000/svg" width="19" height="19" viewBox="0 0 19 19">
  <g id="all_apps" data-name="all apps" transform="translate(-25.17 -67.499)">
    <g id="app-icon" transform="translate(25.67 67.999)">
      <path id="Path_1250" data-name="Path 1250" d="M24.8,18.3H19.571a1.241,1.241,0,0,0-1.241,1.241v5.225a1.241,1.241,0,0,0,1.241,1.239H24.8a1.241,1.241,0,0,0,1.241-1.239V19.539A1.241,1.241,0,0,0,24.8,18.3Zm.481,6.467a.481.481,0,0,1-.481.479H19.571a.481.481,0,0,1-.481-.479V19.539a.481.481,0,0,1,.481-.481H24.8a.481.481,0,0,1,.481.481Z" transform="translate(-18.33 -18.3)" fill="#5c7ef8" stroke="#5c7ef8" stroke-width="1"/>
      <path id="Path_1251" data-name="Path 1251" d="M57.7,18.3H52.471a1.241,1.241,0,0,0-1.241,1.241v5.225a1.241,1.241,0,0,0,1.241,1.239H57.7a1.241,1.241,0,0,0,1.241-1.239V19.539A1.241,1.241,0,0,0,57.7,18.3Zm.481,6.467a.481.481,0,0,1-.481.479H52.471a.481.481,0,0,1-.481-.479V19.539a.481.481,0,0,1,.481-.481H57.7a.481.481,0,0,1,.481.481Z" transform="translate(-40.94 -18.3)" fill="#5c7ef8" stroke="#5c7ef8" stroke-width="1"/>
      <path id="Path_1252" data-name="Path 1252" d="M24.8,51.28H19.571a1.241,1.241,0,0,0-1.241,1.241v5.225a1.241,1.241,0,0,0,1.241,1.241H24.8a1.241,1.241,0,0,0,1.241-1.241V52.519A1.241,1.241,0,0,0,24.8,51.28Zm.481,6.467a.481.481,0,0,1-.481.481H19.571a.481.481,0,0,1-.481-.481V52.519a.481.481,0,0,1,.481-.481H24.8a.481.481,0,0,1,.481.481Z" transform="translate(-18.33 -40.988)" fill="#5c7ef8" stroke="#5c7ef8" stroke-width="1"/>
      <path id="Path_1253" data-name="Path 1253" d="M58.565,54.755H55.473v-3.1a.38.38,0,0,0-.76,0v3.1H51.62a.38.38,0,0,0,0,.76h3.093v3.09a.38.38,0,0,0,.76,0v-3.09h3.093a.38.38,0,0,0,0-.76Z" transform="translate(-40.948 -40.988)" fill="#5c7ef8" stroke="#5c7ef8" stroke-width="1"/>
    </g>
  </g>
</svg>
