<svg height='100px' width='100px'  fill="#4D4D4D" xmlns="http://www.w3.org/2000/svg" data-name="Layer 2" viewBox="0 0 64 64" x="0px" y="0px"><title>08, Map, location, pin, traveling, holiday, vacation,</title><path d="M43.1,35.14a131.59,131.59,0,0,1-8.81,11.8,3,3,0,0,1-1.29.87V60.7l12.13-4.33Z"></path><path d="M29.71,46.93A129.27,129.27,0,0,1,20.9,35.14l-2,21.23L31,60.7V47.81A2.93,2.93,0,0,1,29.71,46.93Z"></path><path d="M47.14,56.47l12.52,4.47A1,1,0,0,0,61,59.81l-4-21a1,1,0,0,0-.6-.73L44.94,33.31Z"></path><path d="M4.34,60.94l12.52-4.47,2.2-23.16L7.62,38.08a1,1,0,0,0-.6.73l-4,21A1,1,0,0,0,4.34,60.94Z"></path><path d="M32.76,45.65C33.39,44.91,48,27.55,48,19a16,16,0,0,0-32,0c0,8.55,14.61,25.91,15.24,26.65A1,1,0,0,0,32.76,45.65ZM25,19a7,7,0,1,1,7,7A7,7,0,0,1,25,19Z"></path></svg>