<svg xmlns="http://www.w3.org/2000/svg" width="15.5" height="15.501" viewBox="0 0 15.5 15.501">
    <defs>
        <style>
            .cls-1{fill:#171e48;stroke:#171e48;stroke-linecap:round;stroke-linejoin:round;stroke-width:.5px;opacity:.8}
        </style>
    </defs>
    <path id="Union_16" d="M-2020.355-2933h-14.291a.356.356 0 0 1-.354-.358v-14.285-.019a.355.355 0 0 1 .354-.339h14.292a.354.354 0 0 1 .354.355v14.291a.354.354 0 0 1-.354.355zm-.359-.714v-2.833h-2.833v2.833zm-3.542 0v-6.484h-2.941v6.484zm-10.029 0h6.379v-13.572h-6.379zm13.571-3.542v-2.838h-2.833v2.838zm-6.378-3.651h6.378v-6.379h-6.378z" class="cls-1" data-name="Union 16" transform="translate(2035.25 2948.25)"/>
</svg>
