<svg width="0" height="0" class="hidden">
    <symbol xmlns="http://www.w3.org/2000/svg" viewBox="0 0 19 19" id="add">
        <path d="M17 8h-6V2a1.5 1.5 0 0 0-3 0v6H2a1.5 1.5 0 0 0 0 3h6v6a1.5 1.5 0 0 0 3 0v-6h6a1.5 1.5 0 0 0 0-3z" fill="#747891" stroke="#fff" stroke-linecap="round"></path>
    </symbol>
    <symbol xmlns="http://www.w3.org/2000/svg" viewBox="0 0 18 18" id="checkall">
        <path d="M17.217 7.676a.788.788 0 0 0-.783.794v6.618a1.314 1.314 0 0 1-1.3 1.324H6a1.314 1.314 0 0 1-1.3-1.324H12a2.891 2.891 0 0 0 2.87-2.912V5.559a.783.783 0 1 0-1.565 0v6.618A1.314 1.314 0 0 1 12 13.5H2.87a1.314 1.314 0 0 1-1.3-1.324V2.912a1.314 1.314 0 0 1 1.3-1.324h6.522a.794.794 0 0 0 0-1.588H2.87A2.891 2.891 0 0 0 0 2.912v9.265a2.891 2.891 0 0 0 2.87 2.912h.261A2.891 2.891 0 0 0 6 18h9.13A2.891 2.891 0 0 0 18 15.088V8.471a.788.788 0 0 0-.783-.795z"></path>
        <path d="M4.262 4.81a.808.808 0 0 0-1.118.044.752.752 0 0 0 .045 1.085l3.146 2.816a.8.8 0 0 0 .527.2h.037a.8.8 0 0 0 .551-.256l6.782-7.246a.753.753 0 0 0 .221-.778.783.783 0 0 0-.618-.54.8.8 0 0 0-.774.294L6.812 7.11z"></path>
    </symbol>
    <symbol xmlns="http://www.w3.org/2000/svg" viewBox="0 0 18 18" id="copy">
        <path d="M8.08 1.636h8.284v9.818h-1.637v1.636h1.636A1.638 1.638 0 0 0 18 11.455V1.636A1.638 1.638 0 0 0 16.364 0H6.545a1.638 1.638 0 0 0-1.636 1.636v1.637h1.636V1.636zM0 6.547a1.637 1.637 0 0 1 1.638-1.638h9.815a1.637 1.637 0 0 1 1.638 1.638v9.815A1.637 1.637 0 0 1 11.453 18H1.638A1.637 1.637 0 0 1 0 16.362V6.547zm1.636 0h9.818v9.818H1.636v-9.82z" fill="#747891" fill-rule="evenodd"></path>
    </symbol>
    <symbol xmlns="http://www.w3.org/2000/svg" viewBox="0 0 18.4 18.4" id="delete">
        <path d="M12.355 18.2a3.208 3.208 0 0 0 3.26-3.061l.373-11.2h1.746a.454.454 0 1 0 0-.907h-4.89v-1.02A1.844 1.844 0 0 0 10.982.2h-3.54a1.844 1.844 0 0 0-1.863 1.814v1.02H.666a.454.454 0 1 0 0 .907h1.746l.373 11.2a3.208 3.208 0 0 0 3.26 3.061zM6.511 2.014a.922.922 0 0 1 .931-.907h3.54a.922.922 0 0 1 .931.907v1.02h-5.4zM3.74 15.095L3.367 3.918H15.08l-.4 11.177a2.309 2.309 0 0 1-2.329 2.2H6.068a2.293 2.293 0 0 1-2.328-2.2z"></path>
        <path d="M7.362 13.955a.488.488 0 0 0 .532-.42V7.249a.547.547 0 0 0-1.065 0v6.285a.488.488 0 0 0 .533.421zm3.699 0a.488.488 0 0 0 .532-.42V7.249a.547.547 0 0 0-1.065 0v6.285a.488.488 0 0 0 .533.421z"></path>
    </symbol>
    <symbol xmlns="http://www.w3.org/2000/svg" viewBox="0 0 20.526 20.59" id="magic-load">
        <path d="M.483 10.232l2.85-3.359-1.692-4.1A.885.885 0 0 1 2.754 1.66l4.124 1.668 3.36-2.847a.839.839 0 0 1 .95-.116.882.882 0 0 1 .463.834l-.324 4.4 3.777 2.317a.863.863 0 0 1 .394.857.812.812 0 0 1-.649.695l-3.337.834 8.52 8.518a.852.852 0 0 1-1.2 1.2l-8.52-8.518-.811 3.313a.748.748 0 0 1-.232.394.806.806 0 0 1-.463.232.846.846 0 0 1-.857-.394l-2.323-3.773-4.4.324a.883.883 0 0 1-.834-.463.742.742 0 0 1 .091-.903zm5.515-.672a.865.865 0 0 1 .788.394l1.529 2.479.672-2.8a.748.748 0 0 1 .232-.394.984.984 0 0 1 .394-.232l2.827-.695-2.457-1.531a.781.781 0 0 1-.394-.788l.209-2.873-2.2 1.876a.87.87 0 0 1-.881.139L4.052 4.046 5.141 6.71a.836.836 0 0 1-.162.857l-1.877 2.2z" fill="#747891" stroke="#fff" stroke-linecap="round" stroke-linejoin="round" stroke-width=".5"></path>
    </symbol>
    <symbol xmlns="http://www.w3.org/2000/svg" viewBox="0 0 18.513 18.64" id="pen">
        <path d="M17.657 4.088a2.025 2.025 0 0 1 .521 1.984l-.007.023-.007.023-.007.023-.008.023-.008.023-.008.023-.009.023-.009.023-.009.023-.009.023-.009.022-.01.022-.01.023-.011.022-.011.022-.011.022-.011.022-.012.022-.012.022-.012.022-.013.022-.013.022-.013.021-.014.021-.014.021-.014.021-.014.021-.015.021-.015.02-.015.02-.016.02-.016.02-.016.02-.016.02-.017.019-.017.019-.017.019-.017.019-.018.019-.018.019-.019.019L7.163 17.417l-6.913.971.9-6.923L11.669.979a2.041 2.041 0 0 1 2.871 0l3.117 3.1zm-4.379 4.386l-3.136-3.129-7.087 7.067-.477 3.624 3.627-.511 7.073-7.051zm-1.713-4.55l3.137 3.129 1.527-1.523a.021.021 0 0 0 0-.023l-3.112-3.106a.016.016 0 0 0-.023 0l-1.527 1.523z" fill="#747891" stroke="#fff" stroke-linecap="round" stroke-linejoin="round" stroke-width=".5"></path>
    </symbol>
    <symbol xmlns="http://www.w3.org/2000/svg" viewBox="0 0 19 19" id="save">
        <path d="M15.575.838A1.215 1.215 0 0 0 14.788.5H1.625A1.063 1.063 0 0 0 .5 1.625v15.75A1.063 1.063 0 0 0 1.625 18.5h15.75a1.063 1.063 0 0 0 1.125-1.125V4.213a1.021 1.021 0 0 0-.337-.788zM7.363 2.75h4.275v3.037H7.363zm8.887 13.5H2.75V2.75h2.363v4.162a1.063 1.063 0 0 0 1.125 1.125h6.525a1.063 1.063 0 0 0 1.125-1.125V2.75h.337l2.025 1.912z"></path>
        <path d="M12.763 10.963H6.238a1.125 1.125 0 1 0 0 2.25h6.525a1.125 1.125 0 1 0 0-2.25z"></path>
    </symbol>
</svg>