<svg xmlns="http://www.w3.org/2000/svg" width="20" height="20" viewBox="0 0 20 20">
    <g id="prefix__duplicate" transform="translate(-6 -6)">
        <g id="prefix__Group_1349" data-name="Group 1349" transform="translate(6 6)">
            <path id="prefix__Path_2035" d="M14.977 7.818h9.2v10.909h-1.813v1.818h1.818A1.819 1.819 0 0026 18.727V7.818A1.819 1.819 0 0024.182 6H13.273a1.819 1.819 0 00-1.818 1.818v1.818h1.818V7.818zM6 13.275a1.819 1.819 0 011.82-1.82h10.905a1.819 1.819 0 011.82 1.82V24.18a1.819 1.819 0 01-1.82 1.82H7.82A1.819 1.819 0 016 24.18V13.275zm1.818 0h10.909v10.907H7.818V13.273z" data-name="Path 2035" transform="translate(-6 -6)" style="fill:#2585d3;fill-rule:evenodd"/>
        </g>
    </g>
</svg>
