<svg xmlns="http://www.w3.org/2000/svg" width="16" height="16" viewBox="0 0 16 16">
    <defs>
        <style>
            .cls-1{fill:#5c617e}
        </style>
    </defs>
    <path id="search2" d="M36.783 35.616L33.8 32.661a7.2 7.2 0 0 0-.533-9.557 7.187 7.187 0 0 0-10.158 10.17 7.2 7.2 0 0 0 9.571.532l2.959 2.955a.768.768 0 0 0 .56.24.727.727 0 0 0 .56-.24.828.828 0 0 0 .024-1.145zM33.8 28.188a5.47 5.47 0 0 1-1.653 3.94 5.643 5.643 0 0 1-3.947 1.651 5.486 5.486 0 0 1-3.946-1.651 5.627 5.627 0 0 1-1.653-3.94 5.47 5.47 0 0 1 1.653-3.94A5.6 5.6 0 0 1 28.2 22.6a5.486 5.486 0 0 1 3.946 1.651 5.579 5.579 0 0 1 1.654 3.937z" class="cls-1" transform="translate(-21 -21)"/>
</svg>
