<svg xmlns="http://www.w3.org/2000/svg" width="20" height="19" viewBox="0 0 20 19">
    <defs>
        <style>
            .cls-1{fill:#2585d3}
        </style>
    </defs>
    <g id="upload-cloud-icon" transform="translate(0 -18.4)">
        <g id="Group_807" data-name="Group 807" transform="translate(0 18.4)">
            <path id="Path_1700" d="M16.266 23.418a6.071 6.071 0 0 0-1.805-3.441 5.622 5.622 0 0 0-7.049-.616 5.9 5.9 0 0 0-1.879 2.056 3.2 3.2 0 0 0-.609-.06 3.239 3.239 0 0 0-3.171 3.3 3.739 3.739 0 0 0 .066.684A4.645 4.645 0 0 0 0 29.035a5.014 5.014 0 0 0 1.2 3.244 4.217 4.217 0 0 0 2.961 1.547h3.57a.577.577 0 0 0 0-1.154H4.207a3.592 3.592 0 0 1-3.1-3.642 3.453 3.453 0 0 1 1.633-2.949.593.593 0 0 0 .243-.7 2.168 2.168 0 0 1-.123-.735A2.106 2.106 0 0 1 4.923 22.5a1.957 1.957 0 0 1 .7.128.55.55 0 0 0 .7-.295 4.689 4.689 0 0 1 4.236-2.791 4.731 4.731 0 0 1 4.66 4.394.568.568 0 0 0 .461.513 4.187 4.187 0 0 1-.378 8.216h-3.034a.577.577 0 0 0 0 1.154h3.093a4.854 4.854 0 0 0 3.3-1.693A5.442 5.442 0 0 0 20 28.539a5.3 5.3 0 0 0-3.734-5.121z" class="cls-1" data-name="Path 1700" transform="translate(0 -18.4)"/>
            <path id="Path_1701" d="M164.919 189.215a.543.543 0 0 0 0-.77l-2.884-2.884a.551.551 0 0 0-.383-.161.534.534 0 0 0-.383.161l-2.884 2.884a.546.546 0 0 0 .383.932.531.531 0 0 0 .383-.161l1.956-1.956v8.99a.544.544 0 1 0 1.089 0v-8.99l1.956 1.956a.538.538 0 0 0 .767-.001z" class="cls-1" data-name="Path 1701" transform="translate(-151.65 -177.793)"/>
        </g>
    </g>
</svg>
