<svg width="0" height="0" class="hidden">
  <symbol xmlns="http://www.w3.org/2000/svg" viewBox="0 0 12 12" id="field-table-close">
    <path d="M6 6l-5 5 5-5-5-5 5 5 5-5-5 5 5 5z" fill="none" stroke="#454a6c" stroke-linecap="round" stroke-linejoin="round" stroke-width="2"></path>
  </symbol>
  <symbol xmlns="http://www.w3.org/2000/svg" viewBox="0 0 44 44" id="field-table-config">
    <g fill="#fff" stroke="rgba(23,30,72,.2)" stroke-linecap="round" stroke-linejoin="round">
      <rect width="44" height="44" rx="4" stroke="none"></rect>
      <rect x=".5" y=".5" width="43" height="43" rx="3.5" fill="none"></rect>
    </g>
    <path d="M23.087 31.5H21.92a1.062 1.062 0 01-.9-.5c-.085-.133-.6-1-.864-1.512l-.933-.384c-.569.18-1.594.436-1.682.457a1.066 1.066 0 01-.992-.285l-.827-.827a1.063 1.063 0 01-.285-.992c.036-.155.281-1.133.457-1.681l-.384-.929a21.661 21.661 0 01-1.51-.865 1.062 1.062 0 01-.5-.9v-1.166a1.062 1.062 0 01.5-.9c.133-.085 1-.6 1.513-.864l.387-.928a35.371 35.371 0 01-.457-1.681 1.065 1.065 0 01.285-.992l.827-.827a1.064 1.064 0 01.992-.285c.155.036 1.133.281 1.682.457l.929-.384c.274-.54.819-1.441.864-1.512a1.062 1.062 0 01.9-.5h1.161a1.062 1.062 0 01.9.5c.085.133.6 1 .864 1.512l.929.384c.569-.18 1.594-.436 1.682-.457a1.066 1.066 0 01.992.285l.827.827a1.063 1.063 0 01.285.992 30.606 30.606 0 01-.457 1.681l.384.929c.54.274 1.441.819 1.513.864a1.062 1.062 0 01.5.9v1.165a1.062 1.062 0 01-.5.9c-.133.085-1 .6-1.513.864l-.376.933c.18.569.436 1.593.457 1.681a1.065 1.065 0 01-.285.992l-.827.827a1.066 1.066 0 01-.992.285 30.829 30.829 0 01-1.682-.457l-.929.375c-.274.54-.819 1.441-.864 1.512a1.062 1.062 0 01-.9.5zm-3.837-3.464l1.633.679.081.18c.166.36.764 1.372.9 1.578a.068.068 0 00.059.032h1.168a.068.068 0 00.059-.029c.106-.169.72-1.2.9-1.578l.081-.18 1.639-.679.18.067c.373.137 1.509.429 1.748.486a.061.061 0 00.063-.018l.827-.827a.063.063 0 00.018-.063c-.045-.193-.337-1.354-.486-1.747l-.067-.18.675-1.634.18-.081c.36-.166 1.372-.764 1.579-.9a.068.068 0 00.033-.06v-1.17a.068.068 0 00-.032-.059h0c-.169-.106-1.2-.72-1.579-.9l-.18-.081-.679-1.639.067-.18c.137-.373.429-1.508.486-1.747a.068.068 0 00-.018-.063l-.827-.827a.063.063 0 00-.063-.018c-.193.045-1.351.337-1.748.486l-.18.067-1.642-.675-.081-.18c-.166-.36-.764-1.372-.9-1.578a.068.068 0 00-.061-.036h-1.159a.068.068 0 00-.059.032c-.106.169-.72 1.2-.9 1.578l-.081.18-1.639.679-.18-.069c-.373-.137-1.509-.429-1.748-.486a.061.061 0 00-.063.018l-.827.827a.063.063 0 00-.018.063c.045.193.337 1.354.486 1.747l.067.18-.676 1.651-.18.081c-.36.166-1.372.764-1.579.9a.068.068 0 00-.027.056v1.163a.068.068 0 00.032.059c.169.106 1.2.72 1.579.9l.18.081.679 1.638-.067.18c-.137.373-.429 1.508-.486 1.747a.068.068 0 00.018.063l.827.827a.063.063 0 00.063.018c.193-.045 1.351-.337 1.748-.486zm3.25-1.332a4.2 4.2 0 114.21-4.2 4.205 4.205 0 01-4.21 4.2zm0-7.415a3.21 3.21 0 103.214 3.21 3.21 3.21 0 00-3.214-3.21z" fill="#454a6c" stroke="#454a6c" stroke-width=".3"></path>
  </symbol>
 <symbol xmlns="http://www.w3.org/2000/svg" viewBox="0 0 17.71 16.4" id="fields-attachment">
    <path d="M14.278 4.379a5.014 5.014 0 00-9.29-1.666 2.872 2.872 0 00-.527-.05 2.748 2.748 0 00-2.744 2.744 3 3 0 00.057.57A3.819 3.819 0 00.2 9.056a4.083 4.083 0 001.036 2.7 3.7 3.7 0 002.564 1.29h3.09a.481.481 0 100-.961H3.841a3.031 3.031 0 01-2.68-3.033A2.853 2.853 0 012.574 6.6a.484.484 0 00.21-.584 1.744 1.744 0 01-.107-.612A1.786 1.786 0 014.46 3.621a1.753 1.753 0 01.609.107.483.483 0 00.6-.246 4.053 4.053 0 017.7 1.335.48.48 0 00.4.427 3.464 3.464 0 01-.327 6.841h-2.624a.481.481 0 100 .961h2.677a4.259 4.259 0 002.855-1.41 4.43 4.43 0 00-2.072-7.254z"></path>
    <path d="M11.74 9.511a.479.479 0 000-.68L9.195 6.286a.486.486 0 00-.338-.142.471.471 0 00-.338.142L5.974 8.831a.482.482 0 00.338.822.469.469 0 00.338-.142l1.726-1.726v7.934a.481.481 0 00.961 0V7.785l1.726 1.726a.475.475 0 00.677 0z"></path>
  </symbol>
  <symbol xmlns="http://www.w3.org/2000/svg" viewBox="0 0 24 24" id="fields-url">
    <path d="M20.859 12.826v-.033c.008-.057.008-.122.016-.18a.1.1 0 01.008-.049 1.208 1.208 0 00.008-.171v-.057c0-.057.008-.114.008-.163v-.555a1.041 1.041 0 00-.008-.163V11.4c0-.057-.008-.114-.008-.171v-.049c-.008-.057-.008-.122-.016-.18v-.033l-.024-.2v-.016a8.792 8.792 0 00-.547-2.131c-.008-.016-.016-.041-.024-.057a9.017 9.017 0 00-16.742 0c-.008.016-.016.041-.025.057a9.183 9.183 0 00-.547 2.131v.016l-.024.2V11c-.008.057-.008.122-.016.18v.049a1.2 1.2 0 00-.008.171v.057c0 .057-.008.114-.008.163v.555a1.038 1.038 0 00.008.163v.057c0 .057.008.114.008.163a.1.1 0 00.008.049c.008.057.008.122.016.18v.041l.024.2v.024a1.916 1.916 0 00.033.212h0a8.768 8.768 0 00.515 1.918c.008.016.016.041.024.057a9.017 9.017 0 0016.742 0c.008-.016.016-.041.025-.057a9.185 9.185 0 00.547-2.131v-.016a.838.838 0 01.007-.209zm-1.584-.694v.073c0 .065-.008.131-.008.2v.057a2 2 0 00-.016.22.477.477 0 01-.016.106c-.008.041-.008.082-.016.122-.008.073-.024.147-.033.22-.008.025-.008.049-.016.082a1.326 1.326 0 01-.033.155c0 .016-.008.033-.008.049q-.074.331-.172.661h-3.291c.065-.7.106-1.429.106-2.171a20.9 20.9 0 00-.106-2.171h3.291q.1.318.172.661c0 .016.008.033.008.049a1.051 1.051 0 00.033.155.226.226 0 01.008.073 2.2 2.2 0 01.033.229c.008.041.008.082.016.122s.008.073.016.106a2.011 2.011 0 01.016.212v.057a1.572 1.572 0 01.008.2v.073c0 .082.008.163.008.245zm-7.383 7.135c-.523 0-1.388-1.241-1.878-3.576h3.757c-.491 2.335-1.356 3.576-1.879 3.576zm-2.123-5.208a20.676 20.676 0 010-4.343h4.247a20.676 20.676 0 010 4.343zm-5.1-.653c0-.016-.008-.033-.008-.057a.954.954 0 00-.033-.147c-.008-.024-.008-.057-.016-.082-.008-.073-.024-.139-.033-.212-.008-.041-.008-.082-.016-.122a.466.466 0 01-.008-.106 2 2 0 01-.016-.22v-.06a1.571 1.571 0 01-.008-.2v-.073c0-.082-.008-.163-.008-.245s0-.163.008-.245v-.073c0-.065.008-.131.008-.2v-.057a2.011 2.011 0 00.016-.212.478.478 0 01.016-.106c.008-.041.008-.082.016-.122.008-.073.024-.155.033-.229 0-.024.008-.049.008-.073a1.051 1.051 0 01.033-.155c0-.016.008-.033.008-.049q.073-.331.172-.661h3.291c-.065.7-.106 1.429-.106 2.171a20.9 20.9 0 00.106 2.171H4.841a5.214 5.214 0 01-.177-.636zm7.228-8.9c.523 0 1.388 1.241 1.878 3.576h-3.757c.482-2.333 1.351-3.574 1.874-3.574zm6.321 3.576h-2.8a13.744 13.744 0 00-.613-2.278 9.364 9.364 0 00-.359-.841 7.417 7.417 0 013.765 3.121zM9.332 4.964a9.084 9.084 0 00-.359.841 13.75 13.75 0 00-.613 2.278H5.567a7.484 7.484 0 013.76-3.118zM5.575 15.691H8.36a13.75 13.75 0 00.613 2.278c.114.31.237.588.359.841a7.432 7.432 0 01-3.761-3.118zm8.886 3.118c.122-.253.245-.531.359-.841a13.745 13.745 0 00.613-2.278h2.785a7.431 7.431 0 01-3.762 3.12z" fill="#5b607e" stroke="#fff" stroke-linecap="round" stroke-width=".3" opacity=".8"></path>
  </symbol>
  <symbol xmlns="http://www.w3.org/2000/svg" viewBox="0 0 24 24" id="fields-phone">
    <path d="M13.982 15.441l.642-.639.744-.739a1.823 1.823 0 012.711 0q1.134 1.124 2.3 2.3a1.837 1.837 0 01-.009 2.75 4.985 4.985 0 01-.8.6l-.256.161a26.632 26.632 0 01-1.084.63 4.481 4.481 0 01-3.431.28c-.1-.03-.273-.089-.514-.181q-.6-.226-1.313-.567A19.234 19.234 0 019 17.495a17.4 17.4 0 01-1.448-1.349Q7 15.568 6.5 14.946a19.715 19.715 0 01-2.605-4.3 17.478 17.478 0 01-.562-1.421 7.346 7.346 0 01-.163-.517 4.227 4.227 0 01.453-3.427c.038-.059.1-.161.193-.291.147-.217.3-.433.451-.636l.196-.254a5.415 5.415 0 01.437-.5 1.832 1.832 0 012.712 0c.332.326 1.767 1.762 2.287 2.286a1.83 1.83 0 010 2.763l-.776.778-.587.587-.218.218c.053.136.142.345.263.606a13.027 13.027 0 00.8 1.479 7.073 7.073 0 001 1.281 8 8 0 001.119.902 12.881 12.881 0 001.572.893c.278.134.5.232.654.293zM8.3 10.174v.005zm11.4 6.858q-1.167-1.175-2.3-2.3a.884.884 0 00-1.378 0l-.74.736-.644.641-.292.29a.868.868 0 01-.908.184c-.159-.062-.43-.178-.776-.344a13.8 13.8 0 01-1.689-.96 8.926 8.926 0 01-1.257-1 7.981 7.981 0 01-1.143-1.453 13.946 13.946 0 01-.857-1.587c-.15-.325-.255-.579-.308-.719a.873.873 0 01.192-.906l.266-.266.585-.586.776-.778a.9.9 0 000-1.428 296.29 296.29 0 00-2.272-2.279.893.893 0 00-1.384 0 4.566 4.566 0 00-.356.41 7.647 7.647 0 00-.176.231c-.142.191-.287.4-.427.6-.084.124-.147.219-.188.283a3.322 3.322 0 00-.34 2.619c.023.085.074.253.156.493.139.4.315.856.532 1.344a18.779 18.779 0 002.479 4.092q.473.591 1 1.139a16.46 16.46 0 001.369 1.275 18.3 18.3 0 003.773 2.415c.45.216.866.394 1.239.535.221.084.376.136.486.171a3.575 3.575 0 002.66-.211c.065-.035.179-.1.327-.183.247-.14.493-.285.722-.426l.24-.151a4.433 4.433 0 00.636-.466.9.9 0 00.006-1.415z" fill="#5b607e" stroke="#5b607e" stroke-linecap="round" stroke-width=".7" opacity=".8"></path>
  </symbol>
  <symbol xmlns="http://www.w3.org/2000/svg" viewBox="0 0 24 24" id="fields-money">
    <path fill="none" d="M0 0h24v24H0z"></path>
    <path d="M20.417 8.433a4.576 4.576 0 01-1.082.571 12.31 12.31 0 01-7.364 0 3.636 3.636 0 01-1.082-.571v.661a11.076 11.076 0 011.172.3c1.022.391 1.683.932 1.683 1.593v.391a4.5 4.5 0 00.661.06 11.407 11.407 0 004.719-.451c.782-.3 1.292-.661 1.292-1.022zm-1.292 0c.782-.271 1.292-.631 1.292-1.022v-1.5a4.546 4.546 0 01-1.082.541 12.31 12.31 0 01-7.364 0 3.63 3.63 0 01-1.082-.541v1.5c0 .391.481.751 1.292 1.022a11.882 11.882 0 006.947 0zm-5.982 6.132a4.546 4.546 0 01-1.082.541 12.31 12.31 0 01-7.364 0 3.63 3.63 0 01-1.082-.541v1.5c0 .391.481.751 1.292 1.022a11.882 11.882 0 006.943 0c.782-.271 1.292-.631 1.292-1.022zm-1.292 0c.782-.3 1.292-.661 1.292-1.022V12.01a6.03 6.03 0 01-1.082.571 12.8 12.8 0 01-7.364 0 4.491 4.491 0 01-1.082-.571v1.533c0 .361.481.721 1.292 1.022a11.882 11.882 0 006.947 0zM3.617 17.09v1.533c0 .361.481.721 1.292 1.022a11.882 11.882 0 006.943 0c.782-.3 1.292-.661 1.292-1.022V17.09a4.577 4.577 0 01-1.082.571 12.31 12.31 0 01-7.364 0 3.636 3.636 0 01-1.081-.571zm-.6 1.533v-7.635c0-.661.631-1.2 1.683-1.593a12.543 12.543 0 015.591-.421V4.886c0-.661.631-1.2 1.683-1.593a12.31 12.31 0 017.364 0c1.022.391 1.683.932 1.683 1.593v10.16c0 .661-.661 1.2-1.683 1.593a12.163 12.163 0 01-4.99.511c-.21-.03-.421-.06-.6-.09v1.563c0 .661-.661 1.2-1.683 1.593a12.8 12.8 0 01-7.364 0c-1.053-.391-1.684-.936-1.684-1.593zm10.731-6.643v1.924c.21.03.421.06.661.09a11.406 11.406 0 004.719-.451c.782-.3 1.292-.661 1.292-1.022v-1.533a6.031 6.031 0 01-1.082.571 12.151 12.151 0 01-4.99.481 3.7 3.7 0 01-.6-.06zm0 2.525v1.954c.21.03.421.06.661.09a11.948 11.948 0 004.719-.481c.782-.271 1.292-.631 1.292-1.022v-1.5a4.545 4.545 0 01-1.082.541 12.163 12.163 0 01-4.99.511c-.21-.033-.42-.063-.6-.093zm5.38-10.64a11.881 11.881 0 00-6.943 0c-.812.271-1.292.631-1.292 1.022 0 .361.481.721 1.292 1.022a11.882 11.882 0 006.943 0c.782-.3 1.292-.661 1.292-1.022-.003-.391-.51-.752-1.292-1.022zm-7.274 6.1a11.882 11.882 0 00-6.943 0c-.812.3-1.292.661-1.292 1.022s.481.721 1.292 1.022a11.882 11.882 0 006.943 0c.782-.3 1.292-.661 1.292-1.022s-.51-.72-1.292-1.021z" fill="#5b607e" stroke="#5b607e" stroke-width=".5" opacity=".8"></path>
  </symbol>
  <symbol xmlns="http://www.w3.org/2000/svg" viewBox="0 0 24 24" id="fields-email">
    <path d="M20.49 6.07A1.576 1.576 0 0018.851 5H4.864a2.427 2.427 0 00-1.639 1.072A2.053 2.053 0 003 7v9.991a1.934 1.934 0 001.865 2h13.986a1.936 1.936 0 001.865-2V7a2.092 2.092 0 00-.226-.93zM4.865 6h13.986a.866.866 0 01.327.065L12.517 13.2a.888.888 0 01-1.318 0L4.538 6.065A.859.859 0 014.865 6zm14.916 10.987a.966.966 0 01-.933 1H4.865a.967.967 0 01-.933-1V7a1.1 1.1 0 01.014-.154l6.592 7.062a1.777 1.777 0 002.637 0l6.592-7.062a1.08 1.08 0 01.014.154v9.989z" fill="#5b607e" stroke="#5b607e" stroke-linecap="round" stroke-width=".6" opacity=".8"></path>
  </symbol>
  <symbol xmlns="http://www.w3.org/2000/svg" viewBox="0 0 16 15.959" id="fields-date_time">
    <path d="M11.636 1.489V.727a.728.728 0 111.455 0v.762h.727a2.236 2.236 0 012.183 2.286v7.616a4.469 4.469 0 01-4.365 4.571H4.364A4.469 4.469 0 01.001 11.39V3.774a2.236 2.236 0 012.181-2.285h1.453V.727a.728.728 0 111.455 0v.762zM1.456 6.062H14.54V3.774a.744.744 0 00-.727-.762h-.727a.728.728 0 11-1.455 0H5.09a.728.728 0 01-1.455 0H2.182a.744.744 0 00-.727.762zm0 1.523v3.808a2.98 2.98 0 002.908 3.048h7.272a2.98 2.98 0 002.908-3.047V7.581z" fill="#7a7f97" fill-rule="evenodd"></path>
  </symbol>
  <symbol xmlns="http://www.w3.org/2000/svg" viewBox="0 0 16 16" id="fields-radio">
    <g fill="#fff" stroke="#7a7f97" stroke-width="1.3">
      <rect width="16" height="16" rx="8" stroke="none"></rect>
      <rect x=".65" y=".65" width="14.7" height="14.7" rx="7.35" fill="none"></rect>
    </g>
    <rect width="6" height="6" rx="3" transform="translate(5 5)" fill="#7a7f97"></rect>
  </symbol>
  <symbol xmlns="http://www.w3.org/2000/svg" viewBox="0 0 16 16" id="fields-dropdown">
    <g stroke="#7a7f97" fill="#fff" stroke-width="1.3">
      <rect width="16" height="16" rx="2" stroke="none"></rect>
      <rect x=".65" y=".65" width="14.7" height="14.7" rx="1.35" fill="none"></rect>
    </g>
    <path d="M4.999 7l3 3 3-3" stroke-linecap="round" stroke-linejoin="round" stroke-width="1.5" fill="none" stroke="#7a7f97"></path>
  </symbol>
  <symbol xmlns="http://www.w3.org/2000/svg" viewBox="0 0 16 16" id="fields-checkbox">
    <g stroke="#7a7f97" fill="#fff" stroke-width="1.3">
      <rect width="16" height="16" rx="2" stroke="none"></rect>
      <rect x=".65" y=".65" width="14.7" height="14.7" rx="1.35" fill="none"></rect>
    </g>
    <path d="M4 8.162L6.569 11 12 5" stroke-linecap="round" stroke-linejoin="round" stroke-width="1.5" fill="none" stroke="#7a7f97"></path>
  </symbol>
  <symbol xmlns="http://www.w3.org/2000/svg" xmlns:xlink="http://www.w3.org/1999/xlink" viewBox="0 0 16 16" id="fields-long_text">
    <defs>
      <clipPath id="d">
        <use xlink:href="#a"></use>
      </clipPath>
      <clipPath id="e">
        <use xlink:href="#b"></use>
      </clipPath>
      <clipPath id="f">
        <use xlink:href="#c"></use>
      </clipPath>
    </defs>
    <g stroke="#7a7f97" fill="#fff" stroke-width="1.3">
      <rect width="16" height="16" rx="2"></rect>
      <rect x=".65" y=".65" width="14.7" height="14.7" rx="1.35" fill="none"></rect>
    </g>
    <g transform="translate(4 4)">
      <rect id="a" width="8.4" height="1.4" rx=".7"></rect>
      <path d="M0 .65h8.4M7.65 0v1.4M8.4.75H0m.75.65V0" clip-path="url(#d)" fill="none"></path>
    </g>
    <g transform="translate(4 7)">
      <rect id="b" width="8.4" height="1.4" rx=".7"></rect>
      <path d="M0 .65h8.4M7.65 0v1.4M8.4.75H0m.75.65V0" clip-path="url(#e)" fill="none"></path>
    </g>
    <g transform="translate(4 10)">
      <rect id="c" width="4.4" height="1.4" rx=".7"></rect>
      <path d="M0 .65h4.4M3.65 0v1.4M4.4.75H0m.75.65V0" clip-path="url(#f)" fill="none"></path>
    </g>
  </symbol>
  <symbol xmlns="http://www.w3.org/2000/svg" xmlns:xlink="http://www.w3.org/1999/xlink" viewBox="0 0 16 16" id="fields-short_text">
    <defs>
      <clipPath id="b">
        <use xlink:href="#a"></use>
      </clipPath>
    </defs>
    <g stroke="#7a7f97" fill="#fff" stroke-width="1.3">
      <rect width="16" height="16" rx="2"></rect>
      <rect x=".65" y=".65" width="14.7" height="14.7" rx="1.35" fill="none"></rect>
    </g>
    <g transform="translate(4 5)" fill="#7a7f97" stroke-width="1.5" stroke="#7a7f97">
      <rect id="a" width="8" height="1.4" rx=".7"></rect>
      <path d="M0 .65h8M7.25 0v1.4M8 .75H0m.75.65V0" clip-path="url(#b)" fill="none"></path>
    </g>
  </symbol>




  <symbol xmlns="http://www.w3.org/2000/svg" viewBox="0 0 16 18" id="Attachments-section">
    <path
      d="M6.759 12.897l-.046.043.936.923 5.037-4.966-.936-.923-4.991 4.923a.669.669 0 0 1 .936 0 .646.646 0 0 1 0 .923 2.451 2.451 0 0 1-3.432 0 2.368 2.368 0 0 1 0-3.383l6.863-6.766a.669.669 0 0 1 .936 0 .646.646 0 0 1 0 .923l-6.863 6.765a1.077 1.077 0 0 0 0 1.538 1.114 1.114 0 0 0 1.56 0l6.863-6.766a2.8 2.8 0 0 0 0-4 2.9 2.9 0 0 0-4.056 0L2.703 8.899a4.521 4.521 0 0 0 0 6.459 4.68 4.68 0 0 0 6.551 0l5.615-5.536a.669.669 0 0 1 .936 0 .646.646 0 0 1 0 .923l-5.614 5.535a6.017 6.017 0 0 1-8.423 0 5.759 5.759 0 0 1-.046-8.259L8.631 1.21a4.234 4.234 0 0 1 5.927 0 4.091 4.091 0 0 1 0 5.843l-6.909 6.812-.936-.925z"
      fill="#7b7f97" fill-rule="evenodd" opacity="1"></path>
  </symbol>
<symbol xmlns="http://www.w3.org/2000/svg" viewBox="0 0 16 16" id="Table-section">
    <path d="M5.494 16H.572A.592.592 0 010 15.386V.614A.592.592 0 01.572 0h14.856A.6.6 0 0116 .614v14.772a.6.6 0 01-.572.614zm9.364-1.23v-3.518H6v3.518zm-13.717 0H5v-3.518H1.142zm13.717-4.52v-4.5H6v4.5zM5 10.25v-4.5H1.142v4.5zm9.86-5.5V1.232H6v3.516zM5 4.748V1.232H1.142v3.516z" fill="#7b7f97"></path>
  </symbol>
  <symbol xmlns="http://www.w3.org/2000/svg" viewBox="0 0 17.5 17.5" id="Checklist-section">
    <g transform="translate(-596.684 -363.684)" fill="none" stroke="#7b7f97" stroke-width="1.5">
      <rect width="16" height="16" rx="4" transform="translate(597.434 364.434)"></rect>
      <path d="M601.686 372.25l2.6 2.98 4.9-5.622" stroke-linecap="round" stroke-linejoin="round"></path>
    </g>
  </symbol>
  <symbol xmlns="http://www.w3.org/2000/svg" viewBox="0 0 16 18.286" id="Basic-section">
    <path d="M15.82 5L10.9.177A.623.623 0 0010.462 0H1.846A1.829 1.829 0 000 1.808v14.67a1.829 1.829 0 001.846 1.808h12.308A1.829 1.829 0 0016 16.478V5.424A.6.6 0 0015.82 5zm-4.743-2.94L13.9 4.821h-2.208a.61.61 0 01-.615-.6zm3.077 15.02H1.846a.61.61 0 01-.615-.6V1.808a.61.61 0 01.615-.6h8v3.011a1.829 1.829 0 001.846 1.808h3.077v10.451a.61.61 0 01-.615.602z"></path>
    <path d="M11.451 8.518H4.216a.602.602 0 100 1.205h7.232a.602.602 0 100-1.205zm0 3.553H4.216a.602.602 0 100 1.205h7.232a.602.602 0 100-1.205z"></path>
  </symbol>
  <symbol xmlns="http://www.w3.org/2000/svg" viewBox="0 0 45 45" id="view">
    <path d="M22.5 29.5c-6.537 0-11.672-7.307-11.878-7.606a.7.7 0 010-.788c.216-.312 5.353-7.606 11.878-7.606s11.672 7.307 11.878 7.606a.7.7 0 010 .788c-.207.299-5.346 7.606-11.878 7.606zm-10.519-8.014c1.143 1.486 5.485 6.655 10.518 6.655s9.375-5.161 10.518-6.655c-1.143-1.486-5.485-6.655-10.518-6.655S13.124 20 11.981 21.486zm10.518 4.346a4.348 4.348 0 114.223-4.346 4.286 4.286 0 01-4.222 4.347zm0-7.334a2.989 2.989 0 102.9 2.988A2.947 2.947 0 0022.5 18.5z" fill="#171e48"></path>
  </symbol>
  <symbol xmlns="http://www.w3.org/2000/svg" viewBox="0 0 12.3 12.3" id="table-icon">
    <path d="M4.271 12.15H.579a.444.444 0 01-.429-.46V.61A.444.444 0 01.579.15h11.142a.447.447 0 01.429.46v11.08a.447.447 0 01-.429.46zm7.023-.922V8.589H4.65v2.639zm-10.288 0h2.893V8.589H1.006zm10.288-3.39V4.463H4.65v3.375zm-7.4 0V4.463H1.006v3.375zm7.4-4.126V1.074H4.65v2.637zm-7.4 0V1.074H1.006v2.637z" fill="#fff" stroke="#fff" stroke-linecap="round" stroke-width=".3"></path>
  </symbol>
 <symbol xmlns="http://www.w3.org/2000/svg" viewBox="0 0 16.475 16.501" id="trash">
    <path d="M11.039 16.25a2.852 2.852 0 002.9-2.72l.331-9.955h1.552a.403.403 0 000-.806h-4.344v-.907A1.639 1.639 0 009.822.25H6.676A1.639 1.639 0 005.02 1.862v.907H.653a.403.403 0 100 .806h1.552l.334 9.955a2.852 2.852 0 002.9 2.72zm-5.2-14.388a.82.82 0 01.828-.806h3.146a.82.82 0 01.828.806v.907H5.839zM3.385 13.489L3.054 3.55h10.411l-.352 9.935a2.052 2.052 0 01-2.074 1.955H5.455a2.039 2.039 0 01-2.07-1.951z" stroke="#454a6c" stroke-linecap="round" stroke-linejoin="round" stroke-width=".5" fill="#454a6c"></path>
    <path d="M6.628 13.026a.53.53 0 00.578-.457V5.741a.594.594 0 00-1.157 0v6.828a.53.53 0 00.579.457zm3.242 0a.53.53 0 00.578-.457V5.741a.594.594 0 00-1.157 0v6.828a.53.53 0 00.579.457z"></path>
  </symbol>
  <symbol xmlns="http://www.w3.org/2000/svg" viewBox="0 0 16 16" id="duplicate">
    <path d="M7.182 1.455h7.364v8.727h-1.455v1.455h1.455A1.456 1.456 0 0016 10.182V1.455A1.456 1.456 0 0014.545 0H5.818a1.456 1.456 0 00-1.455 1.455v1.454h1.455V1.455zM0 5.82a1.455 1.455 0 011.456-1.456h8.724a1.455 1.455 0 011.456 1.456v8.724A1.455 1.455 0 0110.18 16H1.456A1.455 1.455 0 010 14.544zm1.455 0h8.727v8.727H1.455V5.818z" fill="#454a6c" fill-rule="evenodd"></path>
  </symbol>
  <symbol xmlns="http://www.w3.org/2000/svg" xmlns:xlink="http://www.w3.org/1999/xlink" viewBox="0 0 120.892 58.196" id="logo-sensehawk">
    <defs>
      <linearGradient id="a" y1=".486" x2="4.345" y2=".486" gradientUnits="objectBoundingBox">
        <stop offset="0" stop-color="#0d83d5"></stop>
        <stop offset="1" stop-color="#3ac587"></stop>
      </linearGradient>
      <linearGradient id="b" x1="-1.441" y1=".308" x2="3.938" y2=".308" xlink:href="#a"></linearGradient>
      <linearGradient id="c" x1="-1.476" y1=".305" x2="1.668" y2=".305" xlink:href="#a"></linearGradient>
      <linearGradient id="d" x1="-4.315" y1=".508" x2="1" y2=".508" xlink:href="#a"></linearGradient>
      <linearGradient id="e" x1=".049" y1="2.24" x2="2.342" y2="-.137" xlink:href="#a"></linearGradient>
      <linearGradient id="f" x1="-1.18" y1=".969" x2="1.114" y2="-1.409" xlink:href="#a"></linearGradient>
      <linearGradient id="g" x1=".031" y1=".952" x2="2.41" y2="-1.34" xlink:href="#a"></linearGradient>
      <linearGradient id="h" x1="-1.081" y1="2.068" x2=".991" y2="-.009" xlink:href="#a"></linearGradient>
    </defs>
    <path d="M65.293 50.511v7.413h-1.856v-16.48h1.856v7.322h9.51v-7.322h1.856v16.479h-1.856V50.51zm15.158-2.431l-.545-1.483a10.015 10.015 0 014.427-1.009c3.318 0 5.174 1.694 5.174 4.891v7.433h-1.745v-1.835a5.323 5.323 0 01-4.4 2.1c-2.259 0-4.538-1.271-4.538-3.812 0-2.592 2.118-3.953 5.2-3.953a13.028 13.028 0 013.742.514v-.424c0-2.189-1.341-3.318-3.621-3.318a8.672 8.672 0 00-3.694.896zm.212 6.213c0 1.553 1.412 2.451 3.056 2.451 2.239 0 4.074-1.361 4.074-3.3v-1.18a12.628 12.628 0 00-3.58-.514c-2.28.001-3.551.989-3.551 2.539zm22.934 1.23l3.2-9.763h1.886l-4.286 12.264h-1.573l-3.268-9.6-3.3 9.6h-1.593L90.405 45.76h1.926l3.2 9.763 3.268-9.813h1.5zm17.295 2.4h-2.168l-4.357-5.668-2.471 2.491v3.177h-1.815V40.738h1.815v11.86l6.565-6.848h2.259l-5.1 5.224z"></path>
    <path d="M1113.256 469.467v7.413h-1.856V460.4h1.856v7.322h9.51V460.4h1.856v16.479h-1.856v-7.413z" transform="translate(-1047.963 -418.956)" fill="url(#a)"></path>
    <path d="M1265.624 503.991l-.545-1.483a10.015 10.015 0 014.427-1.009c3.318 0 5.174 1.694 5.174 4.891v7.433h-1.745v-1.835a5.323 5.323 0 01-4.4 2.1c-2.259 0-4.538-1.271-4.538-3.812 0-2.592 2.118-3.953 5.2-3.953a13.028 13.028 0 013.742.514v-.424c0-2.189-1.341-3.318-3.621-3.318a8.672 8.672 0 00-3.694.896zm.212 6.213c0 1.553 1.412 2.451 3.056 2.451 2.239 0 4.074-1.361 4.074-3.3v-1.18a12.628 12.628 0 00-3.58-.514c-2.28.001-3.551.989-3.551 2.539z" transform="translate(-1185.173 -455.911)" fill="url(#b)"></path>
    <path d="M1391.992 512.513l3.2-9.763h1.886l-4.286 12.264h-1.573l-3.268-9.6-3.3 9.6h-1.593l-4.258-12.264h1.926l3.2 9.763 3.268-9.813h1.5z" transform="translate(-1288.395 -456.99)" fill="url(#c)"></path>
    <path d="M1584.711 470.585h-2.168l-4.357-5.668-2.471 2.491v3.177h-1.815V453.4h1.815v11.86l6.565-6.848h2.259l-5.1 5.224z" transform="translate(-1463.819 -412.662)" fill="url(#d)"></path>
    <path d="M6.989 48.786c3.671.8 5.365 2.138 5.365 4.68 0 2.844-2.35 4.68-5.628 4.68a9.627 9.627 0 01-6.727-2.632l1.15-1.362a7.844 7.844 0 005.648 2.33c2.209 0 3.671-1.15 3.671-2.824 0-1.553-.827-2.421-4.286-3.157-3.792-.827-5.527-2.047-5.527-4.78 0-2.632 2.279-4.518 5.416-4.518a8.6 8.6 0 015.789 2.027l-1.079 1.432a7.211 7.211 0 00-4.75-1.785c-2.138 0-3.51 1.18-3.51 2.683-.01 1.582.847 2.45 4.468 3.226zm12.88 7.836a5.042 5.042 0 003.832-1.715l1.13 1.009a6.278 6.278 0 01-5.012 2.279 6.054 6.054 0 01-6.071-6.354c0-3.53 2.471-6.354 5.839-6.354 3.6 0 5.668 2.874 5.668 6.444 0 .161 0 .353-.02.565h-9.652a4.272 4.272 0 004.286 4.126zm3.55-5.456c-.192-2.209-1.462-4.145-3.883-4.145-2.118 0-3.722 1.765-3.953 4.145zm5.516 6.757H27.12V45.75h1.815v2.118a4.6 4.6 0 014.165-2.38c2.945 0 4.659 1.977 4.659 4.871v7.554h-1.815v-7.11c0-2.259-1.22-3.671-3.368-3.671a3.582 3.582 0 00-3.651 3.812v6.979zm15.279.232a8.383 8.383 0 01-5.033-1.785l.918-1.291a7.114 7.114 0 004.216 1.553c1.462 0 2.521-.756 2.521-1.926v-.05c0-1.22-1.432-1.694-3.036-2.138-1.906-.545-4.024-1.2-4.024-3.439v-.05c0-2.1 1.745-3.479 4.145-3.479a8.3 8.3 0 014.377 1.341l-.827 1.362a6.9 6.9 0 00-3.6-1.18c-1.432 0-2.35.756-2.35 1.765v.05c0 1.15 1.5 1.6 3.126 2.1 1.886.565 3.9 1.291 3.9 3.479v.05c-.006 2.296-1.912 3.638-4.333 3.638zm11.528-1.533a5.042 5.042 0 003.832-1.715l1.13 1.009a6.278 6.278 0 01-5.012 2.279 6.054 6.054 0 01-6.071-6.354c0-3.53 2.471-6.354 5.839-6.354 3.6 0 5.668 2.874 5.668 6.444 0 .161 0 .353-.02.565h-9.652a4.266 4.266 0 004.286 4.126zm3.55-5.456c-.192-2.209-1.462-4.145-3.883-4.145-2.118 0-3.721 1.765-3.953 4.145zM49.764 1.943a1.634 1.634 0 00-2.258 2.362l8.925 8.487a1.668 1.668 0 001.12.455 1.577 1.577 0 001.19-.508 1.648 1.648 0 00-.052-2.31zm14.957 14.945a1.634 1.634 0 10-2.257 2.362l8.925 8.487a1.634 1.634 0 002.258-2.363zm-8.553-.158l-8.487 8.925a1.634 1.634 0 102.363 2.258l8.487-8.925a1.649 1.649 0 00-.053-2.31 1.632 1.632 0 00-2.31.052zM68.016 0a1.636 1.636 0 000 3.272h1.68l-7.07 7.42a1.617 1.617 0 00.07 2.31 1.56 1.56 0 001.12.455 1.643 1.643 0 001.19-.508l7.385-7.77v2.45a1.637 1.637 0 103.273 0V0z"></path>
    <path d="M241.673 465.863a1.634 1.634 0 00-2.258 2.362l8.925 8.487a1.668 1.668 0 001.12.455 1.577 1.577 0 001.19-.508 1.648 1.648 0 00-.052-2.31z" transform="translate(-191.909 -463.92)" fill="url(#e)"></path>
    <path d="M327.2 551.295a1.634 1.634 0 10-2.257 2.362l8.925 8.487a1.634 1.634 0 002.258-2.363z" transform="translate(-262.479 -534.407)" fill="url(#f)"></path>
    <path d="M249.15 550.115l-8.487 8.925a1.634 1.634 0 102.363 2.258l8.487-8.925a1.649 1.649 0 00-.053-2.31 1.632 1.632 0 00-2.31.052z" transform="translate(-192.982 -533.385)" fill="url(#g)"></path>
    <path d="M331.462 456.9a1.636 1.636 0 000 3.272h1.68l-7.07 7.42a1.617 1.617 0 00.07 2.31 1.56 1.56 0 001.12.455 1.643 1.643 0 001.19-.508l7.385-7.77v2.45a1.636 1.636 0 103.273 0V456.9z" transform="translate(-263.446 -456.9)" fill="url(#h)"></path>
  </symbol>
</svg>