<svg xmlns="http://www.w3.org/2000/svg" width="18" height="18" viewBox="0 0 18 18">
    <defs>
        <style>
            .cls-1{fill:#171e48}
        </style>
    </defs>
    <g id="grid-menu" transform="translate(-9.5 -9)">
        <path id="Path_1825" d="M11.542 13.084A2.033 2.033 0 0 1 9.5 11.042 2.033 2.033 0 0 1 11.542 9a2.033 2.033 0 0 1 2.042 2.042 2.033 2.033 0 0 1-2.042 2.042z" class="cls-1" data-name="Path 1825"/>
        <path id="Path_1826" d="M11.542 45.084A2.033 2.033 0 0 1 9.5 43.042 2.033 2.033 0 0 1 11.542 41a2.033 2.033 0 0 1 2.042 2.042 2.033 2.033 0 0 1-2.042 2.042z" class="cls-1" data-name="Path 1826" transform="translate(0 -25.042)"/>
        <path id="Path_1827" d="M11.542 77.084A2.033 2.033 0 0 1 9.5 75.042 2.033 2.033 0 0 1 11.542 73a2.033 2.033 0 0 1 2.042 2.042 2.033 2.033 0 0 1-2.042 2.042z" class="cls-1" data-name="Path 1827" transform="translate(0 -50.084)"/>
        <path id="Path_1828" d="M43.042 13.084A2.033 2.033 0 0 1 41 11.042 2.033 2.033 0 0 1 43.042 9a2.033 2.033 0 0 1 2.042 2.042 2.033 2.033 0 0 1-2.042 2.042z" class="cls-1" data-name="Path 1828" transform="translate(-24.542)"/>
        <path id="Path_1829" d="M43.042 45.084A2.033 2.033 0 0 1 41 43.042 2.033 2.033 0 0 1 43.042 41a2.033 2.033 0 0 1 2.042 2.042 2.033 2.033 0 0 1-2.042 2.042z" class="cls-1" data-name="Path 1829" transform="translate(-24.542 -25.042)"/>
        <path id="Path_1830" d="M43.042 77.084A2.033 2.033 0 0 1 41 75.042 2.033 2.033 0 0 1 43.042 73a2.033 2.033 0 0 1 2.042 2.042 2.033 2.033 0 0 1-2.042 2.042z" class="cls-1" data-name="Path 1830" transform="translate(-24.542 -50.084)"/>
        <path id="Path_1831" d="M74.542 13.084a2.033 2.033 0 0 1-2.042-2.042A2.033 2.033 0 0 1 74.542 9a2.033 2.033 0 0 1 2.042 2.042 2.033 2.033 0 0 1-2.042 2.042z" class="cls-1" data-name="Path 1831" transform="translate(-49.084)"/>
        <path id="Path_1832" d="M74.542 45.084a2.033 2.033 0 0 1-2.042-2.042A2.033 2.033 0 0 1 74.542 41a2.033 2.033 0 0 1 2.042 2.042 2.033 2.033 0 0 1-2.042 2.042z" class="cls-1" data-name="Path 1832" transform="translate(-49.084 -25.042)"/>
        <path id="Path_1833" d="M74.542 77.084a2.033 2.033 0 0 1-2.042-2.042A2.033 2.033 0 0 1 74.542 73a2.033 2.033 0 0 1 2.042 2.042 2.033 2.033 0 0 1-2.042 2.042z" class="cls-1" data-name="Path 1833" transform="translate(-49.084 -50.084)"/>
    </g>
</svg>
