<svg xmlns="http://www.w3.org/2000/svg" width="21.498" height="21.498" viewBox="0 0 21.498 21.498">
    <defs>
        <style>
            .cls-1{fill:#000;stroke:#000;stroke-width:.5px;opacity:.7}
        </style>
    </defs>
    <path id="groups" d="M10.729 31.317l10.086-7.534a.425.425 0 0 0 .185-.349v-.043a.419.419 0 0 0-.176-.3L17.889 20.9l2.926-2.186a.425.425 0 0 0 .185-.352v-.043a.42.42 0 0 0-.176-.305L10.73 10.477a.378.378 0 0 0-.462 0L.181 18.011a.425.425 0 0 0-.181.313v.037a.42.42 0 0 0 .177.346L3.109 20.9.181 23.083a.425.425 0 0 0-.181.312v.039a.419.419 0 0 0 .177.345l10.093 7.539a.722.722 0 0 0 .23.078.39.39 0 0 0 .229-.079zM1 18.361l9.5-7.1 9.5 7.1-9.5 7.1zm0 5.073l2.75-2.058 6.52 4.871a.376.376 0 0 0 .459 0l6.519-4.869L20 23.434l-9.5 7.1z" class="cls-1" transform="translate(.25 -10.148)"/>
</svg>
