<svg width="0" height="0" class="hidden">
  <symbol xmlns="http://www.w3.org/2000/svg" viewBox="0 0 24 24" id="add-users-teams">
    <path fill="#6E748F" d="M11.995 23a.614.614 0 1 1 0-1.228c.6 0 1.191-.054 1.771-.16a.614.614 0 1 1 .221 1.208c-.653.12-1.319.18-1.992.18zm3.936-.725a.614.614 0 0 1-.44-1.146 9.737 9.737 0 0 0 1.595-.785.614.614 0 0 1 .64 1.048c-.57.348-1.17.644-1.795.883zm3.414-2.088a.614.614 0 0 1-.82-.914 9.838 9.838 0 0 0 1.21-1.302.614.614 0 0 1 .971.75 11.065 11.065 0 0 1-1.361 1.466zm2.484-3.245a.614.614 0 0 1-1.097-.553 9.662 9.662 0 0 0 .651-1.652.614.614 0 0 1 1.179.343 10.932 10.932 0 0 1-.733 1.862zm1.107-3.756a.614.614 0 0 1-1.22-.132 9.883 9.883 0 0 0 .029-1.795.614.614 0 0 1 1.224-.091 11.288 11.288 0 0 1-.033 2.018zm-.298-3.997a.614.614 0 1 1-1.187.313 9.698 9.698 0 0 0-.608-1.67.614.614 0 1 1 1.11-.523c.286.604.515 1.233.685 1.88zM20.93 5.573a.614.614 0 1 1-.996.717 9.833 9.833 0 0 0-1.166-1.342.614.614 0 1 1 .851-.886c.482.463.921.969 1.311 1.51zM17.992 2.77a.614.614 0 1 1-.67 1.029 9.75 9.75 0 0 0-1.572-.83.614.614 0 1 1 .472-1.134c.618.257 1.21.57 1.77.935zm-3.635-1.522a.614.614 0 1 1-.262 1.2 9.794 9.794 0 0 0-1.764-.22A.614.614 0 1 1 12.372 1c.673.023 1.336.106 1.985.248zm-4.017-.13a.614.614 0 1 1 .183 1.214 9.709 9.709 0 0 0-1.726.425.614.614 0 0 1-.401-1.16c.63-.219 1.28-.379 1.944-.48zm-3.817 1.33a.614.614 0 0 1 .611 1.066 9.804 9.804 0 0 0-1.455 1.02.614.614 0 0 1-.794-.936c.51-.432 1.058-.817 1.638-1.15zM3.476 5.032a.614.614 0 0 1 .95.778c-.376.46-.71.952-.997 1.471a.614.614 0 0 1-1.075-.593 11 11 0 0 1 1.122-1.656zM1.56 8.49a.614.614 0 0 1 1.164.392 9.707 9.707 0 0 0-.409 1.728.614.614 0 0 1-1.216-.172c.095-.665.25-1.316.461-1.947zM1 12.487a.614.614 0 0 1 1.227-.053c.027.597.107 1.186.239 1.76a.614.614 0 1 1-1.197.276A11.004 11.004 0 0 1 1 12.486zm.904 3.908a.614.614 0 1 1 1.125-.491c.238.544.525 1.065.857 1.557a.614.614 0 1 1-1.018.687 10.981 10.981 0 0 1-.964-1.753zm2.24 3.314a.614.614 0 1 1 .877-.86c.416.423.87.808 1.355 1.15a.614.614 0 1 1-.706 1.004 11.06 11.06 0 0 1-1.525-1.294zm3.349 2.332a.614.614 0 1 1 .503-1.12 9.7 9.7 0 0 0 1.68.576.614.614 0 1 1-.29 1.193 10.928 10.928 0 0 1-1.893-.649zm3.81.939a.614.614 0 1 1 .076-1.226c.2.013.402.019.605.02A.614.614 0 1 1 11.982 23c-.227 0-.454-.007-.68-.021zM11.3 11.3V7.7a.699.699 0 1 1 1.398 0v3.6H16.3a.699.699 0 0 1 0 1.398h-3.6V16.3a.699.699 0 0 1-1.398 0v-3.6H7.7a.699.699 0 1 1 0-1.398h3.6z"></path>
  </symbol>
  <symbol xmlns="http://www.w3.org/2000/svg" viewBox="0 0 159.999 47.998" id="bg-tooltip">
    <defs>
      <filter id="a" x="0" y="0" width="159.999" height="47.998" filterUnits="userSpaceOnUse">
        <feOffset dy="3"></feOffset>
        <feGaussianBlur stdDeviation="3" result="blur"></feGaussianBlur>
        <feFlood flood-color="#171e48" flood-opacity=".102"></feFlood>
        <feComposite operator="in" in2="blur"></feComposite>
        <feComposite in="SourceGraphic"></feComposite>
      </filter>
    </defs>
    <path d="M8739.224 18055.631l-2.562-3.131H8710a4 4 0 0 1-4-4v-18.5a4 4 0 0 1 4-4h134a4 4 0 0 1 4 4v18.5a4 4 0 0 1-4 4h-100.666l-2.561 3.131a1 1 0 0 1-1.55 0z" transform="translate(-8697 -18020)" fill="#171e48" filter="url(#a)"></path>
  </symbol>
  <symbol xmlns="http://www.w3.org/2000/svg" viewBox="0 0 16 16" id="cancel-remove">
    <path stroke="#545B7E" stroke-linecap="round" stroke-linejoin="round" stroke-width="1.5" d="M7.998 8L5 11l2.998-3L5 5l2.998 3 2.998-3-2.998 3 2.998 3z" fill="none" fill-rule="evenodd"></path>
  </symbol>
  <symbol xmlns="http://www.w3.org/2000/svg" viewBox="0 0 24 24" id="change-color">
    <path fill="#171E48" d="M12.67 15.898a1.353 1.353 0 1 0 2.707-.003 1.353 1.353 0 0 0-2.706.003zm-6.332-4.643a1.042 1.042 0 1 0 2.084 0 1.042 1.042 0 0 0-2.084 0zm13.477-1.371a9.865 9.865 0 0 0-1.193-1.645l-1.061 1.145c.245.292.366.467.366.467.1.3.46.881.18 1.387s-.712.648-1.37.993c-1.31.686-1.012 2.036-.334 3.903.216.593.545 1.612-.237 1.905a4.498 4.498 0 0 1-1.7.27 10.047 10.047 0 0 1-2.497-.388c-3.03-.84-5.125-2.467-5.953-4.762-.829-2.294-.652-5.235 1.042-6.607a6.377 6.377 0 0 1 7.144-.029c.322.2.625.407.9.61l1.18-1.049c-.325-.24-.673-.478-1.048-.71-3.117-1.929-6.984-1.733-9.153 0-2.17 1.732-2.58 5.368-1.522 8.268 1.058 2.9 3.679 5.225 7.627 6.012.92.19 1.853.303 2.792.336a6.968 6.968 0 0 0 2.548-.336 1.667 1.667 0 0 0 .762-2.255c-.87-2.358-1.678-3.643 0-4.51.842-.433 1.165-.577 1.526-1.216a2.246 2.246 0 0 0 0-1.79zm-8.511 1.567a8.135 8.135 0 0 0-1.965 3.21 6.358 6.358 0 0 0 3.378-1.7c.584-.79 3.652-3.845 3.652-3.845l2.978-3.073a.99.99 0 0 0-.2-.535.818.818 0 0 0-.483-.176l-3.478 2.933s-3.06 2.537-3.882 3.186zm1-4.444a.958.958 0 1 0-.958.959.959.959 0 0 0 .95-.959h.008zm-2.8 1.331a.958.958 0 1 0-1.917.003.958.958 0 0 0 1.916-.003z"></path>
  </symbol>
  <symbol xmlns="http://www.w3.org/2000/svg" viewBox="0 0 16 16" id="close">
    <path fill="#171E48" d="M8 6.15l4.767-4.767a1.308 1.308 0 0 1 1.85 1.85L9.85 8l4.767 4.767a1.308 1.308 0 0 1-1.85 1.85L8 9.85l-4.767 4.767a1.308 1.308 0 0 1-1.85-1.85L6.15 8 1.383 3.233a1.308 1.308 0 1 1 1.85-1.85L8 6.15z"></path>
  </symbol>
  <symbol xmlns="http://www.w3.org/2000/svg" viewBox="0 0 16 16" id="collapse-leftside">
    <path fill="#2585d3" d="M8 6.414l5.293 5.293a1 1 0 0 0 1.414-1.414l-6-6a1 1 0 0 0-1.414 0l-6 6a1 1 0 1 0 1.414 1.414L8 6.414z"></path>
  </symbol>
  <symbol xmlns="http://www.w3.org/2000/svg" viewBox="0 0 24 24" id="color-picker">
    <path fill="#171E48" d="M20.973 5.893a3.442 3.442 0 0 0-1.52-2.429 2.373 2.373 0 0 0-2.275-.3 5.718 5.718 0 0 0-1.98 1.503c-.69.741-1.427 1.434-2.14 2.152a1.116 1.116 0 0 0-1.681.138c-.345.348-.69.672-1.013 1.018a1 1 0 0 0-.046 1.341c.189.178.397.333.622.463-.253.212-.369.3-.46.393-2.602 2.613-2.487 2.498-5.11 5.11a4.67 4.67 0 0 0-1.321 2.106c-.141.463-.356.9-.635 1.296-.046.07-.093.115-.138.185-.4.514-.361 1.244.092 1.712l.046.047c.454.45 1.169.499 1.68.115h.023a3.243 3.243 0 0 1 1.198-.717 4.583 4.583 0 0 0 2.393-1.389c2.67-2.59 2.531-2.474 5.156-5.087.116-.116.23-.212.414-.393.089.146.19.285.3.416a1.003 1.003 0 0 0 1.588 0l.83-.832c.667-.672.846-.995.252-1.8.553-.555 1.106-1.088 1.657-1.643a6.819 6.819 0 0 0 2.003-2.567c.091-.27.113-.558.065-.838zm-7.666 6.847c-2.693 2.706-2.647 2.66-5.34 5.342-.488.495-1.1.846-1.773 1.018a7.432 7.432 0 0 0-1.473.763c-.045.024-.092.07-.137.092a.348.348 0 0 1-.461-.023.354.354 0 0 1-.023-.463c.16-.211.317-.416.46-.624a3.13 3.13 0 0 0 .414-.995 3.26 3.26 0 0 1 .898-1.688l5.57-5.597c.669.648 1.313 1.318 2.004 2.011-.043.058-.09.112-.139.164z"></path>
  </symbol>
  <symbol xmlns="http://www.w3.org/2000/svg" viewBox="0 0 16 16" id="create-add-new">
    <path fill="#FFF" d="M13 7H9V3a1 1 0 1 0-2 0v4H3a1 1 0 1 0 0 2h4v4a1 1 0 0 0 2 0V9h4a1 1 0 0 0 0-2z"></path>
  </symbol>
  <symbol xmlns="http://www.w3.org/2000/svg" viewBox="0 0 16 16" id="create-add-new-dark">
    <path fill="#171E48" d="M13 7H9V3a1 1 0 1 0-2 0v4H3a1 1 0 1 0 0 2h4v4a1 1 0 0 0 2 0V9h4a1 1 0 0 0 0-2z"></path>
  </symbol>
  <symbol xmlns="http://www.w3.org/2000/svg" viewBox="0 0 24 24" id="delete">
    <path fill="#5B607E" d="M8.192 23a4.02 4.02 0 0 1-4.09-3.833l-.445-13.36H1.695a.695.695 0 1 1 0-1.39h5.783V3.334A2.373 2.373 0 0 1 9.875 1h4.272a2.374 2.374 0 0 1 2.398 2.335v1.083h5.76a.695.695 0 1 1 0 1.389h-1.966l-.45 13.36A4.019 4.019 0 0 1 15.806 23H8.192zm.71-18.582h6.222v-1.08a.965.965 0 0 0-.976-.948H9.874a.964.964 0 0 0-.974.946v1.082zM5.11 5.775l.444 13.323v-.001a2.617 2.617 0 0 0 2.663 2.51h7.589a2.637 2.637 0 0 0 2.662-2.51l.474-13.322H5.11zm3.993 10.807l.005-5.893a.659.659 0 0 1 .637-.491c.3 0 .561.201.642.528l-.001 5.87a.603.603 0 0 1-.64.523.606.606 0 0 1-.643-.537zm5.813-.006l-.002.02c-.041.321-.33.552-.626.522a.606.606 0 0 1-.656-.536l.005-5.893a.659.659 0 0 1 .637-.491c.299 0 .56.201.642.528v5.85z"></path>
  </symbol>
  <symbol xmlns="http://www.w3.org/2000/svg" viewBox="0 0 24 24" id="delete-blue">
    <path fill="#2585d3" d="M8.192 23a4.02 4.02 0 0 1-4.09-3.833l-.445-13.36H1.695a.695.695 0 1 1 0-1.39h5.783V3.334A2.373 2.373 0 0 1 9.875 1h4.272a2.374 2.374 0 0 1 2.398 2.335v1.083h5.76a.695.695 0 1 1 0 1.389h-1.966l-.45 13.36A4.019 4.019 0 0 1 15.806 23H8.192zm.71-18.582h6.222v-1.08a.965.965 0 0 0-.976-.948H9.874a.964.964 0 0 0-.974.946v1.082zM5.11 5.775l.444 13.323v-.001a2.617 2.617 0 0 0 2.663 2.51h7.589a2.637 2.637 0 0 0 2.662-2.51l.474-13.322H5.11zm3.993 10.807l.005-5.893a.659.659 0 0 1 .637-.491c.3 0 .561.201.642.528l-.001 5.87a.603.603 0 0 1-.64.523.606.606 0 0 1-.643-.537zm5.813-.006l-.002.02c-.041.321-.33.552-.626.522a.606.606 0 0 1-.656-.536l.005-5.893a.659.659 0 0 1 .637-.491c.299 0 .56.201.642.528v5.85z"></path>
  </symbol>
  <symbol xmlns="http://www.w3.org/2000/svg" viewBox="0 0 24 24" id="delete-small">
    <path fill="#171E48" d="M9.246 20a2.95 2.95 0 0 1-2.999-2.814l-.32-9.628H4.542a.543.543 0 1 1 0-1.086H8.69v-.745A1.758 1.758 0 0 1 10.464 4h3.09a1.758 1.758 0 0 1 1.778 1.73v.743h4.125a.543.543 0 1 1 0 1.085h-1.383l-.321 9.631A2.949 2.949 0 0 1 14.756 20h-5.51zM9.8 6.472h4.424v-.74a.658.658 0 0 0-.667-.646h-3.094a.658.658 0 0 0-.666.645l.003.741zM7.056 7.54l.32 9.599a1.856 1.856 0 0 0 1.887 1.776h5.495a1.869 1.869 0 0 0 1.886-1.776l.34-9.599H7.057zm4.09 7.788c-.042.277-.32.47-.627.45-.307.02-.584-.173-.63-.47l.004-4.961c.06-.268.323-.457.626-.457s.566.19.629.486l-.002 4.952zm2.945 0c-.043.277-.32.47-.627.45-.307.02-.585-.173-.63-.47l.004-4.961c.059-.268.323-.457.626-.457.302 0 .566.19.629.486l-.002 4.952z"></path>
  </symbol>
  <symbol xmlns="http://www.w3.org/2000/svg" viewBox="0 0 48 48" id="download">
    <g transform="translate(4 4)" fill="none" fill-rule="evenodd">
      <circle cx="20" cy="20" r="20" fill="#FFF"></circle>
      <g fill-rule="nonzero">
        <path fill="#A2A5B6" d="M20 0c11.046 0 20 8.954 20 20s-8.954 20-20 20S0 31.046 0 20 8.954 0 20 0zm0 1.446C9.753 1.446 1.446 9.753 1.446 20c0 10.247 8.307 18.554 18.554 18.554 10.247 0 18.554-8.307 18.554-18.554C38.554 9.753 30.247 1.446 20 1.446z"></path>
        <path fill="#5B607E" d="M30 22.193v4.94a.95.95 0 0 1-.025.215.75.75 0 0 1-.71.652H10.72a.748.748 0 0 1-.707-.702.83.83 0 0 1-.013-.164v-4.948a.763.763 0 0 1 .725-.798.673.673 0 0 1 .483.223c.141.157.219.36.218.572v3.956c0 .142.115.257.257.257h16.642a.256.256 0 0 0 .257-.257v-3.955a.763.763 0 0 1 .724-.798.673.673 0 0 1 .483.223.906.906 0 0 1 .211.584zm-4.955-4.768c.32.416.315 1.003-.016 1.418l-4.45 5.174c-.009.012-.009.012.012-.007-.15.172-.304.263-.475.295-.008 0-.008 0-.03.004l.023-.001a.735.735 0 0 1-.1.007l-.093-.007.008.001h-.004a.389.389 0 0 0-.077-.008.743.743 0 0 1-.387-.251l-.031-.036-4.45-5.175c-.331-.408-.331-1 .004-1.415a.706.706 0 0 1 1.1 0l2.682 3.119c.155.18.45.07.45-.167v-11.4A.907.907 0 0 1 20.035 8a.749.749 0 0 1 .531.268c.164.195.252.445.248.7v11.409c0 .237.295.347.45.167l2.677-3.113a.706.706 0 0 1 1.104-.006z"></path>
      </g>
    </g>
  </symbol>
  <symbol xmlns="http://www.w3.org/2000/svg" viewBox="0 0 48 48" id="download2">
    <g fill="#171E48">
      <path d="M24.55 3c11.599 0 21 9.402 21 21s-9.401 21-21 21c-11.597 0-21-9.402-21-21s9.403-21 21-21zm0 2c-10.493 0-19 8.507-19 19s8.507 19 19 19c10.494 0 19-8.507 19-19s-8.506-19-19-19z" opacity=".3"></path>
      <path d="M34.3 26.088v4.816a.94.94 0 0 1-.024.21.732.732 0 0 1-.692.636H15.502a.729.729 0 0 1-.689-.684.81.81 0 0 1-.013-.16V26.08a.744.744 0 0 1 .707-.778c.171.002.347.08.471.218a.828.828 0 0 1 .213.557v3.858c0 .138.111.25.25.25h16.227a.25.25 0 0 0 .25-.25v-3.857a.744.744 0 0 1 .706-.778c.171.002.347.08.471.218a.883.883 0 0 1 .206.569zm-4.831-4.65c.312.407.307.979-.015 1.383l-4.339 5.046c-.009.011-.009.011.012-.007-.147.167-.297.256-.464.287-.008 0-.008 0-.029.004l.023-.001a.717.717 0 0 1-.099.007l-.09-.006h.008-.003c-.021-.004-.022-.004-.075-.008a.724.724 0 0 1-.378-.245l-.03-.034-4.34-5.046a1.1 1.1 0 0 1 .005-1.38.688.688 0 0 1 1.072 0l2.615 3.041a.25.25 0 0 0 .44-.163V13.2a.885.885 0 0 1 .802-.95.73.73 0 0 1 .518.26c.16.191.245.434.24.684v11.123a.25.25 0 0 0 .44.163l2.61-3.035a.688.688 0 0 1 1.077-.006z"></path>
    </g>
  </symbol>
  <symbol xmlns="http://www.w3.org/2000/svg" viewBox="0 0 48 48" id="download-active">
    <g fill="none">
      <path fill="#2585d3" d="M24.55 3c11.599 0 21 9.402 21 21s-9.401 21-21 21c-11.597 0-21-9.402-21-21s9.403-21 21-21zm0 2c-10.493 0-19 8.507-19 19s8.507 19 19 19c10.494 0 19-8.507 19-19s-8.506-19-19-19z"></path>
      <path fill="#171E48" d="M34.3 26.088v4.816a.94.94 0 0 1-.024.21.732.732 0 0 1-.692.636H15.502a.729.729 0 0 1-.689-.684.81.81 0 0 1-.013-.16V26.08a.744.744 0 0 1 .707-.778c.171.002.347.08.471.218a.828.828 0 0 1 .213.557v3.858c0 .138.111.25.25.25h16.227a.25.25 0 0 0 .25-.25v-3.857a.744.744 0 0 1 .706-.778c.171.002.347.08.471.218a.883.883 0 0 1 .206.569zm-4.831-4.65c.312.407.307.979-.015 1.383l-4.339 5.046c-.009.011-.009.011.012-.007-.147.167-.297.256-.464.287-.008 0-.008 0-.029.004l.023-.001a.717.717 0 0 1-.099.007l-.09-.006h.008-.003c-.021-.004-.022-.004-.075-.008a.724.724 0 0 1-.378-.245l-.03-.034-4.34-5.046a1.1 1.1 0 0 1 .005-1.38.688.688 0 0 1 1.072 0l2.615 3.041a.25.25 0 0 0 .44-.163V13.2a.885.885 0 0 1 .802-.95.73.73 0 0 1 .518.26c.16.191.245.434.24.684v11.123a.25.25 0 0 0 .44.163l2.61-3.035a.688.688 0 0 1 1.077-.006z"></path>
    </g>
  </symbol>
  <symbol xmlns="http://www.w3.org/2000/svg" viewBox="0 0 24 24" id="download-csv">
    <path fill="#171E48" d="M20 14.986v4.294a.868.868 0 0 1-.02.184c-.033.303-.255.517-.53.536H4.53c-.292-.066-.536-.37-.528-.72v-4.3a.606.606 0 0 1 .545-.66c.11.004.24.067.328.175a.75.75 0 0 1 .171.482v3.44c0 .143.116.258.258.258h13.4a.258.258 0 0 0 .258-.258V14.98a.606.606 0 0 1 .545-.66c.11.004.24.067.328.175a.802.802 0 0 1 .165.492zm-7.441.663l.003-.002-.027.02a.766.766 0 0 1-.416.196l-.03.003h.014a.806.806 0 0 1-.096.005l-.09-.005c-.019-.003-.019-.003-.064-.006a.738.738 0 0 1-.372-.186l-.024-.021-4.152-3.811a.603.603 0 0 1-.003-.9.8.8 0 0 1 1.055 0l2.493 2.289a.258.258 0 0 0 .432-.19V4.647a.693.693 0 0 1 .72-.648c.204 0 .391.072.537.2a.6.6 0 0 1 .2.448v8.393c0 .225.268.342.433.19l2.497-2.29a.799.799 0 0 1 1.053.003.617.617 0 0 1-.025.9l-4.148 3.81c-.013.011-.013.011.01-.005z"></path>
  </symbol>
  <symbol xmlns="http://www.w3.org/2000/svg" viewBox="0 0 48 48" id="download-fill">
    <g stroke="#2585d3" transform="translate(6 6)" fill="none">
      <rect width="36" height="36" fill="#2585d3" stroke-width="1.5" rx="18"></rect>
      <path fill="#FFF" stroke-linecap="round" stroke-linejoin="round" stroke-width=".5" d="M9.856 26.006c-.442-.01-.805-.372-.843-.839a.769.769 0 0 1-.012-.17v-4.406c-.008-.507.372-.927.851-.94a.817.817 0 0 1 .6.276.99.99 0 0 1 .25.664v3.528h14.6V20.59c-.008-.507.372-.927.851-.94a.817.817 0 0 1 .6.276c.155.185.242.423.243.67v4.405c0 .082-.01.164-.029.245-.071.43-.42.747-.833.757l-16.278.002zm8.049-3.178c-.017 0-.033-.006-.05-.006a.9.9 0 0 1-.53-.303c0-.006-.015-.019-.021-.025L13.28 17.93a1.17 1.17 0 0 1-.278-.768 1.166 1.166 0 0 1 .278-.77c.174-.2.42-.314.677-.314.257 0 .503.114.677.315l2.419 2.744V9.09c-.013-.577.412-1.059.956-1.084a.917.917 0 0 1 .676.318c.183.208.283.482.28.767v10.048l2.418-2.744a.895.895 0 0 1 .677-.316c.257 0 .503.115.677.316.36.443.354 1.101-.015 1.537l-4.025 4.563a.912.912 0 0 1-.552.328c-.015 0-.032.006-.049.006a.674.674 0 0 1-.1 0h-.091z"></path>
    </g>
  </symbol>
  <symbol xmlns="http://www.w3.org/2000/svg" viewBox="0 0 24 24" id="download-selected">
    <g fill="none">
      <path fill="#2585d3" d="M12 0c6.627 0 12 5.373 12 12s-5.373 12-12 12S0 18.627 0 12 5.373 0 12 0zm0 1.268C6.073 1.268 1.268 6.073 1.268 12S6.073 22.732 12 22.732 22.732 17.927 22.732 12 17.927 1.268 12 1.268z"></path>
      <path fill="#171E48" d="M17.614 13.173v2.7c0 .05-.006.1-.018.15a.547.547 0 0 1-.52.465H6.92a.551.551 0 0 1-.527-.515.5.5 0 0 1-.007-.1v-2.7a.557.557 0 0 1 .53-.577c.144.001.28.063.375.169a.605.605 0 0 1 .156.408v2.165h9.11v-2.165a.557.557 0 0 1 .53-.577c.144.001.28.063.375.169a.636.636 0 0 1 .152.408zm-2.753-1.744l-2.438 2.835a.55.55 0 0 1-.334.203h-.03a.31.31 0 0 1-.06 0h-.086a.54.54 0 0 1-.32-.188l-.014-.015-2.437-2.834a.758.758 0 0 1 0-.954.527.527 0 0 1 .82 0l1.465 1.7V5.937a.634.634 0 0 1 .58-.673.556.556 0 0 1 .41.2.723.723 0 0 1 .168.477v6.242l1.465-1.7a.527.527 0 0 1 .82 0 .77.77 0 0 1-.009.946z"></path>
    </g>
  </symbol>
  <symbol xmlns="http://www.w3.org/2000/svg" viewBox="0 0 24 24" id="download-white">
    <path fill="#FFF" d="M21 15.742v4.408a.94.94 0 0 1-.024.21.745.745 0 0 1-.705.64H3.718a.744.744 0 0 1-.707-.697.755.755 0 0 1-.01-.153v-4.414a.756.756 0 0 1 .719-.788.678.678 0 0 1 .49.225.835.835 0 0 1 .213.562v3.535l.153.153h14.853l.152-.153v-3.53a.756.756 0 0 1 .72-.788.678.678 0 0 1 .49.225.886.886 0 0 1 .209.565zm-4.444-4.302c.31.4.306.963-.01 1.361l-3.972 4.62a.782.782 0 0 1-.456.28c-.009 0-.009 0-.022.003a.573.573 0 0 1-.095.006l-.094-.007c-.017-.003-.017-.003-.053-.005a.73.73 0 0 1-.405-.25l-.022-.026-3.975-4.623a1.083 1.083 0 0 1 .003-1.36.707.707 0 0 1 1.1 0l2.391 2.782a.153.153 0 0 0 .269-.1V3.945A.884.884 0 0 1 12.019 3c.198.005.4.102.539.266.158.189.243.43.238.677V14.12c0 .142.176.207.268.1l2.39-2.778a.71.71 0 0 1 1.102-.003z"></path>
  </symbol>
  <symbol xmlns="http://www.w3.org/2000/svg" viewBox="0 0 24 24" id="duplicate">
    <path fill="#5B607E" d="M11.08 4.636H9.545v1.637H7.91V4.636C7.91 3.734 8.642 3 9.545 3h9.819C20.266 3 21 3.733 21 4.636v9.819c0 .901-.733 1.636-1.636 1.636h-1.637v-1.636h1.637V4.636H11.08zM3 9.547c0-.905.732-1.638 1.638-1.638h9.815c.905 0 1.638.732 1.638 1.638v9.815c0 .905-.732 1.638-1.638 1.638H4.638A1.637 1.637 0 0 1 3 19.362V9.547zm1.636-.002v9.819h9.819V9.545H4.636z"
      fill-rule="evenodd"></path>
  </symbol>
  <symbol xmlns="http://www.w3.org/2000/svg" viewBox="0 0 24 24" id="duplicate-copy-blue">
    <path fill="#2585d3" d="M10.773 2.182h11.045v13.091h-2.182v2.182h2.182A2.183 2.183 0 0 0 24 15.273V2.182A2.183 2.183 0 0 0 21.818 0H8.727a2.183 2.183 0 0 0-2.182 2.182v2.182h2.182V2.182h2.046zM0 8.73a2.183 2.183 0 0 1 2.184-2.184H15.27a2.183 2.183 0 0 1 2.184 2.184v13.086A2.183 2.183 0 0 1 15.27 24H2.184A2.183 2.183 0 0 1 0 21.816V8.73zm2.182 0h13.091v13.088H2.182V8.727v.003z"
      fill-rule="evenodd"></path>
  </symbol>
  <symbol xmlns="http://www.w3.org/2000/svg" viewBox="0 0 24 24" id="edit">
    <path fill="#5B607E" d="M17.8 19.56v-5.21a.233.233 0 0 0 .004-.04.814.814 0 0 1 .816-.787c.441 0 .803.349.816.787v5.246A2.494 2.494 0 0 1 16.915 22H3.523A2.495 2.495 0 0 1 1 19.552V6.46a2.493 2.493 0 0 1 2.521-2.446h5.764c.315-.022.6.123.755.376a.787.787 0 0 1 0 .824.797.797 0 0 1-.738.377L3.523 5.59a.887.887 0 0 0-.89.866v13.1c.01.487.406.872.89.872H16.91c.484 0 .88-.385.89-.867zm2.18-17.146l2.595 2.519.001.003c.37.358.512.89.37 1.382l-.006.016-.005.017-.005.018-.003.008-.013.038-.004.009-.023.055-.006.014-.004.009-.01.022-.007.014-.008.018-.005.008-.019.036-.006.01-.02.035-.022.04-.006.009-.011.016-.007.01-.037.05-.008.01-.013.017-.01.01-.036.06.018-.03-.039.043-.046.039-.01.01-8.697 8.45-5.382.738.698-5.24 8.718-8.464a1.5 1.5 0 0 1 2.067.001zm-.722 6.088a.232.232 0 0 0-.03-.359l-2.589-2.517a.235.235 0 0 0-.327 0l-5.908 5.741-.068.136-.395 2.944a.233.233 0 0 0 .264.26l3.024-.414.132-.064 5.897-5.727zM17.5 4.804l2.616 2.541a.235.235 0 0 0 .327 0l1.273-1.237c.087-.176.087-.176.03-.314l-2.627-2.56a.252.252 0 0 0-.338-.007L17.5 4.47a.232.232 0 0 0 0 .333z"></path>
  </symbol>
  <symbol xmlns="http://www.w3.org/2000/svg" viewBox="0 0 24 24" id="edit-blue">
    <path fill="#2585d3" d="M17.8 19.56v-5.21a.233.233 0 0 0 .004-.04.814.814 0 0 1 .816-.787c.441 0 .803.349.816.787v5.246A2.494 2.494 0 0 1 16.915 22H3.523A2.495 2.495 0 0 1 1 19.552V6.46a2.493 2.493 0 0 1 2.521-2.446h5.764c.315-.022.6.123.755.376a.787.787 0 0 1 0 .824.797.797 0 0 1-.738.377L3.523 5.59a.887.887 0 0 0-.89.866v13.1c.01.487.406.872.89.872H16.91c.484 0 .88-.385.89-.867zm2.18-17.146l2.595 2.519.001.003c.37.358.512.89.37 1.382l-.006.016-.005.017-.005.018-.003.008-.013.038-.004.009-.023.055-.006.014-.004.009-.01.022-.007.014-.008.018-.005.008-.019.036-.006.01-.02.035-.022.04-.006.009-.011.016-.007.01-.037.05-.008.01-.013.017-.01.01-.036.06.018-.03-.039.043-.046.039-.01.01-8.697 8.45-5.382.738.698-5.24 8.718-8.464a1.5 1.5 0 0 1 2.067.001zm-.722 6.088a.232.232 0 0 0-.03-.359l-2.589-2.517a.235.235 0 0 0-.327 0l-5.908 5.741-.068.136-.395 2.944a.233.233 0 0 0 .264.26l3.024-.414.132-.064 5.897-5.727zM17.5 4.804l2.616 2.541a.235.235 0 0 0 .327 0l1.273-1.237c.087-.176.087-.176.03-.314l-2.627-2.56a.252.252 0 0 0-.338-.007L17.5 4.47a.232.232 0 0 0 0 .333z"></path>
  </symbol>
  <symbol xmlns="http://www.w3.org/2000/svg" viewBox="0 0 24 24" id="edit-small">
    <path fill="#171E48" d="M16.219 12.576a.7.7 0 0 1 1.4 0v3.593a1.842 1.842 0 0 1-1.839 1.83H6.841A1.842 1.842 0 0 1 5 16.169v-8.96a1.842 1.842 0 0 1 1.841-1.831h3.846a.7.7 0 0 1 0 1.4H6.841a.438.438 0 0 0-.438.436v8.955a.439.439 0 0 0 .438.437h8.939a.439.439 0 0 0 .439-.437v-3.593zm3.451-6.522c.288.287.398.708.288 1.1v.104l-.005.013-.005.013-.005.012-.005.012-.006.013-.006.012-.006.012-.006.012-.006.012-.007.012-.007.012-.007.012-.007.012-.007.012-.007.012-.008.012-.008.012-.008.012-.008.012-.008.012-.008.01-.008.012-.009.01-.009.012-.009.01-.009.012-.009.01-.01.012-.01.01-.01.012-.01.01-.01.01-.01.01-5.875 5.819-3.848.539.5-3.846 5.856-5.824a1.138 1.138 0 0 1 1.6 0l1.732 1.725zm-2.436 2.438l-1.746-1.738-3.944 3.926-.263 2.014 2.019-.284 3.935-3.917-.001-.001zm-.953-2.528l1.746 1.735.85-.846a.012.012 0 0 0 0-.013l-1.733-1.722a.009.009 0 0 0-.013 0l-.85.846z"></path>
  </symbol>
  <symbol xmlns="http://www.w3.org/2000/svg" viewBox="0 0 24 24" id="email">
    <path fill="#5B607E" d="M4.436 5h15.128C20.358 5 21 5.698 21 6.523v10.954C21 18.33 20.372 19 19.564 19H4.436C3.656 19 3 18.316 3 17.477V6.523C3 5.713 3.67 5 4.436 5zm.217 1.088l6.2 5.526c.674.591 1.622.591 2.335.001l6.16-5.527H4.653zm15.313.878l-6.145 5.464c-1.082.968-2.56.968-3.642 0L4.034 6.966v10.51c0 .243.192.436.402.436h15.128c.236 0 .402-.177.402-.435V6.967z"
      fill-rule="evenodd"></path>
  </symbol>
  <symbol xmlns="http://www.w3.org/2000/svg" viewBox="0 0 16 16" id="expand-leftside">
    <path fill="#5C617E" d="M9.586 8l-5.293 5.293a1 1 0 0 0 1.414 1.414l6-6a1 1 0 0 0 0-1.414l-6-6a1 1 0 1 0-1.414 1.414L9.586 8z"></path>
  </symbol>
  <symbol xmlns="http://www.w3.org/2000/svg" viewBox="0 0 24 24" id="filter">
    <path fill="#2585d3" d="M20.82 5.235l-6.266 7.304-.007 5.017a.75.75 0 0 1-.433.675l-3.554 1.692a.793.793 0 0 1-.745-.034.748.748 0 0 1-.37-.642V12.54L3.18 5.235a.736.736 0 0 1-.105-.807.776.776 0 0 1 .7-.428h16.45a.78.78 0 0 1 .7.428.737.737 0 0 1-.105.807zm-7.814 7.03a.74.74 0 0 1 .18-.48l5.386-6.28H5.428l5.386 6.28a.74.74 0 0 1 .18.481v5.775L13 17.085l.006-4.82z"
      fill-rule="evenodd"></path>
  </symbol>
  <symbol xmlns="http://www.w3.org/2000/svg" viewBox="0 0 24 24" id="filter-blue">
    <path fill="#5B607E" d="M20.82 5.235l-6.266 7.304-.007 5.017a.75.75 0 0 1-.433.675l-3.554 1.692a.793.793 0 0 1-.745-.034.748.748 0 0 1-.37-.642V12.54L3.18 5.235a.736.736 0 0 1-.105-.807.776.776 0 0 1 .7-.428h16.45a.78.78 0 0 1 .7.428.737.737 0 0 1-.105.807zm-7.814 7.03a.74.74 0 0 1 .18-.48l5.386-6.28H5.428l5.386 6.28a.74.74 0 0 1 .18.481v5.775L13 17.085l.006-4.82z"
      fill-rule="evenodd"></path>
  </symbol>
  <symbol xmlns="http://www.w3.org/2000/svg" viewBox="0 0 24 24" id="images-list-view">
    <path fill="#7A7E95" d="M18.481 3A2.495 2.495 0 0 1 21 5.47v13.06A2.5 2.5 0 0 1 18.481 21H5.519A2.5 2.5 0 0 1 3 18.53V5.47A2.5 2.5 0 0 1 5.519 3h12.962zm1.483 15.531V5.47a1.47 1.47 0 0 0-1.483-1.453H5.519A1.47 1.47 0 0 0 4.036 5.47v13.062c.01.81.673 1.46 1.483 1.453h12.962a1.47 1.47 0 0 0 1.483-1.453zM7.405 14.117a1.13 1.13 0 1 1 .002 2.26 1.13 1.13 0 0 1-.002-2.26zm0-3.248a1.13 1.13 0 1 1 .002 2.26 1.13 1.13 0 0 1-.002-2.26zm0-3.247a1.13 1.13 0 1 1 .002 2.26 1.13 1.13 0 0 1-.002-2.26zm2.76.208h7.738v1.406h-7.738V7.83zm0 3.466h7.738v1.408h-7.738v-1.408zm0 3.466h7.738v1.406h-7.738v-1.406z"></path>
  </symbol>
  <symbol xmlns="http://www.w3.org/2000/svg" viewBox="0 0 24 24" id="images-list-view-white">
    <path fill="#FFF" d="M18.481 3A2.495 2.495 0 0 1 21 5.47v13.06A2.5 2.5 0 0 1 18.481 21H5.519A2.5 2.5 0 0 1 3 18.53V5.47A2.5 2.5 0 0 1 5.519 3h12.962zm1.483 15.531V5.47a1.47 1.47 0 0 0-1.483-1.453H5.519A1.47 1.47 0 0 0 4.036 5.47v13.062c.01.81.673 1.46 1.483 1.453h12.962a1.47 1.47 0 0 0 1.483-1.453zM7.405 14.117a1.13 1.13 0 1 1 .002 2.26 1.13 1.13 0 0 1-.002-2.26zm0-3.248a1.13 1.13 0 1 1 .002 2.26 1.13 1.13 0 0 1-.002-2.26zm0-3.247a1.13 1.13 0 1 1 .002 2.26 1.13 1.13 0 0 1-.002-2.26zm2.76.208h7.738v1.406h-7.738V7.83zm0 3.466h7.738v1.408h-7.738v-1.408zm0 3.466h7.738v1.406h-7.738v-1.406z"></path>
  </symbol>
  <symbol xmlns="http://www.w3.org/2000/svg" viewBox="0 0 16 16" id="info">
    <path fill="#5C617E" d="M8 1a7 7 0 1 0 7 7 6.991 6.991 0 0 0-7-7zm.778 10.251a.778.778 0 0 1-1.556 0V7.269a.778.778 0 1 1 1.556 0v3.982zm-.762-5.74a.762.762 0 1 1 0-1.524.762.762 0 0 1 0 1.524z"></path>
  </symbol>
  <symbol xmlns="http://www.w3.org/2000/svg" viewBox="0 0 100 70" id="info-blue">
    <path fill="#171E48" stroke="#171E48" stroke-width=".5" d="M58.767 22.752c0-.499.397-.903.885-.902.488 0 .883.405.883.904a13.538 13.538 0 0 1-.17 2.01c-.572 3.858-2.504 7.37-5.433 9.875a7.918 7.918 0 0 1-4.925 1.915 8.032 8.032 0 0 1-4.925-1.915 14.217 14.217 0 0 1-3.556-4.415 16.944 16.944 0 0 1-1.877-5.46 11.462 11.462 0 0 1 .5-5.797c1.794-4.864 6.733-7.722 11.736-6.792 5.004.93 8.642 5.381 8.647 10.58a.892.892 0 0 1-.882.9.892.892 0 0 1-.882-.9c0-3.17-1.638-6.104-4.307-7.716a8.602 8.602 0 0 0-8.69-.133c-3.155 1.822-4.92 5.412-4.464 9.087a15.173 15.173 0 0 0 1.628 5.116 12.769 12.769 0 0 0 3.294 4.179 5.957 5.957 0 0 0 4.36 1.43 7.197 7.197 0 0 0 4.05-2.214 14.652 14.652 0 0 0 3.023-4.656 13.465 13.465 0 0 0 1.105-5.096zm9.698 26.455a.893.893 0 0 1 .887-.9.893.893 0 0 1 .88.907v7.885a.9.9 0 0 1-.882.901H30.676a.9.9 0 0 1-.882-.901v-4.285c0-1.503-.103-3.055.043-4.555.365-4.009 2.819-7.504 6.418-9.14a11.743 11.743 0 0 1 4.854-.93h1.727c.4.023.759.258.945.62l7.023 9.797H49.28l.022-.03 7.03-9.89c.296-.392.78-.583 1.256-.497h1.765a10.664 10.664 0 0 1 7.686 3.195 11.145 11.145 0 0 1 3.19 7.83.892.892 0 0 1-.881.901.892.892 0 0 1-.882-.901c.002-5.048-3.967-9.159-8.905-9.223h-2.433l.761-.446-.11.156-6.978 9.81a.895.895 0 0 1-.762.43.895.895 0 0 1-.761-.43l-.125-.174-7.022-9.796.76.446a20.576 20.576 0 0 0-3.922.143c-3.826.714-6.778 3.847-7.333 7.782a20.025 20.025 0 0 0-.082 2.76v6.42l-.882-.902h38.674l-.882.902v-7.885zm12.251-22.153a.894.894 0 0 1 .882-.906.894.894 0 0 1 .887.902c-.079 3.382-1.478 6.591-3.885 8.912a6.473 6.473 0 0 1-4.87 1.974 7.283 7.283 0 0 1-4.698-2.6c-2.465-2.813-4.11-7.216-2.865-10.943 1.28-3.991 5.207-6.44 9.265-5.78 4.058.661 7.045 4.237 7.048 8.437a.892.892 0 0 1-.882.902.892.892 0 0 1-.882-.902c.027-3.54-2.627-6.498-6.08-6.776-3.451-.279-6.527 2.218-7.043 5.718a9.203 9.203 0 0 0 .825 5.073 9.938 9.938 0 0 0 3.19 4.211c.323.225.668.418 1.028.576.182.071.369.132.558.182.095.023.185.048.285.065-.01-.002.302.042.15.027a3.922 3.922 0 0 0 2.121-.34 8.374 8.374 0 0 0 3.555-3.678 10.994 10.994 0 0 0 1.411-5.054zm-5.809 20.833v.006a.889.889 0 0 1-1.205.322.914.914 0 0 1-.316-1.232l.354-.499 4.284-6.029.7-.987c.19-.387.568-.642.991-.668a13.535 13.535 0 0 1 4.214.377c3.61 1.163 6.066 4.582 6.071 8.45v6.04a.9.9 0 0 1-.882.9H74.146a.892.892 0 0 1-.882-.9c0-.499.394-.902.882-.902h14.972l-.882.901v-5.788a7.432 7.432 0 0 0-.984-3.93 6.846 6.846 0 0 0-4.008-3.098 13.533 13.533 0 0 0-3.599-.249l.761-.446-5.499 7.732zM32.49 27.054a.907.907 0 0 1 .44-.783.867.867 0 0 1 .884-.002c.273.16.443.458.443.781a12.787 12.787 0 0 1-3.885 8.912 6.474 6.474 0 0 1-4.869 1.974 7.283 7.283 0 0 1-4.699-2.6c-2.464-2.813-4.109-7.216-2.864-10.943 1.28-3.991 5.206-6.44 9.264-5.78 4.058.661 7.046 4.237 7.048 8.437a.892.892 0 0 1-.881.902.892.892 0 0 1-.882-.902c.027-3.54-2.627-6.498-6.08-6.776-3.452-.279-6.527 2.218-7.043 5.718a9.204 9.204 0 0 0 .824 5.073 9.939 9.939 0 0 0 3.19 4.211 6.11 6.11 0 0 0 1.028.576c.183.071.37.132.558.182.095.023.185.048.285.065-.01-.002.302.042.15.027a3.922 3.922 0 0 0 2.123-.34 8.374 8.374 0 0 0 3.555-3.678 10.993 10.993 0 0 0 1.41-5.054zm-6.576 25.71v-.002c.487 0 .882.403.882.901a.892.892 0 0 1-.882.901H10.898a.9.9 0 0 1-.881-.9V48.79a13.19 13.19 0 0 1 .307-3.568c1.07-3.812 4.487-6.436 8.368-6.425h1.642c.492 0 .727.341.98.694l1.812 2.528 3.553 4.957a.914.914 0 0 1-.316 1.233.889.889 0 0 1-1.206-.323l-5.542-7.732.76.446a17.69 17.69 0 0 0-2.715.057c-3.377.516-5.877 3.479-5.879 6.969v6.04l-.882-.902h15.014z"></path>
  </symbol>
  <symbol xmlns="http://www.w3.org/2000/svg" viewBox="0 0 16 16" id="invite-new-users">
    <path fill="#2585d3" d="M8 0a8 8 0 1 0 8 8 7.989 7.989 0 0 0-8-8zm.889 11.716a.889.889 0 1 1-1.778 0V7.164a.889.889 0 0 1 1.778 0v4.552zm-.871-6.56a.871.871 0 1 1 0-1.742.871.871 0 0 1 0 1.742z"></path>
  </symbol>
  <symbol xmlns="http://www.w3.org/2000/svg" viewBox="0 0 100 70" id="invite-users">
    <path fill="#171E48" d="M46.243 35.925h-15.1a.501.501 0 0 0-.499.515 65.12 65.12 0 0 0 .804 8.859.5.5 0 0 0 .543.42 73.712 73.712 0 0 1 12.657-.226 15.42 15.42 0 0 0-2.182 2.318 70.174 70.174 0 0 0-9.912.3.503.503 0 0 0-.435.617c1.618 6.986 4.318 11.644 7.12 12.045v1.863c0 .26.014.518.042.775-8.825-.11-17.233-4.327-22.646-11.615a1.586 1.586 0 0 1-.292-.371l-.025-.054c-7.084-9.987-7.084-23.34-.04-33.258l.052-.095.016-.035a1.2 1.2 0 0 1 .235-.303C22.071 10.302 30.588 6 39.634 6c9.046 0 17.564 4.302 22.993 11.613.152.153.234.259.296.373l.002.006.025.053a28.932 28.932 0 0 1 3.679 7.079 15.063 15.063 0 0 0-2.941-.838 26.076 26.076 0 0 0-2.023-3.794.496.496 0 0 0-.612-.19 41.894 41.894 0 0 1-10.387 2.943.503.503 0 0 0-.42.577c.221 1.413.398 2.833.53 4.257-.84.78-1.594 1.66-2.245 2.62a65.13 65.13 0 0 0-.713-6.58.5.5 0 0 0-.544-.42 72.245 72.245 0 0 1-7.64.4 72.249 72.249 0 0 1-7.642-.4.5.5 0 0 0-.544.42 65.12 65.12 0 0 0-.804 8.86.501.501 0 0 0 .499.515h15.88a14.568 14.568 0 0 0-.78 2.432zM20.48 51.884a25.732 25.732 0 0 0 12.887 7.827 23.219 23.219 0 0 1-2.57-5.087 42.176 42.176 0 0 1-1.624-5.56 41.093 41.093 0 0 0-8.549 2.226l-.119-.139a.498.498 0 0 0-.875.33c0 .355.352.599.679.47l.171-.067a25.976 25.976 0 0 1-.352-.403h.003l.35.403zm39.04-34.277a26.238 26.238 0 0 0-13.495-8.39c-.443-.111-.79.39-.533.772a22.714 22.714 0 0 1 2.513 4.976 41.74 41.74 0 0 1 1.607 5.497c.056.258.3.428.559.39a41.605 41.605 0 0 0 9.153-2.447.506.506 0 0 0 .196-.798zm-19.887-8.99c-2.94 0-5.821 4.765-7.513 12.073a.503.503 0 0 0 .435.616c2.352.24 4.714.36 7.078.358a69.289 69.289 0 0 0 7.078-.358c.3-.03.504-.32.435-.616-1.694-7.312-4.572-12.073-7.513-12.073zM33.78 9.99a.504.504 0 0 0-.413-.786l-.121.015a26.237 26.237 0 0 0-13.494 8.389.506.506 0 0 0 .196.798 41.593 41.593 0 0 0 9.153 2.447.499.499 0 0 0 .56-.39 41.668 41.668 0 0 1 1.605-5.493 22.73 22.73 0 0 1 2.514-4.98zm-16.179 10.5a26.158 26.158 0 0 0-4.114 12.466c-.02.29.209.537.497.537h13.73a.5.5 0 0 0 .498-.494 68.48 68.48 0 0 1 .808-9.178.503.503 0 0 0-.42-.577 41.884 41.884 0 0 1-10.387-2.942.496.496 0 0 0-.612.188zm0 28.435a.49.49 0 0 0 .645.174A41.891 41.891 0 0 1 28.6 46.172c.274-.04.463-.3.42-.577a68.48 68.48 0 0 1-.808-9.179.5.5 0 0 0-.499-.493H13.984a.501.501 0 0 0-.497.537A26.158 26.158 0 0 0 17.6 48.926zm43.467.53h-.042c-1.33-.012-2.62-.506-3.821-1.455-1.017-.803-1.924-1.915-2.627-3.217-.714-1.32-1.174-2.645-1.367-3.94-.235-1.583-.106-3.033.388-4.306.544-1.401 1.42-2.604 2.533-3.479a8.012 8.012 0 0 1 4.93-1.703c1.231 0 2.455.292 3.54.844a7.956 7.956 0 0 1 3.178 2.96 8.173 8.173 0 0 1 1.198 4.177v.063a9.766 9.766 0 0 1-.126 1.45c-.448 2.857-1.935 5.526-3.992 7.15-1.2.948-2.51 1.455-3.792 1.455zm-.065-15.378a5.05 5.05 0 0 0-2.497.65 5.311 5.311 0 0 0-2.147 2.275 5.593 5.593 0 0 0-.53 3.12c.117 1.011.493 2.178 1.03 3.188.565 1.063 1.255 1.983 2.04 2.577.757.57 1.454.84 2.145.84.102 0 .206-.006.309-.018.733-.08 1.588-.545 2.322-1.282.778-.78 1.42-1.757 1.907-2.907.457-1.081.69-2.141.695-3.146-.011-1.87-.985-3.611-2.537-4.542a5.322 5.322 0 0 0-2.737-.755zm19.953 14.786c-1.084.992-2.331 1.545-3.521 1.545-.128 0-.256-.006-.382-.018-1.36-.133-2.67-.849-3.695-2.006a10.13 10.13 0 0 1-2.088-3.752c-.46-1.545-.469-3.064-.02-4.391.906-2.683 3.386-4.486 6.172-4.486.347 0 .697.029 1.042.086a6.37 6.37 0 0 1 3.844 2.224 6.664 6.664 0 0 1 1.55 4.217l-.001.036c-.024 2.392-1.158 4.95-2.901 6.545zm-3.58-1.19c.304 0 .576-.058.813-.172.812-.39 1.519-1.115 2.096-2.17.566-1.034.865-2.092.872-3.049a3.88 3.88 0 0 0-.683-2.19 3.76 3.76 0 0 0-3.1-1.6c-.803 0-1.562.246-2.2.711a3.848 3.848 0 0 0-1.504 2.483c-.155.962.059 1.996.507 2.996.492 1.096 1.134 2.006 1.913 2.529.201.135.444.27.55.309.12.045.213.076.3.097.076.02.11.027.116.03.03.003.03.003.072.01a.79.79 0 0 1 .057.01 2.5 2.5 0 0 0 .191.007zm1.162 9.185c-.276.383-.69.613-1.137.613-.235 0-.463-.064-.67-.187a1.408 1.408 0 0 1-.646-.923 1.27 1.27 0 0 1 .203-1.007l.242-.336c.852-1.186 1.7-2.366 2.929-4.073l.48-.667c.364-.507.686-.763 1.282-.763a58.728 58.728 0 0 0 .656-.002c1.066 0 1.728.062 2.45.292a6.647 6.647 0 0 1 3.377 2.443A6.742 6.742 0 0 1 89 56.238v4.082c0 .753-.605 1.364-1.35 1.364H77.413c-.794 0-1.33-.621-1.33-1.364 0-.743.536-1.365 1.33-1.365H86.3v-2.547c0-.907-.185-1.641-.562-2.261-.528-.867-1.367-1.509-2.296-1.76-.408-.11-.845-.146-1.497-.146h-.085c-1.008 1.4-2.064 2.87-3.32 4.618zm-16.55-3.267l2.765-3.845c.26-.362.59-.554.984-.619a2.65 2.65 0 0 1 .48-.029h1.207c1.393 0 2.749.34 3.922.986 2.611 1.435 4.244 4.201 4.262 7.22v5.33a1.36 1.36 0 0 1-1.35 1.365H47.816c-.745 0-1.35-.612-1.35-1.364v-2.897c0-.239-.003-.439-.012-.878v-.013c-.012-.61-.015-.896-.01-1.249.007-.365.024-.696.055-1.012.297-3.017 2.148-5.622 4.834-6.797 1.078-.472 2.231-.69 3.616-.69h1.18c.56 0 .905.252 1.25.728l2.087 2.878 1.586 2.187.935-1.3zm10.919 7.679v-3.962c-.011-1.941-1.026-3.747-2.644-4.708a5.368 5.368 0 0 0-2.701-.772 100.728 100.728 0 0 0-.974-.001l-4.405 6.127c-.272.377-.683.602-1.125.602-.441 0-.851-.224-1.124-.6l-.086-.118-2.862-3.948-1.502-2.071a28.456 28.456 0 0 0-.557-.007c-.523 0-.925.025-1.295.098-1.221.24-2.285.84-3.08 1.738a5.536 5.536 0 0 0-1.336 2.89 6.888 6.888 0 0 0-.054.988c0 .104 0 .189.003.373v.004c.002.195.002.283.002.392v2.975h23.74z"></path>
  </symbol>
  <symbol xmlns="http://www.w3.org/2000/svg" viewBox="0 0 50 50" id="iphonex">
    <g transform="translate(-241 -155)">
      <rect width="50" height="50" rx="4" transform="translate(241 155)" fill="#fff"></rect>
      <path d="M266.476 192.165a1.8 1.8 0 1 0 1.771 1.8 1.785 1.785 0 0 0-1.771-1.8zm0 2.4a.6.6 0 1 1 .591-.6.6.6 0 0 1-.591.598zm-.591-29.359h1.182a.6.6 0 0 0 0-1.2h-1.182a.6.6 0 0 0 0 1.2zm9.449-3h-18.308a1.19 1.19 0 0 0-1.181 1.2v33.554a1.19 1.19 0 0 0 1.181 1.2h18.309a1.19 1.19 0 0 0 1.181-1.2v-33.554a1.189 1.189 0 0 0-1.182-1.198zm0 34.153a.6.6 0 0 1-.591.6h-17.126a.6.6 0 0 1-.591-.6v-32.354a.6.6 0 0 1 .591-.6h17.127a.6.6 0 0 1 .591.6v32.356z"
        fill="#5c617e" fill-rule="evenodd"></path>
      <path d="M272.974 165.803h-13.586a1.19 1.19 0 0 0-1.181 1.2v22.766a1.189 1.189 0 0 0 1.181 1.2h13.586a1.189 1.189 0 0 0 1.181-1.2v-22.767a1.19 1.19 0 0 0-1.181-1.199z" fill="#aeb1bf" fill-rule="evenodd" opacity=".1"></path>
      <path d="M270.769 175.706a2.681 2.681 0 0 0 .316 4.828c-.046.191-1.286 3.271-2.782 3.271-.8 0-1.094-.5-2.023-.5-1 0-1.28.5-2.043.5-1.249 0-3.269-2.651-3.269-5.557 0-2.223 1.344-3.764 3.1-3.764.813 0 1.534.553 2.03.553a15.983 15.983 0 0 1 2.367-.553 2.771 2.771 0 0 1 2.304 1.222zm-4.815-1.73a2.416 2.416 0 0 1 .626-1.889 2.649 2.649 0 0 1 1.872-.928 2.631 2.631 0 0 1-.695 1.93 2.1 2.1 0 0 1-1.803.887z"
        fill="#5c617e" opacity=".7"></path>
    </g>
  </symbol>
  <symbol xmlns="http://www.w3.org/2000/svg" viewBox="0 0 24 24" id="left-arrow-slider">
    <g fill="none">
      <path fill="#DCDCDC" d="M12 23c6.075 0 11-4.925 11-11S18.075 1 12 1 1 5.925 1 12s4.925 11 11 11zm0-1C6.477 22 2 17.523 2 12S6.477 2 12 2s10 4.477 10 10-4.477 10-10 10z"></path>
      <path fill="#5C617E" d="M10.776 12l4.008-3.807a.674.674 0 0 0 0-.988.764.764 0 0 0-1.04 0l-4.528 4.3a.674.674 0 0 0 0 .99l4.528 4.3a.764.764 0 0 0 1.04 0 .674.674 0 0 0 0-.988L10.776 12z"></path>
    </g>
  </symbol>
  <symbol xmlns="http://www.w3.org/2000/svg" viewBox="0 0 50 50" id="mac-pc">
    <g transform="translate(-241 -155)">
      <rect width="50" height="50" rx="4" transform="translate(241 155)" fill="#fff"></rect>
      <g transform="translate(246 160)">
        <g fill="#5c617e">
          <path d="M15.559 35.5l.888-8h7.106l.888 8z"></path>
          <path d="M23.1 28l.778 7h-7.761l.778-7H23.1m.9-1h-8l-1 9h10l-1-9z"></path>
        </g>
        <path d="M3 30.5A1.5 1.5 0 0 1 1.5 29V6A1.5 1.5 0 0 1 3 4.5h34A1.5 1.5 0 0 1 38.5 6v23a1.5 1.5 0 0 1-1.5 1.5z" fill="#fff"></path>
        <path d="M37 5a1 1 0 0 1 1 1v23a1 1 0 0 1-1 1H3a1 1 0 0 1-1-1V6a1 1 0 0 1 1-1h34m0-1H3a2 2 0 0 0-2 2v23a2 2 0 0 0 2 2h34a2 2 0 0 0 2-2V6a2 2 0 0 0-2-2z" fill="#5c617e"></path>
        <path d="M3 30.5A1.5 1.5 0 0 1 1.5 29v-3.5h37V29a1.5 1.5 0 0 1-1.5 1.5z" fill="#5c617e"></path>
        <path d="M38 26v3a1 1 0 0 1-1 1H3a1 1 0 0 1-1-1v-3h36m1-1H1v4a2 2 0 0 0 2 2h34a2 2 0 0 0 2-2v-4z" fill="none"></path>
        <path d="M24.89 12.751a2.741 2.741 0 0 0 .319 4.917c-.046.2-1.3 3.332-2.807 3.332-.812 0-1.1-.513-2.041-.513-1.008 0-1.292.513-2.062.513-1.26 0-3.3-2.7-3.3-5.66 0-2.264 1.356-3.834 3.126-3.834.82 0 1.548.563 2.049.563a16 16 0 0 1 2.389-.563 2.788 2.788 0 0 1 2.327 1.245zm-4.859-1.762a2.475 2.475 0 0 1 .632-1.924 2.664 2.664 0 0 1 1.889-.945 2.694 2.694 0 0 1-.7 1.966 2.116 2.116 0 0 1-1.821.903z"
          fill="#aeb1bf"></path>
        <path d="M27.5 35h-15a.5.5 0 0 0-.5.5.5.5 0 0 0 .5.5h15a.5.5 0 0 0 .5-.5.5.5 0 0 0-.5-.5z" fill="#5c617e"></path>
        <circle cx="1" cy="1" r="1" transform="translate(19 27)" fill="#fff"></circle>
      </g>
    </g>
  </symbol>
  <symbol xmlns="http://www.w3.org/2000/svg" viewBox="0 0 24 24" id="map-location">
    <path fill="#5B607E" d="M15.557 9.136c-.002 1.998-1.593 3.618-3.557 3.62-1.965 0-3.557-1.62-3.557-3.62S10.035 5.515 12 5.515c1.965 0 3.557 1.62 3.557 3.62zM12 7.286c-1.004 0-1.817.828-1.817 1.85 0 1.021.813 1.85 1.817 1.85s1.817-.829 1.817-1.85c0-1.022-.814-1.85-1.817-1.85zm.653 16.413A.873.873 0 0 1 12 24a.873.873 0 0 1-.653-.3 59.336 59.336 0 0 1-1.674-2.02 62.949 62.949 0 0 1-2.848-3.859C4.42 14.272 3 11.238 3 9.161 3 4.1 7.03 0 12 0s9 4.101 9 9.16c0 2.079-1.421 5.113-3.825 8.662a62.916 62.916 0 0 1-2.848 3.858 59.362 59.362 0 0 1-1.674 2.019zm-.656-21.984c-4.017.028-7.254 3.359-7.238 7.448 0 2.464 2.99 7.366 6.877 12.112.19.231.539.231.728 0 3.885-4.746 6.877-9.65 6.877-12.114.017-4.087-3.22-7.42-7.238-7.446h-.006z"></path>
  </symbol>
  <symbol xmlns="http://www.w3.org/2000/svg" viewBox="0 0 24 24" id="map-pin">
    <path fill="#7A7E95" d="M14.758 10.305c-.004 1.61-1.236 2.913-2.758 2.917-1.523 0-2.758-1.306-2.758-2.917 0-1.61 1.235-2.916 2.758-2.916s2.758 1.306 2.758 2.916zM12 8.965c-.7 0-1.267.6-1.267 1.34 0 .74.567 1.34 1.267 1.34s1.267-.6 1.267-1.34c-.001-.74-.568-1.338-1.267-1.34zM12 20a.634.634 0 0 1-.475-.218 39.363 39.363 0 0 1-1.107-1.334 41.593 41.593 0 0 1-1.884-2.55C6.942 13.55 6 11.543 6 10.162 6.05 6.714 8.733 3.956 11.997 4c3.27-.045 5.953 2.713 6.003 6.164 0 1.38-.942 3.389-2.534 5.737a41.402 41.402 0 0 1-1.884 2.549 38.32 38.32 0 0 1-1.107 1.331A.633.633 0 0 1 12 20zm4.733-9.84c-.04-2.728-2.157-4.905-4.733-4.872-2.576-.032-4.693 2.144-4.733 4.869 0 1.622 1.975 4.857 4.536 7.978.104.127.29.127.394 0 2.562-3.126 4.536-6.359 4.536-7.974z"></path>
  </symbol>
  <symbol xmlns="http://www.w3.org/2000/svg" viewBox="0 0 24 24" id="map-view">
    <path fill="#171E48" d="M11.336 16.725a.193.193 0 0 1-.268.245L8.98 15.926l-1.946 1.027a.193.193 0 0 1-.269-.244l2.1-5.09a.193.193 0 0 1 .357 0l2.114 5.106zM18.041 4A1.961 1.961 0 0 1 20 5.959v12.082A1.958 1.958 0 0 1 18.041 20H5.959A1.963 1.963 0 0 1 4 18.041V5.959A1.962 1.962 0 0 1 5.959 4h12.082zm-6.424.905H6.303L8.96 7.562l2.657-2.657zM4.905 5.959v5.658l3.413-3.413-3.045-3.045c-.234.2-.368.492-.368.8zm1.053 13.136h4.207l4.522-4.521-5.729-5.729-4.053 4.053v5.143c0 .581.472 1.053 1.053 1.054zm12.082 0l.003.001c.308 0 .6-.137.8-.372l-3.512-3.512-3.883 3.883h6.592zm-2.073-4.521l3.127 3.125v-6.12l-.066-.066-3.061 3.061zm-.641-.641l3.766-3.767V5.959c0-.582-.472-1.053-1.054-1.054h-5.153l-.226.239-3.061 3.061 5.728 5.728z"></path>
  </symbol>

   <symbol xmlns="http://www.w3.org/2000/svg" viewBox="0 0 24 24" id="map-view-active">
    <path fill="#2585d3" d="M11.336 16.725a.193.193 0 0 1-.268.245L8.98 15.926l-1.946 1.027a.193.193 0 0 1-.269-.244l2.1-5.09a.193.193 0 0 1 .357 0l2.114 5.106zM18.041 4A1.961 1.961 0 0 1 20 5.959v12.082A1.958 1.958 0 0 1 18.041 20H5.959A1.963 1.963 0 0 1 4 18.041V5.959A1.962 1.962 0 0 1 5.959 4h12.082zm-6.424.905H6.303L8.96 7.562l2.657-2.657zM4.905 5.959v5.658l3.413-3.413-3.045-3.045c-.234.2-.368.492-.368.8zm1.053 13.136h4.207l4.522-4.521-5.729-5.729-4.053 4.053v5.143c0 .581.472 1.053 1.053 1.054zm12.082 0l.003.001c.308 0 .6-.137.8-.372l-3.512-3.512-3.883 3.883h6.592zm-2.073-4.521l3.127 3.125v-6.12l-.066-.066-3.061 3.061zm-.641-.641l3.766-3.767V5.959c0-.582-.472-1.053-1.054-1.054h-5.153l-.226.239-3.061 3.061 5.728 5.728z"></path>
  </symbol>
  <symbol xmlns="http://www.w3.org/2000/svg" viewBox="0 0 24 24" id="map-view-fill">
    <path fill="#2585d3" d="M11.336 16.725a.193.193 0 0 1-.268.245L8.98 15.926l-1.946 1.027a.193.193 0 0 1-.269-.244l2.1-5.09a.193.193 0 0 1 .357 0l2.114 5.106zM18.041 4A1.961 1.961 0 0 1 20 5.959v12.082A1.958 1.958 0 0 1 18.041 20H5.959A1.963 1.963 0 0 1 4 18.041V5.959A1.962 1.962 0 0 1 5.959 4h12.082zm-6.424.905H6.303L8.96 7.562l2.657-2.657zM4.905 5.959v5.658l3.413-3.413-3.045-3.045c-.234.2-.368.492-.368.8zm1.053 13.136h4.207l4.522-4.521-5.729-5.729-4.053 4.053v5.143c0 .581.472 1.053 1.053 1.054zm12.082 0l.003.001c.308 0 .6-.137.8-.372l-3.512-3.512-3.883 3.883h6.592zm-2.073-4.521l3.127 3.125v-6.12l-.066-.066-3.061 3.061zm-.641-.641l3.766-3.767V5.959c0-.582-.472-1.053-1.054-1.054h-5.153l-.226.239-3.061 3.061 5.728 5.728z"></path>
  </symbol>
  <symbol xmlns="http://www.w3.org/2000/svg" viewBox="0 0 24 24" id="map-view-white">
    <path fill="#FFF" d="M14.758 10.305c-.004 1.61-1.236 2.913-2.758 2.917-1.523 0-2.758-1.306-2.758-2.917 0-1.61 1.235-2.916 2.758-2.916s2.758 1.306 2.758 2.916zM12 8.965c-.7 0-1.267.6-1.267 1.34 0 .74.567 1.34 1.267 1.34s1.267-.6 1.267-1.34c-.001-.74-.568-1.338-1.267-1.34zM12 20a.634.634 0 0 1-.475-.218 39.363 39.363 0 0 1-1.107-1.334 41.593 41.593 0 0 1-1.884-2.55C6.942 13.55 6 11.543 6 10.162 6.05 6.714 8.733 3.956 11.997 4c3.27-.045 5.953 2.713 6.003 6.164 0 1.38-.942 3.389-2.534 5.737a41.402 41.402 0 0 1-1.884 2.549 38.32 38.32 0 0 1-1.107 1.331A.633.633 0 0 1 12 20zm4.733-9.84c-.04-2.728-2.157-4.905-4.733-4.872-2.576-.032-4.693 2.144-4.733 4.869 0 1.622 1.975 4.857 4.536 7.978.104.127.29.127.394 0 2.562-3.126 4.536-6.359 4.536-7.974z"></path>
  </symbol>
  <symbol xmlns="http://www.w3.org/2000/svg" viewBox="0 0 16 16" id="next">
    <path fill="#FFF" d="M7.505 8l-4.324 4.822a.748.748 0 0 0 0 .976c.242.27.634.27.876 0l4.762-5.31a.748.748 0 0 0 0-.976l-4.762-5.31a.575.575 0 0 0-.876 0 .748.748 0 0 0 0 .976L7.505 8zm4 0l-4.324 4.822a.748.748 0 0 0 0 .976c.242.27.634.27.876 0l4.762-5.31a.748.748 0 0 0 0-.976l-4.762-5.31a.575.575 0 0 0-.876 0 .748.748 0 0 0 0 .976L11.505 8z"></path>
  </symbol>
  <symbol xmlns="http://www.w3.org/2000/svg" viewBox="0 0 24 24" id="password">
    <path fill="#5B607E" d="M20 10.692V22H4V10.692h2.458a.257.257 0 0 0 .258-.257V7.596C6.716 4.51 9.133 2 12.056 2c2.937 0 5.333 2.523 5.228 5.587v2.848c0 .142.116.257.258.257H20zm-7.945-7.293c-2.143 0-3.886 1.769-3.968 3.977a.254.254 0 0 0-.058.162v2.84c0 .141.115.256.258.256h7.482a.257.257 0 0 0 .258-.256v-2.84c0-2.283-1.775-4.139-3.972-4.139zm6.688 16.945v-7.996a.257.257 0 0 0-.258-.257H5.626a.257.257 0 0 0-.258.257v7.996c0 .142.116.257.258.257h12.859a.257.257 0 0 0 .258-.257z"
      fill-rule="evenodd"></path>
  </symbol>
  <symbol xmlns="http://www.w3.org/2000/svg" viewBox="0 0 24 24" id="popup-collapse">
    <path fill="#2585d3" d="M2 12C2 6.477 6.477 2 12 2s10 4.477 10 10-4.477 10-10 10S2 17.523 2 12zm1.538 0a8.462 8.462 0 1 0 16.924 0 8.462 8.462 0 0 0-16.924 0zm4.81-2.76L12 13.025l3.652-3.785a.77.77 0 0 1 1.117 0 .84.84 0 0 1 0 1.157l-4.21 4.363a.77.77 0 0 1-1.117 0l-4.21-4.363a.84.84 0 0 1 0-1.157.77.77 0 0 1 1.116 0z"></path>
  </symbol>
   <symbol xmlns="http://www.w3.org/2000/svg" viewBox="0 0 14.828 8.414" id="chevron-down">
    <path d="M1.414 1.414l6 6 6-6" fill="none" stroke="#171e48" stroke-linecap="round" stroke-linejoin="round" stroke-width="2"></path>
  </symbol>
  <symbol xmlns="http://www.w3.org/2000/svg" viewBox="0 0 14.828 8.414" id="chevron-up">
    <path d="M1.414 1.414l6 6 6-6" fill="none" stroke="#171e48" stroke-linecap="round" stroke-linejoin="round" stroke-width="2"></path>
  </symbol>
  <symbol xmlns="http://www.w3.org/2000/svg" viewBox="0 0 24 24" id="popup-expand">
    <path fill="#5B607D" d="M12 22C6.477 22 2 17.523 2 12S6.477 2 12 2s10 4.477 10 10-4.477 10-10 10zm0-1.538a8.462 8.462 0 1 0 0-16.924 8.462 8.462 0 0 0 0 16.924zm-2.76-4.81L13.025 12 9.24 8.348a.77.77 0 0 1 0-1.117.84.84 0 0 1 1.157 0l4.363 4.21a.77.77 0 0 1 0 1.117l-4.363 4.21a.84.84 0 0 1-1.157 0 .77.77 0 0 1 0-1.116z"></path>
  </symbol>
  <symbol xmlns="http://www.w3.org/2000/svg" viewBox="0 0 16 16" id="previous">
    <path fill="#2585d3" d="M8.495 8l4.324 4.822a.748.748 0 0 1 0 .976.575.575 0 0 1-.876 0l-4.762-5.31a.748.748 0 0 1 0-.976l4.762-5.31a.575.575 0 0 1 .876 0 .748.748 0 0 1 0 .976L8.495 8zm-4 0l4.324 4.822a.748.748 0 0 1 0 .976.575.575 0 0 1-.876 0l-4.762-5.31a.748.748 0 0 1 0-.976l4.762-5.31a.575.575 0 0 1 .876 0 .748.748 0 0 1 0 .976L4.495 8z"></path>
  </symbol>
  <symbol xmlns="http://www.w3.org/2000/svg" viewBox="0 0 16 16" id="project">
    <path fill="#40476C" d="M3.34 0h9.32A3.34 3.34 0 0 1 16 3.34v9.32A3.34 3.34 0 0 1 12.66 16H3.34A3.34 3.34 0 0 1 0 12.66V3.34A3.34 3.34 0 0 1 3.34 0zm0 1A2.34 2.34 0 0 0 1 3.34v9.32A2.34 2.34 0 0 0 3.34 15h9.32A2.34 2.34 0 0 0 15 12.66V3.34A2.34 2.34 0 0 0 12.66 1H3.34zM4.5 5.272a.6.6 0 1 1 0-1.2h8a.6.6 0 0 1 0 1.2h-8zm0 3.191a.6.6 0 1 1 0-1.2h8a.6.6 0 0 1 0 1.2h-8zm0 3.193a.6.6 0 0 1 0-1.2h8a.6.6 0 0 1 0 1.2h-8z"></path>
  </symbol>
  <symbol xmlns="http://www.w3.org/2000/svg" viewBox="0 0 24 24" id="read-tick-blue">
    <path fill="#2585d3" d="M12 0c6.624.008 11.992 5.376 12 12 0 6.627-5.373 12-12 12S0 18.627 0 12 5.373 0 12 0zm0 22.066c5.557-.006 10.06-4.51 10.066-10.066A10.066 10.066 0 1 0 12 22.066zm4.342-13.79a.994.994 0 0 1 1.375.001.921.921 0 0 1 0 1.331l-6.313 6.117a.992.992 0 0 1-1.373 0l-2.745-2.661a.92.92 0 0 1 0-1.331.992.992 0 0 1 1.373 0l2.057 1.995 5.626-5.452z"></path>
  </symbol>
  <symbol xmlns="http://www.w3.org/2000/svg" viewBox="0 0 24 24" id="reload-refresh">
    <path fill="#5B607E" d="M20.982 11.654a1.14 1.14 0 0 1 1.003 1.32 10.17 10.17 0 0 1-2.882 6.028 9.944 9.944 0 0 1-14.234 0 2.572 2.572 0 0 1-.382-.42l-.029.63a1.2 1.2 0 0 1-1.176 1.14h-.06a1.2 1.2 0 0 1-1.117-1.26l.203-4.68 4.44.06a1.2 1.2 0 0 1 0 2.4h-.587c.129.158.266.308.412.45a7.633 7.633 0 0 0 10.91 0 7.818 7.818 0 0 0 2.206-4.618 1.15 1.15 0 0 1 1.293-1.05zm-17.97.619a1.185 1.185 0 0 1-.999-1.351 10.384 10.384 0 0 1 2.823-5.908 9.943 9.943 0 0 1 14.262 0c.147.15.235.27.353.39l.029-.66a1.178 1.178 0 1 1 2.352.12l-.206 4.679-4.381-.03a1.2 1.2 0 0 1 0-2.4h.558a7.633 7.633 0 0 0-11.263-.39 7.932 7.932 0 0 0-2.204 4.5 1.208 1.208 0 0 1-1.177 1.05h-.147z"></path>
  </symbol>
  <symbol xmlns="http://www.w3.org/2000/svg" viewBox="0 0 16 16" id="remove-delete">
    <path fill="#FF3722" d="M7.15 7.15l-5.776 5.774 1.702 1.702L8.85 8.85a1.2 1.2 0 0 0 0-1.702 1.203 1.203 0 0 0-1.702 0l-5.775 5.775c-1.134 1.135.567 2.836 1.702 1.702L8.85 8.85a1.2 1.2 0 0 0 0-1.702L3.076 1.374C1.94.24.24 1.941 1.374 3.076L7.15 8.85c.47.47 1.232.47 1.702 0l5.775-5.775C15.76 1.94 14.059.24 12.924 1.374L7.15 7.15c-.47.47-.47 1.232 0 1.702l5.775 5.775a1.203 1.203 0 0 0 1.702-1.702L8.85 7.15v1.702l5.775-5.775-1.702-1.702L7.15 7.15h1.702L3.076 1.374 1.374 3.076 7.15 8.85V7.149z"></path>
  </symbol>
    <symbol xmlns="http://www.w3.org/2000/svg" viewBox="0 0 16 16" id="remove-delete-white">
    <path fill="#FFF" d="M7.15 7.15l-5.776 5.774 1.702 1.702L8.85 8.85a1.2 1.2 0 0 0 0-1.702 1.203 1.203 0 0 0-1.702 0l-5.775 5.775c-1.134 1.135.567 2.836 1.702 1.702L8.85 8.85a1.2 1.2 0 0 0 0-1.702L3.076 1.374C1.94.24.24 1.941 1.374 3.076L7.15 8.85c.47.47 1.232.47 1.702 0l5.775-5.775C15.76 1.94 14.059.24 12.924 1.374L7.15 7.15c-.47.47-.47 1.232 0 1.702l5.775 5.775a1.203 1.203 0 0 0 1.702-1.702L8.85 7.15v1.702l5.775-5.775-1.702-1.702L7.15 7.15h1.702L3.076 1.374 1.374 3.076 7.15 8.85V7.149z"></path>
  </symbol>
  <symbol xmlns="http://www.w3.org/2000/svg" viewBox="0 0 24 24" id="rename">
    <path fill="#171E48" d="M18.646 7.215c.311.31.43.765.31 1.188v.084l-.005.014-.005.014-.005.014-.006.014-.006.013-.006.013-.006.014-.006.013-.006.013-.007.013-.007.013-.007.013-.007.013-.007.013-.007.013-.007.013-.008.013-.008.012-.008.012-.008.012-.009.012-.009.012-.009.012-.039.016-.009.012-.01.012-.01.012-.01.012-.01.012-.01.012-.01.012-.01.01-.011.012-.011.01-.011.012-9.508 9.492L5 19l.541-4.142c2.1-2.092 7.423-7.414 9.521-9.506a1.222 1.222 0 0 1 1.718 0l1.866 1.858v.004zm-2.62 2.625l-1.878-1.872-7.468 7.459-.283 2.169 2.171-.306 7.459-7.45h-.001zm-1.025-2.723l1.878 1.872.914-.911a.013.013 0 0 0 0-.014l-1.864-1.858a.01.01 0 0 0-.014 0l-.914.91z"></path>
  </symbol>
  <symbol xmlns="http://www.w3.org/2000/svg" viewBox="0 0 24 24" id="right-arrow-slider">
    <g fill="none">
      <path fill="#DCDCDC" d="M12 23C5.925 23 1 18.075 1 12S5.925 1 12 1s11 4.925 11 11-4.925 11-11 11zm0-1c5.523 0 10-4.477 10-10S17.523 2 12 2 2 6.477 2 12s4.477 10 10 10z"></path>
      <path fill="#5C617E" d="M13.224 12L9.216 8.193a.674.674 0 0 1 0-.988.764.764 0 0 1 1.04 0l4.528 4.3a.674.674 0 0 1 0 .99l-4.528 4.3a.764.764 0 0 1-1.04 0 .674.674 0 0 1 0-.988L13.224 12z"></path>
    </g>
  </symbol>
  <symbol xmlns="http://www.w3.org/2000/svg" viewBox="0 0 16 16" id="search">
    <path fill="#5C617E" d="M15.783 14.616l-2.986-2.955c2.266-2.822 2.053-6.975-.533-9.558A7.103 7.103 0 0 0 7.198 0c-1.92 0-3.732.745-5.092 2.103A7.098 7.098 0 0 0 0 7.188c0 1.943.747 3.727 2.106 5.085 1.36 1.331 3.146 2.103 5.092 2.103a7.174 7.174 0 0 0 4.48-1.57l2.959 2.954c.16.16.346.24.56.24.213 0 .426-.08.56-.24.32-.32.32-.825.026-1.144zm-2.986-7.428a5.47 5.47 0 0 1-1.653 3.94c-1.066 1.038-2.453 1.65-3.946 1.65a5.486 5.486 0 0 1-3.945-1.65C2.213 10.063 1.6 8.678 1.6 7.188a5.47 5.47 0 0 1 1.653-3.94c1.066-1.038 2.426-1.65 3.945-1.65 1.493 0 2.906.585 3.946 1.65s1.653 2.423 1.653 3.94z"
      fill-rule="evenodd"></path>
  </symbol>
  <symbol xmlns="http://www.w3.org/2000/svg" viewBox="0 0 16 16" id="start-processing">
    <g fill="none">
      <path fill="#FFF" d="M3 14.804V1.196l1.53.956 8 5L13.887 8l-1.357.848-8 5z"></path>
      <path fill="#2585d3" d="M12 8L4 3v10l8-5zm2 0a2 2 0 0 1-.94 1.696l-8 5A2 2 0 0 1 2 13V3a2 2 0 0 1 3.06-1.696l8 5A2 2 0 0 1 14 8z"></path>
    </g>
  </symbol>
  <symbol xmlns="http://www.w3.org/2000/svg" viewBox="0 0 24 24" id="tags">
    <path fill="#6E748F" d="M9.795 18.53L5.47 14.206a1.626 1.626 0 0 1-.004-2.282l6.396-6.446A1.618 1.618 0 0 1 13.008 5h4.377C18.27 5 19 5.73 19 6.615v4.377c0 .431-.173.843-.477 1.147l-6.447 6.395c-.313.31-.726.466-1.139.466a1.61 1.61 0 0 1-1.142-.47zm2.83-12.293L6.23 12.683a.528.528 0 0 0 .002.76l4.325 4.325a.53.53 0 0 0 .76.002l6.447-6.395a.54.54 0 0 0 .16-.383V6.615a.53.53 0 0 0-.538-.538h-4.377a.533.533 0 0 0-.383.16zm1.653 2.532a.95.95 0 1 1 1.902 0 .95.95 0 0 1-1.902 0z"
      fill-rule="evenodd"></path>
  </symbol>
  <symbol xmlns="http://www.w3.org/2000/svg" viewBox="0 0 48 48" id="tags-with-bg">
    <g fill="none" fill-rule="evenodd">
      <path fill="#F4F7FC" d="M7 37.929V10.07a1.061 1.061 0 0 1 .314-.757A1.061 1.061 0 0 1 8.07 9H26a14.964 14.964 0 0 1 5.74 1.142 14.964 14.964 0 0 1 4.867 3.251 14.964 14.964 0 0 1 3.251 4.867A14.964 14.964 0 0 1 41 24a14.964 14.964 0 0 1-1.142 5.74 14.964 14.964 0 0 1-3.251 4.867 14.964 14.964 0 0 1-4.867 3.251A14.964 14.964 0 0 1 26 39H8.071a1.061 1.061 0 0 1-.757-.314A1.061 1.061 0 0 1 7 37.93z"></path>
      <path fill="#171E48" fill-opacity=".102" fill-rule="nonzero" d="M7 37.71V10.29c0-.35.13-.664.378-.912S7.94 9 8.291 9H26a14.965 14.965 0 0 1 5.74 1.142 14.965 14.965 0 0 1 4.867 3.251 14.965 14.965 0 0 1 3.251 4.867A14.965 14.965 0 0 1 41 24a14.965 14.965 0 0 1-1.142 5.74 14.965 14.965 0 0 1-3.251 4.867 14.965 14.965 0 0 1-4.867 3.251A14.965 14.965 0 0 1 26 39H8.29c-.35 0-.664-.13-.912-.378A1.262 1.262 0 0 1 7 37.709zm1 0c0 .085.025.144.085.205.06.06.12.085.206.085H26a13.965 13.965 0 0 0 5.358-1.066 13.965 13.965 0 0 0 4.541-3.035 13.965 13.965 0 0 0 3.035-4.541A13.965 13.965 0 0 0 40 24a13.965 13.965 0 0 0-1.066-5.358 13.965 13.965 0 0 0-3.035-4.541 13.965 13.965 0 0 0-4.541-3.035A13.965 13.965 0 0 0 26 10H8.29a.264.264 0 0 0-.205.085.264.264 0 0 0-.085.206v27.418z"></path>
      <path fill="#6E748F" d="M20.795 30.53l-4.326-4.325a1.626 1.626 0 0 1-.004-2.282l6.396-6.446A1.618 1.618 0 0 1 24.008 17h4.377c.885 0 1.615.73 1.615 1.615v4.377c0 .431-.173.843-.477 1.147l-6.447 6.395c-.313.31-.726.466-1.139.466a1.61 1.61 0 0 1-1.142-.47zm2.83-12.293l-6.396 6.446a.528.528 0 0 0 .002.76l4.325 4.326a.53.53 0 0 0 .76.001l6.447-6.395a.54.54 0 0 0 .16-.383v-4.377a.53.53 0 0 0-.538-.538h-4.377a.533.533 0 0 0-.383.16zm1.653 2.532a.95.95 0 1 1 1.902 0 .95.95 0 0 1-1.902 0z"></path>
    </g>
  </symbol>
  <symbol xmlns="http://www.w3.org/2000/svg" viewBox="0 0 24 24" id="tick">
    <path fill="#2585d3" d="M18.046 7.332l-8.068 7.935-4.025-3.972a1.152 1.152 0 0 0-1.618 0 1.108 1.108 0 0 0-.335.8c0 .305.122.595.335.8l4.835 4.772a1.151 1.151 0 0 0 1.618 0l8.877-8.735a1.11 1.11 0 0 0 .334-.8 1.11 1.11 0 0 0-.334-.8 1.154 1.154 0 0 0-1.619 0z"></path>
  </symbol>
  <symbol xmlns="http://www.w3.org/2000/svg" viewBox="0 0 24 24" id="tick-grey">
    <path fill="#C7CAD7" d="M12 0c6.624.008 11.992 5.376 12 12 0 6.627-5.373 12-12 12S0 18.627 0 12 5.373 0 12 0zm0 22.066c5.557-.006 10.06-4.51 10.066-10.066A10.066 10.066 0 1 0 12 22.066zm4.342-13.79a.994.994 0 0 1 1.375.001.921.921 0 0 1 0 1.331l-6.313 6.117a.992.992 0 0 1-1.373 0l-2.745-2.661a.92.92 0 0 1 0-1.331.992.992 0 0 1 1.373 0l2.057 1.995 5.626-5.452z"></path>
  </symbol>
  <symbol xmlns="http://www.w3.org/2000/svg" viewBox="0 0 16 16" id="tick-white-small">
    <path stroke="#FFF" stroke-linecap="round" stroke-linejoin="round" stroke-width="3" d="M2 8.421L5.675 12 14 4" fill="none" fill-rule="evenodd"></path>
  </symbol>
  <symbol xmlns="http://www.w3.org/2000/svg" viewBox="0 0 14.828 8.414" id="chevrin-up">
    <path d="M1.414 7l6-6 6 6" fill="none" stroke="#171e48" stroke-linecap="round" stroke-linejoin="round" stroke-width="2"></path>
  </symbol>
  <symbol xmlns="http://www.w3.org/2000/svg" viewBox="0 0 24 24" id="transfer">
    <path fill="#171E48" stroke="#171E48" stroke-linecap="round" stroke-linejoin="round" stroke-width=".5" d="M21 9.803a.305.305 0 0 0-.1-.187l-5.01-4.53a.332.332 0 0 0-.362-.055.307.307 0 0 0-.18.306l.187 2.413-3.53-.006c-.183 0-.33.138-.33.309 0 .17.147.309.33.309l3.871.006a.328.328 0 0 0 .235-.093.302.302 0 0 0 .087-.232l-.147-1.96 4.18 3.777-3.936 3.99.033-1.705a.302.302 0 0 0-.094-.225.328.328 0 0 0-.234-.093l-7.568.084-.188-2.452a.31.31 0 0 0-.212-.272.33.33 0 0 0-.344.079l-4.6 4.684a.3.3 0 0 0 .013.438l5.01 4.53a.331.331 0 0 0 .35.05.308.308 0 0 0 .185-.288l-.067-2.316 3.67-.11c.183-.003.328-.144.325-.314-.004-.17-.155-.307-.338-.303l-4 .116c-.177.01-.314.15-.308.315l.06 1.898-4.22-3.816 3.885-3.95.154 2.053c.013.159.157.282.328.28l7.542-.084-.047 2.187a.308.308 0 0 0 .2.293.33.33 0 0 0 .356-.074l4.722-4.807a.301.301 0 0 0 .087-.251l.005.006z"></path>
  </symbol>
  <symbol xmlns="http://www.w3.org/2000/svg" viewBox="0 0 24 24" id="upload">
    <path fill="#454A6C" d="M18.892 6.996A5.365 5.365 0 0 1 23 12.09a5.128 5.128 0 0 1-1.477 3.57 5.546 5.546 0 0 1-3.628 1.685h-3.4a.576.576 0 1 1 0-1.149h3.334a4.247 4.247 0 0 0 3.955-4.11 4.189 4.189 0 0 0-3.533-4.068.59.59 0 0 1-.507-.51 5.016 5.016 0 0 0-5.126-4.375 5.2 5.2 0 0 0-4.66 2.78.629.629 0 0 1-.765.293 2.354 2.354 0 0 0-.774-.128A2.206 2.206 0 0 0 4.152 8.21c-.002.25.045.5.136.732a.563.563 0 0 1-.267.7 3.378 3.378 0 0 0-1.8 2.936 3.711 3.711 0 0 0 3.407 3.626H9.5a.576.576 0 1 1 0 1.15H5.573a4.809 4.809 0 0 1-3.257-1.54A4.72 4.72 0 0 1 1 12.583a4.486 4.486 0 0 1 2-3.682 3.283 3.283 0 0 1 3.415-3.966c.225.001.449.021.67.06a6.141 6.141 0 0 1 2.067-2.039 6.688 6.688 0 0 1 7.754.613 5.882 5.882 0 0 1 1.986 3.426zm-2.645 5.154a.7.7 0 0 1-.996.004l-2.541-2.54v11.68a.707.707 0 1 1-1.415 0V9.608L8.754 12.15a.69.69 0 0 1-.5.21.71.71 0 0 1-.5-1.21L11.5 7.403a.694.694 0 0 1 .5-.21.716.716 0 0 1 .5.21l3.747 3.747a.705.705 0 0 1 0 1z"></path>
  </symbol>
  <symbol xmlns="http://www.w3.org/2000/svg" viewBox="0 0 24 24" id="upload-grey">
    <path fill="#868aa2" d="M18.892 6.996A5.365 5.365 0 0 1 23 12.09a5.128 5.128 0 0 1-1.477 3.57 5.546 5.546 0 0 1-3.628 1.685h-3.4a.576.576 0 1 1 0-1.149h3.334a4.247 4.247 0 0 0 3.955-4.11 4.189 4.189 0 0 0-3.533-4.068.59.59 0 0 1-.507-.51 5.016 5.016 0 0 0-5.126-4.375 5.2 5.2 0 0 0-4.66 2.78.629.629 0 0 1-.765.293 2.354 2.354 0 0 0-.774-.128A2.206 2.206 0 0 0 4.152 8.21c-.002.25.045.5.136.732a.563.563 0 0 1-.267.7 3.378 3.378 0 0 0-1.8 2.936 3.711 3.711 0 0 0 3.407 3.626H9.5a.576.576 0 1 1 0 1.15H5.573a4.809 4.809 0 0 1-3.257-1.54A4.72 4.72 0 0 1 1 12.583a4.486 4.486 0 0 1 2-3.682 3.283 3.283 0 0 1 3.415-3.966c.225.001.449.021.67.06a6.141 6.141 0 0 1 2.067-2.039 6.688 6.688 0 0 1 7.754.613 5.882 5.882 0 0 1 1.986 3.426zm-2.645 5.154a.7.7 0 0 1-.996.004l-2.541-2.54v11.68a.707.707 0 1 1-1.415 0V9.608L8.754 12.15a.69.69 0 0 1-.5.21.71.71 0 0 1-.5-1.21L11.5 7.403a.694.694 0 0 1 .5-.21.716.716 0 0 1 .5.21l3.747 3.747a.705.705 0 0 1 0 1z"></path>
  </symbol>
  <symbol xmlns="http://www.w3.org/2000/svg" viewBox="0 0 48 48" id="upload-48px">
    <path fill="#878BA1" d="M36.531 15.36A9.989 9.989 0 0 1 44 24.913a9.76 9.76 0 0 1-2.679 6.702 9.96 9.96 0 0 1-6.6 3.157h-6.185a1.077 1.077 0 1 1 0-2.152h6.061a7.856 7.856 0 0 0 7.181-7.7 7.777 7.777 0 0 0-6.424-7.621 1.09 1.09 0 0 1-.921-.957 9.211 9.211 0 0 0-9.319-8.2 9.424 9.424 0 0 0-8.472 5.206 1.129 1.129 0 0 1-1.39.55 4.166 4.166 0 0 0-1.407-.24 4.066 4.066 0 0 0-4.121 3.995 3.8 3.8 0 0 0 .247 1.37 1.069 1.069 0 0 1-.485 1.308 6.355 6.355 0 0 0-3.265 5.5 6.868 6.868 0 0 0 6.194 6.792h7.041a1.077 1.077 0 1 1 0 2.152h-7.14a8.642 8.642 0 0 1-5.922-2.886A8.986 8.986 0 0 1 4 25.837a8.473 8.473 0 0 1 3.632-6.896 6.519 6.519 0 0 1-.132-1.276 6.255 6.255 0 0 1 6.344-6.147c.408 0 .815.038 1.217.112a11.337 11.337 0 0 1 3.759-3.835 11.873 11.873 0 0 1 14.1 1.148 11.1 11.1 0 0 1 3.611 6.418zm-5.919 11.312a1.088 1.088 0 0 1-1.552 0l-3.957-3.957V40.9a1.1 1.1 0 0 1-2.2 0V22.716l-3.957 3.957a1.076 1.076 0 0 1-.775.326 1.106 1.106 0 0 1-.775-1.885l5.833-5.833a1.08 1.08 0 0 1 .775-.326c.291.003.57.12.775.326l5.833 5.833a1.1 1.1 0 0 1 0 1.558z"></path>
  </symbol>
  <symbol xmlns="http://www.w3.org/2000/svg" viewBox="0 0 24 24" id="upload-active">
    <path fill="#2585d3" d="M18.892 6.996A5.365 5.365 0 0 1 23 12.09a5.128 5.128 0 0 1-1.477 3.57 5.546 5.546 0 0 1-3.628 1.685h-3.4a.576.576 0 1 1 0-1.149h3.334a4.247 4.247 0 0 0 3.955-4.11 4.189 4.189 0 0 0-3.533-4.068.59.59 0 0 1-.507-.51 5.016 5.016 0 0 0-5.126-4.375 5.2 5.2 0 0 0-4.66 2.78.629.629 0 0 1-.765.293 2.354 2.354 0 0 0-.774-.128A2.206 2.206 0 0 0 4.152 8.21c-.002.25.045.5.136.732a.563.563 0 0 1-.267.7 3.378 3.378 0 0 0-1.8 2.936 3.711 3.711 0 0 0 3.407 3.626H9.5a.576.576 0 1 1 0 1.15H5.573a4.809 4.809 0 0 1-3.257-1.54A4.72 4.72 0 0 1 1 12.583a4.486 4.486 0 0 1 2-3.682 3.283 3.283 0 0 1 3.415-3.966c.225.001.449.021.67.06a6.141 6.141 0 0 1 2.067-2.039 6.688 6.688 0 0 1 7.754.613 5.882 5.882 0 0 1 1.986 3.426zm-2.645 5.154a.7.7 0 0 1-.996.004l-2.541-2.54v11.68a.707.707 0 1 1-1.415 0V9.608L8.754 12.15a.69.69 0 0 1-.5.21.71.71 0 0 1-.5-1.21L11.5 7.403a.694.694 0 0 1 .5-.21.716.716 0 0 1 .5.21l3.747 3.747a.705.705 0 0 1 0 1z"
      stroke="#2585d3"></path>
  </symbol>
  <symbol xmlns="http://www.w3.org/2000/svg" viewBox="0 0 16 16" id="upload-icon">
    <path fill="#171E48" d="M15.001 10.714v3.491c0 .066-.008.13-.022.195a.691.691 0 0 1-.648.6H1.667a.7.7 0 0 1-.657-.665.66.66 0 0 1-.009-.135v-3.49a.71.71 0 0 1 .661-.746c.18.002.35.082.467.218a.8.8 0 0 1 .194.526v2.796h11.36v-2.796a.71.71 0 0 1 .661-.745c.18.002.35.082.467.218.123.15.19.339.19.533zm-3.539-5.789c.269.367.271.864.007 1.233a.613.613 0 0 1-.992 0L8.705 3.957v8.061a.973.973 0 0 1-.2.615.653.653 0 0 1-.5.254.8.8 0 0 1-.7-.87V3.956L5.533 6.157a.613.613 0 0 1-.992 0 1.031 1.031 0 0 1 0-1.232l2.953-3.66.016-.02a.646.646 0 0 1 .388-.243h.104a.353.353 0 0 1 .072 0h.036a.657.657 0 0 1 .404.263l2.948 3.66z"></path>
  </symbol>
  <symbol xmlns="http://www.w3.org/2000/svg" viewBox="0 0 48 48" id="user-login">
    <path fill="#848AA1" d="M37.764 33.57l-8.047-4.407c3.002-2.33 3.832-6.863 3.832-9.444v-5.29c0-3.525-4.727-7.429-9.517-7.429-4.79 0-9.645 3.904-9.645 7.43v5.289c0 2.33 1.022 7.051 4.024 9.381l-8.24 4.407S8 34.452 8 35.648v3.211C8 40.056 8.958 41 10.172 41h27.656C39.042 41 40 40.056 40 38.86v-3.212c-.064-1.196-2.236-2.078-2.236-2.078zm-.383 4.911H10.555v-2.266c.192-.126.447-.315.639-.378.063 0 .127-.063.191-.063l8.24-4.407a2.422 2.422 0 0 0 1.341-2.015 2.545 2.545 0 0 0-.958-2.204c-2.172-1.7-3.066-5.415-3.066-7.43V14.43c0-1.826 3.45-4.911 7.09-4.911 3.705 0 6.962 3.085 6.962 4.91v5.29c0 1.951-.639 5.73-2.81 7.43-.703.503-1.022 1.321-.958 2.203.063.818.574 1.574 1.34 2.015l8.049 4.407c.064.063.191.063.255.126.192.063.447.189.575.315v2.266h-.064z"
      fill-rule="evenodd"></path>
  </symbol>
  <symbol xmlns="http://www.w3.org/2000/svg" viewBox="0 0 24 24" id="view-details">
    <path fill="#171E48" d="M11.998 8.001a3.551 3.551 0 0 1 3.6 3.5 3.5 3.5 0 1 1-3.6-3.5zm0 5.831a2.367 2.367 0 0 0 2.4-2.331 2.334 2.334 0 1 0-2.4 2.331zm9.385-3.92l.002-.001c.823.9.823 2.278 0 3.177C19.66 14.927 16.15 18 12.001 18c-4.148 0-7.659-3.073-9.383-4.911a2.35 2.35 0 0 1 0-3.177C4.342 8.073 7.854 5 12.001 5c4.147 0 7.658 3.073 9.382 4.912zm-.782 2.34a1.112 1.112 0 0 0 0-1.5c-1.605-1.707-4.85-4.567-8.6-4.567-3.749 0-7 2.86-8.6 4.567a1.115 1.115 0 0 0 0 1.5c1.606 1.706 4.851 4.567 8.6 4.567 3.75 0 7-2.86 8.6-4.567z"></path>
  </symbol>
  <symbol xmlns="http://www.w3.org/2000/svg" viewBox="0 0 24 24" id="write-tick-green">
    <path fill="#08AA4F" d="M12 0c6.624.008 11.992 5.376 12 12 0 6.627-5.373 12-12 12S0 18.627 0 12 5.373 0 12 0zm0 22.066c5.557-.006 10.06-4.51 10.066-10.066A10.066 10.066 0 1 0 12 22.066zm4.342-13.79a.994.994 0 0 1 1.375.001.921.921 0 0 1 0 1.331l-6.313 6.117a.992.992 0 0 1-1.373 0l-2.745-2.661a.92.92 0 0 1 0-1.331.992.992 0 0 1 1.373 0l2.057 1.995 5.626-5.452z"></path>
  </symbol>
</svg>