<svg xmlns="http://www.w3.org/2000/svg" width="15" height="15" viewBox="0 0 15 15">
    <defs>
        <style>
            .cls-1{fill:#2585d3}
        </style>
    </defs>
    <g id="Group_965" data-name="Group 965" transform="translate(-3002.211 -712.27)">
        <path id="Path_1764" d="M3042.948 815.727l-2.114-5.106a.193.193 0 0 0-.357 0l-2.1 5.09a.193.193 0 0 0 .269.244l1.946-1.027 2.088 1.044a.193.193 0 0 0 .268-.245z" class="cls-1" data-name="Path 1764" transform="translate(-33.642 -91.446)"/>
        <path id="Path_1765" d="M3015.375 712.27h-11.327a1.839 1.839 0 0 0-1.836 1.837v11.327a1.84 1.84 0 0 0 1.837 1.837h11.327a1.835 1.835 0 0 0 1.836-1.836v-11.328a1.839 1.839 0 0 0-1.837-1.837zm-6.022.849l-2.491 2.491-2.491-2.491zm-6.292.988a.984.984 0 0 1 .345-.749l2.855 2.855-3.2 3.2zm.988 12.315a.989.989 0 0 1-.988-.988v-4.822l3.8-3.8 5.371 5.371-4.24 4.238zm11.327 0h-6.18l3.641-3.641 3.293 3.293a.986.986 0 0 1-.753.349zm-1.944-4.238l2.869-2.869.062.062v5.738zm-.6-.6l-5.37-5.37 2.87-2.869.212-.224h4.831a.989.989 0 0 1 .988.988v3.944z" class="cls-1" data-name="Path 1765"/>
    </g>
</svg>
