<svg width="188" height="188" viewBox="0 0 188 188" fill="none" xmlns="http://www.w3.org/2000/svg">
<path fill-rule="evenodd" clip-rule="evenodd" d="M187.916 98H157.877C155.812 131.483 128.003 158 94 158C82.1369 158 71.0278 154.772 61.5027 149.147L45.7526 174.69C59.8569 183.142 76.3611 188 94 188C144.575 188 185.821 148.059 187.916 98ZM188 94C188 43.4253 148.059 2.17923 98 0.0835724V30.123C131.483 32.1878 158 59.9972 158 94H188ZM30 94C30 116.051 41.1519 135.497 58.1234 147.006L42.3659 172.561C16.8445 155.754 0 126.844 0 94C0 42.0852 42.0852 0 94 0V30C58.6538 30 30 58.6538 30 94Z" fill="#E9E9E9"/>
</svg>
