<svg xmlns="http://www.w3.org/2000/svg" xmlns:xlink="http://www.w3.org/1999/xlink" width="100" height="100" viewBox="0 0 100 100"><g><g transform="translate(50 50) scale(0.69 0.69) rotate(0) translate(-50 -50)" style="fill:#000000"><svg fill="#000000" xmlns="http://www.w3.org/2000/svg" xmlns:xlink="http://www.w3.org/1999/xlink" viewBox="0 0 241 307" version="1.1" baseProfile="full" x="0px" y="0px"><g transform="scale(1,-1) translate(0,-307)"><path d="M 50.263700 27.166600 L 50.317900 27.704000 L 50.473200 28.204600 L 50.719100 28.657600 L 51.044700 29.052200 L 51.439400 29.377900 L 51.892400 29.623700 L 52.392900 29.779100 L 52.930300 29.833300 L 78.097000 29.833300 L 78.097000 90.597700 L 78.047700 91.573700 L 77.903100 92.521500 L 77.667900 93.436300 L 77.346900 94.313300 L 76.944900 95.147700 L 76.466700 95.934800 L 75.917200 96.669600 L 75.301100 97.347500 L 74.623200 97.963600 L 73.888400 98.513100 L 73.101300 98.991300 L 72.266900 99.393300 L 71.389900 99.714300 L 70.475100 99.949500 L 69.527200 100.094100 L 68.551300 100.143400 L 11.545700 100.143400 L 10.569700 100.094100 L 9.621900 99.949500 L 8.707100 99.714300 L 7.830100 99.393300 L 6.995600 98.991300 L 6.208600 98.513100 L 5.473700 97.963600 L 4.795800 97.347500 L 4.179700 96.669600 L 3.630200 95.934800 L 3.152100 95.147700 L 2.750100 94.313300 L 2.429100 93.436300 L 2.193900 92.521500 L 2.049200 91.573700 L 2.000000 90.597700 L 2.000000 11.545700 L 2.049200 10.569700 L 2.193900 9.621900 L 2.429100 8.707100 L 2.750100 7.830100 L 3.152100 6.995600 L 3.630200 6.208600 L 4.179700 5.473700 L 4.795800 4.795800 L 5.473700 4.179700 L 6.208600 3.630200 L 6.995600 3.152100 L 7.830100 2.750100 L 8.707100 2.429100 L 9.621900 2.193900 L 10.569700 2.049200 L 11.545700 2.000000 L 50.263700 2.000000 Z M 31.090600 67.138400 L 30.239500 67.219300 L 29.410100 67.381000 L 28.602500 67.623500 L 27.816500 67.946800 L 27.052200 68.351000 L 26.309500 68.836000 L 25.588600 69.401800 L 25.236300 69.715100 L 27.192100 72.112500 L 27.487700 71.860400 L 28.070600 71.405000 L 28.642400 71.014600 L 29.203000 70.689300 L 29.752400 70.429000 L 30.290600 70.233800 L 30.817700 70.103700 L 31.333600 70.038700 L 31.587300 70.030500 L 32.015200 70.054800 L 32.724900 70.249400 L 33.006800 70.419600 L 33.232300 70.631200 L 33.489900 71.156900 L 33.522100 71.471100 L 33.487800 71.785200 L 33.214500 72.311000 L 32.975300 72.522600 L 32.821900 72.620000 L 32.414400 72.815900 L 31.872900 73.013000 L 31.197300 73.211500 L 30.809200 73.311200 L 30.189300 73.469400 L 29.078700 73.820400 L 28.140200 74.217300 L 27.373900 74.660200 L 27.055400 74.899000 L 26.776900 75.160900 L 26.331300 75.789100 L 26.034300 76.556700 L 25.885700 77.463600 L 25.867200 77.969400 L 25.890700 78.477400 L 26.078600 79.404200 L 26.454500 80.211200 L 27.018400 80.898600 L 27.370800 81.197500 L 27.758400 81.463600 L 28.603500 81.889500 L 29.542000 82.173400 L 30.573800 82.315300 L 31.124700 82.333100 L 31.492700 82.325200 L 32.228700 82.262100 L 32.964700 82.135800 L 33.700800 81.946600 L 34.068900 81.828400 L 34.431000 81.695600 L 35.119700 81.390700 L 35.761100 81.033100 L 36.355100 80.623000 L 36.634500 80.398300 L 34.973200 78.000900 L 34.492800 78.341000 L 33.520100 78.885100 L 32.531700 79.247900 L 31.527500 79.429300 L 31.019500 79.452000 L 30.631100 79.427700 L 29.984400 79.233100 L 29.726200 79.062900 L 29.519200 78.852600 L 29.282600 78.337400 L 29.253000 78.032400 L 29.289100 77.728200 L 29.578300 77.218200 L 29.831300 77.012500 L 29.999600 76.915700 L 30.478000 76.709400 L 31.145700 76.485900 L 32.002700 76.245400 L 32.502100 76.118700 L 33.010500 75.981900 L 33.939900 75.659800 L 34.752200 75.273400 L 35.447500 74.822600 L 35.751300 74.573000 L 36.022400 74.300600 L 36.456100 73.667100 L 36.745300 72.915300 L 36.889800 72.045100 L 36.907900 71.565600 L 36.884700 71.083200 L 36.699400 70.188100 L 36.328800 69.386300 L 35.772800 68.677800 L 35.425300 68.358600 L 35.040000 68.070300 L 34.181700 67.609000 L 33.206500 67.301400 L 32.114100 67.147600 L 31.524200 67.128400 Z M 46.178300 67.157900 L 45.395600 67.225900 L 44.645100 67.362000 L 43.926800 67.566000 L 43.240700 67.838100 L 42.586700 68.178200 L 41.965100 68.586300 L 41.375600 69.062400 L 41.092900 69.325900 L 40.822900 69.602200 L 40.335300 70.179500 L 39.917300 70.790100 L 39.569000 71.433800 L 39.290400 72.110700 L 39.081400 72.820800 L 38.942000 73.564100 L 38.872400 74.340600 L 38.863700 74.741200 L 38.872400 75.141800 L 38.942000 75.918400 L 39.081400 76.661700 L 39.290400 77.371800 L 39.569000 78.048700 L 39.917300 78.692300 L 40.335300 79.302800 L 40.822900 79.880200 L 41.092900 80.156400 L 41.375600 80.420000 L 41.965100 80.896100 L 42.586700 81.304300 L 43.240700 81.644400 L 43.926800 81.916500 L 44.645100 82.120400 L 45.395600 82.256500 L 46.178300 82.324600 L 46.581700 82.333100 L 46.985100 82.324600 L 47.767900 82.256500 L 48.518400 82.120400 L 49.236700 81.916500 L 49.922800 81.644400 L 50.576700 81.304300 L 51.198400 80.896100 L 51.787900 80.420000 L 52.070500 80.156400 L 52.340500 79.880200 L 52.828100 79.302800 L 53.246100 78.692300 L 53.594400 78.048700 L 53.873000 77.371800 L 54.082000 76.661700 L 54.221400 75.918400 L 54.291000 75.141800 L 54.299700 74.741200 L 54.291000 74.340600 L 54.221400 73.564100 L 54.082000 72.820800 L 53.873000 72.110700 L 53.594400 71.433800 L 53.246100 70.790100 L 52.828100 70.179500 L 52.340500 69.602200 L 52.070500 69.325900 L 51.787900 69.062400 L 51.198400 68.586300 L 50.576700 68.178200 L 49.922800 67.838100 L 49.236700 67.566000 L 48.518400 67.362000 L 47.767900 67.225900 L 46.985100 67.157900 L 46.581700 67.149400 Z M 17.631300 67.178400 L 16.989900 67.242200 L 16.369500 67.369700 L 15.770100 67.560900 L 15.191800 67.815900 L 14.634500 68.134600 L 14.098300 68.517100 L 13.583000 68.963300 L 13.333300 69.210300 L 15.036700 71.565600 L 15.369900 71.230600 L 16.048000 70.694300 L 16.742100 70.336800 L 17.451900 70.158000 L 17.812700 70.135700 L 18.147200 70.169200 L 18.741300 70.437200 L 19.000900 70.671800 L 19.116700 70.814400 L 19.302000 71.149500 L 19.425600 71.551800 L 19.487400 72.021000 L 19.495100 72.280700 L 19.495100 79.178600 L 15.141900 79.178600 L 15.141900 81.996600 L 22.796800 81.996600 L 22.796800 72.406900 L 22.791500 72.083500 L 22.749100 71.467700 L 22.664300 70.893300 L 22.537200 70.360400 L 22.367600 69.868700 L 22.155700 69.418600 L 21.901300 69.009800 L 21.604500 68.642500 L 21.440300 68.474300 L 21.089100 68.168700 L 20.315100 67.679800 L 19.445000 67.353800 L 18.478900 67.190800 L 17.959900 67.170400 Z M 57.075700 67.296600 L 57.075700 81.996600 L 60.146100 81.996600 L 67.359300 72.533100 L 67.359300 81.996600 L 70.640000 81.996600 L 70.640000 67.296600 L 67.359300 67.296600 L 60.356400 76.507800 L 60.356400 67.296600 Z M 47.043200 70.031000 L 47.891000 70.203200 L 48.666500 70.547600 L 49.369700 71.064100 L 49.694200 71.387000 L 49.989900 71.740500 L 50.463100 72.502900 L 50.778500 73.338800 L 50.936200 74.248400 L 50.956000 74.730700 L 50.936200 75.213300 L 50.778500 76.124100 L 50.463100 76.962700 L 49.989900 77.729000 L 49.694200 78.085000 L 49.369700 78.410300 L 48.666500 78.930800 L 47.891000 79.277800 L 47.043200 79.451300 L 46.592200 79.473000 L 46.141200 79.451300 L 45.293500 79.277800 L 44.518000 78.930800 L 43.814800 78.410300 L 43.490300 78.085000 L 43.194600 77.729000 L 42.721400 76.962700 L 42.405900 76.124100 L 42.248200 75.213300 L 42.228400 74.730700 L 42.248200 74.248400 L 42.405900 73.338800 L 42.721400 72.502900 L 43.194600 71.740500 L 43.490300 71.387000 L 43.814800 71.064100 L 44.518000 70.547600 L 45.293500 70.203200 L 46.141200 70.031000 L 46.592200 70.009500 Z M 13.333300 56.080000 L 13.333300 59.413300 L 36.666600 59.413300 L 36.666600 56.080000 Z M 13.333300 46.397400 L 13.333300 49.730700 L 63.064500 49.730700 L 63.064500 46.397400 Z" transform="scale(3.000000,3.000000) translate(0.000000,0.000000)" opacity="1.000000"></path><path d="M 3.631865 25.460543 L 24.936878 25.460543 L 0.965198 1.236771 L 0.965198 22.793877 C 0.965198 24.266636 2.159105 25.460543 3.631865 25.460543 Z" transform="scale(3.000000,3.000000) translate(52.999998,1.000000)" opacity="1.000000"></path></g></svg></g></g></svg>