<svg width="0" height="0" class="hidden">
  <symbol xmlns="http://www.w3.org/2000/svg" viewBox="0 0 50 50" id="follow-blue-bg">
    <g transform="translate(.497)">
      <circle cx="25" cy="25" r="25" fill="#eef2ff" transform="translate(-.497)"></circle>
      <path fill="#5c7ef7"  stroke="#5c7ef7" stroke-linecap="round" stroke-linejoin="round" stroke-width="0" d="M17.503 13a2.9 2.9 0 0 0-3 2.746v20.111l10-5.282 10 5.282V15.746a2.9 2.9 0 0 0-3-2.746zm0 1.831h14a.948.948 0 0 1 1 .915v16.5l-8-3.946-8 3.946v-16.5a.948.948 0 0 1 1-.915z"></path>
      <path  fill="#5c7ef7" d="M27.946 20.822h-2.755v-2.755a.689.689 0 0 0-1.378 0v2.755h-2.754a.689.689 0 0 0 0 1.378h2.755v2.755a.689.689 0 1 0 1.378 0v-2.756h2.755a.689.689 0 1 0 0-1.378z"></path>
    </g>
  </symbol>
    <symbol xmlns="http://www.w3.org/2000/svg" viewBox="0 0 50 50" id="growth-blue-bg">
    <g transform="translate(.497)">
      <circle cx="25" cy="25" r="25" fill="#eef2ff" transform="translate(-.497)"></circle>
      <path fill="none" stroke="#5c7ef7" stroke-linecap="round" stroke-linejoin="round" stroke-width="2" d="M13 31.866l6.79-6.79 5.843 2.217 7.665-7.665"></path>
      <path fill="#5c7ef7" d="M35.908 16.645a.5.5 0 0 1 .553.553l-.72 6.402a.5.5 0 0 1-.851.297l-5.682-5.681a.5.5 0 0 1 .298-.851z"></path>
    </g>
  </symbol>
  <symbol xmlns="http://www.w3.org/2000/svg" viewBox="0 0 50 50" id="user-blue-bg">
    <g transform="translate(.497)">
      <circle cx="25" cy="25" r="25" fill="#eef2ff" transform="translate(-.497)"></circle>
      <path fill="#5c7ef7" stroke="#5c7ef7" stroke-width=".5" d="M32.246 29.225l-4.527-2.36c1.689-1.247 2.156-3.674 2.156-5.056v-2.832c0-1.888-2.659-3.978-5.353-3.978s-5.425 2.09-5.425 3.978v2.832a6.807 6.807 0 0 0 2.263 5.023l-4.635 2.36s-1.222.506-1.222 1.146v1.719a1.176 1.176 0 0 0 1.222 1.146h15.556a1.176 1.176 0 0 0 1.222-1.146v-1.72c-.036-.64-1.257-1.112-1.257-1.112zm-.216 2.629H16.94v-1.213a1.933 1.933 0 0 1 .359-.2c.036 0 .072-.034.108-.034l4.635-2.36a1.3 1.3 0 0 0 .754-1.079 1.334 1.334 0 0 0-.539-1.18 5.482 5.482 0 0 1-1.725-3.978v-2.833c0-.978 1.94-2.629 3.988-2.629 2.084 0 3.916 1.652 3.916 2.629v2.832c0 1.045-.359 3.068-1.581 3.978a1.267 1.267 0 0 0-.539 1.18 1.4 1.4 0 0 0 .754 1.079l4.527 2.36c.036.034.108.034.144.067a.961.961 0 0 1 .323.169v1.214z"></path>
    </g>
  </symbol>
  <symbol xmlns="http://www.w3.org/2000/svg" viewBox="0 0 50 50" id="hash-blue-bg">
    <g transform="translate(.497)">
      <circle cx="25" cy="25" r="25" fill="#eef2ff" transform="translate(-.497)"></circle>
      <path fill="#5c7ef7" d="M30.911 22.905a.213.213 0 0 1-.241.244h-1.859q-.121 0-.121.1l-.479 3.321q0 .1.072.1h1.519a.213.213 0 0 1 .241.241v1.515a.213.213 0 0 1-.241.241H27.97q-.121 0-.121.1l-.6 3.809a.217.217 0 0 1-.241.217l-1.834-.027a.231.231 0 0 1-.169-.072.2.2 0 0 1-.048-.193l.578-3.737q0-.1-.072-.1h-3.352q-.121 0-.121.1l-.6 3.809a.217.217 0 0 1-.241.217l-1.838-.024a.231.231 0 0 1-.169-.072.2.2 0 0 1-.048-.193l.583-3.737q0-.1-.072-.1h-1.519a.213.213 0 0 1-.241-.241l.024-1.519a.213.213 0 0 1 .242-.238h1.783q.121 0 .121-.1l.506-3.323q0-.1-.072-.1h-1.471a.213.213 0 0 1-.241-.241v-1.539a.213.213 0 0 1 .241-.241h1.784q.121 0 .121-.1l.6-3.809a.217.217 0 0 1 .241-.217l1.832.024a.231.231 0 0 1 .169.072.2.2 0 0 1 .048.193l-.576 3.74q0 .1.072.1h3.351q.121 0 .121-.1l.6-3.809a.217.217 0 0 1 .241-.217l1.832.024a.231.231 0 0 1 .169.072.2.2 0 0 1 .048.193l-.579 3.737q0 .1.072.1h1.567a.213.213 0 0 1 .241.241zm-5.159 3.761q.121 0 .121-.1l.506-3.327q0-.1-.072-.1h-3.351q-.121 0-.121.1l-.482 3.331q0 .1.072.1z"></path>
    </g>
  </symbol>
</svg>