<svg width="0" height="0" class="hidden">
  <symbol xmlns="http://www.w3.org/2000/svg" viewBox="0 0 22.197 20" id="rotate-file-icon">
    <path fill="#fff" d="M21.312 20h-11.5a.889.889 0 0 1-.884-.884v-11.5a.889.889 0 0 1 .884-.884h11.5a.889.889 0 0 1 .884.884v11.5a.871.871 0 0 1-.884.884zm-.884-11.5H10.7v9.729h9.729zM.257 11.726a.9.9 0 0 0 0 1.255l2.225 2.225a.9.9 0 0 0 1.255 0l2.2-2.2a.888.888 0 1 0-1.255-1.255l-.656.656a11.622 11.622 0 0 1 11.58-10.638.884.884 0 1 0 0-1.769A13.4 13.4 0 0 0 2.254 12.468l-.713-.713a.858.858 0 0 0-1.284-.029z"></path>
  </symbol>
  <symbol xmlns="http://www.w3.org/2000/svg" viewBox="0 0 22.197 20" id="rotate-file-icon-left">
    <path fill="#fff" d="M.884 20h11.5a.889.889 0 0 0 .884-.884v-11.5a.889.889 0 0 0-.884-.884H.884A.889.889 0 0 0 0 7.616v11.5A.871.871 0 0 0 .884 20zm.884-11.5H11.5v9.729H1.769zm20.172 3.226a.9.9 0 0 1 0 1.255l-2.225 2.225a.9.9 0 0 1-1.255 0l-2.2-2.2a.888.888 0 1 1 1.255-1.255l.656.656A11.622 11.622 0 0 0 6.591 1.769a.884.884 0 1 1 0-1.769 13.4 13.4 0 0 1 13.352 12.468l.713-.713a.858.858 0 0 1 1.284-.029z"></path>
  </symbol>
  <symbol xmlns="http://www.w3.org/2000/svg" viewBox="0 0 18 18" id="zoom-out">
    <path d="M9 0a9 9 0 1 0 9 9 9 9 0 0 0-9-9zm0 16.714A7.714 7.714 0 1 1 16.714 9 7.714 7.714 0 0 1 9 16.714z"></path>
    <path d="M12.409 8.318H5.591a.682.682 0 0 0 0 1.364h6.818a.682.682 0 0 0 0-1.364z"></path>
  </symbol>
  <symbol xmlns="http://www.w3.org/2000/svg" viewBox="0 0 18 18" id="zoom-in">
    <path d="M9 0a9 9 0 1 0 9 9 9 9 0 0 0-9-9zm0 16.714A7.714 7.714 0 1 1 16.714 9 7.714 7.714 0 0 1 9 16.714z"></path>
    <path d="M12.409 8.318H9.682V5.591a.682.682 0 0 0-1.364 0v2.727H5.591a.682.682 0 0 0 0 1.364h2.727v2.727a.682.682 0 0 0 1.364 0V9.682h2.727a.682.682 0 0 0 0-1.364z"></path>
  </symbol>
  <symbol xmlns="http://www.w3.org/2000/svg" viewBox="0 0 37 37" id="fullScreen">
    <defs>
      <filter id="a" width="37" height="37" x="0" y="0" filterUnits="userSpaceOnUse">
        <feOffset dy="1"></feOffset>
        <feGaussianBlur result="blur" stdDeviation="1.5"></feGaussianBlur>
        <feFlood flood-opacity=".102"></feFlood>
        <feComposite in2="blur" operator="in"></feComposite>
        <feComposite in="SourceGraphic"></feComposite>
      </filter>
    </defs>
    <rect width="28" height="28" opacity=".5" rx="4" transform="translate(4.5 3.5)" filter="url(#a)"></rect>
    <path d="M25.877 19.335a.624.624 0 0 0-.624.624v3.045a1.248 1.248 0 0 1-1.248 1.251h-3.049a.624.624 0 0 0 0 1.248h3.045a2.5 2.5 0 0 0 2.5-2.5v-3.048a.624.624 0 0 0-.624-.62zm-9.836 4.92h-3.044a1.248 1.248 0 0 1-1.248-1.248v-3.052a.624.624 0 0 0-1.248 0V23a2.5 2.5 0 0 0 2.5 2.5h3.04a.624.624 0 1 0 0-1.248zm0-14.755h-3.044a2.5 2.5 0 0 0-2.5 2.5v3.04a.624.624 0 1 0 1.248 0v-3.044a1.248 1.248 0 0 1 1.248-1.248h3.048a.624.624 0 1 0 0-1.248zm7.964 0h-3.049a.624.624 0 0 0 0 1.248h3.045a1.248 1.248 0 0 1 1.255 1.248v3.044a.624.624 0 1 0 1.248 0v-3.044A2.5 2.5 0 0 0 24.005 9.5z"></path>
  </symbol>
  <symbol xmlns="http://www.w3.org/2000/svg" viewBox="0 0 18 18" id="index">
    <rect width="18" height="18" rx="2"></rect>
    <rect width="16.5" height="16.5" x=".75" y=".75" rx="1.25"></rect>
    <path d="M2 0h4v18H2a2 2 0 0 1-2-2V2a2 2 0 0 1 2-2z"></path>
    <path d="M2 .75h2.5a.75.75 0 0 1 .75.75v15a.75.75 0 0 1-.75.75H2A1.25 1.25 0 0 1 .75 16V2A1.25 1.25 0 0 1 2 .75z"></path>
  </symbol>
  <symbol xmlns="http://www.w3.org/2000/svg" viewBox="0 0 17.999 18" id="download">
    <path d="M18 13.11v3.984a.905.905 0 0 1-.028.221.856.856 0 0 1-.833.685H.856a.852.852 0 0 1-.844-.759.671.671 0 0 1-.012-.153v-3.984a.85.85 0 1 1 1.7 0v3.191h14.6v-3.191a.85.85 0 0 1 1.451-.6.9.9 0 0 1 .243.606z"></path>
    <path d="M13.9 9.085l-4.176 4.176c0 .012-.017.017-.023.023a.984.984 0 0 1-.55.278h-.05a.616.616 0 0 1-.1 0h-.147a.967.967 0 0 1-.55-.278l-.023-.023-4.176-4.176a.994.994 0 0 1 1.406-1.406l2.507 2.511V.99a1 1 0 0 1 .992-.992 1.014 1.014 0 0 1 .7.29.98.98 0 0 1 .29.7v9.2l2.511-2.511a1 1 0 0 1 1.406 0 1.015 1.015 0 0 1-.018 1.407z"></path>
  </symbol>
  <symbol xmlns="http://www.w3.org/2000/svg" viewBox="0 0 18.471 18.501" id="delete">
    <path fill="#fff" stroke="#fff" stroke-linecap="round" stroke-linejoin="round" stroke-width=".5" d="M12.387 18.25a3.208 3.208 0 0 0 3.262-3.06l.372-11.2h1.746a.454.454 0 1 0 0-.907h-4.886v-1.02A1.844 1.844 0 0 0 11.018.25H7.479a1.844 1.844 0 0 0-1.863 1.813v1.02H.703a.454.454 0 1 0 0 .907h1.746l.376 11.2a3.208 3.208 0 0 0 3.262 3.06zM6.539 2.063a.922.922 0 0 1 .931-.907h3.539a.922.922 0 0 1 .931.907v1.02H6.539zm-2.761 13.08L3.406 3.962h11.71l-.4 11.176a2.308 2.308 0 0 1-2.329 2.2H6.105a2.294 2.294 0 0 1-2.329-2.195z"></path>
    <path d="M7.425 14.623a.6.6 0 0 0 .65-.514V6.427a.668.668 0 0 0-1.3 0v7.686a.6.6 0 0 0 .651.514zm3.647 0a.6.6 0 0 0 .65-.514V6.427a.668.668 0 0 0-1.3 0v7.686a.6.6 0 0 0 .651.514z"></path>
  </symbol>
  <symbol xmlns="http://www.w3.org/2000/svg" viewBox="0 0 20 20" id="info">
    <path d="M10 20a10 10 0 1 1 10-10 10 10 0 0 1-10 10zm0-18.182A8.182 8.182 0 1 0 18.182 10 8.177 8.177 0 0 0 10 1.818z"></path>
    <path d="M9.997 14.645a.806.806 0 0 1-.8-.8V9.22a.803.803 0 0 1 1.606 0v4.619a.806.806 0 0 1-.806.806z"></path>
    <g transform="translate(8.996 5.609)">
      <ellipse cx="1" cy=".5" rx="1" ry=".5" transform="translate(.004 .418)"></ellipse>
      <path d="M1 2.008a1 1 0 1 1 1-1 .994.994 0 0 1-1 1zM1 .4a.6.6 0 1 0 .6.6.592.592 0 0 0-.6-.6z"></path>
    </g>
  </symbol>
  <symbol xmlns="http://www.w3.org/2000/svg" viewBox="0 0 15.495 3.001" id="ellipsis-h">
    <path fill="#fff" d="M1.497 0a1.545 1.545 0 0 1 1.5 1.5 1.529 1.529 0 0 1-1.5 1.5 1.512 1.512 0 0 1-1.5-1.5 1.526 1.526 0 0 1 1.5-1.5zm6.249 0a1.54 1.54 0 0 1 1.5 1.5 1.526 1.526 0 0 1-1.5 1.5 1.512 1.512 0 0 1-1.5-1.5A1.526 1.526 0 0 1 7.747 0zm6.249 0a1.54 1.54 0 0 1 1.5 1.5 1.526 1.526 0 0 1-1.5 1.5 1.512 1.512 0 0 1-1.5-1.5A1.526 1.526 0 0 1 13.997 0z"></path>
  </symbol>
  <symbol xmlns="http://www.w3.org/2000/svg" viewBox="0 0 13.996 14.002" id="close">
    <path fill="none" stroke="#fff" stroke-linecap="round" stroke-linejoin="round" stroke-width="2" d="M6.998 7.006l-6 6 6-6-6-6 6 6 6-6-6 6 6 6z"></path>
  </symbol>
  <symbol xmlns="http://www.w3.org/2000/svg" viewBox="0 0 3 15" id="ellipsis-v">
    <path fill="#fff" d="M0 13.498a1.545 1.545 0 0 1 1.5-1.506A1.527 1.527 0 0 1 3 13.498a1.515 1.515 0 0 1-1.5 1.506A1.532 1.532 0 0 1 0 13.498zm0-6a1.545 1.545 0 0 1 1.5-1.506A1.527 1.527 0 0 1 3 7.498a1.513 1.513 0 0 1-1.5 1.506A1.53 1.53 0 0 1 0 7.498zm0-5.993A1.545 1.545 0 0 1 1.5-.001 1.527 1.527 0 0 1 3 1.505a1.513 1.513 0 0 1-1.5 1.506A1.53 1.53 0 0 1 0 1.505z"></path>
  </symbol>
  <symbol xmlns="http://www.w3.org/2000/svg" viewBox="0 0 12.5 11.12" id="back-arrow">
    <path d="M5.563 1.06L.75 5.56l4.813 4.5M.75 5.56h11"></path>
  </symbol>
   <symbol xmlns="http://www.w3.org/2000/svg" viewBox="0 0 14.775 17" id="redo">
    <path fill="#fff" d="M6.585 16.953A7.436 7.436 0 0 1 7.352 2.13v-2a.134.134 0 0 1 .225-.094l4.118 3.013a.122.122 0 0 1 0 .206L7.577 6.282a.139.139 0 0 1-.225-.094V4.17a5.387 5.387 0 1 0 5.39 6.251 1.01 1.01 0 0 1 1.011-.861 1.023 1.023 0 0 1 1.011 1.16 7.446 7.446 0 0 1-8.179 6.233z" ></path>
  </symbol>
  <symbol xmlns="http://www.w3.org/2000/svg" viewBox="0 0 14.775 17" id="undo">
    <path fill="#fff" d="M8.191 16.953A7.436 7.436 0 0 0 7.424 2.13v-2a.134.134 0 0 0-.225-.094L3.081 3.047a.122.122 0 0 0 0 .206l4.118 3.029a.139.139 0 0 0 .225-.094V4.17a5.387 5.387 0 1 1-5.39 6.251 1.01 1.01 0 0 0-1.011-.861 1.023 1.023 0 0 0-1.011 1.16 7.446 7.446 0 0 0 8.179 6.233z" ></path>
  </symbol>
  <symbol xmlns="http://www.w3.org/2000/svg" viewBox="0 0 18.227 22.316" id="pan">
    <path fill="#fff" stroke="#fff" stroke-linecap="round" stroke-linejoin="round" stroke-width=".3" d="M12.288 22.166H9.601a6.067 6.067 0 0 1-4.607-2.119L.842 15.199a2.447 2.447 0 0 1-.231-2.959 2.379 2.379 0 0 1 3.451-.524l1.28 1.024V4.595A2.084 2.084 0 0 1 6.97 2.52a2.037 2.037 0 0 1 1.267.158v-.369A2.108 2.108 0 0 1 9.925.194a2.029 2.029 0 0 1 2.264 1.372 2.031 2.031 0 0 1 1.293-.22 2.114 2.114 0 0 1 1.7 2.123v.362a2.037 2.037 0 0 1 1.267-.158 2.084 2.084 0 0 1 1.628 2.075v10.628a5.789 5.789 0 0 1-5.789 5.79zm-9.709-9.812a1.221 1.221 0 0 0-.927 2.012l4.222 4.926a4.909 4.909 0 0 0 3.727 1.714h2.687a4.631 4.631 0 0 0 4.631-4.631V5.666a.868.868 0 0 0-1.737 0v4.921a.579.579 0 1 1-1.158 0V3.35a.868.868 0 1 0-1.737 0v7.237a.579.579 0 1 1-1.158 0V2.192a.868.868 0 1 0-1.737 0v8.395a.579.579 0 1 1-1.158 0V4.508a.868.868 0 1 0-1.737 0v8.973a.579.579 0 0 1-.579.579h-.576a.585.585 0 0 1-.362-.127l-1.638-1.312a1.209 1.209 0 0 0-.759-.267z" ></path>
  </symbol>
  <symbol xmlns="http://www.w3.org/2000/svg" viewBox="0 0 22.651 20.312" id="tickets">
    <path fill="#fff" stroke="#fff" stroke-linecap="round" stroke-width=".3" d="M15.656.15a.889.889 0 0 0-.65.275l-1.242 1.281-.754-.793a.924.924 0 0 0-.667-.275.889.889 0 0 0-.65.275L.478 12.491a.988.988 0 0 0 0 1.357l2 2.043a.462.462 0 0 0 .576.077.865.865 0 0 1 1.094.137.936.936 0 0 1 .133 1.128.5.5 0 0 0 .073.595l1.981 2.056a.916.916 0 0 0 1.315 0l1.223-1.281.768.793a.916.916 0 0 0 1.315 0l11.22-11.575a.988.988 0 0 0 0-1.357L20.179 4.42a.462.462 0 0 0-.576-.077.865.865 0 0 1-1.094-.137.935.935 0 0 1-.133-1.128.5.5 0 0 0-.073-.595L16.316.425a.924.924 0 0 0-.66-.275zm0 .976h.014l1.8 1.876a1.863 1.863 0 0 0 .369 1.89 1.724 1.724 0 0 0 1.832.381l1.818 1.86v.017L10.306 18.694h-.014l-.739-.778 7.921-8.174.148.152a.465.465 0 0 0 .667.008.5.5 0 0 0 .008-.694l-.148-.152.709-.747a.988.988 0 0 0 0-1.357l-1.99-2.043a.462.462 0 0 0-.576-.077.865.865 0 0 1-1.094-.137.936.936 0 0 1-.133-1.128.5.5 0 0 0-.073-.595l-.544-.58zm-3.311.488h.014l.931.961a.484.484 0 0 0 .325.334l.548.577a1.864 1.864 0 0 0 .369 1.89 1.724 1.724 0 0 0 1.832.381l1.818 1.876-.961 1.006-.03.03-.044.03a.486.486 0 0 0-.059.077l-8.393 8.636a.485.485 0 0 0-.31.334l-1.386 1.436-1.821-1.876a1.864 1.864 0 0 0-.369-1.89 1.724 1.724 0 0 0-1.832-.381l-1.82-1.862v-.016l8.809-9.088.4.152.355-.259.014-.445-.1-.137zm-1.112 2.668l-.34.243-.014.445.089.137.34.35.4.137.34-.243.014-.445-.089-.137-.34-.351zm1.346 1.388l-.355.243-.014.445.1.137.325.334.4.152.355-.259.014-.445-.1-.137-.325-.334zm1.337 1.373l-.34.243-.014.445.089.137.34.351.4.137.34-.243.014-.445-.089-.137-.34-.35zm1.345 1.387l-.355.243-.014.445.1.137.325.35.4.137.355-.259.014-.427-.089-.152-.34-.334z"></path>
  </symbol>
  <symbol xmlns="http://www.w3.org/2000/svg" viewBox="0 0 19.865 18.3" id="comment">
    <g fill="#fff">
      <path stroke="#fff" stroke-linecap="round" stroke-linejoin="round" stroke-width=".3" d="M17.025.15H2.84A2.693 2.693 0 0 0 .149 2.84v8.681a2.693 2.693 0 0 0 2.68 2.69v3.939l5.661-3.939h8.533a2.693 2.693 0 0 0 2.69-2.69V2.84a2.693 2.693 0 0 0-2.69-2.69zm1.543 11.371a1.545 1.545 0 0 1-1.543 1.543H8.132l-4.156 2.892v-2.892H2.84a1.545 1.545 0 0 1-1.543-1.543V2.84A1.545 1.545 0 0 1 2.84 1.296h14.185a1.545 1.545 0 0 1 1.543 1.543zm0 0"></path>
      <path d="M5.529 5.65a1.426 1.426 0 0 1 1.387 1.387 1.411 1.411 0 0 1-1.387 1.384 1.4 1.4 0 0 1-1.384-1.384A1.408 1.408 0 0 1 5.529 5.65zm4.616 0a1.421 1.421 0 0 1 1.384 1.387 1.408 1.408 0 0 1-1.384 1.384 1.4 1.4 0 0 1-1.384-1.384 1.408 1.408 0 0 1 1.383-1.387zm4.616 0a1.421 1.421 0 0 1 1.384 1.387 1.408 1.408 0 0 1-1.384 1.384 1.4 1.4 0 0 1-1.384-1.384 1.408 1.408 0 0 1 1.385-1.387z"></path>
    </g>
  </symbol>
  <symbol xmlns="http://www.w3.org/2000/svg" viewBox="0 0 13.135 14.135" id="text">
    <path fill="#fff" fill-rule="evenodd" d="M5.729 2.027h-3.7V3.54H0V0h13.135v3.54h-2.027V2.027H7.756v9.081h1.513v3.027H4.215v-3.027h1.513z"></path>
  </symbol>
  <symbol xmlns="http://www.w3.org/2000/svg" viewBox="0 0 23.119 18.495" id="eraser">
    <path fill="#fff" d="M22.348 16.954H11.542l9.039-9.039a.77.77 0 0 0 0-1.09l-6.6-6.6a.77.77 0 0 0-1.09 0l-9.9 9.9a2.326 2.326 0 0 0 0 3.29l3.539 3.54H.771a.771.771 0 0 0 0 1.541h21.577a.771.771 0 1 0 0-1.541zM13.437 1.86l5.51 5.51-6.06 6.06-5.51-5.51zm-9.584 9.91a.78.78 0 0 1 .23-.555l2.2-2.2 5.517 5.504-2.2 2.2a.8.8 0 0 1-1.11 0l-4.4-4.4a.779.779 0 0 1-.237-.549z"></path>
  </symbol>
  <symbol xmlns="http://www.w3.org/2000/svg" viewBox="0 0 17.189 17.198" id="freeflow">
    <path fill="#fff" d="M17.189 2.5a1.924 1.924 0 0 0-.553-1.354l-.608-.608a1.97 1.97 0 0 0-2.708 0l-.553.553-.166-.166a.667.667 0 0 0-.967 0L1.915 10.65a.652.652 0 0 0-.166.249L.064 15.734a1.14 1.14 0 0 0 .249 1.133 1.045 1.045 0 0 0 .774.332 1.617 1.617 0 0 0 .359-.055l4.835-1.713a.4.4 0 0 0 .249-.166l9.725-9.725a.666.666 0 0 0 .193-.5.794.794 0 0 0-.193-.5l-.166-.166.553-.553a1.77 1.77 0 0 0 .547-1.321zM3.761 10.761l6.216-6.216 2.68 2.68-6.242 6.188zm-.884 1.077l2.459 2.459-3.785 1.326zm10.72-5.608l-2.682-2.68 1.188-1.188 2.68 2.68zm.166-4.172l.553-.553a.552.552 0 0 1 .746 0l.608.608a.552.552 0 0 1 0 .746l-.553.553z"></path>
  </symbol>
  <symbol xmlns="http://www.w3.org/2000/svg" viewBox="0 0 16.8 16" id="polygon">
       <g fill="#fff" stroke-linecap="round" stroke-linejoin="round">
      <path d="M13.046 15.25H3.754L.88 6.398 8.4.928l7.519 5.47-2.873 8.852z"></path>
      <path d="M8.4 1.855L1.763 6.684 4.299 14.5H12.5l2.536-7.816L8.4 1.855M8.4 0l8.4 6.111L13.591 16H3.21L0 6.111 8.4 0z" fill="#5c617e"></path>
    </g>
  </symbol>
  <symbol xmlns="http://www.w3.org/2000/svg" viewBox="0 0 22.095 16" id="highlight">
    <path fill="#fff" fill-rule="evenodd" d="M21.333 14.476a1.528 1.528 0 0 1-1.524-1.524h1.524v-1.523H19.81V3.048a1.528 1.528 0 0 1 1.524-1.524.762.762 0 1 0 0-1.524 2.856 2.856 0 0 0-2.286 1.067A3.1 3.1 0 0 0 16.762 0a.762.762 0 0 0 0 1.524 1.528 1.528 0 0 1 1.524 1.524v8.381h-1.524v1.524h1.524a1.528 1.528 0 0 1-1.524 1.524.762.762 0 0 0 0 1.524 2.856 2.856 0 0 0 2.286-1.067A3.1 3.1 0 0 0 21.333 16a.762.762 0 1 0 0-1.524zM0 15.714h14.476V.286H0zm3.81-11.9h1.524v3.048h3.81V3.81h1.524v8.38H9.143V8.38h-3.81v3.81H3.81z"></path>
  </symbol>
  <symbol xmlns="http://www.w3.org/2000/svg" viewBox="0 0 20.087 20" id="selection">
    <path fill="#fff" d="M10.024 9.883l4.021 10.084 1.941-4.121 3.841-1.946zm3.021 1.661c-.28-.28-.28-.28-.54 0l-.82.82c-.56.26-.56.26 0 .82l6.562 6.522c.42.42.4.36.76 0l.78-.78c.38-.38.42-.36 0-.76zM17.606 0h-.76c-.76 0-.76 0-.76.76v.76c0 .76 0 .76.76.76h.76c.76 0 .76 0 .76-.76V.76c0-.76 0-.76-.76-.76zm-4.021 0h-.76c-.76 0-.76 0-.76.76v.76c0 .76 0 .76.76.76h.76c.76 0 .76 0 .76-.76V.76c.02-.76.02-.76-.76-.76zm4.021 4.021h-.76c-.76 0-.76 0-.76.76v.76c0 .76 0 .76.76.76h.76c.76 0 .76 0 .76-.76v-.76c0-.76 0-.76-.76-.76zM9.563 0H8.8c-.76 0-.76 0-.76.76v.76c0 .76 0 .76.76.76h.76c.76 0 .76 0 .76-.76V.76c.004-.76.004-.76-.757-.76zm8.043 8.043h-.76c-.76 0-.76 0-.76.76v.76c0 .76 0 .76.76.76h.76c.76 0 .76 0 .76-.76V8.8c0-.757 0-.757-.76-.757zM5.542 0h-.76c-.76 0-.76 0-.76.76v.76c0 .76 0 .76.76.76h.76c.76 0 .76 0 .76-.76V.76C6.3 0 6.3 0 5.542 0zM1.521 0h-.76c-.76 0-.76 0-.76.76v.76c0 .76 0 .76.76.76h.76c.76 0 .76 0 .76-.76V.76c0-.76 0-.76-.76-.76zm0 4.021h-.76c-.76 0-.76 0-.76.76v.76c0 .76 0 .76.76.76h.76c.76 0 .76 0 .76-.76v-.76c0-.76 0-.76-.76-.76zm8.042 12.085H8.8c-.76 0-.76 0-.76.76v.76c0 .76 0 .76.76.76h.76c.76 0 .76 0 .76-.76v-.76c.004-.76.004-.76-.757-.76zM1.521 8.043h-.76c-.76 0-.76 0-.76.76v.76c0 .76 0 .76.76.76h.76c.76 0 .76 0 .76-.76V8.8c0-.757 0-.757-.76-.757zm4.021 8.063h-.76c-.76 0-.76 0-.76.76v.76c0 .76 0 .76.76.76h.76c.76 0 .76 0 .76-.76v-.76c-.002-.76-.002-.76-.76-.76zm-4.021-4.042h-.76c-.76 0-.76 0-.76.78v.76c0 .76 0 .76.76.76h.76c.76 0 .76 0 .76-.76v-.76c0-.78 0-.78-.76-.78zm0 4.041h-.76c-.76 0-.76 0-.76.76v.76c0 .76 0 .76.76.76h.76c.76 0 .76 0 .76-.76v-.76c0-.759 0-.759-.76-.759z"></path>
  </symbol>
  <symbol xmlns="http://www.w3.org/2000/svg" viewBox="0 0 22.002 13.999" id="Cloud">
    <g fill="#fff" stroke-linecap="round" stroke-linejoin="round">
      <path d="M18.025 13.249H4.828l-.066-.001a3.997 3.997 0 01-2.834-1.227A4.166 4.166 0 01.75 9.101c0-1.094.414-2.126 1.164-2.908a3.992 3.992 0 012.8-1.243l.483-.012.19-.442C6.363 2.22 8.568.75 11.004.75c2.898 0 5.422 2.102 5.998 4.997l.127.63.64-.027.108-.002c1.861 0 3.375 1.548 3.375 3.452 0 .87-.316 1.7-.893 2.338a3.344 3.344 0 01-2.175 1.096l-.159.015z"></path>
      <path d="M18.023 12.499c.03-.005.061-.009.092-.012a2.592 2.592 0 001.688-.852c.451-.5.699-1.152.699-1.835 0-1.49-1.178-2.702-2.625-2.702a1.982 1.982 0 00-.139.003 1.5 1.5 0 01-1.47-1.207C15.76 3.348 13.547 1.5 11.004 1.5c-2.135 0-4.07 1.292-4.928 3.292a1.501 1.501 0 01-1.344.907 3.25 3.25 0 00-2.277 1.013A3.431 3.431 0 001.5 9.101c0 1.85 1.467 3.374 3.272 3.397h13.251m.229 1.5h-13.5C2.123 13.965 0 11.785 0 9.1c0-2.665 2.094-4.84 4.697-4.9C5.76 1.727 8.184 0 11.004 0c3.326 0 6.098 2.403 6.734 5.6l.139-.002c2.277 0 4.125 1.881 4.125 4.202 0 2.192-1.648 3.988-3.75 4.18V14z" fill="#5c617e"></path>
    </g>
  </symbol>
  <symbol xmlns="http://www.w3.org/2000/svg" viewBox="0 0 16 16" id="ellipse">
    <g fill="#fff" stroke="#5c617e" stroke-width="1.5">
      <rect width="16" height="16" rx="8" stroke="none"></rect>
      <rect x=".75" y=".75" width="14.5" height="14.5" rx="7.25" fill="none"></rect>
    </g>
  </symbol>
  <symbol xmlns="http://www.w3.org/2000/svg" viewBox="0 0 16 16" id="rectangle">
    <g fill="#fff" stroke="#5c617e" stroke-width="1.5">
      <path d="M0 0h16v16H0z" stroke="none"></path>
      <path fill="none" d="M.75.75h14.5v14.5H.75z"></path>
    </g>
  </symbol>
  <symbol xmlns="http://www.w3.org/2000/svg" viewBox="0 0 18.218 11.604" id="polyline">
    <path d="M1.057 10.547l5.935-7.088 4.079 4.872 6.092-7.275" fill="none" stroke="#5c617e" stroke-linecap="round" stroke-linejoin="round" stroke-width="1.5"></path>
  </symbol>
  <symbol xmlns="http://www.w3.org/2000/svg" viewBox="0 0 17.313 17.607" id="arrow">
    <g transform="translate(-471 -182.707)" fill="#5c617e">
      <rect width="14" height="2" rx="1" transform="rotate(-45 475.592 -469.098)"></rect>
      <path d="M483.583 186.351a1 1 0 011.086 1.087l-.406 4.456a1 1 0 01-1.702.617l-4.052-4.052a1 1 0 01.617-1.702z"></path>
    </g>
  </symbol>
  <symbol xmlns="http://www.w3.org/2000/svg" viewBox="0 0 13.121 13.121" id="line">
    <path d="M1.061 12.061l11-11" fill="none" stroke="#5c617e" stroke-linecap="round" stroke-width="1.5"></path>
  </symbol>
  <symbol xmlns="http://www.w3.org/2000/svg" viewBox="0 0 7.414 4.209" id="chevron-down">
    <path fill="none" stroke="#fff" stroke-linecap="round" stroke-linejoin="round" d="M.707.707l3 3 3-3"></path>
  </symbol>
</svg>