<svg xmlns="http://www.w3.org/2000/svg" width="18.4" height="18.4" viewBox="0 0 18.4 18.4">
    <g id="prefix__right_side_menu" data-name="right side menu" transform="translate(-285.8 -538.8)">
        <g id="prefix__pin_icon" data-name="pin icon" transform="translate(286 539)">
            <g id="prefix__pin-unselect">
                <g id="prefix__Component_2_34" data-name="Component 2 – 34">
                    <path id="prefix__Combined-Shape" d="M335.2 385.726l.356-.371.379.362 5.247 5.245.344.359-.347.362a3.815 3.815 0 0 1-3.171 1.03l-.171.057-2.575 2.573.028.112a5.348 5.348 0 0 1-1.4 5.1l-.356.356-.338-.353-2.953-2.954-.144-.144-5.88 5.9h-.7v-.7l5.9-5.875-3.162-3.159-.356-.341.356-.356a5.36 5.36 0 0 1 4.743-1.455l.1.019 2.919-2.917.059-.132a4.51 4.51 0 0 1 1.122-2.718zm-.179 3.363V389l.059-.059zm0-.292V389l-3.574 3.571-.257-.075a4.388 4.388 0 0 0-3.568.753l-.189.14 6.065 6.056.139-.192a4.377 4.377 0 0 0 .619-3.941l-.094-.3.219-.219 2.93-2.925.2-.2.28.078a2.7 2.7 0 0 0 2-.4l.207-.137-4.339-4.335-.134.221a3.541 3.541 0 0 0-.508 1.705zm-3.66 3.864l.085-.085.116.034z" transform="translate(-323.522 -385.354)" style="fill:#171e48;stroke:#171e48;stroke-linecap:round;stroke-linejoin:round;stroke-width:.4px"/>
                </g>
            </g>
        </g>
    </g>
</svg>
