<svg xmlns="http://www.w3.org/2000/svg" width="21.406" height="18" viewBox="0 0 21.406 18">
    <path id="prefix__reload-refresh" d="M407.753 17.385a7.617 7.617 0 0 0 12.547 4.308.692.692 0 0 1 .92 1.035 9 9 0 0 1-14.873-5.343h-1.463a.346.346 0 0 1-.27-.562l2.049-2.561a.346.346 0 0 1 .541 0l2.049 2.561a.346.346 0 0 1-.27.562zm15.074-2.077a7.616 7.616 0 0 0-13.282-4.361.692.692 0 1 1-1.036-.919 9 9 0 0 1 15.707 5.28h1.384a.346.346 0 0 1 .27.562l-2.049 2.561a.346.346 0 0 1-.541 0l-2.049-2.561a.346.346 0 0 1 .27-.562z" transform="translate(-404.54 -7)" style="fill:#171e48"/>
</svg>
