<svg width="0" height="0" class="hidden">
  <symbol xmlns="http://www.w3.org/2000/svg" viewBox="0 0 100 100" id="report-create">
    <path fill="#f4f7ff" d="M50 0A50 50 0 1 1 0 50 50 50 0 0 1 50 0z"/>
    <path fill="#2585d3" d="M30.955 2.811h10.757A1.477 1.477 0 0 1 43.2 4.277v42.26A1.475 1.475 0 0 1 41.712 48H1.491A1.477 1.477 0 0 1 0 46.537V4.277a1.48 1.48 0 0 1 1.491-1.466h10.754V1.466A1.477 1.477 0 0 1 13.734 0h15.732a1.477 1.477 0 0 1 1.488 1.466v1.345zm-18.5 36.5a1.465 1.465 0 1 1 0-2.929h18.291a1.465 1.465 0 1 1 0 2.929H12.454zm-.21-33.571H2.979v39.331h37.242V5.74h-9.266v1.348a1.477 1.477 0 0 1-1.488 1.466H13.734a1.477 1.477 0 0 1-1.488-1.466V5.74zm15.73-2.811h-12.75v2.7h12.75v-2.7zm-15.15 20.637a1.439 1.439 0 0 1-.18-2.053 1.5 1.5 0 0 1 2.088-.177l5.53 4.58 8.024-9.316a1.5 1.5 0 0 1 2.094-.171 1.441 1.441 0 0 1 .174 2.058l-8.978 10.425a1.5 1.5 0 0 1-2.085.174l-6.664-5.518z" transform="translate(28 26)"/>
  </symbol>
  <symbol xmlns="http://www.w3.org/2000/svg" viewBox="0 0 36 36" id="horizontal-chart-bar">
    <g opacity=".5">
      <path d="M36 33.75h-2.571v-1.607a.964.964 0 1 0-1.929 0v1.607h-4.307v-1.607a.964.964 0 0 0-1.929 0v1.607h-4.307v-1.607a.964.964 0 0 0-1.929 0v1.607h-4.307v-1.607a.964.964 0 0 0-1.929 0v1.607H8.485v-1.607a.964.964 0 0 0-1.929 0v1.607H2.25V0H0v36h36z"></path>
      <path d="M6.469 8.9h13.5a1.339 1.339 0 0 0 1.125-1.479v-3.7a1.339 1.339 0 0 0-1.125-1.479h-13.5a1.339 1.339 0 0 0-1.125 1.479v3.7A1.339 1.339 0 0 0 6.469 8.9zm-1.125 8.136a1.338 1.338 0 0 0 1.125 1.479h20.25a1.339 1.339 0 0 0 1.125-1.479v-3.7a1.339 1.339 0 0 0-1.125-1.479H6.469a1.339 1.339 0 0 0-1.125 1.479zm0 9.61a1.339 1.339 0 0 0 1.125 1.479h25.594a1.339 1.339 0 0 0 1.125-1.479v-3.7a1.339 1.339 0 0 0-1.125-1.479H6.469a1.339 1.339 0 0 0-1.125 1.479z"></path>
    </g>
  </symbol>
  <symbol xmlns="http://www.w3.org/2000/svg" viewBox="0 0 36 36" id="scatter-chart">
    <g opacity=".5">
      <path d="M2.813 33.188H36V36H0V0h2.813zm24.75-28.969a4.219 4.219 0 1 1 4.219 4.219 4.223 4.223 0 0 1-4.219-4.219zm2.813 0a1.406 1.406 0 1 0 1.406-1.406 1.408 1.408 0 0 0-1.407 1.406zM9.141 15.961a4.219 4.219 0 1 1 4.219 4.219 4.223 4.223 0 0 1-4.219-4.219zm2.813 0a1.406 1.406 0 1 0 1.406-1.406 1.408 1.408 0 0 0-1.407 1.406zm-6.328 10.2a4.219 4.219 0 1 1 4.219 4.219 4.223 4.223 0 0 1-4.22-4.224zm2.813 0a1.406 1.406 0 1 0 1.405-1.411 1.408 1.408 0 0 0-1.406 1.406zM25.1 24.609a4.219 4.219 0 1 1-4.219-4.219 4.223 4.223 0 0 1 4.219 4.219zm-2.813 0a1.406 1.406 0 1 0-1.406 1.406 1.408 1.408 0 0 0 1.408-1.406zm2.113-8.437a4.219 4.219 0 1 1 4.219 4.219 4.223 4.223 0 0 1-4.219-4.219zm2.813 0a1.406 1.406 0 1 0 1.406-1.406 1.408 1.408 0 0 0-1.408 1.406zM16.664 7.734a4.219 4.219 0 1 1 4.219 4.219 4.223 4.223 0 0 1-4.219-4.219zm2.813 0a1.406 1.406 0 1 0 1.406-1.406 1.408 1.408 0 0 0-1.406 1.406zm0 0"></path>
    </g>
  </symbol>
  <symbol xmlns="http://www.w3.org/2000/svg" viewBox="0 0 41.601 36.749" id="linechart">
    <g opacity=".5">
      <path d="M.581.585a.838.838 0 0 0-.222.656v17.6L.35 35.994l.2.2.212.2h20.035c19.57 0 20.042 0 20.245-.183a.8.8 0 0 0 0-1.08c-.183-.164-.4-.183-1.832-.212l-1.629-.029v-.993c0-.906-.019-1-.222-1.2a.769.769 0 0 0-1.032-.019c-.164.164-.193.318-.193 1.2v1.012h-8.367l-.038-1.022c-.029-.935-.048-1.032-.26-1.2a.962.962 0 0 0-.492-.183.962.962 0 0 0-.492.183c-.212.174-.231.27-.26 1.2l-.038 1.022h-8.369v-1.012c0-.887-.029-1.041-.193-1.2a.761.761 0 0 0-1.041.029c-.193.2-.212.328-.212 1.2v.983H7.985v-.955c0-.81-.029-.983-.2-1.2a.721.721 0 0 0-1.051-.058c-.193.193-.26.79-.2 1.8l.029.414H1.815V.851L1.574.62A.7.7 0 0 0 .581.585z"></path>
      <path d="M16.073 3.034a3.193 3.193 0 0 0-2.15 2.95 5.638 5.638 0 0 0 .058.868c.068.231-.048.318-2.188 1.658L9.528 9.927l-.492-.328a2.805 2.805 0 0 0-2.015-.511A3.042 3.042 0 0 0 4.332 10.9a3.621 3.621 0 0 0-.038 2.622 3.56 3.56 0 0 0 1.562 1.591 2.366 2.366 0 0 0 1.359.27 2.748 2.748 0 0 0 2.343-1 2.844 2.844 0 0 0 .829-2.391l-.038-.829 1.591-1c.877-.54 1.889-1.176 2.246-1.388l.656-.4.26.193a2.741 2.741 0 0 0 2 .656 2.3 2.3 0 0 0 1.379-.26l.511-.27 2.333 2.044c3.162 2.757 2.825 2.381 2.632 2.931a3.235 3.235 0 0 0 1.465 3.827 3.4 3.4 0 0 0 2.767.212c.164-.048.328.1.848.762l.656.819-.781 1.157c-.742 1.118-.781 1.157-1.022 1.07a4.267 4.267 0 0 0-1.967.048 4.29 4.29 0 0 0-.887.482l-.473.346-.308-.26a32.9 32.9 0 0 1-4.155-3.789 3.245 3.245 0 0 0-.858-3.538 3.2 3.2 0 0 0-5.042 1.07 3.236 3.236 0 0 0-.058 2.507l.212.482-2.709 2.719-2.719 2.709-.444-.2a2.912 2.912 0 0 0-1.215-.2 2.324 2.324 0 0 0-1.417.308 3.221 3.221 0 0 0-1.543 1.552 2.538 2.538 0 0 0-.222 1.311 2.206 2.206 0 0 0 .328 1.475 3.185 3.185 0 0 0 4.994.858 2.905 2.905 0 0 0 .974-2.2 2.379 2.379 0 0 0-.174-1.331l-.222-.5 2.709-2.719 2.7-2.719.52.222a3.337 3.337 0 0 0 2.661-.144l.6-.308 2.323 2.015 2.323 2.015.019.9a2.7 2.7 0 0 0 .974 2.285 2.707 2.707 0 0 0 2.169.829 2.415 2.415 0 0 0 1.369-.27 3.5 3.5 0 0 0 1.61-1.764 3.244 3.244 0 0 0-.347-2.912l-.231-.308.607-.964a8.161 8.161 0 0 1 .665-.964c.029 0 .858 1.012 1.841 2.246l1.8 2.246-.308.617a2.368 2.368 0 0 0-.308 1.4 2.951 2.951 0 0 0 .906 2.237 3.154 3.154 0 0 0 4.521-.01 3.148 3.148 0 0 0-.01-4.5 3.263 3.263 0 0 0-3.49-.7 15.185 15.185 0 0 1-2.111-2.42l-1.976-2.467.993-1.513c.549-.829 1.475-2.246 2.073-3.152l1.08-1.639h1.08c1.012 0 1.109-.019 1.591-.28a3.372 3.372 0 0 0 1.446-1.591 2.471 2.471 0 0 0 .251-1.263 3.078 3.078 0 0 0-1.7-2.806 2.192 2.192 0 0 0-1.475-.328 2.441 2.441 0 0 0-1.311.222 3.251 3.251 0 0 0-1.533 1.494 3.094 3.094 0 0 0 .144 3.152l.328.492-1.976 2.988-1.967 3-.53-.656-.52-.655.2-.28a3.317 3.317 0 0 0 .26-2.806 3.5 3.5 0 0 0-1.61-1.764 2.506 2.506 0 0 0-1.369-.26 2.281 2.281 0 0 0-1.34.26c-.424.222-.54.241-.665.144a817.107 817.107 0 0 1-4.907-4.261c-.087-.077-.068-.241.087-.684a3.153 3.153 0 0 0-1.706-3.818 2.4 2.4 0 0 0-1.3-.28 4.631 4.631 0 0 0-1.072.11zm1.813 1.514a1.758 1.758 0 0 1 .675 2.41 1.7 1.7 0 0 1-3.152-.925 1.682 1.682 0 0 1 2.477-1.485zm19.8 3.7a1.751 1.751 0 0 1 .444 2.622 1.69 1.69 0 0 1-2.979-1.118 1.719 1.719 0 0 1 2.536-1.502zm-29.7 2.449a1.778 1.778 0 0 1 .935 1.3 1.7 1.7 0 0 1-2.092 1.892 1.822 1.822 0 0 1-1.311-1.9 1.75 1.75 0 0 1 2.467-1.291zm19.763 2.477a1.759 1.759 0 0 1 .887 1.957 1.7 1.7 0 0 1-1.658 1.263 1.693 1.693 0 0 1-1.331-2.757 1.667 1.667 0 0 1 2.101-.461zm-10.132 2.352a1.918 1.918 0 0 1 1.032.887 2.264 2.264 0 0 1 0 1.513 1.712 1.712 0 0 1-3.24-.752 1.6 1.6 0 0 1 1.012-1.562 1.476 1.476 0 0 1 1.195-.084zm10.113 7.51a1.526 1.526 0 0 1 .839.906 1.555 1.555 0 0 1-.048 1.369 1.688 1.688 0 0 1-1.947.916 1.6 1.6 0 0 1-1.128-.9 1.574 1.574 0 0 1-.019-1.465 1.685 1.685 0 0 1 2.302-.824zM8.151 25.61a1.721 1.721 0 0 1 .8 1.417 1.732 1.732 0 0 1-2.748 1.369 1.69 1.69 0 0 1-.28-2.458 1.64 1.64 0 0 1 2.226-.326zm29.74.048a1.789 1.789 0 0 1 .424 2.246 1.7 1.7 0 0 1-3.124-.482 1.718 1.718 0 0 1 2.699-1.762z"></path>
    </g>
  </symbol>
  <symbol xmlns="http://www.w3.org/2000/svg" viewBox="0 0 35.555 35.568" id="piechart">
    <g opacity=".5">
      <path d="M19.59.813a.622.622 0 0 0-.227.142c-.121.1-.128.552-.128 7.63 0 7.2.007 7.531.128 7.637s.751.121 7.644.121c7.432 0 7.51 0 7.637-.142.241-.269.106-2.2-.262-3.79A15.165 15.165 0 0 0 22.975 1.153a14.46 14.46 0 0 0-3.385-.34zm2.161 1.183a14.014 14.014 0 0 1 11.924 12.661l.056.694h-13.5V1.84l.411.028c.216.014.719.078 1.109.124z"></path>
      <path d="M14.718 4.579a15.207 15.207 0 0 0-11.69 7.141A15.326 15.326 0 0 0 .903 17.6a18.407 18.407 0 0 0 0 4.145 15.171 15.171 0 0 0 8.126 11.407 15.032 15.032 0 0 0 4.8 1.523 18.968 18.968 0 0 0 4.109 0A15.152 15.152 0 0 0 31.02 20.367c.042-.808.035-.857-.106-1.013l-.156-.156H16.383V4.823l-.156-.149c-.127-.121-.241-.142-.687-.128-.298.005-.666.021-.822.033zm.673 8.133v7.127l.177.17.17.177H30l-.042.546a14.214 14.214 0 0 1-6.787 11.052 14.175 14.175 0 0 1-12.455 1.034 14.224 14.224 0 0 1-6.567-5.3 14.145 14.145 0 0 1-2.182-5.469 19.422 19.422 0 0 1-.113-3.925A14.077 14.077 0 0 1 9.732 7.008a14.755 14.755 0 0 1 5.4-1.41l.262-.007v7.121z"></path>
    </g>
  </symbol>
  <symbol xmlns="http://www.w3.org/2000/svg" viewBox="0 0 41.426 34" id="vertical-chart-bar">
    <g opacity=".5">
      <path d="M41.426 32.77v-.492a1.23 1.23 0 0 0-1.23-1.23h-2.753V9.779a1.23 1.23 0 0 0-1.23-1.23h-3.585a1.23 1.23 0 0 0-1.23 1.23v21.27h-1.972V8.156a1.23 1.23 0 0 0-1.23-1.23h-3.585a1.23 1.23 0 0 0-1.23 1.23v22.893h-1.937V14.5a1.23 1.23 0 0 0-1.23-1.23H16.63a1.23 1.23 0 0 0-1.23 1.23v16.549h-1.889V21.016a1.23 1.23 0 0 0-1.23-1.23H8.7a1.23 1.23 0 0 0-1.23 1.23v10.033H2.951V1.23A1.23 1.23 0 0 0 1.721 0H1.23A1.23 1.23 0 0 0 0 1.23v31.54A1.23 1.23 0 0 0 1.23 34H40.2a1.23 1.23 0 0 0 1.226-1.23z"></path>
    </g>
  </symbol>
  <symbol xmlns="http://www.w3.org/2000/svg" viewBox="0 0 24 24" id="selected-chart">
    <g transform="translate(-1470 -440)">
        <circle id="Ellipse_442" cx="12" cy="12" r="12" fill="#2585d3" data-name="Ellipse 442" transform="translate(1470 440)"/>
        <path id="Path_1744" fill="none" stroke="#fff" stroke-linecap="round" stroke-linejoin="round" stroke-width="3px" d="M3490 11543.453l3.7 4.238 6.966-8" data-name="Path 1744" transform="translate(-2013.434 -11091.695)"/>
    </g>
  </symbol>
  <symbol xmlns="http://www.w3.org/2000/svg" viewBox="0 0 14 14"  id="duedate-calender">
      <path id="Path_3128" fill="#8a8ea3" fill-rule="evenodd" d="M11.182 3.333v-.666a.637.637 0 1 1 1.273 0v.667h.636a1.956 1.956 0 0 1 1.909 2V12a3.912 3.912 0 0 1-3.818 4H4.818A3.912 3.912 0 0 1 1 12V5.333a1.956 1.956 0 0 1 1.909-2h1.273v-.666a.637.637 0 1 1 1.273 0v.667zm-8.909 4h11.454v-2a.652.652 0 0 0-.636-.667h-.636a.637.637 0 1 1-1.273 0H5.455a.637.637 0 1 1-1.273 0H2.909a.652.652 0 0 0-.636.667zm0 1.333V12a2.608 2.608 0 0 0 2.545 2.667h6.364A2.608 2.608 0 0 0 13.727 12V8.667z" data-name="Path 3128" transform="translate(-1 -2)"/>
  </symbol>




</svg>
