<svg xmlns="http://www.w3.org/2000/svg" width="8" height="13" viewBox="0 0 8 13">
    <g id="prefix__Group_1111" data-name="Group 1111" transform="translate(-197.741 -41.441)">
        <path id="prefix__Union_33" d="M5 11.5A1.5 1.5 0 1 1 6.5 13 1.5 1.5 0 0 1 5 11.5zm-5 0A1.5 1.5 0 1 1 1.5 13 1.5 1.5 0 0 1 0 11.5zm5-5A1.5 1.5 0 1 1 6.5 8 1.5 1.5 0 0 1 5 6.5zm-5 0A1.5 1.5 0 1 1 1.5 8 1.5 1.5 0 0 1 0 6.5zm5-5A1.5 1.5 0 1 1 6.5 3 1.5 1.5 0 0 1 5 1.5zm-5 0A1.5 1.5 0 1 1 1.5 3 1.5 1.5 0 0 1 0 1.5z" data-name="Union 33" transform="translate(197.741 41.441)" style="fill:#737790"/>
    </g>
</svg>
