<svg xmlns="http://www.w3.org/2000/svg" xmlns:xlink="http://www.w3.org/1999/xlink" width="0" height="0" class="hidden">
  <symbol xmlns="http://www.w3.org/2000/svg" viewBox="0 0 19.5 17.535" id="terra-back-arrow">
    <g fill="none" stroke="#171e48" stroke-linecap="round" stroke-width="2.5">
      <path d="M8.249 1.769l-7 7 7 7" stroke-linejoin="round"></path>
      <path d="M1.25 8.769h17"></path>
    </g>
  </symbol>
  <symbol xmlns="http://www.w3.org/2000/svg" viewBox="0 0 31.7 31.7" id="terra-layer">
    <defs>
      <filter id="a" width="31.7" height="31.7" x="0" y="0" filterUnits="userSpaceOnUse">
        <feOffset dy="1"></feOffset>
        <feGaussianBlur result="blur" stdDeviation="1.5"></feGaussianBlur>
        <feFlood flood-opacity=".161"></feFlood>
        <feComposite in2="blur" operator="in"></feComposite>
        <feComposite in="SourceGraphic"></feComposite>
      </filter>
    </defs>
    <rect width="22" height="22" fill="#fff" stroke="rgba(37,133,211,0.3)" stroke-width=".7" rx="4" transform="translate(4.85 3.85)" filter="url(#a)"></rect>
    <path d="M22.379 11.81l-6.565-3.316a.548.548 0 0 0-.5 0L8.749 11.81a.7.7 0 0 0-.364.611.717.717 0 0 0 .325.639l6.569 3.964a.553.553 0 0 0 .579 0l6.56-3.964a.716.716 0 0 0 .325-.639.7.7 0 0 0-.364-.611zm-6.815 3.811l-5.166-3.12 5.166-2.609 5.166 2.609z"></path>
    <path d="M21.839 16.211l-6.275 3.791-6.279-3.791a.579.579 0 0 0-.831.286.745.745 0 0 0 .253.942l6.564 3.966a.553.553 0 0 0 .579 0l6.564-3.966a.745.745 0 0 0 .253-.942.58.58 0 0 0-.828-.286z"></path>
  </symbol>
  <symbol xmlns="http://www.w3.org/2000/svg" viewBox="0 0 14.058 14.058" id="terra-add">
    <path fill="#737790" d="M12.887 5.858H8.2V1.172a1.172 1.172 0 0 0-2.343 0v4.686H1.172a1.172 1.172 0 0 0 0 2.343h4.686v4.686a1.172 1.172 0 0 0 2.343 0V8.2h4.686a1.172 1.172 0 0 0 0-2.343z"></path>
  </symbol>
  <symbol xmlns="http://www.w3.org/2000/svg" viewBox="0 0 16.52 14.5" id="terra-filter">
    <path fill="#737790" stroke="#737790" stroke-width=".5" d="M16.214.514a.487.487 0 0 0-.439-.264H.746a.488.488 0 0 0-.439.264.442.442 0 0 0 .064.489l5.778 6.652v6.134a.456.456 0 0 0 .229.391.508.508 0 0 0 .471.021l3.246-1.527a.459.459 0 0 0 .27-.412l.006-4.607 5.778-6.653a.442.442 0 0 0 .065-.488zm-6.7 6.683a.446.446 0 0 0-.111.292l-.007 4.488-2.277 1.071V7.49a.446.446 0 0 0-.111-.293l-5.234-6.03h12.973z"></path>
  </symbol>
  <symbol xmlns="http://www.w3.org/2000/svg" viewBox="0 0 48 48" id="terra-cluster">
    <g transform="translate(-.255 .314)">
      <circle cx="24" cy="24" r="24" transform="translate(.255 -.314)" fill="#737790" opacity=".7"></circle>
      <circle cx="18.293" cy="18.293" r="18.293" transform="translate(5.83 5.526)" fill="#fff"></circle>
      <rect width="14.618" height="14.618" rx="3" transform="translate(16.813 16.51)" fill="#737790"></rect>
    </g>
  </symbol>
  <symbol xmlns="http://www.w3.org/2000/svg" viewBox="0 0 48 48" id="terra-cluster-active">
    <g transform="translate(-.255 .314)">
      <circle cx="24" cy="24" r="24" transform="translate(.255 -.314)" fill="#2585d3" opacity=".7"></circle>
      <circle cx="18.293" cy="18.293" r="18.293" transform="translate(5.83 5.526)" fill="#fff"></circle>
      <rect width="14.618" height="14.618" rx="3" transform="translate(16.813 16.51)" fill="#2585d3"></rect>
    </g>
  </symbol>
  <symbol xmlns="http://www.w3.org/2000/svg" viewBox="0 0 16.52 14.5" id="terra-filter-active">
    <path fill="#2585d3" stroke="#2585d3" stroke-width=".5" d="M16.214.514a.487.487 0 0 0-.439-.264H.746a.488.488 0 0 0-.439.264.442.442 0 0 0 .064.489l5.778 6.652v6.134a.456.456 0 0 0 .229.391.508.508 0 0 0 .471.021l3.246-1.527a.459.459 0 0 0 .27-.412l.006-4.607 5.778-6.653a.442.442 0 0 0 .065-.488zm-6.7 6.683a.446.446 0 0 0-.111.292l-.007 4.488-2.277 1.071V7.49a.446.446 0 0 0-.111-.293l-5.234-6.03h12.973z"></path>
  </symbol>
  <symbol xmlns="http://www.w3.org/2000/svg" viewBox="0 0 19.799 19.799" id="terra-close">
    <path fill="#fff" d="M14.85 13.199l-3.3-3.3 3.3-3.299a1.167 1.167 0 0 0-1.65-1.65l-3.3 3.3-3.3-3.3A1.167 1.167 0 0 0 4.95 6.6l3.3 3.299-3.3 3.3a1.167 1.167 0 0 0 1.65 1.65l3.299-3.3 3.3 3.3a1.167 1.167 0 0 0 1.65-1.65z"></path>
  </symbol>
  <symbol xmlns="http://www.w3.org/2000/svg" viewBox="0 0 12.7 12.7" id="terra-application">
    <path d="M4.683.35h-3.5a.831.831 0 0 0-.831.83v3.5a.831.831 0 0 0 .831.829h3.5a.831.831 0 0 0 .831-.829v-3.5a.831.831 0 0 0-.831-.829zm.322 4.327a.322.322 0 0 1-.322.32h-3.5a.322.322 0 0 1-.322-.32v-3.5a.322.322 0 0 1 .322-.322h3.5a.322.322 0 0 1 .322.322zM11.519.35h-3.5a.831.831 0 0 0-.831.83v3.5a.831.831 0 0 0 .831.829h3.5a.831.831 0 0 0 .831-.829v-3.5a.831.831 0 0 0-.831-.83zm.322 4.327a.322.322 0 0 1-.322.32h-3.5a.322.322 0 0 1-.322-.32v-3.5a.322.322 0 0 1 .322-.322h3.5a.322.322 0 0 1 .322.322zM4.683 7.193h-3.5a.831.831 0 0 0-.831.83v3.5a.831.831 0 0 0 .831.83h3.5a.831.831 0 0 0 .831-.83v-3.5a.831.831 0 0 0-.831-.829zm.322 4.327a.322.322 0 0 1-.322.322h-3.5a.322.322 0 0 1-.322-.322v-3.5a.322.322 0 0 1 .322-.322h3.5a.322.322 0 0 1 .322.322zm7.088-2.002h-2.071V7.447a.255.255 0 0 0-.509 0v2.071H7.441a.254.254 0 1 0 0 .508h2.071v2.068a.255.255 0 0 0 .509 0v-2.067h2.071a.254.254 0 1 0 0-.508z"></path>
  </symbol>
  <symbol xmlns="http://www.w3.org/2000/svg" viewBox="0 0 12.7 12.7" id="terra-application-active">
    <path stroke="#2585d3" d="M4.683.35h-3.5a.831.831 0 0 0-.831.83v3.5a.831.831 0 0 0 .831.829h3.5a.831.831 0 0 0 .831-.829v-3.5a.831.831 0 0 0-.831-.829zm.322 4.327a.322.322 0 0 1-.322.32h-3.5a.322.322 0 0 1-.322-.32v-3.5a.322.322 0 0 1 .322-.322h3.5a.322.322 0 0 1 .322.322zM11.519.35h-3.5a.831.831 0 0 0-.831.83v3.5a.831.831 0 0 0 .831.829h3.5a.831.831 0 0 0 .831-.829v-3.5a.831.831 0 0 0-.831-.83zm.322 4.327a.322.322 0 0 1-.322.32h-3.5a.322.322 0 0 1-.322-.32v-3.5a.322.322 0 0 1 .322-.322h3.5a.322.322 0 0 1 .322.322zM4.683 7.193h-3.5a.831.831 0 0 0-.831.83v3.5a.831.831 0 0 0 .831.83h3.5a.831.831 0 0 0 .831-.83v-3.5a.831.831 0 0 0-.831-.829zm.322 4.327a.322.322 0 0 1-.322.322h-3.5a.322.322 0 0 1-.322-.322v-3.5a.322.322 0 0 1 .322-.322h3.5a.322.322 0 0 1 .322.322zm7.088-2.002h-2.071V7.447a.255.255 0 0 0-.509 0v2.071H7.441a.254.254 0 1 0 0 .508h2.071v2.068a.255.255 0 0 0 .509 0v-2.067h2.071a.254.254 0 1 0 0-.508z"></path>
  </symbol>
  <symbol xmlns="http://www.w3.org/2000/svg" viewBox="0 0 15 19" id="terra-location">
    <path fill="#737790" fill-rule="evenodd" stroke="#fff" stroke-linecap="round" stroke-linejoin="round" d="M7.5.5a7.1 7.1 0 0 0-7 7.2c0 3.976 7 10.8 7 10.8s7-6.824 7-10.8a7.1 7.1 0 0 0-7-7.2zm0 2.4a4.439 4.439 0 0 1 4.375 4.5c0 1.746-2.122 4.673-3.407 6.3L7.5 14.859 6.532 13.7c-1.285-1.627-3.407-4.554-3.407-6.3A4.439 4.439 0 0 1 7.5 2.9z"></path>
    <g fill="#fff" stroke="#737790" stroke-width="1.5" transform="translate(5.5 4.648)">
      <circle cx="2" cy="2" r="2" stroke="none"></circle>
      <circle cx="2" cy="2" r="1.25" fill="none"></circle>
    </g>
  </symbol>
  <symbol xmlns="http://www.w3.org/2000/svg" viewBox="0 0 16.17 16.17" id="terra-fab-add">
    <path fill="#fff" d="M14.822 6.737h-5.39v-5.39a1.348 1.348 0 1 0-2.695 0v5.39h-5.39a1.348 1.348 0 1 0 0 2.695h5.39v5.39a1.348 1.348 0 1 0 2.695 0v-5.39h5.39a1.348 1.348 0 1 0 0-2.695z"></path>
  </symbol>
  <symbol xmlns="http://www.w3.org/2000/svg" viewBox="0 0 14.2 14.2" id="terra-ticket-duedate">
    <g fill="none" stroke="#5b607e" stroke-width="1.2">
      <path d="M7.1 13.6A6.5 6.5 0 1 0 .6 7.1a6.5 6.5 0 0 0 6.5 6.5z"></path>
      <path stroke-linecap="round" stroke-linejoin="round" d="M6.657 2.663v4.366L4.569 8.891"></path>
    </g>
  </symbol>
  <symbol xmlns="http://www.w3.org/2000/svg" viewBox="0 0 11 11" id="terra-add-tags">
    <path fill="#747891" d="M3.768 10.631l-3.4-3.4a1.278 1.278 0 0 1 0-1.792L5.391.375A1.271 1.271 0 0 1 6.292 0h3.439A1.276 1.276 0 0 1 11 1.269v3.439a1.272 1.272 0 0 1-.375.9l-5.066 5.026a1.276 1.276 0 0 1-1.792 0zM5.991.972L.966 6.037a.415.415 0 0 0 0 .6l3.4 3.4a.417.417 0 0 0 .6 0l5.065-5.025a.424.424 0 0 0 .126-.3V1.269a.417.417 0 0 0-.426-.423H6.292a.419.419 0 0 0-.301.126zm1.3 1.99a.748.748 0 1 1 .747.748.747.747 0 0 1-.748-.748z"></path>
  </symbol>
  <symbol xmlns="http://www.w3.org/2000/svg" viewBox="0 0 16 17" id="terra-add-assignee">
    <path fill="#747891" d="M14.882 13.285l-4.024-2.2c1.5-1.165 1.916-3.431 1.916-4.722V3.715C12.774 1.952 10.411 0 8.016 0S3.194 1.952 3.194 3.715v2.644a6.51 6.51 0 0 0 2.012 4.691l-4.12 2.2S0 13.722 0 14.32v1.61A1.069 1.069 0 0 0 1.086 17h13.828A1.069 1.069 0 0 0 16 15.93v-1.606c-.032-.598-1.118-1.039-1.118-1.039zm-.192 2.456H1.277v-1.134a1.7 1.7 0 0 1 .319-.189c.032 0 .064-.031.1-.031l4.12-2.2a1.211 1.211 0 0 0 .671-1.007 1.273 1.273 0 0 0-.479-1.1 5.248 5.248 0 0 1-1.533-3.715v-2.65c0-.913 1.725-2.456 3.545-2.456 1.848 0 3.48 1.541 3.48 2.456v2.644c0 .976-.319 2.865-1.405 3.715a1.207 1.207 0 0 0-.479 1.1 1.3 1.3 0 0 0 .671 1.007l4.024 2.2c.032.031.1.031.128.063a.841.841 0 0 1 .287.157v1.133z"></path>
  </symbol>
  <symbol xmlns="http://www.w3.org/2000/svg" viewBox="0 0 12 12" id="terra-filter-close">
    <path fill="none" stroke="#171e48" stroke-linecap="round" stroke-linejoin="round" stroke-width="2" d="M6 6l-5 5 5-5-5-5 5 5 5-5-5 5 5 5z"></path>
  </symbol>
  <symbol xmlns="http://www.w3.org/2000/svg" viewBox="0 0 16 16" id="terra-filter-checkbox-selected">
    <g transform="translate(83 -357)">
      <g fill="#fff" stroke="#2585d3" stroke-width="1.5" transform="translate(-83 357)">
        <rect width="16" height="16" stroke="none" rx="8"></rect>
        <rect width="14.5" height="14.5" x=".75" y=".75" fill="none" rx="7.25"></rect>
      </g>
      <rect width="6.4" height="6.4" fill="#2585d3" rx="3.2" transform="translate(-78.2 361.8)"></rect>
    </g>
  </symbol>
  <symbol xmlns="http://www.w3.org/2000/svg" viewBox="0 0 16 16" id="terra-filter-checkbox">
    <g fill="#fff" stroke="#b8bbc8" stroke-width="1.5">
      <rect width="16" height="16" stroke="none" rx="8"></rect>
      <rect width="14.5" height="14.5" x=".75" y=".75" fill="none" rx="7.25"></rect>
    </g>
  </symbol>
  <symbol xmlns="http://www.w3.org/2000/svg" viewBox="0 0 20 20" id="terra-filter-add-assignee">
    <g fill="#fff" stroke="#747891" stroke-dasharray="1.5 2" stroke-linecap="round" stroke-linejoin="bevel">
      <circle cx="10" cy="10" r="10"></circle>
      <circle cx="10" cy="10" r="9.5"></circle>
    </g>
    <path fill="#747891" stroke="#747891" stroke-linecap="round" stroke-linejoin="round" stroke-width=".3" d="M13.487 11.349l-2.093-1.142a3.242 3.242 0 0 0 1-2.448V6.388c0-.914-1.229-1.926-2.475-1.926S7.411 5.474 7.411 6.388v1.374a3.369 3.369 0 0 0 1.047 2.432l-2.147 1.138s-.565.245-.565.555v.832a.555.555 0 0 0 .565.555h7.193a.555.555 0 0 0 .565-.555v-.832c-.017-.31-.582-.538-.582-.538zm-.1 1.273H6.41v-.587a.883.883 0 0 1 .166-.1c.017 0 .033-.016.05-.016l2.143-1.142a.628.628 0 0 0 .349-.522.659.659 0 0 0-.249-.571 2.716 2.716 0 0 1-.8-1.926v-1.37c0-.473.9-1.273 1.844-1.273.963 0 1.811.8 1.811 1.273v1.374a2.663 2.663 0 0 1-.731 1.926.625.625 0 0 0-.249.571.675.675 0 0 0 .349.522l2.093 1.142c.017.016.05.016.066.033a.438.438 0 0 1 .15.082v.587z"></path>
    <g fill="#fff" stroke="#fff" transform="translate(9.119 8.854)">
      <circle cx="2.908" cy="2.908" r="2.908"></circle>
      <circle cx="2.908" cy="2.908" r="2.408"></circle>
    </g>
    <path fill="#747891" stroke="#747891" stroke-width=".2" d="M13.742 11.479h-1.305v-1.306a.327.327 0 0 0-.653 0v1.306h-1.306a.327.327 0 0 0 0 .653h1.306v1.305a.327.327 0 1 0 .653 0v-1.305h1.305a.327.327 0 1 0 0-.653z"></path>
  </symbol>
  <symbol xmlns="http://www.w3.org/2000/svg" viewBox="0 0 20 20" id="terra-filter-add-tags">
    <g fill="#fff" stroke="#747891" stroke-dasharray="1.5 2" stroke-linecap="round" stroke-linejoin="bevel">
      <circle cx="10" cy="10" r="10" stroke="none"></circle>
      <circle cx="10" cy="10" r="9.5" fill="none"></circle>
    </g>
    <path fill="#747891" d="M8.14 14.193L5.307 11.36a1.065 1.065 0 0 1 0-1.494l4.185-4.221a1.059 1.059 0 0 1 .751-.312h2.866a1.063 1.063 0 0 1 1.058 1.058v2.865a1.06 1.06 0 0 1-.312.751l-4.222 4.188a1.063 1.063 0 0 1-1.493 0zm1.853-8.05L5.8 10.364a.346.346 0 0 0 0 .5l2.838 2.83a.347.347 0 0 0 .5 0l4.219-4.187a.354.354 0 0 0 .1-.251V6.391a.348.348 0 0 0-.348-.353h-2.866a.349.349 0 0 0-.25.105zm1.082 1.658a.623.623 0 1 1 .623.623.623.623 0 0 1-.623-.623z"></path>
  </symbol>
  <symbol xmlns="http://www.w3.org/2000/svg" viewBox="0 0 20 20" id="terra-filter-add-priority">
    <g fill="#fff" stroke="#747891" stroke-dasharray="1.5 2" stroke-linecap="round" stroke-linejoin="bevel">
      <circle cx="10" cy="10" r="10"></circle>
      <circle cx="10" cy="10" r="9.5"></circle>
    </g>
    <path fill="#747891" fill-rule="evenodd" d="M9.317 11.439a.513.513 0 0 1 0 1.025.513.513 0 1 1 0-1.025zm4.861 1.843a1.718 1.718 0 0 1-1.518.963H6.344a1.706 1.706 0 0 1-1.508-.948 2.056 2.056 0 0 1-.006-1.919l3.166-6a1.671 1.671 0 0 1 3.025 0l3.162 5.99a2.039 2.039 0 0 1-.005 1.914zm-.683-.433a1.115 1.115 0 0 0 0-1.04l-3.161-5.994a.912.912 0 0 0-1.652 0l-3.166 5.992a1.131 1.131 0 0 0 0 1.054.929.929 0 0 0 .824.517h6.318a.943.943 0 0 0 .837-.529zm-4.291-4.9a.514.514 0 0 1 .593.289.633.633 0 0 1 .047.256c-.012.256-.035.513-.047.769l-.07 1.187c-.012.129-.012.246-.012.373a.383.383 0 0 1-.383.373.376.376 0 0 1-.383-.361c-.035-.617-.07-1.222-.1-1.839l-.035-.488a.557.557 0 0 1 .386-.563z"></path>
    <g fill="#fff" stroke="#fff" transform="translate(9.926 8.149)">
      <circle cx="3.259" cy="3.259" r="3.259"></circle>
      <circle cx="3.259" cy="3.259" r="2.759"></circle>
    </g>
    <path fill="#747891" d="M14.907 10.966h-1.305V9.66a.327.327 0 1 0-.653 0v1.306h-1.306a.327.327 0 1 0 0 .653h1.306v1.305a.327.327 0 1 0 .653 0v-1.305h1.305a.327.327 0 1 0 0-.653z"></path>
  </symbol>
  <symbol xmlns="http://www.w3.org/2000/svg" viewBox="0 0 16.5 16.5" id="terra-filter-add-duedate">
    <path fill="#737790" fill-rule="evenodd" stroke="#fff" stroke-linecap="round" stroke-linejoin="round" stroke-width=".5" d="M11.886 1.774v-.762a.728.728 0 1 1 1.455 0v.762h.727A2.236 2.236 0 0 1 16.25 4.06v7.619a4.471 4.471 0 0 1-4.364 4.571H4.614A4.471 4.471 0 0 1 .25 11.679V4.06a2.236 2.236 0 0 1 2.182-2.286h1.454v-.762a.728.728 0 1 1 1.455 0v.762zM1.705 6.35h13.09V4.06a.745.745 0 0 0-.727-.762h-.727a.728.728 0 1 1-1.455 0H5.341a.728.728 0 1 1-1.455 0H2.432a.745.745 0 0 0-.727.762zm0 1.524v3.81a2.981 2.981 0 0 0 2.909 3.048h7.273a2.981 2.981 0 0 0 2.909-3.048V7.869z"></path>
  </symbol>
  <symbol xmlns="http://www.w3.org/2000/svg" viewBox="0 0 20 20" id="terra-filter-add-status">
    <g fill="#fff" stroke="#747891" stroke-dasharray="1.5 2" stroke-linecap="round" stroke-linejoin="bevel">
      <circle cx="10" cy="10" r="10"></circle>
      <circle cx="10" cy="10" r="9.5"></circle>
    </g>
    <g transform="translate(5.189 5.132)">
      <rect width="8" height="8" fill="#8a8ea3" rx="1" transform="translate(.811 .868)"></rect>
      <g fill="#fff" stroke="#fff" transform="translate(2.811 2.868)">
        <circle cx="4.334" cy="4.334" r="4.334"></circle>
        <circle cx="4.334" cy="4.334" r="3.834"></circle>
      </g>
      <path fill="#747891" d="M9.811 7.142H7.994V5.323a.455.455 0 1 0-.91 0v1.819H5.266a.455.455 0 1 0 0 .91h1.819v1.816a.455.455 0 1 0 .91 0V8.051h1.816a.455.455 0 1 0 0-.91z"></path>
    </g>
  </symbol>
  <symbol xmlns="http://www.w3.org/2000/svg" viewBox="0 0 14.828 8.414" id="terra-raster-downarrow">
    <path fill="none" stroke="#5c617e" stroke-linecap="round" stroke-linejoin="round" stroke-width="2" d="M13.414 1.414l-6 6-6-6"></path>
  </symbol>
  <symbol xmlns="http://www.w3.org/2000/svg" viewBox="0 0 14.828 8.414" id="terra-raster-uparrow">
    <path fill="none" stroke="#2585d3" stroke-linecap="round" stroke-linejoin="round" stroke-width="2" d="M13.414 7l-6-6-6 6"></path>
  </symbol>
  <symbol xmlns="http://www.w3.org/2000/svg" viewBox="0 0 16.306 14.322" id="terra-raster-project">
    <path fill="#555c7e" stroke="#fff" stroke-linecap="round" stroke-linejoin="round" stroke-width=".3" d="M14.451 1.834L2.089 6.906c.9.368 1.873.735 2.772 1.1.6-.368 6.892-3.971 7.042-3.971a.16.16 0 0 1 .15.147c0 .221-4.27 4.338-4.795 4.853l-.6 2.427 2.249-1.833 3.3 3.015c.225-1.1 1.873-9.339 2.173-10.809zm-.3-1.544c1.199-.441 2.247.294 1.948 1.616 0 0-2.023 10.074-2.248 11.1a1.581 1.581 0 0 1-2.622.735l-2.322-2.053-1.873 1.544c-.9.662-1.648-.147-1.948-.956-.15-.441-.749-2.206-.974-2.941-.749-.294-2.472-.956-2.922-1.177a1.316 1.316 0 0 1 0-2.574C5.535 3.82 9.881 1.906 14.228.216z"></path>
  </symbol>
  <symbol xmlns="http://www.w3.org/2000/svg" viewBox="0 0 14 14" id="terra-project-download">
    <path fill="#737790" d="M14 9.994v3.263a.78.78 0 0 1-.022.181.675.675 0 0 1-.648.562H.666a.677.677 0 0 1-.657-.622.577.577 0 0 1-.009-.125V9.994a.681.681 0 0 1 .661-.7.647.647 0 0 1 .467.2.718.718 0 0 1 .194.492v2.613h11.36V9.994a.681.681 0 0 1 .661-.7.647.647 0 0 1 .467.2.756.756 0 0 1 .19.5z"></path>
    <path fill="#737790" d="M10.672 7.348l-3.13 3.379a.067.067 0 0 1-.017.018.719.719 0 0 1-.412.225h-.038a.429.429 0 0 1-.076 0h-.11a.707.707 0 0 1-.412-.225l-.017-.018-3.13-3.379a.854.854 0 0 1 0-1.137.71.71 0 0 1 1.053 0l1.881 2.031V.799a.778.778 0 0 1 .743-.8.732.732 0 0 1 .527.234.826.826 0 0 1 .217.569v7.441l1.881-2.031a.71.71 0 0 1 1.053 0 .869.869 0 0 1-.013 1.136z"></path>
  </symbol>
  <symbol xmlns="http://www.w3.org/2000/svg" viewBox="0 0 5.811 10.121" id="terra-project-rightarrow">
    <path fill="none" stroke="#737790" stroke-linecap="round" stroke-linejoin="round" stroke-width="1.5" d="M1.061 9.061l4-4-4-4"></path>
  </symbol>
  <symbol xmlns="http://www.w3.org/2000/svg" viewBox="0 0 10.121 5.811" id="terra-project-uparrow">
    <path fill="none" stroke="#2585d3" stroke-linecap="round" stroke-linejoin="round" stroke-width="1.5" d="M9.062 4.75l-4-4-4 4"></path>
  </symbol>
  <symbol xmlns="http://www.w3.org/2000/svg" viewBox="0 0 14.828 8.414" id="terra-featuretype-uparrow">
    <path fill="none" stroke="#5c7ef7" stroke-linecap="round" stroke-linejoin="round" stroke-width="2" d="M13.414 7l-6-6-6 6"></path>
  </symbol>
  <symbol xmlns="http://www.w3.org/2000/svg" viewBox="0 0 14.828 8.414" id="terra-featuretype-downarrow">
    <path fill="none" stroke="#737790" stroke-linecap="round" stroke-linejoin="round" stroke-width="2" d="M13.414 1.414l-6 6-6-6"></path>
  </symbol>
  <symbol xmlns="http://www.w3.org/2000/svg" viewBox="0 0 18.857 12" id="terra-unhide">
    <path fill="#171e48" d="M9.428 12C4.295 12 .257 6.52.096 6.3a.5.5 0 0 1 0-.591c.17-.234 4.206-5.7 9.332-5.7s9.171 5.48 9.332 5.7a.5.5 0 0 1 0 .591c-.161.22-4.197 5.7-9.332 5.7zM1.163 5.99c.9 1.114 4.31 4.992 8.264 4.992s7.366-3.871 8.264-4.992c-.9-1.114-4.31-4.992-8.264-4.992S2.063 4.875 1.163 5.99zm8.264 3.26a3.26 3.26 0 1 1 3.318-3.26 3.289 3.289 0 0 1-3.317 3.26zm0-5.5a2.241 2.241 0 1 0 2.281 2.241 2.261 2.261 0 0 0-2.28-2.242z"></path>
  </symbol>
  <symbol xmlns="http://www.w3.org/2000/svg" viewBox="0 0 18.86 17.209" id="terra-hide">
    <g fill="#171e48" opacity=".4">
      <path d="M9.43 13.918c-5.134 0-9.172-5.4-9.334-5.624a.489.489 0 0 1 0-.582c.17-.231 4.206-5.624 9.334-5.624s9.172 5.4 9.333 5.624a.489.489 0 0 1 0 .582c-.161.221-4.2 5.624-9.333 5.624zm-8.267-5.93c.9 1.1 4.31 4.921 8.266 4.921s7.368-3.816 8.266-4.921c-.9-1.1-4.31-4.921-8.266-4.921S2.063 6.894 1.163 7.988zm8.266 3.214a3.215 3.215 0 1 1 3.319-3.214 3.267 3.267 0 0 1-3.318 3.219zm0-5.423a2.21 2.21 0 1 0 2.282 2.209 2.246 2.246 0 0 0-2.281-2.2z"></path>
      <g stroke-linecap="round">
        <path d="M2.906 15.214l-.037-.038c-.5-.54-.5-1.388.001-1.928L13.25 2.034a1.311 1.311 0 0 1 1.905-.04l.037.04c.5.54.5 1.387 0 1.927L4.812 15.176a1.31 1.31 0 0 1-1.906.038z"></path>
        <path fill="#fafbfc" d="M14.625 2.525a.564.564 0 0 0-.826.019L3.42 13.758a.68.68 0 0 0 0 .909l.018.017a.563.563 0 0 0 .824-.017l10.38-11.215a.68.68 0 0 0-.001-.908l-.017-.017m1.06-1.061l.058.06c.764.825.765 2.12-.001 2.945L5.36 15.686c-.39.42-.915.658-1.482.668a2.054 2.054 0 0 1-1.504-.61 2.179 2.179 0 0 1-.057-3.007L12.699 1.525a2.063 2.063 0 0 1 2.987-.059z"></path>
      </g>
    </g>
  </symbol>
  <symbol xmlns="http://www.w3.org/2000/svg" viewBox="0 0 36 36" id="terra-map-details">
    <g transform="translate(1 1.331)">
      <circle cx="18" cy="18" r="18" fill="#fff" transform="translate(-1 -1.331)"></circle>
      <path fill="#5c617e" stroke="#5c617e" stroke-width=".5" d="M24.2 12.627a.96.96 0 0 1-.96-.96v-.068L11.717 9.827a.96.96 0 0 1-.957.881v11.519a.96.96 0 0 1 .957.881l11.523-1.773v-.068a.96.96 0 0 1 .96-.96zm.96 0v7.68a.96.96 0 0 1 .96.96v.96a.96.96 0 0 1-.96.96h-.96a.96.96 0 0 1-.957-.881L11.72 24.079v.068a.96.96 0 0 1-.96.96H9.8a.96.96 0 0 1-.96-.96v-.96a.96.96 0 0 1 .96-.96v-11.52a.96.96 0 0 1-.96-.96v-.96a.96.96 0 0 1 .96-.96h.96a.96.96 0 0 1 .96.96v.068l11.52 1.772a.96.96 0 0 1 .957-.881h.96a.96.96 0 0 1 .96.96v.96a.96.96 0 0 1-.957.961zm-14.4 11.031v-.471H9.8v.96h.96v-.489zm13.44-1.9v.469h.96v-.96h-.96v.489zM10.76 9.26v-.473H9.8v.96h.96V9.26zm13.44 1.934v.473h.96v-.96h-.96v.487z"></path>
    </g>
  </symbol>
  <symbol xmlns="http://www.w3.org/2000/svg" viewBox="0 0 30 30" id="terra-map-add">
    <g fill="#fff" stroke="#747891" stroke-dasharray="2.5 3" stroke-linecap="round" stroke-linejoin="bevel">
      <circle cx="15" cy="15" r="15" stroke="none"></circle>
      <circle cx="15" cy="15" r="14.5" fill="none"></circle>
    </g>
    <path fill="#6e748f" stroke="#6e748f" stroke-linecap="round" stroke-width=".3" d="M18.167 6.681a.651.651 0 0 0-.476.2l-.908.938-.551-.58a.676.676 0 0 0-.488-.2.651.651 0 0 0-.476.2l-8.2 8.468a.723.723 0 0 0 0 .993l1.46 1.495a.338.338 0 0 0 .421.056.633.633 0 0 1 .8.1.685.685 0 0 1 .1.825.365.365 0 0 0 .054.435l1.449 1.5a.67.67 0 0 0 .962 0l.895-.937.562.58a.67.67 0 0 0 .962 0l8.202-8.462a.723.723 0 0 0 0-.993l-1.46-1.494a.338.338 0 0 0-.421-.056.633.633 0 0 1-.8-.1.684.684 0 0 1-.1-.825.365.365 0 0 0-.054-.435l-1.446-1.508a.676.676 0 0 0-.486-.2zm0 .714h.008l1.319 1.372a1.363 1.363 0 0 0 .27 1.383 1.261 1.261 0 0 0 1.34.279l1.33 1.361v.015l-8.18 8.441h-.011l-.541-.565 5.794-5.979.108.111a.34.34 0 0 0 .488.006.367.367 0 0 0 .006-.507l-.108-.111.519-.547a.723.723 0 0 0 0-.993l-1.455-1.499a.338.338 0 0 0-.421-.056.633.633 0 0 1-.8-.1.685.685 0 0 1-.1-.825.365.365 0 0 0-.054-.435l-.4-.425zm-2.422.357h.011l.681.7a.354.354 0 0 0 .237.244l.4.422a1.364 1.364 0 0 0 .27 1.383 1.261 1.261 0 0 0 1.34.279l1.33 1.372-.7.736-.022.022-.033.022a.355.355 0 0 0-.043.056l-6.141 6.32a.355.355 0 0 0-.227.244l-1.014 1.051-1.332-1.373a1.364 1.364 0 0 0-.27-1.383 1.261 1.261 0 0 0-1.34-.279l-1.33-1.361v-.011l6.443-6.648.292.111.259-.189.011-.325-.076-.1zm-.813 1.952l-.249.177-.008.326.065.1.249.256.292.1.246-.182.011-.325-.065-.1-.249-.257zm.984 1.015l-.259.178-.011.325.076.1.237.244.292.115.259-.189.011-.325-.076-.1-.237-.244zm.976 1l-.249.178-.011.325.065.1.249.257.292.1.249-.178.011-.325-.065-.1-.249-.256zm.983 1.019l-.259.178-.011.325.076.1.237.256.292.1.259-.189.011-.312-.065-.111-.249-.244z"></path>
    <g transform="translate(-258 -294)">
      <ellipse cx="5.221" cy="5.137" fill="#fff" rx="5.221" ry="5.137" transform="translate(270.686 305.697)"></ellipse>
      <path fill="#6e748f" d="M279.179 310.43h-2.348v-2.307a.586.586 0 1 0-1.172 0v2.307h-2.342a.577.577 0 0 0 0 1.154h2.345v2.307a.586.586 0 0 0 1.172 0v-2.307h2.345a.577.577 0 0 0 0-1.154z"></path>
    </g>
  </symbol>
  <symbol xmlns="http://www.w3.org/2000/svg" viewBox="0 0 11.502 11.499" id="terra-cluster-close">
    <path fill="none" stroke="#171e48" stroke-linecap="round" stroke-linejoin="round" stroke-width="1.5" d="M5.751 5.747l-5 5 5-5-5-5 5 5 5-5-5 5 5 5z"></path>
  </symbol>
  <symbol xmlns="http://www.w3.org/2000/svg" viewBox="0 0 16.297 16.3" id="terra-cluster-setting">
    <path fill="#5b607e" stroke="#5b607e" stroke-width=".3" d="M8.67 16.15H7.633a.944.944 0 0 1-.8-.443 25.756 25.756 0 0 1-.768-1.344l-.829-.341c-.506.16-1.416.387-1.495.406a.947.947 0 0 1-.882-.253l-.735-.735a.946.946 0 0 1-.253-.882c.032-.138.25-1.007.406-1.495l-.341-.826A24.924 24.924 0 0 1 .593 9.47a.944.944 0 0 1-.443-.8V7.63a.944.944 0 0 1 .443-.8c.119-.075.888-.535 1.344-.768l.341-.826a31.546 31.546 0 0 1-.406-1.495.947.947 0 0 1 .253-.882l.735-.735a.946.946 0 0 1 .882-.253c.138.032 1.007.25 1.495.406l.826-.341c.243-.48.728-1.28.768-1.344A.944.944 0 0 1 7.63.15h1.037a.944.944 0 0 1 .8.443c.075.119.535.888.768 1.344l.826.341c.506-.16 1.416-.387 1.495-.406a.947.947 0 0 1 .882.253l.735.735a.946.946 0 0 1 .253.882c-.032.138-.25 1.007-.406 1.495l.341.826c.48.243 1.28.728 1.344.768a.944.944 0 0 1 .445.799v1.037a.944.944 0 0 1-.443.8c-.119.075-.888.535-1.344.768l-.334.829c.16.506.387 1.416.406 1.495a.947.947 0 0 1-.253.882l-.735.735a.947.947 0 0 1-.882.253 27.719 27.719 0 0 1-1.495-.406l-.826.341c-.243.48-.728 1.28-.768 1.344a.944.944 0 0 1-.8.443zm-3.41-3.079l1.451.6.072.16c.147.32.679 1.219.8 1.4a.061.061 0 0 0 .053.029h1.037a.061.061 0 0 0 .053-.029c.094-.15.64-1.063.8-1.4l.072-.16 1.456-.6.16.059c.331.122 1.341.381 1.554.432a.054.054 0 0 0 .056-.016l.735-.735a.056.056 0 0 0 .016-.056c-.04-.171-.3-1.2-.432-1.554l-.059-.16.6-1.453.16-.072c.32-.147 1.219-.679 1.4-.8a.061.061 0 0 0 .029-.053V7.63a.061.061 0 0 0-.029-.053c-.15-.094-1.063-.64-1.4-.8l-.16-.072-.6-1.456.059-.16c.122-.331.381-1.341.432-1.554a.061.061 0 0 0-.016-.056l-.735-.735a.056.056 0 0 0-.056-.016c-.171.04-1.2.3-1.554.432l-.16.059-1.459-.6-.072-.16c-.147-.32-.679-1.219-.8-1.4a.061.061 0 0 0-.056-.035H7.636a.061.061 0 0 0-.053.029c-.094.15-.64 1.063-.8 1.4l-.072.16-1.456.6-.16-.059c-.331-.115-1.345-.375-1.554-.424a.054.054 0 0 0-.056.016l-.735.733a.056.056 0 0 0-.016.056c.04.171.3 1.2.432 1.554l.059.16-.6 1.459-.16.072c-.315.15-1.215.679-1.403.8a.061.061 0 0 0-.029.05v1.04a.061.061 0 0 0 .029.053c.15.094 1.063.64 1.4.8l.16.072.6 1.456-.059.16c-.122.331-.381 1.341-.432 1.554a.061.061 0 0 0 .016.056l.735.735a.056.056 0 0 0 .056.016c.171-.04 1.2-.3 1.554-.432zm2.89-1.184a3.738 3.738 0 1 1 3.74-3.739 3.738 3.738 0 0 1-3.74 3.739zm0-6.592a2.853 2.853 0 1 0 2.853 2.853A2.853 2.853 0 0 0 8.15 5.295z"></path>
  </symbol>
  <symbol xmlns="http://www.w3.org/2000/svg" viewBox="0 0 15 19" id="terra-location-active">
    <path fill="#2585d3" fill-rule="evenodd" stroke="#fff" stroke-linecap="round" stroke-linejoin="round" d="M7.5.5a7.1 7.1 0 0 0-7 7.2c0 3.976 7 10.8 7 10.8s7-6.824 7-10.8a7.1 7.1 0 0 0-7-7.2zm0 2.4a4.439 4.439 0 0 1 4.375 4.5c0 1.746-2.122 4.673-3.407 6.3L7.5 14.859 6.532 13.7c-1.285-1.627-3.407-4.554-3.407-6.3A4.439 4.439 0 0 1 7.5 2.9z"></path>
    <g fill="#fff" stroke="#2585d3" stroke-width="1.5" transform="translate(5.5 4.648)">
      <circle cx="2" cy="2" r="2" stroke="none"></circle>
      <circle cx="2" cy="2" r="1.25" fill="none"></circle>
    </g>
  </symbol>
  <symbol xmlns="http://www.w3.org/2000/svg" viewBox="0 0 14.2 14.2" id="terra-create-duedate">
    <g fill="none" stroke="#5b607e" stroke-width="1.2">
      <path d="M7.1 13.6A6.5 6.5 0 1 0 .6 7.1a6.5 6.5 0 0 0 6.5 6.5z"></path>
      <path stroke-linecap="round" stroke-linejoin="round" d="M6.657 2.663v4.366L4.569 8.891"></path>
    </g>
  </symbol>
  <symbol xmlns="http://www.w3.org/2000/svg" viewBox="0 0 20 20" id="terra-add-tags">
    <g fill="#fff" stroke="#747891" stroke-dasharray="1.5 2" stroke-linecap="round" stroke-linejoin="bevel">
      <circle cx="10" cy="10" r="10" stroke="none"></circle>
      <circle cx="10" cy="10" r="9.5" fill="none"></circle>
    </g>
    <path fill="#747891" d="M8.14 14.193L5.307 11.36a1.065 1.065 0 0 1 0-1.494l4.185-4.221a1.059 1.059 0 0 1 .751-.312h2.866a1.063 1.063 0 0 1 1.058 1.058v2.865a1.06 1.06 0 0 1-.312.751l-4.222 4.188a1.063 1.063 0 0 1-1.493 0zm1.853-8.05L5.8 10.364a.346.346 0 0 0 0 .5l2.838 2.83a.347.347 0 0 0 .5 0l4.219-4.187a.354.354 0 0 0 .1-.251V6.391a.348.348 0 0 0-.348-.353h-2.866a.349.349 0 0 0-.25.105zm1.082 1.658a.623.623 0 1 1 .623.623.623.623 0 0 1-.623-.623z"></path>
  </symbol>
  <symbol xmlns="http://www.w3.org/2000/svg" viewBox="0 0 30 30" id="terra-submit-ticket">
    <g transform="translate(3 3)">
      <circle cx="15" cy="15" r="15" fill="#2585d3" transform="translate(-3 -3)"></circle>
      <path fill="#fff" d="M18.055 11.597L8.424 8.116c.254.699.544 1.435.802 2.138.54.095 6.06 1.25 6.139 1.33a.129.129 0 0 1-.01.17c-.134.133-4.892.366-5.487.395L8.082 13.3l2.31.08-.08 3.576c.788-.549 6.647-4.667 7.703-5.4zm.777-1.095c.904.37 1.014 1.37.052 2.014 0 0-7.178 5.033-7.921 5.537a1.14 1.14 0 0 1-1.837-.945l.017-2.48-1.926-.053c-.878-.076-.785-.963-.454-1.612.188-.347.94-1.735 1.266-2.299-.222-.58-.736-1.894-.841-2.268a1.17 1.17 0 0 1 1.563-1.563c3.373 1.239 6.836 2.384 10.167 3.662z"></path>
    </g>
  </symbol>
  <symbol xmlns="http://www.w3.org/2000/svg" viewBox="0 0 24 24" id="terra-filter-reload">
    <g transform="translate(-1153 -114)">
      <rect width="24" height="24" fill="#fff" rx="6" transform="translate(1153 114)"></rect>
      <path fill="#2585d3" d="M1171.292 126.019a.8.8 0 0 0-.906.708 5.2 5.2 0 0 1-1.545 3.121 5.489 5.489 0 0 1-7.642 0 3.912 3.912 0 0 1-.288-.3h.412a.81.81 0 1 0 0-1.619l-3.11-.04-.141 3.148a.819.819 0 0 0 .783.85h.041a.826.826 0 0 0 .824-.769l.021-.425a1.76 1.76 0 0 0 .268.283 7.151 7.151 0 0 0 9.969 0 6.763 6.763 0 0 0 2.019-4.067.776.776 0 0 0-.705-.89zm-12.584-.088h.1a.836.836 0 0 0 .824-.708 5.278 5.278 0 0 1 1.545-3.035 5.49 5.49 0 0 1 7.642 0 3.134 3.134 0 0 1 .247.263h-.388a.81.81 0 1 0 0 1.619l3.069.02.144-3.157a.825.825 0 0 0-1.648-.081l-.021.445c-.082-.081-.144-.162-.247-.263a7.151 7.151 0 0 0-9.99 0 6.9 6.9 0 0 0-1.977 3.986.805.805 0 0 0 .7.911z"></path>
    </g>
  </symbol>
  <symbol xmlns="http://www.w3.org/2000/svg" viewBox="0 0 16 16" id="terra-filter-search">
    <path fill="#5c617e" d="M15.783 14.616L12.8 11.661a7.2 7.2 0 0 0-.533-9.557 7.187 7.187 0 0 0-10.158 10.17 7.2 7.2 0 0 0 9.571.532l2.959 2.955a.768.768 0 0 0 .56.24.727.727 0 0 0 .56-.24.828.828 0 0 0 .024-1.145zM12.8 7.188a5.47 5.47 0 0 1-1.653 3.94A5.643 5.643 0 0 1 7.2 12.779a5.486 5.486 0 0 1-3.946-1.651 5.627 5.627 0 0 1-1.653-3.94 5.47 5.47 0 0 1 1.653-3.94A5.6 5.6 0 0 1 7.2 1.6a5.486 5.486 0 0 1 3.946 1.651A5.579 5.579 0 0 1 12.8 7.188z"></path>
  </symbol>
  <symbol xmlns="http://www.w3.org/2000/svg" viewBox="0 0 30 30" id="terra-gps">
    <path d="M15.5 2.997v24M14 26V16H4a1 1 0 0 1 0-2h10V4a1 1 0 0 1 2 0v10h10a1 1 0 0 1 0 2H16v10a1 1 0 0 1-2 0z" fill="#737790"></path>
    <g transform="translate(5.808 5.827)" fill="#fff" stroke="#737790" stroke-width="1.8">
      <circle cx="9.231" cy="9.231" r="9.231" stroke="none"></circle>
      <circle cx="9.231" cy="9.231" r="8.331" fill="none"></circle>
    </g>
    <g transform="translate(11.346 11.366)" fill="#fff" stroke="#737790" stroke-width="1.8">
      <circle cx="3.692" cy="3.692" r="3.692" stroke="none"></circle>
      <circle cx="3.692" cy="3.692" r="2.792" fill="none"></circle>
    </g>
  </symbol>
  <symbol xmlns="http://www.w3.org/2000/svg" viewBox="0 0 30 30" id="terra-gps-active">
    <path d="M14 26V16H4a1 1 0 0 1 0-2h10V4a1 1 0 0 1 2 0v10h10a1 1 0 0 1 0 2H16v10a1 1 0 0 1-2 0z" fill="#2585d3"></path>
    <g transform="translate(5.808 5.827)" fill="#fff" stroke="#2585d3" stroke-width="1.8">
      <circle cx="9.231" cy="9.231" r="9.231" stroke="none"></circle>
      <circle cx="9.231" cy="9.231" r="8.331" fill="none"></circle>
    </g>
    <g transform="translate(11.346 11.366)" fill="#fff" stroke="#2585d3" stroke-width="1.8">
      <circle cx="3.692" cy="3.692" r="3.692" stroke="none"></circle>
      <circle cx="3.692" cy="3.692" r="2.792" fill="none"></circle>
    </g>
  </symbol>
</svg>