<svg width="0" height="0" class="hidden">
  <symbol xmlns="http://www.w3.org/2000/svg" viewBox="0 0 42 42" id="add-assignee">
    <g transform="translate(-351 -233)">
      <path fill="#747891" stroke="#747891" stroke-linecap="round" stroke-width=".3" d="M378.13 256.21l-3.771-2.025a5.7 5.7 0 0 0 1.8-4.34v-2.43c0-1.62-2.215-3.414-4.46-3.414s-4.52 1.794-4.52 3.414v2.43a5.925 5.925 0 0 0 1.886 4.311l-3.861 2.025s-1.018.434-1.018.984v1.475a.993.993 0 0 0 1.018.984h12.956a.993.993 0 0 0 1.022-.984v-1.476c-.034-.549-1.052-.954-1.052-.954zm-.18 2.257h-12.568v-1.042a1.6 1.6 0 0 1 .3-.174c.03 0 .06-.029.09-.029l3.858-2.022a1.113 1.113 0 0 0 .629-.926 1.16 1.16 0 0 0-.449-1.013 4.775 4.775 0 0 1-1.437-3.414v-2.43c0-.839 1.616-2.257 3.322-2.257 1.736 0 3.263 1.418 3.263 2.257v2.43a4.677 4.677 0 0 1-1.317 3.414 1.1 1.1 0 0 0-.449 1.013 1.2 1.2 0 0 0 .629.926l3.771 2.025c.03.029.09.029.12.058a.793.793 0 0 1 .269.145v1.042z"></path>
      <ellipse cx="5.238" cy="5.154" fill="#fff" rx="5.238" ry="5.154" transform="translate(370.071 251.693)"></ellipse>
      <path fill="#747891" stroke="#747891" stroke-width=".2" d="M378.59 256.441h-2.352v-2.314a.588.588 0 0 0-1.176 0v2.315h-2.353a.579.579 0 1 0 0 1.157h2.352v2.315a.588.588 0 0 0 1.176 0v-2.315h2.352a.579.579 0 1 0 0-1.157z"></path>
    </g>
  </symbol>
  <symbol xmlns="http://www.w3.org/2000/svg" viewBox="0 0 42 42" id="add-status">
    <rect width="14" height="14" fill="#f79c4b" rx="2" transform="translate(14 13)"></rect>
  </symbol>
  <symbol xmlns="http://www.w3.org/2000/svg" viewBox="0 0 17.526 17.59" id="load-from-template">
    <path fill="#747891" stroke="#fff" stroke-linecap="round" stroke-linejoin="round" stroke-width=".5" d="M.483 10.232l2.85-3.359-1.692-4.1A.885.885 0 0 1 2.754 1.66l4.124 1.668 3.36-2.847a.839.839 0 0 1 .95-.116.882.882 0 0 1 .463.834l-.324 4.4 3.777 2.317a.863.863 0 0 1 .394.857.812.812 0 0 1-.649.695l-3.337.834 5.52 5.518a.852.852 0 0 1-1.2 1.2l-5.52-5.518-.811 3.313a.748.748 0 0 1-.232.394.806.806 0 0 1-.463.232.846.846 0 0 1-.857-.394l-2.323-3.773-4.4.324a.883.883 0 0 1-.834-.463.742.742 0 0 1 .091-.903zm5.515-.672a.865.865 0 0 1 .788.394l1.529 2.479.672-2.8a.748.748 0 0 1 .232-.394.984.984 0 0 1 .394-.232l2.827-.695-2.457-1.531a.781.781 0 0 1-.394-.788l.209-2.873-2.2 1.876a.87.87 0 0 1-.881.139L4.052 4.046 5.141 6.71a.836.836 0 0 1-.162.857l-1.877 2.2z"></path>
  </symbol>
  <symbol xmlns="http://www.w3.org/2000/svg" viewBox="0 0 42 42" id="no-priority">
    <path fill="#747891" fill-rule="evenodd" d="M20.654 23.857a.94.94 0 0 1 0 1.879.94.94 0 1 1 0-1.879zm8.908 3.378A3.149 3.149 0 0 1 26.779 29H15.205a3.127 3.127 0 0 1-2.764-1.736 3.767 3.767 0 0 1-.011-3.517l5.8-10.989a3.063 3.063 0 0 1 5.543 0l5.794 10.977a3.737 3.737 0 0 1-.005 3.5zm-1.262-.793a2.044 2.044 0 0 0 .011-1.906L22.517 13.55a1.672 1.672 0 0 0-3.027 0l-5.8 10.985a2.072 2.072 0 0 0 0 1.931 1.7 1.7 0 0 0 1.51.947h11.576a1.728 1.728 0 0 0 1.524-.971zm-7.86-8.987a.942.942 0 0 1 1.086.53 1.16 1.16 0 0 1 .086.47c-.023.47-.064.939-.086 1.409-.041.725-.086 1.451-.128 2.176-.022.237-.022.451-.022.684a.7.7 0 0 1-.7.684.688.688 0 0 1-.7-.661l-.192-3.371c-.023-.3-.041-.6-.064-.894a1.022 1.022 0 0 1 .72-1.027z"></path>
  </symbol>
  <symbol xmlns="http://www.w3.org/2000/svg" viewBox="0 0 16.629 16.5" id="tags">
    <path fill="#747891" stroke="#747891" stroke-linecap="round" stroke-linejoin="round" stroke-width=".5" d="M5.859 15.713L.915 10.769a1.858 1.858 0 0 1 0-2.607L8.22.795A1.849 1.849 0 0 1 9.531.25h5a1.855 1.855 0 0 1 1.848 1.846v5a1.851 1.851 0 0 1-.545 1.311l-7.368 7.31a1.856 1.856 0 0 1-2.606 0zM9.094 1.664L1.779 9.031a.6.6 0 0 0 0 .868l4.95 4.944a.607.607 0 0 0 .869 0l7.367-7.31a.617.617 0 0 0 .183-.438v-5a.607.607 0 0 0-.615-.615h-5a.609.609 0 0 0-.439.184zm1.885 2.894A1.087 1.087 0 1 1 12.07 5.65a1.087 1.087 0 0 1-1.091-1.092z"></path>
  </symbol>
  <symbol xmlns="http://www.w3.org/2000/svg" viewBox="0 0 19.4 16.4" id="teams">
    <path fill="#747891" stroke="#747891" stroke-width=".4" d="M14.929 16.2H4.4a.831.831 0 0 1-.826-.849v-1.272c.019-.386.569-.688.774-.788.072-.039.119-.06.119-.06l.058-.031 2.966-1.692a5.079 5.079 0 0 1-1.457-3.745v-2.1c0-1.4 1.8-2.947 3.622-2.947h.089c1.823 0 3.622 1.548 3.622 2.947v2.1a5.082 5.082 0 0 1-1.458 3.745l2.882 1.645.138.077s.056.025.137.07c.218.109.735.4.754.778v1.273a.83.83 0 0 1-.826.849zM7.048 5.667v2.1a4.253 4.253 0 0 0 1.165 2.945 1.029 1.029 0 0 1 .366.874.963.963 0 0 1-.511.8l-3.134 1.743c-.024 0-.049.023-.073.023a1.355 1.355 0 0 0-.243.151v.897h10.164v-.9a1.272 1.272 0 0 0-.242-.151c-.024 0-.049-.023-.073-.023l-3.134-1.747a.964.964 0 0 1-.511-.8 1.029 1.029 0 0 1 .366-.874 4.254 4.254 0 0 0 1.166-2.945v-2.1c0-.717-1.285-1.922-2.653-1.948-1.368.033-2.653 1.238-2.653 1.955zm9.72 8.038a1.694 1.694 0 0 0-.511-1h1.969v-.9a.661.661 0 0 0-.219-.124c-.024-.025-.073-.025-.1-.05L14.8 9.884a1.039 1.039 0 0 1-.509-.8.973.973 0 0 1 .364-.874 4.242 4.242 0 0 0 1.119-2.947V3.17c0-.75-1.288-1.972-2.7-1.972a3.053 3.053 0 0 0-1.874.649A4.96 4.96 0 0 0 9.989 1.7 4.246 4.246 0 0 1 13.074.2c1.824 0 3.67 1.571 3.67 2.97v2.1a5.105 5.105 0 0 1-1.482 3.745l3.111 1.747s.828.349.828.849v1.248a.833.833 0 0 1-.828.851zM1.026 13.7a.833.833 0 0 1-.826-.846v-1.247c0-.5.826-.849.826-.849l3.112-1.747a5.105 5.105 0 0 1-1.482-3.745V3.17C2.656 1.771 4.5.2 6.324.2a4.25 4.25 0 0 1 3.088 1.5 4.991 4.991 0 0 0-1.212.147A3.045 3.045 0 0 0 6.324 1.2c-1.408 0-2.7 1.222-2.7 1.972v2.1a4.241 4.241 0 0 0 1.122 2.941.973.973 0 0 1 .364.874 1.037 1.037 0 0 1-.509.8l-3.113 1.745c-.024.025-.072.025-.1.05a.636.636 0 0 0-.218.124v.9h1.971a1.7 1.7 0 0 0-.509 1z"></path>
  </symbol>
  <symbol xmlns="http://www.w3.org/2000/svg" viewBox="0 0 16.044 17.122" id="users">
    <path fill="#747891" stroke="#747891" stroke-width=".4" d="M4.453 13.844l3.08-1.826A5.427 5.427 0 0 1 6.067 8.1V5.913c0-1.461 1.809-3.078 3.642-3.078S13.4 4.452 13.4 5.913V8.1a5.627 5.627 0 0 1-1.54 3.887l3.153 1.826s.831.391.831.887v1.33a.853.853 0 0 1-.831.887H4.429a.853.853 0 0 1-.831-.887V14.7c.024-.491.855-.856.855-.856zm.147 2.035h10.266v-.939a1.281 1.281 0 0 0-.244-.157c-.024 0-.049-.026-.073-.026L11.4 12.931a1.009 1.009 0 0 1-.513-.835 1.1 1.1 0 0 1 .367-.913A4.543 4.543 0 0 0 12.422 8.1V5.913c0-.757-1.32-2.035-2.713-2.035a2.791 2.791 0 0 0-2.665 2.035V8.1a4.475 4.475 0 0 0 1.076 3.083 1.038 1.038 0 0 1 .367.913 1.088 1.088 0 0 1-.513.835l-3.08 1.826c-.024.026-.073.026-.1.052a.631.631 0 0 0-.22.13v.939zm-3.569-4.644L4.16 9.409A5.456 5.456 0 0 1 2.669 5.5V3.3C2.669 1.844 4.527.2 6.36.2a4.212 4.212 0 0 1 3.1 1.565 4.767 4.767 0 0 0-1.222.157 2.992 2.992 0 0 0-1.878-.678c-1.418 0-2.713 1.278-2.713 2.061V5.5a4.531 4.531 0 0 0 1.124 3.074 1.038 1.038 0 0 1 .367.913 1.088 1.088 0 0 1-.513.835L1.5 12.148c-.024.026-.073.026-.1.052a.631.631 0 0 0-.22.13v.939h1.98a1.789 1.789 0 0 0-.513 1.044H1.031a.853.853 0 0 1-.831-.887v-1.3c0-.526.831-.891.831-.891z"></path>
  </symbol>
  <symbol xmlns="http://www.w3.org/2000/svg" viewBox="0 0 14 16" id="watch">
    <path fill="#747891" d="M2.1 0A2.027 2.027 0 0 0 0 1.922V16l7-3.7 7 3.7V1.922A2.027 2.027 0 0 0 11.9 0zm0 1.281h9.8a.663.663 0 0 1 .7.641v11.55L7 10.713l-5.6 2.759V1.922a.663.663 0 0 1 .7-.641z"></path>
    <path d="M9.5 5.5h-2v-2a.5.5 0 0 0-1 0v2h-2a.5.5 0 0 0 0 1h2v2a.5.5 0 1 0 1 0v-2h2a.5.5 0 1 0 0-1z"></path>
  </symbol>
   <symbol fill="#747891" xmlns="http://www.w3.org/2000/svg" viewBox="0 0 30 30" id="share">
    <g fill="#fff" stroke="#747891" stroke-dasharray="1.5 2" stroke-linecap="round" stroke-linejoin="bevel">
      <circle cx="15" cy="15" r="15" stroke="none"></circle>
      <circle cx="15" cy="15" r="14.5" fill="none"></circle>
    </g>
    <path d="M19.749 21h-9.11a.724.724 0 0 1-.715-.743v-1.112c.017-.338.493-.6.67-.69.062-.034.1-.053.1-.053l.047-.026 2.57-1.476a4.472 4.472 0 0 1-1.262-3.282v-1.834c0-1.224 1.556-2.579 3.135-2.579h.077c1.578 0 3.135 1.355 3.135 2.579v1.834a4.475 4.475 0 0 1-1.261 3.282l2.494 1.439.119.068s.048.022.119.062c.189.1.636.354.653.681v1.114a.722.722 0 0 1-.715.743zm-6.821-9.216v1.834a3.744 3.744 0 0 0 1.008 2.582.905.905 0 0 1 .317.765.843.843 0 0 1-.443.7l-2.71 1.524c-.021 0-.042.02-.064.02a1.171 1.171 0 0 0-.211.132v.787h8.8v-.787a1.1 1.1 0 0 0-.209-.132c-.021 0-.042-.02-.064-.02l-2.716-1.529a.845.845 0 0 1-.443-.7.905.905 0 0 1 .317-.76 3.745 3.745 0 0 0 1.009-2.577v-1.839c0-.627-1.112-1.682-2.3-1.705-1.179.021-2.291 1.078-2.291 1.705zm8.414 7.034a1.487 1.487 0 0 0-.442-.875h1.7v-.787a.571.571 0 0 0-.19-.108c-.021-.022-.064-.022-.085-.044l-2.688-1.529a.91.91 0 0 1-.441-.7.856.856 0 0 1 .315-.765 3.736 3.736 0 0 0 .969-2.579V9.6a2.437 2.437 0 0 0-2.337-1.727 2.624 2.624 0 0 0-1.62.568 4.249 4.249 0 0 0-1.051-.13A3.661 3.661 0 0 1 18.143 7c1.579 0 3.177 1.375 3.177 2.6v1.833a4.5 4.5 0 0 1-1.283 3.277l2.692 1.529s.716.305.716.743v1.092a.725.725 0 0 1-.716.744zm-13.626 0A.725.725 0 0 1 7 18.073v-1.091c0-.436.715-.743.715-.743l2.694-1.529a4.5 4.5 0 0 1-1.283-3.277V9.6c0-1.225 1.598-2.6 3.174-2.6a3.664 3.664 0 0 1 2.674 1.31 4.275 4.275 0 0 0-1.053.13 2.618 2.618 0 0 0-1.621-.567A2.436 2.436 0 0 0 9.967 9.6v1.833a3.735 3.735 0 0 0 .968 2.579.856.856 0 0 1 .315.765.908.908 0 0 1-.441.7L8.115 17c-.021.022-.062.022-.084.044a.549.549 0 0 0-.189.108v.787h1.7a1.49 1.49 0 0 0-.441.875z"></path>
    <g transform="translate(14.442 10.465)">
      <ellipse cx="5.768" cy="5.693" fill="#fff" rx="5.768" ry="5.693"></ellipse>
      <path d="M7.172 5.754H5.214V3.796a.49.49 0 0 0-.979 0v1.958H2.277a.49.49 0 0 0 0 .979h1.958v1.958a.49.49 0 0 0 .979 0V6.733h1.958a.49.49 0 0 0 0-.979z"></path>
    </g>
  </symbol>
</svg>