<svg xmlns="http://www.w3.org/2000/svg" xmlns:xlink="http://www.w3.org/1999/xlink" width="0" height="0" class="hidden">
  <symbol xmlns="http://www.w3.org/2000/svg" viewBox="0 0 24 24" id="3dots-menu">
    <path fill="rgba(255,255,255,0)" d="M0 0h24v24H0z"></path>
    <path d="M10 19.992a2.06 2.06 0 0 1 2-2.007 2.037 2.037 0 0 1 2 2.007 2.02 2.02 0 0 1-2 2.007 2.042 2.042 0 0 1-2-2.007zm0-7.994a2.06 2.06 0 0 1 2-2.007 2.037 2.037 0 0 1 2 2.007 2.018 2.018 0 0 1-2 2.007 2.04 2.04 0 0 1-2-2.007zm0-7.991A2.06 2.06 0 0 1 12 2a2.037 2.037 0 0 1 2 2.007 2.018 2.018 0 0 1-2 2.007 2.04 2.04 0 0 1-2-2.007z" fill="#737891"></path>
  </symbol>
  <symbol xmlns="http://www.w3.org/2000/svg" viewBox="0 0 24 24" id="3dots-menu-horizontal">
    <path fill="rgba(255,255,255,0)" d="M0 0h24v24H0z"></path>
    <path d="M4.007 10a2.06 2.06 0 0 1 2.007 2A2.007 2.007 0 0 1 2 12a2.042 2.042 0 0 1 2.007-2zM12 10a2.06 2.06 0 0 1 2.009 2 2.007 2.007 0 0 1-4.015 0A2.04 2.04 0 0 1 12 10zm7.993 0A2.06 2.06 0 0 1 22 12a2.037 2.037 0 0 1-2.007 2 2.018 2.018 0 0 1-2.008-2 2.04 2.04 0 0 1 2.008-2z" fill="#171e48"></path>
  </symbol>
  <symbol xmlns="http://www.w3.org/2000/svg" viewBox="0 0 24 24" id="3dots-menu-small">
    <path fill="rgba(255,255,255,0)" d="M0 0h24v24H0z"></path>
    <path d="M4.007 10a2.06 2.06 0 0 1 2.007 2A2.007 2.007 0 0 1 2 12a2.042 2.042 0 0 1 2.007-2zM12 10a2.06 2.06 0 0 1 2.009 2 2.007 2.007 0 0 1-4.015 0A2.04 2.04 0 0 1 12 10zm7.993 0A2.06 2.06 0 0 1 22 12a2.037 2.037 0 0 1-2.007 2 2.018 2.018 0 0 1-2.008-2 2.04 2.04 0 0 1 2.008-2z" fill="#5b607e"></path>
  </symbol>
  <symbol xmlns="http://www.w3.org/2000/svg" viewBox="0 0 36 36" id="activity">
    <path fill="rgba(255,255,255,0)" d="M0 0h36v36H0z"></path>
    <path d="M18.5 4.5a14 14 0 1 0 14 14 14 14 0 0 0-14-14zm9.333 14.879h-2.478l-1.9 3.557-3.224-8.322-2.594 7.042-2.252-5.182-1.153 2.906h-5.07v-.195H14.1l1.276-3.218 2.246 5.167 2.6-7.07 3.257 8.406 1.751-3.286h2.595v.195z" fill="none" stroke="#5c617f" stroke-linecap="round" stroke-linejoin="round" stroke-miterlimit="10" stroke-width="1.5"></path>
  </symbol>
  <symbol xmlns="http://www.w3.org/2000/svg" viewBox="0 0 46 46" id="add-assignee">
    <defs>
      <filter id="a" x="0" y="0" width="46" height="46" filterUnits="userSpaceOnUse">
        <feOffset dy="2"></feOffset>
        <feGaussianBlur stdDeviation="2" result="blur"></feGaussianBlur>
        <feFlood flood-opacity=".078"></feFlood>
        <feComposite operator="in" in2="blur"></feComposite>
        <feComposite in="SourceGraphic"></feComposite>
      </filter>
    </defs>
    <g transform="translate(6.001 4.001)" fill="#fff" stroke="rgba(23,30,72,0.1)" filter="url(#a)">
      <circle cx="17" cy="17" r="17" stroke="none"></circle>
      <circle cx="17" cy="17" r="16.5" fill="none"></circle>
    </g>
    <path d="M29.262 24.719l-3.959-2.161c1.477-1.142 1.885-3.365 1.885-4.63v-2.593c0-1.729-2.325-3.643-4.682-3.643s-4.745 1.914-4.745 3.643v2.593a6.372 6.372 0 0 0 1.98 4.6l-4.055 2.164s-1.068.463-1.068 1.05v1.57a1.05 1.05 0 0 0 1.068 1.05h13.607a1.05 1.05 0 0 0 1.068-1.05v-1.574c-.031-.587-1.099-1.019-1.099-1.019zm-.189 2.408h-13.2v-1.112a1.671 1.671 0 0 1 .314-.185c.031 0 .063-.031.094-.031l4.054-2.161a1.187 1.187 0 0 0 .66-.988 1.246 1.246 0 0 0-.471-1.08 5.137 5.137 0 0 1-1.506-3.642v-2.593c0-.9 1.7-2.408 3.488-2.408 1.823 0 3.425 1.513 3.425 2.408v2.593c0 .957-.314 2.809-1.383 3.643a1.182 1.182 0 0 0-.471 1.08 1.278 1.278 0 0 0 .66.988l3.959 2.161c.031.031.094.031.126.062a.828.828 0 0 1 .283.154v1.111z" fill="#999db0"></path>
    <g transform="translate(20.999 19.999)" fill="#fff" stroke="#fff">
      <circle cx="5.5" cy="5.5" r="5.5" stroke="none"></circle>
      <circle cx="5.5" cy="5.5" r="5" fill="none"></circle>
    </g>
    <path d="M29.744 24.966h-2.47v-2.47a.618.618 0 1 0-1.235 0v2.47h-2.47a.618.618 0 1 0 0 1.235h2.47v2.47a.618.618 0 0 0 1.235 0v-2.47h2.47a.618.618 0 0 0 0-1.235z" fill="#999db0" stroke="#999db0" stroke-width=".2"></path>
  </symbol>
  <symbol xmlns="http://www.w3.org/2000/svg" viewBox="0 0 41 41" id="add-attachment">
    <defs>
      <filter id="a" x="0" y="0" width="41" height="41" filterUnits="userSpaceOnUse">
        <feOffset dy="2"></feOffset>
        <feGaussianBlur stdDeviation="2.5" result="blur"></feGaussianBlur>
        <feFlood flood-color="#2585d3" flood-opacity=".2"></feFlood>
        <feComposite operator="in" in2="blur"></feComposite>
        <feComposite in="SourceGraphic"></feComposite>
      </filter>
    </defs>
    <g transform="translate(7.5 5.5)" fill="#fff" stroke="#2585d3" stroke-width="1.7" filter="url(#a)">
      <rect width="26" height="26" rx="13" stroke="none"></rect>
      <rect x=".85" y=".85" width="24.3" height="24.3" rx="12.15" fill="none"></rect>
    </g>
    <path d="M24.833 17.633h-3.466v-3.466a.867.867 0 0 0-1.733 0v3.467h-3.467a.867.867 0 0 0 0 1.733h3.467v3.467a.867.867 0 0 0 1.733 0v-3.467h3.467a.867.867 0 0 0 0-1.733z" fill="#2585d3"></path>
  </symbol>
  <symbol xmlns="http://www.w3.org/2000/svg" viewBox="0 0 46 46" id="add-duedate">
    <defs>
      <filter id="a" x="0" y="0" width="46" height="46" filterUnits="userSpaceOnUse">
        <feOffset dy="2"></feOffset>
        <feGaussianBlur stdDeviation="2" result="blur"></feGaussianBlur>
        <feFlood flood-opacity=".078"></feFlood>
        <feComposite operator="in" in2="blur"></feComposite>
        <feComposite in="SourceGraphic"></feComposite>
      </filter>
    </defs>
    <g transform="translate(6.001 4.001)" fill="#fff" stroke="rgba(23,30,72,0.1)" filter="url(#a)">
      <circle cx="17" cy="17" r="17" stroke="none"></circle>
      <circle cx="17" cy="17" r="16.5" fill="none"></circle>
    </g>
    <g fill="none" stroke="#999db0" stroke-width="1.5">
      <path d="M23 29a8 8 0 1 0-8-8 8 8 0 0 0 8 8z"></path>
      <path d="M22.955 15.539v5.373l-2.57 2.292" stroke-linecap="round" stroke-linejoin="round"></path>
    </g>
  </symbol>
  <symbol xmlns="http://www.w3.org/2000/svg" viewBox="0 0 46 46" id="add-priority">
    <defs>
      <filter id="a" x="0" y="0" width="46" height="46" filterUnits="userSpaceOnUse">
        <feOffset dy="2"></feOffset>
        <feGaussianBlur stdDeviation="2" result="blur"></feGaussianBlur>
        <feFlood flood-opacity=".078"></feFlood>
        <feComposite operator="in" in2="blur"></feComposite>
        <feComposite in="SourceGraphic"></feComposite>
      </filter>
    </defs>
    <g transform="translate(6.001 4.001)" fill="#fff" stroke="rgba(23,30,72,0.1)" filter="url(#a)">
      <circle cx="17" cy="17" r="17" stroke="none"></circle>
      <circle cx="17" cy="17" r="16.5" fill="none"></circle>
    </g>
    <path d="M21.972 22.551a.865.865 0 0 1 0 1.73.865.865 0 1 1 0-1.73zm8.2 3.111a2.9 2.9 0 0 1-2.562 1.625H16.955a2.879 2.879 0 0 1-2.545-1.6 3.469 3.469 0 0 1-.01-3.239l5.342-10.118a2.821 2.821 0 0 1 5.1 0l5.34 10.112a3.441 3.441 0 0 1-.007 3.22zm-1.158-.731a1.882 1.882 0 0 0 .01-1.756L23.687 13.06a1.54 1.54 0 0 0-2.787 0l-5.342 10.112a1.908 1.908 0 0 0 0 1.778 1.568 1.568 0 0 0 1.39.872h10.661a1.591 1.591 0 0 0 1.407-.89zm-7.24-8.275a.867.867 0 0 1 1 .488 1.069 1.069 0 0 1 .08.433c-.021.433-.059.865-.08 1.3-.038.668-.08 1.336-.118 2-.021.218-.021.415-.021.63a.647.647 0 0 1-.647.63.634.634 0 0 1-.647-.609l-.176-3.1c-.021-.273-.038-.55-.059-.824a.941.941 0 0 1 .668-.948z" fill="#999db0" stroke="#999db0" stroke-width=".2" fill-rule="evenodd"></path>
    <g transform="translate(22.999 17)" fill="#fff" stroke="#fff">
      <circle cx="5.5" cy="5.5" r="5.5" stroke="none"></circle>
      <circle cx="5.5" cy="5.5" r="5" fill="none"></circle>
    </g>
    <path d="M31.948 21.806h-2.48v-2.48a.62.62 0 0 0-1.24 0v2.48h-2.481a.62.62 0 0 0 0 1.24h2.48v2.48a.62.62 0 0 0 1.24 0v-2.48h2.48a.62.62 0 0 0 0-1.24z" fill="#999db0" stroke="#999db0" stroke-width=".2"></path>
  </symbol>
  <symbol xmlns="http://www.w3.org/2000/svg" viewBox="0 0 38 34" id="add-tag">
    <g fill="#fff" stroke="rgba(23,30,72,0.1)" stroke-linecap="round" stroke-linejoin="round">
      <path d="M1.214 0H21a17 17 0 0 1 17 17 17 17 0 0 1-17 17H1.214A1.214 1.214 0 0 1 0 32.786V1.214A1.214 1.214 0 0 1 1.214 0z" stroke="none"></path>
      <path d="M1.4.5H21A16.5 16.5 0 0 1 37.5 17 16.5 16.5 0 0 1 21 33.5H1.4a.9.9 0 0 1-.9-.9V1.4a.9.9 0 0 1 .9-.9z" fill="none"></path>
    </g>
    <path d="M15.138 24.5L10.5 19.862a1.742 1.742 0 0 1 0-2.444l6.851-6.907A1.733 1.733 0 0 1 18.58 10h4.689A1.739 1.739 0 0 1 25 11.731v4.689a1.735 1.735 0 0 1-.511 1.229L17.581 24.5a1.74 1.74 0 0 1-2.443 0zm3.032-13.174l-6.853 6.906a.566.566 0 0 0 0 .813l4.634 4.635a.569.569 0 0 0 .815 0l6.908-6.85a.578.578 0 0 0 .172-.41v-4.689a.569.569 0 0 0-.577-.576H18.58a.571.571 0 0 0-.41.171zm1.771 2.713a1.02 1.02 0 1 1 1.019 1.02 1.019 1.019 0 0 1-1.019-1.02z" fill="#6e748f" opacity=".7"></path>
  </symbol>
  <symbol xmlns="http://www.w3.org/2000/svg" viewBox="0 0 18 18" id="add-task">
    <path fill="rgba(255,255,255,0)" d="M0 0h18v18H0z"></path>
    <path d="M14.833 7.833h-4.666V3.167a1.167 1.167 0 0 0-2.333 0v4.667H3.167a1.167 1.167 0 0 0 0 2.333h4.667v4.667a1.167 1.167 0 1 0 2.333 0v-4.667h4.667a1.167 1.167 0 1 0 0-2.333z" fill="#5c617e"></path>
  </symbol>
  <symbol xmlns="http://www.w3.org/2000/svg" viewBox="0 0 24 24" id="add-users-teams">
    <path fill="rgba(255,255,255,0)" d="M0 0h24v24H0z"></path>
    <g transform="translate(1 1)" fill="#fff" stroke-linejoin="bevel" stroke-dasharray="2 2" stroke="#6e748f" stroke-linecap="round">
      <circle cx="11" cy="11" r="11" stroke="none"></circle>
      <circle cx="11" cy="11" r="10.5" fill="none"></circle>
    </g>
  </symbol>
  <symbol xmlns="http://www.w3.org/2000/svg" viewBox="0 0 24 24" id="archive">
    <path fill="rgba(255,255,255,0)" d="M0 0h24v24H0z"></path>
    <g fill="#747891" stroke-width=".3">
      <path d="M6.684 3a1.838 1.838 0 0 0-1.519.9l-2 3.234A2.185 2.185 0 0 0 3 7.95V19.2A1.805 1.805 0 0 0 4.8 21h14.4a1.805 1.805 0 0 0 1.8-1.8V7.95a3.176 3.176 0 0 0-.169-.9l-2-3.15a1.838 1.838 0 0 0-1.515-.9zm0 1.8h10.632l1.069 1.8H5.616zM4.8 8.4h14.4v10.8H4.8z" stroke="#fff"></path>
      <path d="M14.36 14.513l-2.012 1.845c0 .005-.008.008-.011.01a.491.491 0 0 1-.265.123h-.025a.324.324 0 0 1-.049 0h-.071a.482.482 0 0 1-.265-.123l-.011-.01-2.012-1.845a.416.416 0 0 1 0-.621.513.513 0 0 1 .677 0L11.526 15v-4.062A.461.461 0 0 1 12 10.5a.512.512 0 0 1 .339.128.415.415 0 0 1 .139.31V15l1.209-1.109a.513.513 0 0 1 .677 0 .422.422 0 0 1-.004.622z" stroke="#747891" stroke-linecap="round" stroke-linejoin="round"></path>
    </g>
  </symbol>
  <symbol xmlns="http://www.w3.org/2000/svg" viewBox="0 0 24 24" id="archive-large">
    <path fill="rgba(255,255,255,0)" d="M0 0h24v24H0z"></path>
    <g fill="#747891">
      <path d="M6.684 3a1.838 1.838 0 0 0-1.519.9l-2 3.234A2.185 2.185 0 0 0 3 7.95V19.2A1.805 1.805 0 0 0 4.8 21h14.4a1.805 1.805 0 0 0 1.8-1.8V7.95a3.176 3.176 0 0 0-.169-.9l-2-3.15a1.838 1.838 0 0 0-1.515-.9zm0 1.8h10.632l1.069 1.8H5.616zM4.8 8.4h14.4v10.8H4.8z" stroke="#fff" stroke-width=".5"></path>
      <path d="M14.18 14.493l-1.86 1.705-.01.009a.454.454 0 0 1-.245.113h-.023a.3.3 0 0 1-.045 0h-.066a.446.446 0 0 1-.245-.113l-.01-.009-1.86-1.705a.384.384 0 0 1 0-.574.474.474 0 0 1 .626 0l1.118 1.025v-3.76a.426.426 0 0 1 .442-.4.473.473 0 0 1 .313.118.384.384 0 0 1 .129.287v3.755l1.118-1.025a.474.474 0 0 1 .626 0 .39.39 0 0 1-.008.574z" stroke="#747891" stroke-linecap="round" stroke-linejoin="round" stroke-width=".3"></path>
    </g>
  </symbol>
  <symbol xmlns="http://www.w3.org/2000/svg" viewBox="0 0 24 24" id="assignee">
    <path fill="rgba(255,255,255,0)" d="M0 0h24v24H0z"></path>
    <path d="M19.812 17.067l-4.275-2.333c1.595-1.233 2.036-3.633 2.036-5v-2.8c0-1.867-2.511-3.933-5.056-3.933S7.393 5.068 7.393 6.934v2.8A6.881 6.881 0 0 0 9.531 14.7l-4.377 2.333S4 17.533 4 18.166v1.7A1.134 1.134 0 0 0 5.154 21h14.692A1.134 1.134 0 0 0 21 19.867v-1.7c-.034-.634-1.188-1.1-1.188-1.1zm-.2 2.6H5.357v-1.2a1.8 1.8 0 0 1 .339-.2c.034 0 .068-.033.1-.033l4.38-2.334a1.282 1.282 0 0 0 .713-1.067 1.346 1.346 0 0 0-.509-1.167 5.547 5.547 0 0 1-1.629-3.933v-2.8c0-.967 1.832-2.6 3.766-2.6 1.968 0 3.7 1.633 3.7 2.6v2.8c0 1.033-.339 3.033-1.493 3.933a1.277 1.277 0 0 0-.509 1.167 1.38 1.38 0 0 0 .713 1.067l4.272 2.333c.034.033.1.033.136.067a.894.894 0 0 1 .305.167v1.2z" fill="#747891"></path>
  </symbol>
  <symbol xmlns="http://www.w3.org/2000/svg" viewBox="0 0 52 52" id="assignee-add">
    <defs>
      <filter id="a" x="0" y="0" width="52" height="52" filterUnits="userSpaceOnUse">
        <feOffset dy="2"></feOffset>
        <feGaussianBlur stdDeviation="2" result="blur"></feGaussianBlur>
        <feFlood flood-opacity=".078"></feFlood>
        <feComposite operator="in" in2="blur"></feComposite>
        <feComposite in="SourceGraphic"></feComposite>
      </filter>
    </defs>
    <g transform="translate(6 4)" fill="#fff" stroke="rgba(23,30,72,0.1)" filter="url(#a)">
      <circle cx="20" cy="20" r="20" stroke="none"></circle>
      <circle cx="20" cy="20" r="19.5" fill="none"></circle>
    </g>
    <path d="M33.519 28.466l-4.754-2.594c1.773-1.371 2.264-4.04 2.264-5.559v-3.114c0-2.075-2.792-4.373-5.621-4.373s-5.7 2.3-5.7 4.373v3.113c0 1.371.6 4.151 2.377 5.522l-4.864 2.592s-1.283.556-1.283 1.26v1.89a1.261 1.261 0 0 0 1.283 1.26h16.336a1.261 1.261 0 0 0 1.283-1.26v-1.89c-.038-.701-1.321-1.22-1.321-1.22zm-.226 2.891H17.447v-1.331a2.006 2.006 0 0 1 .377-.222c.038 0 .075-.037.113-.037l4.867-2.594a1.426 1.426 0 0 0 .792-1.186 1.5 1.5 0 0 0-.566-1.3 6.167 6.167 0 0 1-1.811-4.373v-3.115c0-1.075 2.037-2.891 4.188-2.891 2.188 0 4.112 1.816 4.112 2.891v3.113c0 1.149-.377 3.373-1.66 4.373a1.419 1.419 0 0 0-.566 1.3 1.534 1.534 0 0 0 .792 1.186l4.753 2.592c.038.037.113.037.151.074a.994.994 0 0 1 .34.185v1.334z" fill="#999db0"></path>
    <g transform="translate(24.001 23)" fill="#fff" stroke="#fff">
      <circle cx="6.5" cy="6.5" r="6.5" stroke="none"></circle>
      <circle cx="6.5" cy="6.5" r="6" fill="none"></circle>
    </g>
    <path d="M34.098 28.762h-2.964v-2.965a.741.741 0 1 0-1.482 0v2.965h-2.966a.741.741 0 1 0 0 1.482h2.965v2.965a.741.741 0 0 0 1.482 0v-2.964h2.965a.741.741 0 0 0 0-1.482z" fill="#999db0" stroke="#999db0" stroke-width=".2"></path>
  </symbol>
  <symbol xmlns="http://www.w3.org/2000/svg" viewBox="0 0 45 45" id="assignee-add-thinner">
    <defs>
      <filter id="a" x="0" y="0" width="45" height="45" filterUnits="userSpaceOnUse">
        <feOffset dy="1"></feOffset>
        <feGaussianBlur stdDeviation="1.5" result="blur"></feGaussianBlur>
        <feFlood flood-color="#171e48" flood-opacity=".102"></feFlood>
        <feComposite operator="in" in2="blur"></feComposite>
        <feComposite in="SourceGraphic"></feComposite>
      </filter>
    </defs>
    <g transform="translate(4.5 3.5)" fill="#fff" stroke="#b9bbc7" filter="url(#a)">
      <circle cx="18" cy="18" r="18" stroke="none"></circle>
      <circle cx="18" cy="18" r="17.5" fill="none"></circle>
    </g>
    <path d="M29.103 25.432l-4.159-2.27c1.552-1.2 1.981-3.535 1.981-4.864v-2.724c0-1.816-2.443-3.827-4.919-3.827s-4.986 2.011-4.986 3.827v2.724a6.694 6.694 0 0 0 2.08 4.832l-4.258 2.27s-1.122.486-1.122 1.1v1.654a1.1 1.1 0 0 0 1.122 1.1h14.294a1.1 1.1 0 0 0 1.122-1.1v-1.652c-.032-.616-1.155-1.07-1.155-1.07zm-.2 2.529H15.04v-1.167a1.756 1.756 0 0 1 .33-.195c.033 0 .066-.032.1-.032l4.258-2.27a1.247 1.247 0 0 0 .693-1.038 1.309 1.309 0 0 0-.5-1.135 5.4 5.4 0 0 1-1.585-3.827v-2.723c0-.94 1.783-2.529 3.664-2.529 1.915 0 3.6 1.589 3.6 2.529v2.724c0 1.005-.33 2.951-1.452 3.827a1.242 1.242 0 0 0-.5 1.135 1.342 1.342 0 0 0 .693 1.038l4.159 2.27c.033.032.1.032.132.065a.87.87 0 0 1 .3.162v1.167z" fill="#999db0"></path>
    <g transform="translate(20.775 20.65)" fill="#fff" stroke="#fff">
      <circle cx="5.688" cy="5.688" r="5.688" stroke="none"></circle>
      <circle cx="5.688" cy="5.688" r="5.188" fill="none"></circle>
    </g>
    <path d="M29.61 25.691h-2.594v-2.594a.65.65 0 1 0-1.3 0v2.594h-2.591a.65.65 0 1 0 0 1.3h2.594v2.594a.65.65 0 1 0 1.3 0v-2.597h2.594a.65.65 0 1 0 0-1.3z" fill="#999db0" stroke="#999db0" stroke-width=".2"></path>
  </symbol>
  <symbol xmlns="http://www.w3.org/2000/svg" viewBox="0 0 18 18" id="at-symbol">
    <path fill="rgba(255,255,255,0)" d="M0 0h18v18H0z"></path>
    <path d="M7.759 12.897l-.046.043.936.923 5.037-4.966-.936-.923-4.991 4.923a.669.669 0 0 1 .936 0 .646.646 0 0 1 0 .923 2.451 2.451 0 0 1-3.432 0 2.368 2.368 0 0 1 0-3.383l6.863-6.766a.669.669 0 0 1 .936 0 .646.646 0 0 1 0 .923l-6.863 6.765a1.077 1.077 0 0 0 0 1.538 1.114 1.114 0 0 0 1.56 0l6.863-6.766a2.8 2.8 0 0 0 0-4 2.9 2.9 0 0 0-4.056 0L3.703 8.899a4.521 4.521 0 0 0 0 6.459 4.68 4.68 0 0 0 6.551 0l5.615-5.536a.669.669 0 0 1 .936 0 .646.646 0 0 1 0 .923l-5.614 5.535a6.017 6.017 0 0 1-8.423 0 5.759 5.759 0 0 1-.046-8.259L9.631 1.21a4.234 4.234 0 0 1 5.927 0 4.091 4.091 0 0 1 0 5.843l-6.909 6.812-.936-.925z" fill="#747891" fill-rule="evenodd"></path>
  </symbol>
  <symbol xmlns="http://www.w3.org/2000/svg" viewBox="0 0 24 24" id="attachment">
    <path fill="rgba(255,255,255,0)" d="M0 0h24v24H0z"></path>
    <path d="M10.301 21.863a9.467 9.467 0 0 1-8.114-7.571A11.364 11.364 0 0 1 3.71 6.4C6.39 2.179 12.138.776 17.037 3.149a8.265 8.265 0 0 1 4.622 9.97 10.413 10.413 0 0 1-1.166 2.688 6.447 6.447 0 0 1-1.814 1.39 3.219 3.219 0 0 1-2.631 0 3.367 3.367 0 0 1-1.591-1.285c-.092-.19-.2-.346-.237-.345a1.811 1.811 0 0 0-.418.324 5.758 5.758 0 0 1-4.333 1.35 3.622 3.622 0 0 1-3.228-3.065 7.9 7.9 0 0 1 1.83-5.524 5.654 5.654 0 0 1 5.777-2.32c2.409.616 3.15 2.4 2.435 5.861-.293 1.421-.312 2.347-.057 2.73a1.611 1.611 0 0 0 1.329.581 2.618 2.618 0 0 0 1.569-1.307 8.077 8.077 0 0 0 .71-4.988c-.711-2.78-3.4-4.821-6.825-5.187a7.933 7.933 0 0 0-7.158 2.814 9.339 9.339 0 0 0-1.8 6.334 7.3 7.3 0 0 0 2.234 4.6 5.484 5.484 0 0 0 1.847 1.345 7.757 7.757 0 0 0 3.982.875 8.247 8.247 0 0 0 2.389-.22 12.037 12.037 0 0 0 4.318-1.93 3.5 3.5 0 0 1 1.016-.52 1.045 1.045 0 0 1 .9.5c.343.651.1 1.078-1.066 1.841a13.5 13.5 0 0 1-9.37 2.202zm.939-6.755a6.363 6.363 0 0 0 2.242-1.64 2.155 2.155 0 0 0 .759-1.318c.59-2.547.406-3.5-.751-3.874a2.842 2.842 0 0 0-2.207.232c-2.471 1.194-4.036 5.541-2.344 6.511a2.712 2.712 0 0 0 2.301.089z" fill="#747891" stroke="#fff" stroke-linecap="round" stroke-linejoin="round" stroke-width=".8"></path>
  </symbol>
  <symbol xmlns="http://www.w3.org/2000/svg" viewBox="0 0 18 18" id="bookmark">
    <path fill="rgba(255,255,255,0)" d="M0 0h18v18H0z"></path>
    <path d="M14.055 17.995a.838.838 0 0 0 .638-.321.921.921 0 0 0 .186-.714l-.848-5.391L17.75 7.72a.92.92 0 0 0 .211-.909.864.864 0 0 0-.682-.605l-5.167-.827L9.767.495a.836.836 0 0 0-1.528 0L5.894 5.379l-5.167.827a.864.864 0 0 0-.682.605.92.92 0 0 0 .211.909l3.719 3.849-.85 5.391a.91.91 0 0 0 .34.87.821.821 0 0 0 .9.068l4.643-2.515 4.643 2.515a.823.823 0 0 0 .404.097zm-1.136-2.494l-3.527-1.917a.819.819 0 0 0-.784 0l-3.527 1.917.644-4.106a.917.917 0 0 0-.239-.778L2.657 7.699l3.925-.625a.855.855 0 0 0 .638-.479L9 2.885l1.78 3.71a.855.855 0 0 0 .638.479l3.925.625-2.829 2.918a.917.917 0 0 0-.239.778l.644 4.106z" fill="#747891"></path>
  </symbol>
  <symbol xmlns="http://www.w3.org/2000/svg" viewBox="0 0 24 24" id="bookmarked">
    <path fill="rgba(255,255,255,0)" d="M0 0h24v24H0z"></path>
    <path d="M17.055 20.995a.838.838 0 0 0 .638-.321.921.921 0 0 0 .186-.714l-.848-5.391 3.719-3.849a.92.92 0 0 0 .211-.909.864.864 0 0 0-.682-.605l-5.167-.827-2.345-4.884a.836.836 0 0 0-1.528 0L8.894 8.379l-5.167.827a.864.864 0 0 0-.682.605.92.92 0 0 0 .211.909l3.719 3.849-.85 5.391a.91.91 0 0 0 .34.87.821.821 0 0 0 .9.068l4.643-2.515 4.643 2.515a.823.823 0 0 0 .404.097z" fill="#f8c900"></path>
  </symbol>
  <symbol xmlns="http://www.w3.org/2000/svg" viewBox="0 0 18 18" id="bookmarked-highlight">
    <path fill="rgba(255,255,255,0)" d="M0 0h18v18H0z"></path>
    <path d="M14.055 17.995a.838.838 0 0 0 .638-.321.921.921 0 0 0 .186-.714l-.848-5.391L17.75 7.72a.92.92 0 0 0 .211-.909.864.864 0 0 0-.682-.605l-5.167-.827L9.767.495a.836.836 0 0 0-1.528 0L5.894 5.379l-5.167.827a.864.864 0 0 0-.682.605.92.92 0 0 0 .211.909l3.719 3.849-.85 5.391a.91.91 0 0 0 .34.87.821.821 0 0 0 .9.068l4.643-2.515 4.643 2.515a.823.823 0 0 0 .404.097z" fill="#f8c900"></path>
  </symbol>
  <symbol xmlns="http://www.w3.org/2000/svg" viewBox="0 0 36 36" id="bookmarked-selected">
    <g fill="#f8c900" stroke="#fff" stroke-width="2">
      <circle cx="18" cy="18" r="18" stroke="none"></circle>
      <circle cx="18" cy="18" r="17" fill="none"></circle>
    </g>
    <path d="M23.055 26.995a.838.838 0 0 0 .638-.321.921.921 0 0 0 .186-.714l-.848-5.391 3.719-3.849a.92.92 0 0 0 .211-.909.864.864 0 0 0-.682-.605l-5.167-.827-2.345-4.884a.836.836 0 0 0-1.528 0l-2.345 4.884-5.167.827a.864.864 0 0 0-.682.605.92.92 0 0 0 .211.909l3.719 3.849-.85 5.391a.91.91 0 0 0 .34.87.821.821 0 0 0 .9.068l4.643-2.515 4.643 2.515a.823.823 0 0 0 .404.097z" fill="#fff"></path>
  </symbol>
  <symbol xmlns="http://www.w3.org/2000/svg" viewBox="0 0 36 36" id="bookmark-grey">
    <g fill="#dcdce3" stroke="#fff" stroke-width="2">
      <circle cx="18" cy="18" r="18" stroke="none"></circle>
      <circle cx="18" cy="18" r="17" fill="none"></circle>
    </g>
    <path d="M23.055 26.995a.838.838 0 0 0 .638-.321.921.921 0 0 0 .186-.714l-.848-5.391 3.719-3.849a.92.92 0 0 0 .211-.909.864.864 0 0 0-.682-.605l-5.167-.827-2.345-4.884a.836.836 0 0 0-1.528 0l-2.345 4.884-5.167.827a.864.864 0 0 0-.682.605.92.92 0 0 0 .211.909l3.719 3.849-.85 5.391a.91.91 0 0 0 .34.87.821.821 0 0 0 .9.068l4.643-2.515 4.643 2.515a.823.823 0 0 0 .404.097z" fill="#fff"></path>
  </symbol>
  <symbol xmlns="http://www.w3.org/2000/svg" viewBox="0 0 24 24" id="calendar">
    <path fill="rgba(255,255,255,0)" d="M0 0h24v24H0z"></path>
    <path stroke="#fff" d="M17.045 3.9v-.948a.91.91 0 1 1 1.818 0V3.9h.909A2.794 2.794 0 0 1 22.5 6.762v9.524A5.589 5.589 0 0 1 17.045 22h-9.09A5.589 5.589 0 0 1 2.5 16.286V6.762A2.794 2.794 0 0 1 5.227 3.9h1.818v-.948a.91.91 0 1 1 1.818 0V3.9zM4.318 9.619h16.364V6.762a.931.931 0 0 0-.909-.952h-.909a.91.91 0 1 1-1.818 0H8.864a.91.91 0 1 1-1.818 0H5.227a.931.931 0 0 0-.909.952zm0 1.9v4.762A3.726 3.726 0 0 0 7.955 20.1h9.091a3.726 3.726 0 0 0 3.636-3.81v-4.766z" fill="#5c617f" stroke-linecap="round" stroke-linejoin="round" stroke-width=".5" fill-rule="evenodd"></path>
  </symbol>
  <symbol xmlns="http://www.w3.org/2000/svg" viewBox="0 0 24 24" id="checklist">
    <path fill="rgba(255,255,255,0)" d="M0 0h24v24H0z"></path>
    <g stroke-width="1.5">
      <g transform="translate(2 2)" fill="#fff" stroke="#747891">
        <rect width="20" height="20" rx="6" stroke="none"></rect>
        <rect x=".75" y=".75" width="18.5" height="18.5" rx="5.25" fill="none"></rect>
      </g>
      <path d="M8 11.82l2.773 3.181 5.227-6" fill="none" stroke="#6e748f" stroke-linecap="round" stroke-linejoin="round"></path>
    </g>
  </symbol>
  <symbol xmlns="http://www.w3.org/2000/svg" viewBox="0 0 18 18" id="circle">
    <g fill="#fff" stroke="#a1a4b5" stroke-width="2">
      <rect width="18" height="18" rx="9" stroke="none"></rect>
      <rect x="1" y="1" width="16" height="16" rx="8" fill="none"></rect>
    </g>
  </symbol>
  <symbol xmlns="http://www.w3.org/2000/svg" viewBox="0 0 18 18" id="close">
    <path fill="rgba(255,255,255,0)" d="M0 0h18v18H0z"></path>
    <path d="M9 9l-7 7 7-7-7-7 7 7 7-7-7 7 7 7z" fill="none" stroke="#171e48" stroke-linecap="round" stroke-linejoin="round" stroke-width="2.5"></path>
  </symbol>
  <symbol xmlns="http://www.w3.org/2000/svg" viewBox="0 0 18 18" id="close-2">
    <path fill="rgba(255,255,255,0)" d="M0 0h18v18H0z"></path>
    <path stroke="#171e48" d="M9 9l-5 5 5-5-5-5 5 5 5-5-5 5 5 5z" fill="none" stroke-linecap="round" stroke-linejoin="round" stroke-width="2" opacity=".7"></path>
  </symbol>
  <symbol xmlns="http://www.w3.org/2000/svg" viewBox="0 0 28.4 28.4" id="collapse">
    <defs>
      <filter id="a" x="0" y="0" width="28.4" height="28.4" filterUnits="userSpaceOnUse">
        <feOffset dy="2"></feOffset>
        <feGaussianBlur stdDeviation="1.5" result="blur"></feGaussianBlur>
        <feFlood flood-color="#747891" flood-opacity=".2"></feFlood>
        <feComposite operator="in" in2="blur"></feComposite>
        <feComposite in="SourceGraphic"></feComposite>
      </filter>
    </defs>
    <path fill="rgba(255,255,255,0)" d="M2.2.2h24v24h-24z"></path>
    <g stroke="#747891">
      <circle cx="9" cy="9" r="9" transform="translate(5.2 3.2)" fill="#fff" stroke-width="1.4" filter="url(#a)"></circle>
      <path d="M10.7 10.7l3.7 3.6 3.7-3.6" fill="none" stroke-linecap="round" stroke-linejoin="round" stroke-width="1.5"></path>
    </g>
  </symbol>
  <symbol xmlns="http://www.w3.org/2000/svg" viewBox="0 0 36 37.2" id="collapse-up">
    <defs>
      <filter id="a" x=".8" y="2.8" width="34.4" height="34.4" filterUnits="userSpaceOnUse">
        <feOffset dy="2"></feOffset>
        <feGaussianBlur stdDeviation="1.5" result="blur"></feGaussianBlur>
        <feFlood flood-color="#747891" flood-opacity=".2"></feFlood>
        <feComposite operator="in" in2="blur"></feComposite>
        <feComposite in="SourceGraphic"></feComposite>
      </filter>
    </defs>
    <path fill="rgba(255,255,255,0)" d="M0 0h36v36H0z"></path>
    <g stroke="#747891">
      <circle cx="12" cy="12" r="12" transform="rotate(180 15 15)" fill="#fff" stroke-width="1.4" filter="url(#a)"></circle>
      <path d="M23.5 20.5l-5-6-5 6" fill="none" stroke-linecap="round" stroke-linejoin="round" stroke-width="1.5"></path>
    </g>
  </symbol>
  <symbol xmlns="http://www.w3.org/2000/svg" viewBox="0 0 18 18" id="comment">
    <path fill="rgba(255,255,255,0)" d="M0 0h18v18H0z"></path>
    <path d="M15.301 2.912L2.939 8.711c.9.42 1.873.84 2.772 1.261.6-.42 6.892-4.538 7.042-4.538a.172.172 0 0 1 .15.168c0 .252-4.27 4.958-4.795 5.547l-.6 2.773 2.248-2.1 3.3 3.446c.222-1.263 1.87-10.675 2.17-12.356zm-.3-1.767c1.2-.5 2.248.336 1.948 1.849 0 0-2.023 11.513-2.248 12.69a1.52 1.52 0 0 1-2.622.84l-2.322-2.351-1.873 1.765c-.9.756-1.648-.168-1.948-1.092-.15-.5-.749-2.521-.974-3.362-.749-.339-2.472-1.093-2.922-1.345a1.56 1.56 0 0 1 0-2.941c4.345-2.017 8.691-4.202 13.038-6.135z" fill="#fff"></path>
  </symbol>
  <symbol xmlns="http://www.w3.org/2000/svg" viewBox="0 0 24 24" id="comments">
    <path fill="rgba(255,255,255,0)" d="M0 0h24v24H0z"></path>
    <path d="M21.783 22.976a1 1 0 0 0 1.193-1.193l-1.1-4.939a10.993 10.993 0 1 0-5.035 5.035zm-1.841-6.739a1 1 0 0 0-.094.688l.835 3.757-3.757-.835a1 1 0 0 0-.688.094 8.994 8.994 0 1 1 3.705-3.705zM9 14a2 2 0 1 0-2-2 2 2 0 0 0 2 2zm8-2a2 2 0 1 1-2-2 2 2 0 0 1 2 2z" fill="#6e748f" fill-rule="evenodd"></path>
  </symbol>
  <symbol xmlns="http://www.w3.org/2000/svg" viewBox="0 0 24 24" id="comments-white">
    <path fill="rgba(255,255,255,0)" d="M0 0h24v24H0z"></path>
    <path d="M21.783 22.976a1 1 0 0 0 1.193-1.193l-1.1-4.939a10.993 10.993 0 1 0-5.035 5.035zm-1.841-6.739a1 1 0 0 0-.094.688l.835 3.757-3.757-.835a1 1 0 0 0-.688.094 8.994 8.994 0 1 1 3.705-3.705zM9 14a2 2 0 1 0-2-2 2 2 0 0 0 2 2zm8-2a2 2 0 1 1-2-2 2 2 0 0 1 2 2z" fill="#fff" fill-rule="evenodd"></path>
  </symbol>
  <symbol xmlns="http://www.w3.org/2000/svg" viewBox="0 0 24 24" id="convert-task">
    <path fill="rgba(255,255,255,0)" d="M0 0h24v24H0z"></path>
    <path d="M13.833 3c-4.05 0-7.458 1.9-8.4 5.808h1.685c.893-2.972 3.554-4.113 6.715-4.113A7.165 7.165 0 0 1 20.875 12a7.165 7.165 0 0 1-7.042 7.305c-3.162 0-5.823-1.141-6.715-4.113H5.431C6.375 19.1 9.784 21 13.833 21a8.851 8.851 0 0 0 8.667-9 8.851 8.851 0 0 0-8.667-9zm-1.521 4.1L11.02 8.441l2.417 2.51H2.5v2.106h10.937l-2.417 2.51 1.292 1.333 3.431-3.563L17.028 12l-1.285-1.341z" fill="#747891" stroke="#fff" stroke-linecap="round" stroke-width=".3" fill-rule="evenodd"></path>
  </symbol>
  <symbol xmlns="http://www.w3.org/2000/svg" viewBox="0 0 18 18" id="create">
    <path fill="rgba(255,255,255,0)" d="M0 0h18v18H0z"></path>
    <path d="M14 8h-4V4a1 1 0 0 0-2 0v4H4a1 1 0 0 0 0 2h4v4a1 1 0 0 0 2 0v-4h4a1 1 0 0 0 0-2z" fill="#2585d3"></path>
  </symbol>
  <symbol xmlns="http://www.w3.org/2000/svg" viewBox="0 0 36 36" id="create-rounded">
    <path fill="rgba(255,255,255,0)" d="M0 0h36v36H0z"></path>
    <g transform="translate(5 5)" fill="#fff" stroke="#747891" stroke-width="1.2">
      <rect width="26" height="26" rx="13" stroke="none"></rect>
      <rect x=".6" y=".6" width="24.8" height="24.8" rx="12.4" fill="none"></rect>
    </g>
    <path d="M22.333 17.133h-3.466v-3.466a.867.867 0 0 0-1.733 0v3.467h-3.467a.867.867 0 0 0 0 1.733h3.467v3.467a.867.867 0 0 0 1.733 0v-3.467h3.467a.867.867 0 0 0 0-1.733z" fill="#747891"></path>
  </symbol>
  <symbol xmlns="http://www.w3.org/2000/svg" viewBox="0 0 24 24" id="delete">
    <path fill="rgba(255,255,255,0)" d="M0 0h24v24H0z"></path>
    <g fill="#747891" stroke="#747891" stroke-linecap="round" stroke-linejoin="round" stroke-width=".2">
      <path d="M15.155 21a3.208 3.208 0 0 0 3.26-3.06l.373-11.2h1.746a.454.454 0 1 0 0-.907h-4.89v-1.02A1.844 1.844 0 0 0 13.781 3h-3.539a1.844 1.844 0 0 0-1.863 1.814v1.02H3.466a.454.454 0 1 0 0 .907h1.746l.373 11.2a3.208 3.208 0 0 0 3.26 3.06zM9.31 4.814a.922.922 0 0 1 .931-.907h3.539a.922.922 0 0 1 .931.907v1.02h-5.4zm-2.771 13.08L6.166 6.718h11.713l-.4 11.176a2.309 2.309 0 0 1-2.329 2.2H8.868a2.293 2.293 0 0 1-2.329-2.2z"></path>
      <path d="M10.188 17.374a.6.6 0 0 0 .649-.51V9.178a.669.669 0 0 0-1.3 0v7.686a.6.6 0 0 0 .651.51zm3.647 0a.6.6 0 0 0 .649-.51V9.178a.669.669 0 0 0-1.3 0v7.686a.6.6 0 0 0 .651.51z"></path>
    </g>
  </symbol>
  <symbol xmlns="http://www.w3.org/2000/svg" viewBox="0 0 18.3 18.3" id="delete-2">
    <path fill="rgba(255,255,255,0)" d="M.15.149h18v18h-18z"></path>
    <g opacity=".7" fill="#171e48" stroke="#171e48" stroke-linecap="round" stroke-linejoin="round" stroke-width=".3">
      <path d="M12.305 18.149a3.208 3.208 0 0 0 3.26-3.06l.373-11.2h1.746a.454.454 0 1 0 0-.907h-4.89v-1.02A1.844 1.844 0 0 0 10.931.149H7.392a1.844 1.844 0 0 0-1.863 1.814v1.02H.616a.454.454 0 1 0 0 .907h1.746l.373 11.2a3.208 3.208 0 0 0 3.26 3.06zM6.46 1.963a.922.922 0 0 1 .931-.907h3.539a.922.922 0 0 1 .931.907v1.02h-5.4zm-2.771 13.08L3.316 3.867H15.03l-.4 11.176a2.309 2.309 0 0 1-2.329 2.2H6.018a2.293 2.293 0 0 1-2.329-2.2z"></path>
      <path d="M7.303 13.75a.461.461 0 0 0 .5-.4V7.42a.517.517 0 0 0-1 0v5.936a.461.461 0 0 0 .5.394zm3.712 0a.461.461 0 0 0 .5-.4V7.42a.517.517 0 0 0-1 0v5.936a.461.461 0 0 0 .5.394z"></path>
    </g>
  </symbol>
  <symbol xmlns="http://www.w3.org/2000/svg" viewBox="0 0 18 18" id="description">
    <path fill="rgba(255,255,255,0)" d="M0 0h18v18H0z"></path>
    <path d="M17 5H1a1 1 0 0 1 0-2h16a1 1 0 0 1 0 2zm0 5H1a1 1 0 0 1 0-2h16a1 1 0 0 1 0 2zM1 15h10a1 1 0 0 0 0-2H1a1 1 0 0 0 0 2z" fill="#747891" fill-rule="evenodd"></path>
  </symbol>
  <symbol xmlns="http://www.w3.org/2000/svg" viewBox="0 0 18 18" id="download">
    <path fill="rgba(255,255,255,0)" d="M0 0h18v18H0z"></path>
    <path d="M1.761 16.501a.769.769 0 0 1-.752-.7A.654.654 0 0 1 1 15.66v-3.67a.772.772 0 0 1 .756-.783.747.747 0 0 1 .534.23.8.8 0 0 1 .222.554v2.939h12.982v-2.94a.772.772 0 0 1 .756-.783.746.746 0 0 1 .534.23.843.843 0 0 1 .217.559v3.67a.85.85 0 0 1-.025.2.767.767 0 0 1-.741.632zm7.153-2.651c-.014 0-.029-.005-.044-.005a.813.813 0 0 1-.47-.254l-.019-.021L4.8 9.768a.95.95 0 0 1 0-1.279.82.82 0 0 1 1.2 0l2.15 2.285V2.401a.881.881 0 0 1 .85-.9.84.84 0 0 1 .6.263.919.919 0 0 1 .256.637v8.374l2.15-2.285a.82.82 0 0 1 1.2 0 .967.967 0 0 1-.006 1.278l-3.577 3.8c0 .01-.014.015-.02.021a.824.824 0 0 1-.471.253c-.014 0-.029.005-.043.005a.574.574 0 0 1-.087 0z" fill="#5b607e"></path>
  </symbol>
  <symbol xmlns="http://www.w3.org/2000/svg" viewBox="0 0 24 24" id="download-attachments">
    <path fill="rgba(255,255,255,0)" d="M0 0h24v24H0z"></path>
    <g fill="#747891" stroke="#fff" stroke-linecap="round" stroke-linejoin="round" stroke-width=".5">
      <path d="M22 16.566v4.427a1.008 1.008 0 0 1-.031.246.951.951 0 0 1-.926.762H2.951a.947.947 0 0 1-.938-.844.746.746 0 0 1-.013-.17V16.56a.945.945 0 0 1 1.889 0v3.545h16.226V16.56a.944.944 0 0 1 1.612-.667 1 1 0 0 1 .273.673z"></path>
      <path d="M17.446 12.093l-4.641 4.641c-.006.013-.019.019-.025.025a1.093 1.093 0 0 1-.611.309c-.019 0-.038.006-.057.006a.684.684 0 0 1-.113.006l-.107-.006c-.019 0-.038-.006-.057-.006a1.074 1.074 0 0 1-.611-.309l-.025-.025-4.641-4.641a1.105 1.105 0 0 1 1.562-1.562l2.789 2.789V3.1a1.107 1.107 0 0 1 1.1-1.1 1.126 1.126 0 0 1 .781.321 1.089 1.089 0 0 1 .321.781v10.219l2.789-2.789a1.11 1.11 0 0 1 1.562 0 1.128 1.128 0 0 1-.016 1.561z"></path>
    </g>
  </symbol>
  <symbol xmlns="http://www.w3.org/2000/svg" viewBox="0 0 36 36" id="drag-files-upload">
    <path fill="rgba(255,255,255,0)" d="M0 0h36v36H0z"></path>
    <g fill="#747891">
      <path d="M26.772 11.948a8.375 8.375 0 0 0-2.528-4.764 7.938 7.938 0 0 0-9.869-.852 8.207 8.207 0 0 0-2.631 2.846 4.524 4.524 0 0 0-.852-.083 4.508 4.508 0 0 0-4.439 4.563 5.121 5.121 0 0 0 .092.942A6.406 6.406 0 0 0 4 19.724a6.9 6.9 0 0 0 1.676 4.492 5.924 5.924 0 0 0 4.146 2.142h5a.8.8 0 0 0 0-1.6H9.89a4.991 4.991 0 0 1-4.336-5.042 4.769 4.769 0 0 1 2.286-4.082.816.816 0 0 0 .34-.971 2.971 2.971 0 0 1-.173-1.018 2.931 2.931 0 0 1 2.885-2.965 2.767 2.767 0 0 1 .985.178.773.773 0 0 0 .973-.408 6.516 6.516 0 0 1 12.45 2.22.789.789 0 0 0 .645.71 5.785 5.785 0 0 1-.53 11.374h-4.24a.8.8 0 0 0 0 1.6h4.33a6.821 6.821 0 0 0 4.618-2.343A7.485 7.485 0 0 0 32 19.037a7.347 7.347 0 0 0-5.228-7.089z"></path>
      <path d="M22.247 21.154a.705.705 0 0 0 0-1L18.5 16.407a.716.716 0 0 0-.5-.21.694.694 0 0 0-.5.21l-3.746 3.747a.71.71 0 0 0 .5 1.21.69.69 0 0 0 .5-.21l2.541-2.541v11.684a.708.708 0 0 0 1.415 0v-11.68l2.541 2.541a.7.7 0 0 0 .996-.004z"></path>
    </g>
  </symbol>
  <symbol xmlns="http://www.w3.org/2000/svg" viewBox="0 0 18 18" id="drag-move">
    <path fill="rgba(255,255,255,0)" d="M0 0h18v18H0z"></path>
    <path d="M10 14a1.5 1.5 0 1 1 1.5 1.5A1.5 1.5 0 0 1 10 14zm-5 0a1.5 1.5 0 1 1 1.5 1.5A1.5 1.5 0 0 1 5 14zm5-5a1.5 1.5 0 1 1 1.5 1.5A1.5 1.5 0 0 1 10 9zM5 9a1.5 1.5 0 1 1 1.5 1.5A1.5 1.5 0 0 1 5 9zm5-5a1.5 1.5 0 1 1 1.5 1.5A1.5 1.5 0 0 1 10 4zM5 4a1.5 1.5 0 1 1 1.5 1.5A1.5 1.5 0 0 1 5 4z" fill="#737790"></path>
  </symbol>
  <symbol xmlns="http://www.w3.org/2000/svg" viewBox="0 0 24 24" id="due-date">
    <path fill="rgba(255,255,255,0)" d="M0 0h24v24H0z"></path>
    <g fill="none" stroke="#747891" stroke-width="1.5">
      <path d="M12 20a8 8 0 1 0-8-8 8 8 0 0 0 8 8z"></path>
      <path d="M11.955 6.539v5.373l-2.57 2.292" stroke-linecap="round" stroke-linejoin="round"></path>
    </g>
  </symbol>
  <symbol xmlns="http://www.w3.org/2000/svg" viewBox="0 0 18 18" id="due-date-danger">
    <path fill="rgba(255,255,255,0)" d="M0 0h18v18H0z"></path>
    <g fill="none" stroke="#f85859" stroke-width="1.5">
      <path d="M9 17a8 8 0 1 0-8-8 8 8 0 0 0 8 8z"></path>
      <path d="M8.955 3.539v5.373l-2.57 2.292" stroke-linecap="round" stroke-linejoin="round"></path>
    </g>
  </symbol>
  <symbol xmlns="http://www.w3.org/2000/svg" viewBox="0 0 18 18" id="due-date-dark">
    <path fill="rgba(255,255,255,0)" d="M0 0h18v18H0z"></path>
    <g fill="none" stroke="#747891" stroke-width="1.5">
      <path d="M9 17a8 8 0 1 0-8-8 8 8 0 0 0 8 8z"></path>
      <path d="M8.955 3.539v5.373l-2.57 2.292" stroke-linecap="round" stroke-linejoin="round"></path>
    </g>
  </symbol>
  <symbol xmlns="http://www.w3.org/2000/svg" viewBox="0 0 18 18" id="due-date-white">
    <path fill="rgba(255,255,255,0)" d="M0 0h18v18H0z"></path>
    <g fill="none" stroke="#fff" stroke-width="1.5">
      <path d="M9 17a8 8 0 1 0-8-8 8 8 0 0 0 8 8z"></path>
      <path d="M8.955 3.539v5.373l-2.57 2.292" stroke-linecap="round" stroke-linejoin="round"></path>
    </g>
  </symbol>
  <symbol xmlns="http://www.w3.org/2000/svg" viewBox="0 0 24 24" id="duplicate">
    <path fill="rgba(255,255,255,0)" d="M0 0h24v24H0z"></path>
    <path d="M10.977 3.818h9.2v10.909h-1.813v1.818h1.818A1.819 1.819 0 0 0 22 14.727V3.818A1.819 1.819 0 0 0 20.182 2H9.273a1.819 1.819 0 0 0-1.818 1.818v1.818h1.818V3.818zM2 9.275a1.819 1.819 0 0 1 1.82-1.82h10.905a1.819 1.819 0 0 1 1.82 1.82V20.18a1.819 1.819 0 0 1-1.82 1.82H3.82A1.819 1.819 0 0 1 2 20.18V9.275zm1.818 0h10.909v10.907H3.818V9.273z" fill="#747891" fill-rule="evenodd"></path>
  </symbol>
  <symbol xmlns="http://www.w3.org/2000/svg" viewBox="0 0 24 24" id="duplicate-white">
    <path fill="rgba(255,255,255,0)" d="M0 0h24v24H0z"></path>
    <path d="M10.977 3.818h9.2v10.909h-1.813v1.818h1.818A1.819 1.819 0 0 0 22 14.727V3.818A1.819 1.819 0 0 0 20.182 2H9.273a1.819 1.819 0 0 0-1.818 1.818v1.818h1.818V3.818zM2 9.275a1.819 1.819 0 0 1 1.82-1.82h10.905a1.819 1.819 0 0 1 1.82 1.82V20.18a1.819 1.819 0 0 1-1.82 1.82H3.82A1.819 1.819 0 0 1 2 20.18V9.275zm1.818 0h10.909v10.907H3.818V9.273z" fill="#fff" fill-rule="evenodd"></path>
  </symbol>
  <symbol xmlns="http://www.w3.org/2000/svg" viewBox="0 0 18 18" id="edit">
    <path fill="rgba(255,255,255,0)" d="M0 0h18v18H0z"></path>
    <g stroke="#5b607e" stroke-linecap="round">
      <path d="M13.038 2.017a.419.419 0 0 0-.414.106L2.562 12.183a.418.418 0 0 0-.118.239l-.439 3.1a.418.418 0 0 0 .47.471l3.11-.439a.418.418 0 0 0 .235-.12l10.062-10.06a.418.418 0 0 0 0-.59l-2.658-2.661a.419.419 0 0 0-.186-.106zm-.118 1l2.072 2.071-9.664 9.66-2.415.348.342-2.412z" fill="#5b607e" stroke-linejoin="round" stroke-width=".3"></path>
      <path d="M4 12l2 2" fill="none"></path>
    </g>
  </symbol>
  <symbol xmlns="http://www.w3.org/2000/svg" viewBox="0 0 18.513 18.64" id="edit-2">
    <path fill="rgba(255,255,255,0)" d="M.25.39h18v18h-18z"></path>
    <path d="M17.657 4.088a2.025 2.025 0 0 1 .521 1.984l-.007.023-.007.023-.007.023-.008.023-.008.023-.008.023-.009.023-.009.023-.009.023-.009.023-.009.022-.01.022-.01.023-.011.022-.011.022-.011.022-.011.022-.012.022-.012.022-.012.022-.013.022-.013.022-.013.021-.014.021-.014.021-.014.021-.014.021-.015.021-.015.02-.015.02-.016.02-.016.02-.016.02-.016.02-.017.019-.017.019-.017.019-.017.019-.018.019-.018.019-.019.019L7.163 17.417l-6.913.971.9-6.923L11.669.979a2.041 2.041 0 0 1 2.871 0l3.117 3.1zm-4.379 4.386l-3.136-3.129-7.087 7.067-.477 3.624 3.627-.511 7.073-7.051zm-1.713-4.55l3.137 3.129 1.527-1.523a.021.021 0 0 0 0-.023l-3.112-3.106a.016.016 0 0 0-.023 0l-1.527 1.523z" fill="#171e48" stroke="#fff" stroke-linecap="round" stroke-linejoin="round" stroke-width=".5" opacity=".7"></path>
  </symbol>
  <symbol xmlns="http://www.w3.org/2000/svg" viewBox="0 0 28.4 28.4" id="expand">
    <defs>
      <filter id="a" x="0" y="0" width="28.4" height="28.4" filterUnits="userSpaceOnUse">
        <feOffset dy="2"></feOffset>
        <feGaussianBlur stdDeviation="1.5" result="blur"></feGaussianBlur>
        <feFlood flood-color="#747891" flood-opacity=".2"></feFlood>
        <feComposite operator="in" in2="blur"></feComposite>
        <feComposite in="SourceGraphic"></feComposite>
      </filter>
    </defs>
    <path fill="rgba(255,255,255,0)" d="M2.2.2h24v24h-24z"></path>
    <circle cx="9" cy="9" r="9" transform="rotate(-90 13.2 8)" fill="#52597b" stroke="#52597b" stroke-width="1.4" filter="url(#a)"></circle>
    <path d="M12.7 15.7l3.6-3.7-3.6-3.7" fill="none" stroke="#fff" stroke-linecap="round" stroke-linejoin="round" stroke-width="1.5"></path>
  </symbol>
  <symbol xmlns="http://www.w3.org/2000/svg" viewBox="0 0 36 36.5" id="expand-right">
    <defs>
      <filter id="a" x="1.5" y="3.5" width="33" height="33" filterUnits="userSpaceOnUse">
        <feOffset dy="2"></feOffset>
        <feGaussianBlur stdDeviation="1.5" result="blur"></feGaussianBlur>
        <feFlood flood-color="#747891" flood-opacity=".2"></feFlood>
        <feComposite operator="in" in2="blur"></feComposite>
        <feComposite in="SourceGraphic"></feComposite>
      </filter>
    </defs>
    <path fill="rgba(255,255,255,0)" d="M0 0h36v36H0z"></path>
    <circle cx="12" cy="12" r="12" transform="rotate(-90 18 12)" fill="#fff" filter="url(#a)"></circle>
    <path d="M15.5 23.5l6-5-6-5" fill="none" stroke="#747891" stroke-linecap="round" stroke-linejoin="round" stroke-width="1.5"></path>
  </symbol>
  <symbol xmlns="http://www.w3.org/2000/svg" viewBox="0 0 18 18" id="filters">
    <path fill="rgba(255,255,255,0)" d="M0 0h18v18H0z"></path>
    <path d="M17.45 1.801a.515.515 0 0 0-.466-.3H1.015a.515.515 0 0 0-.466.3.535.535 0 0 0 .068.559l6.139 7.6v7.01a.529.529 0 0 0 .244.446.506.506 0 0 0 .5.024l3.449-1.746a.527.527 0 0 0 .286-.471l.007-5.265 6.139-7.6a.535.535 0 0 0 .069-.557zm-7.12 7.638a.533.533 0 0 0-.118.334l-.007 5.128-2.418 1.224V9.774a.533.533 0 0 0-.118-.335L2.107 2.551h13.785z" fill="#5b607e" stroke="#5b607e" stroke-width=".5"></path>
  </symbol>
  <symbol xmlns="http://www.w3.org/2000/svg" viewBox="0 0 24 24" id="giveup">
    <path fill="rgba(255,255,255,0)" d="M0 0h24v24H0z"></path>
    <g transform="translate(3 3)" fill="none" stroke="#747891" stroke-linecap="round" stroke-linejoin="round" stroke-width="1.5">
      <circle cx="9" cy="9" r="9" stroke="none"></circle>
      <circle cx="9" cy="9" r="9.75"></circle>
    </g>
    <path d="M8.018 10.271l3.4-3.245c0-.009.014-.013.018-.018a.814.814 0 0 1 .447-.216h.041a.524.524 0 0 1 .083 0h.119a.8.8 0 0 1 .447.216l.018.018 3.392 3.245a.752.752 0 0 1 0 1.092.839.839 0 0 1-1.142 0L12.8 9.417v7.029a.793.793 0 0 1-.806.771.844.844 0 0 1-.576-.225.745.745 0 0 1-.235-.546V9.417l-2.036 1.946a.839.839 0 0 1-1.142 0 .764.764 0 0 1 .013-1.092z" fill="#747891"></path>
  </symbol>
  <symbol xmlns="http://www.w3.org/2000/svg" viewBox="0 0 18 18" id="liked">
    <path fill="rgba(255,255,255,0)" d="M0 0h18v18H0z"></path>
    <path d="M16.086 6.005c-.866-.1-4.4-.024-5.264-.045-.478-.011-.467-.041-.263-.535 1.281-3.1.1-5.1-1.01-5.361-.866-.207-1.891-.016-1.85 2a2.791 2.791 0 0 1-.63 1.839c-.615.734-1.137 1.551-1.732 2.3-.361.455-.664 1.032-1.211 1.213a1 1 0 0 0-.717 1.137c.006 1.136 0 2.271 0 3.407v3.49c0 .645.192.922.732 1.008.49.079 3.335.491 3.794.676a13.652 13.652 0 0 0 6.258.791 2.445 2.445 0 0 0 2.351-2.694.837.837 0 0 1 .156-.53 2.591 2.591 0 0 0 .467-1.861.946.946 0 0 1 .082-.638 2.239 2.239 0 0 0 .274-1.593 1.912 1.912 0 0 1 .218-1.235 2.292 2.292 0 0 0-1.655-3.369zM2.062 7.672h-1.5A.592.592 0 0 0 0 8.29v7.365a.592.592 0 0 0 .562.618h1.5a.592.592 0 0 0 .562-.618v-7.37a.592.592 0 0 0-.562-.613z" fill="#2585d3" fill-rule="evenodd"></path>
  </symbol>
  <symbol xmlns="http://www.w3.org/2000/svg" viewBox="0 0 18 18" id="link">
    <path fill="rgba(255,255,255,0)" d="M0 0h18v18H0z"></path>
    <path d="M7.759 12.897l-.046.043.936.923 5.037-4.966-.936-.923-4.991 4.923a.669.669 0 0 1 .936 0 .646.646 0 0 1 0 .923 2.451 2.451 0 0 1-3.432 0 2.368 2.368 0 0 1 0-3.383l6.863-6.766a.669.669 0 0 1 .936 0 .646.646 0 0 1 0 .923l-6.863 6.765a1.077 1.077 0 0 0 0 1.538 1.114 1.114 0 0 0 1.56 0l6.863-6.766a2.8 2.8 0 0 0 0-4 2.9 2.9 0 0 0-4.056 0L3.703 8.899a4.521 4.521 0 0 0 0 6.459 4.68 4.68 0 0 0 6.551 0l5.615-5.536a.669.669 0 0 1 .936 0 .646.646 0 0 1 0 .923l-5.614 5.535a6.017 6.017 0 0 1-8.423 0 5.759 5.759 0 0 1-.046-8.259L9.631 1.21a4.234 4.234 0 0 1 5.927 0 4.091 4.091 0 0 1 0 5.843l-6.909 6.812-.936-.925z" fill="#747891" fill-rule="evenodd"></path>
  </symbol>
  <symbol xmlns="http://www.w3.org/2000/svg" viewBox="0 0 18 18" id="link-active">
    <path fill="rgba(255,255,255,0)" d="M0 0h18v18H0z"></path>
    <path d="M7.759 12.897l-.046.043.936.923 5.037-4.966-.936-.923-4.991 4.923a.669.669 0 0 1 .936 0 .646.646 0 0 1 0 .923 2.451 2.451 0 0 1-3.432 0 2.368 2.368 0 0 1 0-3.383l6.863-6.766a.669.669 0 0 1 .936 0 .646.646 0 0 1 0 .923l-6.863 6.765a1.077 1.077 0 0 0 0 1.538 1.114 1.114 0 0 0 1.56 0l6.863-6.766a2.8 2.8 0 0 0 0-4 2.9 2.9 0 0 0-4.056 0L3.703 8.899a4.521 4.521 0 0 0 0 6.459 4.68 4.68 0 0 0 6.551 0l5.615-5.536a.669.669 0 0 1 .936 0 .646.646 0 0 1 0 .923l-5.614 5.535a6.017 6.017 0 0 1-8.423 0 5.759 5.759 0 0 1-.046-8.259L9.631 1.21a4.234 4.234 0 0 1 5.927 0 4.091 4.091 0 0 1 0 5.843l-6.909 6.812-.936-.925z" fill="#2585d3" fill-rule="evenodd"></path>
  </symbol>
  <symbol xmlns="http://www.w3.org/2000/svg" viewBox="0 0 24 24" id="load-more-template">
    <path fill="rgba(255,255,255,0)" d="M0 0h24v24H0z"></path>
    <path d="M2.207 11.966l2.85-3.359-1.692-4.1a.885.885 0 0 1 1.113-1.113l4.124 1.668 3.36-2.847a.839.839 0 0 1 .95-.116.882.882 0 0 1 .463.834l-.324 4.4 3.777 2.317a.863.863 0 0 1 .394.857.812.812 0 0 1-.649.695l-3.337.834 8.52 8.518a.852.852 0 0 1-1.2 1.2l-8.52-8.518-.811 3.313a.748.748 0 0 1-.232.394.806.806 0 0 1-.463.232.846.846 0 0 1-.857-.394L7.35 13.008l-4.4.324a.883.883 0 0 1-.834-.463.742.742 0 0 1 .091-.903zm5.515-.672a.865.865 0 0 1 .788.394l1.529 2.479.672-2.8a.748.748 0 0 1 .232-.394.984.984 0 0 1 .394-.232l2.827-.695-2.457-1.531a.781.781 0 0 1-.394-.788l.209-2.873-2.2 1.876a.87.87 0 0 1-.881.139L5.776 5.78l1.089 2.664a.836.836 0 0 1-.162.857l-1.877 2.2z" fill="#747891" stroke="#fff" stroke-linecap="round" stroke-linejoin="round" stroke-width=".5"></path>
  </symbol>
  <symbol xmlns="http://www.w3.org/2000/svg" viewBox="0 0 18 18" id="new-task">
    <path fill="rgba(255,255,255,0)" d="M0 0h18v18H0z"></path>
    <path d="M14 8h-4V4a1 1 0 0 0-2 0v4H4a1 1 0 0 0 0 2h4v4a1 1 0 0 0 2 0v-4h4a1 1 0 0 0 0-2z" fill="#585e7d"></path>
  </symbol>
  <symbol xmlns="http://www.w3.org/2000/svg" viewBox="0 0 18 18" id="new-task-grey">
    <path fill="rgba(255,255,255,0)" d="M0 0h18v18H0z"></path>
    <path d="M15.667 7.667h-5.334V2.333a1.333 1.333 0 0 0-2.667 0v5.333H2.333a1.333 1.333 0 0 0 0 2.667h5.333v5.333a1.333 1.333 0 0 0 2.667 0v-5.333h5.333a1.333 1.333 0 0 0 0-2.667z" fill="#878ca3"></path>
  </symbol>
  <symbol xmlns="http://www.w3.org/2000/svg" viewBox="0 0 24 24" id="priority">
    <path fill="rgba(255,255,255,0)" d="M0 0h24v24H0z"></path>
    <path d="M11.891 16.7a1.074 1.074 0 0 1 0 2.147 1.074 1.074 0 1 1 0-2.147zm10.182 3.861a3.6 3.6 0 0 1-3.18 2.017H5.664A3.574 3.574 0 0 1 2.5 20.59a4.306 4.306 0 0 1-.013-4.02L9.123 4.008a3.5 3.5 0 0 1 6.336 0l6.623 12.552a4.272 4.272 0 0 1-.008 3.997zm-1.438-.907a2.337 2.337 0 0 0 .013-2.179l-6.627-12.56a1.911 1.911 0 0 0-3.46 0L3.93 17.467a2.368 2.368 0 0 0 0 2.207 1.946 1.946 0 0 0 1.726 1.083h13.233a1.975 1.975 0 0 0 1.747-1.107zM11.647 9.378a1.076 1.076 0 0 1 1.241.606 1.326 1.326 0 0 1 .1.537c-.026.537-.073 1.074-.1 1.611-.047.829-.1 1.658-.146 2.487-.026.271-.026.515-.026.782a.8.8 0 0 1-.8.782.787.787 0 0 1-.8-.756l-.219-3.853c-.026-.339-.047-.683-.073-1.022a1.168 1.168 0 0 1 .823-1.174z" fill="#747891" fill-rule="evenodd"></path>
  </symbol>
  <symbol xmlns="http://www.w3.org/2000/svg" viewBox="0 0 24 24" id="priority-1">
    <path fill="rgba(255,255,255,0)" d="M0 0h24v24H0z"></path>
    <path d="M11.604 16.413a1.074 1.074 0 0 1 0 2.147 1.074 1.074 0 1 1 0-2.147zm10.182 3.861a3.6 3.6 0 0 1-3.18 2.017H5.377a3.574 3.574 0 0 1-3.164-1.988 4.306 4.306 0 0 1-.013-4.02L8.836 3.721a3.5 3.5 0 0 1 6.336 0l6.623 12.552a4.272 4.272 0 0 1-.008 3.997zm-1.438-.907a2.337 2.337 0 0 0 .013-2.179l-6.627-12.56a1.911 1.911 0 0 0-3.46 0L3.643 17.18a2.368 2.368 0 0 0 0 2.207 1.946 1.946 0 0 0 1.726 1.083h13.233a1.975 1.975 0 0 0 1.747-1.107zM11.36 9.091a1.076 1.076 0 0 1 1.241.606 1.326 1.326 0 0 1 .1.537c-.026.537-.073 1.074-.1 1.611-.047.829-.1 1.658-.146 2.487-.026.271-.026.515-.026.782a.8.8 0 0 1-.8.782.787.787 0 0 1-.8-.756l-.219-3.853c-.026-.339-.047-.683-.073-1.022a1.168 1.168 0 0 1 .823-1.174z" fill="#fc5a5a" fill-rule="evenodd"></path>
  </symbol>
  <symbol xmlns="http://www.w3.org/2000/svg" viewBox="0 0 24 24" id="priority-2">
    <path fill="rgba(255,255,255,0)" d="M0 0h24v24H0z"></path>
    <path d="M11.604 16.413a1.074 1.074 0 0 1 0 2.147 1.074 1.074 0 1 1 0-2.147zm10.182 3.861a3.6 3.6 0 0 1-3.18 2.017H5.377a3.574 3.574 0 0 1-3.164-1.988 4.306 4.306 0 0 1-.013-4.02L8.836 3.721a3.5 3.5 0 0 1 6.336 0l6.623 12.552a4.272 4.272 0 0 1-.008 3.997zm-1.438-.907a2.337 2.337 0 0 0 .013-2.179l-6.627-12.56a1.911 1.911 0 0 0-3.46 0L3.643 17.18a2.368 2.368 0 0 0 0 2.207 1.946 1.946 0 0 0 1.726 1.083h13.233a1.975 1.975 0 0 0 1.747-1.107zM11.36 9.091a1.076 1.076 0 0 1 1.241.606 1.326 1.326 0 0 1 .1.537c-.026.537-.073 1.074-.1 1.611-.047.829-.1 1.658-.146 2.487-.026.271-.026.515-.026.782a.8.8 0 0 1-.8.782.787.787 0 0 1-.8-.756l-.219-3.853c-.026-.339-.047-.683-.073-1.022a1.168 1.168 0 0 1 .823-1.174z" fill="#ffaf3b" fill-rule="evenodd"></path>
  </symbol>
  <symbol xmlns="http://www.w3.org/2000/svg" viewBox="0 0 24 24" id="priority-4">
    <path fill="rgba(255,255,255,0)" d="M0 0h24v24H0z"></path>
    <path d="M11.604 16.413a1.074 1.074 0 0 1 0 2.147 1.074 1.074 0 1 1 0-2.147zm10.182 3.861a3.6 3.6 0 0 1-3.18 2.017H5.377a3.574 3.574 0 0 1-3.164-1.988 4.306 4.306 0 0 1-.013-4.02L8.836 3.721a3.5 3.5 0 0 1 6.336 0l6.623 12.552a4.272 4.272 0 0 1-.008 3.997zm-1.438-.907a2.337 2.337 0 0 0 .013-2.179l-6.627-12.56a1.911 1.911 0 0 0-3.46 0L3.643 17.18a2.368 2.368 0 0 0 0 2.207 1.946 1.946 0 0 0 1.726 1.083h13.233a1.975 1.975 0 0 0 1.747-1.107zM11.36 9.091a1.076 1.076 0 0 1 1.241.606 1.326 1.326 0 0 1 .1.537c-.026.537-.073 1.074-.1 1.611-.047.829-.1 1.658-.146 2.487-.026.271-.026.515-.026.782a.8.8 0 0 1-.8.782.787.787 0 0 1-.8-.756l-.219-3.853c-.026-.339-.047-.683-.073-1.022a1.168 1.168 0 0 1 .823-1.174z" fill="#747891" fill-rule="evenodd"></path>
  </symbol>
  <symbol xmlns="http://www.w3.org/2000/svg" viewBox="0 0 24 24" id="priority-3">
    <path fill="rgba(255,255,255,0)" d="M0 0h24v24H0z"></path>
    <path d="M11.604 16.413a1.074 1.074 0 0 1 0 2.147 1.074 1.074 0 1 1 0-2.147zm10.182 3.861a3.6 3.6 0 0 1-3.18 2.017H5.377a3.574 3.574 0 0 1-3.164-1.988 4.306 4.306 0 0 1-.013-4.02L8.836 3.721a3.5 3.5 0 0 1 6.336 0l6.623 12.552a4.272 4.272 0 0 1-.008 3.997zm-1.438-.907a2.337 2.337 0 0 0 .013-2.179l-6.627-12.56a1.911 1.911 0 0 0-3.46 0L3.643 17.18a2.368 2.368 0 0 0 0 2.207 1.946 1.946 0 0 0 1.726 1.083h13.233a1.975 1.975 0 0 0 1.747-1.107zM11.36 9.091a1.076 1.076 0 0 1 1.241.606 1.326 1.326 0 0 1 .1.537c-.026.537-.073 1.074-.1 1.611-.047.829-.1 1.658-.146 2.487-.026.271-.026.515-.026.782a.8.8 0 0 1-.8.782.787.787 0 0 1-.8-.756l-.219-3.853c-.026-.339-.047-.683-.073-1.022a1.168 1.168 0 0 1 .823-1.174z" fill="#08aa4f" fill-rule="evenodd"></path>
  </symbol>
  <symbol xmlns="http://www.w3.org/2000/svg" viewBox="0 0 52 52" id="priority-select">
    <defs>
      <filter id="a" x="0" y="0" width="52" height="52" filterUnits="userSpaceOnUse">
        <feOffset dy="2"></feOffset>
        <feGaussianBlur stdDeviation="2" result="blur"></feGaussianBlur>
        <feFlood flood-opacity=".078"></feFlood>
        <feComposite operator="in" in2="blur"></feComposite>
        <feComposite in="SourceGraphic"></feComposite>
      </filter>
    </defs>
    <g transform="translate(6 4)" fill="#fff" stroke="rgba(23,30,72,0.1)" filter="url(#a)">
      <circle cx="20" cy="20" r="20" stroke="none"></circle>
      <circle cx="20" cy="20" r="19.5" fill="none"></circle>
    </g>
    <path d="M25.604 27.413a1.074 1.074 0 0 1 0 2.147 1.074 1.074 0 1 1 0-2.147zm10.182 3.861a3.6 3.6 0 0 1-3.18 2.017H19.377a3.574 3.574 0 0 1-3.164-1.988 4.306 4.306 0 0 1-.013-4.02l6.636-12.562a3.5 3.5 0 0 1 6.336 0l6.623 12.552a4.272 4.272 0 0 1-.008 3.997zm-1.438-.907a2.337 2.337 0 0 0 .013-2.179l-6.627-12.56a1.911 1.911 0 0 0-3.46 0L17.643 28.18a2.368 2.368 0 0 0 0 2.207 1.946 1.946 0 0 0 1.726 1.083h13.233a1.975 1.975 0 0 0 1.747-1.107zM25.36 20.091a1.076 1.076 0 0 1 1.241.606 1.326 1.326 0 0 1 .1.537c-.026.537-.073 1.074-.1 1.611-.047.829-.1 1.658-.146 2.487-.026.271-.026.515-.026.782a.8.8 0 0 1-.8.782.787.787 0 0 1-.8-.756l-.219-3.853c-.026-.339-.047-.683-.073-1.022a1.168 1.168 0 0 1 .823-1.174z" fill="#999db0" fill-rule="evenodd"></path>
    <g transform="translate(27 21)" fill="#fff" stroke="#fff">
      <circle cx="6.5" cy="6.5" r="6.5" stroke="none"></circle>
      <circle cx="6.5" cy="6.5" r="6" fill="none"></circle>
    </g>
    <path d="M37.986 26.484h-3.078v-3.078a.77.77 0 1 0-1.539 0v3.079H30.29a.77.77 0 1 0 0 1.539h3.079v3.079a.77.77 0 0 0 1.539 0v-3.079h3.079a.77.77 0 0 0 0-1.539z" fill="#999db0" stroke="#999db0" stroke-width=".2"></path>
  </symbol>
  <symbol xmlns="http://www.w3.org/2000/svg" viewBox="0 0 45 45" id="priority-set">
    <defs>
      <filter id="a" x="0" y="0" width="45" height="45" filterUnits="userSpaceOnUse">
        <feOffset dy="1"></feOffset>
        <feGaussianBlur stdDeviation="1.5" result="blur"></feGaussianBlur>
        <feFlood flood-color="#171e48" flood-opacity=".102"></feFlood>
        <feComposite operator="in" in2="blur"></feComposite>
        <feComposite in="SourceGraphic"></feComposite>
      </filter>
    </defs>
    <g transform="translate(4.504 3.504)" fill="#fff" stroke="#b9bbc7" filter="url(#a)">
      <circle cx="18" cy="18" r="18" stroke="none"></circle>
      <circle cx="18" cy="18" r="17.5" fill="none"></circle>
    </g>
    <path d="M21.674 23.968a.959.959 0 0 1 0 1.917.959.959 0 1 1 0-1.917zm9.091 3.447a3.213 3.213 0 0 1-2.84 1.8H16.114a3.191 3.191 0 0 1-2.821-1.768 3.845 3.845 0 0 1-.011-3.589l5.921-11.218a3.126 3.126 0 0 1 5.656 0l5.913 11.207a3.814 3.814 0 0 1-.007 3.568zm-1.284-.81a2.086 2.086 0 0 0 .011-1.946l-5.917-11.212a1.706 1.706 0 0 0-3.089 0l-5.92 11.209a2.114 2.114 0 0 0 0 1.97 1.738 1.738 0 0 0 1.541.967h11.814a1.763 1.763 0 0 0 1.56-.988zm-8.026-9.171a.961.961 0 0 1 1.108.541 1.184 1.184 0 0 1 .088.479c-.023.479-.065.959-.088 1.438-.042.74-.088 1.48-.13 2.22-.023.242-.023.46-.023.7a.717.717 0 0 1-.717.7.7.7 0 0 1-.717-.675c-.065-1.154-.13-2.286-.2-3.44-.023-.3-.042-.61-.065-.913a1.042 1.042 0 0 1 .744-1.05z" fill="#999db0" fill-rule="evenodd"></path>
    <g transform="translate(23.038 17.934)" fill="#fff" stroke="#fff">
      <ellipse cx="5.5" cy="6" rx="5.5" ry="6" stroke="none"></ellipse>
      <ellipse cx="5.5" cy="6" rx="5" ry="5.5" fill="none"></ellipse>
    </g>
    <path d="M32.729 23.142H29.98v-2.749a.687.687 0 1 0-1.374 0v2.749h-2.749a.687.687 0 1 0 0 1.374h2.749v2.749a.687.687 0 0 0 1.374 0v-2.749h2.749a.687.687 0 0 0 0-1.374z" fill="#999db0" stroke="#999db0" stroke-width=".2"></path>
  </symbol>
  <symbol xmlns="http://www.w3.org/2000/svg" viewBox="0 0 18 18" id="remove">
    <path fill="rgba(255,255,255,0)" d="M0 0h18v18H0z"></path>
    <path d="M9.498 9.504l-5 5 5-5-5-5 5 5 5-5-5 5 5 5z" fill="none" stroke="#fff" stroke-linecap="round" stroke-linejoin="round" stroke-width="2"></path>
  </symbol>
  <symbol xmlns="http://www.w3.org/2000/svg" viewBox="0 0 18 18" id="remove-2">
    <path fill="rgba(255,255,255,0)" d="M0 0h18v18H0z"></path>
    <path d="M8.998 9.004l-5 5 5-5-5-5 5 5 5-5-5 5 5 5z" fill="none" stroke="#ff3722" stroke-linecap="round" stroke-linejoin="round" stroke-width="2"></path>
  </symbol>
  <symbol xmlns="http://www.w3.org/2000/svg" viewBox="0 0 18 18" id="remove-red">
    <path fill="rgba(255,255,255,0)" d="M0 0h18v18H0z"></path>
    <path d="M8.998 9.004l-5 5 5-5-5-5 5 5 5-5-5 5 5 5z" fill="none" stroke="#ff3722" stroke-linecap="round" stroke-linejoin="round" stroke-width="2"></path>
  </symbol>
  <symbol xmlns="http://www.w3.org/2000/svg" viewBox="0 0 24 24" id="save-as-template">
    <path fill="rgba(255,255,255,0)" d="M0 0h24v24H0z"></path>
    <g fill="#747891" stroke="#fff" stroke-linecap="round">
      <path d="M18.075 3.338A1.215 1.215 0 0 0 17.288 3H4.125A1.063 1.063 0 0 0 3 4.125v15.75A1.063 1.063 0 0 0 4.125 21h15.75A1.063 1.063 0 0 0 21 19.875V6.713a1.021 1.021 0 0 0-.337-.788zM9.863 5.25h4.275v3.037H9.863zm8.887 13.5H5.25V5.25h2.363v4.162a1.063 1.063 0 0 0 1.125 1.125h6.525a1.063 1.063 0 0 0 1.125-1.125V5.25h.337l2.025 1.912z"></path>
      <path d="M15.263 13.463H8.738a1.125 1.125 0 1 0 0 2.25h6.525a1.125 1.125 0 1 0 0-2.25z"></path>
    </g>
  </symbol>
  <symbol xmlns="http://www.w3.org/2000/svg" viewBox="0 0 18 18" id="search">
    <path fill="rgba(255,255,255,0)" d="M0 0h18v18H0z"></path>
    <path d="M16.783 15.616L13.8 12.661a7.2 7.2 0 0 0-.533-9.557 7.187 7.187 0 0 0-10.158 10.17 7.2 7.2 0 0 0 9.571.532l2.959 2.955a.768.768 0 0 0 .56.24.727.727 0 0 0 .56-.24.828.828 0 0 0 .024-1.145zM13.8 8.188a5.47 5.47 0 0 1-1.653 3.94A5.643 5.643 0 0 1 8.2 13.779a5.486 5.486 0 0 1-3.946-1.651 5.627 5.627 0 0 1-1.653-3.94 5.47 5.47 0 0 1 1.653-3.94A5.6 5.6 0 0 1 8.2 2.6a5.486 5.486 0 0 1 3.946 1.651A5.579 5.579 0 0 1 13.8 8.188z" fill="#5c617e"></path>
  </symbol>
  <symbol xmlns="http://www.w3.org/2000/svg" viewBox="0 0 24 24" id="share">
    <path fill="rgba(255,255,255,0)" d="M0 0h24v24H0z"></path>
    <path d="M17.331 14.454a3.624 3.624 0 0 0-2.823 1.366l-4.382-2.559a3.866 3.866 0 0 0 0-2.52l4.381-2.559a3.624 3.624 0 0 0 2.823 1.366 3.727 3.727 0 0 0 3.669-3.774 3.67 3.67 0 1 0-7.337 0 3.852 3.852 0 0 0 .211 1.26L9.492 9.593A3.624 3.624 0 0 0 6.67 8.227a3.775 3.775 0 0 0 0 7.547 3.624 3.624 0 0 0 2.822-1.366l4.382 2.559a3.852 3.852 0 0 0-.211 1.261 3.67 3.67 0 1 0 3.669-3.774zm0-11.133a2.422 2.422 0 0 1 2.385 2.453 2.386 2.386 0 1 1-4.77 0 2.422 2.422 0 0 1 2.385-2.454zM6.67 14.454A2.454 2.454 0 1 1 9.054 12a2.423 2.423 0 0 1-2.384 2.454zm10.662 6.227a2.454 2.454 0 1 1 2.385-2.453 2.423 2.423 0 0 1-2.386 2.453z" fill="#747891"></path>
  </symbol>
  <symbol xmlns="http://www.w3.org/2000/svg" viewBox="0 0 24 24" id="smiley">
    <path fill="rgba(255,255,255,0)" d="M0 0h24v24H0z"></path>
    <g fill="#747891">
      <path d="M12 22a10 10 0 1 1 10-10 10.011 10.011 0 0 1-10 10zm0-18.572A8.572 8.572 0 1 0 20.572 12 8.581 8.581 0 0 0 12 3.429z"></path>
      <path d="M12.025 17.831a6.4 6.4 0 0 1-5.066-2.469.714.714 0 1 1 1.125-.88 5 5 0 0 0 7.907-.035.715.715 0 1 1 1.133.871 6.386 6.386 0 0 1-5.099 2.513zm-3.214-5.759A1.071 1.071 0 0 1 7.739 11V9.571a1.071 1.071 0 1 1 2.143 0V11a1.073 1.073 0 0 1-1.071 1.072zm6.428 0A1.071 1.071 0 0 1 14.168 11V9.571a1.072 1.072 0 1 1 2.143 0V11a1.073 1.073 0 0 1-1.072 1.072z"></path>
    </g>
  </symbol>
  <symbol xmlns="http://www.w3.org/2000/svg" viewBox="0 0 18 18" id="star-bookmark-white">
    <path fill="rgba(255,255,255,0)" d="M0 0h18v18H0z"></path>
    <path d="M14.055 17.995a.838.838 0 0 0 .638-.321.921.921 0 0 0 .186-.714l-.848-5.391L17.75 7.72a.92.92 0 0 0 .211-.909.864.864 0 0 0-.682-.605l-5.167-.827L9.767.495a.836.836 0 0 0-1.528 0L5.894 5.379l-5.167.827a.864.864 0 0 0-.682.605.92.92 0 0 0 .211.909l3.719 3.849-.85 5.391a.91.91 0 0 0 .34.87.821.821 0 0 0 .9.068l4.643-2.515 4.643 2.515a.823.823 0 0 0 .404.097z" fill="#fff"></path>
  </symbol>
  <symbol xmlns="http://www.w3.org/2000/svg" viewBox="0 0 18 18" id="star-dark">
    <path fill="rgba(255,255,255,0)" d="M0 0h18v18H0z"></path>
    <path d="M13.493 16.996a.745.745 0 0 0 .567-.285.818.818 0 0 0 .165-.635l-.756-4.792 3.306-3.421a.818.818 0 0 0 .187-.808.768.768 0 0 0-.606-.538l-4.593-.735-2.084-4.341a.743.743 0 0 0-1.358 0L6.237 5.782l-4.593.735a.768.768 0 0 0-.606.538.818.818 0 0 0 .187.808l3.306 3.421-.756 4.792a.809.809 0 0 0 .3.773.73.73 0 0 0 .8.061l4.127-2.235 4.127 2.235a.73.73 0 0 0 .364.086z" fill="#8c90a4"></path>
  </symbol>
  <symbol xmlns="http://www.w3.org/2000/svg" viewBox="0 0 24 24" id="status">
    <path fill="rgba(255,255,255,0)" d="M0 0h24v24H0z"></path>
    <rect width="14" height="14" rx="2" transform="translate(5 5)" fill="#f79c4b"></rect>
  </symbol>
  <symbol xmlns="http://www.w3.org/2000/svg" viewBox="0 0 24 24" id="status-1">
    <path fill="rgba(255,255,255,0)" d="M0 0h24v24H0z"></path>
    <rect width="14" height="14" rx="2" transform="translate(5 5)" fill="#f79c4b"></rect>
  </symbol>
  <symbol xmlns="http://www.w3.org/2000/svg" viewBox="0 0 24 24" id="status-2">
    <path fill="rgba(255,255,255,0)" d="M0 0h24v24H0z"></path>
    <rect width="14" height="14" rx="2" transform="translate(5 5)" fill="#08aa4f"></rect>
  </symbol>
  <symbol xmlns="http://www.w3.org/2000/svg" viewBox="0 0 24 24" id="status-3">
    <path fill="rgba(255,255,255,0)" d="M0 0h24v24H0z"></path>
    <rect width="14" height="14" rx="2" transform="translate(5 5)" fill="#5240b9"></rect>
  </symbol>
  <symbol xmlns="http://www.w3.org/2000/svg" viewBox="0 0 24 24" id="status-4">
    <path fill="rgba(255,255,255,0)" d="M0 0h24v24H0z"></path>
    <rect width="14" height="14" rx="2" transform="translate(5 5)" fill="#b9bbc7"></rect>
  </symbol>
  <symbol xmlns="http://www.w3.org/2000/svg" viewBox="0 0 24 24" id="status-5">
    <path fill="rgba(255,255,255,0)" d="M0 0h24v24H0z"></path>
    <rect width="14" height="14" rx="2" transform="translate(5 5)" fill="#f85859"></rect>
  </symbol>
  <symbol xmlns="http://www.w3.org/2000/svg" viewBox="0 0 34 30" id="tag">
    <g fill="#f4f7fc" stroke="rgba(23,30,72,0.1)" stroke-linecap="round" stroke-linejoin="round">
      <path d="M1.071 0H19a15 15 0 0 1 15 15 15 15 0 0 1-15 15H1.071A1.071 1.071 0 0 1 0 28.929V1.071A1.071 1.071 0 0 1 1.071 0z" stroke="none"></path>
      <path d="M1.291.5H19A14.5 14.5 0 0 1 33.5 15 14.5 14.5 0 0 1 19 29.5H1.291a.791.791 0 0 1-.791-.791V1.291A.791.791 0 0 1 1.291.5z" fill="none"></path>
    </g>
    <path d="M13.451 21.561l-4.016-4.016a1.51 1.51 0 0 1 0-2.118l5.937-5.984A1.5 1.5 0 0 1 16.437 9H20.5a1.507 1.507 0 0 1 1.5 1.5v4.063a1.5 1.5 0 0 1-.443 1.065l-5.985 5.937a1.5 1.5 0 0 1-1.057.432 1.494 1.494 0 0 1-1.064-.436zm2.627-11.412l-5.937 5.984a.49.49 0 0 0 0 .7l4.015 4.016a.493.493 0 0 0 .706 0l5.984-5.937a.5.5 0 0 0 .149-.355V10.5a.493.493 0 0 0-.5-.5h-4.063a.5.5 0 0 0-.354.149zm1.535 2.351a.883.883 0 0 1 .883-.883.883.883 0 0 1 .884.883.884.884 0 0 1-.884.884.883.883 0 0 1-.883-.884z" fill="#6e748f"></path>
  </symbol>
  <symbol xmlns="http://www.w3.org/2000/svg" viewBox="0 0 34 30" id="tag-new">
    <g fill="#f4f7fc" stroke="rgba(23,30,72,0.1)" stroke-linecap="round" stroke-linejoin="round">
      <path d="M1.071 0H19a15 15 0 0 1 15 15 15 15 0 0 1-15 15H1.071A1.071 1.071 0 0 1 0 28.929V1.071A1.071 1.071 0 0 1 1.071 0z" stroke="none"></path>
      <path d="M1.291.5H19A14.5 14.5 0 0 1 33.5 15 14.5 14.5 0 0 1 19 29.5H1.291a.791.791 0 0 1-.791-.791V1.291A.791.791 0 0 1 1.291.5z" fill="none"></path>
    </g>
    <path d="M13.451 21.56l-4.016-4.015a1.51 1.51 0 0 1 0-2.118l5.934-5.984A1.5 1.5 0 0 1 16.434 9H20.5a1.507 1.507 0 0 1 1.5 1.5v4.062a1.5 1.5 0 0 1-.443 1.065l-5.989 5.937a1.508 1.508 0 0 1-2.117 0zm2.627-11.412l-5.937 5.985a.49.49 0 0 0 0 .7l4.015 4.016a.493.493 0 0 0 .706 0l5.984-5.937a.5.5 0 0 0 .154-.35V10.5a.493.493 0 0 0-.5-.5h-4.066a.5.5 0 0 0-.356.148zm1.535 2.352a.883.883 0 1 1 .883.884.883.883 0 0 1-.883-.884z" fill="#6e748f"></path>
  </symbol>
  <symbol xmlns="http://www.w3.org/2000/svg" viewBox="0 0 24 24" id="task-list">
    <path fill="rgba(255,255,255,0)" d="M0 0h24v24H0z"></path>
    <g stroke-width="1.5">
      <g transform="translate(2 2)" fill="#fff" stroke="#747891">
        <rect width="20" height="20" rx="6" stroke="none"></rect>
        <rect x=".75" y=".75" width="18.5" height="18.5" rx="5.25" fill="none"></rect>
      </g>
      <path d="M8 11.82l2.773 3.181 5.227-6" fill="none" stroke="#6e748f" stroke-linecap="round" stroke-linejoin="round"></path>
    </g>
  </symbol>
  <symbol xmlns="http://www.w3.org/2000/svg" viewBox="0 0 24 24" id="tasks">
    <path fill="rgba(255,255,255,0)" d="M0 0h24v24H0z"></path>
    <g stroke-width="1.5">
      <g transform="translate(2 2)" fill="#fff" stroke="#747891">
        <rect width="20" height="20" rx="6" stroke="none"></rect>
        <rect x=".75" y=".75" width="18.5" height="18.5" rx="5.25" fill="none"></rect>
      </g>
      <path d="M8 11.82l2.773 3.181 5.227-6" fill="none" stroke="#6e748f" stroke-linecap="round" stroke-linejoin="round"></path>
    </g>
  </symbol>
  <symbol xmlns="http://www.w3.org/2000/svg" viewBox="0 0 24 24" id="tick-blue">
    <g fill="#2585d3">
      <path d="M12 0a12 12 0 1 0 12 12A12.014 12.014 0 0 0 12 0zm0 22.066A10.066 10.066 0 1 1 22.066 12 10.077 10.077 0 0 1 12 22.066z"></path>
      <path d="M16.342 8.276l-5.626 5.452-2.057-1.995a.992.992 0 0 0-1.373 0 .92.92 0 0 0 0 1.331l2.745 2.661a.992.992 0 0 0 1.373 0l6.313-6.117a.921.921 0 0 0 0-1.331.994.994 0 0 0-1.375-.001z"></path>
    </g>
  </symbol>
  <symbol xmlns="http://www.w3.org/2000/svg" viewBox="0 0 36 36" id="ticket-calendar-dark">
    <path fill="rgba(255,255,255,0)" d="M0 0h36v36H0z"></path>
    <g fill="#5b607e">
      <path d="M27.263 9.789h-3.184V7.93a.87.87 0 1 0-1.737 0v1.859h-3.474V7.93a.87.87 0 1 0-1.737 0v1.859h-3.473V7.93a.87.87 0 1 0-1.737 0v1.859H8.737A1.806 1.806 0 0 0 7 11.648v15.493A1.806 1.806 0 0 0 8.737 29h18.526A1.806 1.806 0 0 0 29 27.141V11.648a1.806 1.806 0 0 0-1.737-1.859zm0 17.352H8.737V11.648h3.184v.62a.87.87 0 1 0 1.737 0v-.62h3.474v.62a.87.87 0 1 0 1.737 0v-.62h3.474v.62a.87.87 0 1 0 1.737 0v-.62h3.184z"></path>
      <path d="M21.784 16.634l-5.457 5.457-2.108-2.113a.871.871 0 0 0-1.232 1.232l2.728 2.728a.851.851 0 0 0 1.232 0l6.072-6.068a.871.871 0 0 0-1.232-1.232z"></path>
    </g>
  </symbol>
  <symbol xmlns="http://www.w3.org/2000/svg" viewBox="0 0 36 36" id="ticket-calendar-white">
    <path fill="rgba(255,255,255,0)" d="M0 0h36v36H0z"></path>
    <g fill="#fff">
      <path d="M27.263 9.789h-3.184V7.93a.87.87 0 1 0-1.737 0v1.859h-3.474V7.93a.87.87 0 1 0-1.737 0v1.859h-3.473V7.93a.87.87 0 1 0-1.737 0v1.859H8.737A1.806 1.806 0 0 0 7 11.648v15.493A1.806 1.806 0 0 0 8.737 29h18.526A1.806 1.806 0 0 0 29 27.141V11.648a1.806 1.806 0 0 0-1.737-1.859zm0 17.352H8.737V11.648h3.184v.62a.87.87 0 1 0 1.737 0v-.62h3.474v.62a.87.87 0 1 0 1.737 0v-.62h3.474v.62a.87.87 0 1 0 1.737 0v-.62h3.184z"></path>
      <path d="M21.784 16.634l-5.457 5.457-2.108-2.113a.871.871 0 0 0-1.232 1.232l2.728 2.728a.851.851 0 0 0 1.232 0l6.072-6.068a.871.871 0 0 0-1.232-1.232z"></path>
    </g>
  </symbol>
  <symbol xmlns="http://www.w3.org/2000/svg" viewBox="0 0 36 36" id="ticket-list-dark">
    <path fill="rgba(255,255,255,0)" d="M0 0h36v36H0z"></path>
    <g fill="#5b607e">
      <path d="M26.641 6H9.359A3.328 3.328 0 0 0 6 9.291v17.418A3.327 3.327 0 0 0 9.359 30h17.282A3.327 3.327 0 0 0 30 26.709V9.291A3.325 3.325 0 0 0 26.641 6zm1.977 20.709a1.96 1.96 0 0 1-1.977 1.937H9.359a1.96 1.96 0 0 1-1.977-1.937V9.291a1.96 1.96 0 0 1 1.977-1.937h17.282a1.96 1.96 0 0 1 1.977 1.937v17.418z"></path>
      <path d="M12.904 20.75a1.559 1.559 0 1 0 1.56 1.557 1.561 1.561 0 0 0-1.56-1.557zm0-4.31a1.559 1.559 0 1 0 1.56 1.557 1.561 1.561 0 0 0-1.56-1.557zm0-4.307a1.559 1.559 0 1 0 1.56 1.557 1.561 1.561 0 0 0-1.56-1.557zm3.364.288h8.6v1.939h-8.6zm0 4.608h8.6v1.941h-8.6zm0 4.608h8.6v1.939h-8.6z"></path>
    </g>
  </symbol>
  <symbol xmlns="http://www.w3.org/2000/svg" viewBox="0 0 36 36" id="ticket-list-white">
    <path fill="rgba(255,255,255,0)" d="M0 0h36v36H0z"></path>
    <g fill="#fff">
      <path d="M26.641 6H9.359A3.328 3.328 0 0 0 6 9.291v17.418A3.327 3.327 0 0 0 9.359 30h17.282A3.327 3.327 0 0 0 30 26.709V9.291A3.325 3.325 0 0 0 26.641 6zm1.977 20.709a1.96 1.96 0 0 1-1.977 1.937H9.359a1.96 1.96 0 0 1-1.977-1.937V9.291a1.96 1.96 0 0 1 1.977-1.937h17.282a1.96 1.96 0 0 1 1.977 1.937v17.418z"></path>
      <path d="M12.904 20.75a1.559 1.559 0 1 0 1.56 1.557 1.561 1.561 0 0 0-1.56-1.557zm0-4.31a1.559 1.559 0 1 0 1.56 1.557 1.561 1.561 0 0 0-1.56-1.557zm0-4.307a1.559 1.559 0 1 0 1.56 1.557 1.561 1.561 0 0 0-1.56-1.557zm3.364.288h8.6v1.939h-8.6zm0 4.608h8.6v1.941h-8.6zm0 4.608h8.6v1.939h-8.6z"></path>
    </g>
  </symbol>
  <symbol xmlns="http://www.w3.org/2000/svg" viewBox="0 0 24 24" id="tick-green">
    <g fill="#08aa4f">
      <path d="M12 0a12 12 0 1 0 12 12A12.014 12.014 0 0 0 12 0zm0 22.066A10.066 10.066 0 1 1 22.066 12 10.077 10.077 0 0 1 12 22.066z"></path>
      <path d="M16.342 8.276l-5.626 5.452-2.057-1.995a.992.992 0 0 0-1.373 0 .92.92 0 0 0 0 1.331l2.745 2.661a.992.992 0 0 0 1.373 0l6.313-6.117a.921.921 0 0 0 0-1.331.994.994 0 0 0-1.375-.001z"></path>
    </g>
  </symbol>
  <symbol xmlns="http://www.w3.org/2000/svg" viewBox="0 0 24 24" id="tick-grey">
    <g fill="#c7cad7">
      <path d="M12 0a12 12 0 1 0 12 12A12.014 12.014 0 0 0 12 0zm0 22.066A10.066 10.066 0 1 1 22.066 12 10.077 10.077 0 0 1 12 22.066z"></path>
      <path d="M16.342 8.276l-5.626 5.452-2.057-1.995a.992.992 0 0 0-1.373 0 .92.92 0 0 0 0 1.331l2.745 2.661a.992.992 0 0 0 1.373 0l6.313-6.117a.921.921 0 0 0 0-1.331.994.994 0 0 0-1.375-.001z"></path>
    </g>
  </symbol>
  <symbol xmlns="http://www.w3.org/2000/svg" viewBox="0 0 18 18" id="tick-set-complete">
    <path fill="rgba(255,255,255,0)" d="M0 0h18v18H0z"></path>
    <path d="M2.5 8.73l4.506 4.771 8.494-9" fill="none" stroke="#5c617f" stroke-linecap="round" stroke-linejoin="round" stroke-width="2"></path>
  </symbol>
  <symbol xmlns="http://www.w3.org/2000/svg" viewBox="0 0 18 18" id="tick-white">
    <path fill="rgba(255,255,255,0)" d="M0 0h18v18H0z"></path>
    <path d="M3.784 8.74l3.6 4.125 6.781-7.782" fill="none" stroke="#fff" stroke-linecap="round" stroke-linejoin="round" stroke-width="2"></path>
  </symbol>
  <symbol xmlns="http://www.w3.org/2000/svg" viewBox="0 0 18 18" id="unlike">
    <path fill="rgba(255,255,255,0)" d="M0 0h18v18H0z"></path>
    <path d="M16.086 6.005c-.866-.1-4.4-.024-5.264-.045-.478-.011-.467-.041-.263-.535 1.281-3.1.1-5.1-1.01-5.361-.866-.207-1.891-.016-1.85 2a2.791 2.791 0 0 1-.63 1.839c-.615.734-1.137 1.551-1.732 2.3-.361.455-.664 1.032-1.211 1.213a1 1 0 0 0-.717 1.137c.006 1.136 0 2.271 0 3.407v3.49c0 .645.192.922.732 1.008.49.079 3.335.491 3.794.676a13.652 13.652 0 0 0 6.258.791 2.445 2.445 0 0 0 2.351-2.694.837.837 0 0 1 .156-.53 2.591 2.591 0 0 0 .467-1.861.946.946 0 0 1 .082-.638 2.239 2.239 0 0 0 .274-1.593 1.912 1.912 0 0 1 .218-1.235 2.292 2.292 0 0 0-1.655-3.369zM2.062 7.672h-1.5A.592.592 0 0 0 0 8.29v7.365a.592.592 0 0 0 .562.618h1.5a.592.592 0 0 0 .562-.618v-7.37a.592.592 0 0 0-.562-.613z" fill="#adb4c5" fill-rule="evenodd"></path>
  </symbol>
  <symbol xmlns="http://www.w3.org/2000/svg" viewBox="0 0 36 36" id="view-eye">
    <path fill="rgba(255,255,255,0)" d="M0 0h36v36H0z"></path>
    <g fill="#fff">
      <path d="M17.903 26.742c-7.024 0-12.55-8.1-12.772-8.434a.791.791 0 0 1 0-.874C5.363 17.088 10.887 9 17.903 9s12.55 8.1 12.772 8.434a.791.791 0 0 1 0 .874c-.222.331-5.748 8.434-12.772 8.434zm-11.31-8.886c1.229 1.648 5.9 7.38 11.31 7.38s10.081-5.723 11.31-7.38c-1.229-1.648-5.9-7.38-11.31-7.38s-10.081 5.732-11.31 7.38z"></path>
      <path d="M18.02 21.386a3.629 3.629 0 1 1 3.629-3.629 3.629 3.629 0 0 1-3.629 3.629zm0-6.124a2.495 2.495 0 1 0 2.495 2.495 2.495 2.495 0 0 0-2.495-2.495z" stroke="#fff" stroke-width=".5"></path>
    </g>
  </symbol>
  <symbol xmlns="http://www.w3.org/2000/svg" viewBox="0 0 36 36" id="watchers">
    <path fill="rgba(255,255,255,0)" d="M0 0h36v36H0z"></path>
    <g fill="#5c617f">
      <path d="M18 29C9.289 29 2.437 18.952 2.163 18.542a.981.981 0 0 1 0-1.083C2.452 17.029 9.3 7.001 18 7.001s15.563 10.047 15.836 10.457a.981.981 0 0 1 0 1.083C33.563 18.952 26.71 29 18 29zM3.975 17.981c1.524 2.043 7.313 9.151 14.024 9.151s12.5-7.1 14.024-9.151C30.499 15.938 24.71 8.83 17.999 8.83s-12.5 7.108-14.024 9.151z"></path>
      <path d="M18.145 22.359a4.5 4.5 0 1 1 4.5-4.5 4.5 4.5 0 0 1-4.5 4.5zm0-7.594a3.094 3.094 0 1 0 3.094 3.094 3.094 3.094 0 0 0-3.094-3.094z" stroke="#5c617f" stroke-width=".5"></path>
    </g>
  </symbol>

  <symbol xmlns="http://www.w3.org/2000/svg" viewBox="0 0 36 36" id="watchers-active">
    <path fill="rgba(255,255,255,0)" d="M0 0h36v36H0z"></path>
    <g fill="#2585d3">
      <path d="M18 29C9.289 29 2.437 18.952 2.163 18.542a.981.981 0 0 1 0-1.083C2.452 17.029 9.3 7.001 18 7.001s15.563 10.047 15.836 10.457a.981.981 0 0 1 0 1.083C33.563 18.952 26.71 29 18 29zM3.975 17.981c1.524 2.043 7.313 9.151 14.024 9.151s12.5-7.1 14.024-9.151C30.499 15.938 24.71 8.83 17.999 8.83s-12.5 7.108-14.024 9.151z"></path>
      <path d="M18.145 22.359a4.5 4.5 0 1 1 4.5-4.5 4.5 4.5 0 0 1-4.5 4.5zm0-7.594a3.094 3.094 0 1 0 3.094 3.094 3.094 3.094 0 0 0-3.094-3.094z" stroke="#5c617f" stroke-width=".5"></path>
    </g>
  </symbol>
  <symbol xmlns="http://www.w3.org/2000/svg" viewBox="0 0 24 24" id="recurrence-recurs">
    <path fill="rgba(255,255,255,0)" d="M0 0h24v24H0z"></path>
    <path d="M11.147 9.365L13.541 7.1a1.021 1.021 0 0 0 0-1.518L11.147 3.32a1.168 1.168 0 0 0-1.605 0 1.021 1.021 0 0 0 0 1.518l.479.453H7.542A6.86 6.86 0 0 0 .5 11.948a6.86 6.86 0 0 0 7.042 6.658 1.067 1.067 0 1 0 0-2.13 4.534 4.534 0 1 1 0-9.055h2.478l-.479.453a1.021 1.021 0 0 0 0 1.518 1.145 1.145 0 0 0 .789.32 1.243 1.243 0 0 0 .817-.347zm5.311-3.943a1.067 1.067 0 1 0 0 2.13 4.534 4.534 0 1 1 0 9.054h-2.056l.479-.453a1.021 1.021 0 0 0 0-1.518 1.168 1.168 0 0 0-1.605 0l-2.394 2.263a1.021 1.021 0 0 0 0 1.518l2.394 2.263a1.133 1.133 0 0 0 1.577 0 1.021 1.021 0 0 0 0-1.518l-.451-.426h2.056a6.86 6.86 0 0 0 7.042-6.657 6.86 6.86 0 0 0-7.042-6.656z" fill="#747891" stroke="#fff" stroke-linecap="round" stroke-linejoin="round" stroke-width=".7"></path>
  </symbol>
  <symbol xmlns="http://www.w3.org/2000/svg" viewBox="0 0 24 24" id="recurrence-active">
    <path fill="rgba(255,255,255,0)" d="M0 0h24v24H0z"></path>
    <path d="M11.147 9.365L13.541 7.1a1.021 1.021 0 0 0 0-1.518L11.147 3.32a1.168 1.168 0 0 0-1.605 0 1.021 1.021 0 0 0 0 1.518l.479.453H7.542A6.86 6.86 0 0 0 .5 11.948a6.86 6.86 0 0 0 7.042 6.658 1.067 1.067 0 1 0 0-2.13 4.534 4.534 0 1 1 0-9.055h2.478l-.479.453a1.021 1.021 0 0 0 0 1.518 1.145 1.145 0 0 0 .789.32 1.243 1.243 0 0 0 .817-.347zm5.311-3.943a1.067 1.067 0 1 0 0 2.13 4.534 4.534 0 1 1 0 9.054h-2.056l.479-.453a1.021 1.021 0 0 0 0-1.518 1.168 1.168 0 0 0-1.605 0l-2.394 2.263a1.021 1.021 0 0 0 0 1.518l2.394 2.263a1.133 1.133 0 0 0 1.577 0 1.021 1.021 0 0 0 0-1.518l-.451-.426h2.056a6.86 6.86 0 0 0 7.042-6.657 6.86 6.86 0 0 0-7.042-6.656z" fill="#2585d3" stroke="#fff" stroke-linecap="round" stroke-linejoin="round" stroke-width=".7"></path>
  </symbol>
  <symbol xmlns="http://www.w3.org/2000/svg" viewBox="0 0 15.827 11.414" id="complete">
    <path d="M1.414 5.644l4.506 4.771 8.494-9" fill="none" stroke="#5c617f" stroke-linecap="round" stroke-linejoin="round" stroke-width="2"></path>
  </symbol>
  <symbol xmlns="http://www.w3.org/2000/svg" viewBox="0 0 15.827 11.414" id="completed">
    <path d="M1.414 5.644l4.506 4.771 8.494-9" fill="none" stroke="#fff" stroke-linecap="round" stroke-linejoin="round" stroke-width="2"></path>
  </symbol>
  <symbol xmlns="http://www.w3.org/2000/svg" viewBox="0 0 20.001 20.001" id="smiley">
    <path d="M10 20a10 10 0 1 1 10-10 10.011 10.011 0 0 1-10 10zm0-18.572A8.572 8.572 0 1 0 18.572 10 8.581 8.581 0 0 0 10 1.429z"></path>
    <path d="M10.025 15.831a6.4 6.4 0 0 1-5.066-2.469.714.714 0 1 1 1.125-.88 5 5 0 0 0 7.907-.035.715.715 0 1 1 1.133.871 6.386 6.386 0 0 1-5.099 2.513zm-3.214-5.759A1.071 1.071 0 0 1 5.739 9V7.571a1.071 1.071 0 1 1 2.143 0V9a1.073 1.073 0 0 1-1.071 1.072zm6.428 0A1.071 1.071 0 0 1 12.168 9V7.571a1.072 1.072 0 1 1 2.143 0V9a1.073 1.073 0 0 1-1.072 1.072z"></path>
  </symbol>
  <symbol xmlns="http://www.w3.org/2000/svg" viewBox="0 0 20.944 20.834" id="at">
    <path d="M8.754 20.282A9.467 9.467 0 0 1 .64 12.711a11.364 11.364 0 0 1 1.523-7.892C4.843.598 10.591-.805 15.49 1.568a8.265 8.265 0 0 1 4.622 9.97 10.413 10.413 0 0 1-1.166 2.688 6.447 6.447 0 0 1-1.814 1.39 3.219 3.219 0 0 1-2.631 0 3.367 3.367 0 0 1-1.591-1.285c-.092-.19-.2-.346-.237-.345a1.811 1.811 0 0 0-.418.324 5.758 5.758 0 0 1-4.333 1.35 3.622 3.622 0 0 1-3.228-3.065 7.9 7.9 0 0 1 1.83-5.524 5.654 5.654 0 0 1 5.777-2.32c2.409.616 3.15 2.4 2.435 5.861-.293 1.421-.312 2.347-.057 2.73a1.611 1.611 0 0 0 1.329.581 2.618 2.618 0 0 0 1.569-1.307 8.077 8.077 0 0 0 .71-4.988c-.711-2.78-3.4-4.821-6.825-5.187a7.933 7.933 0 0 0-7.158 2.814 9.339 9.339 0 0 0-1.8 6.334 7.3 7.3 0 0 0 2.234 4.6 5.484 5.484 0 0 0 1.847 1.345 7.757 7.757 0 0 0 3.982.875 8.247 8.247 0 0 0 2.389-.22 12.037 12.037 0 0 0 4.318-1.93 3.5 3.5 0 0 1 1.016-.52 1.045 1.045 0 0 1 .9.5c.343.651.1 1.078-1.066 1.841a13.5 13.5 0 0 1-9.37 2.202zm.939-6.755a6.363 6.363 0 0 0 2.242-1.64 2.155 2.155 0 0 0 .759-1.318c.59-2.547.406-3.5-.751-3.874a2.842 2.842 0 0 0-2.207.232C7.265 8.121 5.7 12.468 7.392 13.438a2.712 2.712 0 0 0 2.301.089z" fill="#747891" stroke="#fff" stroke-linecap="round" stroke-linejoin="round" stroke-width=".8"></path>
  </symbol>
  <symbol xmlns="http://www.w3.org/2000/svg" viewBox="0 0 18 18" id="checkall">
    <path d="M17.217 7.676a.788.788 0 0 0-.783.794v6.618a1.314 1.314 0 0 1-1.3 1.324H6a1.314 1.314 0 0 1-1.3-1.324H12a2.891 2.891 0 0 0 2.87-2.912V5.559a.783.783 0 1 0-1.565 0v6.618A1.314 1.314 0 0 1 12 13.5H2.87a1.314 1.314 0 0 1-1.3-1.324V2.912a1.314 1.314 0 0 1 1.3-1.324h6.522a.794.794 0 0 0 0-1.588H2.87A2.891 2.891 0 0 0 0 2.912v9.265a2.891 2.891 0 0 0 2.87 2.912h.261A2.891 2.891 0 0 0 6 18h9.13A2.891 2.891 0 0 0 18 15.088V8.471a.788.788 0 0 0-.783-.795z" fill="#747891" stroke="#fff" stroke-linecap="round" stroke-linejoin="round" stroke-width=".8"></path>
    <path d="M4.262 4.81a.808.808 0 0 0-1.118.044.752.752 0 0 0 .045 1.085l3.146 2.816a.8.8 0 0 0 .527.2h.037a.8.8 0 0 0 .551-.256l6.782-7.246a.753.753 0 0 0 .221-.778.783.783 0 0 0-.618-.54.8.8 0 0 0-.774.294L6.812 7.11z" fill="#747891" stroke="#fff" stroke-linecap="round" stroke-linejoin="round" stroke-width=".8"></path>
  </symbol>
  <symbol xmlns="http://www.w3.org/2000/svg" viewBox="0 0 19 19" id="info">
    <path d="M17 8h-6V2a1.5 1.5 0 0 0-3 0v6H2a1.5 1.5 0 0 0 0 3h6v6a1.5 1.5 0 0 0 3 0v-6h6a1.5 1.5 0 0 0 0-3z" fill="#747891" stroke="#fff" stroke-linecap="round" stroke-linejoin="round" stroke-width=".8"></path>
  </symbol>
  <symbol xmlns="http://www.w3.org/2000/svg" viewBox="0 0 23.335 23.335" id="copyurl">
    <path d="M5.854 14.34l-1.965-1.965a5.218 5.218 0 0 1 .283-7.354l.849-.848a5.218 5.218 0 0 1 7.354-.283l1.964 1.964a1.157 1.157 0 0 1-.063 1.634 1.157 1.157 0 0 1-1.634.063l-1.964-1.964a2.9 2.9 0 0 0-4.086.157l-.848.848a2.9 2.9 0 0 0-.157 4.086l1.964 1.964a1.2 1.2 0 0 1-1.697 1.697m5.107 5.107l-1.965-1.964a1.2 1.2 0 0 1 1.697-1.697l1.965 1.964a2.9 2.9 0 0 0 4.085-.157l.849-.848a2.9 2.9 0 0 0 .157-4.086l-1.965-1.964a1.157 1.157 0 0 1 .063-1.635 1.157 1.157 0 0 1 1.634-.062l1.965 1.964a5.218 5.218 0 0 1-.283 7.354l-.849.848a5.218 5.218 0 0 1-7.353.283m2.215-4.573L8.462 10.16a1.162 1.162 0 0 1 .063-1.634 1.162 1.162 0 0 1 1.634-.063l4.715 4.714a1.162 1.162 0 0 1-.064 1.633 1.162 1.162 0 0 1-1.634.063" fill="#747891" stroke="#fff" stroke-width=".5" fill-rule="evenodd"></path>
  </symbol>
  <symbol xmlns="http://www.w3.org/2000/svg" viewBox="0 0 23.335 23.335" id="copyurl-active">
    <path d="M5.854 14.34l-1.965-1.965a5.218 5.218 0 0 1 .283-7.354l.849-.848a5.218 5.218 0 0 1 7.354-.283l1.964 1.964a1.157 1.157 0 0 1-.063 1.634 1.157 1.157 0 0 1-1.634.063l-1.964-1.964a2.9 2.9 0 0 0-4.086.157l-.848.848a2.9 2.9 0 0 0-.157 4.086l1.964 1.964a1.2 1.2 0 0 1-1.697 1.697m5.107 5.107l-1.965-1.964a1.2 1.2 0 0 1 1.697-1.697l1.965 1.964a2.9 2.9 0 0 0 4.085-.157l.849-.848a2.9 2.9 0 0 0 .157-4.086l-1.965-1.964a1.157 1.157 0 0 1 .063-1.635 1.157 1.157 0 0 1 1.634-.062l1.965 1.964a5.218 5.218 0 0 1-.283 7.354l-.849.848a5.218 5.218 0 0 1-7.353.283m2.215-4.573L8.462 10.16a1.162 1.162 0 0 1 .063-1.634 1.162 1.162 0 0 1 1.634-.063l4.715 4.714a1.162 1.162 0 0 1-.064 1.633 1.162 1.162 0 0 1-1.634.063" fill="#2585d3" stroke="#fff" stroke-width=".5" fill-rule="evenodd"></path>
  </symbol>
  <!-- <symbol xmlns="http://www.w3.org/2000/svg" viewBox="0 0 13.5 9" id="foreign-description">
    <path fill="#171e48" fill-rule="evenodd" d="M12.75 1.5h-12a.75.75 0 0 1 0-1.5h12a.75.75 0 0 1 0 1.5zm0 3.75h-12a.75.75 0 0 1 0-1.5h12a.75.75 0 0 1 0 1.5zM.75 9h7.5a.75.75 0 0 0 0-1.5H.75a.75.75 0 1 0 0 1.5z" opacity=".4"></path>
  </symbol>
  <symbol xmlns="http://www.w3.org/2000/svg" viewBox="0 0 13.5 9" id="foreign-active-description">
    <path fill="#171e48" fill-rule="evenodd" d="M12.75 1.5h-12a.75.75 0 0 1 0-1.5h12a.75.75 0 0 1 0 1.5zm0 3.75h-12a.75.75 0 0 1 0-1.5h12a.75.75 0 0 1 0 1.5zM.75 9h7.5a.75.75 0 0 0 0-1.5H.75a.75.75 0 1 0 0 1.5z" opacity=".4"></path>
  </symbol> -->
  <symbol xmlns="http://www.w3.org/2000/svg" viewBox="0 0 16 16" id="foreign-checklist">
    <g fill="none" stroke="#171e48" stroke-width="1.5" opacity=".5">
      <rect width="16" height="16" stroke="none" rx="4"></rect>
      <rect width="14.5" height="14.5" x=".75" y=".75" rx="3.25"></rect>
      <path stroke-linecap="round" stroke-linejoin="round" d="M4.8 7.855L7.018 10.4 11.2 5.6"></path>
    </g>
  </symbol>
  <symbol xmlns="http://www.w3.org/2000/svg" viewBox="0 0 16 16" id="foreign-active-checklist">
    <g fill="none" stroke="#5c7ef7" stroke-width="1.5" opacity=".5">
      <rect width="16" height="16" stroke="none" rx="4"></rect>
      <rect width="14.5" height="14.5" x=".75" y=".75" rx="3.25"></rect>
      <path stroke-linecap="round" stroke-linejoin="round" d="M4.8 7.855L7.018 10.4 11.2 5.6"></path>
    </g>
  </symbol>
  <symbol xmlns="http://www.w3.org/2000/svg" viewBox="0 0 14 14" id="foreign-comment">
    <path fill="#171e48" fill-rule="evenodd" d="M13.225 13.984a.636.636 0 0 0 .759-.759l-.7-3.143a7 7 0 1 0-3.2 3.2zM12.054 9.7a.636.636 0 0 0-.06.438l.531 2.391-2.391-.531a.636.636 0 0 0-.438.06A5.723 5.723 0 1 1 12.054 9.7zM5.091 8.272A1.273 1.273 0 1 0 3.818 7a1.273 1.273 0 0 0 1.273 1.272zM10.181 7a1.273 1.273 0 1 1-1.272-1.273A1.273 1.273 0 0 1 10.181 7z"
      opacity=".5"></path>
  </symbol>
  <symbol xmlns="http://www.w3.org/2000/svg" viewBox="0 0 14 14" id="foreign-active-comment">
    <path fill="#5c7ef7" fill-rule="evenodd" d="M13.225 13.984a.636.636 0 0 0 .759-.759l-.7-3.143a7 7 0 1 0-3.2 3.2zM12.054 9.7a.636.636 0 0 0-.06.438l.531 2.391-2.391-.531a.636.636 0 0 0-.438.06A5.723 5.723 0 1 1 12.054 9.7zM5.091 8.272A1.273 1.273 0 1 0 3.818 7a1.273 1.273 0 0 0 1.273 1.272zM10.181 7a1.273 1.273 0 1 1-1.272-1.273A1.273 1.273 0 0 1 10.181 7z"
      opacity=".5"></path>
  </symbol>
    <symbol xmlns="http://www.w3.org/2000/svg" viewBox="0 0 36 36" id="bookmark-attachment">
    <g fill="#f8c900" stroke="#fff" stroke-width="2">
      <circle cx="18" cy="18" r="18" stroke="none"></circle>
      <circle cx="18" cy="18" r="17" fill="none"></circle>
    </g>
    <path fill="#fff" d="M23.055 26.995a.838.838 0 0 0 .638-.321.921.921 0 0 0 .186-.714l-.848-5.391 3.719-3.849a.92.92 0 0 0 .211-.909.864.864 0 0 0-.682-.605l-5.167-.827-2.345-4.884a.836.836 0 0 0-1.528 0l-2.345 4.884-5.167.827a.864.864 0 0 0-.682.605.92.92 0 0 0 .211.909l3.719 3.849-.85 5.391a.91.91 0 0 0 .34.87.821.821 0 0 0 .9.068l4.643-2.515 4.643 2.515a.823.823 0 0 0 .404.097z"></path>
  </symbol>
  <symbol xmlns="http://www.w3.org/2000/svg" viewBox="0 0 36 36" id="unmarked-attachment">
    <g fill="#DCDCE3" stroke="#fff" stroke-width="2">
      <circle cx="18" cy="18" r="18" stroke="none"></circle>
      <circle cx="18" cy="18" r="17" fill="none"></circle>
    </g>
    <path fill="#fff" d="M23.055 26.995a.838.838 0 0 0 .638-.321.921.921 0 0 0 .186-.714l-.848-5.391 3.719-3.849a.92.92 0 0 0 .211-.909.864.864 0 0 0-.682-.605l-5.167-.827-2.345-4.884a.836.836 0 0 0-1.528 0l-2.345 4.884-5.167.827a.864.864 0 0 0-.682.605.92.92 0 0 0 .211.909l3.719 3.849-.85 5.391a.91.91 0 0 0 .34.87.821.821 0 0 0 .9.068l4.643-2.515 4.643 2.515a.823.823 0 0 0 .404.097z"></path>
  </symbol>
  <symbol xmlns="http://www.w3.org/2000/svg" viewBox="0 0 22 22" id="selection-circle">
    <g fill="#2585d3" stroke="#2585d3" stroke-width="1.5">
      <circle cx="11" cy="11" r="11" stroke="none"></circle>
      <circle cx="11" cy="11" r="10.25" fill="none"></circle>
    </g>
    <path fill="none" stroke="#fff" stroke-linecap="round" stroke-linejoin="round" stroke-width="2" d="M6 10.516l3.466 3.711 6.534-7"></path>
  </symbol>
  <symbol xmlns="http://www.w3.org/2000/svg" viewBox="0 0 25.806 17.742" id="attachment-eye">
    <path fill="#fff" d="M12.903 17.742c-7.024 0-12.55-8.1-12.772-8.434a.791.791 0 0 1 0-.874C.363 8.088 5.887 0 12.903 0s12.55 8.1 12.772 8.434a.791.791 0 0 1 0 .874c-.222.331-5.748 8.434-12.772 8.434zM1.593 8.856c1.229 1.648 5.9 7.38 11.31 7.38s10.081-5.723 11.31-7.38c-1.229-1.648-5.9-7.38-11.31-7.38S2.822 7.208 1.593 8.856z"></path>
    <path fill="#fff" stroke="#fff" stroke-width=".5" d="M13.02 12.386a3.629 3.629 0 1 1 3.629-3.629 3.629 3.629 0 0 1-3.629 3.629zm0-6.124a2.495 2.495 0 1 0 2.495 2.495 2.495 2.495 0 0 0-2.495-2.495z"></path>
  </symbol>
  <symbol xmlns="http://www.w3.org/2000/svg" viewBox="0 0 18.3 17.3" id="download-blue">
    <path fill="#2585d3" stroke="#2585d3" stroke-width="0.2" d="M18.15 12.286v3.962a.9.9 0 0 1-.028.22.854.854 0 0 1-.833.682H1.006a.851.851 0 0 1-.844-.755.663.663 0 0 1-.011-.152v-3.962a.85.85 0 0 1 1.7 0v3.173h14.604v-3.173a.851.851 0 0 1 1.451-.6.89.89 0 0 1 .244.605z"></path>
    <path fill="#2585d3" stroke="#2585d3" stroke-width="0.2" d="M13.87 9.073l-4.024 4.1c-.005.011-.016.017-.022.022a.942.942 0 0 1-.53.273c-.016 0-.033.006-.049.006a.584.584 0 0 1-.1.006l-.093-.006c-.016 0-.033-.006-.049-.006a.925.925 0 0 1-.53-.273l-.022-.022-4.024-4.1a.995.995 0 0 1 0-1.381.949.949 0 0 1 1.354 0L8.2 10.158V1.123a.956.956 0 1 1 1.911 0v9.036l2.419-2.466a.949.949 0 0 1 1.354 0 1.011 1.011 0 0 1-.014 1.38z"></path>
  </symbol>
</svg>