<svg width="0" height="0" class="hidden">
  <symbol xmlns="http://www.w3.org/2000/svg" viewBox="0 0 40 40" id="unknown-user-40px">
    <g fill="#f4f7fc" stroke="#dde1e9">
      <circle cx="20" cy="20" r="20" stroke="none"></circle>
      <circle cx="20" cy="20" r="19.5" fill="none"></circle>
    </g>
    <g transform="translate(2.302 3.901)">
      <path d="M17 4.1a5.13 5.13 0 0 1 3.582 1.476 5.083 5.083 0 0 1 0 7.164 5.215 5.215 0 0 1-1.452 1.016 8.343 8.343 0 0 1 1.864.75.552.552 0 0 1-.532.968 6.831 6.831 0 0 0-1.694-.653 7.4 7.4 0 0 0-1.791-.218 7.272 7.272 0 0 0-7.236 7.212v.992a.676.676 0 0 0 .194.484.753.753 0 0 0 .532.194h6.946a.557.557 0 1 1 0 1.113h-6.9A1.818 1.818 0 0 1 8.7 22.784v-.992a8.339 8.339 0 0 1 6.172-8.035 4.958 4.958 0 0 1-1.428-1.016A5.058 5.058 0 0 1 17 4.1zm2.783 2.275A3.953 3.953 0 0 0 17 5.213a3.854 3.854 0 0 0-2.783 1.162 3.953 3.953 0 0 0-1.162 2.783 3.854 3.854 0 0 0 1.162 2.783A3.953 3.953 0 0 0 17 13.1a3.854 3.854 0 0 0 2.783-1.162 3.953 3.953 0 0 0 1.162-2.783 3.854 3.854 0 0 0-1.162-2.783z"
        fill="#979cb0" stroke="#979cb0" stroke-linecap="round"></path>
      <circle cx="6" cy="6" r="6" transform="translate(15.698 14.099)" fill="#f4f7fc"></circle>
      <path d="M21.777 15.842l.174.016a3.374 3.374 0 0 1 1.239.321 2.063 2.063 0 0 1 .855.731 1.888 1.888 0 0 1 .291.832 1.841 1.841 0 0 1-.061.765 1.986 1.986 0 0 1-.466.789 5.32 5.32 0 0 1-.8.66c-.161.111-.3.227-.455.342a.964.964 0 0 0-.3.429c-.032.087-.069.174-.1.26a.6.6 0 0 1-.559.4.783.783 0 0 1-.407-.064.664.664 0 0 1-.365-.5 1.141 1.141 0 0 1 .193-.852 2.339 2.339 0 0 1 .5-.533c.21-.172.427-.336.643-.508a1.7 1.7 0 0 0 .44-.5.943.943 0 0 0-.112-1.044.868.868 0 0 0-.482-.267 1.534 1.534 0 0 0-.749.013.911.911 0 0 0-.58.482c-.076.141-.141.286-.212.429a1.043 1.043 0 0 1-.207.291.718.718 0 0 1-.545.175.754.754 0 0 1-.344-.093.6.6 0 0 1-.321-.53 1.555 1.555 0 0 1 .321-.983 2.478 2.478 0 0 1 .964-.781 2.94 2.94 0 0 1 .914-.264l.18-.018zm-.322 8.516c-.048-.01-.1-.018-.143-.031a.89.89 0 1 1 .386.014l-.079.016z"
        fill="#979cb0"></path>
    </g>
  </symbol>
  <symbol xmlns="http://www.w3.org/2000/svg" viewBox="0 0 24 24" id="sensehawk-created-24px">
    <g transform="translate(-206 -413)">
      <circle cx="12" cy="12" r="12" transform="translate(206 413)" fill="#5f6d7a"></circle>
      <path d="M217.581 417.8a3.078 3.078 0 0 1 2.149.886 3.05 3.05 0 0 1 0 4.3 3.129 3.129 0 0 1-.871.61 5.006 5.006 0 0 1 1.118.45.331.331 0 0 1-.319.581 4.1 4.1 0 0 0-1.016-.392 4.443 4.443 0 0 0-1.075-.131 4.363 4.363 0 0 0-4.343 4.326v.6a.405.405 0 0 0 .116.29.452.452 0 0 0 .319.116h4.168a.334.334 0 1 1 0 .668h-4.138a1.091 1.091 0 0 1-1.089-1.094v-.6a5 5 0 0 1 3.7-4.821 2.975 2.975 0 0 1-.857-.61 3.035 3.035 0 0 1 2.138-5.179zm1.67 1.365a2.372 2.372 0 0 0-1.67-.7 2.312 2.312 0 0 0-1.67.7 2.372 2.372 0 0 0-.7 1.67 2.312 2.312 0 0 0 .7 1.67 2.372 2.372 0 0 0 1.67.7 2.312 2.312 0 0 0 1.67-.7 2.372 2.372 0 0 0 .7-1.67 2.312 2.312 0 0 0-.7-1.67z"
        fill="#eff0f2" stroke="#eff0f2" stroke-linecap="round" stroke-width=".5"></path>
      <path d="M221.24 424.828l.784 1.554 1.714.261a.339.339 0 0 1 .276.378.347.347 0 0 1-.1.189l-1.234 1.234.276 1.714a.339.339 0 0 1-.276.378.3.3 0 0 1-.218-.044l-1.539-.784-1.554.8a.338.338 0 0 1-.45-.145.334.334 0 0 1-.029-.2l.29-1.714-1.234-1.234a.324.324 0 0 1 0-.465.387.387 0 0 1 .2-.1l1.714-.261.784-1.554a.334.334 0 0 1 .45-.145.348.348 0 0 1 .145.145z"
        fill="#feb817"></path>
    </g>
  </symbol>
  <symbol xmlns="http://www.w3.org/2000/svg" viewBox="0 0 36 36" id="sensehawk-created-36px">
    <g transform="translate(-206 -413)">
      <circle cx="18" cy="18" r="18" transform="translate(206 413)" fill="#5f6d7a"></circle>
      <path d="M223.372 420.2a4.617 4.617 0 0 1 3.224 1.329 4.575 4.575 0 0 1 0 6.447 4.694 4.694 0 0 1-1.307.915 7.509 7.509 0 0 1 1.677.675.5.5 0 0 1-.479.871 6.148 6.148 0 0 0-1.525-.588 6.664 6.664 0 0 0-1.612-.2 6.545 6.545 0 0 0-6.513 6.491v.893a.608.608 0 0 0 .174.436.678.678 0 0 0 .479.174h6.251a.5.5 0 1 1 0 1h-6.206a1.636 1.636 0 0 1-1.634-1.627v-.893a7.505 7.505 0 0 1 5.554-7.232 4.462 4.462 0 0 1-1.285-.915 4.552 4.552 0 0 1 3.2-7.776zm2.5 2.047a3.557 3.557 0 0 0-2.5-1.046 3.468 3.468 0 0 0-2.5 1.046 3.557 3.557 0 0 0-1.046 2.5 3.468 3.468 0 0 0 1.046 2.5 3.557 3.557 0 0 0 2.5 1.046 3.468 3.468 0 0 0 2.5-1.046 3.557 3.557 0 0 0 1.046-2.5 3.468 3.468 0 0 0-1.046-2.5z"
        fill="#eff0f2" stroke="#eff0f2" stroke-linecap="round"></path>
      <path d="M228.862 430.742l1.176 2.331 2.57.392a.508.508 0 0 1 .414.566.52.52 0 0 1-.152.283l-1.851 1.851.414 2.57a.508.508 0 0 1-.414.566.449.449 0 0 1-.327-.065l-2.31-1.177-2.331 1.2a.507.507 0 0 1-.675-.218.5.5 0 0 1-.044-.3l.436-2.57-1.851-1.856a.487.487 0 0 1 0-.7.581.581 0 0 1 .3-.152l2.57-.392 1.176-2.331a.5.5 0 0 1 .675-.218.522.522 0 0 1 .218.218z"
        fill="#feb817"></path>
    </g>
  </symbol>
  <symbol xmlns="http://www.w3.org/2000/svg" viewBox="0 0 40 40" id="sensehawk-created-40px">
    <g transform="translate(-206 -413)">
      <circle cx="20" cy="20" r="20" transform="translate(206 413)" fill="#5f6d7a"></circle>
      <path d="M225.301 421a5.13 5.13 0 0 1 3.582 1.476 5.083 5.083 0 0 1 0 7.164 5.215 5.215 0 0 1-1.452 1.016 8.343 8.343 0 0 1 1.864.75.552.552 0 0 1-.532.968 6.831 6.831 0 0 0-1.694-.653 7.4 7.4 0 0 0-1.791-.218 7.272 7.272 0 0 0-7.236 7.212v.992a.676.676 0 0 0 .194.484.753.753 0 0 0 .532.194h6.946a.557.557 0 1 1 0 1.113h-6.9a1.818 1.818 0 0 1-1.813-1.814v-.992a8.339 8.339 0 0 1 6.172-8.035 4.958 4.958 0 0 1-1.428-1.016 5.058 5.058 0 0 1 3.556-8.641zm2.783 2.275a3.953 3.953 0 0 0-2.783-1.162 3.854 3.854 0 0 0-2.783 1.162 3.953 3.953 0 0 0-1.162 2.783 3.854 3.854 0 0 0 1.162 2.783 3.953 3.953 0 0 0 2.783 1.159 3.854 3.854 0 0 0 2.783-1.162 3.953 3.953 0 0 0 1.162-2.783 3.854 3.854 0 0 0-1.162-2.783z"
        fill="#eff0f2" stroke="#eff0f2" stroke-linecap="round"></path>
      <path d="M231.401 432.714l1.307 2.59 2.856.436a.564.564 0 0 1 .46.629.578.578 0 0 1-.169.315l-2.054 2.056.46 2.856a.564.564 0 0 1-.46.629.5.5 0 0 1-.363-.073l-2.565-1.307-2.59 1.331a.564.564 0 0 1-.75-.242.557.557 0 0 1-.048-.339l.484-2.856-2.057-2.057a.541.541 0 0 1 0-.774.645.645 0 0 1 .339-.169l2.85-.439 1.307-2.59a.557.557 0 0 1 .75-.242.58.58 0 0 1 .242.242z"
        fill="#feb817"></path>
    </g>
  </symbol>
  <symbol xmlns="http://www.w3.org/2000/svg" viewBox="0 0 24 24" id="unknown-user-24px">
    <g fill="#f4f7fc" stroke="#dde1e9">
      <circle cx="12" cy="12" r="12" stroke="none"></circle>
      <circle cx="12" cy="12" r="11.5" fill="none"></circle>
    </g>
    <g transform="translate(6.601 4.801)">
      <path d="M4.981 0A3.078 3.078 0 0 1 7.13.886a3.05 3.05 0 0 1 0 4.3 3.129 3.129 0 0 1-.871.61 5.006 5.006 0 0 1 1.118.45.331.331 0 0 1-.319.581 4.1 4.1 0 0 0-1.016-.392 4.443 4.443 0 0 0-1.075-.131A4.363 4.363 0 0 0 .624 10.63v.6a.405.405 0 0 0 .116.29.452.452 0 0 0 .319.116h4.168a.334.334 0 1 1 0 .668H1.089A1.091 1.091 0 0 1 0 11.21v-.6a5 5 0 0 1 3.7-4.821 2.975 2.975 0 0 1-.857-.61A3.035 3.035 0 0 1 4.981 0zm1.67 1.365a2.372 2.372 0 0 0-1.67-.7 2.312 2.312 0 0 0-1.67.7 2.372 2.372 0 0 0-.7 1.67 2.312 2.312 0 0 0 .7 1.67 2.372 2.372 0 0 0 1.67.7 2.312 2.312 0 0 0 1.67-.7 2.372 2.372 0 0 0 .7-1.67 2.312 2.312 0 0 0-.7-1.67z"
        fill="#979cb0" stroke="#979cb0" stroke-linecap="round" stroke-width=".5"></path>
      <circle cx="3.6" cy="3.6" r="3.6" transform="translate(4.199 5.999)" fill="#f4f7fc"></circle>
      <path d="M7.846 7.046l.1.01a2.024 2.024 0 0 1 .743.193 1.238 1.238 0 0 1 .513.439 1.133 1.133 0 0 1 .174.5 1.1 1.1 0 0 1-.037.459 1.192 1.192 0 0 1-.28.473 3.192 3.192 0 0 1-.482.4c-.1.067-.182.136-.273.205a.578.578 0 0 0-.178.257c-.019.052-.041.1-.062.156a.36.36 0 0 1-.335.238.47.47 0 0 1-.244-.039.4.4 0 0 1-.219-.3.684.684 0 0 1 .116-.511 1.4 1.4 0 0 1 .3-.32c.126-.1.256-.2.386-.3a1.017 1.017 0 0 0 .264-.3.566.566 0 0 0-.067-.627.521.521 0 0 0-.289-.16.921.921 0 0 0-.449.008.547.547 0 0 0-.348.289c-.045.085-.085.172-.127.257a.626.626 0 0 1-.124.174.431.431 0 0 1-.327.105.452.452 0 0 1-.206-.056.357.357 0 0 1-.193-.318.933.933 0 0 1 .193-.59 1.487 1.487 0 0 1 .578-.469 1.764 1.764 0 0 1 .549-.158l.108-.011zm-.193 5.11c-.029-.006-.058-.011-.086-.018a.534.534 0 1 1 .231.009l-.047.01z"
        fill="#979cb0"></path>
    </g>
  </symbol>
  <symbol xmlns="http://www.w3.org/2000/svg" viewBox="0 0 36 36" id="unknown-user-36px">
    <g fill="#f4f7fc" stroke="#dde1e9">
      <circle cx="18" cy="18" r="18" stroke="none"></circle>
      <circle cx="18" cy="18" r="17.5" fill="none"></circle>
    </g>
    <g transform="translate(9.902 7.201)">
      <path d="M7.471 0a4.617 4.617 0 0 1 3.224 1.329 4.575 4.575 0 0 1 0 6.447 4.694 4.694 0 0 1-1.307.915 7.509 7.509 0 0 1 1.677.675.5.5 0 0 1-.479.871 6.148 6.148 0 0 0-1.525-.588 6.664 6.664 0 0 0-1.612-.2A6.545 6.545 0 0 0 .936 15.94v.893a.608.608 0 0 0 .174.436.678.678 0 0 0 .479.174H7.84a.5.5 0 1 1 0 1H1.634A1.636 1.636 0 0 1 0 16.816v-.893a7.505 7.505 0 0 1 5.554-7.232 4.462 4.462 0 0 1-1.285-.915A4.552 4.552 0 0 1 7.469 0zm2.5 2.047a3.557 3.557 0 0 0-2.5-1.046 3.468 3.468 0 0 0-2.5 1.046 3.557 3.557 0 0 0-1.046 2.5 3.468 3.468 0 0 0 1.046 2.5 3.557 3.557 0 0 0 2.5 1.046 3.468 3.468 0 0 0 2.5-1.046 3.557 3.557 0 0 0 1.046-2.5 3.468 3.468 0 0 0-1.046-2.5z"
        fill="#979cb0" stroke="#979cb0" stroke-linecap="round"></path>
      <circle cx="5.4" cy="5.4" r="5.4" transform="translate(6.298 8.999)" fill="#f4f7fc"></circle>
      <path d="M11.769 10.568l.156.014a3.037 3.037 0 0 1 1.115.289 1.857 1.857 0 0 1 .769.658 1.7 1.7 0 0 1 .262.749 1.657 1.657 0 0 1-.055.688 1.787 1.787 0 0 1-.419.71 4.789 4.789 0 0 1-.723.594c-.145.1-.273.2-.409.308a.868.868 0 0 0-.268.386c-.029.078-.062.156-.093.234a.539.539 0 0 1-.5.357.7.7 0 0 1-.366-.058.6.6 0 0 1-.328-.447 1.027 1.027 0 0 1 .174-.766 2.105 2.105 0 0 1 .454-.48c.189-.155.385-.3.578-.457a1.526 1.526 0 0 0 .4-.453.849.849 0 0 0-.1-.94.781.781 0 0 0-.434-.24 1.381 1.381 0 0 0-.674.012.82.82 0 0 0-.522.434c-.068.127-.127.257-.191.386a.939.939 0 0 1-.187.262.646.646 0 0 1-.49.158.678.678 0 0 1-.309-.084.535.535 0 0 1-.289-.477 1.4 1.4 0 0 1 .289-.885 2.23 2.23 0 0 1 .868-.7 2.646 2.646 0 0 1 .823-.237l.162-.016zm-.289 7.664c-.043-.009-.087-.016-.129-.027a.8.8 0 1 1 .347.013l-.071.014z"
        fill="#979cb0"></path>
    </g>
  </symbol>
</svg>