<svg width="0" height="0" class="hidden">
  <symbol xmlns="http://www.w3.org/2000/svg" viewBox="0 0 24 24" id="3dotsmenu">
    <g transform="translate(-1394 -337)">
      <circle cx="12" cy="12" r="12" transform="translate(1394 337)" fill="rgba(255,255,255,0)"></circle>
      <path d="M1404 356.992a2.06 2.06 0 0 1 2-2.007 2.037 2.037 0 0 1 2 2.007 2.02 2.02 0 0 1-2 2.007 2.042 2.042 0 0 1-2-2.007zm0-7.994a2.06 2.06 0 0 1 2-2.007 2.037 2.037 0 0 1 2 2.007 2.018 2.018 0 0 1-2 2.007 2.04 2.04 0 0 1-2-2.007zm0-7.991a2.06 2.06 0 0 1 2-2.007 2.037 2.037 0 0 1 2 2.007 2.018 2.018 0 0 1-2 2.007 2.04 2.04 0 0 1-2-2.007z"
        fill="#737891"></path>
    </g>
  </symbol>
  <symbol xmlns="http://www.w3.org/2000/svg" viewBox="0 0 24 24" id="3dots-menu">
    <path fill="rgba(255,255,255,0)" d="M0 0h24v24H0z"></path>
    <path d="M11 18.498a1.545 1.545 0 0 1 1.5-1.506 1.527 1.527 0 0 1 1.5 1.506 1.515 1.515 0 0 1-1.5 1.506 1.532 1.532 0 0 1-1.5-1.506zm0-6a1.545 1.545 0 0 1 1.5-1.506 1.527 1.527 0 0 1 1.5 1.506 1.513 1.513 0 0 1-1.5 1.506 1.53 1.53 0 0 1-1.5-1.506zm0-5.993a1.545 1.545 0 0 1 1.5-1.506A1.527 1.527 0 0 1 14 6.505a1.513 1.513 0 0 1-1.5 1.506A1.53 1.53 0 0 1 11 6.505z"
      fill="#737891"></path>
  </symbol>
  <symbol xmlns="http://www.w3.org/2000/svg" viewBox="0 0 24 24" id="access">
    <g fill="#c7cad7">
      <path d="M12 0a12 12 0 1 0 12 12A12.014 12.014 0 0 0 12 0zm0 22.066A10.066 10.066 0 1 1 22.066 12 10.077 10.077 0 0 1 12 22.066z"></path>
      <path d="M16.342 8.276l-5.626 5.452-2.057-1.995a.992.992 0 0 0-1.373 0 .92.92 0 0 0 0 1.331l2.745 2.661a.992.992 0 0 0 1.373 0l6.313-6.117a.921.921 0 0 0 0-1.331.994.994 0 0 0-1.375-.001z"></path>
    </g>
  </symbol>
  <symbol xmlns="http://www.w3.org/2000/svg" viewBox="0 0 24 24" id="add-file">
    <path fill="rgba(255,255,255,0)" d="M0 0h24v24H0z"></path>
    <path d="M20.155 6.829a2.285 2.285 0 0 1 .33.44h-5.754V1.477a2.285 2.285 0 0 1 .44.33z" fill="#8e97ba"></path>
    <path d="M14.626 8.846H21v12.979a1.191 1.191 0 0 1-.315.843 1.083 1.083 0 0 1-.805.33H4.121a1.083 1.083 0 0 1-.805-.33 1.191 1.191 0 0 1-.315-.843V2.173a1.191 1.191 0 0 1 .315-.843A1.083 1.083 0 0 1 4.121 1h9.385v6.673a1.191 1.191 0 0 0 .315.843 1.083 1.083 0 0 0 .805.33zm1.892 9.054v-.77a.428.428 0 0 0-.105-.293.388.388 0 0 0-.28-.11H7.868a.388.388 0 0 0-.28.11.428.428 0 0 0-.105.293v.77a.428.428 0 0 0 .105.293.388.388 0 0 0 .28.11h8.265a.388.388 0 0 0 .28-.11.5.5 0 0 0 .105-.293zm0-3.153v-.77a.428.428 0 0 0-.105-.293.388.388 0 0 0-.28-.11H7.868a.388.388 0 0 0-.28.11.428.428 0 0 0-.105.293v.77a.428.428 0 0 0 .105.293.388.388 0 0 0 .28.11h8.265a.388.388 0 0 0 .28-.11.428.428 0 0 0 .105-.291zm0-3.153v-.77a.428.428 0 0 0-.105-.293.388.388 0 0 0-.28-.11H7.868a.388.388 0 0 0-.28.11.428.428 0 0 0-.105.293v.77a.428.428 0 0 0 .105.293.388.388 0 0 0 .28.11h8.265a.388.388 0 0 0 .28-.11.428.428 0 0 0 .105-.287z"
      fill="#a0a9cb"></path>
  </symbol>
  <symbol xmlns="http://www.w3.org/2000/svg" viewBox="0 0 24 24" id="add-folder">
    <path fill="rgba(255,255,255,0)" d="M0 0h24v24H0z"></path>
    <path d="M19.999 6.791h-9L8.999 4h-5c-1.1 0-2 1.252-2 2.791v5.582h20v-2.79c-.003-1.54-.896-2.787-2-2.792z" fill="#8e97ba"></path>
    <path d="M19.999 6.791h-16a1.952 1.952 0 0 0-2 1.887v9.435a1.952 1.952 0 0 0 2 1.887h16a1.952 1.952 0 0 0 2-1.887V8.678a1.952 1.952 0 0 0-2-1.887z" fill="#b6bdd9"></path>
  </symbol>
  <symbol xmlns="http://www.w3.org/2000/svg" viewBox="0 0 40 40" id="add-teams">
    <g fill="#fff" stroke="#8a8ea3" stroke-linecap="round" stroke-linejoin="bevel" stroke-dasharray="2 3">
      <circle cx="20" cy="20" r="20" stroke="none"></circle>
      <circle cx="20" cy="20" r="19.5" fill="none"></circle>
    </g>
    <path d="M25.5 27.999H14.426a.879.879 0 0 1-.87-.9v-1.354c.02-.41.6-.731.815-.837.076-.041.125-.064.125-.064l.057-.032 3.122-1.8a5.425 5.425 0 0 1-1.534-3.977v-2.227c0-1.486 1.892-3.131 3.813-3.131h.094c1.919 0 3.813 1.645 3.813 3.131v2.227a5.429 5.429 0 0 1-1.534 3.979l3.034 1.748.145.082s.059.027.145.075c.23.116.773.43.794.827v1.353a.878.878 0 0 1-.87.9zm-8.291-11.191v2.227a4.542 4.542 0 0 0 1.227 3.129 1.1 1.1 0 0 1 .385.928 1.024 1.024 0 0 1-.538.85l-3.3 1.857c-.026 0-.052.025-.077.025a1.424 1.424 0 0 0-.256.161v.955h10.7v-.955a1.337 1.337 0 0 0-.255-.161c-.026 0-.052-.025-.077-.025l-3.3-1.857a1.025 1.025 0 0 1-.538-.85 1.1 1.1 0 0 1 .385-.928 4.543 4.543 0 0 0 1.227-3.129v-2.227c0-.762-1.352-2.042-2.792-2.07-1.439.027-2.791 1.308-2.791 2.07zm10.232 8.54a1.8 1.8 0 0 0-.538-1.062h2.073v-.955a.694.694 0 0 0-.23-.132c-.026-.027-.077-.027-.1-.054l-3.278-1.856a1.1 1.1 0 0 1-.536-.848 1.038 1.038 0 0 1 .383-.928 4.531 4.531 0 0 0 1.178-3.131v-2.228c0-.8-1.356-2.1-2.841-2.1a3.194 3.194 0 0 0-1.97.69 5.175 5.175 0 0 0-1.282-.154 4.454 4.454 0 0 1 3.252-1.591c1.92 0 3.863 1.669 3.863 3.155v2.228a5.453 5.453 0 0 1-1.56 3.979l3.274 1.857s.871.37.871.9v1.326a.882.882 0 0 1-.871.9zm-16.571 0a.881.881 0 0 1-.87-.9v-1.329c0-.529.87-.9.87-.9l3.275-1.859a5.453 5.453 0 0 1-1.56-3.979v-2.227c0-1.486 1.944-3.155 3.861-3.155A4.458 4.458 0 0 1 19.7 12.59a5.207 5.207 0 0 0-1.28.158 3.187 3.187 0 0 0-1.97-.69c-1.482 0-2.838 1.3-2.838 2.1v2.224a4.53 4.53 0 0 0 1.173 3.13 1.038 1.038 0 0 1 .383.928 1.1 1.1 0 0 1-.536.848l-3.276 1.857c-.026.027-.076.027-.1.054a.668.668 0 0 0-.23.132v.955H13.1a1.808 1.808 0 0 0-.536 1.062z"
      fill="#8a8ea3"></path>
    <g transform="translate(20.3 17.822)">
      <ellipse cx="6.229" cy="6.148" rx="6.229" ry="6.148" fill="#fff"></ellipse>
      <path d="M9.368 5.19h-2.26V2.93a.565.565 0 0 0-1.13 0v2.26h-2.26a.565.565 0 1 0 0 1.13h2.26v2.26a.565.565 0 0 0 1.13 0V6.32h2.26a.565.565 0 0 0 0-1.13z" fill="#8a8ea3"></path>
    </g>
  </symbol>
  <symbol xmlns="http://www.w3.org/2000/svg" viewBox="0 0 40 40" id="add-users">
    <g fill="#fff" stroke="#8a8ea3" stroke-linecap="round" stroke-linejoin="bevel" stroke-dasharray="2 3">
      <circle cx="20" cy="20" r="20" stroke="none"></circle>
      <circle cx="20" cy="20" r="19.5" fill="none"></circle>
    </g>
    <g transform="translate(11.844 11.029)">
      <path d="M13.9 12.17l-3.759-2.019a5.681 5.681 0 0 0 1.79-4.326V3.4c0-1.615-2.208-3.4-4.446-3.4S2.98 1.788 2.98 3.4v2.423a5.906 5.906 0 0 0 1.88 4.3l-3.849 2.019s-1.014.433-1.014.981v1.471a.99.99 0 0 0 1.014.981h12.923a.99.99 0 0 0 1.014-.981v-1.472c-.03-.548-1.048-.952-1.048-.952zm-.179 2.25H1.193v-1.038a1.592 1.592 0 0 1 .3-.173c.03 0 .06-.029.09-.029l3.849-2.019a1.109 1.109 0 0 0 .627-.923 1.156 1.156 0 0 0-.448-1.009 4.76 4.76 0 0 1-1.432-3.4V3.4c0-.836 1.611-2.25 3.312-2.25 1.731 0 3.252 1.413 3.252 2.25v2.423a4.663 4.663 0 0 1-1.313 3.4 1.1 1.1 0 0 0-.448 1.009 1.193 1.193 0 0 0 .627.923l3.759 2.019c.03.029.09.029.119.058a.79.79 0 0 1 .269.144v1.044z"
        fill="#8a8ea3"></path>
      <ellipse cx="5.221" cy="5.137" rx="5.221" ry="5.137" transform="translate(5.869 7.668)" fill="#fff"></ellipse>
      <path d="M14.362 12.401h-2.348v-2.307a.586.586 0 0 0-1.172 0v2.307H8.5a.577.577 0 1 0 0 1.154h2.345v2.307a.586.586 0 0 0 1.172 0v-2.307h2.345a.577.577 0 1 0 0-1.154z" fill="#8a8ea3"></path>
    </g>
  </symbol>
  <symbol xmlns="http://www.w3.org/2000/svg" viewBox="0 0 24 24" id="add-users-teams">
    <path fill="rgba(255,255,255,0)" d="M0 0h24v24H0z"></path>
    <g transform="translate(1 1)" fill="rgba(255,255,255,0)" stroke-linejoin="bevel" stroke-dasharray="2 2" stroke="#6e748f" stroke-linecap="round">
      <circle cx="11" cy="11" r="11" stroke="none"></circle>
      <circle cx="11" cy="11" r="10.5" fill="none"></circle>
    </g>
  </symbol>
  <symbol xmlns="http://www.w3.org/2000/svg" viewBox="0 0 18 18" id="add-white">
    <path fill="rgba(255,255,255,0)" d="M0 0h18v18H0z"></path>
    <path d="M14 8h-4V4a1 1 0 0 0-2 0v4H4a1 1 0 0 0 0 2h4v4a1 1 0 0 0 2 0v-4h4a1 1 0 0 0 0-2z" fill="#fff"></path>
  </symbol>
  <symbol xmlns="http://www.w3.org/2000/svg" viewBox="0 0 24 24" id="archive">
    <g fill="#171e48" stroke-width=".3">
      <path d="M7.775 3.5a1.633 1.633 0 0 0-1.35.8L4.65 7.175a1.943 1.943 0 0 0-.15.725v10a1.6 1.6 0 0 0 1.6 1.6h12.8a1.6 1.6 0 0 0 1.6-1.6v-10a2.823 2.823 0 0 0-.15-.8l-1.775-2.8a1.633 1.633 0 0 0-1.35-.8zm0 1.6h9.45l.95 1.6H6.825zM6.1 8.3h12.8v9.6H6.1z"
        stroke="#fff"></path>
      <path d="M14.86 13.763l-2.012 1.845c0 .005-.008.008-.011.01a.491.491 0 0 1-.265.123h-.025a.324.324 0 0 1-.049 0h-.071a.482.482 0 0 1-.265-.123l-.011-.01-2.012-1.845a.416.416 0 0 1 0-.621.513.513 0 0 1 .677 0l1.21 1.108v-4.062a.461.461 0 0 1 .474-.438.512.512 0 0 1 .339.128.415.415 0 0 1 .139.31v4.062l1.209-1.109a.513.513 0 0 1 .677 0 .422.422 0 0 1-.004.622z"
        stroke="#171e48" stroke-linecap="round" stroke-linejoin="round"></path>
    </g>
    <path fill="rgba(255,255,255,0)" d="M0 0h24v24H0z"></path>
  </symbol>
  <symbol xmlns="http://www.w3.org/2000/svg" viewBox="0 0 24 24" id="archive-grey">
    <path fill="rgba(255,255,255,0)" d="M0 0h24v24H0z"></path>
    <g fill="#5b607e">
      <path d="M6.684 3a1.838 1.838 0 0 0-1.519.9l-2 3.234A2.185 2.185 0 0 0 3 7.95V19.2A1.805 1.805 0 0 0 4.8 21h14.4a1.805 1.805 0 0 0 1.8-1.8V7.95a3.176 3.176 0 0 0-.169-.9l-2-3.15a1.838 1.838 0 0 0-1.515-.9zm0 1.8h10.632l1.069 1.8H5.616zM4.8 8.4h14.4v10.8H4.8z"
        stroke="#fff" stroke-width=".5"></path>
      <path d="M14.18 14.493l-1.86 1.705-.01.009a.454.454 0 0 1-.245.113h-.023a.3.3 0 0 1-.045 0h-.066a.446.446 0 0 1-.245-.113l-.01-.009-1.86-1.705a.384.384 0 0 1 0-.574.474.474 0 0 1 .626 0l1.118 1.025v-3.76a.426.426 0 0 1 .442-.4.473.473 0 0 1 .313.118.384.384 0 0 1 .129.287v3.755l1.118-1.025a.474.474 0 0 1 .626 0 .39.39 0 0 1-.008.574z"
        stroke="#5b607e" stroke-linecap="round" stroke-linejoin="round" stroke-width=".3"></path>
    </g>
  </symbol>
  <symbol xmlns="http://www.w3.org/2000/svg" viewBox="0 0 24 24" id="archive-grey-active">
    <path fill="rgba(255,255,255,0)" d="M0 0h24v24H0z"></path>
    <g fill="#2585d3">
      <path d="M6.684 3a1.838 1.838 0 0 0-1.519.9l-2 3.234A2.185 2.185 0 0 0 3 7.95V19.2A1.805 1.805 0 0 0 4.8 21h14.4a1.805 1.805 0 0 0 1.8-1.8V7.95a3.176 3.176 0 0 0-.169-.9l-2-3.15a1.838 1.838 0 0 0-1.515-.9zm0 1.8h10.632l1.069 1.8H5.616zM4.8 8.4h14.4v10.8H4.8z"
        stroke="#fff" stroke-width=".5"></path>
      <path d="M14.18 14.493l-1.86 1.705-.01.009a.454.454 0 0 1-.245.113h-.023a.3.3 0 0 1-.045 0h-.066a.446.446 0 0 1-.245-.113l-.01-.009-1.86-1.705a.384.384 0 0 1 0-.574.474.474 0 0 1 .626 0l1.118 1.025v-3.76a.426.426 0 0 1 .442-.4.473.473 0 0 1 .313.118.384.384 0 0 1 .129.287v3.755l1.118-1.025a.474.474 0 0 1 .626 0 .39.39 0 0 1-.008.574z"
        stroke="#2585d3" stroke-linecap="round" stroke-linejoin="round" stroke-width=".3"></path>
    </g>
  </symbol>
  <symbol xmlns="http://www.w3.org/2000/svg" viewBox="0 0 18 18" id="arrow-expand">
    <path fill="rgba(255,255,255,0)" d="M0 0h18v18H0z"></path>
    <path stroke="#5c617e" d="M7.5 4.5l4 4-4 4" fill="none" stroke-linecap="round" stroke-linejoin="round" stroke-width="1.5" opacity=".7"></path>
  </symbol>
  <symbol xmlns="http://www.w3.org/2000/svg" viewBox="0 0 18 18" id="bookmark">
    <path fill="rgba(255,255,255,0)" d="M0 0h18v18H0z"></path>
    <path d="M12.931 15.996a.652.652 0 0 0 .5-.25.716.716 0 0 0 .145-.556l-.661-4.193 2.893-2.993a.716.716 0 0 0 .164-.707.672.672 0 0 0-.531-.471l-4.019-.643-1.824-3.8a.65.65 0 0 0-1.188 0l-1.824 3.8-4.019.643a.672.672 0 0 0-.531.471.716.716 0 0 0 .164.707l2.893 2.993-.661 4.193a.708.708 0 0 0 .264.676.638.638 0 0 0 .7.053l3.611-1.956 3.604 1.954a.64.64 0 0 0 .32.079zm-.883-1.94l-2.743-1.491a.637.637 0 0 0-.61 0l-2.743 1.491.5-3.193a.714.714 0 0 0-.186-.605l-2.2-2.269 3.053-.486a.665.665 0 0 0 .5-.373l1.384-2.885 1.384 2.885a.665.665 0 0 0 .5.373l3.053.486-2.2 2.269a.714.714 0 0 0-.186.605l.5 3.193z"
      fill="#747891"></path>
  </symbol>
  <symbol xmlns="http://www.w3.org/2000/svg" viewBox="0 0 18 18" id="bookmark-active">
    <path fill="rgba(255,255,255,0)" d="M0 0h18v18H0z"></path>
    <path d="M12.931 15.996a.652.652 0 0 0 .5-.25.716.716 0 0 0 .145-.556l-.661-4.193 2.893-2.993a.716.716 0 0 0 .164-.707.672.672 0 0 0-.531-.471l-4.019-.643-1.824-3.8a.65.65 0 0 0-1.188 0l-1.824 3.8-4.019.643a.672.672 0 0 0-.531.471.716.716 0 0 0 .164.707l2.893 2.993-.661 4.193a.708.708 0 0 0 .264.676.638.638 0 0 0 .7.053l3.611-1.956 3.604 1.954a.64.64 0 0 0 .32.079zm-.883-1.94l-2.743-1.491a.637.637 0 0 0-.61 0l-2.743 1.491.5-3.193a.714.714 0 0 0-.186-.605l-2.2-2.269 3.053-.486a.665.665 0 0 0 .5-.373l1.384-2.885 1.384 2.885a.665.665 0 0 0 .5.373l3.053.486-2.2 2.269a.714.714 0 0 0-.186.605l.5 3.193z"
      fill="#2585d3"></path>
  </symbol>
  <symbol xmlns="http://www.w3.org/2000/svg" viewBox="0 0 24 24" id="share-grey-active">
    <path fill="rgba(255,255,255,0)" d="M0 0h24v24H0z"></path>
    <path d="M15.944 14.119a3.049 3.049 0 0 0-2.352 1.11L9.944 13.15a3.067 3.067 0 0 0 0-2.048l3.651-2.079a3.067 3.067 0 1 0-.529-.932L9.41 10.17a3.066 3.066 0 1 0 0 3.912l3.651 2.079a3.056 3.056 0 1 0 2.883-2.042zm0-9.045a1.993 1.993 0 1 1-1.988 1.993 1.992 1.992 0 0 1 1.988-1.993zm-8.885 9.045a1.993 1.993 0 1 1 1.985-1.993 1.993 1.993 0 0 1-1.986 1.993zm8.885 5.059a1.993 1.993 0 1 1 1.987-1.993 1.993 1.993 0 0 1-1.987 1.993z"
      fill="#2585d3"></path>
  </symbol>
  <symbol xmlns="http://www.w3.org/2000/svg" viewBox="0 0 18 18" id="bookmark-selected">
    <path fill="rgba(255,255,255,0)" d="M0 0h18v18H0z"></path>
    <path d="M12.932 15.997a.652.652 0 0 0 .5-.25.716.716 0 0 0 .145-.555l-.661-4.193 2.893-2.993a.716.716 0 0 0 .164-.707.672.672 0 0 0-.531-.471l-4.019-.643-1.823-3.8a.65.65 0 0 0-1.188 0l-1.823 3.8-4.019.643a.672.672 0 0 0-.531.471.716.716 0 0 0 .164.707l2.893 2.993-.661 4.193a.708.708 0 0 0 .264.676.638.638 0 0 0 .7.053l3.611-1.956 3.611 1.956a.639.639 0 0 0 .311.076z"
      fill="#f8c900"></path>
  </symbol>
  <symbol xmlns="http://www.w3.org/2000/svg" viewBox="0 0 24 24" id="copy-url">
    <path fill="rgba(255,255,255,0)" d="M0 0h24v24H0z"></path>
    <path d="M10.977 3.818h9.2v10.909h-1.813v1.818h1.818A1.819 1.819 0 0 0 22 14.727V3.818A1.819 1.819 0 0 0 20.182 2H9.273a1.819 1.819 0 0 0-1.818 1.818v1.818h1.818V3.818zM2 9.275a1.819 1.819 0 0 1 1.82-1.82h10.905a1.819 1.819 0 0 1 1.82 1.82V20.18a1.819 1.819 0 0 1-1.82 1.82H3.82A1.819 1.819 0 0 1 2 20.18V9.275zm1.818 0h10.909v10.907H3.818V9.273z"
      fill="#2585d3" fill-rule="evenodd"></path>
  </symbol>
  <symbol xmlns="http://www.w3.org/2000/svg" viewBox="0 0 24 24" id="delete">
    <path fill="rgba(255,255,255,0)" d="M0 0h24v24H0z"></path>
    <g fill="#5b607e" stroke="#5b607e" stroke-linecap="round" stroke-linejoin="round" stroke-width=".4">
      <path d="M15.155 21.001a3.208 3.208 0 0 0 3.26-3.061l.373-11.2h1.746a.454.454 0 1 0 0-.907h-4.89v-1.02a1.844 1.844 0 0 0-1.862-1.812h-3.54a1.844 1.844 0 0 0-1.863 1.814v1.02H3.466a.454.454 0 1 0 0 .907h1.746l.373 11.2a3.208 3.208 0 0 0 3.26 3.061zM9.311 4.815a.922.922 0 0 1 .931-.907h3.54a.922.922 0 0 1 .931.907v1.02h-5.4zM6.54 17.896L6.167 6.719H17.88l-.4 11.177a2.309 2.309 0 0 1-2.329 2.2H8.868a2.293 2.293 0 0 1-2.328-2.2z"></path>
      <path d="M10.162 16.756a.488.488 0 0 0 .532-.42V10.05a.547.547 0 0 0-1.065 0v6.285a.488.488 0 0 0 .533.421zm3.699 0a.488.488 0 0 0 .532-.42V10.05a.547.547 0 0 0-1.065 0v6.285a.488.488 0 0 0 .533.421z"></path>
    </g>
  </symbol>
  <symbol xmlns="http://www.w3.org/2000/svg" viewBox="0 0 100 100" id="delete-100px">
    <path d="M50 0A50 50 0 1 1 0 50 50 50 0 0 1 50 0z" fill="#eaefff"></path>
    <g fill="#2585d3" stroke="#2585d3" stroke-linecap="round" stroke-linejoin="round" stroke-width=".3">
      <path d="M57.713 72a7.842 7.842 0 0 0 7.969-7.481l.911-27.375h4.269a1.109 1.109 0 1 0 0-2.217H58.908v-2.494A4.508 4.508 0 0 0 54.354 28H45.7a4.508 4.508 0 0 0-4.554 4.433v2.494H29.138a1.109 1.109 0 1 0 0 2.217h4.269l.911 27.375A7.842 7.842 0 0 0 42.287 72zM43.426 32.433a2.254 2.254 0 0 1 2.274-2.216h8.652a2.254 2.254 0 0 1 2.277 2.217v2.494H43.426zm-6.774 31.975l-.911-27.32h28.632l-.973 27.32a5.644 5.644 0 0 1-5.692 5.375H42.344a5.606 5.606 0 0 1-5.692-5.375z"></path>
      <path d="M45.515 61.773a1.219 1.219 0 0 0 1.33-1.05v-15.7a1.367 1.367 0 0 0-2.659 0v15.7a1.219 1.219 0 0 0 1.329 1.05zm9.028 0a1.219 1.219 0 0 0 1.33-1.05v-15.7a1.367 1.367 0 0 0-2.659 0v15.7a1.219 1.219 0 0 0 1.329 1.05z"></path>
    </g>
  </symbol>
  <symbol xmlns="http://www.w3.org/2000/svg" viewBox="0 0 41 41" id="download">
    <defs>
      <filter id="a" x="0" y="0" width="41" height="41" filterUnits="userSpaceOnUse">
        <feOffset dy="1"></feOffset>
        <feGaussianBlur stdDeviation="1.5" result="blur"></feGaussianBlur>
        <feFlood flood-opacity=".161"></feFlood>
        <feComposite operator="in" in2="blur"></feComposite>
        <feComposite in="SourceGraphic"></feComposite>
      </filter>
    </defs>
    <rect width="32" height="32" rx="16" transform="translate(4.5 3.499)" fill="#fff" filter="url(#a)"></rect>
    <path d="M13.761 25a.75.75 0 0 1-.751-.653.565.565 0 0 1-.01-.131V20.79a.746.746 0 0 1 .755-.731.77.77 0 0 1 .534.214.722.722 0 0 1 .223.517v2.744h12.981V20.79a.747.747 0 0 1 .757-.731.774.774 0 0 1 .534.214.758.758 0 0 1 .216.521v3.426a.785.785 0 0 1-.024.19.756.756 0 0 1-.741.59zm7.154-2.476h-.044a.835.835 0 0 1-.471-.236l-.019-.019-3.581-3.553a.842.842 0 0 1 0-1.194.861.861 0 0 1 1.2 0l2.15 2.132v-7.812a.85.85 0 0 1 .857-.842.87.87 0 0 1 .6.246.826.826 0 0 1 .247.6v7.809l2.15-2.132a.845.845 0 1 1 1.196 1.193l-3.582 3.549c0 .009-.014.014-.019.019a.849.849 0 0 1-.471.236h-.044a.484.484 0 0 1-.084.009z"
      fill="#737891"></path>
  </symbol>
  <symbol xmlns="http://www.w3.org/2000/svg" viewBox="0 0 24 24" id="download-white">
    <path fill="rgba(255,255,255,0)" d="M0 0h24v24H0z"></path>
    <path d="M4.761 19.002a.769.769 0 0 1-.752-.7.654.654 0 0 1-.009-.141v-3.67a.772.772 0 0 1 .756-.783.747.747 0 0 1 .534.23.8.8 0 0 1 .222.554v2.939h12.982v-2.94a.772.772 0 0 1 .756-.783.746.746 0 0 1 .534.23.843.843 0 0 1 .217.559v3.67a.85.85 0 0 1-.025.2.767.767 0 0 1-.741.632zm7.153-2.651c-.014 0-.029-.005-.044-.005a.813.813 0 0 1-.47-.254l-.019-.021L7.8 12.269a.95.95 0 0 1 0-1.279.82.82 0 0 1 1.2 0l2.15 2.285V4.902a.881.881 0 0 1 .85-.9.84.84 0 0 1 .6.263.919.919 0 0 1 .256.637v8.374l2.15-2.285a.82.82 0 0 1 1.2 0 .967.967 0 0 1-.006 1.278l-3.577 3.8c0 .01-.014.015-.02.021a.824.824 0 0 1-.471.253c-.014 0-.029.005-.043.005a.574.574 0 0 1-.087 0z"
      fill="#fff"></path>
  </symbol>
  <symbol xmlns="http://www.w3.org/2000/svg" viewBox="0 0 18 18" id="drag-move">
    <path fill="rgba(255,255,255,0)" d="M0 0h18v18H0z"></path>
    <path d="M10 14a1.5 1.5 0 1 1 1.5 1.5A1.5 1.5 0 0 1 10 14zm-5 0a1.5 1.5 0 1 1 1.5 1.5A1.5 1.5 0 0 1 5 14zm5-5a1.5 1.5 0 1 1 1.5 1.5A1.5 1.5 0 0 1 10 9zM5 9a1.5 1.5 0 1 1 1.5 1.5A1.5 1.5 0 0 1 5 9zm5-5a1.5 1.5 0 1 1 1.5 1.5A1.5 1.5 0 0 1 10 4zM5 4a1.5 1.5 0 1 1 1.5 1.5A1.5 1.5 0 0 1 5 4z"
      fill="#737790"></path>
  </symbol>
  <symbol xmlns="http://www.w3.org/2000/svg" viewBox="0 0 151.36 182.266" id="empty-folder-illustration-vault">
    <defs>
      <clipPath id="a">
        <path d="M74.624 55.247c41.214 0 74.624-34.191 74.624-76.368s-33.78-62.226-74.624-76.368S0-63.3 0-21.121s33.41 76.368 74.624 76.368z" transform="translate(0 100)" fill="none"></path>
      </clipPath>
      <clipPath id="b">
        <path d="M-282 662.255h1807.929V-346H-282z" transform="translate(282 346)" fill="none"></path>
      </clipPath>
    </defs>
    <g clip-path="url(#a)">
      <g transform="translate(-478.27 -419.68)" clip-path="url(#b)">
        <path d="M469.79 411.15h166.207v172.308H469.79z" fill="#e9edfc"></path>
      </g>
    </g>
    <path d="M97.938 95.314v4.743l-82.172 47.436-2.528 1.457a4.417 4.417 0 0 1-1.933-3.5v-79.9a.862.862 0 0 1 .119-.4.88.88 0 0 1 .3-.309l18.722-10.802c.229-.129 1.562.429 1.781.562l.143.081a1.413 1.413 0 0 1 .329.29 1.168 1.168 0 0 1 .238.4l1.7 4.895 60.959-36.312a.94.94 0 0 1 .8-.014l1.133.657a.853.853 0 0 1 .29.3.827.827 0 0 1 .119.41v16.681z"
      fill="#7c88b5"></path>
    <path d="M97.937 100.058l-84.7 48.9V66.202L32.699 54.97a1.167 1.167 0 0 1 .238.4l1.7 4.895.324.929 62.853-36.303a.827.827 0 0 1 .119.41z" fill="#8e97ba"></path>
    <path d="M32.695 54.969L13.237 66.202l-1.814-1.043a.88.88 0 0 1 .3-.31l18.723-10.811a.893.893 0 0 1 .814 0l1.109.639a1.413 1.413 0 0 1 .326.292z" fill="#8e97ba"></path>
    <path d="M97.813 24.895L34.954 61.188l-.324-.929 60.959-36.313a.94.94 0 0 1 .8-.014l1.133.658a.853.853 0 0 1 .291.305z" fill="#7c88b5"></path>
    <path d="M39.26 115.304a2 2 0 0 1-.878-1.587V35.026a2.068 2.068 0 0 1 .936-1.62L85.802 6.597a1.758 1.758 0 0 1 2.691 1.554v78.691a2.068 2.068 0 0 1-.936 1.62l-46.485 26.809a2 2 0 0 1-1.812.033z" fill="#fafafa"></path>
    <path d="M41.073 115.271l46.485-26.809a2.068 2.068 0 0 0 .936-1.62V8.146c0-.6-.419-.839-.936-.54l-46.485 26.81a2.068 2.068 0 0 0-.936 1.62v78.691c0 .6.42.842.936.544z" fill="#f0f0f0"></path>
    <path d="M46.167 37.543l35.1-20.265c.455-.263.825-.05.825.476v.329a1.825 1.825 0 0 1-.825 1.428l-35.1 20.265c-.455.263-.825.05-.824-.476v-.329a1.825 1.825 0 0 1 .824-1.428zm0 5.578l35.1-20.265c.455-.263.825-.05.825.476v.327a1.823 1.823 0 0 1-.825 1.428l-35.1 20.265c-.455.263-.825.05-.824-.476v-.329a1.823 1.823 0 0 1 .824-1.426zm0 5.576l35.1-20.265c.455-.263.825-.05.825.476v.329a1.823 1.823 0 0 1-.825 1.428l-35.1 20.266c-.455.263-.825.05-.824-.476v-.332a1.825 1.825 0 0 1 .824-1.426zm0 5.578l35.1-20.265c.455-.263.825-.05.825.476v.329a1.823 1.823 0 0 1-.825 1.428l-35.1 20.265c-.455.263-.825.05-.824-.476v-.329a1.823 1.823 0 0 1 .824-1.428zm0 5.577l35.1-20.265c.455-.263.825-.05.825.476v.329a1.823 1.823 0 0 1-.825 1.428l-35.1 20.266c-.455.263-.825.05-.824-.476v-.329a1.825 1.825 0 0 1 .824-1.429zm0 5.62l35.1-20.265c.455-.263.825-.05.825.476v.329a1.823 1.823 0 0 1-.825 1.429l-35.1 20.266c-.455.263-.825.05-.824-.476v-.329a1.825 1.825 0 0 1 .824-1.43zm0 5.575l35.1-20.265c.455-.263.825-.05.825.476v.329a1.823 1.823 0 0 1-.825 1.428l-35.1 20.265c-.455.263-.825.05-.824-.476v-.329a1.823 1.823 0 0 1 .824-1.428zm0 5.576l35.1-20.265c.455-.263.825-.05.825.476v.329a1.823 1.823 0 0 1-.825 1.428l-35.1 20.266c-.455.263-.825.05-.824-.476v-.329a1.825 1.825 0 0 1 .824-1.429zm0 5.578l35.1-20.266c.455-.263.825-.049.825.476v.329a1.824 1.824 0 0 1-.825 1.429l-35.1 20.265c-.455.263-.825.05-.824-.476v-.329a1.823 1.823 0 0 1 .824-1.428zm0 5.577l35.1-20.265c.455-.263.825-.05.825.476v.329a1.823 1.823 0 0 1-.825 1.429l-35.1 20.266c-.455.263-.825.05-.824-.476v-.329a1.825 1.825 0 0 1 .824-1.43zm0 5.601l35.1-20.265c.455-.263.825-.05.825.476v.329a1.823 1.823 0 0 1-.825 1.429l-35.1 20.266c-.455.263-.825.05-.824-.476v-.329a1.825 1.825 0 0 1 .824-1.43zm0 5.578l35.1-20.266c.455-.263.825-.05.825.476v.329a1.824 1.824 0 0 1-.825 1.429l-35.1 20.265c-.455.263-.825.05-.824-.476v-.329a1.823 1.823 0 0 1 .824-1.428zm0 5.577l35.1-20.265c.455-.263.825-.05.825.476v.329a1.823 1.823 0 0 1-.825 1.429l-35.1 20.265c-.455.263-.825.05-.824-.476v-.329a1.824 1.824 0 0 1 .824-1.429zm-5.216 10.799a1.749 1.749 0 0 1-2.567-1.614v-78.69a1.943 1.943 0 0 1 .271-.923l1.757 1.014a1.876 1.876 0 0 0-.276.919v78.695c-.002.546.357.794.815.599z"
      fill="#e0e0e0"></path>
    <path d="M45.84 119.038a2.006 2.006 0 0 1-.878-1.587V38.76a2.069 2.069 0 0 1 .936-1.621L92.382 10.33a1.758 1.758 0 0 1 2.691 1.554v78.687a2.068 2.068 0 0 1-.936 1.62l-46.485 26.81a2.008 2.008 0 0 1-1.812.037z" fill="#fafafa"></path>
    <path d="M47.653 119.005l46.485-26.81a2.068 2.068 0 0 0 .936-1.62V11.884c0-.6-.419-.839-.936-.54L47.653 38.153a2.068 2.068 0 0 0-.936 1.62v78.691c0 .597.419.839.936.541z" fill="#f0f0f0"></path>
    <path d="M52.747 41.277l35.1-20.266c.455-.263.825-.05.825.476v.329a1.825 1.825 0 0 1-.825 1.428l-35.1 20.265c-.456.263-.825.05-.824-.476v-.329a1.822 1.822 0 0 1 .824-1.427zm0 5.574l35.1-20.265c.455-.263.825-.05.825.476v.329a1.823 1.823 0 0 1-.825 1.428l-35.1 20.265c-.456.263-.825.05-.824-.476v-.329a1.823 1.823 0 0 1 .824-1.428zm0 5.58l35.1-20.266c.455-.263.825-.05.825.476v.329a1.824 1.824 0 0 1-.825 1.429l-35.1 20.265c-.456.263-.825.05-.824-.476v-.329a1.822 1.822 0 0 1 .824-1.428zm0 5.577l35.1-20.265c.455-.263.825-.05.825.476v.329a1.823 1.823 0 0 1-.825 1.428L52.742 60.241c-.456.263-.825.05-.824-.476v-.329a1.822 1.822 0 0 1 .829-1.428zm0 5.576l35.1-20.265c.455-.263.825-.05.825.476v.329a1.825 1.825 0 0 1-.825 1.428l-35.1 20.265c-.456.263-.825.05-.824-.476v-.329a1.824 1.824 0 0 1 .824-1.428zm0 5.619l35.1-20.266c.455-.263.825-.05.825.476v.329a1.824 1.824 0 0 1-.825 1.428l-35.1 20.265c-.456.263-.825.05-.824-.476v-.329a1.822 1.822 0 0 1 .824-1.427zm0 5.577l35.1-20.265c.455-.263.825-.05.825.476v.329a1.823 1.823 0 0 1-.825 1.429l-35.1 20.265c-.456.263-.825.05-.824-.476v-.329a1.822 1.822 0 0 1 .824-1.429zm0 5.576l35.095-20.262c.455-.263.825-.05.825.476v.329a1.824 1.824 0 0 1-.825 1.428l-35.1 20.267c-.456.263-.825.05-.824-.476v-.329a1.824 1.824 0 0 1 .829-1.433zm0 5.578l35.1-20.265c.455-.263.825-.05.825.476v.329a1.823 1.823 0 0 1-.825 1.428l-35.1 20.265c-.456.263-.825.05-.824-.476v-.332a1.822 1.822 0 0 1 .824-1.425zm0 5.576l35.1-20.265c.455-.263.825-.05.825.476v.329a1.825 1.825 0 0 1-.825 1.428l-35.1 20.265c-.456.263-.825.049-.824-.476v-.329a1.824 1.824 0 0 1 .824-1.428zm0 5.602l35.1-20.265c.455-.263.825-.05.825.476v.329a1.825 1.825 0 0 1-.825 1.429l-35.1 20.265c-.456.263-.825.05-.824-.476v-.329a1.824 1.824 0 0 1 .824-1.429zm0 5.578l35.095-20.264c.455-.263.825-.05.825.476v.324a1.823 1.823 0 0 1-.825 1.428l-35.1 20.272c-.456.263-.825.05-.824-.476v-.329a1.822 1.822 0 0 1 .829-1.431zm0 5.576l35.1-20.265c.455-.263.825-.05.825.476v.329a1.825 1.825 0 0 1-.825 1.429L52.742 110.5c-.456.263-.825.049-.824-.476v-.334a1.824 1.824 0 0 1 .829-1.424zm-5.217 10.8a1.748 1.748 0 0 1-2.566-1.614v-78.69a1.945 1.945 0 0 1 .271-.924l1.76 1.014a1.879 1.879 0 0 0-.277.919v78.694c-.002.548.355.796.812.601z"
      fill="#e0e0e0"></path>
    <path d="M115.236 34.637l-13.58 58.806-1.252 5.409a6.253 6.253 0 0 1-2.6 3.509l-80.572 46.522a4.224 4.224 0 0 1-1.9.509 3.915 3.915 0 0 1-2.09-.438l.414-1.8c.014-.057.029-.114.043-.176l.452-1.967 1.971-8.533L28.599 82.42a.861.861 0 0 1 .076-.2c.033-.062.071-.124.11-.181 0-.01.014-.019.019-.029a1.212 1.212 0 0 1 .314-.3l68.811-39.727 15.061-8.695a.908.908 0 0 1 .829 0l1.109.638a.7.7 0 0 1 .308.711z"
      fill="#b6bdd9"></path>
    <path d="M115.251 34.518c-.01-.167-.133-.219-.319-.11L31.055 82.834a1.074 1.074 0 0 0-.314.3l-1.933-1.119a1.212 1.212 0 0 1 .314-.3l83.872-48.421a.908.908 0 0 1 .828 0l1.109.638a.71.71 0 0 1 .32.586z" fill="#8e97ba"></path>
    <path d="M30.741 83.13a1.538 1.538 0 0 0-.143.233 1.08 1.08 0 0 0-.062.171l-11.937 51.703-2.514 10.895-.314 1.362-.438 1.9a3.915 3.915 0 0 1-2.09-.438l.414-1.8c.014-.057.029-.114.043-.176l.452-1.967 1.971-8.533 12.476-54.06a.86.86 0 0 1 .076-.2c.033-.062.071-.124.11-.181 0-.01.014-.019.019-.029z"
      fill="#7c88b5"></path>
    <path d="M16.191 143.962a.536.536 0 0 1 .254.585l-.68 2.947-.339 1.483a.541.541 0 0 1-.553.417 3.651 3.651 0 0 1-1.634-.437 4.417 4.417 0 0 1-1.933-3.495v-3.391a.536.536 0 0 1 .8-.464l.861.5a.539.539 0 0 1 .268.465v1.685a.536.536 0 0 0 1.058.121l.144-.624a.536.536 0 0 1 .79-.343z"
      fill="#7c88b5"></path>
    <path d="M84.979 103.395l-4.586-2.648h-.01l-.048-.028v.01c-2.28-1.288-5.406-1.1-8.87.9a25.2 25.2 0 0 0-8.423 8.59 26.235 26.235 0 0 0-4.2 13.269c0 4.019 1.406 6.842 3.682 8.162h.014l4.656 2.659c2.3 1.466 5.546 1.336 9.147-.743 6.971-4.024 12.622-13.812 12.622-21.86.001-4.18-1.53-7.069-3.984-8.311z"
      fill="#87a0f7"></path>
    <path d="M67.104 134.269l-4.571-2.609h-.014c-2.276-1.319-3.68-4.143-3.68-8.161a26.219 26.219 0 0 1 4.194-13.276l4.871 2.809a26.19 26.19 0 0 0-4.19 13.256c.004 3.843 1.29 6.591 3.39 7.981z" opacity=".1"></path>
    <path d="M84.884 103.342c-2.248-1.09-5.247-.814-8.542 1.086a25.348 25.348 0 0 0-8.433 8.6l-4.871-2.809a25.191 25.191 0 0 1 8.424-8.59c3.462-2 6.59-2.19 8.87-.9v-.01l.048.029h.01z" fill="#fff" opacity=".4"></path>
    <path d="M78.087 120.303v4.427a1.517 1.517 0 0 1-.154.654.973.973 0 0 1-.367.45l-2.432 1.4a.28.28 0 0 1-.367-.026.636.636 0 0 1-.154-.476v-4.423l-2.992 1.728a.28.28 0 0 1-.367-.026.632.632 0 0 1-.154-.475v-3a1.517 1.517 0 0 1 .154-.654.979.979 0 0 1 .367-.45l2.992-1.727v-4.426a1.52 1.52 0 0 1 .154-.654.976.976 0 0 1 .367-.45l2.432-1.4a.28.28 0 0 1 .367.026.636.636 0 0 1 .154.475v4.427l2.973-1.716a.28.28 0 0 1 .367.026.638.638 0 0 1 .154.476v3a1.517 1.517 0 0 1-.154.653.973.973 0 0 1-.367.449z"
      fill="#fff"></path>
    <path d="M118.133 34.692l-10.262-.285c-.689-.59-12.98-13.277-12.98-13.277s.064 7.278 0 7.668 8.139 11.122 9.19 12.27a3.161 3.161 0 0 0 2.508 1.226c2.78.167 13.189.9 13.189.9z" fill="#d2dbfa"></path>
    <path d="M120.047 32.913h12.181a15.753 15.753 0 0 0 15.753-15.753 13.968 13.968 0 0 0-13.969-13.967 13.967 13.967 0 0 0-13.966 13.967z" fill="#646784"></path>
    <path d="M144.838 8.696l3.381-1.815a1.863 1.863 0 0 0-2.559-.846 2.017 2.017 0 0 0-.822 2.661z" fill="#646784"></path>
    <path d="M144.627 9.08l3.594 1.344a1.863 1.863 0 0 0-1.052-2.482 2.016 2.016 0 0 0-2.542 1.138z" fill="#646784"></path>
    <path d="M132.595 44.527l-16.968-.735c-1.5-2.062-1.462-7.518.048-9.261l18.783.514z" fill="#87a0f7"></path>
    <path d="M122.256 149.82a33.378 33.378 0 0 1 .138 3.411v6.684h5.811v-3.921a32.461 32.461 0 0 1 .434-5.291z" fill="#d2dbfa"></path>
    <path d="M122.39 157.049v-.83c-.166 1.268-3.777 6.022-6.085 8.127-1.834 1.673-4.336 3.605-4.973 5.47-.661 1.94 2.956 2.708 5.328 2.471a9.568 9.568 0 0 0 5.969-3.122 29.493 29.493 0 0 0 2.577-3.827c.7-.953 3.864-2.9 4.244-4a7.013 7.013 0 0 0-.333-3.053c-.27-1.028-.562-2.159-.912-2.062v.634a4.6 4.6 0 0 1-2.908.982c-.85.028-2.914-.142-2.907-.79z"
      fill="#646784"></path>
    <path d="M128.205 156.851a4.593 4.593 0 0 1-2.907.983c-.85.033-2.914-.135-2.907-.784v-.832c-.166 1.268-3.777 6.022-6.084 8.127-.439.4-.917.816-1.4 1.242-.976 1.087-.7 2.035 1.594 2.233s4.308-1.185 6.048-3.321 5.656-7.648 5.656-7.648zm11.81 2.815c.112 1.407.118 2.876.138 3.5v6.684h5.815v-3.921a32.457 32.457 0 0 1 .434-5.291z"
      fill="#d2dbfa"></path>
    <path d="M140.15 166.988v-.832c-.165 1.268-3.776 6.022-6.084 8.126-1.834 1.673-4.336 3.606-4.973 5.471-.662 1.939 2.956 2.708 5.328 2.471a9.568 9.568 0 0 0 5.969-3.122 29.508 29.508 0 0 0 2.577-3.827c.7-.953 3.864-2.9 4.244-4a7.006 7.006 0 0 0-.333-3.052c-.269-1.028-.562-2.159-.913-2.062v.634a4.593 4.593 0 0 1-2.907.982c-.851.029-2.916-.139-2.908-.789z"
      fill="#646784"></path>
    <path d="M145.964 166.79a4.593 4.593 0 0 1-2.907.983c-.85.033-2.915-.136-2.907-.785v-.831c-.166 1.268-3.777 6.022-6.085 8.126-.439.4-.917.816-1.4 1.242-.976 1.087-.7 2.035 1.594 2.233s4.308-1.186 6.048-3.321 5.657-7.647 5.657-7.647z" fill="#d2dbfa"></path>
    <path d="M122.256 152.577c-1.244-10.25-3.286-27.965-3.883-31.835-.554-3.588.839-34.273 1.688-44.012l30.286-1.622c2.306 9.87.061 23.179-.729 31.492-.768 8.09-1.719 17.545-1.719 17.545s2.366 8.243 1.739 14.806c-.4 4.131-2.254 16.613-3.137 21.948a7.14 7.14 0 0 1-6.645-.088c.1 1.133-1.079-13.818-1.777-19.858-.969-8.387-1.335-14.5-2.194-19.4-1.083-6.108-1.457-30.045-1.457-30.045l-3.489 27.153a66.142 66.142 0 0 1 .551 8.822c0 6.061-2.237 19.848-2.941 25-1.529 1.063-4.621 1.392-6.293.094z"
      fill="#d3d8ed"></path>
    <path d="M134.429 91.511s-5.534-1.941-8.686-4.835a15.506 15.506 0 0 0 6.49 5.674l.046 15.9 2.15-16.737" fill="#c8cdd1"></path>
    <path d="M138.838 35.174s8.226.946 9.211 1.388c-5.014 5.489.322 10.037.322 10.037l-3.812 16.8c3.29 4.212 5.17 7.455 5.956 12.474-3.524 6.21-23.326 7.073-30.582 2.444.631-8.668 2.04-14.874 1.571-17.477-3.458-10.643-2.381-12.875-2.057-15.305.634-4.748 5.346-8.888 8.04-10.622h2.512z"
      fill="#87a0f7"></path>
    <path d="M124.634 10.032c-1.475.872-3.3 4.583-3.119 12.361.153 6.593 2.29 8.222 3.363 8.691s3.142.183 5.155-.152v3.957s-2.781 3.229-2.606 5.043 4.015 2.243 6.617.471a21 21 0 0 0 4.794-5.227l-.045-9.1s1.184 1.15 3.191-.6c1.658-1.45 2.216-3.893.925-5.2a2.888 2.888 0 0 0-4.595.915s-1.118-3.1-5.752-4.619c-4.188-1.376-6.464-2.951-7.928-6.54z"
      fill="#dde4fd"></path>
    <path d="M129.322 20.737a.83.83 0 1 0 .871-.821.843.843 0 0 0-.871.821z" fill="#646784"></path>
    <path d="M129.102 26.325l-1.925.614a.992.992 0 0 0 1.252.691 1.058 1.058 0 0 0 .673-1.305z" fill="#263238" opacity=".2"></path>
    <path d="M122.526 18.19l1.677-1.166a.979.979 0 0 0-1.392-.286 1.072 1.072 0 0 0-.285 1.452zm9.21.614l-1.678-1.163a.98.98 0 0 1 1.393-.285 1.071 1.071 0 0 1 .285 1.448zm-8.823 1.333a.83.83 0 1 0 .872-.821.842.842 0 0 0-.872.821z" fill="#646784"></path>
    <path d="M126.825 19.662l-.132 4.991-2.626-.813zm3.208 11.27c2.12-.278 6.481-1.531 7.162-3.256a4.471 4.471 0 0 1-1.529 2.2c-1.3 1.116-5.632 2.374-5.632 2.374z" fill="#263238" opacity=".2"></path>
    <path d="M146.261 55.899l-7.017 10.245 5.314-2.741z" fill="#e0e0e0"></path>
    <path d="M143.011 38.802L126.55 55.83s-16.165-1.595-21.655-3.164c-1.729-.5-3.128-2.865-3.509-4.858a2.5 2.5 0 0 0-1.923-2.2v3.986c-.14 1.01-.633 1.533-2.076 1.565-5.551.122-8.121-1.565-8.8 1.45-.432 1.923.4 4.114 4.072 5.119 5.142 1.409 7.981.705 11.114 1.482 2.415.6 19.257 3.8 22.569 4.526 1.753.383 3.086.262 4.987-1.62s16.195-15.217 16.195-15.217c4.365-4.362 3.088-8.9.648-10.237-1.527-.846-3.224.135-5.161 2.14z"
      fill="#dde4fd"></path>
    <path d="M148.048 36.564c1.067.432 2.366 1.56 2.466 4.5s-2.062 5.6-4.617 8.654-3.324 3.862-3.324 3.862-6.469-2.349-7.562-7.157c0 0 4.869-5.155 6.331-6.81s4.145-4.185 6.706-3.049z" fill="#87a0f7"></path>
  </symbol>
  <symbol xmlns="http://www.w3.org/2000/svg" viewBox="0 0 24 24" id="folder-24px">
    <path fill="rgba(255,255,255,0)" d="M0 0h24v24H0z"></path>
    <path d="M20 6.791h-9L9 4H4C2.9 4 2 5.252 2 6.791v5.582h20v-2.79c-.003-1.54-.896-2.787-2-2.792z" fill="#8e97ba"></path>
    <path d="M20 6.791H4a1.952 1.952 0 0 0-2 1.887v9.435A1.952 1.952 0 0 0 4 20h16a1.952 1.952 0 0 0 2-1.887V8.678a1.952 1.952 0 0 0-2-1.887z" fill="#b6bdd9"></path>
  </symbol>
  <symbol xmlns="http://www.w3.org/2000/svg" viewBox="0 0 100 100" id="folder-100px">
    <g transform="translate(-1240 -318)">
      <rect width="100" height="100" rx="4" transform="translate(1240 318)" fill="rgba(245,247,252,0)"></rect>
      <path d="M1326.001 343.304h-40.5l-9-11.3h-22.5c-4.964.019-8.985 5.069-9 11.3v22.608h90v-11.3c-.014-6.237-4.035-11.289-9-11.308z" fill="#8e97ba"></path>
      <path d="M1326.001 343.304h-72a8.866 8.866 0 0 0-9 8.67v43.356a8.866 8.866 0 0 0 9 8.67h72a8.866 8.866 0 0 0 9-8.67v-43.353a8.866 8.866 0 0 0-9-8.673z" fill="#b6bdd9"></path>
    </g>
  </symbol>
  <symbol xmlns="http://www.w3.org/2000/svg" viewBox="0 0 100 100" id="folder-100px-bg">
    <path d="M50 0A50 50 0 1 1 0 50 50 50 0 0 1 50 0z" fill="#eaefff"></path>
    <path d="M70 36.28H47.5l-5-6.28H30c-2.758.01-4.991 2.816-5 6.28v12.56h50v-6.278c-.007-3.465-2.24-6.272-5-6.282z" fill="#8e97ba"></path>
    <path d="M70 36.28H30a4.926 4.926 0 0 0-5 4.817v24.087a4.926 4.926 0 0 0 5 4.817h40a4.926 4.926 0 0 0 5-4.817V41.098a4.926 4.926 0 0 0-5-4.818z" fill="#b6bdd9"></path>
  </symbol>
  <symbol xmlns="http://www.w3.org/2000/svg" viewBox="0 0 24 24" id="globe-share-url">
    <path fill="rgba(255,255,255,0)" d="M0 0h24v24H0z"></path>
    <path d="M12 2a10 10 0 1 0 10 10A10.013 10.013 0 0 0 12 2zm0 1.667c.151 0 .376.093.677.443a5.651 5.651 0 0 1 .886 1.69c.131.359.256.769.365 1.2h-3.855c.109-.429.234-.839.365-1.2a5.651 5.651 0 0 1 .885-1.693c.301-.348.526-.44.677-.44zm-2.656.417a8.894 8.894 0 0 0-.495 1.146A14.486 14.486 0 0 0 8.354 7H5.333a8.338 8.338 0 0 1 4.011-2.917zm5.313 0A8.338 8.338 0 0 1 18.667 7h-3.021a14.486 14.486 0 0 0-.495-1.771 8.893 8.893 0 0 0-.495-1.146zM4.344 8.667h3.724a24.556 24.556 0 0 0-.208 2.5H3.719a8.311 8.311 0 0 1 .625-2.5zm5.417 0h4.479a21.974 21.974 0 0 1 .234 2.5H9.526a21.974 21.974 0 0 1 .234-2.5zm6.172 0h3.724a8.312 8.312 0 0 1 .625 2.5h-4.141a24.556 24.556 0 0 0-.209-2.5zM3.719 12.833h4.14a24.556 24.556 0 0 0 .208 2.5H4.344a8.311 8.311 0 0 1-.625-2.5zm5.807 0h4.948a21.974 21.974 0 0 1-.234 2.5H9.76a21.974 21.974 0 0 1-.234-2.5zm6.615 0h4.141a8.312 8.312 0 0 1-.625 2.5h-3.725a24.556 24.556 0 0 0 .209-2.5zM5.333 17h3.021a14.486 14.486 0 0 0 .495 1.771 8.894 8.894 0 0 0 .495 1.146A8.338 8.338 0 0 1 5.333 17zm4.74 0h3.854c-.109.429-.234.839-.365 1.2a5.651 5.651 0 0 1-.885 1.693c-.3.35-.526.443-.677.443s-.376-.093-.677-.443a5.651 5.651 0 0 1-.885-1.693 12.834 12.834 0 0 1-.365-1.2zm5.573 0h3.021a8.338 8.338 0 0 1-4.01 2.917 8.894 8.894 0 0 0 .495-1.146A14.486 14.486 0 0 0 15.646 17z"
      fill="#737891" stroke="#eaefff" stroke-linecap="round" stroke-width=".5"></path>
  </symbol>
  <symbol xmlns="http://www.w3.org/2000/svg" viewBox="0 0 36 36" id="grid-view">
    <path fill="rgba(255,255,255,0)" d="M0 0h36v36H0z"></path>
    <path d="M25.664 17.036h-5.361a1.343 1.343 0 0 1-1.339-1.336v-5.361A1.343 1.343 0 0 1 20.303 9h5.361a1.343 1.343 0 0 1 1.339 1.339V15.7a1.343 1.343 0 0 1-1.339 1.336zm-5.357-6.7V15.7h5.357v-5.361zM25.664 27h-5.361a1.343 1.343 0 0 1-1.339-1.336v-5.361a1.343 1.343 0 0 1 1.339-1.339h5.361a1.343 1.343 0 0 1 1.339 1.339v5.361A1.343 1.343 0 0 1 25.664 27zm-5.357-6.7v5.364h5.357v-5.361zM15.7 17.036h-5.361A1.343 1.343 0 0 1 9 15.7v-5.361A1.343 1.343 0 0 1 10.339 9H15.7a1.343 1.343 0 0 1 1.339 1.339V15.7a1.343 1.343 0 0 1-1.339 1.336zm-5.357-6.7V15.7H15.7v-5.361zM15.7 27h-5.361A1.343 1.343 0 0 1 9 25.664v-5.361a1.343 1.343 0 0 1 1.339-1.339H15.7a1.343 1.343 0 0 1 1.339 1.339v5.361A1.343 1.343 0 0 1 15.7 27zm-5.357-6.7v5.364H15.7v-5.361z"
      fill="#fff"></path>
  </symbol>
  <symbol xmlns="http://www.w3.org/2000/svg" viewBox="0 0 36 36" id="grid-view-dark">
    <path fill="rgba(255,255,255,0)" d="M0 0h36v36H0z"></path>
    <path d="M25.664 17.036h-5.361a1.343 1.343 0 0 1-1.339-1.336v-5.361A1.343 1.343 0 0 1 20.303 9h5.361a1.343 1.343 0 0 1 1.339 1.339V15.7a1.343 1.343 0 0 1-1.339 1.336zm-5.357-6.7V15.7h5.357v-5.361zM25.664 27h-5.361a1.343 1.343 0 0 1-1.339-1.336v-5.361a1.343 1.343 0 0 1 1.339-1.339h5.361a1.343 1.343 0 0 1 1.339 1.339v5.361A1.343 1.343 0 0 1 25.664 27zm-5.357-6.7v5.364h5.357v-5.361zM15.7 17.036h-5.361A1.343 1.343 0 0 1 9 15.7v-5.361A1.343 1.343 0 0 1 10.339 9H15.7a1.343 1.343 0 0 1 1.339 1.339V15.7a1.343 1.343 0 0 1-1.339 1.336zm-5.357-6.7V15.7H15.7v-5.361zM15.7 27h-5.361A1.343 1.343 0 0 1 9 25.664v-5.361a1.343 1.343 0 0 1 1.339-1.339H15.7a1.343 1.343 0 0 1 1.339 1.339v5.361A1.343 1.343 0 0 1 15.7 27zm-5.357-6.7v5.364H15.7v-5.361z"
      fill="#5b607e"></path>
  </symbol>
  <symbol xmlns="http://www.w3.org/2000/svg" viewBox="0 0 44 44" id="info">
    <g transform="translate(-556 -363)">
      <rect width="44" height="44" rx="22" transform="translate(556 363)" fill="rgba(255,255,255,0)"></rect>
      <path d="M578 395a10 10 0 1 1 10-10 10 10 0 0 1-10 10zm0-18.182a8.182 8.182 0 1 0 8.182 8.182 8.177 8.177 0 0 0-8.182-8.182z" fill="#5b607e"></path>
      <path d="M577.997 389.645a.806.806 0 0 1-.8-.8v-4.625a.803.803 0 0 1 1.606 0v4.619a.806.806 0 0 1-.806.806z" fill="#5b607e"></path>
      <g fill="#5b607e" transform="translate(576.996 380.609)">
        <ellipse cx="1" cy=".5" rx="1" ry=".5" transform="translate(.004 .418)"></ellipse>
        <path d="M1 2.008a1 1 0 1 1 1-1 .994.994 0 0 1-1 1zM1 .4a.6.6 0 1 0 .6.6.592.592 0 0 0-.6-.6z"></path>
      </g>
    </g>
  </symbol>
  <symbol xmlns="http://www.w3.org/2000/svg" viewBox="0 0 24 24" id="info-grey">
    <path fill="rgba(255,255,255,0)" d="M0 0h24v24H0z"></path>
    <path d="M12 22.998a11 11 0 1 1 11-11 11 11 0 0 1-11 11zm0-20a9 9 0 1 0 9 9 8.994 8.994 0 0 0-9-9z" fill="#5b607e" stroke="#fff" stroke-linecap="round" stroke-width=".5"></path>
    <path d="M12 16.888a.846.846 0 0 1-.843-.844v-4.85a.844.844 0 0 1 1.687 0v4.85a.846.846 0 0 1-.844.844zm0-7.38a1.054 1.054 0 1 1 1.054-1.054A1.044 1.044 0 0 1 12 9.508z" fill="#5b607e"></path>
  </symbol>
  <symbol xmlns="http://www.w3.org/2000/svg" viewBox="0 0 56 56" id="info-selected">
    <defs>
      <filter id="a" x="0" y="0" width="56" height="56" filterUnits="userSpaceOnUse">
        <feOffset dy="1"></feOffset>
        <feGaussianBlur stdDeviation="2" result="blur"></feGaussianBlur>
        <feFlood flood-opacity=".102"></feFlood>
        <feComposite operator="in" in2="blur"></feComposite>
        <feComposite in="SourceGraphic"></feComposite>
      </filter>
    </defs>
    <g transform="translate(6 5)" fill="#fff" stroke="rgba(23,30,72,0.15)" filter="url(#a)">
      <rect width="44" height="44" rx="22" stroke="none"></rect>
      <rect x=".5" y=".5" width="43" height="43" rx="21.5" fill="none"></rect>
    </g>
    <path d="M28 37a10 10 0 1 1 10-10 10 10 0 0 1-10 10zm0-18.182A8.182 8.182 0 1 0 36.182 27 8.177 8.177 0 0 0 28 18.818z" fill="#5b607e"></path>
    <path d="M27.997 31.645a.806.806 0 0 1-.8-.8V26.22a.803.803 0 0 1 1.606 0v4.619a.806.806 0 0 1-.806.806z" fill="#5b607e"></path>
    <g fill="#5b607e" transform="translate(26.996 22.609)">
      <ellipse cx="1" cy=".5" rx="1" ry=".5" transform="translate(.004 .418)"></ellipse>
      <path d="M1 2.008a1 1 0 1 1 1-1 .994.994 0 0 1-1 1zM1 .4a.6.6 0 1 0 .6.6.592.592 0 0 0-.6-.6z"></path>
    </g>
  </symbol>
  <symbol xmlns="http://www.w3.org/2000/svg" viewBox="0 0 36 36" id="list-view">
    <path fill="rgba(255,255,255,0)" d="M0 0h36v36H0z"></path>
    <path d="M9.633 8.816a.816.816 0 0 0-.816.816v2.041a.816.816 0 0 0 .816.816h2.04a.816.816 0 0 0 .816-.816v-2.04a.816.816 0 0 0-.816-.816zm0-.816h2.04a1.633 1.633 0 0 1 1.633 1.633v2.04a1.633 1.633 0 0 1-1.633 1.633h-2.04A1.633 1.633 0 0 1 8 11.673v-2.04A1.633 1.633 0 0 1 9.633 8zm7.347.816a.816.816 0 0 0-.816.816v2.041a.816.816 0 0 0 .816.816h9.387a.816.816 0 0 0 .816-.816v-2.04a.816.816 0 0 0-.816-.816zm0-.816h9.387A1.633 1.633 0 0 1 28 9.633v2.04a1.633 1.633 0 0 1-1.633 1.633H16.98a1.633 1.633 0 0 1-1.633-1.633v-2.04A1.633 1.633 0 0 1 16.98 8zm-7.347 8.163a.816.816 0 0 0-.816.816v2.041a.816.816 0 0 0 .816.816h2.04a.816.816 0 0 0 .816-.816v-2.04a.816.816 0 0 0-.816-.816zm0-.816h2.04a1.633 1.633 0 0 1 1.633 1.633v2.041a1.633 1.633 0 0 1-1.633 1.633h-2.04A1.633 1.633 0 0 1 8 19.02v-2.04a1.633 1.633 0 0 1 1.633-1.633zm7.347.816a.816.816 0 0 0-.816.816v2.041a.816.816 0 0 0 .816.816h9.387a.816.816 0 0 0 .816-.816v-2.04a.816.816 0 0 0-.816-.816zm0-.816h9.387A1.633 1.633 0 0 1 28 16.98v2.041a1.633 1.633 0 0 1-1.633 1.633H16.98a1.633 1.633 0 0 1-1.633-1.634v-2.04a1.633 1.633 0 0 1 1.633-1.633zM9.633 23.51a.816.816 0 0 0-.816.816v2.041a.816.816 0 0 0 .816.816h2.04a.816.816 0 0 0 .816-.816v-2.04a.816.816 0 0 0-.816-.816zm0-.816h2.04a1.633 1.633 0 0 1 1.633 1.633v2.041a1.633 1.633 0 0 1-1.633 1.633h-2.04A1.633 1.633 0 0 1 8 26.367v-2.04a1.633 1.633 0 0 1 1.633-1.633zm7.347.816a.816.816 0 0 0-.816.816v2.041a.816.816 0 0 0 .816.816h9.387a.816.816 0 0 0 .816-.816v-2.04a.816.816 0 0 0-.816-.816zm0-.816h9.387A1.633 1.633 0 0 1 28 24.327v2.041a1.633 1.633 0 0 1-1.633 1.633H16.98a1.633 1.633 0 0 1-1.633-1.634v-2.04a1.633 1.633 0 0 1 1.633-1.633z"
      fill="#fff" stroke="#fff" stroke-linecap="round" stroke-width=".5"></path>
  </symbol>
  <symbol xmlns="http://www.w3.org/2000/svg" viewBox="0 0 36 36" id="list-view-dark">
    <path fill="rgba(255,255,255,0)" d="M0 0h36v36H0z"></path>
    <path d="M9.633 8.816a.816.816 0 0 0-.816.816v2.041a.816.816 0 0 0 .816.816h2.04a.816.816 0 0 0 .816-.816v-2.04a.816.816 0 0 0-.816-.816zm0-.816h2.04a1.633 1.633 0 0 1 1.633 1.633v2.04a1.633 1.633 0 0 1-1.633 1.633h-2.04A1.633 1.633 0 0 1 8 11.673v-2.04A1.633 1.633 0 0 1 9.633 8zm7.347.816a.816.816 0 0 0-.816.816v2.041a.816.816 0 0 0 .816.816h9.387a.816.816 0 0 0 .816-.816v-2.04a.816.816 0 0 0-.816-.816zm0-.816h9.387A1.633 1.633 0 0 1 28 9.633v2.04a1.633 1.633 0 0 1-1.633 1.633H16.98a1.633 1.633 0 0 1-1.633-1.633v-2.04A1.633 1.633 0 0 1 16.98 8zm-7.347 8.163a.816.816 0 0 0-.816.816v2.041a.816.816 0 0 0 .816.816h2.04a.816.816 0 0 0 .816-.816v-2.04a.816.816 0 0 0-.816-.816zm0-.816h2.04a1.633 1.633 0 0 1 1.633 1.633v2.041a1.633 1.633 0 0 1-1.633 1.633h-2.04A1.633 1.633 0 0 1 8 19.02v-2.04a1.633 1.633 0 0 1 1.633-1.633zm7.347.816a.816.816 0 0 0-.816.816v2.041a.816.816 0 0 0 .816.816h9.387a.816.816 0 0 0 .816-.816v-2.04a.816.816 0 0 0-.816-.816zm0-.816h9.387A1.633 1.633 0 0 1 28 16.98v2.041a1.633 1.633 0 0 1-1.633 1.633H16.98a1.633 1.633 0 0 1-1.633-1.634v-2.04a1.633 1.633 0 0 1 1.633-1.633zM9.633 23.51a.816.816 0 0 0-.816.816v2.041a.816.816 0 0 0 .816.816h2.04a.816.816 0 0 0 .816-.816v-2.04a.816.816 0 0 0-.816-.816zm0-.816h2.04a1.633 1.633 0 0 1 1.633 1.633v2.041a1.633 1.633 0 0 1-1.633 1.633h-2.04A1.633 1.633 0 0 1 8 26.367v-2.04a1.633 1.633 0 0 1 1.633-1.633zm7.347.816a.816.816 0 0 0-.816.816v2.041a.816.816 0 0 0 .816.816h9.387a.816.816 0 0 0 .816-.816v-2.04a.816.816 0 0 0-.816-.816zm0-.816h9.387A1.633 1.633 0 0 1 28 24.327v2.041a1.633 1.633 0 0 1-1.633 1.633H16.98a1.633 1.633 0 0 1-1.633-1.634v-2.04a1.633 1.633 0 0 1 1.633-1.633z"
      fill="#5b607e" stroke="#5b607e" stroke-linecap="round" stroke-width=".5"></path>
  </symbol>
  <symbol xmlns="http://www.w3.org/2000/svg" viewBox="0 0 24 24" id="lock">
    <path fill="rgba(255,255,255,0)" d="M0 0h24v24H0z"></path>
    <g opacity=".7" fill="#171e48">
      <path d="M15.972 10.685h-.178V8.669a3.857 3.857 0 0 0-3.983-3.716h-.048A3.866 3.866 0 0 0 7.77 8.669a.583.583 0 0 0 1.164 0 2.73 2.73 0 0 1 2.832-2.609h.048a2.719 2.719 0 0 1 2.818 2.609v2.016H7.6A1.579 1.579 0 0 0 6 12.232v6.237A1.568 1.568 0 0 0 7.6 20h8.369a1.568 1.568 0 0 0 1.6-1.531v-6.237a1.579 1.579 0 0 0-1.597-1.547zm.438 7.784a.434.434 0 0 1-.445.423H7.609a.434.434 0 0 1-.445-.423v-6.253a.434.434 0 0 1 .445-.423h8.355a.434.434 0 0 1 .445.423z"></path>
      <path d="M11.787 14.547a.582.582 0 0 0-.582.582v1.151a.582.582 0 0 0 1.164 0v-1.151a.582.582 0 0 0-.582-.582z"></path>
      <path d="M7.6 10.685h.178V8.669a3.857 3.857 0 0 1 3.985-3.716h.048A3.866 3.866 0 0 1 15.8 8.669a.583.583 0 0 1-1.164 0 2.73 2.73 0 0 0-2.832-2.609h-.044a2.719 2.719 0 0 0-2.818 2.609v2.016h7.03a1.579 1.579 0 0 1 1.6 1.547v6.237a1.568 1.568 0 0 1-1.6 1.531H7.6A1.568 1.568 0 0 1 6 18.469v-6.237a1.579 1.579 0 0 1 1.6-1.547zm-.438 7.784a.434.434 0 0 0 .445.423h8.355a.434.434 0 0 0 .445-.423v-6.253a.434.434 0 0 0-.445-.423H7.609a.434.434 0 0 0-.445.423z"></path>
    </g>
  </symbol>
  <symbol xmlns="http://www.w3.org/2000/svg" viewBox="0 0 24 24" id="lock-grey">
    <path fill="rgba(255,255,255,0)" d="M0 0h24v24H0z"></path>
    <g fill="#5b607e">
      <path d="M17.785 9.619h-.246v-2.68A5.247 5.247 0 0 0 12.033 2h-.066c-3.044 0-5.52 2.216-5.52 4.939a.808.808 0 0 0 1.609 0 3.715 3.715 0 0 1 3.915-3.468h.066a3.7 3.7 0 0 1 3.9 3.468v2.68H6.215A2.145 2.145 0 0 0 4 11.675v8.29A2.131 2.131 0 0 0 6.215 22h11.569A2.131 2.131 0 0 0 20 19.965v-8.29a2.145 2.145 0 0 0-2.215-2.056zm.606 10.346a.59.59 0 0 1-.615.563H6.225a.59.59 0 0 1-.615-.563v-8.311a.59.59 0 0 1 .615-.563h11.55a.59.59 0 0 1 .615.563z"></path>
      <path d="M11.995 14.752a.789.789 0 0 0-.8.774v1.526a.805.805 0 0 0 1.609 0v-1.529a.789.789 0 0 0-.809-.771z"></path>
      <path d="M6.215 9.619h.246v-2.68A5.247 5.247 0 0 1 11.967 2h.066c3.044 0 5.52 2.216 5.52 4.939a.808.808 0 0 1-1.609 0 3.715 3.715 0 0 0-3.915-3.468h-.066a3.7 3.7 0 0 0-3.9 3.468v2.68h9.718A2.145 2.145 0 0 1 20 11.675v8.29A2.131 2.131 0 0 1 17.785 22H6.215A2.131 2.131 0 0 1 4 19.965v-8.29a2.145 2.145 0 0 1 2.215-2.056zm-.606 10.346a.59.59 0 0 0 .615.563h11.55a.59.59 0 0 0 .615-.563v-8.311a.59.59 0 0 0-.615-.563H6.225a.59.59 0 0 0-.615.563z"></path>
    </g>
  </symbol>
  <symbol xmlns="http://www.w3.org/2000/svg" viewBox="0 0 36 36" id="new-file">
    <path fill="rgba(255,255,255,0)" d="M0 0h36v36H0z"></path>
    <path d="M27 12.829a2.285 2.285 0 0 1 .33.44h-5.754V7.477a2.285 2.285 0 0 1 .44.33z" fill="#8e97ba"></path>
    <path d="M21.172 14.846h6.673v12.979A1.13 1.13 0 0 1 26.672 29h-16.5A1.13 1.13 0 0 1 9 27.825V8.173A1.13 1.13 0 0 1 10.173 7H20v6.673a1.13 1.13 0 0 0 1.173 1.173zm1.98 9.056v-.77a.379.379 0 0 0-.4-.4H14.1a.379.379 0 0 0-.4.4v.77a.379.379 0 0 0 .4.4h8.653a.416.416 0 0 0 .293-.11.488.488 0 0 0 .106-.292zm0-3.153v-.77a.379.379 0 0 0-.4-.4H14.1a.379.379 0 0 0-.4.4v.77a.379.379 0 0 0 .4.4h8.653a.379.379 0 0 0 .4-.4zm0-3.153v-.77a.379.379 0 0 0-.4-.4H14.1a.379.379 0 0 0-.4.4v.77a.379.379 0 0 0 .4.4h8.653a.379.379 0 0 0 .4-.4z"
      fill="#a0a9cb"></path>
  </symbol>
  <symbol xmlns="http://www.w3.org/2000/svg" viewBox="0 0 36 36" id="new-folder">
    <path fill="rgba(255,255,255,0)" d="M0 0h36v36H0z"></path>
    <path d="M26 12.791h-9L15 10h-5c-1.1 0-2 1.252-2 2.791v5.582h20v-2.79c-.003-1.54-.896-2.787-2-2.792z" fill="#8e97ba"></path>
    <path d="M26 12.791H10a1.952 1.952 0 0 0-2 1.887v9.435A1.952 1.952 0 0 0 10 26h16a1.952 1.952 0 0 0 2-1.887v-9.435a1.952 1.952 0 0 0-2-1.887z" fill="#b6bdd9"></path>
  </symbol>
  <symbol xmlns="http://www.w3.org/2000/svg" viewBox="0 0 30 30" id="pin">
    <g transform="translate(-210 -534)">
      <rect width="30" height="30" rx="15" transform="translate(210 534)" fill="rgba(231,234,244,0)"></rect>
      <path d="M227.756 539.374l.359-.374.382.365 5.281 5.281.346.362-.349.365a3.841 3.841 0 0 1-3.193 1.037l-.172.058-2.593 2.591.029.112a5.385 5.385 0 0 1-1.406 5.132l-.358.358-.34-.355-2.974-2.975-.145-.145-5.922 5.939h-.7v-.7l5.943-5.917-3.184-3.181-.359-.343.359-.358a5.4 5.4 0 0 1 4.774-1.462l.106.02 2.94-2.937.06-.133a4.542 4.542 0 0 1 1.116-2.74zm-.181 3.386v-.085l.06-.06zm0-.294v.209l-3.6 3.6-.259-.076a4.419 4.419 0 0 0-3.593.758l-.19.141 6.107 6.1.14-.193a4.408 4.408 0 0 0 .623-3.969l-.094-.3.221-.221 2.95-2.945.2-.2.282.078a2.721 2.721 0 0 0 2.018-.4l.208-.138-4.369-4.366-.135.223a3.566 3.566 0 0 0-.506 1.7zm-3.685 3.891l.086-.086.116.034z"
        fill="#171e48" stroke="#171e48" stroke-linecap="round" stroke-linejoin="round" stroke-width=".4"></path>
    </g>
  </symbol>
  <symbol xmlns="http://www.w3.org/2000/svg" viewBox="0 0 30 30" id="pinned">
    <g transform="translate(-210 -534)">
      <rect width="30" height="30" rx="15" transform="translate(210 534)" fill="#2585d3"></rect>
      <g fill="#fff">
        <path d="M227.678 540.372l.356-.371.379.362 5.247 5.245.344.359-.347.362a3.815 3.815 0 0 1-3.171 1.03l-.171.057-2.575 2.573.028.112a5.348 5.348 0 0 1-1.4 5.1l-.356.356-.338-.353-2.953-2.954-.144-.144-5.88 5.9h-.7v-.7l5.9-5.875-3.162-3.159-.356-.341.356-.356a5.36 5.36 0 0 1 4.743-1.455l.1.019 2.919-2.917.059-.132a4.51 4.51 0 0 1 1.122-2.718zm-.179 3.363v-.089l.059-.059zm0-.292v.203l-3.574 3.571-.257-.075a4.388 4.388 0 0 0-3.568.753l-.189.14 6.065 6.056.139-.192a4.377 4.377 0 0 0 .619-3.941l-.094-.3.219-.219 2.93-2.925.2-.2.28.078a2.7 2.7 0 0 0 2-.4l.207-.137-4.339-4.335-.134.221a3.541 3.541 0 0 0-.508 1.705zm-3.66 3.864l.085-.085.116.034z"
          stroke="#fff" stroke-linecap="round" stroke-linejoin="round" stroke-width=".4"></path>
        <path d="M227.39 543.713l.06-.06zm0-.211v.211l-3.632 3.632-.261-.077a4.455 4.455 0 0 0-3.625.765l-.192.142 6.162 6.159.142-.2a4.454 4.454 0 0 0 .629-4.007l-.1-.3.223-.223 2.977-2.974.2-.2.285.079a2.744 2.744 0 0 0 2.036-.4l.21-.139-4.408-4.408-.136.225a3.6 3.6 0 0 0-.51 1.713zm-3.718 3.929l.086-.086.117.035z"
          opacity=".1"></path>
      </g>
    </g>
  </symbol>
  <symbol xmlns="http://www.w3.org/2000/svg" viewBox="0 0 24 24" id="read">
    <g fill="#2585d3">
      <path d="M12 0a12 12 0 1 0 12 12A12.014 12.014 0 0 0 12 0zm0 22.066A10.066 10.066 0 1 1 22.066 12 10.077 10.077 0 0 1 12 22.066z"></path>
      <path d="M16.342 8.276l-5.626 5.452-2.057-1.995a.992.992 0 0 0-1.373 0 .92.92 0 0 0 0 1.331l2.745 2.661a.992.992 0 0 0 1.373 0l6.313-6.117a.921.921 0 0 0 0-1.331.994.994 0 0 0-1.375-.001z"></path>
    </g>
  </symbol>
  <symbol xmlns="http://www.w3.org/2000/svg" viewBox="0 0 24 24" id="recent">
    <path fill="rgba(255,255,255,0)" d="M0 0h24v24H0z"></path>
    <path d="M12.563 4.001a7.443 7.443 0 0 0-6.9 4.7l-.439-.793a.643.643 0 0 0-1.138-.014.674.674 0 0 0 0 .655l1.189 2.172a.642.642 0 0 0 .865.262l2.114-1.1a.668.668 0 0 0 .076-1.161.638.638 0 0 0-.663-.018l-.777.407a6.194 6.194 0 1 1-.3 3.812.649.649 0 0 0-.784-.489.664.664 0 0 0-.48.8 7.447 7.447 0 1 0 7.241-9.23zm.081 3.295a.643.643 0 0 0-.459.2.67.67 0 0 0-.183.474v3.529a.667.667 0 0 0 .243.517l2.161 1.765a.64.64 0 0 0 .912-.1.671.671 0 0 0-.1-.931L13.3 11.185V7.973a.669.669 0 0 0-.187-.479.642.642 0 0 0-.469-.198z"
      fill="#747891"></path>
  </symbol>
  <symbol xmlns="http://www.w3.org/2000/svg" viewBox="0 0 24 24" id="recent-active">
    <path fill="rgba(255,255,255,0)" d="M0 0h24v24H0z"></path>
    <path d="M12.563 4.001a7.443 7.443 0 0 0-6.9 4.7l-.439-.793a.643.643 0 0 0-1.138-.014.674.674 0 0 0 0 .655l1.189 2.172a.642.642 0 0 0 .865.262l2.114-1.1a.668.668 0 0 0 .076-1.161.638.638 0 0 0-.663-.018l-.777.407a6.194 6.194 0 1 1-.3 3.812.649.649 0 0 0-.784-.489.664.664 0 0 0-.48.8 7.447 7.447 0 1 0 7.241-9.23zm.081 3.295a.643.643 0 0 0-.459.2.67.67 0 0 0-.183.474v3.529a.667.667 0 0 0 .243.517l2.161 1.765a.64.64 0 0 0 .912-.1.671.671 0 0 0-.1-.931L13.3 11.185V7.973a.669.669 0 0 0-.187-.479.642.642 0 0 0-.469-.198z"
      fill="#2585d3"></path>
  </symbol>
  <symbol xmlns="http://www.w3.org/2000/svg" viewBox="0 0 18 18" id="Rectangle 865">
    <path fill="rgba(255,255,255,0)" d="M0 0h18v18H0z"></path>
  </symbol>
  <symbol xmlns="http://www.w3.org/2000/svg" viewBox="0 0 7.496 7.5" id="remove">
    <path d="M3.748 3.754l-3 3 3-3-3-3 3 3 3-3-3 3 3 3z" fill="#545b7e" stroke="#545b7e" stroke-linecap="round" stroke-linejoin="round" stroke-width="1.5"></path>
  </symbol>
  <symbol xmlns="http://www.w3.org/2000/svg" viewBox="0 0 17 17" id="remove-user-blue-bg">
    <g transform="translate(-807 -329)" stroke="#fff">
      <circle cx="8" cy="8" r="8" transform="translate(807.5 329.5)" fill="#2585d3"></circle>
      <path d="M815.698 337.704l-2.2 2.2 2.2-2.2-2.2-2.2 2.2 2.2 2.2-2.2-2.2 2.2 2.2 2.2z" fill="none" stroke-linecap="round" stroke-linejoin="round" stroke-width="2"></path>
    </g>
  </symbol>
  <symbol xmlns="http://www.w3.org/2000/svg" viewBox="0 0 24 24" id="rename">
    <path fill="rgba(255,255,255,0)" d="M0 0h24v24H0z"></path>
    <path d="M20.407 6.698a2.025 2.025 0 0 1 .521 1.984l-.007.023-.007.023-.007.023-.008.023-.008.023-.008.023-.009.023-.009.023-.009.023-.009.023-.009.022-.01.022-.01.023-.011.022-.011.022-.011.022-.011.022-.012.022-.012.022-.012.022-.013.022-.013.022-.013.021-.014.021-.014.021-.014.021-.014.021-.015.021-.015.02-.015.02-.016.02-.016.02-.016.02-.016.02-.017.019-.017.019-.017.019-.017.019-.018.019-.018.019-.019.019L9.913 20.027 3 20.998l.9-6.923L14.419 3.589a2.041 2.041 0 0 1 2.871 0l3.117 3.1zm-4.379 4.386l-3.136-3.129-7.087 7.067-.477 3.624 3.627-.511 7.073-7.051zm-1.713-4.55l3.137 3.129 1.527-1.523a.021.021 0 0 0 0-.023l-3.112-3.106a.016.016 0 0 0-.023 0l-1.527 1.523z"
      fill="#5b607e" stroke="#fff" stroke-linecap="round" stroke-linejoin="round" stroke-width=".5"></path>
  </symbol>
  <symbol xmlns="http://www.w3.org/2000/svg" viewBox="0 0 24 24" id="reset-password">
    <path fill="rgba(255,255,255,0)" d="M0 0h24v24H0z"></path>
    <path d="M11.248 23.001a9.846 9.846 0 0 1-7.2-3.176A11.344 11.344 0 0 1 1 12.065a11.345 11.345 0 0 1 2.962-7.8 9.852 9.852 0 0 1 7.23-3.264h.058a10.431 10.431 0 0 1 9.921 8.23L23 9.218l-2.269 4.276-2.317-4.247 2.03-.011a9.7 9.7 0 0 0-9.192-7.481H11.2a9.173 9.173 0 0 0-6.74 3.046 10.571 10.571 0 0 0-2.76 7.26 10.543 10.543 0 0 0 2.835 7.226 9.157 9.157 0 0 0 6.71 2.96h.055a9.408 9.408 0 0 0 7.725-4.3l.572.438a10.1 10.1 0 0 1-8.288 4.616zm-3.142-6.6a.494.494 0 0 1-.478-.5L7.6 10.923a.494.494 0 0 1 .473-.509l.635-.005L8.7 9.217a2.7 2.7 0 0 1 2.6-2.777 2.7 2.7 0 0 1 2.626 2.746l.006 1.193.636-.005a.5.5 0 0 1 .48.5l.027 4.976a.515.515 0 0 1-.138.357.451.451 0 0 1-.337.151l-6.492.043zm.156-5.288l.027 4.588 6.119-.038-.025-4.583zm1.1-1.9l.01 1.188 3.894-.024-.006-1.193a2.009 2.009 0 0 0-1.947-2.048 2.012 2.012 0 0 0-1.947 2.076z"
      fill="#5b607e" stroke="#5b607e" stroke-linecap="round" stroke-linejoin="round" stroke-width=".5"></path>
  </symbol>
  <symbol xmlns="http://www.w3.org/2000/svg" viewBox="0 0 18 18" id="right-arrow">
    <path fill="rgba(255,255,255,0)" d="M0 0h18v18H0z"></path>
    <path d="M6 2.999l6 6-6 6" fill="none" stroke="#5b607f" stroke-linecap="round" stroke-linejoin="round" stroke-width="1.5"></path>
  </symbol>
  <symbol xmlns="http://www.w3.org/2000/svg" viewBox="0 0 24 24" id="share">
    <path fill="rgba(255,255,255,0)" d="M0 0h24v24H0z"></path>
    <path d="M15.944 14.119a3.049 3.049 0 0 0-2.352 1.11L9.944 13.15a3.067 3.067 0 0 0 0-2.048l3.651-2.079a3.067 3.067 0 1 0-.529-.932L9.41 10.17a3.066 3.066 0 1 0 0 3.912l3.651 2.079a3.056 3.056 0 1 0 2.883-2.042zm0-9.045a1.993 1.993 0 1 1-1.988 1.993 1.992 1.992 0 0 1 1.988-1.993zm-8.885 9.045a1.993 1.993 0 1 1 1.985-1.993 1.993 1.993 0 0 1-1.986 1.993zm8.885 5.059a1.993 1.993 0 1 1 1.987-1.993 1.993 1.993 0 0 1-1.987 1.993z"
      fill="#2585d3"></path>
  </symbol>
  <symbol xmlns="http://www.w3.org/2000/svg" viewBox="0 0 100 100" id="share-100px">
    <path d="M50 0A50 50 0 1 1 0 50 50 50 0 0 1 50 0z" fill="#eaefff"></path>
    <path d="M59.255 54.906a7.814 7.814 0 0 0-5.959 2.732l-9.252-5.117a7.348 7.348 0 0 0 0-5.041l9.25-5.118a7.813 7.813 0 0 0 5.96 2.733 7.657 7.657 0 0 0 7.745-7.549 7.748 7.748 0 0 0-15.49 0 7.337 7.337 0 0 0 .446 2.521l-9.25 5.118a7.813 7.813 0 0 0-5.961-2.731A7.657 7.657 0 0 0 29 50a7.657 7.657 0 0 0 7.744 7.547 7.813 7.813 0 0 0 5.958-2.731l9.25 5.117a7.338 7.338 0 0 0-.446 2.521 7.748 7.748 0 1 0 7.746-7.548zm0-22.265a4.977 4.977 0 0 1 5.034 4.905 5.037 5.037 0 0 1-10.07 0 4.977 4.977 0 0 1 5.036-4.905zM36.744 54.906A4.907 4.907 0 1 1 41.781 50a4.978 4.978 0 0 1-5.037 4.906zM59.255 67.36a4.908 4.908 0 1 1 5.034-4.905 4.977 4.977 0 0 1-5.034 4.905z"
      fill="#2585d3"></path>
  </symbol>
  <symbol xmlns="http://www.w3.org/2000/svg" viewBox="0 0 24 24" id="share-grey">
    <path fill="rgba(255,255,255,0)" d="M0 0h24v24H0z"></path>
    <path d="M17.331 14.454a3.624 3.624 0 0 0-2.823 1.366l-4.382-2.559a3.866 3.866 0 0 0 0-2.52l4.381-2.559a3.624 3.624 0 0 0 2.823 1.366 3.727 3.727 0 0 0 3.669-3.774 3.67 3.67 0 1 0-7.337 0 3.852 3.852 0 0 0 .211 1.26L9.492 9.593A3.624 3.624 0 0 0 6.67 8.227a3.775 3.775 0 0 0 0 7.547 3.624 3.624 0 0 0 2.822-1.366l4.382 2.559a3.852 3.852 0 0 0-.211 1.261 3.67 3.67 0 1 0 3.669-3.774zm0-11.133a2.422 2.422 0 0 1 2.385 2.453 2.386 2.386 0 1 1-4.77 0 2.422 2.422 0 0 1 2.385-2.454zM6.67 14.454A2.454 2.454 0 1 1 9.054 12a2.423 2.423 0 0 1-2.384 2.454zm10.662 6.227a2.454 2.454 0 1 1 2.385-2.453 2.423 2.423 0 0 1-2.386 2.453z"
      fill="#5b607e"></path>
  </symbol>
  <symbol xmlns="http://www.w3.org/2000/svg" viewBox="0 0 18 18" id="sharing">
    <path fill="rgba(255,255,255,0)" d="M0 0h18v18H0z"></path>
    <path d="M12.554 10.594a2.439 2.439 0 0 0-1.882.888L7.751 9.819a2.454 2.454 0 0 0 0-1.638l2.921-1.663a2.454 2.454 0 1 0-.423-.746L7.328 7.435a2.453 2.453 0 1 0 0 3.13l2.916 1.663a2.445 2.445 0 1 0 2.31-1.634zm0-7.236a1.595 1.595 0 1 1-1.59 1.594 1.594 1.594 0 0 1 1.59-1.594zm-7.11 7.236A1.594 1.594 0 1 1 7.036 9a1.594 1.594 0 0 1-1.592 1.594zm7.108 4.047a1.595 1.595 0 1 1 1.59-1.594 1.594 1.594 0 0 1-1.588 1.595z"
      fill="#747891"></path>
  </symbol>
  <symbol xmlns="http://www.w3.org/2000/svg" viewBox="0 0 18 18" id="sort">
    <path fill="rgba(255,255,255,0)" d="M0 0h18v18H0z"></path>
    <path d="M5.94 10.77l2.6 2.491a.659.659 0 0 0 .915 0l2.605-2.491.94.9-3.084 2.959a1.319 1.319 0 0 1-1.831 0L5 11.67zm6.12-2.54l-2.6-2.491a.659.659 0 0 0-.915 0L5.94 8.23 5 7.329 8.084 4.37a1.319 1.319 0 0 1 1.831 0L13 7.329z" opacity=".7" fill="#585e7d"></path>
  </symbol>
  <symbol xmlns="http://www.w3.org/2000/svg" viewBox="0 0 100 100" id="sub-folder-100px">
    <path d="M50 0A50 50 0 1 1 0 50 50 50 0 0 1 50 0z" fill="#eaefff"></path>
    <path d="M70 36.28H47.5l-5-6.28H30c-2.758.01-4.991 2.816-5 6.28v12.56h50v-6.278c-.007-3.465-2.24-6.272-5-6.282z" fill="#8e97ba"></path>
    <path d="M69.999 35.999h-40a4.926 4.926 0 0 0-5 4.817v24.087a4.926 4.926 0 0 0 5 4.817h40a4.926 4.926 0 0 0 5-4.817V40.817a4.926 4.926 0 0 0-5-4.818z" fill="#b6bdd9"></path>
    <g transform="translate(42 45)">
      <circle cx="8" cy="8" r="8" fill="#fff"></circle>
      <path d="M11.333 7.332H8.667V4.666a.667.667 0 1 0-1.333 0v2.667H4.667a.667.667 0 1 0 0 1.333h2.667v2.667a.667.667 0 1 0 1.333 0V8.666h2.667a.667.667 0 0 0 0-1.333z" fill="#b6bdd9"></path>
    </g>
  </symbol>
  <symbol xmlns="http://www.w3.org/2000/svg" viewBox="0 0 34 30" id="tags">
    <g fill="#f4f7fc" stroke="rgba(23,30,72,0.1)" stroke-linecap="round" stroke-linejoin="round">
      <path d="M1.071 0H19a15 15 0 0 1 15 15 15 15 0 0 1-15 15H1.071A1.071 1.071 0 0 1 0 28.929V1.071A1.071 1.071 0 0 1 1.071 0z" stroke="none"></path>
      <path d="M1.291.5H19A14.5 14.5 0 0 1 33.5 15 14.5 14.5 0 0 1 19 29.5H1.291a.791.791 0 0 1-.791-.791V1.291A.791.791 0 0 1 1.291.5z" fill="none"></path>
    </g>
    <path d="M13.451 21.56l-4.016-4.015a1.51 1.51 0 0 1 0-2.118l5.934-5.984A1.5 1.5 0 0 1 16.434 9H20.5a1.507 1.507 0 0 1 1.5 1.5v4.062a1.5 1.5 0 0 1-.443 1.065l-5.989 5.937a1.508 1.508 0 0 1-2.117 0zm2.627-11.412l-5.937 5.985a.49.49 0 0 0 0 .7l4.015 4.016a.493.493 0 0 0 .706 0l5.984-5.937a.5.5 0 0 0 .154-.35V10.5a.493.493 0 0 0-.5-.5h-4.066a.5.5 0 0 0-.356.148zm1.535 2.352a.883.883 0 1 1 .883.884.883.883 0 0 1-.883-.884z"
      fill="#6e748f"></path>
  </symbol>
  <symbol xmlns="http://www.w3.org/2000/svg" viewBox="0 0 24 24" id="tick-blue">
    <path fill="rgba(255,255,255,0)" d="M0 0h24v24H0z"></path>
    <g stroke="#fff">
      <g transform="translate(5 5)" fill="#2585d3" stroke-width="2">
        <rect width="14" height="14" rx="7" stroke="none"></rect>
        <rect x="-1" y="-1" width="16" height="16" rx="8" fill="none"></rect>
      </g>
      <path d="M8.501 11.567l2.218 2.335 4.182-4.4" fill="none" stroke-linecap="round" stroke-linejoin="round" stroke-width="1.5"></path>
    </g>
  </symbol>
  <symbol xmlns="http://www.w3.org/2000/svg" viewBox="0 0 24 24" id="tick-blue-bg">
    <path fill="rgba(255,255,255,0)" d="M0 0h24v24H0z"></path>
    <g stroke="#fff">
      <g transform="translate(5 4.999)" fill="#2585d3" stroke-width="2">
        <rect width="14" height="14" rx="7" stroke="none"></rect>
        <rect x="-1" y="-1" width="16" height="16" rx="8" fill="none"></rect>
      </g>
      <path d="M8.501 11.566l2.218 2.335 4.182-4.4" fill="none" stroke-linecap="round" stroke-linejoin="round" stroke-width="1.5"></path>
    </g>
  </symbol>
  <symbol xmlns="http://www.w3.org/2000/svg" viewBox="0 0 18 18" id="tick-save">
    <path fill="rgba(255,255,255,0)" d="M0 0h18v18H0z"></path>
    <path d="M13.54 4.345L6.891 11.16 4.458 8.667a1.127 1.127 0 0 0-1.623 0 1.2 1.2 0 0 0 0 1.663l3.245 3.326a1.127 1.127 0 0 0 1.623 0l7.46-7.647a1.2 1.2 0 0 0 0-1.664 1.129 1.129 0 0 0-1.623 0z" fill="#2585d3"></path>
  </symbol>
  <symbol xmlns="http://www.w3.org/2000/svg" viewBox="0 0 61.998 43.004" id="tooltip">
    <defs>
      <filter id="a" x="0" y="0" width="61.998" height="43.004" filterUnits="userSpaceOnUse">
        <feOffset dy="3"></feOffset>
        <feGaussianBlur stdDeviation="3" result="blur"></feGaussianBlur>
        <feFlood flood-color="#171e48" flood-opacity=".102"></feFlood>
        <feComposite operator="in" in2="blur"></feComposite>
        <feComposite in="SourceGraphic"></feComposite>
      </filter>
    </defs>
    <path d="M8727.234 18054.65l-2.568-3.031H8710a4 4 0 0 1-4-4V18034a4 4 0 0 1 4-4h36a4 4 0 0 1 4 4v13.617a4 4 0 0 1-4 4h-14.67l-2.568 3.031a1 1 0 0 1-.762.354 1.008 1.008 0 0 1-.766-.352z" transform="translate(-8697.002 -18024)" fill="#171e48" filter="url(#a)"></path>
  </symbol>
  <symbol xmlns="http://www.w3.org/2000/svg" viewBox="0 0 24 24" id="unlock">
    <path fill="rgba(255,255,255,0)" d="M0 0h24v24H0z"></path>
    <g fill="#5b607e">
      <path d="M17.785 9.619h-.246v-2.68A5.247 5.247 0 0 0 12.033 2h-.066c-3.044 0-5.52 2.216-5.52 4.939a.808.808 0 0 0 1.609 0 3.715 3.715 0 0 1 3.915-3.468h.066a3.7 3.7 0 0 1 3.9 3.468v2.68H6.215A2.145 2.145 0 0 0 4 11.675v8.29A2.131 2.131 0 0 0 6.215 22h11.569A2.131 2.131 0 0 0 20 19.965v-8.29a2.145 2.145 0 0 0-2.215-2.056zm.606 10.346a.59.59 0 0 1-.615.563H6.225a.59.59 0 0 1-.615-.563v-8.311a.59.59 0 0 1 .615-.563h11.55a.59.59 0 0 1 .615.563z"></path>
      <path d="M11.995 14.752a.789.789 0 0 0-.8.774v1.526a.805.805 0 0 0 1.609 0v-1.529a.789.789 0 0 0-.809-.771z"></path>
    </g>
  </symbol>
  <symbol xmlns="http://www.w3.org/2000/svg" viewBox="0 0 36 36" id="upload-files-drag-drop">
    <path fill="rgba(255,255,255,0)" d="M0 0h36v36H0z"></path>
    <g fill="#747891">
      <path d="M26.772 11.948a8.375 8.375 0 0 0-2.528-4.764 7.938 7.938 0 0 0-9.869-.852 8.207 8.207 0 0 0-2.631 2.846 4.524 4.524 0 0 0-.852-.083 4.508 4.508 0 0 0-4.439 4.563 5.121 5.121 0 0 0 .092.942A6.406 6.406 0 0 0 4 19.724a6.9 6.9 0 0 0 1.676 4.492 5.924 5.924 0 0 0 4.146 2.142h5a.8.8 0 0 0 0-1.6H9.89a4.991 4.991 0 0 1-4.336-5.042 4.769 4.769 0 0 1 2.286-4.082.816.816 0 0 0 .34-.971 2.971 2.971 0 0 1-.173-1.018 2.931 2.931 0 0 1 2.885-2.965 2.767 2.767 0 0 1 .985.178.773.773 0 0 0 .973-.408 6.516 6.516 0 0 1 12.45 2.22.789.789 0 0 0 .645.71 5.785 5.785 0 0 1-.53 11.374h-4.24a.8.8 0 0 0 0 1.6h4.33a6.821 6.821 0 0 0 4.618-2.343A7.485 7.485 0 0 0 32 19.037a7.347 7.347 0 0 0-5.228-7.089z"></path>
      <path d="M22.247 21.154a.705.705 0 0 0 0-1L18.5 16.407a.716.716 0 0 0-.5-.21.694.694 0 0 0-.5.21l-3.746 3.747a.71.71 0 0 0 .5 1.21.69.69 0 0 0 .5-.21l2.541-2.541v11.684a.708.708 0 0 0 1.415 0v-11.68l2.541 2.541a.7.7 0 0 0 .996-.004z"></path>
    </g>
  </symbol>
  <symbol xmlns="http://www.w3.org/2000/svg" viewBox="0 0 36 36" id="upload-files-menu">
    <path fill="rgba(255,255,255,0)" d="M0 0h36v36H0z"></path>
    <path d="M15.795 23.595l-6.894-.424s-4.926-4.891.714-8c-1.365-4.846 3.345-3.989 3.345-3.989s2.293-3.82 5.595-3.695c3.655-.581 6.64 5.389 6.64 5.389s4.169 2.658 4.283 5.854c.055 1.427-1.813 2.97-2.609 3.939-2.952 1.631-11.074.926-11.074.926z"
      fill="#e5e7f1"></path>
    <g fill="#8e97ba">
      <path d="M25.519 12.646a6.7 6.7 0 0 0-2.167-3.872 7.093 7.093 0 0 0-8.459-.693 6.822 6.822 0 0 0-2.255 2.319 4.083 4.083 0 0 0-.73-.067A3.763 3.763 0 0 0 8.1 14.036a3.954 3.954 0 0 0 .079.77A5.12 5.12 0 0 0 6 18.966a5.437 5.437 0 0 0 1.436 3.65 5.174 5.174 0 0 0 3.554 1.741h4.283a.65.65 0 1 0 0-1.3h-4.224a4.135 4.135 0 0 1-3.716-4.1 3.837 3.837 0 0 1 1.959-3.319.647.647 0 0 0 .291-.789 2.3 2.3 0 0 1-.148-.827 2.446 2.446 0 0 1 2.473-2.41 2.487 2.487 0 0 1 .844.144.676.676 0 0 0 .834-.332 5.651 5.651 0 0 1 5.083-3.141 5.537 5.537 0 0 1 5.592 4.944.656.656 0 0 0 .553.577 4.664 4.664 0 0 1-.454 9.244h-3.638a.65.65 0 1 0 0 1.3h3.711a5.952 5.952 0 0 0 1.086-11.706z"></path>
      <path d="M22.247 19.154a.705.705 0 0 0 0-1L18.5 14.407a.716.716 0 0 0-.5-.21.694.694 0 0 0-.5.21l-3.746 3.747a.71.71 0 0 0 .5 1.21.69.69 0 0 0 .5-.21l2.541-2.541v11.684a.708.708 0 0 0 1.415 0v-11.68l2.541 2.541a.7.7 0 0 0 .996-.004z"></path>
    </g>
  </symbol>
  <symbol xmlns="http://www.w3.org/2000/svg" viewBox="0 0 24 24" id="upload-new-versions">
    <path fill="rgba(255,255,255,0)" d="M0 0h24v24H0z"></path>
    <path d="M12.719 21.927l9.607-7.176a.405.405 0 0 0 .174-.332v-.041a.4.4 0 0 0-.167-.29l-2.794-2.084 2.787-2.082a.405.405 0 0 0 .174-.335v-.041a.4.4 0 0 0-.167-.291L12.72 2.077a.36.36 0 0 0-.44 0L2.672 9.253a.4.4 0 0 0-.172.3v.035a.4.4 0 0 0 .169.33l2.792 2.086-2.789 2.08a.405.405 0 0 0-.172.3v.037a.4.4 0 0 0 .169.329l9.613 7.181a.688.688 0 0 0 .218.073.371.371 0 0 0 .219-.077zM3.449 9.586L12.5 2.825l9.051 6.761-9.051 6.761zm0 4.832l2.623-1.96 6.21 4.639a.358.358 0 0 0 .437 0l6.209-4.638 2.623 1.96-9.051 6.759z"
      fill="#5b607e" stroke="#5b607e" stroke-width=".8"></path>
  </symbol>
  <symbol xmlns="http://www.w3.org/2000/svg" viewBox="0 0 18 18" id="versions-total">
    <path fill="rgba(255,255,255,0)" d="M0 0h18v18H0z"></path>
    <path d="M9.131 14.955L14.9 10.65a.243.243 0 0 0 .1-.2v-.024a.239.239 0 0 0-.1-.174l-1.676-1.25L14.9 7.751a.243.243 0 0 0 .1-.2v-.024a.24.24 0 0 0-.1-.174L9.132 3.045a.216.216 0 0 0-.264 0L3.1 7.35a.243.243 0 0 0-.1.179v.021a.24.24 0 0 0 .1.2l1.676 1.252L3.1 10.249a.243.243 0 0 0-.1.178v.022a.24.24 0 0 0 .1.2l5.768 4.308a.413.413 0 0 0 .132.045.223.223 0 0 0 .131-.047zm-5.562-7.4L9 3.494l5.431 4.057L9 11.602zm0 2.9l1.574-1.176 3.726 2.783a.215.215 0 0 0 .262 0l3.725-2.783 1.574 1.176L9 14.502z"
      fill="#747891" stroke="#747891" stroke-width=".6"></path>
  </symbol>
  <symbol xmlns="http://www.w3.org/2000/svg" viewBox="0 0 24 24" id="view-activity">
    <path fill="rgba(255,255,255,0)" d="M0 0h24v24H0z"></path>
    <path d="M12 2a10 10 0 1 0 10 10A10 10 0 0 0 12 2zm6.667 10.628H16.9l-1.354 2.541-2.3-5.944-1.853 5.03-1.609-3.7-.823 2.076H5.333v-.139H8.86l.911-2.3 1.6 3.691 1.861-5.05 2.326 6 1.251-2.347h1.853v.139z" fill="none" stroke="#5b607e" stroke-linecap="round"
      stroke-linejoin="round" stroke-miterlimit="10" stroke-width="1.4"></path>
  </symbol>
  <symbol xmlns="http://www.w3.org/2000/svg" viewBox="0 0 24 24" id="activity">
    <path fill="rgba(255,255,255,0)" d="M0 0h24v24H0z"></path>
    <path d="M12 2a10 10 0 1 0 10 10A10 10 0 0 0 12 2zm6.667 10.628H16.9l-1.354 2.541-2.3-5.944-1.853 5.03-1.609-3.7-.823 2.076H5.333v-.139H8.86l.911-2.3 1.6 3.691 1.861-5.05 2.326 6 1.251-2.347h1.853v.139z" fill="none" stroke="#5b607e" stroke-linecap="round"
      stroke-linejoin="round" stroke-miterlimit="10" stroke-width="1.4"></path>
  </symbol>
  <symbol xmlns="http://www.w3.org/2000/svg" viewBox="0 0 36 36" id="activity-active">
    <path fill="rgba(255,255,255,0)" d="M0 0h36v36H0z"></path>
    <path d="M18.5 4.5a14 14 0 1 0 14 14 14 14 0 0 0-14-14zm9.333 14.879h-2.478l-1.9 3.557-3.224-8.322-2.594 7.042-2.252-5.182-1.153 2.906h-5.07v-.195H14.1l1.276-3.218 2.246 5.167 2.6-7.07 3.257 8.406 1.751-3.286h2.595v.195z" fill="none" stroke="#2585d3" stroke-linecap="round" stroke-linejoin="round" stroke-miterlimit="10" stroke-width="1.5"></path>
  </symbol>
  <symbol xmlns="http://www.w3.org/2000/svg" viewBox="0 0 24 24" id="write">
    <g fill="#08aa4f">
      <path d="M12 0a12 12 0 1 0 12 12A12.014 12.014 0 0 0 12 0zm0 22.066A10.066 10.066 0 1 1 22.066 12 10.077 10.077 0 0 1 12 22.066z"></path>
      <path d="M16.342 8.276l-5.626 5.452-2.057-1.995a.992.992 0 0 0-1.373 0 .92.92 0 0 0 0 1.331l2.745 2.661a.992.992 0 0 0 1.373 0l6.313-6.117a.921.921 0 0 0 0-1.331.994.994 0 0 0-1.375-.001z"></path>
    </g>
  </symbol>
  <symbol xmlns="http://www.w3.org/2000/svg" viewBox="0 0 24 24" id="everything">
    <path d="M7.163 3a4.163 4.163 0 1 0 4.163 4.163A4.163 4.163 0 0 0 7.163 3zm0 6.938a2.775 2.775 0 1 1 2.775-2.775 2.775 2.775 0 0 1-2.775 2.775zm9.674 1.388a4.163 4.163 0 1 0-4.163-4.163 4.163 4.163 0 0 0 4.163 4.163zm0-6.938a2.775 2.775 0 1 1-2.775 2.775 2.775 2.775 0 0 1 2.775-2.775zm0 8.286A4.163 4.163 0 1 0 21 16.837a4.163 4.163 0 0 0-4.163-4.163zm0 6.938a2.775 2.775 0 1 1 2.775-2.775 2.775 2.775 0 0 1-2.775 2.775zm-9.674-6.938a4.163 4.163 0 1 0 4.163 4.163 4.163 4.163 0 0 0-4.163-4.163zm0 6.938a2.775 2.775 0 1 1 2.775-2.775 2.775 2.775 0 0 1-2.775 2.775z"
      fill="#5c617e"></path>
  </symbol><symbol xmlns="http://www.w3.org/2000/svg" viewBox="0 0 24 24" id="everything-active">
    <path d="M7.163 3a4.163 4.163 0 1 0 4.163 4.163A4.163 4.163 0 0 0 7.163 3zm0 6.938a2.775 2.775 0 1 1 2.775-2.775 2.775 2.775 0 0 1-2.775 2.775zm9.674 1.388a4.163 4.163 0 1 0-4.163-4.163 4.163 4.163 0 0 0 4.163 4.163zm0-6.938a2.775 2.775 0 1 1-2.775 2.775 2.775 2.775 0 0 1 2.775-2.775zm0 8.286A4.163 4.163 0 1 0 21 16.837a4.163 4.163 0 0 0-4.163-4.163zm0 6.938a2.775 2.775 0 1 1 2.775-2.775 2.775 2.775 0 0 1-2.775 2.775zm-9.674-6.938a4.163 4.163 0 1 0 4.163 4.163 4.163 4.163 0 0 0-4.163-4.163zm0 6.938a2.775 2.775 0 1 1 2.775-2.775 2.775 2.775 0 0 1-2.775 2.775z"
      fill="#2585d3"></path>
  </symbol>
  <symbol xmlns="http://www.w3.org/2000/svg" viewBox="0 0 24 24" id="assignee">
    <path fill="rgba(255,255,255,0)" d="M0 0h24v24H0z"></path>
    <path d="M19.812 17.067l-4.275-2.333c1.595-1.233 2.036-3.633 2.036-5v-2.8c0-1.867-2.511-3.933-5.056-3.933S7.393 5.068 7.393 6.934v2.8A6.881 6.881 0 0 0 9.531 14.7l-4.377 2.333S4 17.533 4 18.166v1.7A1.134 1.134 0 0 0 5.154 21h14.692A1.134 1.134 0 0 0 21 19.867v-1.7c-.034-.634-1.188-1.1-1.188-1.1zm-.2 2.6H5.357v-1.2a1.8 1.8 0 0 1 .339-.2c.034 0 .068-.033.1-.033l4.38-2.334a1.282 1.282 0 0 0 .713-1.067 1.346 1.346 0 0 0-.509-1.167 5.547 5.547 0 0 1-1.629-3.933v-2.8c0-.967 1.832-2.6 3.766-2.6 1.968 0 3.7 1.633 3.7 2.6v2.8c0 1.033-.339 3.033-1.493 3.933a1.277 1.277 0 0 0-.509 1.167 1.38 1.38 0 0 0 .713 1.067l4.272 2.333c.034.033.1.033.136.067a.894.894 0 0 1 .305.167v1.2z" fill="#747891"></path>
  </symbol>
  <symbol xmlns="http://www.w3.org/2000/svg" viewBox="0 0 24 24" id="assignee-active">
    <path fill="rgba(255,255,255,0)" d="M0 0h24v24H0z"></path>
    <path d="M19.812 17.067l-4.275-2.333c1.595-1.233 2.036-3.633 2.036-5v-2.8c0-1.867-2.511-3.933-5.056-3.933S7.393 5.068 7.393 6.934v2.8A6.881 6.881 0 0 0 9.531 14.7l-4.377 2.333S4 17.533 4 18.166v1.7A1.134 1.134 0 0 0 5.154 21h14.692A1.134 1.134 0 0 0 21 19.867v-1.7c-.034-.634-1.188-1.1-1.188-1.1zm-.2 2.6H5.357v-1.2a1.8 1.8 0 0 1 .339-.2c.034 0 .068-.033.1-.033l4.38-2.334a1.282 1.282 0 0 0 .713-1.067 1.346 1.346 0 0 0-.509-1.167 5.547 5.547 0 0 1-1.629-3.933v-2.8c0-.967 1.832-2.6 3.766-2.6 1.968 0 3.7 1.633 3.7 2.6v2.8c0 1.033-.339 3.033-1.493 3.933a1.277 1.277 0 0 0-.509 1.167 1.38 1.38 0 0 0 .713 1.067l4.272 2.333c.034.033.1.033.136.067a.894.894 0 0 1 .305.167v1.2z" fill="#2585d3"></path>
  </symbol>
</svg>