<svg xmlns="http://www.w3.org/2000/svg" id="prefix__Group_1604" width="24" height="24" data-name="Group 1604" viewBox="0 0 24 24">
    <path id="prefix__Path_1170" d="M48 40.708a2.747 2.747 0 0 1-2.774 2.717H26.774a2.718 2.718 0 1 1 0-5.434v-5.434a9.232 9.232 0 0 1 18.462 0v5.433A2.747 2.747 0 0 1 48 40.708zm-2.77-.908a1.827 1.827 0 0 1-1.845-1.812v-5.432a7.386 7.386 0 0 0-14.769 0v5.434a1.83 1.83 0 0 1-1.846 1.81.906.906 0 1 0 0 1.811h18.456a.906.906 0 1 0 0-1.811zm-13.384 3.625h1.846a2.308 2.308 0 0 0 4.615 0h1.846a4.155 4.155 0 0 1-8.308 0z" data-name="Path 1170" transform="translate(-24 -23.5)" style="fill:#171e48"/>
</svg>
