<svg id="Group_1194" data-name="Group 1194" xmlns="http://www.w3.org/2000/svg" width="18" height="18" viewBox="0 0 18 18">
  <rect id="Rectangle_822" data-name="Rectangle 822" width="18" height="18" fill="#fff" opacity="0"/>
  <path id="Path_1855" data-name="Path 1855" d="M18.666,22.168a1.353,1.353,0,1,0,1.353-1.354A1.353,1.353,0,0,0,18.666,22.168Zm-6.33-4.645a1.042,1.042,0,1,0,1.042-1.042A1.043,1.043,0,0,0,12.336,17.523Zm13.471-1.372a9.869,9.869,0,0,0-1.192-1.645c-.222.24-.6.648-1.061,1.145.245.292.366.467.366.467.1.3.46.882.18,1.388s-.712.648-1.37.993c-1.309.686-1.011,2.037-.333,3.905.216.593.545,1.612-.237,1.906a4.493,4.493,0,0,1-1.7.27,10.035,10.035,0,0,1-2.495-.389c-3.029-.84-5.123-2.468-5.951-4.763s-.651-5.238,1.042-6.61a6.37,6.37,0,0,1,7.141-.029c.322.2.624.407.9.611l1.179-1.05c-.325-.24-.673-.479-1.048-.711-3.115-1.929-6.981-1.733-9.149,0S9.5,17.01,10.558,19.911s3.677,5.227,7.624,6.014a16.545,16.545,0,0,0,2.79.336,6.959,6.959,0,0,0,2.547-.336,1.667,1.667,0,0,0,.762-2.256c-.87-2.359-1.677-3.644,0-4.511.842-.434,1.164-.578,1.525-1.217A2.25,2.25,0,0,0,25.807,16.151ZM17.3,17.719a8.13,8.13,0,0,0-1.964,3.211,6.353,6.353,0,0,0,3.376-1.7c.584-.791,3.651-3.847,3.651-3.847l2.976-3.074a.991.991,0,0,0-.2-.536.817.817,0,0,0-.482-.176L21.18,14.532S18.122,17.07,17.3,17.719Zm1-4.446a.958.958,0,1,0-.958.959A.959.959,0,0,0,18.292,13.273ZM15.5,14.605a.958.958,0,1,0-.958.959A.959.959,0,0,0,15.5,14.605Z" transform="translate(-9 -9.265)" fill="#171e48"/>
</svg>
