<svg xmlns="http://www.w3.org/2000/svg" width="14.001" height="14" viewBox="0 0 14.001 14">
    <defs>
        <style>
            .cls-1{fill:#171e48}
        </style>
    </defs>
    <g id="edit3" transform="translate(-2.492 -1.002)">
        <path id="Path_1771" d="M15.628 2.214a1.211 1.211 0 0 1 .31 1.188v.084l-.005.014-.005.014-.005.014-.006.014-.006.013-.006.013-.006.014-.006.013-.006.013-.007.013-.007.013-.007.013-.007.013-.007.013-.007.013-.007.013-.008.013-.008.012-.008.012-.008.012-.009.012-.009.012-.009.012-.039.016-.009.012-.01.012-.01.012-.01.012-.01.012-.01.012-.01.012-.01.011-.011.011-.011.011-.011.011L6.12 13.42 1.982 14l.541-4.142c2.1-2.092 7.423-7.414 9.521-9.506a1.222 1.222 0 0 1 1.718 0l1.866 1.858zm-2.62 2.625L11.13 2.967l-7.468 7.459-.283 2.169 2.171-.306 7.459-7.45zm-1.025-2.723l1.878 1.872.914-.911a.013.013 0 0 0 0-.014l-1.864-1.858a.01.01 0 0 0-.014 0l-.914.911z" class="cls-1" data-name="Path 1771" transform="translate(.51 1)"/>
    </g>
</svg>
