<svg id="Group_1194" data-name="Group 1194" xmlns="http://www.w3.org/2000/svg" width="18" height="18" viewBox="0 0 18 18">
  <rect id="Rectangle_822" data-name="Rectangle 822" width="18" height="18" fill="#fff" opacity="0"/>
  <path id="Union_17" data-name="Union 17" d="M-1389.2-251.469l-4.326-4.326a1.626,1.626,0,0,1,0-2.281l6.4-6.446a1.618,1.618,0,0,1,1.147-.477h4.376a1.624,1.624,0,0,1,1.615,1.615v4.376a1.619,1.619,0,0,1-.477,1.147l-6.447,6.4a1.612,1.612,0,0,1-1.138.466A1.61,1.61,0,0,1-1389.2-251.469Zm2.83-12.293-6.4,6.446a.528.528,0,0,0,0,.759l4.325,4.326a.531.531,0,0,0,.76,0l6.446-6.4a.54.54,0,0,0,.16-.383v-4.376a.531.531,0,0,0-.538-.538h-4.376A.533.533,0,0,0-1386.375-263.763Zm1.653,2.532a.951.951,0,0,1,.951-.951.952.952,0,0,1,.952.951.952.952,0,0,1-.952.952A.952.952,0,0,1-1384.722-261.23Z" transform="translate(1396 267)" fill="#6e748f"/>
</svg>
