<svg xmlns="http://www.w3.org/2000/svg" width="321.982" height="330" viewBox="0 0 321.982 330">
    <defs>
        <style>
            .prefix__cls-2{fill:#7694f3}.prefix__cls-12{fill:#fff}.prefix__cls-6{fill:#e9edfc}.prefix__cls-7{fill:#dde4fd}.prefix__cls-8{fill:#ccd0de}.prefix__cls-9{fill:#bfc6de}.prefix__cls-10{fill:#bec4d9}.prefix__cls-11{fill:#646684}.prefix__cls-12{opacity:.2}.prefix__cls-13{fill:#d1d9f8}.prefix__cls-15{fill:#545881}.prefix__cls-16{fill:#d1d9f0}.prefix__cls-17{fill:#9fa2bf}
        </style>
    </defs>
    <g id="prefix__Group_1535" data-name="Group 1535" transform="translate(-1070.639 -82)">
        <path id="prefix__Path_2405" d="M1316.387 82s133.01 41.927 47.646 159.93S1375.348 412 1375.348 412h-304.709V82z" data-name="Path 2405" style="fill:#6585eb"/>
        <path id="prefix__Path_2406" d="M1309.23 82s129.136 41.927 46.259 159.93S1366.473 412 1366.473 412h-295.834V82z" class="prefix__cls-2" data-name="Path 2406"/>
        <g id="prefix__Group_1532" data-name="Group 1532" transform="translate(1015.74 171.968)">
            <g id="prefix__Group_42" data-name="Group 42" transform="translate(184.26 -22.338)">
                <g id="prefix___1527575" data-name="1527575">
                    <circle id="prefix__Ellipse_424" cx="48.855" cy="48.855" r="48.855" data-name="Ellipse 424" style="opacity:.1;fill:#fff"/>
                    <circle id="prefix__Ellipse_356" cx="39.972" cy="39.972" r="39.972" data-name="Ellipse 356" transform="translate(8.883 8.883)" style="fill:#fff"/>
                    <path id="prefix__Path_2403" d="M255.271 328.468l-38.647 38.647a27.979 27.979 0 0 0 38.647-38.647z" class="prefix__cls-2" data-name="Path 2403" transform="translate(-182.85 -294.695)"/>
                    <path id="prefix__Path_2404" d="M262.378 299.07a28.019 28.019 0 0 0-3.781 34.863l38.647-38.647a28.023 28.023 0 0 0-34.866 3.784z" class="prefix__cls-2" data-name="Path 2404" transform="translate(-233.306 -269.996)"/>
                </g>
                <g id="prefix__Group_41" data-name="Group 41" transform="translate(.061 112.047)" style="opacity:.15">
                    <g id="prefix__Group_1533" data-name="Group 1533" transform="translate(0 9)">
                        <path id="prefix__Path_39" d="M318.939 188.424h89.475c2.257 0 4.087-1.155 4.087-2.579 0-1.424-1.83-2.579-4.087-2.579h-89.475c-2.257 0-4.087 1.155-4.087 2.579 0 1.424 1.829 2.579 4.087 2.579z" class="prefix__cls-6" data-name="Path 39" transform="translate(-314.852 -182.943)"/>
                        <path id="prefix__Path_40" d="M318.939 203.834h89.475c2.257 0 4.087-1.154 4.087-2.578s-1.83-2.579-4.087-2.579h-89.475c-2.257 0-4.087 1.155-4.087 2.579 0 1.424 1.829 2.578 4.087 2.578z" class="prefix__cls-6" data-name="Path 40" transform="translate(-314.852 -180.354)"/>
                        <path id="prefix__Path_41" d="M318.939 219.245h89.475c2.257 0 4.087-1.155 4.087-2.579 0-1.424-1.83-2.578-4.087-2.578h-89.475c-2.257 0-4.087 1.154-4.087 2.578s1.829 2.579 4.087 2.579z" class="prefix__cls-6" data-name="Path 41" transform="translate(-314.852 -177.765)"/>
                        <path id="prefix__Path_42" d="M318.939 234.656h89.475c2.257 0 4.087-1.155 4.087-2.579 0-1.424-1.83-2.578-4.087-2.578h-89.475c-2.257 0-4.087 1.154-4.087 2.578 0 1.423 1.829 2.579 4.087 2.579z" class="prefix__cls-6" data-name="Path 42" transform="translate(-314.852 -174.176)"/>
                        <path id="prefix__Path_44" d="M318.939 299.243h89.475c2.257 0 4.087-1.155 4.087-2.579 0-1.424-1.83-2.578-4.087-2.578h-89.475c-2.257 0-4.087 1.154-4.087 2.578s1.829 2.579 4.087 2.579z" class="prefix__cls-6" data-name="Path 44" transform="translate(-314.852 -220.763)"/>
                        <path id="prefix__Path_46" d="M318.939 330.064h89.475c2.257 0 4.087-1.154 4.087-2.578s-1.83-2.579-4.087-2.579h-89.475c-2.257 0-4.087 1.155-4.087 2.579 0 1.424 1.829 2.578 4.087 2.578z" class="prefix__cls-6" data-name="Path 46" transform="translate(-314.852 -233.584)"/>
                    </g>
                </g>
            </g>
        </g>
        <g id="prefix__Group_1526" data-name="Group 1526" transform="translate(-178 -5.788)">
            <g id="prefix__OBJECTS" transform="translate(1297.422 156.9)">
                <g id="prefix__Group_83" data-name="Group 83" transform="translate(-2.617 -36.564)">
                    <g id="prefix__Group_51" data-name="Group 51" transform="translate(38.227 124.076)">
                        <path id="prefix__Path_51" d="M121.684 415.841v8.719h-6.507l-.521-9.256z" class="prefix__cls-7" data-name="Path 51" transform="translate(-106.483 -296.466)"/>
                        <path id="prefix__Path_52" d="M109.589 295.721s.342 5.853.859 14.389c1.182 19.5 3.276 53.015 4.284 62.766 1.784 17.276 1.874 43.453 1.874 43.453h9.5c1.059-21.964 3.034-90.724 3.574-109.846l.14-4.98-16-4.57-1.258-.359z" class="prefix__cls-8" data-name="Path 52" transform="translate(-109.589 -295.721)"/>
                        <path id="prefix__Path_53" d="M112.565 296.574l-2.976-.853s.386 6.566.9 15.1c7.576.429 15.719-2.682 19.194-4.34l.14-4.98-16-4.57z" class="prefix__cls-9" data-name="Path 53" transform="translate(-109.589 -295.721)"/>
                        <g id="prefix__Group_44" data-name="Group 44" transform="translate(5.401 117.176)">
                            <path id="prefix__Path_54" d="M124.439 413.632l-.429 4.35h-11.4l-.343-4.35z" class="prefix__cls-10" data-name="Path 54" transform="translate(-112.27 -413.632)"/>
                        </g>
                        <g id="prefix__Group_50" data-name="Group 50" transform="translate(6.557 125.409)">
                            <g id="prefix__Group_49" data-name="Group 49">
                                <path id="prefix__Path_55" d="M105.755 423.7s1.432-1.878 2.551-1.785 9.683 7.064 12.637 7.665 2.355 2.775 1.8 3.882-23.613-.69-23.613-.69-.556-6.876.223-8.968 4.081.372 6.402-.104z" class="prefix__cls-11" data-name="Path 55" transform="translate(-98.938 -421.917)"/>
                                <g id="prefix__Group_48" data-name="Group 48" transform="translate(9.787 2.298)">
                                    <g id="prefix__Group_45" data-name="Group 45" transform="translate(1.223 1.183)">
                                        <path id="prefix__Path_56" d="M107.43 428.575a.409.409 0 0 1-.323-.04.415.415 0 0 1-.149-.568 6.374 6.374 0 0 1 2.185-2.225 2.858 2.858 0 0 1 2.933.17.414.414 0 0 1-.5.66 2.04 2.04 0 0 0-2.066-.085 5.652 5.652 0 0 0-1.834 1.9.408.408 0 0 1-.246.188z" class="prefix__cls-12" data-name="Path 56" transform="translate(-106.901 -425.419)"/>
                                    </g>
                                    <g id="prefix__Group_46" data-name="Group 46">
                                        <path id="prefix__Path_57" d="M108.661 427.386a.415.415 0 0 1-.473-.608 6.391 6.391 0 0 1 2.185-2.225 2.856 2.856 0 0 1 2.933.17.415.415 0 1 1-.5.66 2.042 2.042 0 0 0-2.066-.085 5.608 5.608 0 0 0-1.834 1.9.412.412 0 0 1-.245.188z" class="prefix__cls-12" data-name="Path 57" transform="translate(-108.132 -424.229)"/>
                                    </g>
                                    <g id="prefix__Group_47" data-name="Group 47" transform="translate(2.888 2.149)">
                                        <path id="prefix__Path_58" d="M105.756 429.549a.415.415 0 0 1-.473-.608 6.383 6.383 0 0 1 2.185-2.226 2.854 2.854 0 0 1 2.933.171.415.415 0 1 1-.5.66 2.038 2.038 0 0 0-2.066-.086 5.609 5.609 0 0 0-1.833 1.9.418.418 0 0 1-.246.189z" class="prefix__cls-12" data-name="Path 58" transform="translate(-105.226 -426.391)"/>
                                    </g>
                                </g>
                            </g>
                        </g>
                    </g>
                    <g id="prefix__Group_59" data-name="Group 59" transform="translate(9.583 124.189)">
                        <path id="prefix__Path_59" d="M147.817 416.9l-.272 7.286-6.66-.356-.147-7.737z" class="prefix__cls-7" data-name="Path 59" transform="translate(-129.892 -296.584)"/>
                        <g id="prefix__Group_57" data-name="Group 57" transform="translate(0 124.915)">
                            <g id="prefix__Group_56" data-name="Group 56">
                                <path id="prefix__Path_60" d="M155.026 422.164a27.9 27.9 0 0 0-3.95-.627c-.848.056-6.244 6.659-8.14 7.118-3.437.834-3.2 6.249-1.078 6.424 6.14.506 16.467-2.539 16.467-2.539s.653-6.991.137-9.154-1.703-.657-3.436-1.222z" class="prefix__cls-11" data-name="Path 60" transform="translate(-140.299 -421.534)"/>
                                <g id="prefix__Group_55" data-name="Group 55" transform="translate(3.216 2.567)">
                                    <g id="prefix__Group_52" data-name="Group 52" transform="translate(1.584 1.333)">
                                        <path id="prefix__Path_61" d="M153.413 428.346a.423.423 0 0 0 .413-.669 6.524 6.524 0 0 0-2.459-2.02 2.919 2.919 0 0 0-2.958.492.423.423 0 1 0 .581.615 2.082 2.082 0 0 1 2.087-.311 5.747 5.747 0 0 1 2.067 1.728.423.423 0 0 0 .269.165z" class="prefix__cls-12" data-name="Path 61" transform="translate(-148.277 -425.458)"/>
                                    </g>
                                    <g id="prefix__Group_53" data-name="Group 53" transform="translate(2.696)">
                                        <path id="prefix__Path_62" d="M152.295 427a.422.422 0 0 0 .412-.668 6.5 6.5 0 0 0-2.459-2.021 2.914 2.914 0 0 0-2.957.492.423.423 0 0 0 .581.615 2.082 2.082 0 0 1 2.087-.311 5.73 5.73 0 0 1 2.067 1.728.422.422 0 0 0 .269.165z" class="prefix__cls-12" data-name="Path 62" transform="translate(-147.158 -424.117)"/>
                                    </g>
                                    <g id="prefix__Group_54" data-name="Group 54" transform="translate(0 2.494)">
                                        <path id="prefix__Path_63" d="M155.007 429.515a.422.422 0 0 0 .413-.668 6.522 6.522 0 0 0-2.459-2.021 2.914 2.914 0 0 0-2.957.493.423.423 0 0 0 .581.614 2.082 2.082 0 0 1 2.087-.311 5.727 5.727 0 0 1 2.067 1.728.417.417 0 0 0 .268.165z" class="prefix__cls-12" data-name="Path 63" transform="translate(-149.871 -426.627)"/>
                                    </g>
                                </g>
                            </g>
                        </g>
                        <path id="prefix__Path_64" d="M132.293 301.617s.084 3.04.231 8.162c.642 22.612 2.475 85.783 3.487 106.664h8.616c.545-.124 1.451-27.5 1.339-41-.069-8.232 3.184-44.014 5.134-64.7.836-8.836 1.432-14.915 1.432-14.915l-2.5.713-1.274.366z" class="prefix__cls-8" data-name="Path 64" transform="translate(-126.214 -295.835)"/>
                        <path id="prefix__Path_65" d="M132.293 301.617s.084 3.04.231 8.162a101.724 101.724 0 0 0 18.576.971c.836-8.836 1.432-14.915 1.432-14.915l-2.5.713-1.274.366z" class="prefix__cls-9" data-name="Path 65" transform="translate(-126.214 -295.835)"/>
                        <g id="prefix__Group_58" data-name="Group 58" transform="translate(8.3 117.176)">
                            <path id="prefix__Path_66" d="M150.346 413.746l-.429 4.35h-11.4l-.343-4.35z" class="prefix__cls-10" data-name="Path 66" transform="translate(-138.177 -413.746)"/>
                        </g>
                    </g>
                    <g id="prefix__Group_82" data-name="Group 82">
                        <g id="prefix__Group_63" data-name="Group 63" transform="translate(0 57.171)">
                            <g id="prefix__Group_62" data-name="Group 62">
                                <path id="prefix__Path_67" d="M168.275 238.686l-7.651 25.858-.143.483c0 .12 0 .243-.009.377-.265 6.418-6.165 26.3-5.655 29.624.522 3.4.587 8.154-.558 10.334-1.105 2.1-2.217 5.561-3.076 3.78s.908-6.726-.058-6.86-3.21 4.077-2.419 8.728-2.007 5.9-1.8 3.6-1.633-5.09-1.543-8.6c.085-3.292 3.647-10.69 3.647-10.69s.156-20.137 2.174-29.823 8.976-37.05 8.976-37.05c4.346-.937 8.115 10.239 8.115 10.239z" class="prefix__cls-7" data-name="Path 67" transform="translate(-145.364 -228.396)"/>
                                <g id="prefix__Group_61" data-name="Group 61" transform="translate(10.892 33.891)">
                                    <g id="prefix__Group_60" data-name="Group 60">
                                        <path id="prefix__Path_68" d="M157.431 263.573l-.139.467c0 .116 0 .236-.008.365a29.6 29.6 0 0 0-3.756-1.081.414.414 0 0 1-.331-.484.407.407 0 0 1 .484-.331 29.944 29.944 0 0 1 3.75 1.064z" class="prefix__cls-13" data-name="Path 68" transform="translate(-153.189 -262.5)"/>
                                    </g>
                                </g>
                            </g>
                        </g>
                        <g id="prefix__Group_67" data-name="Group 67" transform="translate(14.618 46.536)">
                            <path id="prefix__Path_69" d="M108.535 301.19c10.745 7.014 32.5 6.872 44.891.408-1.184-7.377-4.3-26.317-3.961-36.134q.055-1.614.137-3.206.072-1.383.16-2.743c1.07-16.333 3.857-29.687 2.487-31.413a13.026 13.026 0 0 0-2.824-2.406q-.724-.493-1.544-.995c-1.287-.784-2.717-1.575-4.153-2.345-3.407-1.82-6.866-3.507-8.6-4.661a11.027 11.027 0 0 1-4.564 1.152 1.123 1.123 0 0 1-.127 0 1 1 0 0 1-.122 0 11.043 11.043 0 0 1-4.566-1.152c-1.609 1.07-4.638 2.563-7.729 4.19a67.019 67.019 0 0 0-6.369 3.7 12.8 12.8 0 0 0-2.72 2.337c-.679.856-.394 4.606.187 10.163.574 5.468 1.434 12.688 1.955 20.625.143 2.2.262 4.463.341 6.755.332 9.816-1.694 28.35-2.879 35.725z" class="prefix__cls-2" data-name="Path 69" transform="translate(-108.535 -217.695)"/>
                            <path id="prefix__Path_73" d="M118.294 221.886c2.094 4.775 7.012 11.252 13.705 10.1 6.481-1.121 9.785-6.081 12-9.627-3.408-1.821-6.867-3.506-8.6-4.66a11.081 11.081 0 0 1-4.564 1.152 1.128 1.128 0 0 1-.127 0 1.049 1.049 0 0 1-.124 0 11.1 11.1 0 0 1-4.566-1.152c-1.605 1.065-4.634 2.558-7.724 4.187z" class="prefix__cls-7" data-name="Path 73" transform="translate(-108.809 -217.695)"/>
                        </g>
                        <path id="prefix__Path_74" d="M131.668 219.023v.006h.124z" data-name="Path 74" transform="translate(-95.271 -171.167)" style="fill:#2a3554"/>
                        <g id="prefix__Group_77" data-name="Group 77" transform="translate(22.359)">
                            <path id="prefix__Path_75" d="M124.188 178.857a8.083 8.083 0 0 0 .188 1.734 8 8 0 1 0-.188-1.734z" class="prefix__cls-15" data-name="Path 75" transform="translate(-118.574 -170.867)"/>
                            <path id="prefix__Path_76" d="M124.387 180.641a7.963 7.963 0 0 0 1.248 2.84l.4.4h12.408a7.951 7.951 0 0 0 1.538-3.2 17.411 17.411 0 0 0-7.792-1.771 18.03 18.03 0 0 0-7.802 1.731z" class="prefix__cls-2" data-name="Path 76" transform="translate(-118.585 -170.917)"/>
                            <g id="prefix__Group_76" data-name="Group 76" transform="translate(0 15.012)">
                                <g id="prefix__Group_70" data-name="Group 70" transform="translate(24.025 11.343)">
                                    <path id="prefix__Path_77" d="M117.708 198.735s2.018-2.691 3.519-.466-.621 8.8-4.3 7.192z" class="prefix__cls-16" data-name="Path 77" transform="translate(-116.931 -197.387)"/>
                                </g>
                                <g id="prefix__Group_73" data-name="Group 73" transform="translate(0 11.343)">
                                    <path id="prefix__Path_80" d="M145.112 198.735s-2.018-2.691-3.519-.466.621 8.8 4.3 7.192z" class="prefix__cls-16" data-name="Path 80" transform="translate(-141.107 -197.387)"/>
                                </g>
                                <path id="prefix__Path_83" d="M126.807 211.12v6.535s1.95 3.328 4.585 3.555 4.972-2.865 4.972-2.865v-6.766z" class="prefix__cls-7" data-name="Path 83" transform="translate(-117.372 -186.13)"/>
                                <path id="prefix__Path_84" d="M126.807 211.12v2.9c1.769 1.962 4.909 2.657 9.557 1.972v-4.412z" class="prefix__cls-16" data-name="Path 84" transform="translate(-117.372 -186.13)"/>
                                <path id="prefix__Path_85" d="M119.759 194.181a63.49 63.49 0 0 0 .847 8.254c.121.634.258 1.229.41 1.764 1.375 4.815 4.815 13.073 14.445 9.634 4.252-1.518 6.224-6.256 7.1-11.075a46.543 46.543 0 0 0 .643-8.941 6.825 6.825 0 0 0-3.461-5.806c-5.684-3.222-11.683-2.02-15.632-.5a6.8 6.8 0 0 0-4.352 6.67z" class="prefix__cls-7" data-name="Path 85" transform="translate(-117.213 -185.973)"/>
                            </g>
                            <path id="prefix__Path_92" d="M119.075 193.639a1.021 1.021 0 0 0 .747.571 19.784 19.784 0 0 0 .112 2.3c.384 4.486 1.514 5.275 1.771 4.166a51.857 51.857 0 0 0 .078-6.342 14.911 14.911 0 0 0 1.643-.2l1.04-4.357.364 4.3c1.561.542 5.2-.327 5.2-.327l1.221-4.294.757 4.13a8.674 8.674 0 0 0 5.267.381l.672-4.454 1.553 4.454a17.219 17.219 0 0 0 2.791.718c0 1.391.09 5.171.789 4.955.74-.233 1.136-3.239 1.04-5.033a.688.688 0 0 0 .429-.64 17.408 17.408 0 0 0-.773-6.459c-1.238-2.971-2.761-4.767-5.034-5.812-5.338-2.452-12.921-1.406-15.1.043-5.863 3.894-4.567 11.9-4.567 11.9z" class="prefix__cls-15" data-name="Path 92" transform="translate(-117.778 -170.925)"/>
                        </g>
                        <path id="prefix__Path_93" d="M111.879 259.565c1.07-16.333 3.857-29.687 2.487-31.413a13.03 13.03 0 0 0-2.824-2.406c-1.253 5.876-4.417 23.559.337 33.819z" class="prefix__cls-7" data-name="Path 93" transform="translate(-56.033 -171.209)"/>
                        <path id="prefix__Path_94" d="M149.331 238.134c.574 5.468 1.434 12.688 1.955 20.625 4.213-10.234 1.829-27.184.578-33.125a12.8 12.8 0 0 0-2.72 2.337c-.678.855-.393 4.605.187 10.163z" class="prefix__cls-7" data-name="Path 94" transform="translate(-134.131 -171.208)"/>
                        <g id="prefix__Group_81" data-name="Group 81" transform="translate(53.516 54.293)">
                            <g id="prefix__Group_79" data-name="Group 79" transform="translate(0 3.018)">
                                <path id="prefix__Path_95" d="M94.366 245.566l4.734 15.222 5.188 14.47a5.1 5.1 0 0 0 7.035 3.284l.15-.068c4.936-2.334 2.214-12.014 2.214-12.014l-.932-.073c-.38-1.062-1.4-3.766-2.709-7.163-.157-.417-.322-.847-.49-1.282l-.857-2.231-1.282-3.317c-3.2-8.3-5.849-17.3-5.849-17.3l-2.208-6.556z" class="prefix__cls-7" data-name="Path 95" transform="translate(-94.366 -228.538)"/>
                                <g id="prefix__Group_78" data-name="Group 78" transform="translate(12.982 29.407)">
                                    <path id="prefix__Path_96" d="M99.112 269.744a.394.394 0 0 0 .06 0 .387.387 0 0 0 .387-.327c.721-4.589 1.448-7.978 1.929-10.01-.158-.416-.324-.846-.49-1.281-.451 1.792-1.334 5.608-2.209 11.169a.391.391 0 0 0 .323.449z" class="prefix__cls-13" data-name="Path 96" transform="translate(-98.783 -258.129)"/>
                                </g>
                                <path id="prefix__Path_97" d="M78.745 269.939s.68-11.027 3.033-13.372 4.5-3.24 6.707-3.16 4.282.354 4.147 1.261c0 0 5.068-.765 7.332.549s-6.7 2.464-9.365 2.532-4.068 1.557-4.176 3.143-1.644 12.1-1.644 12.1z" class="prefix__cls-7" data-name="Path 97" transform="translate(-64.728 -228.693)"/>
                            </g>
                            <g id="prefix__Group_80" data-name="Group 80" transform="translate(9.06)">
                                <path id="prefix__Path_98" d="M69.31 255.366l33.6.225a2.29 2.29 0 0 0 2.3-2.273v-.02a2.288 2.288 0 0 0-2.273-2.3l-33.6-.226a2.287 2.287 0 0 0-2.3 2.273v.02a2.288 2.288 0 0 0 2.273 2.301z" class="prefix__cls-17" data-name="Path 98" transform="translate(-67.038 -225.659)"/>
                                <path id="prefix__Path_99" d="M80.673 255.448l7.355-26.823a2.376 2.376 0 0 0-2.276-3.005l-15.789-.106a2.376 2.376 0 0 0-2.3 1.719l-8.089 28.074z" data-name="Path 99" transform="translate(-42.524 -225.501)" style="fill:#646784"/>
                                <path id="prefix__Path_100" d="M87.664 227.233l-8.022 27.843-1.8-.013 8.022-27.842a2.381 2.381 0 0 1 2.3-1.72l1.8.012a2.382 2.382 0 0 0-2.3 1.72z" class="prefix__cls-17" data-name="Path 100" transform="translate(-62.527 -225.501)"/>
                                <path id="prefix__Path_101" d="M69.707 241.741a2.47 2.47 0 0 0 2.446 3.226 4.285 4.285 0 0 0 3.973-3.183 2.471 2.471 0 0 0-2.446-3.226 4.285 4.285 0 0 0-3.973 3.183z" class="prefix__cls-12" data-name="Path 101" transform="translate(-40.607 -225.582)"/>
                            </g>
                        </g>
                    </g>
                </g>
            </g>
        </g>
    </g>
</svg>
