<svg xmlns="http://www.w3.org/2000/svg" xmlns:xlink="http://www.w3.org/1999/xlink" width="164.495" height="190.139" viewBox="0 0 164.495 190.139">
  <defs>
    <clipPath id="clip-path">
      <path id="Path_1968" data-name="Path 1968" d="M74.624,55.247c41.214,0,74.624-34.191,74.624-76.368s-33.78-62.226-74.624-76.368S0-63.3,0-21.121,33.41,55.247,74.624,55.247Z" transform="translate(0 100)" fill="none"/>
    </clipPath>
    <clipPath id="clip-path-2">
      <path id="Path_1967" data-name="Path 1967" d="M-282,662.255H1525.929V-346H-282Z" transform="translate(282 346)" fill="none"/>
    </clipPath>
  </defs>
  <g id="No_Data_available" data-name="No Data available" transform="translate(-752 -361.109)">
    <g id="Group_1152" data-name="Group 1152" transform="translate(752 396)" clip-path="url(#clip-path)">
      <g id="Group_1151" data-name="Group 1151" transform="translate(-478.27 -419.68)" clip-path="url(#clip-path-2)">
        <path id="Path_1966" data-name="Path 1966" d="M-5-105H161.207V67.308H-5Z" transform="translate(474.79 516.15)" fill="#e9edfc"/>
      </g>
    </g>
    <g id="Group_1807" data-name="Group 1807" transform="translate(-171.516 14.786)">
      <g id="Group_1802" data-name="Group 1802" transform="translate(956.303 423.107)">
        <g id="Group_664" data-name="Group 664" transform="translate(0)">
          <path id="Path_537" data-name="Path 537" d="M-9452.523-4107.765v21.044s7.911,6.607,26.717,6.588,26.9-6.916,26.9-6.916v-21.042" transform="translate(9452.523 4165.932)" fill="#c3d0ff"/>
          <path id="Path_2466" data-name="Path 2466" d="M26.7,0c14.747,0,26.7,3.152,26.7,7.041S41.45,14.082,26.7,14.082,0,10.93,0,7.041,11.955,0,26.7,0Z" transform="translate(0.214 50.695)" fill="#7794f3"/>
          <path id="Path_536" data-name="Path 536" d="M-9452.523-4107.765v21.044s7.911,6.607,26.717,6.588,26.9-6.916,26.9-6.916v-21.042" transform="translate(9452.523 4140.376)" fill="#c3d0ff"/>
          <path id="Path_670" data-name="Path 670" d="M26.809,0C41.616,0,53.619,3.135,53.619,7s-12,7-26.809,7S0,10.871,0,7,12,0,26.809,0Z" transform="translate(0 25.678)" fill="#7794f3"/>
          <path id="Path_534" data-name="Path 534" d="M-9452.523-4107.765v21.044s7.911,6.607,26.717,6.588,26.9-6.916,26.9-6.916v-21.042" transform="translate(9452.523 4115.375)" fill="#c3d0ff"/>
          <path id="Path_669" data-name="Path 669" d="M26.809,0C41.616,0,53.619,3.31,53.619,7.392s-12,7.392-26.809,7.392S0,11.475,0,7.392,12,0,26.809,0Z" transform="translate(0)" fill="#7794f3"/>
          <path id="Path_538" data-name="Path 538" d="M2.086,0C2.858,0,3.235,1.078,3.2,1.677A1.056,1.056,0,0,1,2.086,2.8C1.314,2.8.875,1.787.968,1.118S1.314,0,2.086,0Z" transform="translate(3.744 15.556)" fill="#fff"/>
          <path id="Path_540" data-name="Path 540" d="M2.086,0C2.858,0,3.235,1.078,3.2,1.677A1.056,1.056,0,0,1,2.086,2.8C1.314,2.8.875,1.787.968,1.118S1.314,0,2.086,0Z" transform="translate(3.744 40.835)" fill="#fff"/>
          <path id="Path_542" data-name="Path 542" d="M2.086,0C2.858,0,3.235,1.078,3.2,1.677A1.056,1.056,0,0,1,2.086,2.8C1.314,2.8.875,1.787.968,1.118S1.314,0,2.086,0Z" transform="translate(3.744 66.114)" fill="#fff"/>
          <path id="Path_539" data-name="Path 539" d="M2.086,0C2.858,0,3.235,1.078,3.2,1.677A1.056,1.056,0,0,1,2.086,2.8C1.314,2.8.875,1.787.968,1.118S1.314,0,2.086,0Z" transform="translate(6.82 16.395)" fill="#fff"/>
        </g>
      </g>
    </g>
    <g id="Group_1932" data-name="Group 1932" transform="translate(-274 -84)">
      <g id="Group_1931" data-name="Group 1931" transform="translate(1120.844 465.652)">
        <g id="Group_1809" data-name="Group 1809" transform="translate(37.31 1.841)">
          <g id="Group_1808" data-name="Group 1808" transform="translate(0 0)">
            <path id="Path_2467" data-name="Path 2467" d="M906.646,198.4c1.989-3.339,2.57-7.793,3.081-11.646.24-1.813.662-4.395-.61-5.533-1.363-1.22-1.489-3.094-3.056-4.037a4.825,4.825,0,0,0-5.182.043" transform="translate(-900.879 -176.45)" fill="#646784"/>
          </g>
        </g>
        <g id="Group_1835" data-name="Group 1835" transform="translate(22.941 0)">
          <g id="Group_1819" data-name="Group 1819" transform="translate(0)">
            <g id="Group_1816" data-name="Group 1816" transform="translate(3.677 3.675)">
              <g id="Group_1815" data-name="Group 1815">
                <g id="Group_1814" data-name="Group 1814">
                  <g id="Group_1813" data-name="Group 1813">
                    <g id="Group_1812" data-name="Group 1812">
                      <g id="Group_1811" data-name="Group 1811">
                        <g id="Group_1810" data-name="Group 1810">
                          <path id="Path_2468" data-name="Path 2468" d="M894.567,211.357h0a5.368,5.368,0,0,1-5.774-5.147c-.112-2.922-.21-5.876-.21-5.876s-4.428-.415-4.749-4.8-.175-14.5-.175-14.5h0a15.27,15.27,0,0,1,15.432.992l-.273,15.421v8.3C898.788,208.534,897.342,211.144,894.567,211.357Z" transform="translate(-883.626 -179.408)" fill="#c3d0ff"/>
                        </g>
                      </g>
                    </g>
                  </g>
                </g>
              </g>
            </g>
            <g id="Group_1818" data-name="Group 1818">
              <g id="Group_1817" data-name="Group 1817">
                <path id="Path_2469" data-name="Path 2469" d="M885.946,187.935a2.245,2.245,0,0,1,2.994-.654,2.547,2.547,0,0,1,.849,3.184,3.355,3.355,0,0,1-2.149,1.625,1.683,1.683,0,0,0-1.318,1.812c.126,1.1,1.956,1.513,2.782,2.423,1.284,1.416,4.1,2.016,6,2.24,1.866.221,1.641.239,2.726-1.3a5.879,5.879,0,0,0,1.066-3.557q.1-4.846.2-9.692a13.926,13.926,0,0,0-.221-3.478,4.67,4.67,0,0,0-1.835-2.876c-1.066-.7-2.416-.762-3.63-1.154a30.006,30.006,0,0,1-4.226-2.224,5.2,5.2,0,0,0-4.586-.445c-1.023.514-1.709,1.535-2.7,2.1-1.416.806-3.345.623-4.033,2.706a3.531,3.531,0,0,0,.024,2.228,5.149,5.149,0,0,0,7,2.752,6.946,6.946,0,0,0,.083,3.065c.162.485.219,1.223.976,1.238" transform="translate(-877.694 -173.479)" fill="#646784"/>
              </g>
            </g>
          </g>
          <g id="Group_1822" data-name="Group 1822" transform="translate(9.019 15.062)">
            <g id="Group_1821" data-name="Group 1821">
              <g id="Group_1820" data-name="Group 1820">
                <path id="Path_2470" data-name="Path 2470" d="M892.263,199.91c.034-.028.183.231.548.209a1.02,1.02,0,0,0,.819-1,1.1,1.1,0,0,0-.752-1.091c-.361-.133-.619-.064-.63-.115-.019-.03.241-.2.694-.1a1.308,1.308,0,0,1,.688.395,1.27,1.27,0,0,1,.323.93,1.21,1.21,0,0,1-1.14,1.213.658.658,0,0,1-.49-.246C892.244,199.993,892.245,199.916,892.263,199.91Z" transform="translate(-892.246 -197.78)" fill="#87a1ff"/>
              </g>
            </g>
          </g>
        </g>
        <g id="Group_1837" data-name="Group 1837" transform="translate(43.549 8.475)">
          <g id="Group_1836" data-name="Group 1836" transform="translate(0 0)">
            <path id="Path_2475" data-name="Path 2475" d="M911.611,189.9a7.738,7.738,0,0,1,6.04-2.736,5.564,5.564,0,0,1,5.069,3.924c.419,1.669-.093,3.409-.309,5.118s-.007,3.7,1.386,4.716a8.053,8.053,0,0,0,2.934.966,3.21,3.21,0,0,1,2.433,1.728,2.467,2.467,0,0,1-1.508,2.87,5.556,5.556,0,0,1-3.506.048,2.937,2.937,0,0,1-1.3,3.512,3.885,3.885,0,0,1-3.892-.162,5.811,5.811,0,0,1-2.377-3.223,2.89,2.89,0,0,1-3.986.757,4.181,4.181,0,0,1-1.612-4.006A7.813,7.813,0,0,1,913,199.407a9.858,9.858,0,0,0,1.411-1.8,2.286,2.286,0,0,0,.089-2.189,1.325,1.325,0,0,0-1.95-.392" transform="translate(-910.944 -187.153)" fill="#646784"/>
          </g>
        </g>
        <g id="Group_1840" data-name="Group 1840" transform="translate(43.583 9.694)">
          <g id="Group_1839" data-name="Group 1839" transform="translate(0)">
            <path id="Path_2476" data-name="Path 2476" d="M914.268,195.245a1.51,1.51,0,0,1-1.317-.015,3.171,3.171,0,0,1-1.911-2.495,3.266,3.266,0,0,1,.208-1.779,3.4,3.4,0,0,1,.839-1.189,2.151,2.151,0,0,1,1.153-.642,10.2,10.2,0,0,0-.992.8,3.244,3.244,0,0,0-.889,2.756,2.8,2.8,0,0,0,2.909,2.56Z" transform="translate(-910.999 -189.121)" fill="#e8505b"/>
          </g>
        </g>
        <g id="Group_1843" data-name="Group 1843" transform="translate(26.642 20.316)">
          <g id="Group_1842" data-name="Group 1842" transform="translate(0)">
            <path id="Path_2477" data-name="Path 2477" d="M888.452,210.47a2.071,2.071,0,0,1-1-.1,5.4,5.4,0,0,1-3.551-3.134,2.058,2.058,0,0,1-.222-.981,6.419,6.419,0,0,1,.429.886,6.189,6.189,0,0,0,3.411,3.01A6.425,6.425,0,0,1,888.452,210.47Z" transform="translate(-883.667 -206.257)" fill="#87a1ff"/>
          </g>
        </g>
        <path id="Path_2480" data-name="Path 2480" d="M925.677,256.221l-9.332,7.281,3.917,6.43,11.238-8.28Z" transform="translate(-869.449 -204.939)" fill="#c3d0ff"/>
        <path id="Path_2481" data-name="Path 2481" d="M877.276,212.856s.045-.778-1.99-.891a21.365,21.365,0,0,0-2.262-.076A5.2,5.2,0,0,1,872.05,210a5.658,5.658,0,0,1,.436-1.918l2.06-.19-.559-1.4-1.452.1-4.1.492-1.632,7.178-11.19,20.888a5.393,5.393,0,0,0,2.137,7.852h0c2.892,1.4,6.769-1.57,7.841-4.6l6.192-23.234,2.179-1.7,3.121-.572" transform="translate(-846.012 -186.033)" fill="#c3d0ff"/>
        <path id="Path_2482" data-name="Path 2482" d="M849.966,377.849,865.2,290.2l-.022-.006c.032-.13.065-.252.1-.379l0-.017h0c2.593-10.28,6.59-13.576,6.59-13.576l23.315,1.463c1.983,3.564,2.234,12.113,2.234,12.113.271,1.048-6.371,85.76-6.371,85.76h-6.353l-1.618-100.765L856.889,377.849Z" transform="translate(-844.211 -212)" fill="#c3d0ff"/>
        <g id="Group_1856" data-name="Group 1856" transform="translate(0 161.696)">
          <g id="Group_1853" data-name="Group 1853" transform="translate(0 0)">
            <g id="Group_1852" data-name="Group 1852">
              <path id="Path_2483" data-name="Path 2483" d="M846.283,444.2l.44-3.511,7.581.773-.069,6.139-.5.038c-2.207.128-11.352.743-12.812-.325C839.3,446.125,846.283,444.2,846.283,444.2Z" transform="translate(-840.68 -440.692)" fill="#646784"/>
            </g>
          </g>
          <g id="Group_1855" data-name="Group 1855" transform="translate(10.661 4.796)" opacity="0.6">
            <g id="Group_1854" data-name="Group 1854">
              <path id="Path_2484" data-name="Path 2484" d="M857.881,444.165a2.564,2.564,0,0,1,1.068-1.555,2.843,2.843,0,0,1,1.883-.49l-.063,2.074Z" transform="translate(-857.881 -442.107)" fill="#646784"/>
            </g>
          </g>
        </g>
        <g id="Group_1858" data-name="Group 1858" transform="translate(0.097 167.351)" opacity="0.6">
          <g id="Group_1857" data-name="Group 1857" transform="translate(0)">
            <path id="Path_2485" data-name="Path 2485" d="M842.974,443.492s-2.4.574-2.113.946,9.4.612,13.433.39l-.007-.167-10.637-.195S843.438,443.523,842.974,443.492Z" transform="translate(-840.837 -443.492)" fill="#646784"/>
          </g>
        </g>
        <g id="Group_1861" data-name="Group 1861" transform="translate(0.122 168.17)">
          <g id="Group_1860" data-name="Group 1860" transform="translate(0)">
            <g id="Group_1859" data-name="Group 1859">
              <path id="Path_2486" data-name="Path 2486" d="M854.427,445.163a.756.756,0,0,1-.138.011l-.4.012-1.452.019c-1.227.009-2.922,0-4.794-.047s-3.566-.126-4.79-.2l-1.45-.094-.393-.032a.756.756,0,0,1-.137-.017.808.808,0,0,1,.138,0l.395.015,1.451.066c1.225.056,2.919.123,4.789.171s3.565.067,4.792.074l1.452.009.4,0A.967.967,0,0,1,854.427,445.163Z" transform="translate(-840.877 -444.814)" fill="#646784"/>
            </g>
          </g>
        </g>
        <g id="Group_1864" data-name="Group 1864" transform="translate(2.178 167.258)">
          <g id="Group_1863" data-name="Group 1863" transform="translate(0)">
            <g id="Group_1862" data-name="Group 1862">
              <path id="Path_2487" data-name="Path 2487" d="M844.925,444.525a2.941,2.941,0,0,0-.252-.65,3.144,3.144,0,0,0-.478-.53,1.058,1.058,0,0,1,.563.484A.946.946,0,0,1,844.925,444.525Z" transform="translate(-844.194 -443.343)" fill="#646784"/>
            </g>
          </g>
        </g>
        <g id="Group_1867" data-name="Group 1867" transform="translate(4.891 166.762)">
          <g id="Group_1866" data-name="Group 1866" transform="translate(0 0)">
            <g id="Group_1865" data-name="Group 1865">
              <path id="Path_2488" data-name="Path 2488" d="M848.979,443.172c-.023.013-.132-.118-.244-.292s-.183-.324-.159-.337.131.117.243.291S849,443.159,848.979,443.172Z" transform="translate(-848.572 -442.542)" fill="#646784"/>
            </g>
          </g>
        </g>
        <g id="Group_1870" data-name="Group 1870" transform="translate(5.467 166.659)">
          <g id="Group_1869" data-name="Group 1869" transform="translate(0)">
            <g id="Group_1868" data-name="Group 1868">
              <path id="Path_2489" data-name="Path 2489" d="M849.989,442.808c-.019.017-.143-.064-.276-.182s-.227-.229-.21-.247.143.063.276.182S850.007,442.79,849.989,442.808Z" transform="translate(-849.5 -442.376)" fill="#646784"/>
            </g>
          </g>
        </g>
        <g id="Group_1873" data-name="Group 1873" transform="translate(5.55 166.349)">
          <g id="Group_1872" data-name="Group 1872" transform="translate(0 0)">
            <g id="Group_1871" data-name="Group 1871">
              <path id="Path_2490" data-name="Path 2490" d="M850.47,441.927a1.962,1.962,0,0,1-.835-.013,1.021,1.021,0,0,1,.418-.038A1.01,1.01,0,0,1,850.47,441.927Z" transform="translate(-849.635 -441.875)" fill="#646784"/>
            </g>
          </g>
        </g>
        <g id="Group_1876" data-name="Group 1876" transform="translate(5.593 165.902)">
          <g id="Group_1875" data-name="Group 1875">
            <g id="Group_1874" data-name="Group 1874">
              <path id="Path_2491" data-name="Path 2491" d="M850.651,441.164a1.259,1.259,0,0,1-.946.041,2.746,2.746,0,0,1,.473-.017A2.554,2.554,0,0,1,850.651,441.164Z" transform="translate(-849.705 -441.155)" fill="#646784"/>
            </g>
          </g>
        </g>
        <g id="Group_1879" data-name="Group 1879" transform="translate(3.555 166.042)">
          <g id="Group_1878" data-name="Group 1878">
            <g id="Group_1877" data-name="Group 1877">
              <path id="Path_2492" data-name="Path 2492" d="M847.909,442.075a1.575,1.575,0,0,1-.513-.016,3.192,3.192,0,0,1-.543-.126,1.534,1.534,0,0,1-.309-.128.26.26,0,0,1-.123-.151.181.181,0,0,1,.084-.188.982.982,0,0,1,1.155.286.813.813,0,0,1,.158.323c.019.082.016.128.009.129a1.3,1.3,0,0,0-.221-.413.921.921,0,0,0-.43-.276.849.849,0,0,0-.612.022c-.084.054-.054.144.034.2a1.644,1.644,0,0,0,.285.121,3.757,3.757,0,0,0,.525.142C847.713,442.055,847.909,442.061,847.909,442.075Z" transform="translate(-846.417 -441.381)" fill="#646784"/>
            </g>
          </g>
        </g>
        <g id="Group_1882" data-name="Group 1882" transform="translate(4.857 165.847)">
          <g id="Group_1881" data-name="Group 1881" transform="translate(0)">
            <g id="Group_1880" data-name="Group 1880">
              <path id="Path_2493" data-name="Path 2493" d="M848.573,441.976a.444.444,0,0,1-.049-.333.746.746,0,0,1,.151-.345.523.523,0,0,1,.435-.232.188.188,0,0,1,.151.224.506.506,0,0,1-.093.211,1.512,1.512,0,0,1-.251.282.745.745,0,0,1-.3.185c-.008-.012.1-.083.251-.23a1.69,1.69,0,0,0,.224-.281c.073-.1.127-.279,0-.3a.469.469,0,0,0-.344.194.762.762,0,0,0-.154.306A1.644,1.644,0,0,0,848.573,441.976Z" transform="translate(-848.517 -441.065)" fill="#646784"/>
            </g>
          </g>
        </g>
        <g id="Group_1885" data-name="Group 1885" transform="translate(10.67 166.422)">
          <g id="Group_1884" data-name="Group 1884">
            <g id="Group_1883" data-name="Group 1883">
              <path id="Path_2494" data-name="Path 2494" d="M860.8,442.056c0,.017-.228-.026-.59,0a2.7,2.7,0,0,0-1.3.459,2.417,2.417,0,0,0-.837,1.035c-.131.316-.149.529-.167.526a.38.38,0,0,1,0-.149,1.79,1.79,0,0,1,.1-.4,2.306,2.306,0,0,1,.842-1.085A2.587,2.587,0,0,1,860.2,442a2.24,2.24,0,0,1,.439.022A.489.489,0,0,1,860.8,442.056Z" transform="translate(-857.896 -441.994)" fill="#646784"/>
            </g>
          </g>
        </g>
        <g id="Group_1888" data-name="Group 1888" transform="translate(7.344 167.752)">
          <g id="Group_1887" data-name="Group 1887" transform="translate(0 0)">
            <g id="Group_1886" data-name="Group 1886">
              <path id="Path_2495" data-name="Path 2495" d="M854.863,444.188a4.866,4.866,0,0,1-1.168.077,4.8,4.8,0,0,1-1.165-.118c0-.025.523.017,1.167.028S854.861,444.162,854.863,444.188Z" transform="translate(-852.53 -444.139)" fill="#646784"/>
            </g>
          </g>
        </g>
        <g id="Group_1891" data-name="Group 1891" transform="translate(11.004 167.836)">
          <g id="Group_1890" data-name="Group 1890">
            <g id="Group_1889" data-name="Group 1889">
              <path id="Path_2496" data-name="Path 2496" d="M858.674,444.279c.019.019-.046.1-.1.212s-.089.207-.117.205-.037-.119.03-.245S858.657,444.26,858.674,444.279Z" transform="translate(-858.435 -444.276)" fill="#646784"/>
            </g>
          </g>
        </g>
        <g id="Group_1894" data-name="Group 1894" transform="translate(11.542 167.169)">
          <g id="Group_1893" data-name="Group 1893" transform="translate(0 0)">
            <g id="Group_1892" data-name="Group 1892">
              <path id="Path_2497" data-name="Path 2497" d="M859.614,443.2c.019.018-.035.094-.12.169s-.169.123-.188.1.035-.094.12-.169S859.6,443.185,859.614,443.2Z" transform="translate(-859.303 -443.199)" fill="#646784"/>
            </g>
          </g>
        </g>
        <g id="Group_1897" data-name="Group 1897" transform="translate(12.247 166.837)">
          <g id="Group_1896" data-name="Group 1896" transform="translate(0 0)">
            <g id="Group_1895" data-name="Group 1895">
              <path id="Path_2498" data-name="Path 2498" d="M860.9,442.71c-.006.025-.113.021-.231.057s-.2.091-.225.073.049-.118.2-.159S860.91,442.687,860.9,442.71Z" transform="translate(-860.441 -442.664)" fill="#646784"/>
            </g>
          </g>
        </g>
        <g id="Group_1900" data-name="Group 1900" transform="translate(13.068 166.734)">
          <g id="Group_1899" data-name="Group 1899" transform="translate(0 0)">
            <g id="Group_1898" data-name="Group 1898">
              <path id="Path_2499" data-name="Path 2499" d="M862.009,442.515c.009.023-.038.061-.1.082s-.129.021-.138,0,.038-.06.105-.082S862,442.491,862.009,442.515Z" transform="translate(-861.765 -442.497)" fill="#646784"/>
            </g>
          </g>
        </g>
        <g id="Group_1903" data-name="Group 1903" transform="translate(44.743 29.288)">
          <path id="Path_2500" data-name="Path 2500" d="M912.871,220.734a15.373,15.373,0,0,1,6.171,2.43c7.372,4.779,19.7,14.884,18.677,19.564-.87,3.984-10.487,8.821-10.487,8.821l-6.244-7.512,3.828-2.189-9.412-6.26Z" transform="translate(-912.871 -220.734)" fill="#7794f3"/>
        </g>
        <g id="Group_1906" data-name="Group 1906" transform="translate(8.426 28.846)">
          <g id="Group_1905" data-name="Group 1905" transform="translate(0)">
            <path id="Path_2501" data-name="Path 2501" d="M894.8,235.678l-.306,1.12-1.084,5.18-.267,7.592c5.592,7.2,5.675,13.262,5.675,13.262l-28.244,3.3a55.089,55.089,0,0,1,2.04-12.605c1.634-2.772,1.556-11.065,1.25-11.368-1.765-1.748-2.193-3.031-.783-5.271,0,0-8.756,9.2-9.658,10.024-3.094,2.836-6.07,2.045-7.451.812-3.867-3.451.1-7.9.1-7.9l14.748-16.9a7.348,7.348,0,0,1,3.833-2.337c1.572-.371,3.158-.56,3.158-.56l9.848.084a16.574,16.574,0,0,1,2.934.358,7.043,7.043,0,0,1,4.3,5.331C895.774,230.026,894.8,235.678,894.8,235.678Z" transform="translate(-854.275 -220.021)" fill="#7794f3"/>
          </g>
        </g>
        <g id="Group_1917" data-name="Group 1917" transform="translate(27.803 55.429)">
          <path id="Path_2505" data-name="Path 2505" d="M885.54,266.706l.327-3.794H905.13l-.1,2.965Z" transform="translate(-885.54 -262.912)" fill="#fff"/>
        </g>
        <g id="Group_1920" data-name="Group 1920" transform="translate(12.032 48.368)">
          <g id="Group_1919" data-name="Group 1919">
            <path id="Path_2506" data-name="Path 2506" d="M860.093,251.518" transform="translate(-860.093 -251.518)" fill="none" stroke="#839198" stroke-miterlimit="10" stroke-width="0.05"/>
          </g>
        </g>
        <path id="Path_2508" data-name="Path 2508" d="M912.45,437.376l3.531,3.207v2.09l-9.776-.116-.207-5.18Z" transform="translate(-865.516 -273.816)" fill="#646784"/>
        <path id="Path_2509" data-name="Path 2509" d="M906.215,444.222a8.933,8.933,0,0,0,1.369.069c.847.015,2.016.01,3.305-.01l3.3-.069a10.266,10.266,0,0,0,1.367-.069,8.96,8.96,0,0,0-1.369-.067c-.847-.014-2.016-.009-3.306.012l-3.3.066A10.52,10.52,0,0,0,906.215,444.222Z" transform="translate(-865.598 -276.361)" fill="#646784"/>
        <path id="Path_2510" data-name="Path 2510" d="M912.743,437.544a13.691,13.691,0,0,0,.228,4.106,13.757,13.757,0,0,0-.228-4.106Z" transform="translate(-868.05 -273.88)" fill="#646784"/>
        <path id="Path_2511" data-name="Path 2511" d="M916.048,445.324,906.278,445l-.062-.927,9.342.08.495,1.064" transform="translate(-865.598 -276.361)" fill="#646784" opacity="0.6"/>
        <g id="Group_1930" data-name="Group 1930" transform="translate(4.301 58.394)">
          <g id="Group_1929" data-name="Group 1929" transform="translate(0 0)">
            <path id="Path_2512" data-name="Path 2512" d="M891.4,275.944c7.02,21.377-1.55,46.784.62,71.693.214,2.447,1.243,5.375-1.129,6.768a3.988,3.988,0,0,1-2.141.5c-1.9-.061-3.478-1.009-5.17-1.66a15.889,15.889,0,0,0-10.175-.381c-2.24.674-4.461,1.864-6.781,1.526-3.08-.449-5.077-3.387-7.913-4.633-2.654-1.166-5.721-.731-8.637-.8l-.087,0a6.353,6.353,0,0,1-6.043-8c4.238-14.975,17.3-63.706,23.521-72.587l19.591-.68A27.7,27.7,0,0,1,891.4,275.944Z" transform="translate(-843.707 -267.696)" fill="#c7cee1"/>
          </g>
        </g>
      </g>
      <path id="Path_2513" data-name="Path 2513" d="M7.091,14.528v1.387a.832.832,0,0,1-.832.832H4.127a.832.832,0,0,1-.832-.832V14.528a.832.832,0,0,1,.832-.832H6.259A.811.811,0,0,1,7.091,14.528ZM9.8,1.352A6.245,6.245,0,0,0,5.548,0,6.518,6.518,0,0,0,1.492,1.179,3.941,3.941,0,0,0,0,4.161a.556.556,0,0,0,.52.572l2.427.052a.886.886,0,0,0,.867-.607,1.691,1.691,0,0,1,.451-.763,1.814,1.814,0,0,1,1.266-.468,1.868,1.868,0,0,1,1.456.572,2.163,2.163,0,0,1,.5,1.526,3.016,3.016,0,0,1-.433,1.63,3.7,3.7,0,0,1-1.2,1.179,8.44,8.44,0,0,0-2.028,1.82,3.534,3.534,0,0,0-.537,1.734.587.587,0,0,0,.589.641H6.537a.6.6,0,0,0,.589-.52,3.483,3.483,0,0,1,.225-.971A2.614,2.614,0,0,1,8.34,9.535a6.039,6.039,0,0,0,2.15-1.872,4.48,4.48,0,0,0,.849-2.6A4.712,4.712,0,0,0,9.8,1.352Z" transform="translate(1173.009 445.109) rotate(27)" fill="#7794f3"/>
      <path id="Path_2514" data-name="Path 2514" d="M3.455,7.077v.676a.405.405,0,0,1-.405.405H2.01a.405.405,0,0,1-.405-.405V7.077a.405.405,0,0,1,.405-.405H3.049A.4.4,0,0,1,3.455,7.077ZM4.772.659A3.042,3.042,0,0,0,2.7,0,3.176,3.176,0,0,0,.727.574,1.92,1.92,0,0,0,0,2.027a.271.271,0,0,0,.253.279l1.182.025a.432.432,0,0,0,.422-.3.824.824,0,0,1,.22-.372.884.884,0,0,1,.617-.228.91.91,0,0,1,.709.279,1.054,1.054,0,0,1,.245.743,1.469,1.469,0,0,1-.211.794,1.8,1.8,0,0,1-.583.574,4.111,4.111,0,0,0-.988.887,1.721,1.721,0,0,0-.262.845.286.286,0,0,0,.287.312H3.184a.291.291,0,0,0,.287-.253,1.7,1.7,0,0,1,.11-.473,1.274,1.274,0,0,1,.481-.5A2.942,2.942,0,0,0,5.11,3.733a2.182,2.182,0,0,0,.414-1.267A2.3,2.3,0,0,0,4.772.659Z" transform="translate(1182.266 462.526) rotate(51)" fill="#7794f3"/>
      <path id="Path_2515" data-name="Path 2515" d="M3.511,7.192v.687a.412.412,0,0,1-.412.412H2.043a.412.412,0,0,1-.412-.412V7.192a.412.412,0,0,1,.412-.412H3.1A.4.4,0,0,1,3.511,7.192ZM4.849.669A3.092,3.092,0,0,0,2.747,0,3.227,3.227,0,0,0,.739.584,1.951,1.951,0,0,0,0,2.06a.275.275,0,0,0,.257.283l1.2.026a.439.439,0,0,0,.429-.3.837.837,0,0,1,.223-.378.9.9,0,0,1,.627-.232.925.925,0,0,1,.721.283,1.071,1.071,0,0,1,.249.755,1.493,1.493,0,0,1-.215.807,1.833,1.833,0,0,1-.592.584,4.178,4.178,0,0,0-1,.9,1.749,1.749,0,0,0-.266.858.291.291,0,0,0,.292.318H3.236a.3.3,0,0,0,.292-.257,1.724,1.724,0,0,1,.112-.481,1.294,1.294,0,0,1,.489-.506,2.99,2.99,0,0,0,1.064-.927,2.218,2.218,0,0,0,.421-1.287A2.333,2.333,0,0,0,4.849.669Z" transform="matrix(0.998, 0.07, -0.07, 0.998, 1157.97, 451.147)" fill="#7794f3"/>
    </g>
  </g>
</svg>
