<svg xmlns="http://www.w3.org/2000/svg" xmlns:xlink="http://www.w3.org/1999/xlink" width="151.798" height="155.247" viewBox="0 0 151.798 155.247">
  <defs>
    <clipPath id="clip-path">
      <path id="Path_3044" data-name="Path 3044" d="M74.624,55.247C33.41,55.247,0,21.056,0-21.121S33.78-83.347,74.624-97.489,149.248-63.3,149.248-21.121,115.837,55.247,74.624,55.247Z" transform="translate(0 100)" fill="none"/>
    </clipPath>
    <clipPath id="clip-path-2">
      <path id="Path_3043" data-name="Path 3043" d="M1525.931,662.255H-282V-346H1525.931Z" transform="translate(282 346)" fill="none"/>
    </clipPath>
  </defs>
  <g id="jobs" transform="translate(-601 -523)">
    <g id="jobs-2" data-name="jobs" transform="translate(601 523)" clip-path="url(#clip-path)">
      <g id="Group_2609" data-name="Group 2609" transform="translate(-1180.412 -419.68)" clip-path="url(#clip-path-2)">
        <path id="Path_3042" data-name="Path 3042" d="M161.208-105H-5V67.308H161.208Z" transform="translate(1176.932 516.15)" fill="#e9edfc"/>
      </g>
    </g>
    <g id="Group_2613" data-name="Group 2613" transform="translate(0 223)">
      <path id="Path_3045" data-name="Path 3045" d="M855.13,161.9,843.2,193.814h3.1L859.04,161.9Z" transform="translate(-202.182 256.323)" fill="#c3d0ff"/>
      <path id="Path_3046" data-name="Path 3046" d="M885.331,161.9l11.935,31.917h-3.1L881.421,161.9Z" transform="translate(-221.983 256.323)" fill="#c3d0ff"/>
      <path id="Path_3047" data-name="Path 3047" d="M851.416,71.654A11.875,11.875,0,0,0,838.4,78.223c-4.441,8.6-5,31.733,7.586,41.355s26.69,1.419,29.535-2.528S865.232,98.3,864.492,90.343,858.493,73.953,851.416,71.654Z" transform="translate(-200.512 296.225)" fill="#7794f3"/>
      <path id="Path_3048" data-name="Path 3048" d="M875.976,26.063s-1.6-3.454-8.511-4.564-12.953,2.837-13.939,7.648-.371,11.966-1.85,14.062S842.546,57.518,849.7,68.25s28.619,6.2,31.332-6.769-2.47-18.518-3.024-23.083S878.689,30.257,875.976,26.063Z" transform="translate(-205.335 317.886)" fill="#646784"/>
      <path id="Path_3049" data-name="Path 3049" d="M880.929,33.754s.568,12.495-1.136,15.335-6.906,1.727-6.906,1.727v5.211a12.75,12.75,0,0,1,6.155,1.234c2.714,1.481,3.207,7.031,2.467,12.089s-.37,5.8-.37,5.8,2.1,1.974,7.278,2.1,8.141,0,8.141,0,4.317-1.6,6.538-.74a12.288,12.288,0,0,1,3.947,2.714H863.5V54.547l3.331-.494V48.38s-3.454-.617-3.331-5.674,3.948-2.96,4.071-1.357c0,0,5.551-.092,9.128-7.571,0,0-.123,4.857-2.344,6.954,0,0,3.331-.74,5.181-8.882C879.536,31.85,879.668,31.858,880.929,33.754Z" transform="translate(-212.596 313.332)" fill="#dde4fd"/>
      <path id="Path_3050" data-name="Path 3050" d="M866.586,78.84c0,3.33-2.683,12.767-2.683,12.767s2.868,1.2,6.291,2.313a16.881,16.881,0,0,0,8.049.833c.448-.047.843-.107,1.207-.169a30.221,30.221,0,0,1,.829-4.179c3.33-5.706-.556-8.974-1.573-11.75a41.232,41.232,0,0,1-1.526-5.25L875,72.986a10.888,10.888,0,0,1,.933,3.355,2.134,2.134,0,0,1-1.665,2.5,3.684,3.684,0,0,1-4.719-2.128c-1.017-2.313-2.713-5.767-2.713-5.767l-3.331.494C865.661,72.086,866.586,75.509,866.586,78.84Z" transform="translate(-212.599 296.441)" fill="#7794f3"/>
      <path id="Path_3051" data-name="Path 3051" d="M886.992,119.379s8.882,1.974,17.64,10.732,21.34,29.482,21.34,29.482-1.357,3.824-5.057,2.961c0,0-17.27-16.28-19.12-21.524s-19.614-21.651-19.614-21.651Z" transform="translate(-220.668 275.515)" fill="#c9c9d6"/>
      <path id="Path_3052" data-name="Path 3052" d="M862.195,115.253a18.844,18.844,0,0,0-1.6,12.977c1.85,6.907,14.43,7.746,18.747,7.746H886.3a35.632,35.632,0,0,0-6.008,15.912,133.577,133.577,0,0,1-2.063,13.569,30.536,30.536,0,0,0,4.934.987c1.356,0,7.895-15.419,10.238-21.71s3.957-13.174,1.244-16.5-20.6-8.259-20.6-8.259Z" transform="translate(-211.291 277.298)" fill="#dedee9"/>
      <path id="Path_3053" data-name="Path 3053" d="M849.16,88.111s2.036-9.8,3.423-12.631,2.343-4.383,4.5-3.781,3.084,3.781,3.084,6.874-2.683,11.858-2.683,11.858,2.868,1.117,6.291,2.148a18.091,18.091,0,0,0,8.049.774c2.684-.258,3.608-.974,5.829.143a8.871,8.871,0,0,1,3.516,2.95c.185.344-.833.859-.833.859a1.3,1.3,0,0,1-.833.516,2.4,2.4,0,0,1-1.2,0s-.092.153-1.479.076-6.2-.506-6.2-.506-5.273.344-8.7.172-12.674-.257-13.137-1.289S849.16,88.111,849.16,88.111Z" transform="translate(-206.182 296.171)" fill="#dde4fd"/>
      <path id="Path_3054" data-name="Path 3054" d="M861.931,104.551a19.536,19.536,0,0,0-2.144.359,6.377,6.377,0,0,0-.989.331,8.946,8.946,0,0,0-.968.513,2.275,2.275,0,0,1,.746-.9,3.135,3.135,0,0,1,1.072-.5,3.827,3.827,0,0,1,1.165-.1A2.939,2.939,0,0,1,861.931,104.551Z" transform="translate(-210.148 282.051)" fill="#a0b5ff"/>
      <path id="Path_3055" data-name="Path 3055" d="M878.368,64.775l-2.187-.617,2.187,1.85Z" transform="translate(-218.077 299.374)" fill="#a0b5ff"/>
      <path id="Path_3056" data-name="Path 3056" d="M983.3,88.763h-39l9.031-31.61h39.005Z" transform="translate(-254.192 299.643)" fill="#a3b7ff"/>
      <rect id="Rectangle_834" data-name="Rectangle 834" width="131.849" height="6.752" transform="translate(620.95 391.809)" fill="#a3b7ff"/>
      <path id="Path_3057" data-name="Path 3057" d="M890.33,203.651a15.187,15.187,0,0,0-1.85,7s10.732.462,17.578,0c0,0-.185-2.262-4.718-3.4s-6.075-2.617-6.075-2.617Z" transform="translate(-223.39 239.105)" fill="#646784"/>
      <path id="Path_3058" data-name="Path 3058" d="M952.176,193.271a37.38,37.38,0,0,0,.831,4.562c.462,1.542,5,2.518,7.863,3.6s6.476,2.009,6.847,1.732,2.59-2.529-1.85-5.335a81.6,81.6,0,0,1-9.653-7.648S955.045,193.365,952.176,193.271Z" transform="translate(-250.91 244.923)" fill="#646784"/>
      <path id="Path_3059" data-name="Path 3059" d="M984.447,93.1h8.377l4.057,13.351h-14.79v-1.276h5.775Z" transform="translate(-275.31 285.359)" fill="#7794f3"/>
      <g id="Group_2611" data-name="Group 2611" transform="translate(4.644 -7.332)">
        <rect id="Rectangle_809" data-name="Rectangle 809" width="40.966" height="31.944" transform="translate(682.23 318.312)" fill="#fff" stroke="#c3d0ff" stroke-width="1"/>
        <g id="Group_2177" data-name="Group 2177" transform="translate(688.15 340.846)">
          <path id="Path_2763" data-name="Path 2763" d="M1177.035,159.552s-.7,4.527.028,7.348l6.973-.254s-1.43-4.5-.525-6.756Z" transform="translate(-1176.733 -159.552)" fill="#ebebeb"/>
        </g>
        <g id="Group_2185" data-name="Group 2185" transform="translate(688.48 340.681)">
          <g id="Group_2178" data-name="Group 2178" transform="translate(0 0)">
            <path id="Path_2764" data-name="Path 2764" d="M1178.575,158.626s.047,5.563.33,7.26l6.977-.33a49.834,49.834,0,0,1-.377-6.93Z" transform="translate(-1178.575 -158.626)" fill="#c3d0ff"/>
          </g>
        </g>
        <g id="Group_2187" data-name="Group 2187" transform="translate(692.382 320.244)">
          <path id="Path_2768" data-name="Path 2768" d="M1266.706,28.315s-.572,4.713.153,7.534l6.855-.35s-1.437-4.594-.531-6.845Z" transform="translate(-1266.492 -28.315)" fill="#ebebeb"/>
        </g>
        <g id="Group_2195" data-name="Group 2195" transform="translate(692.624 320.078)">
          <g id="Group_2188" data-name="Group 2188" transform="translate(0 0)">
            <path id="Path_2769" data-name="Path 2769" d="M1267.846,27.389s.047,5.563.33,7.26l6.977-.33a49.856,49.856,0,0,1-.377-6.93Z" transform="translate(-1267.846 -27.389)" fill="#c3d0ff"/>
          </g>
        </g>
        <g id="Group_2197" data-name="Group 2197" transform="translate(709.368 339.388)">
          <path id="Path_2773" data-name="Path 2773" d="M1318.092,157.8s-.564,5.152.161,7.974l6.885-.3s-1.476-5.083-.57-7.334Z" transform="translate(-1317.883 -157.805)" fill="#ebebeb"/>
        </g>
        <g id="Group_2205" data-name="Group 2205" transform="translate(709.605 339.568)">
          <g id="Group_2198" data-name="Group 2198" transform="translate(0 0)">
            <path id="Path_2774" data-name="Path 2774" d="M1319.206,156.879s.047,5.563.33,7.26l6.977-.33a49.807,49.807,0,0,1-.377-6.93Z" transform="translate(-1319.206 -156.879)" fill="#c3d0ff"/>
          </g>
        </g>
        <g id="Group_2217" data-name="Group 2217" transform="matrix(0.999, -0.035, 0.035, 0.999, 704.39, 330.447)">
          <path id="Path_2783" data-name="Path 2783" d="M.315,0S-.4,4.424.324,7.245l6.991-.15S5.885,2.59,6.791.338Z" transform="translate(0 0)" fill="#ebebeb"/>
        </g>
        <g id="Group_2225" data-name="Group 2225" transform="matrix(0.999, -0.035, 0.035, 0.999, 704.727, 330.27)">
          <g id="Group_2218" data-name="Group 2218" transform="translate(0 0)">
            <path id="Path_2784" data-name="Path 2784" d="M0,0S.047,5.563.33,7.26l6.977-.33A49.807,49.807,0,0,1,6.93,0Z" transform="translate(0 0)" fill="#7794f3"/>
          </g>
        </g>
        <path id="Path_2792" data-name="Path 2792" d="M1177.48,68.72s-.643,6.229.213,7.535l6.471-.4-.344-6.921Z" transform="translate(-493.358 260.604)" fill="#e0e0e0"/>
        <path id="Path_2793" data-name="Path 2793" d="M1178.545,68.72s.046,5.419.322,7.072l6.8-.322a48.49,48.49,0,0,1-.368-6.751Z" transform="translate(-494.422 260.604)" fill="#7794f3"/>
      </g>
    </g>
    <path id="Path_3060" data-name="Path 3060" d="M8.207,16.814v1.605a.963.963,0,0,1-.963.963H4.776a.963.963,0,0,1-.963-.963V16.814a.963.963,0,0,1,.963-.963H7.244A.939.939,0,0,1,8.207,16.814Zm3.13-15.249A7.228,7.228,0,0,0,6.422,0a7.544,7.544,0,0,0-4.7,1.364A4.561,4.561,0,0,0,0,4.816a.643.643,0,0,0,.6.662l2.809.06a1.025,1.025,0,0,0,1-.7,1.957,1.957,0,0,1,.522-.883A2.1,2.1,0,0,1,6.4,3.411a2.162,2.162,0,0,1,1.685.662,2.5,2.5,0,0,1,.582,1.766,3.49,3.49,0,0,1-.5,1.886A4.286,4.286,0,0,1,6.783,9.089,9.768,9.768,0,0,0,4.435,11.2,4.09,4.09,0,0,0,3.813,13.2a.68.68,0,0,0,.682.742h3.07a.692.692,0,0,0,.682-.6,4.031,4.031,0,0,1,.261-1.124,3.026,3.026,0,0,1,1.144-1.184A6.989,6.989,0,0,0,12.14,8.869a5.185,5.185,0,0,0,.983-3.01A5.454,5.454,0,0,0,11.338,1.565Z" transform="matrix(0.961, -0.276, 0.276, 0.961, 639.307, 539.121)" fill="#7794f3"/>
  </g>
</svg>
