<svg xmlns="http://www.w3.org/2000/svg" xmlns:xlink="http://www.w3.org/1999/xlink" width="149.248" height="169.359" viewBox="0 0 149.248 169.359">
  <defs>
    <clipPath id="clip-path">
      <path id="Path_2909" data-name="Path 2909" d="M74.624,55.247C33.41,55.247,0,21.056,0-21.121S33.78-83.347,74.624-97.489,149.248-63.3,149.248-21.121,115.837,55.247,74.624,55.247Z" transform="translate(0 100)" fill="none"/>
    </clipPath>
    <clipPath id="clip-path-2">
      <path id="Path_2908" data-name="Path 2908" d="M1525.931,662.255H-282V-346H1525.931Z" transform="translate(282 346)" fill="none"/>
    </clipPath>
  </defs>
  <g id="my_login_history" data-name="my login history" transform="translate(-345 -515.743)">
    <g id="Group_2564" data-name="Group 2564" transform="translate(345 523)" clip-path="url(#clip-path)">
      <g id="Group_2563" data-name="Group 2563" transform="translate(-1180.412 -419.68)" clip-path="url(#clip-path-2)">
        <path id="Path_2907" data-name="Path 2907" d="M161.208-105H-5V67.308H161.208Z" transform="translate(1176.932 516.15)" fill="#e9edfc"/>
      </g>
    </g>
    <path id="Path_2906" data-name="Path 2906" d="M761.34,138.751H689.156V265.868H761.34Z" transform="translate(-277.084 398.87)" fill="#c3d0ff"/>
    <path id="Path_2883" data-name="Path 2883" d="M743.133,152.578H688.919v10.208h54.214Z" transform="translate(-267.748 449.286)" fill="#fff"/>
    <path id="Path_2903" data-name="Path 2903" d="M743.133,152.578H688.919v10.208h54.214Z" transform="translate(-267.748 464.884)" fill="#fff"/>
    <path id="Path_2884" data-name="Path 2884" d="M718.893,138.751H689.156v4.628h29.736Z" transform="translate(-267.856 452.608)" fill="#407bff"/>
    <path id="Path_2891" data-name="Path 2891" d="M697.009,160.6a1.728,1.728,0,0,1-1.709,1.636,1.551,1.551,0,0,1-1.563-1.636,1.728,1.728,0,0,1,1.709-1.635A1.551,1.551,0,0,1,697.009,160.6Z" transform="translate(-269.95 446.365)" fill="#c3d0ff"/>
    <path id="Path_2894" data-name="Path 2894" d="M694.74,211.347a1.726,1.726,0,0,1-1.708,1.635,1.55,1.55,0,0,1-1.563-1.635,1.727,1.727,0,0,1,1.709-1.636A1.55,1.55,0,0,1,694.74,211.347Z" transform="translate(-267.827 411.08)" fill="#c3d0ff"/>
    <g id="Group_2571" data-name="Group 2571" transform="translate(-6522 -779)">
      <path id="Path_2910" data-name="Path 2910" d="M630.686,50.364c-.18.266-.271.413-.39.6l-.321.537c-.209.355-.391.71-.574,1.065-.359.71-.7,1.421-1,2.139a39.469,39.469,0,0,0-1.557,4.379,45.9,45.9,0,0,0-1.7,9l-.056.567c-.01.081-.017.209-.023.343l-.016.386a9.089,9.089,0,0,0,.087,1.493,12.011,12.011,0,0,0,.712,2.674,18.279,18.279,0,0,0,2.484,4.294,30.544,30.544,0,0,0,6.684,6.327l1.977-2.316a41.508,41.508,0,0,1-4.768-6.6,15.384,15.384,0,0,1-1.456-3.389,6.714,6.714,0,0,1-.235-1.539,3.684,3.684,0,0,1,.024-.668l.022-.154c.005-.047.011-.1.029-.2l.09-.506a56.31,56.31,0,0,1,1.952-7.9c.413-1.282.923-2.522,1.441-3.74.256-.611.539-1.2.829-1.782l.446-.843.221-.4.182-.314Z" transform="translate(6249.008 1289.449)" fill="#a0b5ff"/>
      <path id="Path_2911" data-name="Path 2911" d="M629.147,96.4l-2.6,5.489-2.062-4.642s1.827-4.021,4.3-3.653Z" transform="translate(6257.25 1277.266)" fill="#a0b5ff"/>
      <path id="Path_2912" data-name="Path 2912" d="M630.171,103.608l-2.064-3.385,1.866-1.529,2.062,4.642Z" transform="translate(6251.762 1275.822)" fill="#a0b5ff"/>
      <path id="Path_2917" data-name="Path 2917" d="M599.707,21.069c.729,3.077,2.366,9.79-.236,11.843,0,0,1.017,3.121,7.926,3.121,7.6,0,3.63-3.121,3.63-3.121-4.147-.819-4.039-3.365-3.317-5.756Z" transform="translate(6292.924 1300.101)" fill="#a0b5ff"/>
      <path id="Union_18" data-name="Union 18" d="M1.312,5.7a16.324,16.324,0,0,0-.09,2.169A1.615,1.615,0,0,0,0,8.339a8.686,8.686,0,0,1,1.41,1.795c.575,4.007,2.478,8.159,6.247,9.175A7.019,7.019,0,0,0,16.4,11.17c-.943-5.059-1.235-7.221-4.134-9.519A7.34,7.34,0,0,0,7.7,0,6.308,6.308,0,0,0,1.312,5.7Z" transform="translate(6908.921 1327.407) rotate(180)" fill="#a0b5ff" stroke="rgba(0,0,0,0)" stroke-miterlimit="10" stroke-width="1"/>
      <path id="Path_2928" data-name="Path 2928" d="M626.55,42.066c-2.5.548-5.168,9.536-5.168,9.536l7.065,7.512s5.861-8.442,4.667-11.547C631.871,44.335,629.5,41.419,626.55,42.066Z" transform="translate(6255.35 1291.814)" fill="#7794f3"/>
      <path id="Path_2929" data-name="Path 2929" d="M623.46,49.781c1.263-1.156,2.117-.811,2.7.108.575,2.671-2.829,8.265-4.2,10.383C621.327,57.744,620.6,52.409,623.46,49.781Z" transform="translate(6262.4 1289.82)" opacity="0.4"/>
      <path id="Path_2930" data-name="Path 2930" d="M617.332,41.661s2.865,1.009-2.874,36.3H590.03c.409-9.942.421-16.072-4.33-36.475a72.125,72.125,0,0,1,10.372-1.366,77.724,77.724,0,0,1,11.092,0C611.929,40.555,617.332,41.661,617.332,41.661Z" transform="translate(6296.2 1292.394)" fill="#7794f3"/>
      <path id="Path_2931" data-name="Path 2931" d="M590.2,59.6c-.157,1.716-.365,3.648-.639,5.831-2-1.8-3.635-6.926-3.037-9.916A17.639,17.639,0,0,1,590.2,59.6Z" transform="translate(6323.553 1287.995)" opacity="0.4"/>
      <path id="Path_2932" data-name="Path 2932" d="M545.169,52.857a105.917,105.917,0,0,0,4.44,9.733,59.749,59.749,0,0,0,5.734,9.331l.459.566.23.281a3.99,3.99,0,0,0,.268.309,8.817,8.817,0,0,0,1.418,1.261,11.654,11.654,0,0,0,3,1.5,21.818,21.818,0,0,0,5.773,1.017,42.781,42.781,0,0,0,10.885-.966l-.4-3.019c-1.65.009-3.381-.029-5.05-.134a40.063,40.063,0,0,1-4.93-.551,19.307,19.307,0,0,1-4.409-1.229A6.792,6.792,0,0,1,561,69.989a3.236,3.236,0,0,1-.491-.514,2.031,2.031,0,0,1-.147-.2l-.167-.237-.335-.472a72.46,72.46,0,0,1-4.807-8.7c-1.457-3.055-2.863-6.22-4.182-9.31Z" transform="translate(6366.108 1413.033) rotate(-13)" fill="#a0b5ff"/>
      <path id="Path_2933" data-name="Path 2933" d="M584.307,42.264c2.989.729,6.668,8.936,6.668,8.936l-6.2,9.116s-8.261-10.4-7.279-13.578C578.514,43.429,580.68,41.379,584.307,42.264Z" transform="translate(6329.225 1291.791)" fill="#7794f3"/>
      <path id="Path_2934" data-name="Path 2934" d="M540.951,81.314l5.175-2.39.521,5.145s-4.326,1.273-6.458-.032Z" transform="translate(6397.737 1397.524) rotate(-13)" fill="#a0b5ff"/>
      <path id="Path_2935" data-name="Path 2935" d="M539.008,78.2l.493,3.918-3.073,1.747-.521-5.145Z" transform="translate(6407.739 1395.424) rotate(-13)" fill="#a0b5ff"/>
      <path id="Path_2937" data-name="Path 2937" d="M613.745,7.154c.29,2.579.4,9.282-5.266,9.492-6.945.258-9.024-5.675-8.405-8.048C596.463,5.658,595.94.6,600-3.267S613-4.973,615.5-1.2C618.595,3.469,613.745,7.154,613.745,7.154Z" transform="translate(6289.889 1310.149)" fill="#636683"/>
      <path id="Path_2938" data-name="Path 2938" d="M623.286-2.412c.335-2.72.075-4.6-2.47-4.6s-6.027.925-7.3,3.532-1.381,6.683,2.179,6.271S622.884.845,623.286-2.412Z" transform="translate(6273.394 1310.797)" fill="#7794f3"/>
      <path id="Path_2939" data-name="Path 2939" d="M635.14-8.631c.607-3.246-2.285-12.379-9.339-12.973-3.268-.275-4.781,3.242-3.069,3.821-3.087-.038-5.076,4.054-2.19,4.67-2.282,1.458-1.714,4.458,1.536,5.928C624.474-6.1,634.3-4.139,635.14-8.631Z" transform="translate(6257.592 1316.361)" fill="#636683"/>
      <path id="Path_2941" data-name="Path 2941" d="M600.965,13.228a3.857,3.857,0,0,1,.663,2.8c-.207,1.3-1.472,1.384-2.389.552-.825-.749-1.711-2.328-1.036-3.4A1.628,1.628,0,0,1,600.965,13.228Z" transform="translate(6304.25 1303.391)" fill="#a0b5ff"/>
      <g id="Group_2570" data-name="Group 2570" transform="translate(6885.412 1371.297)">
        <path id="Path_2922" data-name="Path 2922" d="M600.691,269.055l5.148,1.2,3.128-11.841-5.148-1.2Z" transform="translate(-551.267 -262.855) rotate(7)" fill="#a0b5ff"/>
        <path id="Path_2923" data-name="Path 2923" d="M618.368,274.308h5.286l-.415-12.242h-5.286Z" transform="translate(-615.498 -186.901)" fill="#a0b5ff"/>
        <path id="Path_2924" data-name="Path 2924" d="M613.443,280.494h-6.919a.487.487,0,0,0-.491.421l-.788,5.474a.988.988,0,0,0,.987,1.1c2.412-.042,3.575-.183,6.618-.183,1.872,0,4.606.194,7.191.194,2.529,0,2.723-2.556,1.646-2.787-4.826-1.038-5.589-2.47-7.214-3.835A1.609,1.609,0,0,0,613.443,280.494Z" transform="translate(-603.706 -194.69)" fill="#646784"/>
        <path id="Path_2925" data-name="Path 2925" d="M10.055,2.939,3.77.048a.488.488,0,0,0-.623.176l-3,4.644A.989.989,0,0,0,.582,6.275c2.209.971,3.324,1.328,6.088,2.6,1.7.782,5.136,2.577,7.485,3.657,2.3,1.057,3.542-1.184,2.661-1.845-3.951-2.96-5.078-5.054-5.985-6.974A1.61,1.61,0,0,0,10.055,2.939Z" transform="matrix(0.996, -0.087, 0.087, 0.996, 8.249, 76.395)" fill="#646784"/>
        <path id="Path_2942" data-name="Path 2942" d="M619.371,92.9s-3.068,25.959-6.251,40.59c-2.571,11.817-4.6,39.438-4.6,39.438h-7.209s-2.563-26.8-1.259-38.484c3.3-29.575-4.062-31.984,3.518-41.544Z" transform="translate(-599.683 -92.671)" fill="#c9c9d6"/>
        <path id="Path_2943" data-name="Path 2943" d="M6.81,35.405A35.2,35.2,0,0,1,0,25.131C.839,16.977,1.837,7.927,2.9,0A69.652,69.652,0,0,1,6.81,35.405Z" transform="matrix(-0.998, -0.07, 0.07, -0.998, 14.976, 47.676)" fill="#b7b7b7" opacity="0.4"/>
        <path id="Path_2944" data-name="Path 2944" d="M597.865,92.537s6.655,31.92,7.707,46.307c-2.614,13.3-12.66,28.2-12.66,28.2l-6.2-2.677s4.6-17.128,8.568-25.523C586.4,114.762,577.9,109.127,579.8,92.722,584.324,92.722,597.865,92.537,597.865,92.537Z" transform="translate(-573.131 -92.537)" fill="#c9c9d6"/>
        <path id="Path_2945" data-name="Path 2945" d="M606.238,264.407,597.378,262l.5-3.532,9.487,2.565Z" transform="translate(-542.977 -270.864) rotate(8)" fill="#afafd5"/>
        <path id="Path_2946" data-name="Path 2946" d="M624.892,268.285H615.71l-.482-3.222,9.716-.328Z" transform="translate(-615.067 -187.885)" fill="#afafd5"/>
      </g>
      <g id="Group_2566" data-name="Group 2566" transform="translate(6884.742 1368.739)">
        <path id="Path_2947" data-name="Path 2947" d="M590.764,90.848l-1.1,2.377c-.085.184.116.372.4.372h25.618c.22,0,.4-.117.416-.268l.22-2.378c.015-.165-.176-.3-.416-.3H591.163A.433.433,0,0,0,590.764,90.848Z" transform="translate(-589.643 -90.648)" fill="#636683"/>
        <path id="Path_2948" data-name="Path 2948" d="M590.764,90.848l-1.1,2.377c-.085.184.116.372.4.372h25.618c.22,0,.4-.117.416-.268l.22-2.378c.015-.165-.176-.3-.416-.3H591.163A.433.433,0,0,0,590.764,90.848Z" transform="translate(-589.643 -90.648)" fill="#636683" opacity="0.5"/>
      </g>
      <path id="Path_2949" data-name="Path 2949" d="M620.7,93.522h-.662c-.133,0-.233-.068-.223-.152l.31-2.841c.009-.083.124-.152.256-.152h.663c.131,0,.233.068.223.152l-.311,2.841C620.944,93.453,620.828,93.522,620.7,93.522Z" transform="translate(6268.49 1278.167)" fill="#407bff"/>
      <g id="Group_2569" data-name="Group 2569" transform="translate(6883.386 1332.558)">
        <path id="Path_2950" data-name="Path 2950" d="M604.121,58.466a.358.358,0,0,0,.346-.265c2.343-8.655,7.212-15.774,9.534-16.872a.8.8,0,0,1,.605-.1.359.359,0,1,0,.3-.655,1.417,1.417,0,0,0-1.207.1c-2.479,1.173-7.39,8.209-9.847,17.067-1.761-.022-4.477-.242-5.133-.3-.821-.974-6.842-8.5-4.589-16.733a.359.359,0,1,0-.693-.19c-2.507,9.164,4.764,17.426,4.838,17.508a.357.357,0,0,0,.236.118C598.543,58.156,602.123,58.466,604.121,58.466Z" transform="translate(-589.428 -40.261)" fill="#e9edfc"/>
        <g id="Group_2568" data-name="Group 2568" transform="translate(0 7.216)">
          <g id="Group_2567" data-name="Group 2567">
            <path id="Path_2951" data-name="Path 2951" d="M606.372,66.375c3.914-7.337,5.515-7.85,6.215-10.209a12.13,12.13,0,0,0-2.232-3.584c.48-.133,1.5-.337,2.134-.46-.073-.321-.146-.638-.219-.943a6.763,6.763,0,0,1,2.189.1l.025-.724a9.161,9.161,0,0,1,2.782-.177c-.08.334-.161.681-.241,1.034.7.135,1.814.358,2.34.5a10.276,10.276,0,0,0-2.193,4c2.107,3.623,10.31,26.934-3.027,28.688S602.458,73.713,606.372,66.375Z" transform="translate(-603.573 -50.31)" fill="#e9edfc"/>
            <path id="Path_2952" data-name="Path 2952" d="M606.372,66.375c3.914-7.337,5.515-7.85,6.215-10.209a12.13,12.13,0,0,0-2.232-3.584c.48-.133,1.5-.337,2.134-.46-.073-.321-.146-.638-.219-.943a6.763,6.763,0,0,1,2.189.1l.025-.724a9.161,9.161,0,0,1,2.782-.177c-.08.334-.161.681-.241,1.034.7.135,1.814.358,2.34.5a10.276,10.276,0,0,0-2.193,4c2.107,3.623,10.31,26.934-3.027,28.688S602.458,73.713,606.372,66.375Z" transform="translate(-603.573 -50.31)" fill="#c3d0ff" opacity="0.4"/>
          </g>
          <path id="Path_2953" data-name="Path 2953" d="M614.525,57.087a4.635,4.635,0,0,1,.1,1.122c.014.269-.7.449-1.511.523s-4.143.209-4.039-.164-.164-.883-.18-1.2,1.332-.329,2.454-.284S614.3,56.684,614.525,57.087Z" transform="translate(-600.428 -52.173)" fill="#636683"/>
        </g>
      </g>
      <path id="Path_2954" data-name="Path 2954" d="M598.333,93.522h-.663c-.132,0-.232-.068-.223-.152l.311-2.841c.009-.083.124-.152.256-.152h.663c.131,0,.232.068.223.152l-.311,2.841C598.58,93.453,598.465,93.522,598.333,93.522Z" transform="translate(6306.912 1278.167)" fill="#e9eefd"/>
    </g>
    <path id="Path_2905" data-name="Path 2905" d="M727.1,138.751H689.156v9.688H727.1Z" transform="translate(-259.628 505.975)" fill="#407bff"/>
    <path id="Path_2892" data-name="Path 2892" d="M710.5,160.6a1.727,1.727,0,0,1-1.709,1.636,1.55,1.55,0,0,1-1.562-1.636,1.726,1.726,0,0,1,1.708-1.635A1.551,1.551,0,0,1,710.5,160.6Z" transform="translate(-276.116 446.365)" fill="#c3d0ff"/>
    <path id="Path_2893" data-name="Path 2893" d="M723.983,160.6a1.728,1.728,0,0,1-1.709,1.636,1.551,1.551,0,0,1-1.563-1.636,1.727,1.727,0,0,1,1.709-1.635A1.551,1.551,0,0,1,723.983,160.6Z" transform="translate(-282.282 446.365)" fill="#c3d0ff"/>
    <path id="Path_2895" data-name="Path 2895" d="M708.227,211.347a1.727,1.727,0,0,1-1.709,1.635,1.551,1.551,0,0,1-1.563-1.635,1.727,1.727,0,0,1,1.709-1.636A1.551,1.551,0,0,1,708.227,211.347Z" transform="translate(-273.993 411.08)" fill="#c3d0ff"/>
    <path id="Path_2896" data-name="Path 2896" d="M721.714,211.347a1.727,1.727,0,0,1-1.709,1.635,1.551,1.551,0,0,1-1.563-1.635,1.728,1.728,0,0,1,1.709-1.636A1.55,1.55,0,0,1,721.714,211.347Z" transform="translate(-280.159 411.08)" fill="#c3d0ff"/>
    <circle id="Ellipse_357" data-name="Ellipse 357" cx="16" cy="16" r="16" transform="translate(432 547)" fill="#fff"/>
    <path id="Path_2900" data-name="Path 2900" d="M743.18,103.323c-2.682,3.475-7.916,5.85-12.539,5.85a15.855,15.855,0,0,1-12.112-6.318c2.639-2.627,7.488-3.534,12.112-3.534S741.051,100.47,743.18,103.323Z" transform="translate(-283.285 470.092)" fill="#407bff"/>
    <path id="Path_2897" data-name="Path 2897" d="M735.2,211.347a1.728,1.728,0,0,1-1.709,1.635,1.55,1.55,0,0,1-1.562-1.635,1.727,1.727,0,0,1,1.709-1.636A1.551,1.551,0,0,1,735.2,211.347Z" transform="translate(-286.326 411.08)" fill="#c3d0ff"/>
    <ellipse id="Ellipse_358" data-name="Ellipse 358" cx="6" cy="6.5" rx="6" ry="6.5" transform="translate(442 554)" fill="#407bff"/>
  </g>
</svg>
