<svg xmlns="http://www.w3.org/2000/svg" width="124.352" height="127.797" viewBox="0 0 124.352 127.797">
    <defs>
        <filter id="Path_1765" width="94.226" height="94.226" x="13.794" y="23.546" filterUnits="userSpaceOnUse">
            <feOffset dy="3"/>
            <feGaussianBlur result="blur" stdDeviation="3"/>
            <feFlood flood-opacity=".161"/>
            <feComposite in2="blur" operator="in"/>
            <feComposite in="SourceGraphic"/>
        </filter>
        <style>
            .cls-3{fill:#87a1f7}.cls-2{fill:#fff}
        </style>
    </defs>
    <g id="thermal-illustration" transform="translate(15.02 -421)">
        <path id="Path_2409" fill="#87a1f7" d="M99.176-192.2c34.339 0 62.176-28.146 62.176-62.865s-28.146-51.223-62.176-62.865S37-289.787 37-255.068 64.837-192.2 99.176-192.2z" data-name="Path 2409" opacity="0.1" transform="translate(-52.02 741)"/>
        <g id="Group_971" data-name="Group 971" transform="translate(7.775 450.546)">
            <g id="Group_965" data-name="Group 965">
                <g filter="url(#Path_1765)" transform="translate(-22.79 -29.55)">
                    <path id="Path_1765-2" d="M3069.1 712.27h-57.561a9.345 9.345 0 0 0-9.331 9.333v57.56a9.348 9.348 0 0 0 9.333 9.333h57.56a9.329 9.329 0 0 0 9.333-9.333V721.6a9.345 9.345 0 0 0-9.332-9.333z" class="cls-2" data-name="Path 1765" transform="translate(-2979.42 -682.72)"/>
                </g>
                <path id="Path_1765-3" d="M3058.422 712.27h-48.369a7.853 7.853 0 0 0-7.841 7.843v48.369a7.856 7.856 0 0 0 7.842 7.843h48.369a7.84 7.84 0 0 0 7.842-7.842v-48.37a7.853 7.853 0 0 0-7.843-7.843z" class="cls-2" data-name="Path 1765" transform="translate(-2996.125 -706.184)"/>
                <path id="Path_1764" d="M3056.995 831.733l-8.59-20.746a.785.785 0 0 0-1.45 0l-8.532 20.681a.783.783 0 0 0 1.093.992l7.908-4.173 8.483 4.242a.785.785 0 0 0 1.089-1z" class="cls-3" data-name="Path 1764" transform="translate(-3021.333 -774.627)"/>
                <path id="Union_30" d="M17.046 19.58l2.546-2.546 1.724 1.724L18.77 21.3zM13.6 16.163l2.546-2.544 1.724 1.723-2.55 2.545zm-3.341-3.416L12.8 10.2l1.723 1.724-2.544 2.546zM6.838 9.331l2.545-2.546 1.724 1.724-2.545 2.546zM3.422 6l2.545-2.546 1.724 1.724-2.545 2.544zM0 2.544L2.546 0 4.27 1.724 1.724 4.268z" class="cls-3" data-name="Union 30" transform="translate(44.517 11.456)"/>
                <path id="Path_1765-4" fill="#b4b4c5" d="M3058.422 712.27h-48.369a7.853 7.853 0 0 0-7.841 7.843v48.369a7.856 7.856 0 0 0 7.842 7.843h48.369a7.84 7.84 0 0 0 7.842-7.842v-48.37a7.853 7.853 0 0 0-7.843-7.843zm-25.717 3.625l-10.637 10.637-10.637-10.637zm-26.87 4.218a4.206 4.206 0 0 1 1.474-3.2L3019.5 729.1l-13.665 13.664zm4.218 52.587a4.222 4.222 0 0 1-4.218-4.218v-20.591l16.226-16.225L3045 754.6l-18.1 18.1zm48.369 0h-26.391l15.545-15.546 14.062 14.061a4.214 4.214 0 0 1-3.216 1.49zm-8.3-18.1l12.253-12.253.267.266v24.5zm-2.565-2.565l-22.931-22.93 12.252-12.253 1.636 1.636 2.566-2.565-.045-.045h17.378a4.223 4.223 0 0 1 4.219 4.217v16.843z" data-name="Path 1765" transform="translate(-2996.125 -706.184)"/>
            </g>
        </g>
    </g>
</svg>
