<svg xmlns="http://www.w3.org/2000/svg" xmlns:xlink="http://www.w3.org/1999/xlink" width="165.175" height="155.247" viewBox="0 0 165.175 155.247">
  <defs>
    <clipPath id="clip-path">
      <path id="Path_1968" data-name="Path 1968" d="M74.624,55.247c41.214,0,74.624-34.191,74.624-76.368s-33.78-62.226-74.624-76.368S0-63.3,0-21.121,33.41,55.247,74.624,55.247Z" transform="translate(0 100)" fill="none"/>
    </clipPath>
    <clipPath id="clip-path-2">
      <path id="Path_1967" data-name="Path 1967" d="M-282,662.255H1525.929V-346H-282Z" transform="translate(282 346)" fill="none"/>
    </clipPath>
    <clipPath id="clip-path-3">
      <path id="Path_2651" data-name="Path 2651" d="M587.817,91.923l-1.334-.628-.219.051-.147.032-.2.031-.134.017-.242.021-.258.011h-.2l-.268-.011-.217-.017-.243-.032-.213-.037-.289-.068-.206-.06-.216-.076-.906-4.421-16.1-9.42,2.8-1.885,17.451,8.446,11.195,6.314,5.625,6.442-2.887,2.4Z" transform="translate(-566.428 -75.433)" fill="none"/>
    </clipPath>
    <linearGradient id="linear-gradient" x1="-7.81" y1="0.5" x2="-6.81" y2="0.5" gradientUnits="objectBoundingBox">
      <stop offset="0" stop-color="#98b9ea"/>
      <stop offset="1" stop-color="#6f9cd1"/>
    </linearGradient>
    <linearGradient id="linear-gradient-2" x1="-350.066" y1="0.5" x2="-349.067" y2="0.5" gradientUnits="objectBoundingBox">
      <stop offset="0" stop-color="#ebebeb"/>
      <stop offset="0.021" stop-color="#e5e5e5"/>
      <stop offset="0.147" stop-color="#c7c7c7"/>
      <stop offset="0.271" stop-color="#b1b1b1"/>
      <stop offset="0.39" stop-color="#a4a4a4"/>
      <stop offset="0.5" stop-color="#a0a0a0"/>
      <stop offset="0.601" stop-color="#a6a6a6"/>
      <stop offset="0.744" stop-color="#b9b9b9"/>
      <stop offset="0.911" stop-color="#d7d7d7"/>
      <stop offset="1" stop-color="#ebebeb"/>
    </linearGradient>
    <linearGradient id="linear-gradient-3" x1="-7.114" y1="0.023" x2="-6.189" y2="1.012" xlink:href="#linear-gradient"/>
    <clipPath id="clip-path-4">
      <path id="Path_2677" data-name="Path 2677" d="M530.347,58.684l-2.134.686-.268-.012-.218-.018-.245-.034-.21-.035-.292-.067-.2-.06-.217-.074-.871-3.846-16.451-9.584,3.111-2.3L529.8,51.791,541,58.1l5.623,6.441-2.886,2.4Z" transform="translate(-509.552 -43.345)" fill="none"/>
    </clipPath>
    <linearGradient id="linear-gradient-4" x1="-7.809" y1="0.5" x2="-6.809" y2="0.5" xlink:href="#linear-gradient"/>
    <linearGradient id="linear-gradient-5" x1="-295.384" y1="0.5" x2="-294.385" y2="0.5" xlink:href="#linear-gradient-2"/>
    <linearGradient id="linear-gradient-6" x1="-7.112" y1="0.023" x2="-6.188" y2="1.012" xlink:href="#linear-gradient"/>
    <clipPath id="clip-path-5">
      <path id="Path_2703" data-name="Path 2703" d="M525.737,91.022l1.663.34h1.665l.288-.068.206-.06.216-.076,14.73-3.093,2.276-10.747-2.794-1.885-17.451,8.446-11.2,6.314-5.625,6.442,2.889,2.4Z" transform="translate(-509.714 -75.433)" fill="none"/>
    </clipPath>
    <linearGradient id="linear-gradient-7" x1="-66.995" y1="0.5" x2="-65.995" y2="0.5" xlink:href="#linear-gradient"/>
    <linearGradient id="linear-gradient-8" x1="24.226" y1="0.5" x2="25.226" y2="0.5" xlink:href="#linear-gradient-2"/>
    <linearGradient id="linear-gradient-9" x1="-59.479" y1="0.023" x2="-58.555" y2="1.012" xlink:href="#linear-gradient"/>
    <clipPath id="clip-path-6">
      <path id="Path_2729" data-name="Path 2729" d="M582.135,59.656l1.387-.45.219.052.148.029.2.032.133.017.24.02.259.011h.194l.268-.011.22-.017.242-.031.212-.037.291-.068.2-.06.217-.076.869-3.845,15.89-10.111-2.551-1.769-17.45,8.445-11.2,6.315-5.623,6.442,2.886,2.4Z" transform="translate(-566.51 -43.343)" fill="none"/>
    </clipPath>
    <linearGradient id="linear-gradient-10" x1="-76.959" y1="0.5" x2="-75.959" y2="0.5" xlink:href="#linear-gradient"/>
    <linearGradient id="linear-gradient-11" x1="24.203" y1="0.5" x2="25.203" y2="0.5" xlink:href="#linear-gradient-2"/>
    <linearGradient id="linear-gradient-12" x1="-68.601" y1="0.024" x2="-67.676" y2="1.012" xlink:href="#linear-gradient"/>
  </defs>
  <g id="missions" transform="translate(-89 -87)">
    <g id="Group_1152" data-name="Group 1152" transform="translate(89 87)" clip-path="url(#clip-path)">
      <g id="Group_1151" data-name="Group 1151" transform="translate(-478.27 -419.68)" clip-path="url(#clip-path-2)">
        <path id="Path_1966" data-name="Path 1966" d="M-5-105H161.207V67.308H-5Z" transform="translate(474.79 516.15)" fill="#e9edfc"/>
      </g>
    </g>
    <g id="Group_2574" data-name="Group 2574" transform="translate(-5905 -991)">
      <path id="Path_2532" data-name="Path 2532" d="M536.777,108.563l11.47-6.56-1.359-.948-11.641,6.622Z" transform="translate(5531.141 1094.059)" fill="#7794f3"/>
      <path id="Path_2533" data-name="Path 2533" d="M568.824,108.742l-11.471-6.561,1.359-.947,11.639,6.622Z" transform="translate(5541.622 1094.143)" fill="#7794f3"/>
      <path id="Path_2541" data-name="Path 2541" d="M537.814,88.154s-1.84,10.22-2.2,14.983c-.261,3.439-.529,8.084-.646,10.241a1.876,1.876,0,0,0,.976,1.784h.979s3.843-22.99,5.441-26.338S537.814,88.154,537.814,88.154Z" transform="translate(5531.003 1087.461)" fill="#646784"/>
      <path id="Path_2542" data-name="Path 2542" d="M537.186,87.841s-1.838,10.22-2.2,14.983c-.263,3.441-.529,8.084-.647,10.241a1.83,1.83,0,0,0,1,1.731l.9.456s3.121-23.2,4.719-26.55S537.186,87.841,537.186,87.841Z" transform="translate(5530.706 1087.371)" fill="#646784"/>
      <path id="Path_2543" data-name="Path 2543" d="M566.055,88.331s1.838,10.223,2.2,14.985c.265,3.441.529,8.084.647,10.241a1.883,1.883,0,0,1-.974,1.784h-.982S563.107,92.35,561.507,89,566.055,88.331,566.055,88.331Z" transform="translate(5543.467 1087.545)" fill="#646784"/>
      <path id="Path_2544" data-name="Path 2544" d="M566.444,88.017s1.838,10.222,2.2,14.985c.262,3.439.529,8.084.647,10.243a1.816,1.816,0,0,1-1,1.728l-.9.457s-3.124-23.2-4.722-26.548S566.444,88.017,566.444,88.017Z" transform="translate(5544.003 1087.456)" fill="#646784"/>
      <path id="Path_2545" data-name="Path 2545" d="M537.814,64.821s-1.84,10.223-2.2,14.985c-.261,3.441-.529,8.084-.646,10.241a1.873,1.873,0,0,0,.976,1.782h.979s3.843-22.99,5.441-26.338S537.814,64.821,537.814,64.821Z" transform="translate(5531.003 1076.397)" fill="#646784"/>
      <path id="Path_2546" data-name="Path 2546" d="M537.186,64.509s-1.838,10.219-2.2,14.982c-.263,3.439-.529,8.084-.647,10.243a1.828,1.828,0,0,0,1,1.729l.9.456s3.121-23.2,4.719-26.547S537.186,64.509,537.186,64.509Z" transform="translate(5530.706 1076.308)" fill="#646784"/>
      <path id="Path_2547" data-name="Path 2547" d="M566.055,65s1.838,10.222,2.2,14.986c.265,3.438.529,8.084.647,10.238a1.883,1.883,0,0,1-.974,1.785h-.982s-3.842-22.993-5.441-26.341S566.055,65,566.055,65Z" transform="translate(5543.467 1076.481)" fill="#646784"/>
      <path id="Path_2548" data-name="Path 2548" d="M566.444,64.684s1.838,10.223,2.2,14.985c.262,3.441.529,8.086.647,10.243a1.815,1.815,0,0,1-1,1.728l-.9.458s-3.124-23.2-4.722-26.55S566.444,64.684,566.444,64.684Z" transform="translate(5544.003 1076.392)" fill="#646784"/>
      <path id="Path_2549" data-name="Path 2549" d="M573.61,90.056l-4.4-1.763L570.055,82H543.318l.859,6.354-4.251,1.7-2.1.861.917.519a2.877,2.877,0,0,0,2.457.18l3.249-1.266.131.971a2.83,2.83,0,0,0,2.805,2.454H565.99a2.833,2.833,0,0,0,2.807-2.454l.14-1.032,3.4,1.327a2.874,2.874,0,0,0,2.456-.18l.914-.519Z" transform="translate(5532.362 1085.023)" fill="#646784"/>
      <path id="Path_2550" data-name="Path 2550" d="M608.619,94.7a11.912,11.912,0,0,1-5.856-1.4,5.266,5.266,0,0,1-2.074-1.989l.006-2.841-17.04-8.195a42.975,42.975,0,0,0-34.149-.007l-16.673,8.059-.007,3.211c-1.137,1.843-4.17,3.162-7.75,3.162a11.9,11.9,0,0,1-5.857-1.4c-1.505-.867-2.434,3.666-2.437,2.342l-.04,7.235a4.175,4.175,0,0,0,2.437,3.391,11.9,11.9,0,0,0,5.857,1.4c4.334,0,7.872-1.931,8.21-4.387l0,0s-.019-2.037,2.7-3.513l13.52-6.535a42.983,42.983,0,0,1,34.149.006l15.029,7.225a3.957,3.957,0,0,1,1.654,2.817l.016-.052a4.4,4.4,0,0,0,2.409,3.037,11.949,11.949,0,0,0,5.857,1.4c4.567,0,8.254-2.143,8.241-4.79l.037-7.235C616.873,98.289,613.186,94.7,608.619,94.7Z" transform="translate(5522.366 1082.525)" fill="#96acff"/>
      <path id="Path_2551" data-name="Path 2551" d="M586.185,55.856a13.7,13.7,0,0,1-2.325-.2L569.525,65.706c-3.908,2.743-6.034,6.2-6.015,9.762l-.035,12.97c-.024-3.566,2.105-7.021,6.015-9.76l12.127-8.5a7.763,7.763,0,0,1,4.508-1.35h.024c4.567,0,8.254-2.146,8.247-4.791l.037-5.743C594.44,60.934,590.75,55.856,586.185,55.856Z" transform="translate(5544.525 1072.532)" fill="#96acff"/>
      <path id="Path_2552" data-name="Path 2552" d="M541.382,65.827l-14.64-10.122a13.806,13.806,0,0,1-1.853.125c-2.282,0-4.353,6.649-5.854,5.783a4.182,4.182,0,0,1-2.441-3.388l-.035,5.785A4.171,4.171,0,0,0,519,67.4a11.917,11.917,0,0,0,5.854,1.4h.019a6.209,6.209,0,0,1,3.545,1.063l12.93,8.936c3.977,2.748,6.169,6.215,6.189,9.8l.037-12.97C547.551,72.042,545.36,68.575,541.382,65.827Z" transform="translate(5522.278 1072.555)" fill="#96acff"/>
      <path id="Path_2553" data-name="Path 2553" d="M614.224,55.632a4.186,4.186,0,0,1,2.443,3.388c.009,2.651-3.681,4.791-8.246,4.791H608.4a14.274,14.274,0,0,0-5.356,1.042l-7.635,3.1A38.129,38.129,0,0,0,588.46,71.6c-1.785,1.2-2.726,2.174-2.714,4.549A16.12,16.12,0,0,0,590.961,87.4c2.648,2.618,9.758,9.212,13.276,12.458a6.255,6.255,0,0,0,4.25,1.664h.147a11.929,11.929,0,0,1,5.857,1.4,4.183,4.183,0,0,1,2.444,3.388c.013,2.643-3.674,4.79-8.241,4.79a11.912,11.912,0,0,1-5.855-1.4,4.178,4.178,0,0,1-2.443-3.388V106.3a3.617,3.617,0,0,0-1.324-2.817l-9.6-7.849A35.855,35.855,0,0,0,567.006,87.4h-.186c-.112,0-.224,0-.339,0a36.115,36.115,0,0,0-22.747,8.366l-8.857,7.327a4.113,4.113,0,0,0-1.487,3.2v.018c.015,2.645-3.672,4.788-8.238,4.788a11.881,11.881,0,0,1-5.857-1.4,4.158,4.158,0,0,1-2.437-3.389c-.018-2.643,3.674-4.787,8.238-4.787h.024A5.811,5.811,0,0,0,529.139,100c3.361-3.159,10.443-9.878,13.229-12.928,3.252-3.56,5.213-7.153,5.192-10.741-.012-2.6-1.167-3.541-3.315-4.906a39.387,39.387,0,0,0-6.426-3.284c-2.835-1.137-6.684-2.684-8.935-3.59a10.3,10.3,0,0,0-3.848-.742h-.159a11.92,11.92,0,0,1-5.854-1.4,4.176,4.176,0,0,1-2.441-3.386c-.013-2.643,3.675-4.787,8.239-4.787a11.947,11.947,0,0,1,5.855,1.4,4.172,4.172,0,0,1,2.438,3.386,3.064,3.064,0,0,1-.572,1.765s12.345,2.356,17.981,3.286a91.953,91.953,0,0,0,15.97,1.216,110.337,110.337,0,0,0,18.7-1.216c3.9-.7,15.417-3.46,15.417-3.46a3.139,3.139,0,0,1-.49-1.591c-.013-2.643,3.677-4.787,8.247-4.791A11.933,11.933,0,0,1,614.224,55.632Z" transform="translate(5522.29 1071.855)" fill="#c3d0ff"/>
      <path id="Path_2578" data-name="Path 2578" d="M608.607,101.514a11.927,11.927,0,0,1-5.855-1.4,4.176,4.176,0,0,1-2.443-3.386v-.018a3.609,3.609,0,0,0-1.324-2.814l-9.6-7.847a35.982,35.982,0,0,0-20.889-8.188c-.523-.027-1.051-.041-1.577-.046h-.187c-.112,0-.223,0-.338,0-.481,0-.961.018-1.436.04a36.213,36.213,0,0,0-21.311,8.331l-8.857,7.324a4.115,4.115,0,0,0-1.487,3.2v.018c.015,2.645-3.672,4.788-8.238,4.788a11.928,11.928,0,0,1-5.857-1.4,4.778,4.778,0,0,1-2.258-2.453,2.879,2.879,0,0,0-.178.986c0,.066.012.13.016.193a4.278,4.278,0,0,0,2.421,3.2,11.9,11.9,0,0,0,5.857,1.4c4.565,0,8.252-2.143,8.238-4.788v-.018a4.114,4.114,0,0,1,1.487-3.2l8.857-7.325c6.674-3.927,13.511-5.447,21.311-5.82.475-.021.955-.038,1.436-.043h.525c.526,0,1.054.019,1.577.043a46.051,46.051,0,0,1,20.889,5.681l9.6,7.846a3.617,3.617,0,0,1,1.324,2.816v.016a4.176,4.176,0,0,0,2.443,3.388,11.911,11.911,0,0,0,5.855,1.4c4.428,0,8.024-2.018,8.221-4.554l0-.414a2.929,2.929,0,0,0-.168-.778C615.907,99.869,612.6,101.514,608.607,101.514Z" transform="translate(5522.378 1083.037)" fill="#ebebeb" opacity="0"/>
      <path id="Path_2590" data-name="Path 2590" d="M574.633,56.987s-.77,1.689-4.1,3.379l5.257-.52Z" transform="translate(5547.872 1073.163)" fill="#ebebeb"/>
      <path id="Path_2591" data-name="Path 2591" d="M528.1,56.987s.768,1.689,4.1,3.379l-5.255-.52Z" transform="translate(5527.204 1073.163)" fill="#ebebeb"/>
      <path id="Path_2625" data-name="Path 2625" d="M580.187,84.208v.649l.592-.225v-.649Z" transform="translate(5552.45 1085.963)" fill="#a0a0a0"/>
      <path id="Path_2626" data-name="Path 2626" d="M580.413,84.265l-.7-.4v.649l.7.4Z" transform="translate(5552.224 1085.906)" fill="#a0a0a0"/>
      <path id="Path_2632" data-name="Path 2632" d="M616.292,85.468c0,.134-.009.268-.021.4,0,.057-.013.118-.019.172-.38,3.84-3.084,7.613-8.118,10.542-10.95,6.361-28.819,6.358-39.838,0-5.188-2.993-7.946-6.876-8.27-10.809-.006-.112-.007-.226-.015-.339-.007-.14-.018-.286-.018-.429v-.041l-.018,5.252c-.007,4.206,2.761,8.418,8.305,11.621,11.02,6.36,28.891,6.363,39.838,0,5.437-3.161,8.16-7.306,8.173-11.459l.016-5.252C616.309,85.241,616.3,85.354,616.292,85.468Z" transform="translate(5542.866 1086.428)" fill="#7794f3"/>
      <path id="Path_2633" data-name="Path 2633" d="M560.006,90.652c.007.114.009.227.015.339.324,3.933,3.082,7.816,8.27,10.809,11.019,6.363,28.888,6.365,39.838,0,5.034-2.929,7.738-6.7,8.118-10.542.006-.055.015-.115.019-.172.012-.134.016-.268.021-.4.165-4.316-2.594-8.671-8.291-11.961-11.018-6.363-28.891-6.363-39.838,0-5.456,3.171-8.176,7.331-8.17,11.5C559.988,90.366,560,90.512,560.006,90.652Zm53.819-.351a8.933,8.933,0,0,1-.413,2.665c-.89,2.867-3.234,5.609-7.041,7.825-9.983,5.8-26.286,5.8-36.334,0-3.9-2.25-6.284-5.049-7.172-7.971a8.821,8.821,0,0,1-.385-2.979c.006-.1.007-.211.013-.314.286-3.56,2.758-7.067,7.425-9.781,9.985-5.8,26.287-5.8,36.332,0,4.673,2.7,7.181,6.183,7.529,9.724,0,.035.009.066.012.1.012.133.015.262.019.394C613.814,90.073,613.825,90.188,613.825,90.3Z" transform="translate(5542.872 1081.208)" fill="#7794f3"/>
      <path id="Path_2636" data-name="Path 2636" d="M583.528,85.352c0,.032-.018.066-.024.1s-.015.056-.022.084l-.04.1c-.016.029-.021.056-.035.084s-.041.068-.061.1a.582.582,0,0,1-.047.075,1.177,1.177,0,0,1-.084.106c-.018.022-.032.041-.052.063s-.072.072-.109.109c-.018.016-.037.038-.057.055a1.529,1.529,0,0,1-.143.115c-.019.013-.037.029-.054.041-.071.05-.145.1-.227.146a5.18,5.18,0,0,1-4.7,0,2.087,2.087,0,0,1-.231-.149.866.866,0,0,1-.074-.055c-.044-.034-.086-.063-.124-.1a.676.676,0,0,1-.066-.065,1.118,1.118,0,0,1-.1-.1.769.769,0,0,1-.06-.075.964.964,0,0,1-.08-.1c-.018-.025-.031-.052-.047-.077s-.043-.065-.06-.1-.021-.055-.032-.08a.74.74,0,0,1-.041-.1.611.611,0,0,1-.022-.081.933.933,0,0,1-.025-.1c0-.029,0-.055-.009-.084s-.006-.066-.006-.1v0l-.025,5.578a1.667,1.667,0,0,0,.982,1.371,5.172,5.172,0,0,0,4.7,0,1.661,1.661,0,0,0,.97-1.355l.021-5.578c0,.032,0,.062-.007.1A.558.558,0,0,1,583.528,85.352Z" transform="translate(5550.876 1086.52)" fill="#fff"/>
      <g id="Group_1950" data-name="Group 1950" transform="translate(6127.771 1169.759)">
        <path id="Path_2637" data-name="Path 2637" d="M582.352,84.551a4.943,4.943,0,0,0-4.459,0,1.423,1.423,0,0,0-.842,1.147v.046l0,.034,0,.035,0,.031c0,.016.007.032.009.05l.01.028.009.038a.084.084,0,0,0,.009.03.387.387,0,0,0,.021.05l.013.032.015.032a.3.3,0,0,0,.013.032c.009.016.021.032.029.052l.019.03.021.035.019.032a.523.523,0,0,0,.046.053l.022.031.025.031a.291.291,0,0,1,.026.032.832.832,0,0,0,.063.06l.025.027.032.029a.126.126,0,0,0,.03.027.646.646,0,0,0,.084.068l.026.021.035.028.033.027c.065.046.135.091.211.136a4.943,4.943,0,0,0,4.456,0c.074-.044.143-.09.206-.134l.047-.037c.047-.035.091-.069.131-.1l.022-.021.028-.029.019-.018c.027-.025.056-.049.08-.075l.016-.022.025-.034.019-.022.057-.069.015-.029.021-.034.018-.027c.012-.019.022-.037.035-.055l.01-.034.016-.035.013-.031c.006-.018.013-.031.018-.049a.226.226,0,0,0,.01-.029l.007-.037.01-.034.01-.043v-.031l0-.038A1.391,1.391,0,0,0,582.352,84.551Z" transform="translate(-576.808 -83.778)" fill="#fff"/>
        <path id="Path_2638" data-name="Path 2638" d="M582.554,84.421a5.178,5.178,0,0,0-4.706,0,1.64,1.64,0,0,0-.963,1.355c0,.035,0,.066.006.1a.8.8,0,0,1,.009.084.931.931,0,0,0,.025.1.6.6,0,0,0,.022.081.749.749,0,0,0,.041.1c.012.025.021.053.032.08s.038.065.06.1.03.052.047.077a.954.954,0,0,0,.08.1.743.743,0,0,0,.06.075,1.092,1.092,0,0,0,.1.1.694.694,0,0,0,.066.065c.038.035.08.065.124.1a.888.888,0,0,0,.074.055,2.086,2.086,0,0,0,.232.149,5.169,5.169,0,0,0,4.7,0c.083-.047.156-.1.227-.146.018-.012.035-.028.055-.041.049-.035.1-.077.143-.115.021-.016.04-.038.057-.055.037-.037.077-.072.111-.109l.05-.063a1.164,1.164,0,0,0,.084-.106.575.575,0,0,0,.047-.075c.019-.032.043-.066.061-.1s.019-.055.035-.084l.04-.1c.007-.028.013-.059.022-.084s.019-.068.024-.1a.535.535,0,0,0,.007-.084A1.6,1.6,0,0,0,582.554,84.421Zm.727,1.48v.031l-.01.043-.01.034-.007.037a.255.255,0,0,1-.01.029c0,.018-.012.031-.018.049l-.013.031-.016.035-.01.034c-.013.018-.024.035-.035.055l-.018.027-.021.034-.015.029-.057.069-.019.022-.025.034-.016.022c-.024.027-.053.05-.08.075l-.019.018-.028.029-.022.021c-.04.035-.084.069-.131.1l-.047.037c-.064.044-.133.09-.206.134a4.943,4.943,0,0,1-4.457,0c-.075-.044-.146-.09-.211-.136l-.033-.027-.035-.028-.026-.021a.646.646,0,0,1-.084-.068.129.129,0,0,1-.03-.027l-.032-.029-.025-.027a.818.818,0,0,1-.063-.06.285.285,0,0,0-.027-.032l-.025-.031-.022-.031a.522.522,0,0,1-.046-.053l-.019-.032-.021-.035-.019-.029c-.009-.019-.021-.035-.03-.052a.314.314,0,0,1-.013-.032l-.015-.032-.013-.032a.387.387,0,0,1-.021-.05.083.083,0,0,1-.009-.029L577.16,86l-.01-.028c0-.018-.007-.034-.009-.05l0-.031,0-.035,0-.034v-.046a1.424,1.424,0,0,1,.842-1.147,4.943,4.943,0,0,1,4.459,0,1.392,1.392,0,0,1,.854,1.234Z" transform="translate(-576.886 -83.856)" fill="#fff"/>
      </g>
      <g id="Group_1957" data-name="Group 1957" transform="translate(6112.353 1157.343)" clip-path="url(#clip-path-3)">
        <g id="Group_1956" data-name="Group 1956" transform="translate(1.442 1.259)">
          <g id="Group_1955" data-name="Group 1955">
            <path id="Path_2641" data-name="Path 2641" d="M583.421,85.912a47.413,47.413,0,0,1-10.131-5.27l-5.885-4.107.427-.248,7.073,3.42a40.272,40.272,0,0,1,9.069,5.885l.234.211-.425.248Z" transform="translate(-567.406 -76.287)" fill="url(#linear-gradient)"/>
            <g id="Group_1953" data-name="Group 1953" transform="translate(15.718 8.02)">
              <g id="Group_1952" data-name="Group 1952">
                <path id="Path_2642" data-name="Path 2642" d="M578.075,82.413a.128.128,0,0,0,.013.046.125.125,0,0,0,.01.038.152.152,0,0,0,.019.046.13.13,0,0,0,.012.037c.01.015.021.031.029.046a.132.132,0,0,0,.022.034.357.357,0,0,0,.037.052.145.145,0,0,1,.023.028l.052.049a.194.194,0,0,0,.025.025c.021.018.046.037.065.055l.025.016c.031.025.069.046.1.069a2.382,2.382,0,0,0,2.155,0c.037-.024.071-.044.1-.069l.034-.025a.437.437,0,0,0,.058-.047c.012-.007.019-.019.031-.027s.032-.031.047-.047l.025-.034a.332.332,0,0,0,.037-.046l.021-.035c.01-.015.021-.029.03-.044s.01-.025.015-.04a.27.27,0,0,0,.019-.044.126.126,0,0,0,.009-.037l.015-.047v-.038c0-.015.006-.032.006-.044v0l.009,5.932a.765.765,0,0,1-.451.627,2.367,2.367,0,0,1-2.152,0,.775.775,0,0,1-.448-.621l-.007-5.931c0,.015,0,.028,0,.044Z" transform="translate(-578.068 -81.445)" fill="url(#linear-gradient-2)"/>
                <path id="Path_2643" data-name="Path 2643" d="M581.111,82.654v.038l-.015.047a.126.126,0,0,1-.009.037.264.264,0,0,1-.019.044c0,.015-.01.027-.015.04s-.019.029-.029.044L581,82.94a.338.338,0,0,1-.037.046l-.025.034c-.015.016-.032.028-.047.047s-.019.019-.031.027a.434.434,0,0,1-.057.047l-.034.025c-.034.025-.068.046-.1.069a2.382,2.382,0,0,1-2.155,0c-.034-.024-.072-.044-.1-.069l-.025-.016c-.019-.018-.044-.037-.065-.055a.2.2,0,0,1-.025-.025c-.018-.018-.035-.032-.052-.049a.145.145,0,0,0-.023-.028.366.366,0,0,1-.037-.052.135.135,0,0,1-.022-.034c-.009-.015-.019-.031-.029-.046a.13.13,0,0,1-.012-.037.149.149,0,0,1-.019-.046.123.123,0,0,1-.01-.038.127.127,0,0,1-.013-.046l0-.038a.738.738,0,0,1,.447-.672,2.375,2.375,0,0,1,2.154,0,.76.76,0,0,1,.445.624C581.117,82.622,581.113,82.639,581.111,82.654Z" transform="translate(-578.067 -81.727)" fill="#f7f7f7"/>
              </g>
            </g>
            <g id="Group_1954" data-name="Group 1954" transform="translate(16.249 9.466)">
              <path id="Path_2650" data-name="Path 2650" d="M580.493,84.089a.758.758,0,0,0,.448-.627v-.753h0l4.885,1.737a8.912,8.912,0,0,1,2.32,1.28l8.627,6.815-1.552.9-11.736-5.021a8.3,8.3,0,0,1-2.2-1.349l-2.854-2.913.016-.012A2.388,2.388,0,0,0,580.493,84.089Z" transform="translate(-578.429 -82.708)" fill="url(#linear-gradient-3)"/>
            </g>
          </g>
        </g>
      </g>
      <path id="Path_2658" data-name="Path 2658" d="M559.412,53.382c0,.133-.007.267-.018.4-.006.057-.015.114-.021.171-.38,3.84-3.081,7.616-8.117,10.542-10.949,6.361-28.817,6.36-39.839,0-5.189-3-7.947-6.878-8.267-10.812-.012-.111-.012-.224-.018-.338,0-.143-.015-.287-.018-.432l0-.04-.012,5.252c-.013,4.206,2.757,8.42,8.3,11.619,11.021,6.363,28.889,6.364,39.837,0,5.438-3.161,8.164-7.306,8.173-11.457l.015-5.252C559.427,53.155,559.415,53.265,559.412,53.382Z" transform="translate(5515.898 1071.212)" fill="#7794f3"/>
      <path id="Path_2659" data-name="Path 2659" d="M503.129,58.564c.006.114.007.226.018.338.32,3.933,3.078,7.813,8.267,10.812,11.022,6.361,28.891,6.363,39.84,0,5.036-2.926,7.736-6.7,8.117-10.542.006-.057.016-.114.021-.171.01-.134.013-.268.018-.4.17-4.321-2.592-8.676-8.285-11.961-11.022-6.364-28.892-6.364-39.841,0-5.457,3.167-8.177,7.33-8.171,11.493C503.114,58.276,503.124,58.421,503.129,58.564Zm53.818-.352a9.008,9.008,0,0,1-.41,2.668c-.892,2.866-3.234,5.608-7.042,7.82-9.98,5.8-26.285,5.8-36.334,0-3.9-2.25-6.286-5.048-7.17-7.971a8.669,8.669,0,0,1-.382-2.978c0-.108,0-.211.009-.315.283-3.559,2.76-7.069,7.424-9.778,9.985-5.805,26.288-5.805,36.334,0,4.675,2.7,7.184,6.181,7.53,9.722,0,.032.007.066.012.1.009.133.013.262.018.394C556.94,57.984,556.946,58.1,556.946,58.212Z" transform="translate(5515.902 1065.993)" fill="#7794f3"/>
      <path id="Path_2662" data-name="Path 2662" d="M526.652,53.264c-.006.031-.016.065-.025.1s-.013.056-.022.084-.027.065-.04.1-.022.055-.034.081a.992.992,0,0,1-.062.1c-.018.025-.025.05-.044.077s-.059.071-.087.106-.032.041-.049.063c-.035.037-.072.069-.112.109l-.058.055c-.043.037-.093.075-.144.114-.018.015-.032.028-.05.041a2.167,2.167,0,0,1-.228.146,5.169,5.169,0,0,1-4.7,0,2,2,0,0,1-.227-.146c-.029-.019-.052-.04-.078-.059s-.085-.065-.124-.1l-.068-.065c-.034-.032-.071-.065-.1-.1s-.041-.052-.06-.075-.055-.065-.077-.1l-.047-.078c-.021-.035-.046-.065-.062-.1s-.022-.055-.034-.077-.029-.068-.043-.1-.015-.055-.021-.081a.825.825,0,0,1-.025-.1.509.509,0,0,1-.006-.084c0-.034-.007-.066-.007-.1l0,0-.024,5.578a1.671,1.671,0,0,0,.98,1.371,5.187,5.187,0,0,0,4.7,0,1.664,1.664,0,0,0,.969-1.356l.022-5.577c0,.034-.006.062-.007.094S526.657,53.236,526.652,53.264Z" transform="translate(5523.906 1071.304)" fill="#fff"/>
      <g id="Group_1966" data-name="Group 1966" transform="translate(6043.925 1122.456)">
        <path id="Path_2664" data-name="Path 2664" d="M525.675,52.33a5.19,5.19,0,0,0-4.7,0,1.637,1.637,0,0,0-.963,1.356c0,.034,0,.066.007.1a.5.5,0,0,0,.006.084.8.8,0,0,0,.025.1c.006.027.013.053.021.081s.03.068.043.1.021.052.034.077.041.065.062.1l.047.078c.022.032.053.063.077.1s.038.05.06.075.066.066.1.1l.068.065c.038.032.083.065.124.1s.049.04.078.059a2,2,0,0,0,.227.146,5.16,5.16,0,0,0,4.7,0,2.177,2.177,0,0,0,.229-.146c.018-.013.032-.027.05-.041.052-.038.1-.077.144-.114l.058-.055c.04-.04.077-.072.112-.109.016-.022.031-.043.049-.063s.06-.074.087-.106.027-.052.044-.077a.99.99,0,0,0,.062-.1c.012-.027.021-.055.034-.081s.03-.066.04-.1.015-.056.022-.084.019-.068.025-.1,0-.058.007-.086A1.611,1.611,0,0,0,525.675,52.33Zm.731,1.48a.114.114,0,0,0,0,.031c0,.016-.01.031-.012.047l-.009.029-.01.038-.006.031a.44.44,0,0,0-.019.049l-.015.031-.015.034-.013.032a.514.514,0,0,1-.032.055l-.018.029-.022.034c0,.009-.01.018-.016.028s-.037.047-.055.069l-.019.024-.025.032-.018.024c-.022.024-.05.05-.078.075L526,54.52l-.029.029-.019.021c-.04.035-.086.066-.128.1l-.049.035c-.066.046-.136.091-.209.133a4.915,4.915,0,0,1-4.455,0,1.877,1.877,0,0,1-.214-.134l-.029-.025-.037-.027-.026-.022c-.027-.024-.059-.044-.086-.068l-.027-.027-.032-.032-.027-.024a.844.844,0,0,1-.062-.062l-.028-.032-.025-.032-.025-.028a.663.663,0,0,0-.043-.055c-.007-.01-.01-.021-.018-.032l-.021-.035-.018-.028a.283.283,0,0,1-.031-.052.1.1,0,0,1-.013-.032l-.018-.032-.009-.032a.545.545,0,0,1-.025-.052.106.106,0,0,0-.007-.029l-.009-.035-.009-.032c0-.015-.007-.032-.01-.05V53.8l0-.037,0-.031c0-.018,0-.031,0-.047a1.418,1.418,0,0,1,.848-1.145,4.487,4.487,0,0,1,2.226-.532,4.561,4.561,0,0,1,2.23.529,1.4,1.4,0,0,1,.854,1.234Z" transform="translate(-520.01 -51.768)" fill="#fff"/>
      </g>
      <g id="Group_1973" data-name="Group 1973" transform="translate(6028.508 1110.039)" clip-path="url(#clip-path-4)">
        <g id="Group_1972" data-name="Group 1972" transform="translate(1.441 1.256)">
          <g id="Group_1971" data-name="Group 1971">
            <path id="Path_2667" data-name="Path 2667" d="M526.543,53.823a47.406,47.406,0,0,1-10.129-5.27l-5.885-4.107.43-.249,7.07,3.422A40.3,40.3,0,0,1,527.1,53.5l.237.211-.43.248Z" transform="translate(-510.529 -44.197)" fill="url(#linear-gradient-4)"/>
            <g id="Group_1969" data-name="Group 1969" transform="translate(15.718 8.022)">
              <g id="Group_1968" data-name="Group 1968">
                <path id="Path_2668" data-name="Path 2668" d="M521.2,50.323a.4.4,0,0,0,.01.046l.01.038a.426.426,0,0,0,.019.044.227.227,0,0,0,.015.038c.007.016.019.029.027.049s.015.022.024.032l.038.05.022.028.052.049a.2.2,0,0,0,.025.025.648.648,0,0,0,.068.055l.024.018c.031.024.068.044.1.068a2.375,2.375,0,0,0,2.154,0c.037-.024.074-.044.1-.068a.2.2,0,0,0,.034-.028.543.543,0,0,0,.057-.044.2.2,0,0,0,.031-.031l.047-.044a.167.167,0,0,0,.025-.035.134.134,0,0,0,.037-.044c.01-.009.015-.025.022-.034a.385.385,0,0,1,.028-.044.115.115,0,0,0,.013-.038.148.148,0,0,0,.021-.047.173.173,0,0,0,.01-.037l.013-.047,0-.037a.257.257,0,0,0,0-.047h0l.009,5.929a.762.762,0,0,1-.445.629,2.389,2.389,0,0,1-2.158,0,.756.756,0,0,1-.442-.622l-.012-5.929c0,.013,0,.027,0,.044A.1.1,0,0,0,521.2,50.323Z" transform="translate(-521.191 -49.356)" fill="url(#linear-gradient-5)"/>
                <path id="Path_2669" data-name="Path 2669" d="M524.234,50.566V50.6l-.013.047a.177.177,0,0,1-.01.037.148.148,0,0,1-.021.047.118.118,0,0,1-.013.038.394.394,0,0,0-.028.044c-.007.009-.012.025-.022.034a.135.135,0,0,1-.037.044.163.163,0,0,1-.025.035l-.047.044a.2.2,0,0,1-.031.031.537.537,0,0,1-.057.044.2.2,0,0,1-.034.028c-.031.024-.068.044-.1.068a2.375,2.375,0,0,1-2.154,0c-.035-.024-.072-.044-.1-.068l-.024-.018a.647.647,0,0,1-.068-.055.2.2,0,0,1-.025-.025l-.052-.049-.022-.028-.038-.05c-.009-.01-.015-.024-.024-.032s-.019-.032-.027-.049a.231.231,0,0,1-.015-.038.439.439,0,0,1-.019-.044l-.01-.038a.417.417,0,0,1-.01-.046.1.1,0,0,1,0-.037.739.739,0,0,1,.447-.672,2.372,2.372,0,0,1,2.157,0,.749.749,0,0,1,.441.621A.257.257,0,0,1,524.234,50.566Z" transform="translate(-521.19 -49.639)" fill="#f7f7f7"/>
              </g>
            </g>
            <g id="Group_1970" data-name="Group 1970" transform="translate(16.249 9.469)">
              <path id="Path_2676" data-name="Path 2676" d="M523.614,52a.758.758,0,0,0,.45-.628l0-.753h0l4.884,1.734a8.933,8.933,0,0,1,2.325,1.281L539.9,60.45l-1.554.9-11.736-5.02a8.318,8.318,0,0,1-2.2-1.35l-2.854-2.914.018-.009A2.376,2.376,0,0,0,523.614,52Z" transform="translate(-521.552 -50.62)" fill="url(#linear-gradient-6)"/>
            </g>
          </g>
        </g>
      </g>
      <path id="Path_2684" data-name="Path 2684" d="M503.114,85.468c.007.134.007.268.019.4.006.057.016.118.021.172.382,3.84,3.081,7.613,8.12,10.542,10.946,6.361,28.817,6.358,39.837,0,5.189-2.993,7.946-6.876,8.269-10.809.01-.112.01-.226.016-.339.009-.14.016-.286.016-.429v-.041l.015,5.252c.013,4.206-2.758,8.418-8.3,11.621-11.022,6.36-28.889,6.363-39.837,0-5.441-3.161-8.161-7.306-8.176-11.459l-.012-5.252C503.1,85.241,503.109,85.354,503.114,85.468Z" transform="translate(5515.898 1086.428)" fill="#7794f3"/>
      <path id="Path_2685" data-name="Path 2685" d="M559.409,90.223c.009-4.166-2.712-8.326-8.168-11.5-10.949-6.363-28.82-6.363-39.842,0-5.695,3.29-8.451,7.645-8.286,11.961.007.134.007.268.019.4.006.057.016.118.021.172.382,3.84,3.081,7.613,8.12,10.542,10.946,6.361,28.817,6.358,39.837,0,5.189-2.993,7.946-6.876,8.269-10.809.01-.112.01-.226.016-.339C559.4,90.512,559.409,90.366,559.409,90.223Zm-53.824-.264c.007-.131.009-.261.019-.394a.791.791,0,0,0,.012-.1c.348-3.541,2.855-7.026,7.529-9.724,10.047-5.8,26.351-5.8,36.337,0,4.667,2.714,7.136,6.221,7.422,9.781.007.1.007.209.012.314a8.892,8.892,0,0,1-.38,2.979c-.889,2.922-3.276,5.721-7.173,7.971-10.051,5.8-26.354,5.8-36.337,0-3.806-2.216-6.15-4.958-7.041-7.825a8.979,8.979,0,0,1-.411-2.665C505.574,90.188,505.583,90.073,505.586,89.959Z" transform="translate(5515.899 1081.208)" fill="#7794f3"/>
      <path id="Path_2688" data-name="Path 2688" d="M519.908,85.352a.433.433,0,0,0,.025.1.5.5,0,0,0,.021.084.873.873,0,0,0,.04.1l.032.084c.019.034.043.068.062.1a.818.818,0,0,0,.048.075.922.922,0,0,0,.081.106l.05.063c.035.037.072.072.112.109.019.016.037.038.057.055a1.217,1.217,0,0,0,.143.115.526.526,0,0,0,.055.041c.068.05.147.1.226.146a5.183,5.183,0,0,0,4.7,0,2.614,2.614,0,0,0,.233-.149c.024-.016.047-.035.071-.055a1.478,1.478,0,0,0,.125-.1c.025-.022.044-.044.068-.065s.069-.065.1-.1.04-.049.06-.075a.9.9,0,0,0,.075-.1c.019-.025.034-.052.05-.077s.043-.065.059-.1.022-.055.035-.08a.983.983,0,0,0,.04-.1.29.29,0,0,0,.021-.081.725.725,0,0,0,.028-.1.793.793,0,0,0,.006-.084c0-.035.007-.066.007-.1v0l.024,5.578a1.661,1.661,0,0,1-.98,1.371,5.172,5.172,0,0,1-4.7,0,1.647,1.647,0,0,1-.969-1.355l-.021-5.578c0,.032,0,.062,0,.1S519.9,85.324,519.908,85.352Z" transform="translate(5523.86 1086.52)" fill="#fff"/>
      <g id="Group_1982" data-name="Group 1982" transform="translate(6043.753 1169.759)">
        <path id="Path_2690" data-name="Path 2690" d="M519.9,85.884c0,.028,0,.056.01.084a.431.431,0,0,0,.025.1.5.5,0,0,0,.021.084.871.871,0,0,0,.04.1l.032.084c.019.034.043.068.062.1a.8.8,0,0,0,.048.075.921.921,0,0,0,.081.106l.05.063c.035.037.072.072.112.109.019.016.037.038.057.055a1.617,1.617,0,0,0,.143.115.519.519,0,0,0,.055.041c.068.05.147.1.226.146a5.172,5.172,0,0,0,4.7,0,2.618,2.618,0,0,0,.233-.149c.024-.016.047-.035.071-.055a1.476,1.476,0,0,0,.125-.1c.025-.022.044-.044.068-.065s.069-.065.1-.1.04-.049.06-.075a.9.9,0,0,0,.075-.1c.019-.025.034-.052.05-.077s.043-.065.059-.1.022-.055.035-.08a.972.972,0,0,0,.04-.1.29.29,0,0,0,.021-.081.576.576,0,0,0,.028-.1.793.793,0,0,0,.006-.084c0-.035.007-.066.007-.1a1.644,1.644,0,0,0-.965-1.355,5.169,5.169,0,0,0-4.7,0A1.606,1.606,0,0,0,519.9,85.884Zm.242-.022A1.4,1.4,0,0,1,521,84.628a4.94,4.94,0,0,1,4.458,0,1.426,1.426,0,0,1,.843,1.147.423.423,0,0,1,0,.046l0,.034,0,.035v.031c0,.016-.009.032-.013.05l-.007.028-.01.038a.121.121,0,0,1-.007.029.378.378,0,0,1-.021.05l-.012.032-.015.032-.015.032c-.009.016-.021.032-.031.052l-.021.029-.021.035a.117.117,0,0,1-.018.032c-.012.018-.03.037-.043.053l-.025.031L526,86.48c-.009.01-.015.021-.026.032s-.041.04-.063.06l-.027.027-.029.029a.152.152,0,0,1-.026.027l-.087.068-.028.021-.034.028a.123.123,0,0,1-.034.027,2.312,2.312,0,0,1-.212.136,4.937,4.937,0,0,1-4.454,0c-.075-.044-.145-.09-.209-.134l-.047-.037c-.046-.035-.091-.069-.13-.1l-.021-.021-.029-.029-.021-.018c-.026-.025-.05-.049-.075-.075l-.016-.022-.028-.034-.019-.022a.727.727,0,0,1-.053-.069.083.083,0,0,1-.018-.029L520.3,86.3l-.021-.027c-.01-.019-.022-.037-.031-.055l-.016-.034-.013-.035-.012-.031a.352.352,0,0,1-.021-.049.1.1,0,0,1-.007-.029l-.01-.037-.007-.034a.229.229,0,0,1-.013-.043V85.9Z" transform="translate(-519.893 -83.856)" fill="#fff"/>
      </g>
      <g id="Group_1989" data-name="Group 1989" transform="translate(6028.747 1157.343)" clip-path="url(#clip-path-5)">
        <g id="Group_1988" data-name="Group 1988" transform="translate(1.031 1.259)">
          <g id="Group_1987" data-name="Group 1987">
            <path id="Path_2693" data-name="Path 2693" d="M523.274,85.912a47.458,47.458,0,0,0,10.128-5.27l5.886-4.107-.43-.248-7.072,3.42a40.238,40.238,0,0,0-9.065,5.885l-.24.211.43.248Z" transform="translate(-504.691 -76.287)" fill="url(#linear-gradient-7)"/>
            <g id="Group_1985" data-name="Group 1985" transform="translate(15.821 8.02)">
              <g id="Group_1984" data-name="Group 1984">
                <path id="Path_2694" data-name="Path 2694" d="M524.2,82.413l-.009.046a.34.34,0,0,0-.012.038c0,.016-.012.029-.018.046l-.016.037a.408.408,0,0,1-.029.046.189.189,0,0,1-.019.034.313.313,0,0,1-.041.052.1.1,0,0,0-.021.028c-.015.016-.034.031-.052.049l-.026.025a.662.662,0,0,1-.066.055.116.116,0,0,1-.024.016c-.033.025-.066.046-.1.069a2.376,2.376,0,0,1-2.152,0c-.035-.024-.074-.044-.106-.069a.327.327,0,0,1-.035-.025c-.018-.016-.037-.028-.054-.047a.157.157,0,0,1-.032-.027c-.015-.019-.032-.031-.047-.047a.2.2,0,0,0-.028-.034.337.337,0,0,0-.037-.046.318.318,0,0,0-.021-.035l-.028-.044c-.006-.013-.007-.025-.013-.04a.259.259,0,0,1-.019-.044.132.132,0,0,1-.01-.037.338.338,0,0,1-.01-.047c0-.012,0-.025-.006-.038l0-.044v0l-.01,5.932a.759.759,0,0,0,.45.627,2.371,2.371,0,0,0,2.154,0,.761.761,0,0,0,.442-.621l.012-5.931c0,.015,0,.028,0,.044A.163.163,0,0,1,524.2,82.413Z" transform="translate(-521.145 -81.445)" fill="url(#linear-gradient-8)"/>
                <path id="Path_2695" data-name="Path 2695" d="M521.155,82.654c0,.013,0,.027.006.038a.322.322,0,0,0,.01.047.13.13,0,0,0,.01.037.246.246,0,0,0,.019.044c.006.015.007.027.013.04l.028.044a.323.323,0,0,0,.057.081.188.188,0,0,1,.028.034c.015.016.033.028.047.047a.158.158,0,0,0,.032.027c.018.019.037.031.055.047a.314.314,0,0,0,.035.025c.033.025.071.046.106.069a2.376,2.376,0,0,0,2.152,0c.037-.024.071-.044.1-.069a.11.11,0,0,0,.024-.016.646.646,0,0,0,.066-.055l.027-.025c.018-.018.037-.032.052-.049a.1.1,0,0,1,.021-.028.312.312,0,0,0,.041-.052.19.19,0,0,0,.019-.034.4.4,0,0,0,.03-.046l.016-.037c.006-.016.013-.029.018-.046a.366.366,0,0,1,.012-.038l.009-.046a.159.159,0,0,0,0-.038.731.731,0,0,0-.445-.672,2.381,2.381,0,0,0-2.157,0,.757.757,0,0,0-.441.624Z" transform="translate(-521.142 -81.727)" fill="#f7f7f7"/>
              </g>
            </g>
            <g id="Group_1986" data-name="Group 1986" transform="translate(0 9.466)">
              <path id="Path_2702" data-name="Path 2702" d="M526.7,84.089a.761.761,0,0,1-.451-.627l.006-.753h-.006l-4.881,1.737a8.677,8.677,0,0,0-2.32,1.28l-8.633,6.815,1.554.9L523.7,88.415a8.24,8.24,0,0,0,2.2-1.349l2.854-2.913-.015-.012A2.385,2.385,0,0,1,526.7,84.089Z" transform="translate(-510.413 -82.708)" fill="url(#linear-gradient-9)"/>
            </g>
          </g>
        </g>
      </g>
      <path id="Path_2710" data-name="Path 2710" d="M559.911,53.378c.006.134.009.267.018.4,0,.06.015.118.021.175.38,3.839,3.081,7.611,8.12,10.54,10.947,6.361,28.814,6.358,39.835,0,5.19-2.994,7.946-6.877,8.27-10.807.007-.112.012-.227.016-.339.006-.143.018-.287.018-.43l0-.041.015,5.252c.009,4.206-2.758,8.418-8.3,11.619-11.019,6.361-28.891,6.364-39.84,0-5.435-3.161-8.159-7.306-8.17-11.457l-.016-5.252C559.9,53.151,559.9,53.264,559.911,53.378Z" transform="translate(5542.828 1071.211)" fill="#7794f3"/>
      <path id="Path_2711" data-name="Path 2711" d="M616.205,58.133c.006-4.166-2.717-8.326-8.17-11.5-10.949-6.363-28.822-6.363-39.839,0-5.7,3.289-8.456,7.645-8.288,11.961.006.134.009.267.018.4,0,.06.015.118.021.175.38,3.839,3.081,7.611,8.12,10.54,10.947,6.361,28.814,6.358,39.835,0,5.191-2.994,7.946-6.877,8.27-10.807.007-.112.013-.227.016-.339C616.194,58.42,616.205,58.276,616.205,58.133Zm-53.825-.265c.007-.13.009-.261.021-.392,0-.035.007-.068.01-.1.348-3.541,2.855-7.024,7.53-9.722,10.045-5.8,26.348-5.8,36.333,0,4.666,2.711,7.14,6.218,7.425,9.78.008.1.008.208.013.313a8.942,8.942,0,0,1-.383,2.982c-.889,2.922-3.273,5.718-7.172,7.968-10.05,5.8-26.354,5.8-36.335,0-3.808-2.213-6.15-4.955-7.042-7.822a8.982,8.982,0,0,1-.411-2.665C562.369,58.095,562.378,57.981,562.38,57.868Z" transform="translate(5542.831 1065.992)" fill="#7794f3"/>
      <path id="Path_2714" data-name="Path 2714" d="M576.7,53.261a.778.778,0,0,0,.024.1c.007.025.012.055.021.083a.98.98,0,0,0,.041.1c.013.025.021.053.034.081s.041.066.063.1a.363.363,0,0,0,.046.075.817.817,0,0,0,.084.106c.018.022.031.046.05.066s.071.071.112.108a.492.492,0,0,0,.055.053,1.364,1.364,0,0,0,.146.115c.019.015.034.029.052.041.071.052.146.1.227.147a5.177,5.177,0,0,0,4.7,0c.083-.049.158-.1.23-.147.025-.018.047-.038.072-.057.044-.034.086-.063.128-.1.023-.022.043-.044.063-.065s.072-.065.1-.1l.059-.078a.977.977,0,0,0,.078-.1c.018-.027.032-.05.049-.078s.041-.066.056-.1a.49.49,0,0,0,.037-.08.66.66,0,0,0,.04-.1c.012-.028.013-.055.023-.083s.019-.068.027-.1a.534.534,0,0,1,.008-.084c0-.034.006-.069.006-.1v-.006l.024,5.578a1.664,1.664,0,0,1-.979,1.371,5.179,5.179,0,0,1-4.7,0,1.666,1.666,0,0,1-.97-1.353l-.022-5.578a.731.731,0,0,0,.01.094C576.7,53.208,576.7,53.234,576.7,53.261Z" transform="translate(5550.789 1071.303)" fill="#fff"/>
      <g id="Group_1998" data-name="Group 1998" transform="translate(6127.48 1122.453)">
        <path id="Path_2715" data-name="Path 2715" d="M577.709,52.462a4.94,4.94,0,0,1,4.461,0,1.422,1.422,0,0,1,.843,1.148l0,.047,0,.031v.066l-.012.049-.01.031-.007.035-.009.031a.374.374,0,0,1-.022.05l-.012.031-.016.035a.074.074,0,0,1-.012.031c-.01.016-.021.035-.032.052l-.018.029-.019.035a.168.168,0,0,0-.021.031.316.316,0,0,1-.043.055l-.024.029-.027.031-.028.032a.824.824,0,0,1-.062.063l-.025.025-.031.028-.029.031c-.025.022-.055.044-.084.066l-.028.021-.037.027a.146.146,0,0,1-.029.025c-.065.047-.136.091-.211.137a4.943,4.943,0,0,1-4.456,0c-.075-.046-.146-.09-.208-.134l-.047-.038c-.047-.035-.091-.069-.13-.1l-.022-.021-.03-.028-.019-.018a.979.979,0,0,1-.078-.078l-.018-.022-.025-.032-.019-.022c-.018-.024-.038-.047-.053-.069a.107.107,0,0,1-.019-.028l-.022-.035-.016-.028c-.01-.019-.022-.038-.03-.053s-.01-.024-.016-.034l-.015-.035-.015-.032c0-.016-.013-.029-.021-.049a.07.07,0,0,0-.006-.029l-.007-.035-.009-.032a.363.363,0,0,1-.012-.046l0-.032,0-.035A1.392,1.392,0,0,1,577.709,52.462Z" transform="translate(-576.611 -51.688)" fill="#fff"/>
        <path id="Path_2716" data-name="Path 2716" d="M576.693,53.794c0,.029,0,.056.008.083a.75.75,0,0,0,.024.1c.007.025.012.055.021.083a.724.724,0,0,0,.041.1c.013.025.021.053.034.081s.041.066.063.1a.366.366,0,0,0,.046.075.793.793,0,0,0,.084.106c.018.022.031.046.05.066s.071.071.112.108a.481.481,0,0,0,.055.053,1.393,1.393,0,0,0,.146.115c.019.015.034.029.052.041.071.052.146.1.227.147a5.175,5.175,0,0,0,4.7,0c.083-.049.158-.1.23-.147.025-.018.047-.038.072-.058.044-.034.086-.063.128-.1.023-.022.043-.044.063-.065s.072-.065.1-.1l.059-.078a.985.985,0,0,0,.078-.1c.018-.027.033-.05.049-.078s.041-.066.056-.1a.494.494,0,0,0,.037-.08.654.654,0,0,0,.04-.1c.012-.028.013-.055.024-.083s.019-.068.027-.1a.507.507,0,0,1,.007-.084c0-.034.006-.069.006-.1a1.651,1.651,0,0,0-.964-1.358,5.187,5.187,0,0,0-4.7,0A1.6,1.6,0,0,0,576.693,53.794Zm.242-.022a1.392,1.392,0,0,1,.852-1.232,4.94,4.94,0,0,1,4.461,0,1.422,1.422,0,0,1,.843,1.148l0,.047,0,.031v.066l-.012.049-.01.031-.007.035-.009.031a.381.381,0,0,1-.022.05l-.012.031-.016.035a.07.07,0,0,1-.012.031c-.01.016-.021.035-.032.052l-.018.029-.019.035a.168.168,0,0,0-.021.031.321.321,0,0,1-.043.055l-.024.029-.026.031-.028.032a.836.836,0,0,1-.062.063l-.025.025-.031.028-.03.031c-.025.022-.055.044-.084.066l-.028.021-.037.027a.15.15,0,0,1-.029.025c-.065.047-.136.091-.211.137a4.943,4.943,0,0,1-4.456,0c-.075-.046-.146-.09-.208-.134l-.047-.038c-.047-.035-.092-.069-.13-.1l-.022-.021-.029-.028-.019-.018a.987.987,0,0,1-.078-.078l-.018-.022-.025-.032-.019-.022c-.018-.024-.038-.047-.053-.069a.108.108,0,0,1-.019-.028l-.022-.035-.016-.028c-.01-.019-.022-.038-.029-.053s-.01-.024-.016-.034l-.015-.035L577,54.032c0-.016-.013-.029-.021-.049a.07.07,0,0,0-.006-.029l-.007-.035-.009-.032a.343.343,0,0,1-.012-.046l0-.032Z" transform="translate(-576.689 -51.766)" fill="#fff"/>
      </g>
      <g id="Group_2005" data-name="Group 2005" transform="translate(6112.474 1110.036)" clip-path="url(#clip-path-6)">
        <g id="Group_2004" data-name="Group 2004" transform="translate(1.029 1.258)">
          <g id="Group_2003" data-name="Group 2003">
            <path id="Path_2719" data-name="Path 2719" d="M580.069,53.822A47.5,47.5,0,0,0,590.2,48.551l5.888-4.107-.431-.248-7.07,3.422a40.124,40.124,0,0,0-9.068,5.885l-.239.209.426.249Z" transform="translate(-561.485 -44.196)" fill="url(#linear-gradient-10)"/>
            <g id="Group_2001" data-name="Group 2001" transform="translate(15.819 8.022)">
              <g id="Group_2000" data-name="Group 2000">
                <path id="Path_2720" data-name="Path 2720" d="M580.993,50.322a.444.444,0,0,1-.016.047.081.081,0,0,1-.007.037c-.006.016-.013.029-.021.047l-.013.038c-.009.013-.021.028-.029.044s-.012.025-.019.034a.426.426,0,0,1-.04.05.136.136,0,0,1-.024.029l-.049.047-.026.027a.7.7,0,0,1-.066.053l-.024.018c-.034.024-.068.046-.1.068a2.371,2.371,0,0,1-2.154,0c-.037-.022-.072-.044-.1-.068a.419.419,0,0,1-.036-.027.554.554,0,0,1-.056-.047.179.179,0,0,1-.031-.028.421.421,0,0,1-.046-.044c-.012-.013-.018-.022-.03-.035s-.025-.028-.035-.044l-.021-.035c-.01-.015-.019-.032-.028-.044L578,50.45a.449.449,0,0,1-.018-.046c0-.013-.006-.025-.009-.037a.294.294,0,0,1-.012-.049c0-.01,0-.025,0-.038l0-.044v0l-.013,5.932a.77.77,0,0,0,.451.628,2.375,2.375,0,0,0,2.154,0,.758.758,0,0,0,.444-.621L581,50.239a.44.44,0,0,1,0,.046Z" transform="translate(-577.939 -49.356)" fill="url(#linear-gradient-11)"/>
                <path id="Path_2721" data-name="Path 2721" d="M577.951,50.563c0,.013,0,.028,0,.038a.294.294,0,0,0,.012.049c0,.012,0,.024.009.037a.422.422,0,0,0,.018.046l.016.038c.009.012.018.029.028.044l.021.035c.01.016.026.029.035.044l.03.035a.422.422,0,0,0,.046.044A.179.179,0,0,0,578.2,51a.535.535,0,0,0,.056.047.422.422,0,0,0,.035.027c.032.024.068.046.1.068a2.371,2.371,0,0,0,2.154,0c.037-.022.071-.044.1-.068l.024-.018a.7.7,0,0,0,.066-.053l.026-.027.049-.047a.134.134,0,0,0,.024-.029.425.425,0,0,0,.04-.05c.007-.009.012-.025.019-.034s.021-.031.029-.044l.013-.038c.007-.018.015-.031.021-.047a.081.081,0,0,0,.007-.037.445.445,0,0,0,.016-.047l0-.037a.741.741,0,0,0-.447-.672,2.374,2.374,0,0,0-2.155,0,.75.75,0,0,0-.441.621Z" transform="translate(-577.935 -49.637)" fill="#f7f7f7"/>
              </g>
            </g>
            <g id="Group_2002" data-name="Group 2002" transform="translate(0 9.466)">
              <path id="Path_2728" data-name="Path 2728" d="M583.493,52a.764.764,0,0,1-.45-.629l0-.753,0,0-4.884,1.737a8.879,8.879,0,0,0-2.323,1.281l-8.628,6.815,1.554.9L580.5,56.324a8.384,8.384,0,0,0,2.2-1.346l2.854-2.916-.013-.012A2.4,2.4,0,0,1,583.493,52Z" transform="translate(-567.208 -50.617)" fill="url(#linear-gradient-12)"/>
            </g>
          </g>
        </g>
      </g>
    </g>
  </g>
</svg>
