<svg xmlns="http://www.w3.org/2000/svg" width="256.67" height="196.771" viewBox="0 0 256.67 196.771">
    <defs>
        <style>
            .prefix__cls-2,.prefix__cls-5{fill:#fff}.prefix__cls-3{fill:#747891}.prefix__cls-11,.prefix__cls-19,.prefix__cls-5{opacity:.1}.prefix__cls-6,.prefix__cls-7{opacity:.2}.prefix__cls-7,.prefix__cls-8{fill:#6c63ff}.prefix__cls-9{fill:#3f3d56}.prefix__cls-10{opacity:.05}.prefix__cls-12{fill:#bac4e9}.prefix__cls-14{fill:#71abdb}.prefix__cls-15{fill:#ced6f2}.prefix__cls-17{fill:#646784}.prefix__cls-24{fill:#dce6f2}.prefix__cls-25{fill:#575988}.prefix__cls-26{fill:#3295e6}.prefix__cls-28{fill:#263238}
        </style>
    </defs>
    <g id="prefix__Group_2051" data-name="Group 2051" transform="translate(-26.807 -35.685)">
        <path id="prefix__Path_2127" fill="#e9edfc" d="M95.7 96.771c52.852 0 95.7-43.336 95.7-96.794s-43.32-78.869-95.7-96.794S0-53.481 0-.023s42.845 96.794 95.7 96.794z" data-name="Path 2127" transform="translate(88.115 135.685)"/>
        <g id="prefix__Group_2063" data-name="Group 2063" transform="translate(26.816 62.246)">
            <path id="prefix__Path_2644" d="M288.758 8.275V145.81c0 4.088-3.935 7.428-8.794 7.428H93.821c-4.859 0-8.794-3.326-8.794-7.428V8.275c0-4.1 3.935-8.275 8.794-8.275l186.132.454c4.859 0 8.805 3.738 8.805 7.821z" class="prefix__cls-2" data-name="Path 2644" transform="translate(-32.096)"/>
            <path id="prefix__Path_2645" d="M288.758 8.317v6.367H85.027V8.317A8.3 8.3 0 0 1 93.332 0h187.132a8.307 8.307 0 0 1 8.294 8.317z" class="prefix__cls-3" data-name="Path 2645" transform="translate(-32.096)"/>
            <path id="prefix__Path_2646" fill="#fff" d="M99.105 12.949a2.939 2.939 0 1 0-2.932-2.939 2.936 2.936 0 0 0 2.932 2.939z" data-name="Path 2646" opacity="0.4" transform="translate(-36.303 -2.668)"/>
            <path id="prefix__Path_2647" d="M112.806 12.949a2.939 2.939 0 1 0-2.932-2.939 2.936 2.936 0 0 0 2.932 2.939z" class="prefix__cls-5" data-name="Path 2647" transform="translate(-41.475 -2.668)"/>
            <path id="prefix__Path_2648" d="M126.507 12.949a2.939 2.939 0 1 0-2.932-2.939 2.936 2.936 0 0 0 2.932 2.939z" class="prefix__cls-5" data-name="Path 2648" transform="translate(-46.646 -2.668)"/>
            <g id="prefix__Group_2052" class="prefix__cls-6" data-name="Group 2052" transform="translate(130.117 49.459)">
                <path id="prefix__Path_2649" d="M251.808 80.34V95.2c0 .443-.828.8-1.852.8h-39.093c-1.022 0-1.853-.358-1.853-.8V80.34c0-.443.826-.894 1.853-.894h39.093c1.027-.003 1.852.448 1.852.894z" class="prefix__cls-7" data-name="Path 2649" transform="translate(-209.01 -79.446)"/>
            </g>
            <path id="prefix__Path_2650" d="M259.555 87.964h-20.367v.722h20.367z" class="prefix__cls-8" data-name="Path 2650" transform="translate(-90.284 -33.202)"/>
            <path id="prefix__Path_2651" d="M219.708 85.425a4.844 4.844 0 0 0-2.662 8.879v-.321a1.1 1.1 0 0 1 .966-1.09 1.914 1.914 0 0 0 3.361 0 1.1 1.1 0 0 1 .966 1.09v.342a4.842 4.842 0 0 0-2.631-8.9zm1.9 6.139a1.913 1.913 0 0 1-3.819 0 2.1 2.1 0 0 1 1.1-2.815.655.655 0 0 1-.1-.348.638.638 0 0 1 .049-.245.637.637 0 0 1 .591-.394h.045a.639.639 0 0 0-.593.637.656.656 0 0 0 .085.318h.019a.728.728 0 0 1 0-.127.627.627 0 0 1 .121-.371.636.636 0 0 1 .609-.451h.045a.632.632 0 0 0-.487.286.618.618 0 0 1 .352-.106.638.638 0 0 1 .637.639.683.683 0 0 1 0 .072 2.1 2.1 0 0 1 1.556 2.032 2.151 2.151 0 0 1-.218.873z" class="prefix__cls-7" data-name="Path 2651" transform="translate(-81.109 -32.243)"/>
            <path id="prefix__Path_2652" d="M259.555 90.785h-20.367v.722h20.367z" class="prefix__cls-7" data-name="Path 2652" transform="translate(-90.284 -34.267)"/>
            <path id="prefix__Path_2653" d="M259.555 93.607h-20.367v.722h20.367z" class="prefix__cls-7" data-name="Path 2653" transform="translate(-90.284 -35.331)"/>
            <path id="prefix__Path_2654" d="M259.555 96.432h-20.367v.722h20.367z" class="prefix__cls-7" data-name="Path 2654" transform="translate(-90.284 -36.398)"/>
            <g id="prefix__Group_2053" class="prefix__cls-6" data-name="Group 2053" transform="translate(84.225 78.555)">
                <path id="prefix__Path_2655" d="M178.093 127.075v14.857c0 .44-.826.8-1.853.8h-39.093c-1.022 0-1.852-.361-1.852-.8v-14.857c0-.443.826-.894 1.852-.894h39.1c1.02 0 1.846.451 1.846.894z" class="prefix__cls-7" data-name="Path 2655" transform="translate(-135.295 -126.181)"/>
            </g>
            <path id="prefix__Path_2656" d="M185.835 134.7h-20.367v.722h20.367z" class="prefix__cls-8" data-name="Path 2656" transform="translate(-62.458 -50.843)"/>
            <path id="prefix__Path_2657" d="M145.99 132.16a4.844 4.844 0 0 0-2.663 8.882v-.324a1.1 1.1 0 0 1 .966-1.088 1.915 1.915 0 0 0 3.361 0 1.1 1.1 0 0 1 .966 1.088v.345a4.842 4.842 0 0 0-2.63-8.9zm1.892 6.139a1.913 1.913 0 0 1-3.819 0 2.143 2.143 0 0 1-.188-.873 2.108 2.108 0 0 1 1.286-1.942.631.631 0 0 1-.1-.345.642.642 0 0 1 .637-.642h.048a.64.64 0 0 0-.511.955h.021a.693.693 0 0 1 0-.125.937.937 0 0 1 .731-.825h.024a.638.638 0 0 0-.487.286.633.633 0 0 1 .349-.106.642.642 0 0 1 .641.642.683.683 0 0 1 0 .072 2.1 2.1 0 0 1 1.365 2.918z" class="prefix__cls-7" data-name="Path 2657" transform="translate(-53.283 -49.883)"/>
            <path id="prefix__Path_2658" d="M185.835 137.525h-20.367v.722h20.367z" class="prefix__cls-7" data-name="Path 2658" transform="translate(-62.458 -51.908)"/>
            <path id="prefix__Path_2659" d="M185.835 140.346h-20.367v.722h20.367z" class="prefix__cls-7" data-name="Path 2659" transform="translate(-62.458 -52.973)"/>
            <path id="prefix__Path_2660" d="M185.835 143.167h-20.367v.722h20.367z" class="prefix__cls-7" data-name="Path 2660" transform="translate(-62.458 -54.038)"/>
            <g id="prefix__Group_2054" class="prefix__cls-6" data-name="Group 2054" transform="translate(73.674 31.44)">
                <path id="prefix__Path_2661" d="M161.139 51.4v14.853c0 .44-.826.8-1.853.8H120.2c-1.019 0-1.853-.361-1.853-.8V51.4c0-.443.829-.894 1.853-.894h39.093c1.021-.006 1.846.447 1.846.894z" class="prefix__cls-7" data-name="Path 2661" transform="translate(-118.346 -50.502)"/>
            </g>
            <path id="prefix__Path_2662" d="M168.878 59.025h-20.367v.722h20.367z" class="prefix__cls-8" data-name="Path 2662" transform="translate(-56.058 -22.279)"/>
            <path id="prefix__Path_2663" d="M168.878 61.846h-20.367v.722h20.367z" class="prefix__cls-7" data-name="Path 2663" transform="translate(-56.058 -23.344)"/>
            <path id="prefix__Path_2664" d="M168.878 64.667h-20.367v.722h20.367z" class="prefix__cls-7" data-name="Path 2664" transform="translate(-56.058 -24.408)"/>
            <path id="prefix__Path_2665" d="M168.878 67.488h-20.367v.722h20.367z" class="prefix__cls-7" data-name="Path 2665" transform="translate(-56.058 -25.473)"/>
            <path id="prefix__Path_2666" d="M129.033 56.481a4.847 4.847 0 0 0-2.646 8.882v-.82a1.1 1.1 0 0 1 .966-1.09 1.914 1.914 0 0 0 3.361 0 1.1 1.1 0 0 1 .966 1.09v.838a4.842 4.842 0 0 0-2.646-8.9zm2.117 5.911a.327.327 0 0 1-.064.082.265.265 0 0 1-.14.048h-.1a1.918 1.918 0 0 1-3.755-.547 1.9 1.9 0 0 1 .252-.944l-.021-.013a.64.64 0 0 1 .063-.889 1.274 1.274 0 0 1 .4-.146 1.774 1.774 0 0 0 1.005-.772 2.07 2.07 0 0 1 0 .292.425.425 0 0 1 .464-.11.427.427 0 0 1 .143.089 1.2 1.2 0 0 0 .172.2.527.527 0 0 0 .214.061l.482.061a.919.919 0 0 1 .548.2.868.868 0 0 1 .182.324 4.845 4.845 0 0 1 .315 1.021 1.64 1.64 0 0 1-.146 1.043z" class="prefix__cls-7" data-name="Path 2666" transform="translate(-46.891 -21.319)"/>
            <g id="prefix__Group_2055" class="prefix__cls-6" data-name="Group 2055" transform="translate(140.798 101.725)">
                <path id="prefix__Path_2667" d="M268.968 164.291v14.857c0 .443-.826.8-1.852.8h-39.1c-1.022 0-1.853-.359-1.853-.8v-14.857c0-.443.825-.891 1.853-.891h39.1c1.026-.013 1.852.435 1.852.891z" class="prefix__cls-7" data-name="Path 2667" transform="translate(-226.167 -163.4)"/>
            </g>
            <path id="prefix__Path_2668" d="M276.711 171.9h-20.367v.722h20.367z" class="prefix__cls-8" data-name="Path 2668" transform="translate(-96.759 -64.882)"/>
            <path id="prefix__Path_2669" d="M276.711 174.719h-20.367v.722h20.367z" class="prefix__cls-7" data-name="Path 2669" transform="translate(-96.759 -65.947)"/>
            <path id="prefix__Path_2670" d="M276.711 177.544h-20.367v.722h20.367z" class="prefix__cls-7" data-name="Path 2670" transform="translate(-96.759 -67.013)"/>
            <path id="prefix__Path_2671" d="M276.711 180.365h-20.367v.722h20.367z" class="prefix__cls-7" data-name="Path 2671" transform="translate(-96.759 -68.078)"/>
            <path id="prefix__Path_2672" d="M236.864 169.358a4.844 4.844 0 0 0-2.662 8.88v-.82a1.1 1.1 0 0 1 .966-1.088 1.915 1.915 0 0 0 3.361 0 1.1 1.1 0 0 1 .966 1.088v.841a4.842 4.842 0 0 0-2.631-8.9zm2.117 5.908a.3.3 0 0 1-.063.085.26.26 0 0 1-.14.048h-.1a1.916 1.916 0 0 1-3.748-.723 1.935 1.935 0 0 1 .247-.768h-.021a.64.64 0 0 1 .064-.888 1.262 1.262 0 0 1 .4-.146 1.767 1.767 0 0 0 1.005-.769 2.076 2.076 0 0 1 0 .292.425.425 0 0 1 .3-.138.429.429 0 0 1 .308.116 1.082 1.082 0 0 0 .172.194.5.5 0 0 0 .214.063l.482.061a.906.906 0 0 1 .548.2.865.865 0 0 1 .182.324 4.794 4.794 0 0 1 .315 1.022 1.631 1.631 0 0 1-.151 1.029z" class="prefix__cls-7" data-name="Path 2672" transform="translate(-87.585 -63.923)"/>
            <path id="prefix__Path_2673" d="M192.227 214.709l-5.807-8.439a7.96 7.96 0 0 0-.489-2.579c-.381-.488-.082-1.573-.082-1.573s.408-.6.055-.652-.055-1.385-.055-1.385l-.027-2.122a7.489 7.489 0 0 0 .056-2.526.8.8 0 0 1 .026-.867s.326-1.167 0-1.467-.246-2.122-.164-3.555a5.437 5.437 0 0 0-.569-2.47c0-.218-2.144-2.332-2.144-2.523a5.355 5.355 0 0 0-2.173-1.194c-.815-.217-1.22-.379-1.193-.488s-1.276-.53-1.276-.53a2.576 2.576 0 0 1-1.574-.65 3.3 3.3 0 0 0-1.8-.74l-.024-.114-.024-.122c.1-.172.2-.35.283-.531.026-.055.05-.108.074-.164a2.315 2.315 0 0 0 1.336-.416 1.82 1.82 0 0 0 .649-1.3 2.879 2.879 0 0 0-.315-1.446 2.461 2.461 0 0 1-.468-1.525c.053-.228.191-.43.265-.652a1.73 1.73 0 0 0-.2-1.287c-.2-.393-.489-.74-.72-1.122a4.353 4.353 0 0 1-.572-1.592 2.461 2.461 0 0 0-.212-.865 1.652 1.652 0 0 0-.476-.482 4.761 4.761 0 0 0-2.912-.887 14.117 14.117 0 0 1-2.209.136 8.142 8.142 0 0 1-1.289-.337 3.341 3.341 0 0 0-2.752.141c-.791.523-1.109 1.55-1.646 2.353a18.684 18.684 0 0 0-1.533 2.059v-.045a2.638 2.638 0 0 0-.2.549 3.919 3.919 0 0 0 .12 1.8 1.253 1.253 0 0 0 .439.8 2.544 2.544 0 0 0 .95.189c-.013.05-.026.1-.037.154a6.09 6.09 0 0 0-.135 1.292 6.218 6.218 0 0 0 4.43 5.962v.164a4.494 4.494 0 0 1-.026.467s-2.729-.562-3.459-.181-2.173.677-2.382.894-.76.056-1.249 1.327-.542 2.579-1.164 3.184-.95 1.005-.979 1.441.082.53-.161.676-.6.706-.49.923a.77.77 0 0 1-.3.815.907.907 0 0 0-.379.814s-.164.6-.542.732-.625 1.032-.625 1.032l-1.23 1.419-2.44-2.706a1.026 1.026 0 0 0-1.45-.074l-1.2 1.069a2.366 2.366 0 0 0-1.2.717 3.1 3.1 0 0 0-.619.926l-.657.591a1.67 1.67 0 0 0-.169 1.844l1.564 1.733v.016a2.728 2.728 0 0 0-1.512.616c-2.331 2.064-2.361 3.963-2.006 4.831a36.572 36.572 0 0 0 3.311 4.207 13.227 13.227 0 0 0 4.2 3.43l-.019.019c-.05.054-.1.109-.146.17l-.039.053a.355.355 0 0 0-.037.054l-.045.064-.034.053-.048.08-.029.05-.055.106-.019.035c0 .011-.045.1-.066.148l-.024.056a.3.3 0 0 1-.042.106l-.024.072a.452.452 0 0 1-.035.106l-.024.077q-.016.056-.032.12a.339.339 0 0 1-.019.072c0 .024-.029.13-.042.2v.077a1.2 1.2 0 0 0-.024.141.263.263 0 0 1-.013.1.589.589 0 0 0-.019.135.634.634 0 0 0 0 .1v.515a15.015 15.015 0 0 0 .13 3.637 1.759 1.759 0 0 0 1.44 1.083 1.913 1.913 0 0 0 .466-.024c1.411-.247 4.721-.815 5.888-.6a10.032 10.032 0 0 0 2.925-.239l.243-.047.169.53.529-.149.455.265.288.165c.53 1.82 2.71 1.2 2.71 1.2l.516.3 5.238.136a10.477 10.477 0 0 0 1.853.891 1.59 1.59 0 0 0 .265.059 11.743 11.743 0 0 0 1.458.027c.4 0 .712-.027.712-.027s-.053-1.424-.129-3.022a42.46 42.46 0 0 0 4.851-.4c2.8-.493 3.969-3.043 4.393-4.4a12.594 12.594 0 0 1 .265 1.69 12.227 12.227 0 0 0 .434 1.464 4.9 4.9 0 0 0 .6 1.088c2.061-.705.812-1.764.378-2.226s.3-.841.3-.841.572-.382.529-.735-.082-.733 1.765-.706 1.722-1.523 1.722-1.523zm-28.656-17.329a12.642 12.642 0 0 0 .513 2.269 2.9 2.9 0 0 1 .061.894c-1.093-.088-2.231-.136-2.231-.136a.269.269 0 0 1 .058.141l-.172-.04-.252-.061 2.016-3.069zm-3.991 6.367l1.893.3.159.024a6.778 6.778 0 0 0-.1.9c0 .027.042.061.1.1a2.846 2.846 0 0 0-.037.448 5.222 5.222 0 0 0 1.932.746c-.016.053-.029.106-.042.154-.9-.473-2.308-.692-2.472-1.043s-4.964-2.035-4.964-2.035-.177-.093-.479-.239l1.265.239.347-.035a18.836 18.836 0 0 0 2.395.438z" class="prefix__cls-2" data-name="Path 2673" transform="translate(-54.732 -63.415)"/>
            <path id="prefix__Path_2674" d="M190.211 238.733s-.754 4.558-4.573 5.232-16.566.53-16.566.53-7.289-1.061-9.924-7.224-4.332-8.63-2.072-8.736 14.444 4.126 15.143 4.179 18.665-9.376 17.992 6.019z" class="prefix__cls-3" data-name="Path 2674" transform="translate(-58.893 -86.259)"/>
            <path id="prefix__Path_2676" d="M155.941 248.862a1.745 1.745 0 0 0 1.421 1.088 1.844 1.844 0 0 0 .461-.027 27.433 27.433 0 0 1 5.835-.591 10.059 10.059 0 0 0 2.911-.236c.609-.114 1.058-.223 1.058-.223s-1.075-3.587-1.209-3.693-4.851-2.95-4.851-2.95l-3.729-.265a1.964 1.964 0 0 0-1.263.745 3.979 3.979 0 0 0-.754 2.544 14.648 14.648 0 0 0 .12 3.608z" class="prefix__cls-9" data-name="Path 2676" transform="translate(-58.812 -91.328)"/>
            <path id="prefix__Path_2677" d="M155.944 248.862a1.745 1.745 0 0 0 1.421 1.088 15.252 15.252 0 0 1-1.011-1.48l.019-2.616a4.617 4.617 0 0 1 1.469-3.889s-1.964.135-2.016 3.29a15.912 15.912 0 0 0 .118 3.607z" class="prefix__cls-10" data-name="Path 2677" transform="translate(-58.815 -91.328)"/>
            <path id="prefix__Path_2678" d="M180.681 238.917l3.469-2.722 5.46-5.393-1.479-.067c-.222.141-.842.586-.865 1.127-.027.658-1.474.045-2.229.422s-4.438 5.1-5.078 5.075-1.157-.329-1.424.13a.318.318 0 0 1-.021.029z" class="prefix__cls-11" data-name="Path 2678" transform="translate(-67.383 -87.09)"/>
            <path id="prefix__Path_2679" d="M157.03 242.715l.375.172a23.594 23.594 0 0 1 6.132 3.937 25.219 25.219 0 0 0 3.491 2.271c.608-.114 1.058-.223 1.058-.223s-1.075-3.587-1.21-3.693-4.848-2.95-4.848-2.95l-3.729-.265a1.959 1.959 0 0 0-1.269.751z" class="prefix__cls-11" data-name="Path 2679" transform="translate(-59.274 -91.328)"/>
            <path id="prefix__Path_2680" d="M145.172 227.453a35.958 35.958 0 0 0 3.281 4.179 12.816 12.816 0 0 0 4.5 3.56 23.548 23.548 0 0 1 6.132 3.937 29.869 29.869 0 0 0 3.737 2.417l.334.194.733.427.389.223s.9-.724 1.8-1.454 1.768-1.443 1.781-1.483c.027-.082.376-1 .294-1.061-.042-.026-.225-.4-.567-.833a3.815 3.815 0 0 0-1.368-1.136 3.888 3.888 0 0 1-1.776-1.857s-.119-.085-.3-.2a3.6 3.6 0 0 0-1.209-.531c-.593-.074-1.694-1.286-1.694-1.286a3.325 3.325 0 0 1-1.058-1.106c-.283-.592-4.454-3.449-4.84-3.714l10.12 6.5 2.422 1.557 3.47-2.722 5.46-5.393-1.8-.08c-2.646-.117-7.365-.3-7.961-.162a4.5 4.5 0 0 1-1.479.1 5.178 5.178 0 0 1-2.231-.408c-.887-.469-2.289-.69-2.45-1.037s-4.923-2.021-4.923-2.021-6.481-3.449-8.794-1.4-2.357 3.928-2.003 4.79z" class="prefix__cls-3" data-name="Path 2680" transform="translate(-54.736 -83.795)"/>
            <path id="prefix__Path_2681" d="M178.841 194.114l.834 2.778 1.075 6.255 3.954.266 1.146-1.905 1.141-1.9s.712-2.528 1.225-4.974c.453-2.162.746-4.263.265-4.492-.436-.2-.722-.931-.91-1.714-.024-.1-.045-.194-.063-.292a15.289 15.289 0 0 1-.265-2.011s-8.286-.432-7.129 2.993a5.412 5.412 0 0 1 .312 1.82 4.43 4.43 0 0 1-.026.464 3.885 3.885 0 0 1-1.556 2.709z" class="prefix__cls-12" data-name="Path 2681" transform="translate(-67.506 -70.247)"/>
            <path id="prefix__Path_2682" fill="#e3e8f4" d="M176.074 196.871l.3 4.72.672 4.017.754 1.857.672 10.177s6.484.753 8.061 0a.693.693 0 0 0 .286-.223c1.906-2.884 1.281-11.235 1.281-11.235l.733-5.4-.484-2.8-1.169-.125-.9-.1s-.2.249-.495.639c-.794 1.061-2.265 3.13-2.167 4 .134 1.186-.162 2.388-.619 2.587s-.834.514-.913.191a1.466 1.466 0 0 1-.082-.862 7 7 0 0 0-.349-1.857 7.86 7.86 0 0 1-.672-2.346 2.755 2.755 0 0 0-.3-1.7c-.217-.188-.51-.379-.265-1.241s-1.058-2.542-1.058-2.542z" data-name="Path 2682" transform="translate(-66.462 -73.463)"/>
            <path id="prefix__Path_2683" d="M189.827 206.819l.265 8.063 1.554.865a.676.676 0 0 0 .286-.225c1.905-2.884 1.281-11.235 1.281-11.235l.725-5.394-.484-2.8-1.17-.125c.453-2.162.749-4.261.265-4.489-.436-.2-.725-.931-.91-1.714l-.842 5.7s.072.512.1 1.042a2.954 2.954 0 0 1-.069 1.005 3.372 3.372 0 0 0-.053 1.348 11 11 0 0 0-.844 3.979c-.165 2.041-.104 3.98-.104 3.98z" class="prefix__cls-11" data-name="Path 2683" transform="translate(-71.648 -71.626)"/>
            <path id="prefix__Path_2684" d="M191.749 189.548s1.355.17 1.784.735a2.542 2.542 0 0 0 1.561.647 6.146 6.146 0 0 1 1.263.53c-.029.1.379.265 1.185.486a5.321 5.321 0 0 1 2.152 1.188c0 .191 2.117 2.289 2.117 2.507a5.416 5.416 0 0 1 .564 2.454c-.08 1.43-.162 3.234.161 3.531s0 1.456 0 1.456a.8.8 0 0 0-.027.862 7.512 7.512 0 0 1-.055 2.507l.029 2.1s-.3 1.326.053 1.374-.053.647-.053.647-.3 1.08.079 1.565a7.958 7.958 0 0 1 .484 2.56l5.756 8.386s.08 1.536-1.749 1.509-1.8.35-1.746.7-.511.73-.511.73-.728.377-.3.836 1.667 1.509-.376 2.209a4.866 4.866 0 0 1-.593-1.077 12.6 12.6 0 0 1-.431-1.456s-.188-2.051-.563-2.319-.323-1.565-.323-1.565.529-1.061-.214-1.483-11.674-6.5-11.674-6.5l-.265-8.063s-.188-5.958.942-7.959a3.36 3.36 0 0 1 .053-1.348 7.033 7.033 0 0 0-.026-2.051z" class="prefix__cls-14" data-name="Path 2684" transform="translate(-71.736 -71.544)"/>
            <path id="prefix__Path_2685" d="M175.493 194.566s-2.7-.56-3.441-.183-2.152.674-2.366.891-.755.053-1.238 1.326-.53 2.561-1.157 3.154-.942 1-.969 1.427.082.53-.161.674-.59.7-.484.918 5.594 4.961 5.594 4.961a12.576 12.576 0 0 0 .511 2.265c.246.459-.265 6.768-.807 7.2s3.641.39 3.641.39.191-4.139.352-4.357a43.117 43.117 0 0 0-.108-4.637 26.522 26.522 0 0 1 .322-4.775 21.883 21.883 0 0 0 .31-4.314 8.932 8.932 0 0 1 .685-2.454c.377-.465-.684-2.486-.684-2.486z" class="prefix__cls-11" data-name="Path 2685" transform="translate(-62.53 -73.32)"/>
            <path id="prefix__Path_2686" d="M175.366 194.435s-2.7-.557-3.44-.181-2.152.674-2.366.889-.754.055-1.236 1.326-.529 2.563-1.156 3.154-.943 1-.969 1.43.079.53-.162.674-.593.7-.484.918 5.594 4.961 5.594 4.961a12.556 12.556 0 0 0 .51 2.263c.247.456-.265 6.768-.807 7.2s3.631.39 3.631.39.188-4.139.349-4.354a42.972 42.972 0 0 0-.108-4.637 26.545 26.545 0 0 1 .323-4.776 21.915 21.915 0 0 0 .312-4.314 8.908 8.908 0 0 1 .683-2.454c.377-.462-.674-2.489-.674-2.489z" class="prefix__cls-14" data-name="Path 2686" transform="translate(-62.483 -73.271)"/>
            <path id="prefix__Path_2687" d="M180.8 189.13a5.424 5.424 0 0 1 .313 1.82 6.155 6.155 0 0 0 7.077-2.8 15.391 15.391 0 0 1-.265-2.011s-8.28-.439-7.125 2.991z" class="prefix__cls-11" data-name="Path 2687" transform="translate(-68.204 -70.25)"/>
            <path id="prefix__Path_2688" d="M174.3 180.369a6.17 6.17 0 1 0 .133-1.284 6.171 6.171 0 0 0-.133 1.284z" class="prefix__cls-15" data-name="Path 2688" transform="translate(-65.794 -65.749)"/>
            <path id="prefix__Path_2689" d="M164.683 207.067l-1.48.459a.764.764 0 0 1-.3.8.9.9 0 0 0-.375.8s-.162.595-.53.73-.616 1.024-.616 1.024l-1.239 1.43s-.458.377-.375.565-.484.241-.484.241l.3 4.8 2.554.482 1.588-.162 1.291-.482 1.13-.677.511-1.327 2.257-3.449z" class="prefix__cls-14" data-name="Path 2689" transform="translate(-60.125 -78.157)"/>
            <path id="prefix__Path_2690" fill="#ee8e9e" d="M155.876 215.634s-3.282-4.746-5.73-2.183 1 6.712 1.8 6.577 4.655-.35 4.655-.35z" data-name="Path 2690" transform="translate(-56.349 -80.279)"/>
            <path id="prefix__Path_2691" d="M174.518 179.089a.746.746 0 0 1 .453.2c.206.22.217.611.489.748a.572.572 0 0 0 .321.037c.714-.1 1.127-.913 1.815-1.136a1.85 1.85 0 0 1 1.2.1.92.92 0 0 1 .4.265c.23.3.068.738.174 1.1.148.5.744.7 1.263.764a2.189 2.189 0 0 1 1.442.493 1.333 1.333 0 0 1 .265 1.043.831.831 0 0 0 0 .387c.143.4.842.345 1.024.024.132-.231.093-.425.4-.488a1.32 1.32 0 0 1 .659.114 4.779 4.779 0 0 0 1.7.265 6.164 6.164 0 1 0-11.6-3.91z" class="prefix__cls-11" data-name="Path 2691" transform="translate(-65.874 -65.755)"/>
            <path id="prefix__Path_2692" d="M181.41 180.923a.834.834 0 0 1 0-.388 1.338 1.338 0 0 0-.022-.549 1.32 1.32 0 0 0-.243-.493A2.2 2.2 0 0 0 179.7 179c-.516-.066-1.114-.265-1.263-.764-.106-.361.055-.8-.175-1.1a.884.884 0 0 0-.4-.266 1.847 1.847 0 0 0-1.2-.106c-.689.223-1.1 1.032-1.816 1.136a.569.569 0 0 1-.32-.037c-.265-.138-.283-.53-.489-.748-.328-.347-.948-.125-1.347-.382a1.229 1.229 0 0 1-.434-.8 3.873 3.873 0 0 1-.12-1.788c.233-1 1.127-1.69 1.7-2.547.529-.8.83-1.807 1.63-2.337a3.251 3.251 0 0 1 2.729-.141 7.546 7.546 0 0 0 1.278.337 14.1 14.1 0 0 0 2.189-.133 4.685 4.685 0 0 1 2.89.881 1.593 1.593 0 0 1 .471.477 2.4 2.4 0 0 1 .212.86 4.386 4.386 0 0 0 .567 1.576c.228.379.511.724.715 1.117a1.711 1.711 0 0 1 .193 1.276c-.068.223-.2.421-.265.65a2.441 2.441 0 0 0 .463 1.515 2.868 2.868 0 0 1 .315 1.438 1.82 1.82 0 0 1-.646 1.292 2.3 2.3 0 0 1-1.363.414 4.845 4.845 0 0 1-1.739-.265 1.32 1.32 0 0 0-.656-.114c-.315.064-.265.265-.407.488-.161.339-.86.397-1.002-.006z" class="prefix__cls-17" data-name="Path 2692" transform="translate(-64.956 -63.749)"/>
            <path id="prefix__Path_2693" d="M180.271 239.169l3.469-2.722 5.46-5.393-1.8-.08a1.178 1.178 0 0 0-.381.735c-.027.661-1.474.048-2.229.425s-4.438 5.1-5.078 5.073-1.157-.326-1.424.13l-.021.032a.763.763 0 0 1-.41.244z" class="prefix__cls-11" data-name="Path 2693" transform="translate(-67.134 -87.18)"/>
            <path id="prefix__Path_2694" d="M170.5 237.84l1.744 5.571.265.875.831-.228 1.832-.5 8.151-2.244a7.06 7.06 0 0 0 2.935-.8 8.861 8.861 0 0 1 5.065-1.109c1.077.1 2.276-.364 3.271-2.207 0 0 2.257-6.686-3.44-8.6s-5.975 1.016-5.975 1.016l-.077.048c-.222.141-.842.586-.865 1.127-.026.658-1.474.045-2.228.422s-4.433 5.126-5.073 5.1-1.157-.329-1.424.13a.321.321 0 0 1-.021.029c-.2.265-.794.339-1.193.35h-.374l-.05.016-.413.122z" class="prefix__cls-3" data-name="Path 2694" transform="translate(-64.358 -86.039)"/>
            <path id="prefix__Path_2695" d="M171.228 224.3l.839.135.349-3.478s-.383-.058-.865-.169a18.207 18.207 0 0 1-.323 3.512z" class="prefix__cls-11" data-name="Path 2695" transform="translate(-64.633 -83.334)"/>
            <path id="prefix__Path_2696" d="M193.289 200.27s2.5-.727 1.884 6.391a19.9 19.9 0 0 1-5.246 11.62s-5.327 2.345-7.72 1.969-4.136-.459-4.136-.459a6.106 6.106 0 0 0-2.421-.647c-1.345-.053-4.169-.888-4.235-1.159s.7-4.231.379-4.528a24.686 24.686 0 0 1 4.142.427c.375.273.913.077 1.323 0a4.59 4.59 0 0 1 4.089-.212 2.44 2.44 0 0 0 1.157-.136 1.159 1.159 0 0 1 .841-.053 2.308 2.308 0 0 0 .583-.3c.082-.106.728 0 .728 0a.277.277 0 0 0 .123.029.282.282 0 0 0 .123-.027.284.284 0 0 0 .156-.191 1.771 1.771 0 0 1 .375-.591s.728-4.1 2.1-5.635a.879.879 0 0 0 .3-.783c-.113-.43 2.227-6.585 5.455-5.715z" class="prefix__cls-11" data-name="Path 2696" transform="translate(-64.702 -75.559)"/>
            <path id="prefix__Path_2697" d="M175.245 242.331l3.552 4.311.024-.026c.026-.08.376-1 .294-1.061a4.948 4.948 0 0 0-1.937-1.969 3.687 3.687 0 0 1-1.519-1.388z" class="prefix__cls-11" data-name="Path 2697" transform="translate(-66.149 -91.417)"/>
            <path id="prefix__Path_2698" d="M175.262 251.5l.389.223s.9-.724 1.8-1.454 1.768-1.443 1.781-1.483c.026-.082.375-1 .294-1.061-.042-.026-.225-.4-.567-.833-2.408-.676-.873 1-.669 1.077a2.455 2.455 0 0 0-3.094 2.526 3.837 3.837 0 0 0 .066 1.005z" class="prefix__cls-11" data-name="Path 2698" transform="translate(-66.126 -93.127)"/>
            <path id="prefix__Path_2699" d="M178.394 252.86l.514.3 5.19.136a10.481 10.481 0 0 0 1.837.886 1.748 1.748 0 0 0 .265.059 12.075 12.075 0 0 0 1.447.026c.4 0 .7-.026.7-.026s-.246-6.564-.431-7.253c-.087-.332-.529-.265-.953-.093a6.17 6.17 0 0 0-.929.472 16.508 16.508 0 0 0-2.557.4c-.352.191-1.344-.109-1.964 0s-1.72-.73-1.72-.73c-3.012-1-1.323.862-1.1.944a2.453 2.453 0 0 0-3.091 2.526 2.076 2.076 0 0 0 2.792 2.353z" class="prefix__cls-9" data-name="Path 2699" transform="translate(-66.281 -93.132)"/>
            <path id="prefix__Path_2700" fill="#565387" d="M192.146 250.329a8.748 8.748 0 0 0 1.744 3.937c.4 0 .7-.026.7-.026s-.247-6.564-.431-7.253c-.087-.332-.529-.265-.953-.093a7.587 7.587 0 0 0-1.06 3.435z" data-name="Path 2700" transform="translate(-72.527 -93.135)"/>
            <path id="prefix__Path_2701" d="M192.146 250.329a8.748 8.748 0 0 0 1.744 3.937c.4 0 .7-.026.7-.026s-.247-6.564-.431-7.253c-.087-.332-.529-.265-.953-.093a7.587 7.587 0 0 0-1.06 3.435z" class="prefix__cls-11" data-name="Path 2701" transform="translate(-72.527 -93.135)"/>
            <path id="prefix__Path_2702" d="M190.67 250.509c.357 1.31.352 2.783.921 3.672a1.746 1.746 0 0 0 .265.059 12.071 12.071 0 0 0 1.447.026c.4 0 .7-.026.7-.026s-.246-6.564-.431-7.253c-.087-.332-.529-.265-.953-.093a6.171 6.171 0 0 0-.929.472 3.619 3.619 0 0 0-1.02 3.143z" class="prefix__cls-10" data-name="Path 2702" transform="translate(-71.938 -93.135)"/>
            <path id="prefix__Path_2703" d="M161.956 231.421a10.741 10.741 0 0 1 4.764 3.817z" class="prefix__cls-11" data-name="Path 2703" transform="translate(-61.133 -87.349)"/>
            <g id="prefix__Group_2056" class="prefix__cls-19" data-name="Group 2056" transform="translate(107.133 109.878)">
                <path id="prefix__Path_2704" d="M195.547 179.449l-.016.059a1.892 1.892 0 0 1-.09.225 1.588 1.588 0 0 1 .106-.284z" class="prefix__cls-11" data-name="Path 2704" transform="translate(-180.905 -177.611)"/>
                <path id="prefix__Path_2705" d="M172.147 177.026a2.43 2.43 0 0 1 .2-.53c-.013.045-.027.093-.037.141a3.873 3.873 0 0 0 .12 1.788 1.227 1.227 0 0 0 .434.8c.4.265 1.019.035 1.344.38.209.22.22.613.49.748a.527.527 0 0 0 .322.037c.715-.1 1.127-.91 1.815-1.133a1.811 1.811 0 0 1 1.2.1.883.883 0 0 1 .4.265c.23.3.069.737.175 1.1.148.5.743.7 1.259.764a2.205 2.205 0 0 1 1.445.494 1.3 1.3 0 0 1 .245.492 1.313 1.313 0 0 1 .02.55.869.869 0 0 0 0 .384c.143.406.842.345 1.024.027.133-.233.093-.425.405-.491a1.346 1.346 0 0 1 .659.114 4.831 4.831 0 0 0 1.739.265 2.34 2.34 0 0 0 1.363-.414 1.623 1.623 0 0 0 .418-.512 1.728 1.728 0 0 1-.58.915 2.306 2.306 0 0 1-1.363.414 4.842 4.842 0 0 1-1.739-.265 1.325 1.325 0 0 0-.659-.115c-.313.064-.265.266-.405.489-.182.321-.881.379-1.024-.024a.866.866 0 0 1 0-.387 1.306 1.306 0 0 0-.265-1.043 2.213 2.213 0 0 0-1.445-.493c-.519-.067-1.111-.266-1.26-.764-.106-.36.056-.8-.174-1.1a.885.885 0 0 0-.4-.265 1.846 1.846 0 0 0-1.2-.106c-.688.222-1.1 1.032-1.815 1.135a.58.58 0 0 1-.323-.037c-.265-.138-.28-.531-.489-.748-.326-.347-.945-.125-1.345-.382a1.229 1.229 0 0 1-.434-.8 3.874 3.874 0 0 1-.12-1.793z" class="prefix__cls-11" data-name="Path 2705" transform="translate(-172.092 -176.496)"/>
            </g>
            <path id="prefix__Path_2706" d="M194.975 211.231c-.492.665-1.059 1.284-1.49 1.99a3.784 3.784 0 0 0-.654 2.353 6.248 6.248 0 0 0 .943-1.688 23.94 23.94 0 0 1 1.807-2.727c.116-.172.86-1.173.484-1.221-.309-.038-.913 1.062-1.09 1.293z" class="prefix__cls-11" data-name="Path 2706" transform="translate(-72.784 -79.24)"/>
            <path id="prefix__Path_2707" d="M156.533 194.39l5.391 10.219c.161.3-.278.852-.979 1.226L134.038 220.1c-.7.372-1.4.427-1.562.122l-5.391-10.216c-.161-.306.243-.918.945-1.289l26.906-14.265c.705-.375 1.438-.367 1.597-.062z" class="prefix__cls-2" data-name="Path 2707" transform="translate(-47.958 -73.287)"/>
            <g id="prefix__Group_2057" class="prefix__cls-6" data-name="Group 2057" transform="translate(79.092 120.878)">
                <path id="prefix__Path_2708" d="M156.533 194.39l5.391 10.219c.161.3-.278.852-.979 1.226L134.038 220.1c-.7.372-1.4.427-1.562.122l-5.391-10.216c-.161-.306.243-.918.945-1.289l26.906-14.265c.705-.375 1.438-.367 1.597-.062z" class="prefix__cls-7" data-name="Path 2708" transform="translate(-127.05 -194.165)"/>
            </g>
            <path id="prefix__Path_2709" fill="#2585d3" d="M164.442 201.565L150.426 209l.261.495 14.016-7.43z" data-name="Path 2709" transform="translate(-56.781 -76.08)"/>
            <path id="prefix__Path_2710" d="M165.468 203.51l-14.016 7.43.261.495L165.729 204z" class="prefix__cls-7" data-name="Path 2710" transform="translate(-57.168 -76.814)"/>
            <path id="prefix__Path_2711" d="M166.491 205.447l-14.016 7.43.261.495 14.016-7.43z" class="prefix__cls-7" data-name="Path 2711" transform="translate(-57.554 -77.545)"/>
            <path id="prefix__Path_2712" d="M167.517 207.393l-14.016 7.43.261.495 14.016-7.43z" class="prefix__cls-7" data-name="Path 2712" transform="translate(-57.942 -78.28)"/>
            <path id="prefix__Path_2713" d="M136.911 217.5a3.768 3.768 0 0 0 1.392 7.08l-.3-.562a.857.857 0 0 1 .265-1.1 1.49 1.49 0 0 0 2.313-1.226.856.856 0 0 1 1.058.4l.3.578a3.761 3.761 0 0 0-5.041-5.165zm3.607 3.292a.2.2 0 0 1-.014.08.215.215 0 0 1-.079.085l-.066.037a1.493 1.493 0 1 1-2.953.265h-.019a.5.5 0 0 1-.278-.637.964.964 0 0 1 .219-.244 1.383 1.383 0 0 0 .413-.9 1.618 1.618 0 0 1 .1.2.333.333 0 0 1 .407-.236 1.157 1.157 0 0 0 .191.072.433.433 0 0 0 .172-.035l.352-.135a.528.528 0 0 1 .694.1 3.817 3.817 0 0 1 .588.586 1.279 1.279 0 0 1 .274.764z" class="prefix__cls-7" data-name="Path 2713" transform="translate(-50.924 -81.929)"/>
            <path id="prefix__Path_2714" d="M156.46 218.006c-.026 3.558 7.318 4.314 7.318 4.314l1.876.3.839.135.349-3.478s-.383-.058-.865-.169c-.709-.167-1.63-.454-1.823-.857-.324-.677-7.667-3.804-7.694-.245z" class="prefix__cls-15" data-name="Path 2714" transform="translate(-59.058 -81.654)"/>
            <path id="prefix__Path_2715" d="M193.18 199.394s2.5-.727 1.884 6.391a19.9 19.9 0 0 1-5.245 11.62s-5.327 2.345-7.72 1.969-4.142-.459-4.142-.459a6.106 6.106 0 0 0-2.421-.647c-1.345-.053-4.168-.888-4.235-1.159s.7-4.245.379-4.528a24.686 24.686 0 0 1 4.142.427c.376.273.913.077 1.323 0a4.581 4.581 0 0 1 4.089-.212 2.446 2.446 0 0 0 1.157-.135 1.158 1.158 0 0 1 .842-.054 2.315 2.315 0 0 0 .582-.3c.082-.106.728 0 .728 0a.28.28 0 0 0 .123.03.283.283 0 0 0 .224-.1.289.289 0 0 0 .056-.113 1.783 1.783 0 0 1 .376-.595s.728-4.1 2.1-5.635a.875.875 0 0 0 .3-.78c-.11-.436 2.232-6.575 5.458-5.72z" class="prefix__cls-14" data-name="Path 2715" transform="translate(-64.659 -75.23)"/>
            <path id="prefix__Path_2716" d="M347.346 57.473V72.33c0 .443-.826.8-1.852.8h-39.1c-1.022 0-1.853-.358-1.853-.8V57.473c0-.443.826-.894 1.853-.894H345.5c1.02.008 1.846.451 1.846.894z" class="prefix__cls-2" data-name="Path 2716" transform="translate(-114.949 -21.356)"/>
            <g id="prefix__Group_2058" class="prefix__cls-19" data-name="Group 2058" transform="translate(185.015 37.927)">
                <path id="prefix__Path_2717" fill="#6c63ff" d="M339.993 61.815v14.857c0 .44-.828.8-1.853.8h-39.1c-1.022 0-1.852-.361-1.852-.8V61.815c0-.443.826-.894 1.852-.894h39.1c1.024 0 1.853.451 1.853.894z" data-name="Path 2717" opacity="0.1" transform="translate(-297.192 -60.921)"/>
            </g>
            <path id="prefix__Path_2718" d="M347.346 57.473V72.33c0 .443-.826.8-1.852.8h-39.1c-1.022 0-1.853-.358-1.853-.8V57.473c0-.443.826-.894 1.853-.894H345.5c1.02.008 1.846.451 1.846.894z" class="prefix__cls-2" data-name="Path 2718" transform="translate(-114.949 -21.356)"/>
            <g id="prefix__Group_2059" class="prefix__cls-6" data-name="Group 2059" transform="translate(189.588 35.223)">
                <path id="prefix__Path_2719" d="M347.346 57.473V72.33c0 .443-.826.8-1.852.8h-39.1c-1.022 0-1.853-.358-1.853-.8V57.473c0-.443.826-.894 1.853-.894H345.5c1.02.008 1.846.451 1.846.894z" class="prefix__cls-7" data-name="Path 2719" transform="translate(-304.537 -56.579)"/>
            </g>
            <path id="prefix__Path_2720" d="M355.094 65.1h-20.367v.722h20.367z" class="prefix__cls-8" data-name="Path 2720" transform="translate(-126.345 -24.572)"/>
            <path id="prefix__Path_2721" d="M355.094 67.923h-20.367v.722h20.367z" class="prefix__cls-7" data-name="Path 2721" transform="translate(-126.345 -25.637)"/>
            <path id="prefix__Path_2722" d="M355.094 70.744h-20.367v.722h20.367z" class="prefix__cls-7" data-name="Path 2722" transform="translate(-126.345 -26.702)"/>
            <path id="prefix__Path_2723" d="M355.094 73.565h-20.367v.722h20.367z" class="prefix__cls-7" data-name="Path 2723" transform="translate(-126.345 -27.767)"/>
            <path id="prefix__Path_2724" d="M315.244 62.558a4.844 4.844 0 0 0-2.67 8.882v-.82a1.1 1.1 0 0 1 .966-1.09 1.914 1.914 0 0 0 3.361 0 1.1 1.1 0 0 1 .966 1.09v.841a4.842 4.842 0 0 0-2.623-8.9zm2.117 5.908a.208.208 0 0 1-.2.13.6.6 0 0 1-.1 0 1.916 1.916 0 1 1-3.5-1.491l-.021-.013a.644.644 0 0 1 .064-.889 1.3 1.3 0 0 1 .4-.146 1.759 1.759 0 0 0 .996-.769 1.758 1.758 0 0 1 0 .292.432.432 0 0 1 .136-.1.426.426 0 0 1 .329-.012.43.43 0 0 1 .142.089c.061.061.1.146.174.194a.459.459 0 0 0 .215.061l.479.064a.677.677 0 0 1 .73.531 4.653 4.653 0 0 1 .315 1.021 1.617 1.617 0 0 1-.153 1.04z" class="prefix__cls-7" data-name="Path 2724" transform="translate(-117.165 -23.612)"/>
            <path id="prefix__Path_2725" d="M357.241 184.855c-.365-1.327-.6-2.488-.6-2.488a5.188 5.188 0 0 0-.677-2.523l-.014-.364-.106-2.7a9.112 9.112 0 0 1 .625-1.432c.449-.862-.151-3.94-.151-3.94s-1.959-4.295-1.627-7.078-4.147-12.148-4.147-12.148a12.206 12.206 0 0 1 .283-2.727 2.186 2.186 0 0 0 .029-.573.652.652 0 0 0 0-.069v.022a21.2 21.2 0 0 0-1.7-5.187l-.059-6.529a19.186 19.186 0 0 0-.926-8.983c-.593-1.78-.982-3.21-1.236-4.314-.029-.125-.058-.244-.082-.361 3.067-.589 5.406-1.061 5.406-1.061s-2.074-7.428-3.334-8.7-2.382-5.356-2.382-5.356-.831-5.277.125-6.863a10.373 10.373 0 0 0 .992-4.287s2.255-1.781 2.517-2.542a12.43 12.43 0 0 0 .646-3.359 21.072 21.072 0 0 1-.265-2.151c.09-.472-.765-2.226-.41-3.085a2.294 2.294 0 0 0 .124-.82V85.2a11.451 11.451 0 0 0-.289-2.191 6.22 6.22 0 0 0-2.345-1.143l-.058-.2-.151-.531c-.079-.048-.156-.09-.233-.127v-.191l-.05-.761.3-1.727c.6-3.006-3.382-3.3-3.382-3.3a2.071 2.071 0 0 0-1.159-.942c-.81-.265.037 4.486.423 4.775a18.139 18.139 0 0 1 1.657 2.388l.074.117a1.774 1.774 0 0 0-.174.2l.19 1.027.029.159a4.152 4.152 0 0 0-.59 1.1 2.312 2.312 0 0 1 .642 1.666 5.13 5.13 0 0 0 .321 2.053c-.045-.048-.577-.581-1.08-.424s-1.913.637-1.913.637-1.058.228-.95.459-.675 1.295-.675 1.295l-2.964-2.605c-.032-.08-.064-.159-.093-.241a6.873 6.873 0 0 1-.294-1.181 6.439 6.439 0 0 0 .9-.326 1.977 1.977 0 0 0 .773-.531 3.25 3.25 0 0 0 .413-1.252 17.5 17.5 0 0 1 .963-2.403 7.728 7.728 0 0 0 .389-4.261 2.839 2.839 0 0 0-.487-1.228c-.492-.626-1.347-.857-1.982-1.345s-1.058-1.258-1.794-1.616a3.332 3.332 0 0 0-2.176-.1 11.589 11.589 0 0 0-4 1.632 2.046 2.046 0 0 1-1.324.5 1.8 1.8 0 0 1-1-.682.211.211 0 0 1 0-.04l-.034-.034a5.073 5.073 0 0 0-.36 2.16 1.509 1.509 0 0 0 .026.342v.119a.686.686 0 0 1 0 .1.61.61 0 0 1-.016.154 1.1 1.1 0 0 1-.265.4 2.413 2.413 0 0 0-.223.329.4.4 0 0 1 .035-.119 1.673 1.673 0 0 0-.265.915.9.9 0 0 0 .238.639 3.116 3.116 0 0 0 .482.358 5.215 5.215 0 0 0-.05.955 5.549 5.549 0 0 0 2.874 4.624c.037.08.071.159.108.241a6.879 6.879 0 0 1 .637 3.1 1.626 1.626 0 0 1-.026.228c-.011.074-.069.082-.1.125 0 0-4.719.228-5.868-.738s-2.71 2.57-2.71 2.57-1.678.4-2.03.08-2.324.042-2.324.042a4.249 4.249 0 0 0-2.988-.966 8.751 8.751 0 0 0-2.213-1.122l-.055-.016a2.422 2.422 0 0 0-1.058-.1 21.788 21.788 0 0 1-3.112-2.839c-.717-1.005-4.086-4.709-4.1-4.728l-.019-.183-.059-.557a1.986 1.986 0 0 1-.288.037l-.072-.191a10.258 10.258 0 0 0-.746-1.549s-.027-.706.172-.889a12.063 12.063 0 0 0-.19-2.754s-2.279-4.82-4.012-1.088c0 0-3.44 2.5-.373 5.144 0 0 1.21.531 1.395.982.122.292.556 1.1.847 1.642.047.09.092.17.129.241l-.032.029.062.457.024.178c-.545.34-.913.671-.812.907a5.127 5.127 0 0 1 .386 1.252s4.309 5 4.925 7.187c0 0 11.274 6.142 14.918 6.471l-.476 3.3a26.161 26.161 0 0 0-.042 2.679c.074.7-.286 3.91-.286 3.91s-.45 4.715-.956 5.394-.3 3.486-.3 3.486a23.752 23.752 0 0 1-.572 4.017 10.269 10.269 0 0 0 0 3.993s-1.675 4.293 2.615 1.26c0 0 2.154-.218 4.637-.4v.249c0 .321.016.669.026 1.035.059 2.42.172 5.752.379 8.269.368 4.449 2.059 13.2 2.059 13.2l.169 4.431a6.114 6.114 0 0 0-.077 1.271 8.241 8.241 0 0 0 1.35 4.4l.453 2.939a11.645 11.645 0 0 1 .929 3.08 1.607 1.607 0 0 1-.024.284 1.943 1.943 0 0 0-.021.454 24.986 24.986 0 0 0 .937 4.523s.172 3.234.661 3.4c.421.143-.479 1.886-.749 2.387-.009-.031-.016-.062-.021-.093-.034.066-.055.1-.055.1a2.3 2.3 0 0 0-.119.825 1.175 1.175 0 0 0 .128.643 1.163 1.163 0 0 0 .452.474c.939.53 1.45.976.68 1.194a8.258 8.258 0 0 0-.847.215c0-.037-.032-.074-.045-.109a.532.532 0 0 0-.3.578 2.449 2.449 0 0 0 .331 1.088 11.777 11.777 0 0 0 1.4 2.343l.368-.055a1.92 1.92 0 0 1-.2.408 1.572 1.572 0 0 1-.529.507 1.666 1.666 0 0 1-.651.265 1.857 1.857 0 0 0-1.345.722 1.425 1.425 0 0 0 .265 2.218l3.5 1.061s5.975.547 5.608-.779-.6-2.489-.6-2.489a5.315 5.315 0 0 0-.574-2.353 2.87 2.87 0 0 0-.222-.342l.209-.032s.32-2.971.878-3.558c.129-.133.156-.233.121-.311.054-.164-.1-.265-.3-.3a.431.431 0 0 1-.037.117 2.969 2.969 0 0 0-.58-.043s-.265-1.538.354-2.122a.594.594 0 0 0 .1-.221.6.6 0 0 0 0-.243 2.535 2.535 0 0 0-.09-.626.137.137 0 0 0-.019.037 23.084 23.084 0 0 0-1.53-3.584 4.466 4.466 0 0 1 .265-1.982c.365-.576-.344-7.646-.344-7.646a23.138 23.138 0 0 0-.481-5.007 5.63 5.63 0 0 1 .4-3.491.508.508 0 0 0-.016-.1v-.024s-.029-.21-.077-.531a.166.166 0 0 1 0 .035c-.13-.9-.379-2.536-.53-3.293-.235-1.061-.19-6.24-.19-6.24l.794-2.239 1.693 3.74 1.84 5a4.327 4.327 0 0 1 .915 2.123v.159a3.111 3.111 0 0 0 0 .34 3.029 3.029 0 0 0 .569 1.782s.53 2.388 1.228 2.961a2.708 2.708 0 0 1 .746 1.756 29.744 29.744 0 0 0 1.365 4.035 6.094 6.094 0 0 1 .429 2.345v.128s.164 1.236.2 2.279v.345a3.788 3.788 0 0 1-.069.847v-.125a8.938 8.938 0 0 0-.164 2.17 5.539 5.539 0 0 0 1.058 3.558c1.363 1.451 2.178 1.231 2.178 1.231s-.555 1.9-1.323 2.305a.531.531 0 0 0-.082.056.714.714 0 0 0-.021-.106.909.909 0 0 0-.2.706 5.074 5.074 0 0 0 1.058 2.745 1.538 1.538 0 0 0 .667.355 1.232 1.232 0 0 1-.116.082 2.591 2.591 0 0 1-.265.136 1.308 1.308 0 0 1-.392.116 1.868 1.868 0 0 0-1.344.722 1.427 1.427 0 0 0 .265 2.218l3.5 1.061s5.98.538 5.602-.788z" class="prefix__cls-2" data-name="Path 2725" transform="translate(-112.456 -27.21)"/>
            <path id="prefix__Path_2726" d="M354.405 254.135l-3.392-1.061a1.464 1.464 0 0 1-.246-2.221 1.787 1.787 0 0 1 1.3-.719 1.584 1.584 0 0 0 .629-.265 1.486 1.486 0 0 0 .511-.507 2.486 2.486 0 0 0 .333-1.31s3.631-1.22 4.679-.181a2.829 2.829 0 0 1 .471.637 5.488 5.488 0 0 1 .558 2.356s.233 1.162.587 2.488-5.43.783-5.43.783z" class="prefix__cls-14" data-name="Path 2726" transform="translate(-132.248 -93.4)"/>
            <path id="prefix__Path_2727" d="M380.608 250.476l-3.39-1.061a1.456 1.456 0 0 1-.249-2.216 1.775 1.775 0 0 1 .571-.5 1.756 1.756 0 0 1 .728-.216 1.323 1.323 0 0 0 .379-.12 2.167 2.167 0 0 0 .265-.136 2.122 2.122 0 0 0 .844-1.817s3.634-1.22 4.679-.18a2.586 2.586 0 0 1 .37.464 5.327 5.327 0 0 1 .659 2.526s.233 1.167.587 2.491-5.443.765-5.443.765z" class="prefix__cls-14" data-name="Path 2727" transform="translate(-142.138 -92.025)"/>
            <path id="prefix__Path_2728" d="M359.94 247.888a2.829 2.829 0 0 1 .471.637l-5.483.852a2.486 2.486 0 0 0 .333-1.31s3.631-1.218 4.679-.179z" class="prefix__cls-11" data-name="Path 2728" transform="translate(-133.969 -93.406)"/>
            <path id="prefix__Path_2729" d="M386.051 244.684l.04 1.035c-.794 1.448-4.954 1.3-6.185.634a2.073 2.073 0 0 0 .265-.135 2.121 2.121 0 0 0 .844-1.817s3.634-1.22 4.679-.181a2.588 2.588 0 0 1 .357.464z" class="prefix__cls-11" data-name="Path 2729" transform="translate(-143.397 -92.021)"/>
            <path id="prefix__Path_2730" fill="#65617d" d="M372.421 204.955a9.114 9.114 0 0 0-.6 1.433l.14 3.714c-.876 1.592-5.761 1.258-6.449.438s-1.474-3-.738-3.4 1.27-2.3 1.27-2.3-.794.217-2.117-1.234-1.074-4.8-.87-5.6a16.684 16.684 0 0 0-.135-3.473 6.972 6.972 0 0 0-.421-2.473 30.909 30.909 0 0 1-1.323-4.035 2.782 2.782 0 0 0-.723-1.759c-.677-.586-1.191-2.961-1.191-2.961a3.081 3.081 0 0 1-.545-2 4.1 4.1 0 0 0-.89-2.409l-1.786-5-1.644-3.743-.754 2.242s-.037 5.168.193 6.24.619 3.921.619 3.921a5.792 5.792 0 0 0-.382 3.491 23.9 23.9 0 0 1 .474 5.009s.691 7.065.339 7.643a4.691 4.691 0 0 0-.265 1.982s2.077 4.053 1.49 4.64-.342 2.122-.342 2.122 1.324-.05.773.53-.85 3.558-.85 3.558l-5.632.875a11.763 11.763 0 0 1-1.36-2.345c-.815-1.708.082-1.552.829-1.769s.265-.666-.659-1.2-.445-1.815-.445-1.815 1.268-2.351.794-2.52-.646-3.4-.646-3.4-1.083-3.809-.889-4.852-.884-3.489-.884-3.489l-.44-2.942a8.148 8.148 0 0 1-1.244-5.542l-.164-4.566s-1.649-8.755-2.006-13.217c-.23-2.849-.347-6.744-.4-9.177-.029-1.363-.04-2.268-.04-2.268l20.132-2.889a16.919 16.919 0 0 0 .481 3c.249 1.1.628 2.534 1.2 4.314a19.856 19.856 0 0 1 .908 8.986l.063 6.526s1.945 4.293 1.627 5.81a12.643 12.643 0 0 0-.265 2.735s4.343 9.368 4.028 12.15 1.596 7.064 1.596 7.064.579 3.093.143 3.955z" data-name="Path 2730" transform="translate(-129.283 -56.771)"/>
            <path id="prefix__Path_2731" d="M370.482 198.843l6.121-1.061s-3.348 3.703-6.121 1.061z" class="prefix__cls-10" data-name="Path 2731" transform="translate(-139.84 -74.652)"/>
            <path id="prefix__Path_2732" d="M377.893 188.159s.293 2.173-1.009 3.046c.008-.005 2.382-.467 1.009-3.046z" class="prefix__cls-11" data-name="Path 2732" transform="translate(-142.257 -71.02)"/>
            <path id="prefix__Path_2733" d="M373.148 177.033s-4.98 4.444-6.88 4.165 6.88-4.165 6.88-4.165z" class="prefix__cls-11" data-name="Path 2733" transform="translate(-138.148 -66.82)"/>
            <path id="prefix__Path_2734" d="M355.973 203.185s-3.872 1.04-3.927 2.616 3.927-2.616 3.927-2.616z" class="prefix__cls-11" data-name="Path 2734" transform="translate(-132.881 -76.691)"/>
            <path id="prefix__Path_2735" d="M358.411 234.528s-5.475 1.244-3.888 1.886a26.751 26.751 0 0 0 4.19 1.109s1.78.024-.302-2.995z" class="prefix__cls-10" data-name="Path 2735" transform="translate(-133.707 -88.522)"/>
            <g id="prefix__Group_2060" data-name="Group 2060" opacity="0.05" transform="translate(213.22 96.388)">
                <path id="prefix__Path_2736" d="M352.573 238.933a1.1 1.1 0 0 1-.529-.783c-.032.064-.053.1-.053.1s-.466 1.284.445 1.815c.106.061.2.12.3.177.164-.037.339-.066.508-.116.721-.204.226-.663-.671-1.193z" class="prefix__cls-10" data-name="Path 2736" transform="translate(-346.036 -186.276)"/>
                <path id="prefix__Path_2737" d="M364.222 237.795c.145-.146.127-.507.016-.966a2.615 2.615 0 0 0-.265 1.369 1.089 1.089 0 0 1 .249-.403z" class="prefix__cls-10" data-name="Path 2737" transform="translate(-350.601 -185.778)"/>
                <path id="prefix__Path_2738" d="M361.386 200.948a6.386 6.386 0 0 0-.307 1.74 6.781 6.781 0 0 1 .384-1.2l-.077-.54z" class="prefix__cls-10" data-name="Path 2738" transform="translate(-349.511 -172.235)"/>
                <path id="prefix__Path_2739" d="M381.675 195.9a2.1 2.1 0 0 0 .032-.515c-.055.353-.093.679-.116.966.025-.151.052-.3.084-.451z" class="prefix__cls-10" data-name="Path 2739" transform="translate(-357.253 -170.134)"/>
                <path id="prefix__Path_2740" d="M362.315 227.105a2.99 2.99 0 0 0 .1-1.045 3.532 3.532 0 0 0-.217 1.327 1.287 1.287 0 0 1 .117-.282z" class="prefix__cls-10" data-name="Path 2740" transform="translate(-349.932 -181.713)"/>
                <path id="prefix__Path_2741" d="M359.951 241.879a18.563 18.563 0 0 0-.529 2.918l-5.632.876a11.917 11.917 0 0 1-1.358-2.343c-.071-.151-.13-.286-.177-.408-.333.169-.452.53.032 1.541a11.787 11.787 0 0 0 1.36 2.343l5.632-.875s.307-2.971.847-3.555c.262-.301.079-.444-.175-.497z" class="prefix__cls-10" data-name="Path 2741" transform="translate(-346.071 -187.684)"/>
                <path id="prefix__Path_2742" d="M348.58 200.884s.172 3.237.646 3.407c.217-.544.355-1.061.143-1.133-.477-.17-.646-3.407-.646-3.407s-1.085-3.809-.889-4.85-.884-3.488-.884-3.488l-.442-2.942a8.149 8.149 0 0 1-1.244-5.542l-.174-4.55s-1.649-8.754-2.006-13.217c-.23-2.849-.347-6.747-.4-9.176 0-.441-.016-.83-.024-1.16l-.161.024s0 .9.042 2.268c.053 2.43.169 6.328.4 9.176.36 4.449 2.008 13.217 2.008 13.217l.175 4.55a8.14 8.14 0 0 0 1.244 5.542l.439 2.942s1.08 2.446.884 3.489.889 4.85.889 4.85z" class="prefix__cls-10" data-name="Path 2742" transform="translate(-342.498 -154.826)"/>
                <path id="prefix__Path_2743" d="M378.968 243.618a5.5 5.5 0 0 1-.979-2.191c-.558.53.183 2.547.836 3.324.689.819 5.574 1.149 6.45-.435l-.034-.894c-1.215 1.311-5.622.978-6.273.196z" class="prefix__cls-10" data-name="Path 2743" transform="translate(-355.819 -187.513)"/>
                <path id="prefix__Path_2744" d="M390.416 235.975a9.17 9.17 0 0 0-.6 1.433l.024.658c.1-.244.238-.57.434-.957a2.855 2.855 0 0 0 .159-1.17z" class="prefix__cls-10" data-name="Path 2744" transform="translate(-360.358 -185.441)"/>
                <path id="prefix__Path_2745" d="M378.121 233.468a8.785 8.785 0 0 0 .418-1.133s-.794.218-2.117-1.233c-.961-1.061-1.093-3.117-1.014-4.471-.2.8-.45 4.152.87 5.6a3.375 3.375 0 0 0 1.843 1.237z" class="prefix__cls-10" data-name="Path 2745" transform="translate(-354.858 -181.929)"/>
                <path id="prefix__Path_2746" d="M369.761 205.589a25.7 25.7 0 0 1 .2 2.775 3.478 3.478 0 0 1 .079-.438 16.655 16.655 0 0 0-.135-3.47 7.01 7.01 0 0 0-.423-2.475 31.066 31.066 0 0 1-1.323-4.035 2.761 2.761 0 0 0-.725-1.756c-.68-.583-1.191-2.961-1.191-2.961a3.092 3.092 0 0 1-.545-2 4.088 4.088 0 0 0-.889-2.406l-1.789-5.006-1.643-3.741-.757 2.237v.713l.616-1.817 1.644 3.741 1.784 5a4.087 4.087 0 0 1 .89 2.406 3.078 3.078 0 0 0 .545 2s.511 2.388 1.191 2.961a2.733 2.733 0 0 1 .723 1.756 30.924 30.924 0 0 0 1.323 4.035 7.067 7.067 0 0 1 .425 2.481z" class="prefix__cls-10" data-name="Path 2746" transform="translate(-349.338 -164.356)"/>
            </g>
            <path id="prefix__Path_2747" d="M373.426 79.611l-.286 1.727.05.761.037.562-1.945.265-.235-.4a16.453 16.453 0 0 0-1.609-2.388c-.37-.289-1.2-5.027-.415-4.775a2.053 2.053 0 0 1 1.127.944s3.858.301 3.276 3.304z" class="prefix__cls-15" data-name="Path 2747" transform="translate(-139.166 -28.443)"/>
            <path id="prefix__Path_2748" d="M374.652 86.623l-1.945.265-.236-.4a1.723 1.723 0 0 1 2.144-.44z" class="prefix__cls-11" data-name="Path 2748" transform="translate(-140.591 -32.404)"/>
            <path id="prefix__Path_2749" d="M375.1 87.65l-2.551.7-.068-.382-.186-1.029a1.77 1.77 0 0 1 2.48-.435l.148.531z" class="prefix__cls-24" data-name="Path 2749" transform="translate(-140.525 -32.521)"/>
            <path id="prefix__Path_2750" d="M305.739 80.154l-2.691 1.592s-.114-.212-.265-.509c-.283-.531-.7-1.353-.823-1.645-.18-.448-1.35-.982-1.35-.982-2.983-2.653.354-5.144.354-5.144 1.673-3.73 3.883 1.093 3.883 1.093a12.365 12.365 0 0 1 .187 2.754c-.193.183-.164.886-.164.886a10.462 10.462 0 0 1 .722 1.552c.097.244.147.403.147.403z" class="prefix__cls-15" data-name="Path 2750" transform="translate(-112.999 -27.195)"/>
            <path id="prefix__Path_2751" d="M307.808 84.827l-2.691 1.592s-.114-.212-.265-.509c.373-.34 1.707-1.512 2.16-1.478a3.473 3.473 0 0 0 .651 0c.094.235.145.395.145.395z" class="prefix__cls-11" data-name="Path 2751" transform="translate(-115.068 -31.868)"/>
            <path id="prefix__Path_2752" d="M308.175 85.735l-3.031 1.645-.087-.663-.057-.46s1.731-1.605 2.263-1.568a2.856 2.856 0 0 0 .794-.032l.058.554z" class="prefix__cls-24" data-name="Path 2752" transform="translate(-115.123 -31.954)"/>
            <path id="prefix__Path_2753" d="M358.161 94.631s-13.407 2.043-10.922 1.127a3.39 3.39 0 0 0 2.482-3.027 7.1 7.1 0 0 0-.622-3.107 13.539 13.539 0 0 0-1.3-2.388s10.075-6.073 8.2-.833a8.23 8.23 0 0 0-.489 2.467 6.9 6.9 0 0 0 .36 2.465 7.372 7.372 0 0 0 2.291 3.296z" class="prefix__cls-15" data-name="Path 2753" transform="translate(-130.951 -31.809)"/>
            <path id="prefix__Path_2754" d="M356.545 86.41a8.23 8.23 0 0 0-.489 2.467c-.937.854-2 .841-3.369.894-1.058.04-2.2.34-3.059-.135a13.54 13.54 0 0 0-1.3-2.388s10.077-6.075 8.217-.838z" class="prefix__cls-11" data-name="Path 2754" transform="translate(-131.479 -31.812)"/>
            <path id="prefix__Path_2755" d="M351.336 86.921a5.587 5.587 0 1 0-5.573-5.587 5.58 5.58 0 0 0 5.573 5.587z" class="prefix__cls-15" data-name="Path 2755" transform="translate(-130.51 -28.59)"/>
            <path id="prefix__Path_2756" d="M358.161 98.6s-13.407 2.043-10.922 1.127a3.39 3.39 0 0 0 2.482-3.027 7.434 7.434 0 0 1 2.824-1.645 4.011 4.011 0 0 1 2.437-.133 3.393 3.393 0 0 1 .905.377 7.373 7.373 0 0 0 2.274 3.301z" class="prefix__cls-11" data-name="Path 2756" transform="translate(-130.951 -35.78)"/>
            <path id="prefix__Path_2757" d="M375.215 88.131l-2.551.7-.068-.382a2.278 2.278 0 0 1 2.442-.944z" class="prefix__cls-11" data-name="Path 2757" transform="translate(-140.638 -33.002)"/>
            <path id="prefix__Path_2758" d="M308.212 86.079l-3.031 1.645-.087-.663a22.411 22.411 0 0 1 3.065-1.491z" class="prefix__cls-11" data-name="Path 2758" transform="translate(-115.16 -32.298)"/>
            <path id="prefix__Path_2759" d="M363.119 153.419c-5.182 1.027-12.562 2.388-13.761 2.072a33.926 33.926 0 0 0-6.82.09c-.029-1.363-.04-2.268-.04-2.268l20.132-2.889a16.866 16.866 0 0 0 .489 2.995z" class="prefix__cls-11" data-name="Path 2759" transform="translate(-129.278 -56.777)"/>
            <path id="prefix__Path_2760" d="M353.692 127.618s-17.059 3.616-18.924 3.125-11.3.482-11.3.482c-4.147 3.024-2.533-1.265-2.533-1.265a10.376 10.376 0 0 1 0-3.993 24.631 24.631 0 0 0 .548-4.014s-.2-2.81.288-3.486.918-5.391.918-5.391.344-3.207.265-3.911a25.665 25.665 0 0 1 .04-2.676l.476-3.306c-3.527-.334-14.447-6.489-14.447-6.489-.6-2.184-4.763-7.19-4.763-7.19a5.415 5.415 0 0 0-.376-1.255c-.309-.74 3.846-2.4 3.846-2.4s3.281 3.714 3.969 4.733a20.342 20.342 0 0 0 3.014 2.844 2.245 2.245 0 0 1 1.035.093l.053.016a8.375 8.375 0 0 1 2.141 1.125 4.06 4.06 0 0 1 2.9.968s1.908-.355 2.247-.04 1.966-.074 1.966-.074 1.5-3.536 2.617-2.568 5.682.743 5.682.743a6.74 6.74 0 0 1 2.951-1.807 4.011 4.011 0 0 1 2.437-.135 3.126 3.126 0 0 1 .982.43l2.874 2.613s.756-1.061.654-1.295.921-.456.921-.456 1.339-.475 1.853-.637 1 .382 1.045.427a5.436 5.436 0 0 1-.313-2.053 2.425 2.425 0 0 0-.627-1.666c1.484-4.1 5.309-.862 5.309-.862a7.707 7.707 0 0 1 .164 3.048c-.344.86.477 2.611.4 3.083s.236 1.26.265 2.152a13.024 13.024 0 0 1-.619 3.359c-.251.761-2.435 2.536-2.435 2.536a10.624 10.624 0 0 1-.961 4.266c-.924 1.587-.111 6.864-.111 6.864s1.1 4.091 2.316 5.359 3.233 8.703 3.233 8.703z" class="prefix__cls-14" data-name="Path 2760" transform="translate(-114.696 -32.402)"/>
            <path id="prefix__Path_2761" d="M340.31 103.221s-.574-1.528-1.058-1.65a11.243 11.243 0 0 1-1.379-.557l.265-.589s1.776.414 2.077.921a4.132 4.132 0 0 1 .095 1.875z" class="prefix__cls-11" data-name="Path 2761" transform="translate(-127.532 -37.905)"/>
            <path id="prefix__Path_2762" d="M323.9 99.309c-.077.472-4.234 1.061-4.234 1.061l2.025-2.2.053.016a8.366 8.366 0 0 1 2.156 1.123z" class="prefix__cls-11" data-name="Path 2762" transform="translate(-120.662 -37.054)"/>
            <path id="prefix__Path_2763" d="M306.494 90.55a.377.377 0 1 0-.375-.377.376.376 0 0 0 .375.377z" class="prefix__cls-25" data-name="Path 2763" transform="translate(-115.547 -33.893)"/>
            <path id="prefix__Path_2764" d="M307.31 91.726a.377.377 0 1 0-.375-.377.376.376 0 0 0 .375.377z" class="prefix__cls-25" data-name="Path 2764" transform="translate(-115.855 -34.337)"/>
            <path id="prefix__Path_2765" d="M308.105 92.809a.377.377 0 1 0-.375-.377.376.376 0 0 0 .375.377z" class="prefix__cls-25" data-name="Path 2765" transform="translate(-116.155 -34.746)"/>
            <path id="prefix__Path_2766" d="M308.938 93.985a.377.377 0 1 0-.375-.377.376.376 0 0 0 .375.377z" class="prefix__cls-25" data-name="Path 2766" transform="translate(-116.469 -35.19)"/>
            <path id="prefix__Path_2767" d="M379.828 91.157a.305.305 0 1 0-.3-.305.3.3 0 0 0 .3.305z" class="prefix__cls-25" data-name="Path 2767" transform="translate(-143.253 -34.177)"/>
            <path id="prefix__Path_2768" d="M379.947 92.265a.305.305 0 1 0-.3-.305.3.3 0 0 0 .3.305z" class="prefix__cls-25" data-name="Path 2768" transform="translate(-143.298 -34.595)"/>
            <path id="prefix__Path_2769" d="M380.053 93.373a.305.305 0 1 0-.3-.305.3.3 0 0 0 .3.305z" class="prefix__cls-25" data-name="Path 2769" transform="translate(-143.338 -35.013)"/>
            <path id="prefix__Path_2770" d="M342.609 125.333c-.045-.053 11.014 12.894 18.909 4.86-.003 0-12.873 2.258-18.909-4.86z" class="prefix__cls-11" data-name="Path 2770" transform="translate(-129.319 -47.306)"/>
            <path id="prefix__Path_2771" d="M333.3 136.86s6.32-.072 7.05 1.722l.072 1.894a1.2 1.2 0 0 1-1.175.045c-.648-.318-4.538-2.122-5.848-1.127z" class="prefix__cls-11" data-name="Path 2771" transform="translate(-125.807 -51.657)"/>
            <path id="prefix__Path_2772" d="M333.495 136.852s6.042-.069 6.74 1.642l.069 1.807a1.156 1.156 0 0 1-1.124.043c-.619-.305-4.34-2.016-5.592-1.075z" class="prefix__cls-26" data-name="Path 2772" transform="translate(-125.88 -51.654)"/>
            <path id="prefix__Path_2773" d="M337.992 114.577a20.34 20.34 0 0 0 2.61 4.115 16.464 16.464 0 0 0 3.969 3.56s-6.441-6.81-6.579-7.675z" class="prefix__cls-11" data-name="Path 2773" transform="translate(-127.577 -43.247)"/>
            <path id="prefix__Path_2774" d="M334.222 102.9s1.228 4.51 4 5.958z" class="prefix__cls-11" data-name="Path 2774" transform="translate(-126.154 -38.838)"/>
            <path id="prefix__Path_2775" d="M331.617 103.735c-.032-.085-.794 3.64 3.705 5.508.008 0-1.9-.568-3.705-5.508z" class="prefix__cls-11" data-name="Path 2775" transform="translate(-125.145 -39.154)"/>
            <path id="prefix__Path_2776" d="M375.735 97.114a30.66 30.66 0 0 1 2.882 2s-1.551-2.146-2.882-2z" class="prefix__cls-11" data-name="Path 2776" transform="translate(-141.822 -36.652)"/>
            <path id="prefix__Path_2777" d="M349.622 85.222a.875.875 0 0 0 .312.638.874.874 0 0 0 .68.2 11.3 11.3 0 0 0 5.028-.669 1.9 1.9 0 0 0 .743-.531 3.179 3.179 0 0 0 .4-1.252 18.3 18.3 0 0 1 .937-2.409 8 8 0 0 0 .376-4.279 2.863 2.863 0 0 0-.471-1.228c-.476-.629-1.307-.857-1.921-1.348s-1.03-1.26-1.739-1.618a3.174 3.174 0 0 0-2.117-.106 11.035 11.035 0 0 0-3.864 1.629 1.954 1.954 0 0 1-1.294.5 1.8 1.8 0 0 1-.992-.7 5.221 5.221 0 0 0-.323 2.449 1.064 1.064 0 0 1 0 .366 1.129 1.129 0 0 1-.246.4 1.422 1.422 0 0 0-.2 1.762c.188.21.469.316.654.531.328.379.243.947.265 1.448a.737.737 0 0 0 .143.491.722.722 0 0 0 .694.138 1.864 1.864 0 0 1 .728-.1 1.212 1.212 0 0 1 .656.467 8.547 8.547 0 0 1 1.551 3.221z" class="prefix__cls-17" data-name="Path 2777" transform="translate(-130.109 -27.361)"/>
            <g id="prefix__Group_2061" class="prefix__cls-19" data-name="Group 2061" transform="translate(214.595 46.615)">
                <path id="prefix__Path_2778" d="M356.55 87.413a1.9 1.9 0 0 1-.746.531 11.188 11.188 0 0 1-5.015.669.877.877 0 0 1-.995-.833 8.689 8.689 0 0 0-1.546-3.247 1.216 1.216 0 0 0-.654-.467 1.93 1.93 0 0 0-.73.1.721.721 0 0 1-.694-.138.752.752 0 0 1-.143-.491 2.108 2.108 0 0 0-.265-1.448c-.183-.212-.466-.318-.654-.531a1.107 1.107 0 0 1-.151-1.117 1.29 1.29 0 0 0-.021 1.5c.188.207.471.313.654.531.329.379.247.947.265 1.451a.734.734 0 0 0 .143.488.714.714 0 0 0 .694.138 1.92 1.92 0 0 1 .73-.1 1.231 1.231 0 0 1 .654.467 8.747 8.747 0 0 1 1.546 3.247.881.881 0 0 0 .992.836 11.3 11.3 0 0 0 5.028-.671 1.915 1.915 0 0 0 .746-.531 1.518 1.518 0 0 0 .222-.462.734.734 0 0 1-.06.078z" class="prefix__cls-11" data-name="Path 2778" transform="translate(-344.706 -76.977)"/>
                <path id="prefix__Path_2779" d="M345.8 77.6a.8.8 0 0 0 .159-.289 1 1 0 0 0 0-.366 5.2 5.2 0 0 1 .185-2.03l-.034-.037a5.221 5.221 0 0 0-.323 2.449 1.6 1.6 0 0 1 .013.273z" class="prefix__cls-11" data-name="Path 2779" transform="translate(-345.102 -74.878)"/>
            </g>
            <path id="prefix__Path_2780" d="M351.221 98.187s6.992.658 7.576-.417z" class="prefix__cls-11" data-name="Path 2780" transform="translate(-132.57 -36.903)"/>
            <path id="prefix__Path_2781" d="M372.765 92.965s3.864-.143 4.764 1.276z" class="prefix__cls-11" data-name="Path 2781" transform="translate(-140.702 -35.088)"/>
            <path id="prefix__Path_2782" d="M42.792 72.776v14.856c0 .443-.828.8-1.852.8H1.844c-1.022 0-1.853-.358-1.853-.8V72.776c0-.443.826-.894 1.853-.894h39.1c1.02 0 1.848.451 1.848.894z" class="prefix__cls-2" data-name="Path 2782" transform="translate(0 -27.131)"/>
            <g id="prefix__Group_2062" class="prefix__cls-6" data-name="Group 2062" transform="translate(-.009 44.75)">
                <path id="prefix__Path_2783" d="M42.792 72.776v14.856c0 .443-.828.8-1.852.8H1.844c-1.022 0-1.853-.358-1.853-.8V72.776c0-.443.826-.894 1.853-.894h39.1c1.02 0 1.848.451 1.848.894z" class="prefix__cls-7" data-name="Path 2783" transform="translate(.009 -71.882)"/>
            </g>
            <path id="prefix__Path_2784" d="M50.536 80.4H30.169v.722h20.367z" class="prefix__cls-8" data-name="Path 2784" transform="translate(-11.39 -30.348)"/>
            <path id="prefix__Path_2785" d="M10.689 77.865a4.844 4.844 0 0 0-2.662 8.879v-.324a1.1 1.1 0 0 1 .966-1.088 1.914 1.914 0 0 0 3.361 0 1.1 1.1 0 0 1 .966 1.088v.345a4.842 4.842 0 0 0-2.631-8.9zM12.581 84a1.913 1.913 0 0 1-3.816 0 2.1 2.1 0 0 1 1.1-2.815.616.616 0 0 1-.1-.345.638.638 0 0 1 .64-.639h.045a.639.639 0 0 0-.593.639.614.614 0 0 0 .085.316h.018a.652.652 0 0 1 0-.125.775.775 0 0 1 .73-.822h.045a.64.64 0 0 0-.487.286.638.638 0 0 1 .99.531.624.624 0 0 1 0 .072A2.1 2.1 0 0 1 12.6 84z" class="prefix__cls-7" data-name="Path 2785" transform="translate(-2.216 -29.39)"/>
            <path id="prefix__Path_2786" d="M50.536 83.226H30.169v.722h20.367z" class="prefix__cls-7" data-name="Path 2786" transform="translate(-11.39 -31.413)"/>
            <path id="prefix__Path_2787" d="M50.536 86.047H30.169v.722h20.367z" class="prefix__cls-7" data-name="Path 2787" transform="translate(-11.39 -32.478)"/>
            <path id="prefix__Path_2788" d="M50.536 88.868H30.169v.722h20.367z" class="prefix__cls-7" data-name="Path 2788" transform="translate(-11.39 -33.543)"/>
            <path id="prefix__Path_2789" d="M79.031 124.286a16.029 16.029 0 0 1-.265-2.444c0-.982-1.324-1.857-1.324-1.857s-.823-1.91-1.363-2.189a17.131 17.131 0 0 1-2.242-2.78 2.268 2.268 0 0 0-.51-1.347 19.348 19.348 0 0 1-1.387-2.1c-.227-.281-.113-.477-.455-2.107q-.029-.127-.064-.247a.361.361 0 0 0-.034-.1 2.759 2.759 0 0 0 .646-2.849 1.169 1.169 0 0 0-.326-.5c-.386-.316-1-.186-1.4-.486l.421-1.873c.1-.456.156-1.04-.246-1.287a2.031 2.031 0 0 0-.471-.159 2.181 2.181 0 0 1-1.26-1.652 5.68 5.68 0 0 1-.138-2.069c.077-.664.265-1.311.344-1.977a5.468 5.468 0 0 0-.839-3.518 2.739 2.739 0 0 0-1.109-1.048 10.035 10.035 0 0 1-1.323-.467c-.852-.531-.81-1.828-1.487-2.573a2.914 2.914 0 0 0-2.871-.483 8.478 8.478 0 0 1-2.988.578c-.654-.072-1.268-.369-1.921-.438a1.917 1.917 0 0 0-.564.027l.013-.024a1.218 1.218 0 0 0-1.045.82 1.269 1.269 0 0 0-.032.334c0 .265.064.546.069.8a.776.776 0 0 1-.185.565c-.13.141-.323.215-.45.358a.584.584 0 0 0-.167.422c0 .409.508.767.849.931-.093.093-.183.188-.265.286a6.037 6.037 0 0 0-1.49 4.014 6.115 6.115 0 0 0 3.705 5.6c-.016.05-.029.1-.048.149a7.9 7.9 0 0 1-.333.867 1.71 1.71 0 0 0-1.437.159 3.684 3.684 0 0 1-2.271.337 31.5 31.5 0 0 0-4.171-.422c-.283.109-.852-.392-1.22.281s-.529 1.04-.908 1.207-1.021.7-.937.814-.937.8-.937.8a4.519 4.519 0 0 1-1.389 1.04 7.748 7.748 0 0 0-1.588.815l-1.249.981s-.937.141-.654-.5-.511-1.462-.511-1.462a23.122 23.122 0 0 1-1.588-3.9 19.717 19.717 0 0 0-1.3-3.51l-.161-.016-.074-.21a19.806 19.806 0 0 0-.794-1.992c-.45-.926-.741-1.032-.741-1.032s-5.5-4.144-9.08-2.881 6.526 5.025 7.434 5.42a1.719 1.719 0 0 1 .707 1.1 4.709 4.709 0 0 0-1.945 1.774s2.183 4.855 2.239 6.062a23.125 23.125 0 0 0 1.506 4.576 3.181 3.181 0 0 0 3.462 2.358s4.028.74 4.907 0a6.953 6.953 0 0 1 2.1-1.409 1.654 1.654 0 0 0 .794-.562s-1.323 8.421-1.985 9.153-6.441 10.19-4.372 11.872a41.552 41.552 0 0 0 5.187 3.434c.177.087.7-.8 1.458-1.419v.486c.013 3.364.45 8.489 1.072 9.635.908 1.685.529 4.942.529 4.942a3.914 3.914 0 0 0 1.535.369c.026.108.058.222.09.342a46.043 46.043 0 0 0 1.723 5.6 22.7 22.7 0 0 1 1.08 4.914 34.671 34.671 0 0 1 .228 4.184 24.481 24.481 0 0 0 .561 3.656c-.23 2.632-.662 7.707-.736 9.551v.308a2.085 2.085 0 0 0 0 .345 1.082 1.082 0 0 1-.037.53 8.561 8.561 0 0 1-.617 1.47 7.022 7.022 0 0 0-.265.713 1.285 1.285 0 0 0-.662.942c-.283 1.1-.709 4.128-.709 4.128a7.353 7.353 0 0 1-.511 2.274c-.341.416-.68 3.059 1.731 3.4a3.5 3.5 0 0 0 3.462-1.284l-.085-7.349a1.08 1.08 0 0 0 .124-.2v-.016c.016-.037.034-.072.05-.114s0-.035.021-.053.024-.059.034-.09a.15.15 0 0 1 0-.032 4.841 4.841 0 0 0 .2-2.189v-.151a.341.341 0 0 0 0-.05.516.516 0 0 1 0-.064v-.045a.482.482 0 0 1 .016-.148.1.1 0 0 1 0-.029v-.088a.2.2 0 0 0 0-.04.634.634 0 0 1 .018-.093v-.021c.021-.109.05-.217.079-.332v-.032l.032-.111c.037-.12.077-.236.116-.353v-.024l.04-.109v-.013c.04-.111.082-.22.124-.324v-.029l.04-.093v-.027l.087-.207.67 2.072a5.266 5.266 0 0 1 .169 1.908c-.2.364.228 1.884.511 1.91l-.265 1.911a29.25 29.25 0 0 0-.265 3.183c-.018.12-.037.223-.05.3a6.834 6.834 0 0 0 .265 2.494c2.242 2.653 4.909.207 4.909.207s.312-1.406 0-1.685-.169-1.292-.169-1.292.14-2.5.169-4.324a5.672 5.672 0 0 0-1.49-3.43l-.085.077a5.827 5.827 0 0 1-.529-1.923c.114-.645-.312-7.466-.312-7.466a40.814 40.814 0 0 0 .1-5.487l.106-.91c.172-1.467.31-2.722.365-3.377v-.077c.013-.177.021-.3.018-.363 0-.218 0-.491.021-.778.056-.8.177-1.666.177-1.666l.6-3.621a11.252 11.252 0 0 1 1.106-2.751l.077-.125c.026-.043.053-.09.079-.141v-.021l.079-.151v-.021c.093-.181.191-.39.291-.618l.024-.05.077-.175.029-.069.077-.176c0-.024.019-.045.029-.068.029-.072.058-.143.09-.215l.042-.1c.024-.053.045-.106.066-.162l.058-.138.04-.1.063-.157c0-.024.021-.048.029-.072.161-.406.32-.8.458-1.172l.127-.329c1.453.09 2.44.172 2.44.172a34.048 34.048 0 0 0 .312-5.447 20.11 20.11 0 0 1 .357-4.359l.056-.305.04.032c.712.56 1.22-1.292 1.22-1.292s-.191-1.733-.447-3.826a1.9 1.9 0 0 0-.026-.21 11 11 0 0 0 1.241.191s.228-.021.529-.061a15.044 15.044 0 0 0 2.694 1.21l1.5-2.807a11.458 11.458 0 0 1 1-1.655c.455-.562 2.072-2.358 2.043-2.7a9.214 9.214 0 0 1 1.106-3.144 7.538 7.538 0 0 0 .882-2.775zm-6.3 2.122c-.6.252-1.164 1.655-1.191 2.077s-.654 2.274-1.307 2.5a8.753 8.753 0 0 0-1.929 1.433c-.188.019-.4.042-.622.08a21.721 21.721 0 0 0-.654-3.534c-.453-.844.5-3.537.5-3.537s.1-2.722.691-3.369.455-2.274.455-2.274.14-.674.2-.982.844 0 .849 0a3.721 3.721 0 0 1 1.76 2.1 12.026 12.026 0 0 0 1.9 3.449s-.265.756 0 1.151-.053.661-.648.913z" class="prefix__cls-2" data-name="Path 2789" transform="translate(-9.327 -33.22)"/>
            <path id="prefix__Path_2790" d="M35.942 109.83a4.573 4.573 0 0 1 4.584-2.157v3.28h-1.978l-1.567-.406z" class="prefix__cls-17" data-name="Path 2790" transform="translate(-13.569 -40.622)"/>
            <path id="prefix__Path_2792" d="M36.515 104.723l-2.432 1.711s-.021-.345-.082-.812c-.122-.884-.394-2.21-.982-2.468-.894-.392-10.85-4.146-7.32-5.407s8.942 2.873 8.942 2.873.281.1.725 1.021c.236.486.529 1.314.778 1.987.214.612.371 1.095.371 1.095z" class="prefix__cls-15" data-name="Path 2792" transform="translate(-9.418 -36.805)"/>
            <path id="prefix__Path_2793" fill="#4c4981" d="M74.363 113.248l.275-.133.778.889-.635 1.358-1.082-.435.251-1.085z" data-name="Path 2793" transform="translate(-27.82 -42.695)"/>
            <path id="prefix__Path_2794" d="M67.383 241.141s-.7-.083-.979 1.008-.7 4.12-.7 4.12a7.391 7.391 0 0 1-.5 2.268c-.336.411-.67 3.054 1.7 3.391a3.434 3.434 0 0 0 3.411-1.282l-.085-7.349z" class="prefix__cls-26" data-name="Path 2794" transform="translate(-24.524 -91.017)"/>
            <path id="prefix__Path_2795" d="M79.933 241.674A5.668 5.668 0 0 1 81.4 245.1c-.026 1.83-.169 4.316-.169 4.316s-.138 1.008.169 1.289 0 1.679 0 1.679-2.628 2.446-4.835-.2a7.2 7.2 0 0 1-.265-2.491c.167-.976.67-5.373.67-5.373z" class="prefix__cls-26" data-name="Path 2795" transform="translate(-28.789 -91.219)"/>
            <path id="prefix__Path_2796" d="M79.728 186.906a45.981 45.981 0 0 1-2.154 5.21 11.064 11.064 0 0 0-1.088 2.749l-.588 3.616a19.863 19.863 0 0 0-.2 2.438c.026.812-1.453 12.663-1.453 12.663l-2.347 3s-1.035 2.1-.868 2.971a4.407 4.407 0 0 1-.447 2.688s-.056 2.745-.14 3.364.31 2.353 0 2.653-4.414.167-4.528-.337a14.868 14.868 0 0 1 .505-2.942l.363-2.353s.725-1.29.558-1.709.307-1.4.336-1.485.794-1.457.643-1.987.865-11.824.865-11.824l2.879-20.258z" class="prefix__cls-12" data-name="Path 2796" transform="translate(-24.879 -69.963)"/>
            <path id="prefix__Path_2798" d="M76.721 229.9c.026.308-3.941.756-4.5.419s0-4.51 0-4.51l.265-1.9c-.281-.029-.7-1.541-.5-1.908a5.3 5.3 0 0 0-.169-1.9l-.659-2.069-.4-1.263a57.859 57.859 0 0 1-2.186-8.648 24.846 24.846 0 0 1-.553-3.653 34.574 34.574 0 0 0-.225-4.173 23.181 23.181 0 0 0-1.059-4.9 47.329 47.329 0 0 1-1.7-5.6c-.251-.968-.426-1.663-.426-1.663s4.234-.355 6.785-.48c1.18-.055 2.006-.063 1.908.035a3.464 3.464 0 0 0-.114 1.35 34.328 34.328 0 0 0 .561 6.213 20.857 20.857 0 0 1 .614 5.407 15.728 15.728 0 0 0-.111 2.8 12.611 12.611 0 0 1 .49 3.043 41.157 41.157 0 0 1-.1 5.475s.421 6.808.307 7.453.894 2.653.894 3.053.254 3.054.254 3.054.598 4.058.624 4.365z" class="prefix__cls-15" data-name="Path 2798" transform="translate(-24.388 -70.81)"/>
            <path id="prefix__Path_2799" d="M81.258 116.885l-.482.531-.312.337-1.831 1.95-4.724.53-2.509-.673-.622-.164s0-1.266.114-2.783c.159-1.944.543-4.308 1.453-4.95a3.62 3.62 0 0 0 1.059-1.35 7.6 7.6 0 0 0 .458-1.133c.018-.05.032-.1.048-.146a12.454 12.454 0 0 0 .445-2.08s.6-.334 1.44-.725c2.189-1.024 5.968-2.435 4.652.725a11.877 11.877 0 0 0-.492 1.422c-.021.068-.04.141-.056.209a4.6 4.6 0 0 0 .18 3.417 2.439 2.439 0 0 0 .191.289 1.459 1.459 0 0 0 .318.323l.545 3.463.045.286z" class="prefix__cls-12" data-name="Path 2799" transform="translate(-26.718 -39.636)"/>
            <path id="prefix__Path_2800" d="M82.319 107.246c-.249.6.122-.491 0 0-1 .711-3.342 2.732-4.663 2.732a3.672 3.672 0 0 1-1.921-.507 12.473 12.473 0 0 0 .492-2.226s7.908-4.371 6.092.001z" class="prefix__cls-11" data-name="Path 2800" transform="translate(-28.589 -39.746)"/>
            <path id="prefix__Path_2801" d="M82.154 98.813a6.1 6.1 0 0 1-5.454 6.072 5.745 5.745 0 0 1-.638.035 6.105 6.105 0 1 1 6.087-6.1z" class="prefix__cls-15" data-name="Path 2801" transform="translate(-26.415 -34.995)"/>
            <path id="prefix__Path_2802" d="M81.792 136.833l-.865 2.271s-.709.032-1.81.066c-3.705.12-11.909.265-12.277-.684a2.3 2.3 0 0 1-.127-.753 14.723 14.723 0 0 1 .63-3.7s.392-4.484.392-4.677-.336-3.348-.336-3.348l.67-2.52 1.874-1.327s.839 1.289 1.342 1.4a3.515 3.515 0 0 1 1.175.73s1.646 1.008 2.178.446 4.668-3.024 4.668-3.024l2.181 2.409z" class="prefix__cls-11" data-name="Path 2802" transform="translate(-25.183 -45.939)"/>
            <path id="prefix__Path_2803" d="M81.792 137.374l-.865 2.271s-.709.032-1.81.064h-.109l-1.606.042a70.022 70.022 0 0 1-9.151-.225c-.794-.116-1.323-.265-1.411-.5a1.86 1.86 0 0 1-.1-.416 3.357 3.357 0 0 1-.026-.337 14.874 14.874 0 0 1 .63-3.714s.392-4.484.392-4.68-.336-3.335-.336-3.335l.67-2.52 1.289-.9.585-.412a8.423 8.423 0 0 0 .643.847 1.683 1.683 0 0 0 .7.552 3.557 3.557 0 0 1 1.175.73s1.646 1.011 2.178.448a41.388 41.388 0 0 1 4.081-2.674l.588-.353.294.326 1.887 2.086z" class="prefix__cls-2" data-name="Path 2803" transform="translate(-25.183 -46.144)"/>
            <path id="prefix__Path_2804" d="M42.005 108.434l-2.432 1.711s-.021-.344-.082-.811a4.926 4.926 0 0 0 2.144-1.993c.214.61.37 1.093.37 1.093z" class="prefix__cls-11" data-name="Path 2804" transform="translate(-14.909 -40.515)"/>
            <path id="prefix__Path_2805" d="M49.216 114.37l-.529-.138a4.446 4.446 0 0 1-1.371 1.035 7.451 7.451 0 0 0-1.564.814l-1.231.979s-.924.141-.643-.5-.5-1.457-.5-1.457a23.213 23.213 0 0 1-1.564-3.895 19.773 19.773 0 0 0-1.286-3.5s-1.622 3.165-4.584 2.157c0 0 2.152 4.847 2.207 6.051a23.378 23.378 0 0 0 1.482 4.568 3.151 3.151 0 0 0 3.409 2.353s3.97.74 4.835 0a6.75 6.75 0 0 1 2.069-1.406 1.642 1.642 0 0 0 .781-.56v-3.333z" class="prefix__cls-14" data-name="Path 2805" transform="translate(-13.569 -40.652)"/>
            <path id="prefix__Path_2806" d="M49.273 123.5s.7 2.605.265 2.887z" class="prefix__cls-11" data-name="Path 2806" transform="translate(-18.601 -46.613)"/>
            <path id="prefix__Path_2807" d="M79.118 149.422c-3.705.12-11.909.265-12.277-.682a2.3 2.3 0 0 1-.127-.753l12.145.642z" class="prefix__cls-11" data-name="Path 2807" transform="translate(-25.184 -55.857)"/>
            <path id="prefix__Path_2808" d="M79.223 186.909s-.228.637-.542 1.475c-1.543-.1-3.586-.194-5.526-.207-.688 0-1.36 0-1.993.021a14.859 14.859 0 0 0-3.258.364 8.583 8.583 0 0 1-2.911.374c-.251-.969-.426-1.663-.426-1.663s4.234-.355 6.785-.481l.2-1.424z" class="prefix__cls-11" data-name="Path 2808" transform="translate(-24.374 -69.966)"/>
            <path id="prefix__Path_2809" d="M80.825 162.739l-.474 1.009s-.066.3-.151.777a20.39 20.39 0 0 0-.355 4.351 34.137 34.137 0 0 1-.307 5.433s-10.284-.867-13.3 0-4.5 0-4.5 0 .363-3.25-.529-4.929c-.614-1.152-1.043-6.261-1.059-9.617a8.735 8.735 0 0 1 .265-2.963c.614-.759 3.242-8.322 3.242-8.322l.6.032 1.588.085 9.1.481 1.426.074.151.464z" class="prefix__cls-3" data-name="Path 2809" transform="translate(-22.707 -56.042)"/>
            <path id="prefix__Path_2810" d="M98.086 163.57l.085.9s-4.5-1.47-4.276-3.277 0-1.592 0-1.592l3.62.308z" class="prefix__cls-3" data-name="Path 2810" transform="translate(-35.44 -60.237)"/>
            <path id="prefix__Path_2812" d="M53.681 124.224a4.008 4.008 0 0 0 1.588.827 1.026 1.026 0 0 1-.468-.22c-.323-.23-.63-.48-.939-.724a2.762 2.762 0 0 0-.873-.6 4.864 4.864 0 0 0 .692.717z" class="prefix__cls-11" data-name="Path 2812" transform="translate(-20.003 -46.616)"/>
            <path id="prefix__Path_2813" d="M53.454 125.878a1.942 1.942 0 0 1 .347.555 2.229 2.229 0 0 1 .1.716 2.264 2.264 0 0 1-.124 1.016l-.733-1.743c-.124-.3-.265-.595-.4-.881-.066-.122-.482-.626-.434-.732.135-.309 1.109.902 1.244 1.069z" class="prefix__cls-11" data-name="Path 2813" transform="translate(-19.707 -47.09)"/>
            <path id="prefix__Path_2814" d="M84.83 141.713a2.337 2.337 0 0 0 1.323-.613c-.744.093-1.445.385-2.178.531a3.23 3.23 0 0 1-2.03-.186 4.868 4.868 0 0 0 2.885.268z" class="prefix__cls-11" data-name="Path 2814" transform="translate(-30.933 -53.258)"/>
            <path id="prefix__Path_2815" d="M81 132.5a.487.487 0 0 1-.2-.009.5.5 0 0 1-.18-.086q-.836-.478-1.651-1a10.024 10.024 0 0 1-1.614-1.119A8.194 8.194 0 0 0 81 132.5z" class="prefix__cls-11" data-name="Path 2815" transform="translate(-29.2 -49.176)"/>
            <path id="prefix__Path_2816" d="M84.776 143.058a3.524 3.524 0 0 0 .871-.069 1.178 1.178 0 0 0 .717-.472.4.4 0 0 0-.3.047 5.122 5.122 0 0 1-2.805.337 4.057 4.057 0 0 0 1.517.157z" class="prefix__cls-11" data-name="Path 2816" transform="translate(-31.427 -53.788)"/>
            <path id="prefix__Path_2817" d="M72.873 164.145a8.91 8.91 0 0 1-1.786.352 10.926 10.926 0 0 1-1.413-.026l-2.289-.146-1.146-.074c-.135 0-.688 0-.415-.265.138-.13.9-.048 1.1-.053.381 0 .76-.019 1.138-.021.757 0 1.516 0 2.273.047q1.273.051 2.538.186z" class="prefix__cls-11" data-name="Path 2817" transform="translate(-24.82 -61.868)"/>
            <path id="prefix__Path_2818" d="M69.762 165.984a9.523 9.523 0 0 0-1.289.265 8.472 8.472 0 0 1-1.347.055 7.561 7.561 0 0 1-2.6-.53c1.748.088 3.492.141 5.236.21z" class="prefix__cls-11" data-name="Path 2818" transform="translate(-24.358 -62.571)"/>
            <path id="prefix__Path_2819" d="M64.586 168a4.086 4.086 0 0 1 .5.135 5.76 5.76 0 0 0 2.961-.207 1.754 1.754 0 0 1-1.125.626 5.278 5.278 0 0 1-2.194.079c-.23-.045-.794-.127-.921-.366-.174-.354.564-.304.779-.267z" class="prefix__cls-11" data-name="Path 2819" transform="translate(-24.077 -63.383)"/>
            <path id="prefix__Path_2820" d="M72.9 170.633a8.1 8.1 0 0 1 .855.223 7.285 7.285 0 0 0 3.3-.35 15.258 15.258 0 0 1 4-.371 3.919 3.919 0 0 0-.857.284c-.31.093-.622.177-.934.265a18.693 18.693 0 0 1-1.868.366 19.1 19.1 0 0 1-3.832.167 5.608 5.608 0 0 1-2.1-.266 2.321 2.321 0 0 1 1.436-.318z" class="prefix__cls-11" data-name="Path 2820" transform="translate(-26.975 -64.212)"/>
            <path id="prefix__Path_2821" d="M69.04 114.634a14.727 14.727 0 0 1-.365 3.756c-.13.366-.336 1.043-.558 1.8-.246.84-.513 1.782-.72 2.512s-.341 1.234-.341 1.234-.945 7.709-1.191 11.381v.191c-.013.207-.037.422-.069.645-.545 3.648-3.684 9.272-4.737 9.723a3.167 3.167 0 0 0-.887.61 8.737 8.737 0 0 1 .265-2.963c.614-.759 3.242-8.322 3.242-8.322l.6.032a3.376 3.376 0 0 1-.026-.337 14.874 14.874 0 0 1 .63-3.714s.392-4.484.392-4.68-.336-3.335-.336-3.335l.67-2.52 1.289-.905c.159-1.944.543-4.308 1.453-4.95a3.62 3.62 0 0 0 1.059-1.35c.183.024-.148-.136-.148-.136z" class="prefix__cls-11" data-name="Path 2821" transform="translate(-22.715 -42.767)"/>
            <path id="prefix__Path_2822" d="M65.288 113.061a1.669 1.669 0 0 0-1.416.162 3.587 3.587 0 0 1-2.236.334 30.061 30.061 0 0 0-4.107-.419c-.278.111-.839-.393-1.2.278s-.529 1.038-.894 1.207-1.008.7-.924.812-.921.8-.921.8l2.038 6.632S54.3 131.269 53.67 132s-6.351 10.172-4.3 11.853a41.219 41.219 0 0 0 5.11 3.447c.225.111 1.035-1.4 2.154-1.878s4.584-6.794 4.811-10.37 1.2-11.572 1.2-11.572 1.2-4.372 1.622-5.548a14.537 14.537 0 0 0 .352-3.759z" class="prefix__cls-14" data-name="Path 2822" transform="translate(-18.47 -42.641)"/>
            <path id="prefix__Path_2823" d="M89.749 150.68l-.474 1.009s-.066.3-.151.777a.443.443 0 0 1-.241-.1c-.7-.562-4.809-4.791-5-8.548-.146-2.77-.077-5.155-.032-6.219l.029-.581s3.176-3.869 2.821-5.24-1.2-8.715-1.2-8.715l-.124-.962-.212-1.627-.5-3.942.529.122a1.463 1.463 0 0 0 .318.324l.545 3.462 1.887 2.085.307 12.692-.865 2.271s-.709.032-1.81.064h-.109z" class="prefix__cls-11" data-name="Path 2823" transform="translate(-31.631 -43.983)"/>
            <path id="prefix__Path_2824" d="M91.714 129.618s-.794-.308-.839 0-.2.979-.2.979a3.837 3.837 0 0 1-.447 2.271c-.585.645-.68 3.361-.68 3.361s-.939 2.69-.495 3.531a22.925 22.925 0 0 1 .664 3.667c.159 1.143.318 2.4.46 3.552.265 2.093.442 3.82.442 3.82s-.5 1.857-1.2 1.289-4.809-4.8-5-8.545c-.138-2.64-.082-4.929-.037-6.059.021-.48.037-.751.037-.751s3.176-3.865 2.824-5.237-1.2-8.715-1.2-8.715l-.148-1.132-.156-1.221-.034-.265-.505-3.91a17.262 17.262 0 0 1 3.639 1.143A12.456 12.456 0 0 0 91.8 118.4a2.245 2.245 0 0 1 1.588 1.634c.024.077.042.159.061.244.336 1.626.225 1.82.45 2.1s-2.185 7.24-2.185 7.24z" class="prefix__cls-14" data-name="Path 2824" transform="translate(-31.833 -43.879)"/>
            <path id="prefix__Path_2825" d="M92.029 163.454c-1.149-.223-2.84-.756-2.8-1.924.037-1.1 1.35-1.488 2.342-1.629.17 1.144.316 2.405.458 3.553z" class="prefix__cls-11" data-name="Path 2825" transform="translate(-33.681 -60.354)"/>
            <path id="prefix__Path_2826" d="M95.68 162.731c-.045.1-.235.183-.487.265a12.77 12.77 0 0 1-1.853.3s-3.885-.308-3.829-2.072c.04-1.268 1.794-1.591 2.781-1.679.386-.034.656-.029.656-.029s2.902 2.851 2.732 3.215z" class="prefix__cls-15" data-name="Path 2826" transform="translate(-33.789 -60.209)"/>
            <path id="prefix__Path_2827" d="M97.236 162.731c-.045.1-.236.183-.487.265-1.014-1.358-2.427-3.1-3.117-3.255 0 0 .079-.077.209-.194.386-.034.656-.029.656-.029s2.903 2.849 2.739 3.213z" class="prefix__cls-11" data-name="Path 2827" transform="translate(-35.344 -60.209)"/>
            <path id="prefix__Path_2828" d="M96.362 125.84l1.146.167a19.868 19.868 0 0 0 1.371 2.1 2.284 2.284 0 0 1 .5 1.345 17.315 17.315 0 0 0 2.208 2.775c.529.281 1.342 2.186 1.342 2.186s1.323.867 1.323 1.857a16.233 16.233 0 0 0 .252 2.435 6.943 6.943 0 0 1-.757 2.746 9.431 9.431 0 0 0-1.088 3.138c.029.337-1.566 2.122-2.014 2.69a11.332 11.332 0 0 0-.976 1.653l-1.482 2.8s-3.131-4.622-4.277-4.873a8.96 8.96 0 0 1 1.929-1.457c.643-.223 1.257-2.074 1.286-2.494s.585-1.822 1.173-2.074.895-.5.643-.9 0-1.149 0-1.149a12.067 12.067 0 0 1-1.874-3.449 3.7 3.7 0 0 0-1.731-2.1l-.868-2.122z" class="prefix__cls-14" data-name="Path 2828" transform="translate(-35.45 -47.498)"/>
            <path id="prefix__Path_2829" d="M103.889 142.119a3.619 3.619 0 0 1 2.257-.857 2.753 2.753 0 0 0-1.477.578 3.4 3.4 0 0 0-.407.53c-.135.191-1.212 1.566-1.385 1.351-.256-.329.795-1.421 1.012-1.602z" class="prefix__cls-11" data-name="Path 2829" transform="translate(-38.819 -53.319)"/>
            <path id="prefix__Path_2830" d="M100.462 137.8a.965.965 0 0 0 .794-.565 3.192 3.192 0 0 0 .248-.995 14.744 14.744 0 0 1 .347-1.7 1.077 1.077 0 0 0 .055-.355 1.014 1.014 0 0 0-.1-.342 2.469 2.469 0 0 0-.243-.509 3.109 3.109 0 0 0-.352 1.061q-.153.573-.294 1.146c-.047.2-.436 2.259-.455 2.259z" class="prefix__cls-11" data-name="Path 2830" transform="translate(-37.922 -50.326)"/>
            <path id="prefix__Path_2831" d="M88.865 111.191a2.5 2.5 0 0 1-.386.4c-.447.363-1.059.671-1.122 1.244a1.376 1.376 0 0 1-.066.555c-.146.249-.505.231-.794.181a1.4 1.4 0 0 1-.67-.247c-.3-.265-.328-.716-.556-1.037a1.412 1.412 0 0 0-1.133-.509c-.429-.013-.855.082-1.281.1a3.52 3.52 0 0 1-.82-.055c-.09-.016-.177-.035-.265-.056a3.41 3.41 0 0 1-.558-.191 2.782 2.782 0 0 1-.265-.127 3.614 3.614 0 0 1-.794-.549 1.97 1.97 0 0 1-.73-1.489 9.147 9.147 0 0 1 .238-1.019 3.2 3.2 0 0 0-1.2-2.635c-.283-.278-.585-.555-.868-.841a4.194 4.194 0 0 1-1.024-1.459 4.456 4.456 0 0 1-.183-1.825 12.441 12.441 0 0 0 .056-1.881c-.212-2.228-2.117-3.934-4.007-4.865l-.082-.042a6.093 6.093 0 1 1 8.2 8.935c-.021.069-.04.141-.056.21a4.6 4.6 0 0 0 .18 3.417 17.231 17.231 0 0 1 3.639 1.144 12.45 12.45 0 0 0 2.961 1.008 2.246 2.246 0 0 1 1.577 1.634z" class="prefix__cls-11" data-name="Path 2831" transform="translate(-27.315 -35.028)"/>
            <path id="prefix__Path_2832" d="M71.583 91.538c.124-.143.315-.218.442-.358.394-.43 0-1.133.146-1.7a1.4 1.4 0 0 1 1.572-.838c.646.069 1.249.363 1.892.435a8.26 8.26 0 0 0 2.945-.577 2.84 2.84 0 0 1 2.829.48c.675.745.625 2.027 1.461 2.571a10.8 10.8 0 0 0 1.291.464 2.681 2.681 0 0 1 1.093 1.048 5.5 5.5 0 0 1 .823 3.51c-.069.663-.265 1.31-.339 1.973a5.774 5.774 0 0 0 .135 2.064 2.182 2.182 0 0 0 1.244 1.65 1.966 1.966 0 0 1 .463.159c.394.244.344.827.243 1.281l-.423 1.87c.392.3 1 .17 1.379.486a1.124 1.124 0 0 1 .32.5 2.76 2.76 0 0 1-.82 3.008c-.447.367-1.059.672-1.122 1.247a1.332 1.332 0 0 1-.066.552c-.146.249-.506.23-.794.18a1.368 1.368 0 0 1-.667-.247c-.3-.265-.328-.716-.556-1.037a1.411 1.411 0 0 0-1.133-.509c-.431-.014-.855.082-1.284.1a3.772 3.772 0 0 1-2.7-.979 1.964 1.964 0 0 1-.733-1.485 9.872 9.872 0 0 1 .238-1.022 3.2 3.2 0 0 0-1.194-2.632 6.962 6.962 0 0 1-1.892-2.3c-.434-1.167 0-2.467-.13-3.714-.212-2.228-2.117-3.934-4-4.863-.435-.203-1.155-.755-.663-1.317z" class="prefix__cls-17" data-name="Path 2832" transform="translate(-26.959 -33.345)"/>
            <path id="prefix__Path_2833" d="M86.528 110.964c-.3-.265-.326-.713-.553-1.037a1.422 1.422 0 0 0-1.135-.507c-.429-.013-.852.082-1.281.1a3.785 3.785 0 0 1-2.7-.966 1.975 1.975 0 0 1-.733-1.488 9.791 9.791 0 0 1 .238-1.019 3.2 3.2 0 0 0-1.2-2.634 7 7 0 0 1-1.892-2.3c-.431-1.165 0-2.467-.127-3.714-.212-2.229-2.117-3.937-4.007-4.866-.442-.218-1.162-.769-.67-1.326.124-.143.312-.215.442-.355.394-.43 0-1.135.146-1.7a.9.9 0 0 1 .143-.31 1.21 1.21 0 0 0-1.029.814c-.14.568.249 1.273-.146 1.7-.127.141-.318.212-.442.356-.492.562.228 1.114.672 1.326 1.9.931 3.792 2.637 4 4.865.116 1.236-.3 2.539.13 3.714a6.984 6.984 0 0 0 1.892 2.3 3.2 3.2 0 0 1 1.194 2.635 9.9 9.9 0 0 0-.238 1.019 1.976 1.976 0 0 0 .733 1.489 3.769 3.769 0 0 0 2.7.979c.429-.021.852-.116 1.284-.1a1.417 1.417 0 0 1 1.133.507c.228.324.265.783.556 1.037a1.368 1.368 0 0 0 .667.247c.286.053.646.072.794-.181a.628.628 0 0 0 .063-.329 1.282 1.282 0 0 1-.634-.256z" class="prefix__cls-11" data-name="Path 2833" transform="translate(-26.96 -33.532)"/>
            <g id="prefix__Plants" transform="translate(9.835 112.769)">
                <g id="prefix__Group_339" data-name="Group 339">
                    <path id="prefix__Path_112" d="M84.728 326.212s-2.433.107-1.581 5.494a63.091 63.091 0 0 0 1.74 8.205s.069 1.208-.888 1.081-2.841-1.092-3.6-.118c-.79 1.01-.31 2.361 1.068 3.859s4.278 4.889 4.539 5.2.415.906-.25.923-5.289-.972-5.627 1.25 4.187 5.763 4.674 6.159.544.676.4.967-1.667-.188-2.994-.415-2.9-.259-2.992 1.039 2.132 4.808 9.281 7.938l3.407 1.233 2.822-2.3c5.739-5.288 6.694-9.33 6.188-10.529s-1.987-.655-3.167-.007-2.463 1.6-2.695 1.369-.27-.511.061-1.044 3.456-5.356 2.412-7.346-5.092.452-5.727.652-.682-.422-.538-.791 1.783-4.527 2.6-6.392.829-3.3-.248-4c-1.038-.672-2.5.854-3.368 1.286s-1.192-.732-1.192-.732a63.135 63.135 0 0 0-1.029-8.325c-.95-5.37-3.34-4.649-3.34-4.649" class="prefix__cls-14" data-name="Path 112" transform="translate(-79.21 -326.186)"/>
                    <g id="prefix__Group_332" data-name="Group 332" transform="translate(6.272 4.852)">
                        <path id="prefix__Path_113" d="M103.859 339.289a.538.538 0 0 0 .01.1l.044.289c.043.261.1.633.183 1.108l.687 4.07L107 358.292c.855 5.251 1.651 10 2.257 13.434l.731 4.063.208 1.1.058.286a.542.542 0 0 0 .024.1.5.5 0 0 0-.01-.1l-.044-.289c-.043-.261-.1-.633-.183-1.107-.164-.969-.4-2.358-.688-4.07-.58-3.437-1.361-8.189-2.216-13.44s-1.651-10-2.256-13.432l-.732-4.063-.208-1.1-.058-.286a.493.493 0 0 0-.024-.099z" class="prefix__cls-28" data-name="Path 113" transform="translate(-103.859 -339.289)"/>
                    </g>
                    <g id="prefix__Group_333" data-name="Group 333" transform="translate(3.767 16.143)">
                        <path id="prefix__Path_114" d="M114.173 369.783a7.406 7.406 0 0 0 .729.647l1.784 1.529c.7.6 1.331 1.136 1.8 1.511.236.187.43.335.568.432a.949.949 0 0 0 .223.139 8.99 8.99 0 0 0-.727-.648l-1.774-1.541c-.7-.6-1.338-1.128-1.813-1.5-.238-.184-.432-.332-.569-.429a.963.963 0 0 0-.221-.14z" class="prefix__cls-28" data-name="Path 114" transform="translate(-114.173 -369.782)"/>
                    </g>
                    <g id="prefix__Group_334" data-name="Group 334" transform="translate(9.179 14.214)">
                        <path id="prefix__Path_115" d="M100.6 370.617c.03.024 1.111-1.31 2.414-2.979s2.334-3.042 2.3-3.066-1.111 1.31-2.414 2.979-2.327 3.043-2.3 3.066z" class="prefix__cls-28" data-name="Path 115" transform="translate(-100.603 -364.572)"/>
                    </g>
                    <g id="prefix__Group_335" data-name="Group 335" transform="translate(10.252 25.402)">
                        <path id="prefix__Path_116" d="M96.043 398.979a.974.974 0 0 0 .237-.126c.148-.088.357-.223.614-.393.511-.341 1.207-.831 1.945-1.412s1.381-1.138 1.833-1.555c.227-.208.406-.381.527-.5a.977.977 0 0 0 .178-.2 8.07 8.07 0 0 0-.771.628c-.468.4-1.117.942-1.854 1.519s-1.419 1.079-1.914 1.441a7.91 7.91 0 0 0-.795.598z" class="prefix__cls-28" data-name="Path 116" transform="translate(-96.043 -394.789)"/>
                    </g>
                    <g id="prefix__Group_336" data-name="Group 336" transform="translate(4.537 26.946)">
                        <path id="prefix__Path_117" d="M110.417 398.959a5.908 5.908 0 0 0 .818.421c.513.243 1.225.571 2.016.924s1.51.667 2.033.887a5.935 5.935 0 0 0 .859.33 6 6 0 0 0-.818-.421c-.513-.243-1.226-.571-2.016-.924s-1.509-.667-2.033-.887a6 6 0 0 0-.859-.33z" class="prefix__cls-28" data-name="Path 117" transform="translate(-110.417 -398.958)"/>
                    </g>
                    <g id="prefix__Group_337" data-name="Group 337" transform="translate(4.438 35.306)">
                        <path id="prefix__Path_118" d="M106.246 421.538a1.38 1.38 0 0 0 .278.151l.781.365c.662.3 1.58.711 2.6 1.155s1.942.838 2.614 1.117l.8.324a1.39 1.39 0 0 0 .3.1 1.369 1.369 0 0 0-.279-.151l-.781-.365c-.662-.3-1.58-.711-2.6-1.155s-1.942-.838-2.614-1.117l-.8-.324a1.39 1.39 0 0 0-.299-.1z" class="prefix__cls-28" data-name="Path 118" transform="translate(-106.246 -421.536)"/>
                    </g>
                    <g id="prefix__Group_338" data-name="Group 338" transform="translate(11.653 32.895)">
                        <path id="prefix__Path_119" d="M88.781 420.523a1.559 1.559 0 0 0 .289-.178c.181-.122.438-.305.753-.535.629-.461 1.486-1.116 2.4-1.877s1.718-1.481 2.286-2.015c.284-.267.511-.487.664-.642a1.572 1.572 0 0 0 .228-.251 1.577 1.577 0 0 0-.266.211l-.694.609c-.584.515-1.395 1.222-2.309 1.981s-1.758 1.425-2.371 1.906l-.726.57a1.6 1.6 0 0 0-.254.221z" class="prefix__cls-28" data-name="Path 119" transform="translate(-88.781 -415.024)"/>
                    </g>
                </g>
            </g>
        </g>
    </g>
</svg>
