<svg xmlns="http://www.w3.org/2000/svg" width="194.663" height="186.459" viewBox="0 0 194.663 186.459">
  <g id="Group_1" data-name="Group 1" transform="translate(-766 -367.394)">
    <path id="Path_2398" data-name="Path 2398" d="M89.626,86.459c49.5,0,89.626-41.065,89.626-91.721S138.681-80,89.626-96.984,0-55.919,0-5.263,40.127,86.459,89.626,86.459Z" transform="translate(771.997 467.394)" fill="#5c7ef8" opacity="0.1"/>
    <g id="Layer_1" data-name="Layer 1" transform="translate(731.959 299.474)">
      <g id="Group_76" data-name="Group 76" transform="translate(96.274 103.811)">
        <path id="Path_42" data-name="Path 42" d="M146.914,162.429a.528.528,0,0,1-.529-.529v-2.537a.259.259,0,0,0-.175-.244h-2l.021-.272.127-.014h1.765a.53.53,0,0,1,.529.529V161.9a.257.257,0,0,0,.257.258l21.047-.028v.272l-21.046.028Z" transform="translate(-144.208 -140.038)" fill="#7694f3"/>
        <path id="Path_43" data-name="Path 43" d="M156.078,125.563v18.552a.257.257,0,0,1-.257.258h-3.806v.272h3.806a.529.529,0,0,0,.529-.529V125.563Z" transform="translate(-147.602 -125.563)" fill="#7694f3"/>
        <path id="Path_44" data-name="Path 44" d="M147.959,160.568a.529.529,0,0,1-.529-.529V157.5a.258.258,0,0,0-.175-.244h-3.008l-.045-.272.158-.013h2.812a.529.529,0,0,1,.529.529v2.534a.258.258,0,0,0,.258.258l19.989-.024v.272l-19.988.023Z" transform="translate(-144.203 -139.23)" fill="#7694f3"/>
        <path id="Path_45" data-name="Path 45" d="M155.033,125.563c0,.006,0,17.5,0,17.5a.257.257,0,0,1-.257.258h-2.759v.272h2.759a.53.53,0,0,0,.529-.529v-17.5C155.3,125.563,155.033,125.563,155.033,125.563Z" transform="translate(-147.602 -125.563)" fill="#7694f3"/>
        <path id="Path_46" data-name="Path 46" d="M149.128,158.707a.528.528,0,0,1-.529-.529v-2.532a.257.257,0,0,0-.258-.258h-3.865v-.272h3.865a.53.53,0,0,1,.529.529v2.532a.258.258,0,0,0,.258.258l18.932-.019v.272l-18.932.019Z" transform="translate(-144.322 -138.421)" fill="#7694f3"/>
        <path id="Path_47" data-name="Path 47" d="M150.707,125.563V142a.258.258,0,0,1-.258.258h-5.966v.272h5.966a.53.53,0,0,0,.529-.529V125.563Z" transform="translate(-144.325 -125.563)" fill="#7694f3"/>
        <path id="Path_48" data-name="Path 48" d="M149.653,125.563v15.388a.258.258,0,0,1-.258.258H144.48v.272H149.4a.53.53,0,0,0,.529-.529V125.563Z" transform="translate(-144.324 -125.563)" fill="#7694f3"/>
      </g>
      <g id="Group_85" data-name="Group 85" transform="translate(119.334 96.268)">
        <rect id="Rectangle_34" data-name="Rectangle 34" width="104.566" height="143.574" transform="translate(3.435)" fill="#646584" opacity="0.4"/>
        <path id="Path_49" data-name="Path 49" d="M185.022,127.953v134.68h37.523v.45h67.044V127.953Z" transform="translate(-185.022 -119.059)" fill="#d5dbed"/>
        <rect id="Rectangle_35" data-name="Rectangle 35" width="104.566" height="135.131" fill="#e3e3eb"/>
        <path id="Path_61" data-name="Path 61" d="M191.79,118.324a1.541,1.541,0,1,0,1.4,1.535A1.472,1.472,0,0,0,191.79,118.324Z" transform="translate(-187.357 -114.87)" fill="#7594f3" opacity="0.2"/>
        <g id="Group_78" data-name="Group 78" transform="translate(98.683 3.454)">
          <path id="Path_74" data-name="Path 74" d="M361.131,321.709a1.541,1.541,0,1,0,1.4,1.534A1.472,1.472,0,0,0,361.131,321.709Z" transform="translate(-359.716 -206.812)" fill="#a6988b"/>
          <path id="Path_75" data-name="Path 75" d="M361.156,287.811a1.541,1.541,0,1,0,1.4,1.534A1.472,1.472,0,0,0,361.156,287.811Z" transform="translate(-359.727 -192.063)" fill="#a6988b"/>
          <path id="Path_76" data-name="Path 76" d="M361.181,253.914a1.541,1.541,0,1,0,1.4,1.534A1.472,1.472,0,0,0,361.181,253.914Z" transform="translate(-359.738 -177.316)" fill="#a6988b"/>
          <path id="Path_77" data-name="Path 77" d="M361.206,220.017a1.541,1.541,0,1,0,1.4,1.534A1.472,1.472,0,0,0,361.206,220.017Z" transform="translate(-359.749 -162.568)" fill="#a6988b"/>
          <path id="Path_78" data-name="Path 78" d="M361.231,186.119a1.541,1.541,0,1,0,1.4,1.534A1.472,1.472,0,0,0,361.231,186.119Z" transform="translate(-359.759 -147.82)" fill="#a6988b"/>
        </g>
        <g id="Group_83" data-name="Group 83" transform="translate(9.409 8.922)">
          <rect id="Rectangle_36" data-name="Rectangle 36" width="82.394" height="126.2" transform="translate(0 0.005)" fill="#f4f7fd"/>
          <g id="Group_82" data-name="Group 82" transform="translate(15.064)">
            <g id="Group_81" data-name="Group 81">
              <rect id="Rectangle_37" data-name="Rectangle 37" width="57.887" height="120.864" transform="translate(0 2.672)" fill="#a3b3e2"/>
              <rect id="Rectangle_38" data-name="Rectangle 38" width="57.887" height="126.2" transform="translate(10.34 0.005)" fill="#e3e3ec"/>
              <rect id="Rectangle_39" data-name="Rectangle 39" width="57.887" height="126.209" transform="translate(13.17)" fill="#646684"/>
              <rect id="Rectangle_40" data-name="Rectangle 40" width="2.127" height="7.186" rx="1.064" transform="translate(21.013 68.638)" fill="#fff" opacity="0.3"/>
              <rect id="Rectangle_41" data-name="Rectangle 41" width="2.128" height="7.186" rx="1.064" transform="translate(25.065 68.638)" fill="#fff" opacity="0.3"/>
              <rect id="Rectangle_42" data-name="Rectangle 42" width="2.128" height="7.186" rx="1.064" transform="translate(29.117 68.638)" fill="#fff" opacity="0.3"/>
              <rect id="Rectangle_43" data-name="Rectangle 43" width="2.127" height="7.186" rx="1.064" transform="translate(33.17 68.638)" fill="#fff" opacity="0.3"/>
              <path id="Path_82" data-name="Path 82" d="M289.885,130.04h-7.919l39.714,99.079V208.105Z" transform="translate(-251.673 -128.889)" fill="#fff" opacity="0.15"/>
              <path id="Path_83" data-name="Path 83" d="M253.517,130.04v22.546l38.835,101.36H309.3V235.954L266.864,130.04Z" transform="translate(-239.296 -128.889)" fill="#fff" opacity="0.15"/>
              <g id="Group_79" data-name="Group 79" transform="translate(69.272 6.701)">
                <rect id="Rectangle_45" data-name="Rectangle 45" width="3.503" height="10.951" transform="translate(0 33.952)" fill="#fff"/>
                <rect id="Rectangle_46" data-name="Rectangle 46" width="3.503" height="10.951" transform="translate(0 67.904)" fill="#fff"/>
                <rect id="Rectangle_47" data-name="Rectangle 47" width="3.503" height="10.951" transform="translate(0 101.856)" fill="#fff"/>
              </g>
              <g id="Group_80" data-name="Group 80" transform="translate(2.715 12.487)">
                <path id="Path_84" data-name="Path 84" d="M238.58,153.081a2.726,2.726,0,1,1-2.715-2.974A2.853,2.853,0,0,1,238.58,153.081Z" transform="translate(-233.15 -150.107)" fill="#f4f7fe" opacity="0.2"/>
                <path id="Path_88" data-name="Path 88" d="M238.58,321.751a2.726,2.726,0,1,1-2.715-2.974A2.854,2.854,0,0,1,238.58,321.751Z" transform="translate(-233.15 -223.491)" fill="#f4f7fe" opacity="0.2"/>
              </g>
            </g>
            <g id="Group_1439" data-name="Group 1439" opacity="0.1">
              <path id="Path_89" data-name="Path 89" d="M259.949,134.525c0,.874-.442,1.583-.985,1.583s-.986-.708-.986-1.583.442-1.583.986-1.583S259.949,133.65,259.949,134.525Z" transform="translate(-241.237 -130.151)" fill="#fff"/>
              <path id="Path_90" data-name="Path 90" d="M259.949,155.011c0,.875-.442,1.583-.985,1.583s-.986-.709-.986-1.583.442-1.582.986-1.582S259.949,154.137,259.949,155.011Z" transform="translate(-241.237 -139.065)" fill="#fff"/>
              <path id="Path_91" data-name="Path 91" d="M259.949,175.5c0,.875-.442,1.583-.985,1.583s-.986-.709-.986-1.583.442-1.582.986-1.582S259.949,174.624,259.949,175.5Z" transform="translate(-241.237 -147.978)" fill="#fff"/>
              <path id="Path_92" data-name="Path 92" d="M259.949,195.986c0,.874-.442,1.582-.985,1.582s-.986-.708-.986-1.582.442-1.583.986-1.583S259.949,195.111,259.949,195.986Z" transform="translate(-241.237 -156.892)" fill="#fff"/>
              <path id="Path_93" data-name="Path 93" d="M259.949,216.472c0,.875-.442,1.583-.985,1.583s-.986-.708-.986-1.583.442-1.583.986-1.583S259.949,215.6,259.949,216.472Z" transform="translate(-241.237 -165.804)" fill="#fff"/>
              <path id="Path_94" data-name="Path 94" d="M259.949,236.959c0,.874-.442,1.582-.985,1.582s-.986-.708-.986-1.582.442-1.583.986-1.583S259.949,236.084,259.949,236.959Z" transform="translate(-241.237 -174.718)" fill="#fff"/>
              <path id="Path_95" data-name="Path 95" d="M259.949,257.445c0,.874-.442,1.583-.985,1.583s-.986-.709-.986-1.583.442-1.583.986-1.583S259.949,256.571,259.949,257.445Z" transform="translate(-241.237 -183.631)" fill="#fff"/>
              <path id="Path_96" data-name="Path 96" d="M259.949,277.932c0,.874-.442,1.583-.985,1.583s-.986-.709-.986-1.583.442-1.582.986-1.582S259.949,277.058,259.949,277.932Z" transform="translate(-241.237 -192.545)" fill="#fff"/>
              <path id="Path_97" data-name="Path 97" d="M259.949,298.419c0,.874-.442,1.583-.985,1.583s-.986-.709-.986-1.583.442-1.583.986-1.583S259.949,297.545,259.949,298.419Z" transform="translate(-241.237 -201.457)" fill="#fff"/>
              <path id="Path_98" data-name="Path 98" d="M259.949,318.905c0,.874-.442,1.583-.985,1.583s-.986-.709-.986-1.583.442-1.583.986-1.583S259.949,318.031,259.949,318.905Z" transform="translate(-241.237 -210.37)" fill="#fff"/>
              <path id="Path_99" data-name="Path 99" d="M259.949,339.392c0,.875-.442,1.583-.985,1.583s-.986-.708-.986-1.583.442-1.582.986-1.582S259.949,338.519,259.949,339.392Z" transform="translate(-241.237 -219.284)" fill="#fff"/>
            </g>
            <path id="Path_101" data-name="Path 101" d="M346,155.011c0,.875-.442,1.583-.986,1.583s-.985-.709-.985-1.583.441-1.582.985-1.582S346,154.137,346,155.011Z" transform="translate(-278.676 -139.065)" fill="#ece4da"/>
            <path id="Path_102" data-name="Path 102" d="M346,175.5c0,.875-.442,1.583-.986,1.583s-.985-.709-.985-1.583.441-1.582.985-1.582S346,174.624,346,175.5Z" transform="translate(-278.676 -147.978)" fill="#ece4da"/>
            <path id="Path_103" data-name="Path 103" d="M346,195.986c0,.874-.442,1.582-.986,1.582s-.985-.708-.985-1.582.441-1.583.985-1.583S346,195.111,346,195.986Z" transform="translate(-278.676 -156.892)" fill="#ece4da"/>
            <path id="Path_104" data-name="Path 104" d="M346,216.472c0,.875-.442,1.583-.986,1.583s-.985-.708-.985-1.583.441-1.583.985-1.583S346,215.6,346,216.472Z" transform="translate(-278.676 -165.804)" fill="#ece4da"/>
            <path id="Path_105" data-name="Path 105" d="M346,236.959c0,.874-.442,1.582-.986,1.582s-.985-.708-.985-1.582.441-1.583.985-1.583S346,236.084,346,236.959Z" transform="translate(-278.676 -174.718)" fill="#ece4da"/>
            <path id="Path_106" data-name="Path 106" d="M346,257.445c0,.874-.442,1.583-.986,1.583s-.985-.709-.985-1.583.441-1.583.985-1.583S346,256.571,346,257.445Z" transform="translate(-278.676 -183.631)" fill="#ece4da"/>
          </g>
        </g>
        <g id="Group_84" data-name="Group 84" transform="translate(46.55 50.471)">
          <path id="Path_121" data-name="Path 121" d="M279.082,234.47l-3.593-7.777,1.132-.628,3.593,7.777Z" transform="translate(-270.932 -212.216)" fill="#fff"/>
          <path id="Path_122" data-name="Path 122" d="M276.621,216.57l-1.132-.628,3.593-7.777,1.132.628Z" transform="translate(-270.932 -204.428)" fill="#fff"/>
          <rect id="Rectangle_48" data-name="Rectangle 48" width="4.256" height="7.415" transform="translate(1.239 9.053)" fill="#484b72"/>
          <path id="Path_123" data-name="Path 123" d="M277.434,221.284c0,2.048-.555,3.707-1.239,3.707s-1.239-1.659-1.239-3.707.555-3.708,1.239-3.708S277.434,219.236,277.434,221.284Z" transform="translate(-270.7 -208.522)" fill="#7694f3"/>
          <path id="Path_124" data-name="Path 124" d="M269.9,221.284c0,2.048-.555,3.707-1.239,3.707s-1.239-1.659-1.239-3.707.555-3.708,1.239-3.708S269.9,219.236,269.9,221.284Z" transform="translate(-267.423 -208.522)" fill="#484b72"/>
          <path id="Path_125" data-name="Path 125" d="M275.7,226.963c-3.251,0-4.731-6.587-4.731-12.707s1.481-12.706,4.731-12.706,4.731,6.586,4.731,12.706S278.95,226.963,275.7,226.963Zm-.015-22.634c-.578.17-2.178,3.48-2.178,9.927,0,6.395,1.574,9.7,2.193,9.923.619-.219,2.193-3.529,2.193-9.923C277.892,207.809,276.293,204.5,275.684,204.329Z" transform="translate(-268.965 -201.55)" fill="#fff"/>
        </g>
        <ellipse id="Ellipse_355" data-name="Ellipse 355" cx="1.401" cy="1.535" rx="1.401" ry="1.535" transform="translate(98.782 3.454)" fill="#7594f3" opacity="0.2"/>
        <path id="Path_2399" data-name="Path 2399" d="M191.615,358.675a1.541,1.541,0,1,0-1.4-1.535A1.472,1.472,0,0,0,191.615,358.675Z" transform="translate(-187.281 -218.105)" fill="#6888eb" opacity="0.2"/>
        <path id="Path_2400" data-name="Path 2400" d="M361.193,358.675a1.541,1.541,0,1,0-1.4-1.535A1.472,1.472,0,0,0,361.193,358.675Z" transform="translate(-261.06 -218.105)" fill="#6888eb" opacity="0.2"/>
      </g>
      <g id="Group_86" data-name="Group 86" transform="translate(82.407 112.772)">
        <path id="Path_126" data-name="Path 126" d="M120.846,142.343v17.026a.921.921,0,0,0,.919.921H134.87a.92.92,0,0,0,.918-.921V142.343a.918.918,0,0,0-.918-.919H121.765A.918.918,0,0,0,120.846,142.343Z" transform="translate(-120.174 -141.424)" fill="#bbbdcd"/>
        <path id="Path_127" data-name="Path 127" d="M119.656,142.343v17.026a.92.92,0,0,0,.919.921h13.1a.92.92,0,0,0,.919-.921V142.343a.918.918,0,0,0-.919-.919h-13.1A.918.918,0,0,0,119.656,142.343Z" transform="translate(-119.656 -141.424)" fill="#7b7d96"/>
        <rect id="Rectangle_49" data-name="Rectangle 49" width="12.634" height="15.402" rx="0.778" transform="translate(1.154 1.154)" fill="#fff"/>
      </g>
      <g id="Group_88" data-name="Group 88" transform="translate(85.607 115.936)">
        <g id="Group_87" data-name="Group 87">
          <path id="Path_128" data-name="Path 128" d="M134.5,151.763a1.892,1.892,0,0,1-.094.208c-.048.1-.1.19-.145.286-.448.917-.723,1.7-1.072,2.533a.476.476,0,0,0-.015.055c-.007.018-.011.043-.033.117s-.069.223-.151.485c-.013.043-.029.095-.05.155l-.035.1c-.082.238-.2.566-.34.913a6.108,6.108,0,0,1-.952,1.789l-.005.062-.045.562-.146,1.829c-.2-.043-.395-.081-.593-.116-.3-.058-.606-.1-.913-.138a9.289,9.289,0,0,0-2.323-.009,2.163,2.163,0,0,1,.021-.321,16.69,16.69,0,0,0,.153-1.813c.007-.189.01-.37.01-.54,0-.035,0-.074,0-.109l-.1-.164a13.138,13.138,0,0,0-.807-1.3c-.022-.029-.043-.056-.066-.084-.033-.045-.068-.086-.1-.125a2.592,2.592,0,0,1-.366-.851c-.01-.033-.018-.066-.028-.1-.061-.227-.106-.444-.131-.593-.036-.214-.127-.413-.183-.624-.136-.52-.047-1.086-.232-1.588-.02-.053-.043-.105-.067-.156s-.05-.106-.076-.159-.064-.127-.094-.186a1.476,1.476,0,0,1-.207-.551.154.154,0,0,1,.01-.059c.006-.008.008-.018.015-.028a.434.434,0,0,1,.507-.211,1.216,1.216,0,0,1,.6.379,1.879,1.879,0,0,1,.138.176,2.129,2.129,0,0,1,.129.215.522.522,0,0,0,.023.047,6.481,6.481,0,0,1,.35,1.088,1.376,1.376,0,0,0,.458.806.98.98,0,0,0,.164.089,1.9,1.9,0,0,0,.5-.828,8.886,8.886,0,0,0,.179-1.825c.045-.575.228-2,.347-2.729.028-.175.053-.312.071-.385a1.868,1.868,0,0,1,.059-.207c.008-.029.02-.059.028-.087a.906.906,0,0,1,.123-.229.38.38,0,0,1,.177-.142.4.4,0,0,1,.42.175.842.842,0,0,1,.154.357,1.493,1.493,0,0,1,.02.216,6.715,6.715,0,0,1-.052.684c-.107,1.323-.056,2.388-.1,3.573a2.472,2.472,0,0,0,.016.378c.056,0,.114.008.169.014a12.615,12.615,0,0,0,.326-1.761c.123-.671.5-2.494.671-3.153.025-.088.042-.154.057-.2.028-.076.054-.143.081-.209a1.193,1.193,0,0,1,.184-.313.416.416,0,0,1,.193-.133.449.449,0,0,1,.47.213,1.3,1.3,0,0,1,.082.46,2.2,2.2,0,0,1-.008.235c-.023.249-.077.5-.12.729-.256,1.4-.324,2.526-.5,3.778-.019.145-.025.4-.027.5.045.011.089.025.136.038.129-.367.234-.752.34-1.1.211-.7.854-2.605,1.005-2.9.035-.067.068-.127.1-.188a.966.966,0,0,1,.169-.224c.012-.011.025-.025.037-.034a.382.382,0,0,1,.2-.1.409.409,0,0,1,.374.259.909.909,0,0,1,.053.563,1.971,1.971,0,0,1-.058.233c-.044.155-.1.309-.149.462-.389,1.267-.674,2.278-.972,3.426a.81.81,0,0,0-.015.246c.015.012.029.024.043.037.266-.55,1.116-2.086,1.279-2.307.054-.075.1-.128.14-.179a.753.753,0,0,1,.174-.15.293.293,0,0,1,.041-.023.3.3,0,0,1,.139-.035.343.343,0,0,1,.273.266A.809.809,0,0,1,134.5,151.763Z" transform="translate(-125.321 -147.025)" fill="#c7d3f9"/>
        </g>
        <path id="Path_131" data-name="Path 131" d="M128.613,168.771a19.169,19.169,0,0,1,4.2.723l-.425,2.925-4.535-.886Z" transform="translate(-126.422 -156.486)" fill="#f6f6f6"/>
        <path id="Path_132" data-name="Path 132" d="M132.077,167.184l-.028.02Z" transform="translate(-128.248 -155.795)" fill="#1d1d1b" opacity="0.1"/>
      </g>
      <g id="Group_92" data-name="Group 92" transform="translate(49.167 107.821)">
        <path id="Path_133" data-name="Path 133" d="M67.247,174.148c-3.512,4.258-4.854,11.484-6.3,17.63a4.736,4.736,0,0,0,1.938,5.074,17.248,17.248,0,0,0,10.1,2.361Z" transform="translate(-60.817 -150.711)" fill="#7694f3"/>
        <path id="Path_134" data-name="Path 134" d="M70.093,184.511c-1.793,5.028-.344,10.645-2.726,13.214,4.087,1.514,7.978,1.347,11.73,4.934C74.642,196.657,70.093,184.511,70.093,184.511Z" transform="translate(-63.666 -155.219)" fill="#958fed" opacity="0.4" style="mix-blend-mode: multiply;isolation: isolate"/>
        <g id="Group_91" data-name="Group 91" transform="translate(5.564 0)">
          <g id="Group_89" data-name="Group 89" transform="translate(4.552 119.291)">
            <path id="Path_135" data-name="Path 135" d="M78.737,347c0,.12.008.249.018.376h8.7l-.008-.145a.865.865,0,0,0-.017-.137.386.386,0,0,0-.008-.094,5.243,5.243,0,0,0-.24-1.172,2.754,2.754,0,0,0-2.6-1.933c-.419-.051-.864-.059-1.334-.068h-.351c-2.061,0-3.772.2-4.088,2.309A4.516,4.516,0,0,0,78.737,347Z" transform="translate(-78.729 -343.823)" fill="#7694f3"/>
            <path id="Path_136" data-name="Path 136" d="M78.722,349.44l.026.376.06.984h8.7l-.06-.984-.009-.146v-.145l-.009-.086Z" transform="translate(-78.722 -346.267)" fill="#646684"/>
          </g>
          <g id="Group_90" data-name="Group 90" transform="translate(23.033 118.76)">
            <path id="Path_137" data-name="Path 137" d="M111.455,346.1c.008.154.018.317.034.488l.017.376h14.112v-.034a2.163,2.163,0,0,0-.051-.342c-.393-2.018-2.934-3.061-5.79-3.481a22.981,22.981,0,0,0-6.269-.017,10.255,10.255,0,0,0-1.522.325C111.72,343.5,111.352,343.645,111.455,346.1Z" transform="translate(-111.437 -342.883)" fill="#7694f3"/>
            <path id="Path_138" data-name="Path 138" d="M111.529,349.44l.017.376.06.984h14.112l-.06-.984v-.034l-.026-.342Z" transform="translate(-111.477 -345.736)" fill="#646684"/>
          </g>
          <path id="Path_139" data-name="Path 139" d="M77.394,293.49c0,.36.282.619.732.8a10.047,10.047,0,0,0,3.4.3c.259-.023.529-.033.788-.045a36.99,36.99,0,0,0,4.187-.574c.394-.079.754-.135,1.058-.214l.732-21.248.023-.844.338-9.7,2.813-18.66V242.9l3.027,18.536.045.315c-.011,4.457-.18,9.286-.225,13.979-.079,7.372.124,14.417,1.632,19.211a.977.977,0,0,1,.247-.1,1.808,1.808,0,0,1,.36-.181c.652-.247,1.418-.472,2.251-.7,2.026-.552,4.412-1.115,6.066-2.251v-.045L104,262.349l-.912-16.173-.134-2.364-.293-4.986-.011-.169-.168-3.129-.237-4.018-.112-1.936-.034-.754-.079-1.294-.079-1.306v-.034l-.079-1.53H78.07c-.045.574-.09,1.137-.1,1.71-.023.383-.034.777-.034,1.16a41.2,41.2,0,0,0,.18,4.13c.022.225.045.462.079.675a37.164,37.164,0,0,0,.686,4.007c.09.394.192.776.293,1.159.146.6.3,1.193.5,1.767-.023.439-.045.877-.056,1.328-.023.552-.045,1.115-.067,1.677l-.124,2.374c-.033.754-.067,1.5-.1,2.24-.247,4.918-.462,9.634-.428,13.235,0,.372.011.72.023,1.058.034,1.339-.079,3.488-.27,6.066C78.024,275.843,76.629,289.236,77.394,293.49Z" transform="translate(-73.496 -172.686)" fill="#e0e0e0"/>
          <path id="Path_141" data-name="Path 141" d="M96.286,160.682l2.333-.36.344,2.236-2.563-.077Z" transform="translate(-81.812 -144.695)" fill="#acbbed"/>
          <path id="Path_142" data-name="Path 142" d="M83.6,158.335l-.408-7.469c3.2-.113,7.47-.338,8.208-.508,0,0,.34,5.428.688,7.745C93.512,164.052,86.512,164.9,83.6,158.335Z" transform="translate(-76.116 -140.36)" fill="#c7d2f8"/>
          <path id="Path_143" data-name="Path 143" d="M80.459,145.331a8.528,8.528,0,0,1-1.175-3.573c-.856-7.244,3.427-6.859,6.1-7.26,3.144-.333,6.415,1.333,7.3,6.106a7.882,7.882,0,0,1-.217.91L93.9,144.04a.784.784,0,0,1-.4,1.118l-.662.292c.059.486.43,2.55.43,2.55.14,1.228-.1,3.209-1.753,3.306-.67-.1-2.3-1.2-3.156-5.509C87.2,145.833,81.049,146.331,80.459,145.331Z" transform="translate(-74.367 -133.442)" fill="#c7d2f8"/>
          <path id="Path_144" data-name="Path 144" d="M81.085,147.684c8.6.975,6.341-2.943,6.428-3.826,0-.271,1.366-.229,1.359-.487-.115-4.424-1.881-7.1,1.718-7.124,1.3-.43,1.417-4.748-6.71-3.286-3.592.646-6.108,3.05-6.218,6.7C77.556,143.212,79.586,147.208,81.085,147.684Z" transform="translate(-73.708 -132.66)" fill="#33375a" opacity="0.7"/>
          <path id="Path_145" data-name="Path 145" d="M91.834,150.059c.174,1.129,1.1,2.321,1.657,2.235s.46-1.042.3-2.172c-.11-.748-.233-1.782-.884-1.923C92.334,148.075,91.578,148.4,91.834,150.059Z" transform="translate(-79.853 -139.41)" fill="#c7d3f9"/>
          <path id="Path_146" data-name="Path 146" d="M70.67,173.464a3.763,3.763,0,0,0,.011.5v.056l.462,5.526.034.191s2.082,19.7,1.361,32.177c-.267,4.8,3.353,1.753,20.214,4.119a5.342,5.342,0,0,0,6.111-4.9v-.045c1.335-12.018-1.28-30.047-3.736-40.1-.844-1.531-.574-2.69-2.195-3.534-.034-.011-.079-.034-.146-.057-.146-.056-.394-.134-.709-.236a.21.21,0,0,0-.09-.023c-1.666-.54-4.941-1.53-4.941-1.53l-.158.011-.09.011-8.036.517-1.486.1-3.613,2.082A6.006,6.006,0,0,0,70.67,173.464Z" transform="translate(-70.665 -146.995)" fill="#7694f3"/>
          <path id="Path_147" data-name="Path 147" d="M90.855,163.047a25.57,25.57,0,0,0-7.906.266l-.6,1.731c.573.981,5.758.963,9.781-.628l-.171-.443A1.486,1.486,0,0,0,90.855,163.047Z" transform="translate(-75.75 -145.796)" fill="#6d8bea"/>
          <path id="Path_148" data-name="Path 148" d="M106.613,182.084c1.148,8.036,2.33,16.173,4.265,24.051a97.168,97.168,0,0,0,3.658,11.828c.293.788.608,1.564.934,2.34l-.011-.169-.168-3.129-.237-4.018-.112-1.936-.034-.754c-.011-.653-.011-1.294-.034-1.958-.022-.743-.056-1.486-.09-2.217-.022-.529-.056-1.069-.09-1.6-.045-.642-.09-1.272-.135-1.9-.023-.281-.045-.563-.079-.855-.023-.349-.056-.7-.09-1.047-.023-.3-.056-.619-.09-.934s-.068-.619-.1-.934c0-.034-.011-.079-.011-.112C110.811,193.744,109.314,187.565,106.613,182.084Z" transform="translate(-86.305 -154.163)" fill="#958fed" opacity="0.4" style="mix-blend-mode: multiply;isolation: isolate"/>
          <path id="Path_149" data-name="Path 149" d="M101.542,175.076a.446.446,0,0,0,.025.064c2.737,6.344,7.421,17.26,11.882,17.26,6.388,0,7.665-20.074,7.806-21.073l-4.742-1.769c-1.476,3.691-3.782,9.822-3.782,9.822-2.382-4.731-2.478-6.111-4.137-8.429C106.309,167.76,98.923,168.728,101.542,175.076Z" transform="translate(-83.858 -148.548)" fill="#7694f3"/>
        </g>
      </g>
      <g id="Group_94" data-name="Group 94" transform="translate(69.653 75.568)">
        <g id="Group_93" data-name="Group 93" transform="translate(0)">
          <path id="Path_151" data-name="Path 151" d="M139.435,104.253H99.427a2.266,2.266,0,0,1-2.348-2.173V77.741a2.266,2.266,0,0,1,2.348-2.173h40.008a2.266,2.266,0,0,1,2.348,2.173V102.08A2.266,2.266,0,0,1,139.435,104.253Z" transform="translate(-97.079 -75.568)" fill="#87a0f7"/>
          <path id="Path_152" data-name="Path 152" d="M141.33,79.264V103.6c0,.059-.132.2-.375.2H100.944c-.243,0-.375-.138-.375-.2V79.264c0-.059.132-.2.375-.2h40.011C141.2,79.066,141.33,79.2,141.33,79.264Z" transform="translate(-98.597 -77.09)" fill="#f4f7fd"/>
        </g>
      </g>
      <g id="Group_99" data-name="Group 99" transform="translate(86.049 79.831)">
        <rect id="Rectangle_51" data-name="Rectangle 51" width="10.351" height="12.586" transform="translate(0)" fill="#fff"/>
        <g id="Group_98" data-name="Group 98" transform="translate(0 0.823)">
          <g id="Group_97" data-name="Group 97">
            <path id="Path_153" data-name="Path 153" d="M142.894,104.265a13.539,13.539,0,0,0-.136-1.467l-1.852.136v1.33Z" transform="translate(-132.543 -92.501)" fill="#87a0f7"/>
            <path id="Path_154" data-name="Path 154" d="M128.046,103.967l.043-.559-1.8-1.294a11.947,11.947,0,0,0-.184,1.852Z" transform="translate(-126.102 -92.204)" fill="#87a0f7"/>
            <path id="Path_155" data-name="Path 155" d="M129.241,96.606l-1.9-.5a11.394,11.394,0,0,0-1.121,4.23l1.922.459Z" transform="translate(-126.153 -89.59)" fill="#87a0f7"/>
            <path id="Path_156" data-name="Path 156" d="M140.057,100.794l1.908-.728c-.259-1.617-.573-3.521-1.04-3.961l-1.9.5Z" transform="translate(-131.724 -89.59)" fill="#87a0f7"/>
            <path id="Path_157" data-name="Path 157" d="M128.725,99.223c.033.407.033.86.023,1.327h6.927a12.8,12.8,0,0,1,.03-1.419,4.589,4.589,0,0,1,.087-.582c.158-.706.22-1.609.427-3.243a15.159,15.159,0,0,1-2.224-1.047,4.008,4.008,0,0,1-.887.151c-.353.032-.706.054-.9.075a10.549,10.549,0,0,1-1.784-.226,15.278,15.278,0,0,1-2.224,1.047c.207,1.633.269,2.537.427,3.243A4.773,4.773,0,0,1,128.725,99.223Z" transform="translate(-127.016 -88.787)" fill="#87a0f7"/>
            <path id="Path_158" data-name="Path 158" d="M133.139,92.544l.008.372,0,.3v.1l0,.179.022,1.268.752-.014.128-.025.355,1.524.33-1.517.774-.014.034-1.224,0-.155,0-.084.009-.309.01-.327Z" transform="translate(-129.164 -88.04)" fill="#dde4fd"/>
            <path id="Path_159" data-name="Path 159" d="M132.654,95.955a3.771,3.771,0,0,1-.733-1.882l.7-.39a1.954,1.954,0,0,0,.909,1.534Z" transform="translate(-128.634 -88.536)" fill="#7590ed"/>
            <path id="Path_160" data-name="Path 160" d="M136.769,95.955a3.775,3.775,0,0,0,.732-1.882l-.7-.39c-.129.606-.175,1.189-.82,1.54Z" transform="translate(-130.4 -88.536)" fill="#7590ed"/>
            <g id="Group_95" data-name="Group 95" transform="translate(1.709 7.543)">
              <path id="Path_161" data-name="Path 161" d="M129.15,102.144h.888a3.3,3.3,0,0,1-.249-.476,8,8,0,0,1-.458-2.758c-.015-.327-.031-.658-.046-.987-.044,0-.114,1.713-.158,2.894C129.16,101.223,129.16,101.677,129.15,102.144Z" transform="translate(-129.127 -97.923)" fill="#958fed" opacity="0.4" style="mix-blend-mode: multiply;isolation: isolate"/>
              <path id="Path_162" data-name="Path 162" d="M140.775,102.037q-.028.219-.069.432h.408a12.679,12.679,0,0,1,.031-1.42c-.141-1.267-.391-2.16-.416-2.379A15.987,15.987,0,0,1,140.775,102.037Z" transform="translate(-134.165 -98.248)" fill="#958fed" opacity="0.4" style="mix-blend-mode: multiply;isolation: isolate"/>
            </g>
            <path id="Path_163" data-name="Path 163" d="M135.577,92.613l-.01.325-.009.311c-.107.184-.2.33-.281.445a1.21,1.21,0,0,1-1.808.013,5.727,5.727,0,0,1-.317-.491l0-.3-.008-.373Z" transform="translate(-129.164 -88.04)" fill="#87a0f7" opacity="0.116" style="mix-blend-mode: multiply;isolation: isolate"/>
            <g id="Group_96" data-name="Group 96" transform="translate(2.998)">
              <path id="Path_164" data-name="Path 164" d="M133.588,84.964a1.772,1.772,0,0,1,1.88,2.007,3.438,3.438,0,0,1-.055.445c.242-.138.455.1.37.47-.06.259-.186.608-.33.66-.172.063-.225-.045-.234-.048a2.911,2.911,0,0,1-.241.906,6.365,6.365,0,0,1-.393.545,1.433,1.433,0,0,1-1.929.012,6.219,6.219,0,0,1-.4-.539,2.912,2.912,0,0,1-.253-.9c-.01,0-.061.111-.234.051-.144-.05-.275-.4-.338-.656-.09-.367.12-.61.364-.475a3.426,3.426,0,0,1-.062-.443A1.772,1.772,0,0,1,133.588,84.964Z" transform="translate(-131.408 -84.742)" fill="#dde4fd"/>
              <path id="Path_165" data-name="Path 165" d="M135.3,85.168a2.229,2.229,0,0,1,.388,2.037c-.164.093-.251.215-.314.714-.119.034-.171.041-.279.079.652-2.663-.38-2.709-.663-2.765a7.1,7.1,0,0,0-1.4.009c-.282.059-1.313.119-.628,2.773-.108-.036-.16-.043-.28-.075-.069-.5-.157-.62-.322-.71a2.427,2.427,0,0,1,.362-2.042A2.331,2.331,0,0,1,135.3,85.168Z" transform="translate(-131.549 -84.572)" fill="#666b8c"/>
              <path id="Path_166" data-name="Path 166" d="M133.418,84.972a.809.809,0,0,0-.384.12c-.168.092-.6.715-.507.861.363.595,1.49.764,2.285.787a.746.746,0,0,1-.267-.329,2.115,2.115,0,0,0,1.377.111,2.68,2.68,0,0,0-.6-1.076,1.788,1.788,0,0,0-.9-.419A5.29,5.29,0,0,0,133.418,84.972Z" transform="translate(-131.89 -84.745)" fill="#666c8c"/>
            </g>
          </g>
        </g>
      </g>
      <rect id="Rectangle_52" data-name="Rectangle 52" width="11.172" height="1.339" rx="0.669" transform="translate(97.815 79.899)" fill="#646684" opacity="0.3"/>
      <rect id="Rectangle_53" data-name="Rectangle 53" width="7.919" height="1.339" rx="0.669" transform="translate(97.815 83.205)" fill="#646684" opacity="0.1"/>
      <rect id="Rectangle_54" data-name="Rectangle 54" width="11.172" height="1.339" rx="0.669" transform="translate(97.815 89.816)" fill="#646684" opacity="0.1"/>
      <rect id="Rectangle_55" data-name="Rectangle 55" width="34.293" height="1.113" rx="0.557" transform="translate(74.494 93.791)" fill="#646684" opacity="0.1"/>
      <rect id="Rectangle_56" data-name="Rectangle 56" width="27.978" height="1.113" rx="0.557" transform="translate(74.494 96.54)" fill="#646684" opacity="0.2"/>
      <rect id="Rectangle_57" data-name="Rectangle 57" width="34.293" height="1.113" rx="0.557" transform="translate(74.494 99.289)" fill="#646684" opacity="0.1"/>
      <g id="Group_101" data-name="Group 101" transform="translate(74.829 79.858)">
        <rect id="Rectangle_58" data-name="Rectangle 58" width="9.634" height="12.61" rx="1.337" transform="translate(0)" fill="#7b7d96"/>
        <g id="Group_100" data-name="Group 100" transform="translate(1.066 1.314)">
          <path id="Path_167" data-name="Path 167" d="M115.629,85.782V87a.3.3,0,0,1-.295.295h-6.911a.3.3,0,0,1-.262-.159.3.3,0,0,1-.033-.136v-1.22a.3.3,0,0,1,.295-.294h6.911A.3.3,0,0,1,115.629,85.782Z" transform="translate(-108.128 -85.488)" fill="#fff"/>
          <path id="Rectangle_59" data-name="Rectangle 59" d="M.522,0H6.979A.522.522,0,0,1,7.5.522v.765a.522.522,0,0,1-.522.522H.521A.521.521,0,0,1,0,1.287V.522A.522.522,0,0,1,.522,0Z" transform="translate(0 2.413)" fill="#fff"/>
          <path id="Path_168" data-name="Path 168" d="M112.436,87.183a.059.059,0,0,1-.032-.009.03.03,0,0,1-.014-.027v-.811a.029.029,0,0,1,.015-.027.082.082,0,0,1,.035-.008.078.078,0,0,1,.035.008.029.029,0,0,1,.016.027v.756h.329a.026.026,0,0,1,.025.015.058.058,0,0,1,.008.031.059.059,0,0,1-.008.031.026.026,0,0,1-.025.015Z" transform="translate(-109.982 -85.842)" fill="#111640"/>
          <path id="Path_169" data-name="Path 169" d="M113.6,87.191a.376.376,0,0,1-.1-.014.219.219,0,0,1-.082-.046.211.211,0,0,1-.055-.081.326.326,0,0,1-.02-.123v-.363a.328.328,0,0,1,.02-.123.2.2,0,0,1,.137-.127.376.376,0,0,1,.1-.014.368.368,0,0,1,.1.014.215.215,0,0,1,.084.045.212.212,0,0,1,.055.081.328.328,0,0,1,.02.123v.363a.326.326,0,0,1-.02.123.212.212,0,0,1-.055.081.223.223,0,0,1-.084.046A.369.369,0,0,1,113.6,87.191Zm.159-.627a.174.174,0,0,0-.042-.129.158.158,0,0,0-.117-.042.156.156,0,0,0-.116.042.176.176,0,0,0-.042.129v.363a.178.178,0,0,0,.042.13.157.157,0,0,0,.116.041.16.16,0,0,0,.117-.041.175.175,0,0,0,.042-.13Z" transform="translate(-110.398 -85.842)" fill="#111640"/>
          <path id="Path_170" data-name="Path 170" d="M114.958,86.531a.169.169,0,0,0-.044-.1.153.153,0,0,0-.115-.038.156.156,0,0,0-.116.042.176.176,0,0,0-.042.129v.363a.178.178,0,0,0,.042.13.157.157,0,0,0,.116.041.162.162,0,0,0,.118-.041.178.178,0,0,0,.042-.13V86.8h-.143a.03.03,0,0,1-.026-.012.048.048,0,0,1-.009-.029.05.05,0,0,1,.009-.029.031.031,0,0,1,.026-.014h.21a.03.03,0,0,1,.026.012,1.623,1.623,0,0,1,.009.2.326.326,0,0,1-.02.123.206.206,0,0,1-.055.081.221.221,0,0,1-.083.046.392.392,0,0,1-.2,0,.215.215,0,0,1-.082-.046.218.218,0,0,1-.055-.081.338.338,0,0,1-.02-.123v-.363a.34.34,0,0,1,.02-.123.218.218,0,0,1,.055-.081.208.208,0,0,1,.082-.045.363.363,0,0,1,.1-.014.346.346,0,0,1,.108.016.232.232,0,0,1,.083.044.2.2,0,0,1,.053.068.205.205,0,0,1,.019.088.046.046,0,0,1-.013.039.057.057,0,0,1-.037.01.068.068,0,0,1-.035-.008A.03.03,0,0,1,114.958,86.531Z" transform="translate(-110.917 -85.842)" fill="#111640"/>
          <path id="Path_171" data-name="Path 171" d="M115.725,86.336a.028.028,0,0,1,.015-.027.078.078,0,0,1,.035-.008.08.08,0,0,1,.035.008.03.03,0,0,1,.016.027v.811a.03.03,0,0,1-.016.027.068.068,0,0,1-.035.009.066.066,0,0,1-.035-.009.029.029,0,0,1-.015-.027Z" transform="translate(-111.433 -85.842)" fill="#111640"/>
          <path id="Path_172" data-name="Path 172" d="M116.686,87.183a.058.058,0,0,1-.037-.013.1.1,0,0,1-.027-.033l-.314-.607v.616a.03.03,0,0,1-.016.027.067.067,0,0,1-.035.009.066.066,0,0,1-.035-.009.029.029,0,0,1-.016-.027v-.811a.029.029,0,0,1,.015-.027.075.075,0,0,1,.036-.008.061.061,0,0,1,.044.016.226.226,0,0,1,.033.048l.3.588v-.617a.03.03,0,0,1,.016-.027.08.08,0,0,1,.035-.008.078.078,0,0,1,.035.008.029.029,0,0,1,.016.027v.811a.029.029,0,0,1-.016.027A.066.066,0,0,1,116.686,87.183Z" transform="translate(-111.643 -85.842)" fill="#111640"/>
          <path id="Path_173" data-name="Path 173" d="M110.071,90.612c.018-.032.028-.035.041-.035h.228a.343.343,0,0,1,.1.014.2.2,0,0,1,.081.045.21.21,0,0,1,.054.081.321.321,0,0,1,.02.121.339.339,0,0,1-.02.132.217.217,0,0,1-.055.081.219.219,0,0,1-.084.046.348.348,0,0,1-.1.014h-.163v.312a.03.03,0,0,1-.015.028.073.073,0,0,1-.035.009.072.072,0,0,1-.035-.009.031.031,0,0,1-.016-.028Zm.1.056v.358h.163a.158.158,0,0,0,.117-.042.176.176,0,0,0,.042-.129.191.191,0,0,0-.042-.144.16.16,0,0,0-.117-.042Z" transform="translate(-108.973 -87.702)" fill="#111640"/>
          <path id="Path_174" data-name="Path 174" d="M111.079,91.454a.08.08,0,0,1-.041-.012.034.034,0,0,1-.021-.031c0-.01.249-.812.249-.812a.047.047,0,0,1,.024-.027.089.089,0,0,1,.038-.008.082.082,0,0,1,.039.009.049.049,0,0,1,.024.026l.246.8a.037.037,0,0,1-.019.039.079.079,0,0,1-.042.013c-.037-.023-.089-.2-.089-.2h-.317l-.054.18A.034.034,0,0,1,111.079,91.454Zm.384-.286-.134-.454-.136.454Z" transform="translate(-109.385 -87.696)" fill="#111640"/>
          <path id="Path_175" data-name="Path 175" d="M112.478,91.373a.193.193,0,0,0,.122-.037.138.138,0,0,0,.046-.113.144.144,0,0,0-.03-.1.241.241,0,0,0-.073-.058.7.7,0,0,0-.1-.041.494.494,0,0,1-.1-.045.241.241,0,0,1-.073-.07.2.2,0,0,1-.029-.116.218.218,0,0,1,.025-.11.194.194,0,0,1,.063-.068.248.248,0,0,1,.085-.036.438.438,0,0,1,.092-.01.6.6,0,0,1,.069,0,.393.393,0,0,1,.068.015.189.189,0,0,1,.053.024.045.045,0,0,1,.021.036.07.07,0,0,1-.012.034.034.034,0,0,1-.032.021.5.5,0,0,1-.055-.023.277.277,0,0,0-.046-.015.25.25,0,0,0-.067-.007.253.253,0,0,0-.063.007.159.159,0,0,0-.052.021.1.1,0,0,0-.036.038.121.121,0,0,0-.014.059.106.106,0,0,0,.03.08.241.241,0,0,0,.073.049,1.018,1.018,0,0,0,.1.038.384.384,0,0,1,.095.048.25.25,0,0,1,.074.08.255.255,0,0,1,.029.132.3.3,0,0,1-.02.113.223.223,0,0,1-.055.079.228.228,0,0,1-.084.046.389.389,0,0,1-.212,0,.325.325,0,0,1-.081-.035.2.2,0,0,1-.051-.045.073.073,0,0,1-.018-.043.059.059,0,0,1,.014-.037.039.039,0,0,1,.031-.019.038.038,0,0,1,.027.015c.01.01.021.021.036.033a.234.234,0,0,0,.056.034A.213.213,0,0,0,112.478,91.373Z" transform="translate(-109.911 -87.7)" fill="#111640"/>
          <path id="Path_176" data-name="Path 176" d="M113.55,91.373a.19.19,0,0,0,.122-.037.137.137,0,0,0,.046-.113.147.147,0,0,0-.029-.1.244.244,0,0,0-.074-.058.7.7,0,0,0-.1-.041.489.489,0,0,1-.095-.045.235.235,0,0,1-.073-.07.2.2,0,0,1-.03-.116.224.224,0,0,1,.025-.11.194.194,0,0,1,.063-.068.251.251,0,0,1,.086-.036.428.428,0,0,1,.092-.01.605.605,0,0,1,.069,0,.393.393,0,0,1,.068.015.189.189,0,0,1,.053.024.046.046,0,0,1,.021.036.074.074,0,0,1-.011.034.036.036,0,0,1-.032.021.557.557,0,0,1-.055-.023.27.27,0,0,0-.046-.015.305.305,0,0,0-.131,0,.159.159,0,0,0-.052.021.111.111,0,0,0-.036.038.121.121,0,0,0-.013.059.106.106,0,0,0,.029.08.248.248,0,0,0,.073.049c.029.014.062.027.1.038a.388.388,0,0,1,.1.048.234.234,0,0,1,.1.211.3.3,0,0,1-.02.113.216.216,0,0,1-.055.079.219.219,0,0,1-.084.046.365.365,0,0,1-.106.015.361.361,0,0,1-.105-.014.329.329,0,0,1-.081-.035.192.192,0,0,1-.051-.045.074.074,0,0,1-.018-.043.063.063,0,0,1,.014-.037.04.04,0,0,1,.031-.019.038.038,0,0,1,.027.015.373.373,0,0,0,.036.033.219.219,0,0,0,.056.034A.213.213,0,0,0,113.55,91.373Z" transform="translate(-110.378 -87.7)" fill="#111640"/>
          <path id="Path_177" data-name="Path 177" d="M115.038,91.431a.045.045,0,0,1-.024.026.082.082,0,0,1-.038.009.094.094,0,0,1-.04-.008.039.039,0,0,1-.024-.027l-.1-.4-.105.4a.042.042,0,0,1-.023.026.086.086,0,0,1-.039.009.088.088,0,0,1-.039-.008.041.041,0,0,1-.024-.027l-.239-.8a.035.035,0,0,1,.018-.041.08.08,0,0,1,.041-.011,7.132,7.132,0,0,1,.241.739l.115-.441a.034.034,0,0,1,.02-.024.072.072,0,0,1,.033-.007.068.068,0,0,1,.032.007.036.036,0,0,1,.019.024l.116.441.2-.716c.052-.023.066-.02.079-.012a.034.034,0,0,1,.02.029C115.276,90.629,115.038,91.431,115.038,91.431Z" transform="translate(-110.831 -87.702)" fill="#111640"/>
          <path id="Path_178" data-name="Path 178" d="M116.433,91.466a.369.369,0,0,1-.1-.014.209.209,0,0,1-.082-.045.215.215,0,0,1-.055-.082.338.338,0,0,1-.02-.123V90.84a.336.336,0,0,1,.02-.122.212.212,0,0,1,.055-.081.2.2,0,0,1,.082-.045.348.348,0,0,1,.1-.014.352.352,0,0,1,.1.014.207.207,0,0,1,.139.127.336.336,0,0,1,.02.122V91.2a.338.338,0,0,1-.02.123.215.215,0,0,1-.056.082.22.22,0,0,1-.083.045A.373.373,0,0,1,116.433,91.466Zm.159-.627a.175.175,0,0,0-.042-.129.161.161,0,0,0-.118-.042.158.158,0,0,0-.116.042.177.177,0,0,0-.042.129V91.2a.177.177,0,0,0,.042.13.158.158,0,0,0,.116.042.161.161,0,0,0,.118-.042.174.174,0,0,0,.042-.13Z" transform="translate(-111.629 -87.702)" fill="#111640"/>
          <path id="Path_179" data-name="Path 179" d="M117.383,90.612c.016-.031.025-.034.036-.035h.221a.431.431,0,0,1,.1.012.223.223,0,0,1,.086.04.186.186,0,0,1,.058.074.278.278,0,0,1,.021.115.3.3,0,0,1-.014.1.214.214,0,0,1-.038.069.2.2,0,0,1-.057.046.256.256,0,0,1-.071.025l.179.339c.005.031,0,.042-.014.053a.066.066,0,0,1-.041.016.033.033,0,0,1-.027-.012.126.126,0,0,1-.019-.028l-.182-.354h-.139v.355a.03.03,0,0,1-.015.028.073.073,0,0,1-.035.009.072.072,0,0,1-.035-.009.03.03,0,0,1-.016-.028Zm.1.056v.315h.156a.192.192,0,0,0,.121-.036.147.147,0,0,0,.046-.122.145.145,0,0,0-.046-.121.192.192,0,0,0-.121-.036Z" transform="translate(-112.155 -87.702)" fill="#111640"/>
          <path id="Path_180" data-name="Path 180" d="M118.8,90.577a.355.355,0,0,1,.1.014.207.207,0,0,1,.139.127.337.337,0,0,1,.02.122V91.2a.34.34,0,0,1-.02.123.207.207,0,0,1-.139.127.376.376,0,0,1-.1.014h-.214a.051.051,0,0,1-.033-.011c-.012-.024-.012-.836-.012-.836.021-.032.032-.035.046-.035Zm-.158.092v.7h.158a.156.156,0,0,0,.117-.042.173.173,0,0,0,.042-.129V90.84a.175.175,0,0,0-.042-.129.158.158,0,0,0-.117-.042Z" transform="translate(-112.659 -87.702)" fill="#111640"/>
        </g>
      </g>
      <g id="Group_102" data-name="Group 102" transform="translate(77.482 86.357)">
        <path id="Path_181" data-name="Path 181" d="M114.854,97.7a1.959,1.959,0,1,1-1.959-1.959A1.959,1.959,0,0,1,114.854,97.7Z" transform="translate(-110.937 -95.133)" fill="#fff"/>
        <path id="Path_182" data-name="Path 182" d="M113.471,98.522a.4.4,0,0,1-.353-.21L112.3,96.8a.4.4,0,1,1,.705-.381l.471.869,1.351-2.419a.4.4,0,1,1,.7.391l-1.707,3.055A.4.4,0,0,1,113.471,98.522Z" transform="translate(-111.51 -94.666)" fill="#111640"/>
      </g>
      <g id="Group_105" data-name="Group 105" transform="translate(34.041 206.636)">
        <path id="Path_183" data-name="Path 183" d="M68.576,313.734a.3.3,0,1,0,.594,0v-2.244a.3.3,0,1,0-.594,0Z" transform="translate(-49.066 -309.119)" fill="#7b7d96"/>
        <path id="Path_184" data-name="Path 184" d="M52.127,313.741a.3.3,0,1,0,.595,0V311.5a.3.3,0,1,0-.595,0Z" transform="translate(-41.909 -309.122)" fill="#7b7d96"/>
        <path id="Path_185" data-name="Path 185" d="M34.041,316.033l.007,17.7a1.763,1.763,0,0,0,1.764,1.759l26.723-.011a1.757,1.757,0,0,0,1.758-1.759l-.007-17.7a1.763,1.763,0,0,0-1.76-1.764l-26.723.011A1.768,1.768,0,0,0,34.041,316.033Z" transform="translate(-34.041 -310.483)" fill="#7694f3"/>
        <path id="Path_186" data-name="Path 186" d="M34.041,316.033l0,5.955a3.447,3.447,0,0,0,3.447,3.445l23.359-.01a3.44,3.44,0,0,0,3.439-3.447l0-5.955a1.763,1.763,0,0,0-1.76-1.764l-26.723.011A1.768,1.768,0,0,0,34.041,316.033Z" transform="translate(-34.041 -310.483)" fill="#627aed"/>
        <g id="Group_104" data-name="Group 104" transform="translate(12.491 12.297)">
          <path id="Path_187" data-name="Path 187" d="M59.082,335.046h1.264a.8.8,0,0,0,.8-.8l0-4.9H58.276l0,4.9A.8.8,0,0,0,59.082,335.046Z" transform="translate(-57.076 -329.345)" fill="#e4ebfd"/>
          <rect id="Rectangle_60" data-name="Rectangle 60" width="3.3" height="0.732" transform="translate(0.987 2.808)" fill="#7694f3"/>
          <path id="Rectangle_61" data-name="Rectangle 61" d="M.986,0h3.3a.987.987,0,0,1,.987.987V1.11a.987.987,0,0,1-.987.987H.987A.987.987,0,0,1,0,1.109V.986A.986.986,0,0,1,.986,0Z" transform="translate(0 0)" fill="#e4ebfd"/>
          <path id="Path_188" data-name="Path 188" d="M58.867,336.975a.454.454,0,0,0,.454.454h1.3a.453.453,0,0,0,.454-.454v-1.363H58.866Z" transform="translate(-57.333 -332.071)" fill="#fff"/>
          <g id="Group_103" data-name="Group 103" transform="translate(0.525 0.728)">
            <path id="Path_189" data-name="Path 189" d="M57.082,330.991a.353.353,0,1,0,.354-.354A.354.354,0,0,0,57.082,330.991Z" transform="translate(-57.082 -330.635)" fill="#627aee"/>
            <path id="Path_190" data-name="Path 190" d="M63.3,330.988a.353.353,0,1,0,.353-.354A.353.353,0,0,0,63.3,330.988Z" transform="translate(-59.789 -330.634)" fill="#627aee"/>
          </g>
          <path id="Path_191" data-name="Path 191" d="M59.37,336.128a.144.144,0,0,0,.144.145h1.35a.145.145,0,1,0,0-.289h-1.35a.144.144,0,0,0-.144.145Z" transform="translate(-57.552 -332.233)" fill="#7694f3" opacity="0.3"/>
          <path id="Path_192" data-name="Path 192" d="M59.37,337.109a.145.145,0,0,0,.145.145h1.35a.145.145,0,1,0,0-.289h-1.35a.144.144,0,0,0-.145.145Z" transform="translate(-57.552 -332.66)" fill="#7694f3" opacity="0.3"/>
          <path id="Path_193" data-name="Path 193" d="M59.37,338.089a.144.144,0,0,0,.145.145h1.35a.145.145,0,0,0,0-.289h-1.35a.145.145,0,0,0-.145.145Z" transform="translate(-57.552 -333.086)" fill="#7694f3" opacity="0.3"/>
        </g>
        <path id="Path_194" data-name="Path 194" d="M51.593,310.057a.833.833,0,0,0,1.084.112,7.7,7.7,0,0,1,8.141,0,.834.834,0,0,0,1.084-.112.776.776,0,0,0-.33-1.1,9.126,9.126,0,0,0-9.648,0,.776.776,0,0,0-.329,1.1Z" transform="translate(-41.624 -307.577)" fill="#7b7d96"/>
      </g>
      <g id="Group_111" data-name="Group 111" transform="translate(169.017 109.825)">
        <path id="Path_195" data-name="Path 195" d="M272.967,204.892l.1-2.629,1.926-2.344a13.146,13.146,0,0,1,6.366.523l2.906.849v2.775l-3.591-.947s-.49.523-1.991.229a16.7,16.7,0,0,1-2.952-1.493C274.393,202,273.7,203.518,272.967,204.892Z" transform="translate(-272.967 -163.865)" fill="#dde4fd"/>
        <path id="Path_196" data-name="Path 196" d="M278.663,203.7c-1.407,1-3.5,1.389-3.5,2.009.757,1.251,3.069-.458,4.647-.623Z" transform="translate(-273.924 -165.57)" fill="#dde4fd"/>
        <g id="Group_106" data-name="Group 106" transform="translate(9.036 36.765)">
          <path id="Path_197" data-name="Path 197" d="M291.675,206.77l-.2-5.012-2.515-.472v4.823Z" transform="translate(-288.963 -201.286)" fill="#fff"/>
        </g>
        <path id="Path_198" data-name="Path 198" d="M315.271,170.239c-6.288,3.381-5.355,3.766-10.23,18.571l-12.95-.7v5.957c6.332.984,13.412,2.914,17.825,1.7L320.5,178.748Z" transform="translate(-281.288 -151.013)" fill="#7694f3"/>
        <path id="Path_199" data-name="Path 199" d="M350.624,209.641l-23.348-2.687c.347-4.043,3.8-38.015,3.8-38.015l2.861-.456,8.6-1.383S350.682,205.98,350.624,209.641Z" transform="translate(-296.595 -149.648)" fill="#fff"/>
        <g id="Group_109" data-name="Group 109" transform="translate(24.776 53.718)">
          <g id="Group_107" data-name="Group 107" transform="translate(0 63.11)">
            <path id="Path_200" data-name="Path 200" d="M330.678,343.535c.307.09.749.262.713,3.5H316.824C316.824,342.64,327.184,342.514,330.678,343.535Z" transform="translate(-316.824 -343.009)" fill="#7694f3"/>
            <rect id="Rectangle_62" data-name="Rectangle 62" width="14.567" height="1.341" transform="translate(0 3.653)" fill="#646784"/>
          </g>
          <path id="Path_201" data-name="Path 201" d="M327.014,241.229l.309,55.013,8.5,3.462,1.765-50.827.015.211,3.357,50.985h8.984l-.007-.369c0-.008-1.222-41.8-1.222-41.8l-.325-11.118-.068-2.158-.113-3.4c0-.287-.09-2.859-.249-6.148H327.225C327.1,237.8,327.014,240.979,327.014,241.229Z" transform="translate(-321.257 -232.943)" fill="#e0e0e0"/>
          <path id="Path_202" data-name="Path 202" d="M348.151,233.455c0-1.15.04-1.578,0-2.159H327.505a8.969,8.969,0,0,0,0,2.159Z" transform="translate(-321.443 -231.296)" fill="#646784" style="mix-blend-mode: multiply;isolation: isolate"/>
          <rect id="Rectangle_63" data-name="Rectangle 63" width="2.422" height="1.726" transform="translate(12.155 0.217)" fill="#acabb9"/>
          <g id="Group_108" data-name="Group 108" transform="translate(19.702 63.636)">
            <path id="Path_203" data-name="Path 203" d="M360.682,347.437H351.7c0-3.384,2.011-3.5,4.491-3.5.164,0,.328,0,.486.006,2.158.04,3.853.435,3.994,3.113C360.677,347.188,360.682,347.307,360.682,347.437Z" transform="translate(-351.7 -343.94)" fill="#7694f3"/>
            <rect id="Rectangle_64" data-name="Rectangle 64" width="8.983" height="1.341" transform="translate(0.002 3.127)" fill="#646784"/>
          </g>
          <path id="Path_204" data-name="Path 204" d="M358.917,249.547a9.231,9.231,0,0,1-.955.474C358.282,249.859,358.6,249.7,358.917,249.547Z" transform="translate(-334.722 -239.237)" opacity="0.07"/>
        </g>
        <path id="Path_206" data-name="Path 206" d="M344.506,159.312l-.708-7.169c-3.06.361-7.161.773-7.887.72,0,0,.473,5.217.481,7.475C335.911,166.209,342.7,165.988,344.506,159.312Z" transform="translate(-300.352 -143.14)" fill="#dde4fd"/>
        <path id="Path_207" data-name="Path 207" d="M346.1,205.505v4.157a5.706,5.706,0,0,0,6.1,5.7l4.428-.3,3.892-.271c.083-6.246-.233-16.437-.528-26.017-.1-3.146-.2-6.223-.271-9.074l.128-2.21a6.58,6.58,0,0,0-.445-1.758,5.405,5.405,0,0,1-.309-1.328c-.211-2.512-.762-.03-.973-2.331,0-.015.1-1.2.09-1.214l-6.419-3.244c0-.008-1.063-.506-1.063-.506l-.385.06a17.06,17.06,0,0,0-1.154,2.731c-1.237,3.719-2.1,9.256-2.594,15.781-.068.92-.136,1.863-.189,2.829-.1,1.75-.166,3.583-.2,5.446a.847.847,0,0,0-.007.143c-.008.2-.008.385-.008.566-.015.528-.03,1.056-.038,1.584,0,.173-.007.34-.007.506,0,.437-.015.867-.015,1.3,0,.377-.007.754-.015,1.132v.686C346.1,201.273,346.1,203.318,346.1,205.505Z" transform="translate(-304.783 -149.649)" fill="#7694f3"/>
        <path id="Path_208" data-name="Path 208" d="M326.344,172.4l.441-.268,2.993-1.828.41-.066-.762,40.844c-.051,2.733-.87,4.875-3.6,4.673l-1.54-.24C324.637,211.473,326.295,174.455,326.344,172.4Z" transform="translate(-295.297 -151.013)" fill="#7694f3"/>
        <path id="Path_209" data-name="Path 209" d="M340.08,175.964l-1.853-.191-.613-3.683,3.109.118Z" transform="translate(-301.093 -151.819)" fill="#d0d1db"/>
        <path id="Path_210" data-name="Path 210" d="M337.4,169.838l-2.554,2.93c-.39-1.781-.9-3.244-.7-4.327l1.473-1.6A2.731,2.731,0,0,0,337.4,169.838Z" transform="translate(-299.566 -149.535)" fill="#7694f3"/>
        <path id="Path_211" data-name="Path 211" d="M339.941,168.372l3.157,3.652c2.155-2.116,4.392-4.465,4.955-6.5l-1.869-2.049C346.186,165.307,342.381,168.471,339.941,168.372Z" transform="translate(-302.106 -148.07)" fill="#fff"/>
        <path id="Path_212" data-name="Path 212" d="M339.822,178.8l-1.853-.191-.947,17,1.889,2.968,2.021-2.4Z" transform="translate(-300.836 -154.655)" fill="#d0d1db"/>
        <path id="Path_213" data-name="Path 213" d="M346.631,187.291c1.576-5.615,5.466-15.967,5.466-15.967s-2.476-1.286-2.3-1.482l2.72.1-.492-3.538-2.5-2.074A81.557,81.557,0,0,0,346.631,187.291Z" transform="translate(-305.009 -148.441)" fill="#6888eb"/>
        <path id="Path_214" data-name="Path 214" d="M331.8,187.818c-1.576-5.615-2.578-16.133-2.578-16.133s2.339-.862,2.165-1.058l-1.973-.24,1.183-1.567,3.031-2.885C332.963,172.422,331.966,180.638,331.8,187.818Z" transform="translate(-297.442 -149.14)" fill="#6888eb"/>
        <g id="Group_110" data-name="Group 110" transform="translate(32.078)">
          <path id="Path_215" data-name="Path 215" d="M342.875,148.205a8.225,8.225,0,0,0,1.03-3.473c.617-7-3.5-6.506-6.08-6.816-3.036-.231-6.138,1.465-6.858,6.087a7.668,7.668,0,0,0,.236.869l-1.307,2.473c-.441.833.169,1.45,1.061,1.326-.043.469-.077,2.206-.077,2.206-.165,1.789.849,3.325,2.439,3.371,4.583.128,5.639-1.759,5.8-5.786C340.235,148.464,342.335,149.185,342.875,148.205Z" transform="translate(-329.749 -136.942)" fill="#dde4fd"/>
          <path id="Path_216" data-name="Path 216" d="M342.769,151.61c-3.7.536-1.559-5.7-1.559-5.7s-.769-.408-1.208.021c-.765-.1-1-.694-1.682-.832.311-4.608,1.648-5.911-5.051-5.32-3.171-1.512.435-4.4,6.366-3.355,3.462.611,6.139,2.756,6.177,6.272C345.837,144.911,345.648,148.9,342.769,151.61Z" transform="translate(-330.769 -136.207)" fill="#34375a"/>
          <path id="Path_217" data-name="Path 217" d="M347.678,152.28c-.135,1.092-1.213,2.239-1.927,2.15s-.659-1.013-.536-2.107c.082-.723.162-1.724.972-1.855C346.9,150.354,347.876,150.678,347.678,152.28Z" transform="translate(-336.446 -142.403)" fill="#dde5fd"/>
        </g>
        <path id="Path_218" data-name="Path 218" d="M361.393,228.193l-.068-2.158,3.892-.271c.083-6.246-.233-16.437-.528-26.017l-5.823-7.407V211.65l-.649,4.835-1.32,9.852,4.82,12.974Z" transform="translate(-309.483 -160.629)" fill="#e0e0e0" style="mix-blend-mode: multiply;isolation: isolate"/>
        <path id="Path_219" data-name="Path 219" d="M366.316,252.631a5.284,5.284,0,0,1,.3-.959c.09-.3.12-.615.232-.906a5.365,5.365,0,0,1,1.569-2.266,2.3,2.3,0,0,1,2.978.535,2.62,2.62,0,0,1,.6,1.015q.492,1.48.986,2.96a2.773,2.773,0,0,1-.232,2.866c-.438.81-.5.739-.939,1.551a1.43,1.43,0,0,1-.316.44,1.082,1.082,0,0,1-.62.24c-.016.036-.034.071-.048.108a.773.773,0,0,1-.138.264.407.407,0,0,1-.345.106.765.765,0,0,1-.339-.147.524.524,0,0,0-.141.249.655.655,0,0,1-.1.222.45.45,0,0,1-.34.134,1.1,1.1,0,0,1-.35-.045.436.436,0,0,1-.244-.164c-.07.188-.1.355-.462.4a.6.6,0,0,1-.633-.818q.406-1.066.811-2.134a2.783,2.783,0,0,0,.214-2c-.123-.624-.35-1.155-.472-1.78a1.544,1.544,0,0,0-.449,1.284,4.337,4.337,0,0,1-.2,1.51,1.223,1.223,0,0,1-.637.633.4.4,0,0,1-.537-.4,8.373,8.373,0,0,0-.077-2.116A2.954,2.954,0,0,1,366.316,252.631Z" transform="translate(-313.577 -184.917)" fill="#dde4fd"/>
        <rect id="Rectangle_65" data-name="Rectangle 65" width="5.36" height="3.269" transform="translate(53.345 61.865) rotate(-0.948)" fill="#fff"/>
        <path id="Path_220" data-name="Path 220" d="M361.843,195.7l-2.974-16.225c0-8.333,7.591-7.806,8.878.308l2.162,15.664-.079,20.423h-6.876Z" transform="translate(-310.341 -152.413)" fill="#7694f3"/>
      </g>
    </g>
  </g>
</svg>
