<svg xmlns="http://www.w3.org/2000/svg" width="246" height="200" viewBox="0 0 246 200">
    <defs>
        <style>
            .prefix__cls-1{fill:#e9edfc}.prefix__cls-2{fill:#f7fafd}.prefix__cls-3{fill:#87a0f7}.prefix__cls-4{fill:#646784}.prefix__cls-5{fill:#fff}.prefix__cls-16,.prefix__cls-8,.prefix__cls-9{fill:#7794f3}.prefix__cls-8{opacity:.7}.prefix__cls-10,.prefix__cls-9{opacity:.2}.prefix__cls-11{fill:#959bd1}.prefix__cls-12{fill:#ced6f2}.prefix__cls-13{fill:#6a88eb}.prefix__cls-14{fill:#e0e0e0}.prefix__cls-15{fill:#d6d7d8}.prefix__cls-17{fill:#c2cced}.prefix__cls-18{fill:#a3afd5}
        </style>
    </defs>
    <g id="prefix___1" data-name="1" transform="translate(-657.23 -1781.104)">
        <path id="prefix__Path_2105" d="M95.7 96.771c52.852 0 95.7-43.336 95.7-96.794s-43.32-78.869-95.7-96.794S0-53.481 0-.023s42.845 96.794 95.7 96.794z" class="prefix__cls-1" data-name="Path 2105" transform="translate(689.263 1884.334)"/>
        <g id="prefix__OBJECTS" transform="translate(657.23 1781.104)">
            <g id="prefix__Group_2" data-name="Group 2" transform="translate(230.2 114.284)">
                <g id="prefix__Group_1" data-name="Group 1">
                    <path id="prefix__Path_2" d="M439.763 302.916c-2.576 3.643-.573 7.972 3.852 8.136a8.646 8.646 0 0 0 5.039-1.576c7.194-4.639 7.622-11.243 1.5-13.343-3.781-1.296-7.839 3.172-10.391 6.783z" class="prefix__cls-2" data-name="Path 2" transform="translate(-438.622 -295.904)"/>
                </g>
            </g>
            <g id="prefix__Group_90" data-name="Group 90" transform="translate(.453)">
                <g id="prefix__Group_61" data-name="Group 61" transform="translate(0 57.525)">
                    <g id="prefix__Group_40" data-name="Group 40" transform="translate(3.922 12.848)">
                        <path id="prefix__Path_21" d="M38.424 223.916a3.13 3.13 0 1 1 3.123-3.13 3.13 3.13 0 0 1-3.123 3.13zm0-5.278a2.148 2.148 0 1 0 2.143 2.148 2.148 2.148 0 0 0-2.143-2.148z" class="prefix__cls-1" data-name="Path 21" transform="translate(-35.301 -217.656)"/>
                    </g>
                    <g id="prefix__Group_41" data-name="Group 41" transform="translate(13.036)">
                        <path id="prefix__Path_22" d="M54.7 201.022a3.13 3.13 0 1 1 3.123-3.13 3.13 3.13 0 0 1-3.123 3.13zm0-5.278a2.148 2.148 0 1 0 2.143 2.148 2.148 2.148 0 0 0-2.143-2.148z" class="prefix__cls-3" data-name="Path 22" transform="translate(-51.58 -194.762)"/>
                    </g>
                    <g id="prefix__Group_48" data-name="Group 48" transform="translate(16.496 13.284)">
                        <g id="prefix__Group_44" data-name="Group 44" transform="translate(3.032)">
                            <g id="prefix__Group_42" data-name="Group 42">
                                <path id="prefix__Path_23" d="M63.664 221.581a.49.49 0 0 1-.49-.491v-2.165a.49.49 0 1 1 .98 0v2.165a.49.49 0 0 1-.49.491z" class="prefix__cls-3" data-name="Path 23" transform="translate(-63.174 -218.434)"/>
                            </g>
                            <g id="prefix__Group_43" data-name="Group 43" transform="translate(0 3.789)">
                                <path id="prefix__Path_24" d="M63.664 228.333a.49.49 0 0 1-.49-.49v-2.166a.49.49 0 1 1 .98 0v2.166a.49.49 0 0 1-.49.49z" class="prefix__cls-3" data-name="Path 24" transform="translate(-63.174 -225.186)"/>
                            </g>
                        </g>
                        <g id="prefix__Group_47" data-name="Group 47" transform="translate(0 2.977)">
                            <g id="prefix__Group_45" data-name="Group 45" transform="translate(4.124)">
                                <path id="prefix__Path_25" d="M67.555 224.721h-1.941a.491.491 0 0 1 0-.982h1.941a.491.491 0 0 1 0 .982z" class="prefix__cls-3" data-name="Path 25" transform="translate(-65.124 -223.739)"/>
                            </g>
                            <g id="prefix__Group_46" data-name="Group 46">
                                <path id="prefix__Path_26" d="M60.189 224.721h-1.941a.491.491 0 0 1 0-.982h1.941a.491.491 0 0 1 0 .982z" class="prefix__cls-3" data-name="Path 26" transform="translate(-57.758 -223.739)"/>
                            </g>
                        </g>
                    </g>
                    <g id="prefix__Group_60" data-name="Group 60" transform="translate(0 .167)">
                        <g id="prefix__Group_59" data-name="Group 59">
                            <g id="prefix__Group_53" data-name="Group 53" transform="translate(3.032)">
                                <g id="prefix__Group_50" data-name="Group 50">
                                    <g id="prefix__Group_49" data-name="Group 49">
                                        <path id="prefix__Path_27" d="M34.2 198.207a.49.49 0 0 1-.49-.491v-2.165a.49.49 0 1 1 .98 0v2.165a.49.49 0 0 1-.49.491z" class="prefix__cls-4" data-name="Path 27" transform="translate(-33.712 -195.06)"/>
                                    </g>
                                </g>
                                <g id="prefix__Group_52" data-name="Group 52" transform="translate(0 3.789)">
                                    <g id="prefix__Group_51" data-name="Group 51">
                                        <path id="prefix__Path_28" d="M34.2 204.96a.491.491 0 0 1-.49-.491V202.3a.49.49 0 1 1 .98 0v2.166a.491.491 0 0 1-.49.494z" class="prefix__cls-4" data-name="Path 28" transform="translate(-33.712 -201.812)"/>
                                    </g>
                                </g>
                            </g>
                            <g id="prefix__Group_58" data-name="Group 58" transform="translate(0 2.977)">
                                <g id="prefix__Group_55" data-name="Group 55" transform="translate(4.124)">
                                    <g id="prefix__Group_54" data-name="Group 54">
                                        <path id="prefix__Path_29" d="M38.093 201.347h-1.941a.491.491 0 0 1 0-.982h1.941a.491.491 0 0 1 0 .982z" class="prefix__cls-4" data-name="Path 29" transform="translate(-35.662 -200.365)"/>
                                    </g>
                                </g>
                                <g id="prefix__Group_57" data-name="Group 57">
                                    <g id="prefix__Group_56" data-name="Group 56">
                                        <path id="prefix__Path_30" d="M30.728 201.347h-1.941a.491.491 0 0 1 0-.982h1.941a.491.491 0 0 1 0 .982z" class="prefix__cls-4" data-name="Path 30" transform="translate(-28.297 -200.365)"/>
                                    </g>
                                </g>
                            </g>
                        </g>
                    </g>
                </g>
                <g id="prefix__Group_84" data-name="Group 84" transform="translate(159.632)">
                    <g id="prefix__Group_63" data-name="Group 63" transform="translate(21.035 18.271)">
                        <g id="prefix__Group_62" data-name="Group 62">
                            <path id="prefix__Path_31" d="M350.967 127.945a3.123 3.123 0 1 1 3.123 3.13 3.13 3.13 0 0 1-3.123-3.13zm.98 0a2.143 2.143 0 1 0 2.143-2.148 2.148 2.148 0 0 0-2.143 2.148z" class="prefix__cls-5" data-name="Path 31" transform="translate(-350.967 -124.815)"/>
                        </g>
                    </g>
                    <g id="prefix__Group_64" data-name="Group 64" transform="translate(7.003 11.249)">
                        <path id="prefix__Path_32" d="M325.9 115.432a3.123 3.123 0 1 1 3.123 3.13 3.13 3.13 0 0 1-3.123-3.13zm.98 0a2.143 2.143 0 1 0 2.143-2.148 2.148 2.148 0 0 0-2.138 2.148z" class="prefix__cls-3" data-name="Path 32" transform="translate(-325.905 -112.302)"/>
                    </g>
                    <g id="prefix__Group_71" data-name="Group 71" transform="translate(0 24.461)">
                        <g id="prefix__Group_67" data-name="Group 67" transform="translate(3.032)">
                            <g id="prefix__Group_65" data-name="Group 65">
                                <path id="prefix__Path_33" d="M319.3 138.992a.49.49 0 0 0 .49-.491v-2.166a.49.49 0 1 0-.979 0v2.165a.49.49 0 0 0 .489.492z" class="prefix__cls-4" data-name="Path 33" transform="translate(-318.814 -135.844)"/>
                            </g>
                            <g id="prefix__Group_66" data-name="Group 66" transform="translate(0 3.79)">
                                <path id="prefix__Path_34" d="M319.3 145.744a.49.49 0 0 0 .49-.491v-2.166a.49.49 0 1 0-.979 0v2.166a.49.49 0 0 0 .489.491z" class="prefix__cls-4" data-name="Path 34" transform="translate(-318.814 -142.597)"/>
                            </g>
                        </g>
                        <g id="prefix__Group_70" data-name="Group 70" transform="translate(0 2.978)">
                            <g id="prefix__Group_68" data-name="Group 68">
                                <path id="prefix__Path_35" d="M313.888 142.132h1.941a.491.491 0 0 0 0-.982h-1.941a.491.491 0 0 0 0 .982z" class="prefix__cls-4" data-name="Path 35" transform="translate(-313.398 -141.15)"/>
                            </g>
                            <g id="prefix__Group_69" data-name="Group 69" transform="translate(4.124)">
                                <path id="prefix__Path_36" d="M321.253 142.132h1.941a.491.491 0 0 0 0-.982h-1.941a.491.491 0 0 0 0 .982z" class="prefix__cls-4" data-name="Path 36" transform="translate(-320.763 -141.15)"/>
                            </g>
                        </g>
                    </g>
                    <g id="prefix__Group_83" data-name="Group 83" transform="translate(21.238)">
                        <g id="prefix__Group_82" data-name="Group 82">
                            <g id="prefix__Group_76" data-name="Group 76" transform="translate(3.032)">
                                <g id="prefix__Group_73" data-name="Group 73">
                                    <g id="prefix__Group_72" data-name="Group 72">
                                        <path id="prefix__Path_37" d="M357.235 95.4a.491.491 0 0 0 .49-.491v-2.161a.49.49 0 1 0-.98 0v2.165a.491.491 0 0 0 .49.487z" class="prefix__cls-3" data-name="Path 37" transform="translate(-356.745 -92.257)"/>
                                    </g>
                                </g>
                                <g id="prefix__Group_75" data-name="Group 75" transform="translate(0 3.789)">
                                    <g id="prefix__Group_74" data-name="Group 74">
                                        <path id="prefix__Path_38" d="M357.235 102.156a.49.49 0 0 0 .49-.491V99.5a.49.49 0 1 0-.98 0v2.165a.49.49 0 0 0 .49.491z" class="prefix__cls-3" data-name="Path 38" transform="translate(-356.745 -99.009)"/>
                                    </g>
                                </g>
                            </g>
                            <g id="prefix__Group_81" data-name="Group 81" transform="translate(0 2.977)">
                                <g id="prefix__Group_78" data-name="Group 78">
                                    <g id="prefix__Group_77" data-name="Group 77">
                                        <path id="prefix__Path_39" d="M351.819 98.544h1.941a.491.491 0 0 0 0-.982h-1.941a.491.491 0 0 0 0 .982z" class="prefix__cls-3" data-name="Path 39" transform="translate(-351.329 -97.562)"/>
                                    </g>
                                </g>
                                <g id="prefix__Group_80" data-name="Group 80" transform="translate(4.124)">
                                    <g id="prefix__Group_79" data-name="Group 79">
                                        <path id="prefix__Path_40" d="M359.184 98.544h1.941c.27 0 .624-.22.624-.491s-.353-.491-.624-.491h-1.941a.491.491 0 0 0 0 .982z" class="prefix__cls-3" data-name="Path 40" transform="translate(-358.695 -97.562)"/>
                                    </g>
                                </g>
                            </g>
                        </g>
                    </g>
                </g>
                <g id="prefix__Group_85" data-name="Group 85" transform="translate(87.053 11.969)">
                    <rect id="prefix__Rectangle_2" width="18.822" height="18.865" class="prefix__cls-5" data-name="Rectangle 2" rx="9.411"/>
                    <path id="prefix__Path_41" d="M202.043 125.636a3.28 3.28 0 0 1-.958 2.326l-4.359 4.369-4.359-4.369a3.3 3.3 0 0 1 0-4.651c1.19-1.193 3-.978 4.36 1.039 1.356-2.017 3.17-2.232 4.36-1.039a3.282 3.282 0 0 1 .956 2.325z" class="prefix__cls-3" data-name="Path 41" transform="translate(-187.134 -117.532)"/>
                </g>
                <g id="prefix__Group_89" data-name="Group 89" transform="translate(123.284 13.91)">
                    <g id="prefix__Group_86" data-name="Group 86">
                        <path id="prefix__Path_42" d="M275.59 119.456v10.075a2.41 2.41 0 0 1-2.406 2.412h-18.252l-5.51 1.982a.7.7 0 0 1-.891-.915l2.085-5.395v-8.159a2.41 2.41 0 0 1 2.408-2.413h20.16a2.41 2.41 0 0 1 2.406 2.413z" class="prefix__cls-3" data-name="Path 42" transform="translate(-248.482 -117.043)"/>
                    </g>
                    <g id="prefix__Group_88" data-name="Group 88" transform="translate(7.77 5.991)" style="mix-blend-mode:screen;isolation:isolate">
                        <g id="prefix__Group_87" data-name="Group 87">
                            <path id="prefix__Path_43" d="M265.841 129.464a1.741 1.741 0 1 1-1.741-1.745 1.743 1.743 0 0 1 1.741 1.745z" class="prefix__cls-2" data-name="Path 43" transform="translate(-262.359 -127.719)"/>
                            <path id="prefix__Path_44" d="M275.685 129.464a1.741 1.741 0 1 1-1.741-1.745 1.743 1.743 0 0 1 1.741 1.745z" class="prefix__cls-2" data-name="Path 44" transform="translate(-266.691 -127.719)"/>
                            <ellipse id="prefix__Ellipse_2" cx="1.741" cy="1.745" class="prefix__cls-2" data-name="Ellipse 2" rx="1.741" ry="1.745" transform="translate(11.023)"/>
                        </g>
                    </g>
                </g>
            </g>
            <g id="prefix__Group_176" data-name="Group 176" transform="translate(27.756 34.942)">
                <path id="prefix__Path_45" d="M270.532 156.843v138.325a2.32 2.32 0 0 1-2.317 2.321H79.375a2.317 2.317 0 0 1-2.316-2.321V156.843a2.319 2.319 0 0 1 2.316-2.322h188.84a2.32 2.32 0 0 1 2.317 2.322z" class="prefix__cls-4" data-name="Path 45" transform="translate(-77.059 -154.521)"/>
                <path id="prefix__Path_46" d="M271.136 157.579V295.9a2.32 2.32 0 0 1-2.317 2.321H79.979a2.308 2.308 0 0 1-1.547-.593L270.682 156.2a2.317 2.317 0 0 1 .454 1.379z" data-name="Path 46" transform="translate(-77.663 -155.257)" style="fill:#585b77"/>
                <path id="prefix__Rectangle_3" d="M4.558 0h173.354a4.558 4.558 0 0 1 4.558 4.558v122.826a4.556 4.556 0 0 1-4.556 4.556H4.558A4.558 4.558 0 0 1 0 127.381V4.558A4.558 4.558 0 0 1 4.558 0z" class="prefix__cls-5" data-name="Rectangle 3" transform="translate(5.502 5.514)"/>
                <g id="prefix__Group_1536" data-name="Group 1536" transform="translate(35.601 26.277)">
                    <g id="prefix__Group_1537" data-name="Group 1537">
                        <g id="prefix__Group_1535" data-name="Group 1535">
                            <g id="prefix__Group_165" data-name="Group 165">
                                <rect id="prefix__Rectangle_13" width="114.141" height="40.826" class="prefix__cls-1" data-name="Rectangle 13" rx="2"/>
                                <g id="prefix__Group_149" data-name="Group 149" transform="translate(4.229 2.979)">
                                    <g id="prefix__Group_148" data-name="Group 148">
                                        <g id="prefix__Group_147" data-name="Group 147">
                                            <path id="prefix__Path_72" d="M197.921 218.106a17.089 17.089 0 0 1-3.93 10.93 17.162 17.162 0 0 1-26.469 0 17.165 17.165 0 1 1 30.4-10.931z" class="prefix__cls-5" data-name="Path 72" transform="translate(-163.59 -200.941)"/>
                                        </g>
                                    </g>
                                    <circle id="prefix__Ellipse_5" cx="6.583" cy="6.583" r="6.583" class="prefix__cls-1" data-name="Ellipse 5" transform="translate(10.583 6.373)"/>
                                    <path id="prefix__Path_73" d="M193.138 234.8a17.164 17.164 0 0 1-22.727 0 10.071 10.071 0 0 1 4.218-5.987 12.575 12.575 0 0 1 14.293 0 10.073 10.073 0 0 1 4.216 5.987z" class="prefix__cls-1" data-name="Path 73" transform="translate(-164.609 -204.775)"/>
                                </g>
                                <g id="prefix__Group_163" data-name="Group 163" transform="translate(43.602 7.161)">
                                    <g id="prefix__Group_152" data-name="Group 152">
                                        <g id="prefix__Group_151" data-name="Group 151">
                                            <g id="prefix__Group_150" data-name="Group 150">
                                                <path id="prefix__Path_74" d="M212 215.25c.012-.045.019-.077.029-.108q.509-1.582 1.022-3.164a.12.12 0 0 0-.054-.161q-1.523-1.128-3.042-2.262a.222.222 0 0 1-.071-.078h.221l3.673-.037c.071 0 .1-.025.117-.09q.545-1.7 1.1-3.406l.029-.085c.017.041.03.069.04.1l1.272 3.48a.13.13 0 0 0 .147.1q1.711-.014 3.42-.021a.5.5 0 0 1 .145.015l-.073.052-2.965 2.01a.112.112 0 0 0-.054.158l1.2 3.476c.01.027.017.056.031.106l-.133-.091q-1.458-1.033-2.914-2.068a.107.107 0 0 0-.148 0q-1.443 1.007-2.888 2.009z" class="prefix__cls-8" data-name="Path 74" transform="translate(-209.882 -205.858)"/>
                                            </g>
                                        </g>
                                    </g>
                                    <g id="prefix__Group_155" data-name="Group 155" transform="translate(13.04)">
                                        <g id="prefix__Group_154" data-name="Group 154">
                                            <g id="prefix__Group_153" data-name="Group 153">
                                                <path id="prefix__Path_75" d="M227.329 215.25l.029-.108 1.022-3.164a.119.119 0 0 0-.054-.161q-1.522-1.128-3.041-2.262a.214.214 0 0 1-.071-.078h.221l3.673-.037c.071 0 .1-.025.117-.09q.546-1.7 1.1-3.406l.029-.085c.017.041.03.069.041.1q.637 1.74 1.271 3.48a.131.131 0 0 0 .148.1q1.71-.014 3.42-.021a.5.5 0 0 1 .145.015l-.074.052-2.965 2.01a.112.112 0 0 0-.053.158l1.2 3.476c.009.027.016.056.031.106l-.134-.091-2.914-2.068a.107.107 0 0 0-.148 0q-1.443 1.007-2.888 2.009c-.034.015-.062.037-.105.065z" class="prefix__cls-8" data-name="Path 75" transform="translate(-225.214 -205.858)"/>
                                            </g>
                                        </g>
                                    </g>
                                    <g id="prefix__Group_158" data-name="Group 158" transform="translate(26.08)">
                                        <g id="prefix__Group_157" data-name="Group 157">
                                            <g id="prefix__Group_156" data-name="Group 156">
                                                <path id="prefix__Path_76" d="M242.661 215.25c.012-.045.019-.077.029-.108q.509-1.582 1.022-3.164a.12.12 0 0 0-.054-.161q-1.523-1.128-3.042-2.262a.222.222 0 0 1-.071-.078h.222l3.673-.037a.1.1 0 0 0 .117-.09q.546-1.7 1.1-3.406l.029-.085c.017.041.03.069.04.1l1.272 3.48a.13.13 0 0 0 .147.1q1.711-.014 3.42-.021a.5.5 0 0 1 .145.015l-.073.052-2.965 2.01a.112.112 0 0 0-.054.158l1.2 3.476c.009.027.016.056.03.106l-.133-.091q-1.458-1.033-2.914-2.068a.107.107 0 0 0-.148 0q-1.443 1.007-2.888 2.009z" class="prefix__cls-8" data-name="Path 76" transform="translate(-240.545 -205.858)"/>
                                            </g>
                                        </g>
                                    </g>
                                    <g id="prefix__Group_161" data-name="Group 161" transform="translate(39.12)">
                                        <g id="prefix__Group_160" data-name="Group 160">
                                            <g id="prefix__Group_159" data-name="Group 159">
                                                <path id="prefix__Path_77" d="M257.993 215.25c.012-.045.019-.077.029-.108q.509-1.582 1.021-3.164a.119.119 0 0 0-.054-.161q-1.522-1.128-3.042-2.262a.215.215 0 0 1-.071-.078h.221l3.673-.037a.1.1 0 0 0 .117-.09q.545-1.7 1.1-3.406l.029-.085c.017.041.03.069.041.1q.637 1.74 1.271 3.48a.131.131 0 0 0 .148.1q1.709-.014 3.42-.021a.5.5 0 0 1 .145.015l-.074.052-2.965 2.01a.112.112 0 0 0-.053.158l1.2 3.476c.009.027.016.056.031.106l-.133-.091-2.914-2.068a.106.106 0 0 0-.147 0q-1.443 1.007-2.889 2.009z" class="prefix__cls-9" data-name="Path 77" transform="translate(-255.877 -205.858)"/>
                                            </g>
                                        </g>
                                    </g>
                                    <g id="prefix__Group_162" data-name="Group 162" transform="translate(52.16)">
                                        <path id="prefix__Path_78" d="M273.324 215.25c.012-.045.019-.077.029-.108l1.022-3.164a.121.121 0 0 0-.054-.161q-1.523-1.128-3.041-2.262a.224.224 0 0 1-.071-.078h.222l3.673-.037a.1.1 0 0 0 .117-.09q.546-1.7 1.1-3.406l.029-.085c.017.041.03.069.04.1l1.272 3.48a.13.13 0 0 0 .147.1q1.711-.014 3.421-.021a.492.492 0 0 1 .144.015l-.073.052-2.965 2.01a.112.112 0 0 0-.054.158l1.2 3.476c.009.027.016.056.031.106l-.134-.091q-1.458-1.033-2.914-2.068a.107.107 0 0 0-.148 0q-1.443 1.007-2.888 2.009c-.029.015-.063.037-.105.065z" class="prefix__cls-9" data-name="Path 78" transform="translate(-271.208 -205.858)"/>
                                    </g>
                                </g>
                                <g id="prefix__Group_164" class="prefix__cls-10" data-name="Group 164" transform="translate(43.602 20.865)">
                                    <rect id="prefix__Rectangle_14" width="62.266" height="2.738" class="prefix__cls-11" data-name="Rectangle 14" rx="1.369"/>
                                    <path id="prefix__Path_79" d="M270.778 228.869h-59.527a1.37 1.37 0 0 0-1.369 1.369 1.37 1.37 0 0 0 1.369 1.369h59.527a1.37 1.37 0 0 0 1.369-1.369 1.37 1.37 0 0 0-1.369-1.369z" class="prefix__cls-11" data-name="Path 79" transform="translate(-209.882 -223.002)"/>
                                </g>
                            </g>
                        </g>
                    </g>
                </g>
                <g id="prefix__Group_1540" data-name="Group 1540" transform="translate(35.601 81.277)">
                    <g id="prefix__Group_1537-2" data-name="Group 1537">
                        <g id="prefix__Group_1535-2" data-name="Group 1535">
                            <g id="prefix__Group_165-2" data-name="Group 165">
                                <rect id="prefix__Rectangle_13-2" width="114.141" height="40.826" class="prefix__cls-1" data-name="Rectangle 13" rx="2"/>
                                <g id="prefix__Group_149-2" data-name="Group 149" transform="translate(4.229 2.979)">
                                    <g id="prefix__Group_148-2" data-name="Group 148">
                                        <g id="prefix__Group_147-2" data-name="Group 147">
                                            <path id="prefix__Path_72-2" d="M197.921 218.106a17.089 17.089 0 0 1-3.93 10.93 17.162 17.162 0 0 1-26.469 0 17.165 17.165 0 1 1 30.4-10.931z" class="prefix__cls-5" data-name="Path 72" transform="translate(-163.59 -200.941)"/>
                                        </g>
                                    </g>
                                    <circle id="prefix__Ellipse_5-2" cx="6.583" cy="6.583" r="6.583" class="prefix__cls-1" data-name="Ellipse 5" transform="translate(10.583 6.373)"/>
                                    <path id="prefix__Path_73-2" d="M193.138 234.8a17.164 17.164 0 0 1-22.727 0 10.071 10.071 0 0 1 4.218-5.987 12.575 12.575 0 0 1 14.293 0 10.073 10.073 0 0 1 4.216 5.987z" class="prefix__cls-1" data-name="Path 73" transform="translate(-164.609 -204.775)"/>
                                </g>
                                <g id="prefix__Group_163-2" data-name="Group 163" transform="translate(43.602 7.161)">
                                    <g id="prefix__Group_152-2" data-name="Group 152">
                                        <g id="prefix__Group_151-2" data-name="Group 151">
                                            <g id="prefix__Group_150-2" data-name="Group 150">
                                                <path id="prefix__Path_74-2" d="M212 215.25c.012-.045.019-.077.029-.108q.509-1.582 1.022-3.164a.12.12 0 0 0-.054-.161q-1.523-1.128-3.042-2.262a.222.222 0 0 1-.071-.078h.221l3.673-.037c.071 0 .1-.025.117-.09q.545-1.7 1.1-3.406l.029-.085c.017.041.03.069.04.1l1.272 3.48a.13.13 0 0 0 .147.1q1.711-.014 3.42-.021a.5.5 0 0 1 .145.015l-.073.052-2.965 2.01a.112.112 0 0 0-.054.158l1.2 3.476c.01.027.017.056.031.106l-.133-.091q-1.458-1.033-2.914-2.068a.107.107 0 0 0-.148 0q-1.443 1.007-2.888 2.009z" class="prefix__cls-8" data-name="Path 74" transform="translate(-209.882 -205.858)"/>
                                            </g>
                                        </g>
                                    </g>
                                    <g id="prefix__Group_155-2" data-name="Group 155" transform="translate(13.04)">
                                        <g id="prefix__Group_154-2" data-name="Group 154">
                                            <g id="prefix__Group_153-2" data-name="Group 153">
                                                <path id="prefix__Path_75-2" d="M227.329 215.25l.029-.108 1.022-3.164a.119.119 0 0 0-.054-.161q-1.522-1.128-3.041-2.262a.214.214 0 0 1-.071-.078h.221l3.673-.037c.071 0 .1-.025.117-.09q.546-1.7 1.1-3.406l.029-.085c.017.041.03.069.041.1q.637 1.74 1.271 3.48a.131.131 0 0 0 .148.1q1.71-.014 3.42-.021a.5.5 0 0 1 .145.015l-.074.052-2.965 2.01a.112.112 0 0 0-.053.158l1.2 3.476c.009.027.016.056.031.106l-.134-.091-2.914-2.068a.107.107 0 0 0-.148 0q-1.443 1.007-2.888 2.009c-.034.015-.062.037-.105.065z" class="prefix__cls-8" data-name="Path 75" transform="translate(-225.214 -205.858)"/>
                                            </g>
                                        </g>
                                    </g>
                                    <g id="prefix__Group_158-2" data-name="Group 158" transform="translate(26.08)">
                                        <g id="prefix__Group_157-2" data-name="Group 157">
                                            <g id="prefix__Group_156-2" data-name="Group 156">
                                                <path id="prefix__Path_76-2" d="M242.661 215.25c.012-.045.019-.077.029-.108q.509-1.582 1.022-3.164a.12.12 0 0 0-.054-.161q-1.523-1.128-3.042-2.262a.222.222 0 0 1-.071-.078h.222l3.673-.037a.1.1 0 0 0 .117-.09q.546-1.7 1.1-3.406l.029-.085c.017.041.03.069.04.1l1.272 3.48a.13.13 0 0 0 .147.1q1.711-.014 3.42-.021a.5.5 0 0 1 .145.015l-.073.052-2.965 2.01a.112.112 0 0 0-.054.158l1.2 3.476c.009.027.016.056.03.106l-.133-.091q-1.458-1.033-2.914-2.068a.107.107 0 0 0-.148 0q-1.443 1.007-2.888 2.009z" class="prefix__cls-8" data-name="Path 76" transform="translate(-240.545 -205.858)"/>
                                            </g>
                                        </g>
                                    </g>
                                    <g id="prefix__Group_161-2" data-name="Group 161" transform="translate(39.12)">
                                        <g id="prefix__Group_160-2" data-name="Group 160">
                                            <g id="prefix__Group_159-2" data-name="Group 159">
                                                <path id="prefix__Path_77-2" d="M257.993 215.25c.012-.045.019-.077.029-.108q.509-1.582 1.021-3.164a.119.119 0 0 0-.054-.161q-1.522-1.128-3.042-2.262a.215.215 0 0 1-.071-.078h.221l3.673-.037a.1.1 0 0 0 .117-.09q.545-1.7 1.1-3.406l.029-.085c.017.041.03.069.041.1q.637 1.74 1.271 3.48a.131.131 0 0 0 .148.1q1.709-.014 3.42-.021a.5.5 0 0 1 .145.015l-.074.052-2.965 2.01a.112.112 0 0 0-.053.158l1.2 3.476c.009.027.016.056.031.106l-.133-.091-2.914-2.068a.106.106 0 0 0-.147 0q-1.443 1.007-2.889 2.009z" class="prefix__cls-8" data-name="Path 77" transform="translate(-255.877 -205.858)"/>
                                            </g>
                                        </g>
                                    </g>
                                    <g id="prefix__Group_162-2" data-name="Group 162" transform="translate(52.16)">
                                        <path id="prefix__Path_78-2" d="M273.324 215.25c.012-.045.019-.077.029-.108l1.022-3.164a.121.121 0 0 0-.054-.161q-1.523-1.128-3.041-2.262a.224.224 0 0 1-.071-.078h.222l3.673-.037a.1.1 0 0 0 .117-.09q.546-1.7 1.1-3.406l.029-.085c.017.041.03.069.04.1l1.272 3.48a.13.13 0 0 0 .147.1q1.711-.014 3.421-.021a.492.492 0 0 1 .144.015l-.073.052-2.965 2.01a.112.112 0 0 0-.054.158l1.2 3.476c.009.027.016.056.031.106l-.134-.091q-1.458-1.033-2.914-2.068a.107.107 0 0 0-.148 0q-1.443 1.007-2.888 2.009c-.029.015-.063.037-.105.065z" class="prefix__cls-8" data-name="Path 78" transform="translate(-271.208 -205.858)"/>
                                    </g>
                                </g>
                                <g id="prefix__Group_164-2" class="prefix__cls-10" data-name="Group 164" transform="translate(43.602 20.865)">
                                    <rect id="prefix__Rectangle_14-2" width="62.266" height="2.738" class="prefix__cls-11" data-name="Rectangle 14" rx="1.369"/>
                                    <path id="prefix__Path_79-2" d="M270.778 228.869h-59.527a1.37 1.37 0 0 0-1.369 1.369 1.37 1.37 0 0 0 1.369 1.369h59.527a1.37 1.37 0 0 0 1.369-1.369 1.37 1.37 0 0 0-1.369-1.369z" class="prefix__cls-11" data-name="Path 79" transform="translate(-209.882 -223.002)"/>
                                </g>
                            </g>
                        </g>
                    </g>
                </g>
                <g id="prefix__Group_114" data-name="Group 114" transform="translate(5.502 5.514)">
                    <path id="prefix__Path_55" d="M269.354 166.9v8.9H86.885v-8.9a2.554 2.554 0 0 1 2.55-2.558H266.8a2.555 2.555 0 0 1 2.554 2.558z" class="prefix__cls-1" data-name="Path 55" transform="translate(-86.885 -164.347)"/>
                    <path id="prefix__Path_56" d="M142.124 173.9a1.519 1.519 0 0 0 1.517 1.521h133.005a1.519 1.519 0 0 0 1.517-1.521 1.519 1.519 0 0 0-1.517-1.52H143.641a1.519 1.519 0 0 0-1.517 1.52z" class="prefix__cls-5" data-name="Path 56" transform="translate(-111.195 -167.871)"/>
                    <path id="prefix__Path_57" d="M102.813 173.877V175a.419.419 0 0 1-.628.364l-.974-.563-.973-.563a.42.42 0 0 1 0-.727l.973-.563.974-.563a.419.419 0 0 1 .628.364z" class="prefix__cls-4" data-name="Path 57" transform="translate(-92.669 -167.85)"/>
                    <path id="prefix__Path_58" d="M114.049 173.877V175a.419.419 0 0 0 .628.364l.973-.563.974-.563a.42.42 0 0 0 0-.727l-.974-.563-.973-.563a.419.419 0 0 0-.628.364z" class="prefix__cls-4" data-name="Path 58" transform="translate(-98.84 -167.85)"/>
                </g>
            </g>
            <g id="prefix__Group_218" data-name="Group 218" transform="translate(0 88.652)">
                <g id="prefix__Group_217" data-name="Group 217">
                    <path id="prefix__Path_97" d="M164.371 329.737c-.063-.309-1.107-.705-2.115-1.02.01-.035.018-.072.027-.109 1.408.278 3.837.668 3.627.008-.137-.433-2.2-.833-3.456-1.037l.021-.2c1.495.222 4.41.565 4.133-.171-.185-.491-2.742-.815-4.06-.951 0-.06 0-.119.006-.177 1.276.137 3.727.309 3.451-.424-.25-.663-4.043-.723-4.043-.723l-1.413-.2s0-.494 1.016-.826 1.482-1.053.186-.974c-1.465.089-2.717.618-3.738.647a3.862 3.862 0 0 0-2.076 1.052l-.417 2.763s3.708 2.24 6.133 2.18c1.272.36 2.828.701 2.718.162z" class="prefix__cls-12" data-name="Path 97" transform="translate(-93.811 -282.129)"/>
                    <path id="prefix__Path_98" d="M156.1 356.181c0 1.483.026 2.7 0 4.536-1.133-1.112-3.209-2.8-3.209-2.8l1.536-1.507a2.289 2.289 0 0 1 1.673-.229z" class="prefix__cls-12" data-name="Path 98" transform="translate(-92.651 -296.681)"/>
                    <g id="prefix__Group_177" data-name="Group 177" transform="translate(43.147 26.917)">
                        <path id="prefix__Path_99" d="M129.238 299.474c-.627 4.044.413 15.636 1.722 17.835 1.7 2.862 8.028 9.625 11.333 13.11.6.629-3.049 2.625-3.049 2.625s-9.775-7.338-12.83-11.97c-.865-1.31-2.316-5.1-3.293-11.831-.3-2.041-1.214-6.245-.469-8.622.858-2.735 4.28-3.221 6.586-1.147z" class="prefix__cls-13" data-name="Path 99" transform="translate(-122.366 -298.193)"/>
                    </g>
                    <g id="prefix__Group_185" data-name="Group 185" transform="translate(27.42 57.68)">
                        <g id="prefix__Group_183" data-name="Group 183" transform="translate(18.503 36.861)">
                            <path id="prefix__Path_100" d="M128.847 418.695l-.084 4.3a4.371 4.371 0 0 0 3.258.347l.827-4.636z" class="prefix__cls-12" data-name="Path 100" transform="translate(-127.958 -418.695)"/>
                            <g id="prefix__Group_182" data-name="Group 182" transform="translate(0 3.073)">
                                <path id="prefix__Path_101" d="M130.914 425.192s.732-1.047 1.338-1.021 5.38 3.607 6.987 3.867 1.558 2.259.931 2.5c-.713.269-12.568.223-12.568.223s-.513-4.219-.139-5.368 2.209.107 3.451-.201z" class="prefix__cls-4" data-name="Path 101" transform="translate(-127.326 -424.171)"/>
                                <g id="prefix__Group_181" data-name="Group 181" transform="translate(5.263 1.152)">
                                    <g id="prefix__Group_178" data-name="Group 178" transform="translate(.686 .613)">
                                        <path id="prefix__Path_102" d="M138.244 429.091a.224.224 0 0 1-.268-.318 3.45 3.45 0 0 1 1.13-1.251 1.542 1.542 0 0 1 1.586.027.224.224 0 0 1-.256.368 1.1 1.1 0 0 0-1.117 0 3.05 3.05 0 0 0-.947 1.068.223.223 0 0 1-.128.106z" class="prefix__cls-5" data-name="Path 102" transform="translate(-137.95 -427.316)"/>
                                    </g>
                                    <g id="prefix__Group_179" data-name="Group 179">
                                        <path id="prefix__Path_103" d="M137.019 428a.224.224 0 0 1-.268-.318 3.45 3.45 0 0 1 1.13-1.252 1.539 1.539 0 0 1 1.586.028.224.224 0 0 1-.256.367 1.1 1.1 0 0 0-1.116 0 3.046 3.046 0 0 0-.948 1.067.221.221 0 0 1-.128.108z" class="prefix__cls-5" data-name="Path 103" transform="translate(-136.725 -426.224)"/>
                                    </g>
                                    <g id="prefix__Group_180" data-name="Group 180" transform="translate(1.605 1.098)">
                                        <path id="prefix__Path_104" d="M139.886 429.957a.224.224 0 0 1-.268-.319 3.453 3.453 0 0 1 1.13-1.251 1.538 1.538 0 0 1 1.586.027.224.224 0 0 1-.256.368 1.1 1.1 0 0 0-1.116 0 3.05 3.05 0 0 0-.948 1.068.224.224 0 0 1-.128.107z" class="prefix__cls-5" data-name="Path 104" transform="translate(-139.592 -428.181)"/>
                                    </g>
                                </g>
                            </g>
                        </g>
                        <path id="prefix__Path_105" d="M118.1 390.962a5.68 5.68 0 0 1-3.441-.154q-.273-.091-.522-.2a3.966 3.966 0 0 1-1.137-.725s-1.592-4.113-.364-16.095a52.4 52.4 0 0 1 1.517-11.664 31.036 31.036 0 0 1-19.875-1.338l7.638-7.381s19.305-2.18 22.321 3.729c2.032 3.978-6.137 33.828-6.137 33.828z" class="prefix__cls-14" data-name="Path 105" transform="translate(-94.279 -353.011)"/>
                        <g id="prefix__Group_184" data-name="Group 184" transform="translate(6.002 6.505)">
                            <path id="prefix__Path_106" d="M121.212 365.984c-.477 2.382-1.575 8.24-1.455 11.181a33.087 33.087 0 0 1-.361 4.8 44.969 44.969 0 0 0-.019 13.935q-.273-.091-.522-.2a45.843 45.843 0 0 1 .066-13.789 32.507 32.507 0 0 0 .357-4.721c-.118-2.883.868-8.314 1.465-11.295a.674.674 0 0 0-.841-.782c-6.214 1.721-14.594 1.278-14.676 1.273a.24.24 0 0 1 .025-.48c.083.005 8.386.443 14.524-1.255a1.151 1.151 0 0 1 1.437 1.338z" class="prefix__cls-15" data-name="Path 106" transform="translate(-104.999 -364.602)"/>
                            <path id="prefix__Path_107" d="M126.739 416.386l-.023 2.3 5.951.648.426-2.257z" class="prefix__cls-15" data-name="Path 107" transform="translate(-114.556 -387.325)"/>
                        </g>
                    </g>
                    <g id="prefix__Group_193" data-name="Group 193" transform="translate(0 57.681)">
                        <g id="prefix__Group_191" data-name="Group 191" transform="translate(0 32.595)">
                            <path id="prefix__Path_108" d="M58.063 411.094L54.214 413a4.4 4.4 0 0 0 1.19 3.06l4.488-1.4z" class="prefix__cls-12" data-name="Path 108" transform="translate(-49.223 -411.094)"/>
                            <g id="prefix__Group_190" data-name="Group 190" transform="translate(0 1.291)">
                                <path id="prefix__Path_109" d="M51.761 416.389s1.264.17 1.52.721-.723 6.446-.214 8-1.286 2.425-1.783 1.976c-.568-.515-5.977-11.086-5.977-11.086s3.5-2.4 4.692-2.592.92 2.016 1.762 2.981z" class="prefix__cls-4" data-name="Path 109" transform="translate(-45.307 -413.394)"/>
                                <g id="prefix__Group_189" data-name="Group 189" transform="translate(5.367 5.238)">
                                    <g id="prefix__Group_186" data-name="Group 186" transform="translate(.008 .892)">
                                        <path id="prefix__Path_110" d="M54.975 424.7a.224.224 0 0 1 .158-.385 3.445 3.445 0 0 1 1.628.43 1.548 1.548 0 0 1 .7 1.425.224.224 0 1 1-.444-.059 1.1 1.1 0 0 0-.512-.994 3.045 3.045 0 0 0-1.382-.353.22.22 0 0 1-.148-.064z" class="prefix__cls-5" data-name="Path 110" transform="translate(-54.907 -424.317)"/>
                                    </g>
                                    <g id="prefix__Group_187" data-name="Group 187" transform="translate(.236)">
                                        <path id="prefix__Path_111" d="M55.38 423.113a.225.225 0 0 1 .159-.385 3.444 3.444 0 0 1 1.628.43 1.547 1.547 0 0 1 .7 1.424.224.224 0 1 1-.443-.059 1.106 1.106 0 0 0-.513-.994 3.031 3.031 0 0 0-1.382-.352.221.221 0 0 1-.149-.064z" class="prefix__cls-5" data-name="Path 111" transform="translate(-55.313 -422.728)"/>
                                    </g>
                                    <g id="prefix__Group_188" data-name="Group 188" transform="translate(0 1.934)">
                                        <path id="prefix__Path_112" d="M54.96 426.559a.224.224 0 0 1 .159-.385 3.445 3.445 0 0 1 1.628.43 1.548 1.548 0 0 1 .7 1.424.224.224 0 1 1-.444-.059 1.105 1.105 0 0 0-.513-.994 3.028 3.028 0 0 0-1.381-.352.221.221 0 0 1-.149-.064z" class="prefix__cls-5" data-name="Path 112" transform="translate(-54.892 -426.174)"/>
                                    </g>
                                </g>
                            </g>
                        </g>
                        <path id="prefix__Path_113" d="M94.613 379.96c-2.593 3.637-32.8 10.091-32.8 10.091a5.672 5.672 0 0 1-1.428-3.021c-.032-.179-.054-.355-.068-.528a4.109 4.109 0 0 1 .109-1.489s1.474-1.8 12.657-6.213c1.485-.587 4.59-3.144 9.436-4.9-4.182-7.393-7.591-14.576-7.8-20.889l2.178.6.5.136 9.471 2.594c3.958 7.494 9.844 20.674 7.745 23.619z" class="prefix__cls-14" data-name="Path 113" transform="translate(-51.905 -353.012)"/>
                        <g id="prefix__Group_192" data-name="Group 192" transform="translate(8.416 .597)">
                            <path id="prefix__Path_114" d="M84.458 374.663a1.158 1.158 0 0 1-.587.7 91.166 91.166 0 0 0-8.837 4.983 49.1 49.1 0 0 1-6.671 3.262 63.992 63.992 0 0 0-7.957 3.889c-.032-.179-.054-.355-.068-.528a68.847 68.847 0 0 1 7.834-3.8 48.959 48.959 0 0 0 6.585-3.213 91.618 91.618 0 0 1 8.9-5.021.691.691 0 0 0 .288-.95c-5.077-9.182-6.581-16.407-7.026-19.909l.5.136c.469 3.516 1.993 10.581 6.947 19.541a1.167 1.167 0 0 1 .092.91z" class="prefix__cls-15" data-name="Path 114" transform="translate(-60.337 -354.075)"/>
                        </g>
                        <path id="prefix__Path_115" d="M60.325 408.546l-2.081.971 1.982 5.661 2.215-.588z" class="prefix__cls-15" data-name="Path 115" transform="translate(-51 -377.381)"/>
                    </g>
                    <g id="prefix__Group_197" data-name="Group 197" transform="translate(22.208 18.293)">
                        <path id="prefix__Path_116" d="M102.173 282.826s-4.838-.081-7.867 1.16-3.332 5.928-4.582 9.375-7.466 25.858-3.382 30.1c3.084 3.2 19.832 5.753 20.452.21a178.58 178.58 0 0 1 3.047-19.336c1.268-5.843 2.976-9.891 3.155-12.437s-6.181-7.735-6.181-7.735z" class="prefix__cls-16" data-name="Path 116" transform="translate(-84.971 -282.825)"/>
                        <g id="prefix__Group_194" data-name="Group 194" transform="translate(15.426 .977)">
                            <path id="prefix__Path_117" d="M116.115 288.858c-2.268-.784-3.527-3.923-3.582-4.061a.169.169 0 1 1 .315-.125c.013.033 1.333 3.32 3.574 3.926a.17.17 0 1 1-.088.328c-.074-.02-.147-.042-.219-.068z" class="prefix__cls-13" data-name="Path 117" transform="translate(-112.521 -284.565)"/>
                        </g>
                        <g id="prefix__Group_195" data-name="Group 195" transform="translate(7.584 23.285)">
                            <path id="prefix__Path_118" d="M98.631 332.789a.17.17 0 0 1 .092-.326c6.09 1.35 12.016-7.972 12.075-8.066a.169.169 0 1 1 .287.18c-.246.393-6.114 9.619-12.434 8.217z" class="prefix__cls-13" data-name="Path 118" transform="translate(-98.517 -324.317)"/>
                        </g>
                        <g id="prefix__Group_196" data-name="Group 196" transform="translate(10.975 25.519)">
                            <path id="prefix__Path_119" d="M104.687 332.268a.17.17 0 0 1 .018-.326 8 8 0 0 0 5.233-3.552.169.169 0 0 1 .3.158 8.185 8.185 0 0 1-5.459 3.725.163.163 0 0 1-.092-.005z" class="prefix__cls-13" data-name="Path 119" transform="translate(-104.573 -328.299)"/>
                        </g>
                    </g>
                    <g id="prefix__Group_213" data-name="Group 213" transform="translate(35.751)">
                        <path id="prefix__Path_120" d="M124.338 261.148a6.789 6.789 0 1 1-5.106-8.148 6.788 6.788 0 0 1 5.106 8.148z" class="prefix__cls-4" data-name="Path 120" transform="translate(-109.938 -251.369)"/>
                        <path id="prefix__Path_121" d="M112.529 255.1s-.317-2.381 1.562-3.344 3.013-.29 4.633-1.108 8.206-.653 8.35 2.465a2.845 2.845 0 0 1-2.695 3.221z" class="prefix__cls-4" data-name="Path 121" transform="translate(-110.632 -250.229)"/>
                        <g id="prefix__Group_202" data-name="Group 202" transform="translate(11.663 10.913)">
                            <path id="prefix__Path_122" d="M131.19 270.143s1.367-1.161 1.883.176-1.367 4.505-3.085 3.234z" class="prefix__cls-17" data-name="Path 122" transform="translate(-129.988 -269.675)"/>
                            <g id="prefix__Group_198" data-name="Group 198" transform="translate(.529 1.334)">
                                <path id="prefix__Path_123" d="M131.062 273.634a.165.165 0 0 0 .182-.083 2.557 2.557 0 0 1 1.738-1.168.166.166 0 0 0-.045-.329 2.85 2.85 0 0 0-1.983 1.339.166.166 0 0 0 .066.225.179.179 0 0 0 .042.016z" class="prefix__cls-17" data-name="Path 123" transform="translate(-130.933 -272.052)"/>
                            </g>
                            <g id="prefix__Group_201" data-name="Group 201" transform="translate(1.314 1.756)">
                                <g id="prefix__Group_200" data-name="Group 200">
                                    <g id="prefix__Group_199" data-name="Group 199">
                                        <path id="prefix__Path_124" d="M132.9 273.684a.165.165 0 0 0 .192-.218 1.509 1.509 0 0 0-.494-.628.166.166 0 1 0-.2.265 1.189 1.189 0 0 1 .381.476.165.165 0 0 0 .121.105z" class="prefix__cls-17" data-name="Path 124" transform="translate(-132.336 -272.805)"/>
                                    </g>
                                </g>
                            </g>
                        </g>
                        <path id="prefix__Path_125" d="M115.339 278.817l-.776 3.4a5.593 5.593 0 0 0 2.4 2.25c1.34.433 2.544-1.005 2.544-1.005l.746-3.272z" class="prefix__cls-12" data-name="Path 125" transform="translate(-111.536 -262.773)"/>
                        <path id="prefix__Path_126" d="M115.678 278.817l-.344 1.509c.686 1.232 2.259 1.861 4.755 2.057l.5-2.19z" class="prefix__cls-17" data-name="Path 126" transform="translate(-111.876 -262.773)"/>
                        <path id="prefix__Path_127" d="M124.908 261.97a26.57 26.57 0 0 1-1 3.561c-.121.339-.255.68-.4 1.017-1.027 2.4-2.614 4.636-5 4.921-4.9.584-6.026-3.229-6.3-5.936-.029-.28-.048-.549-.061-.8-.016-.3-.016-.622 0-.967a34.049 34.049 0 0 1 .541-4.4 3.623 3.623 0 0 1 3.054-2.955 9.655 9.655 0 0 1 8.059 2.12 3.652 3.652 0 0 1 1.107 3.439z" class="prefix__cls-12" data-name="Path 127" transform="translate(-110.468 -252.884)"/>
                        <path id="prefix__Path_134" d="M123.306 265.381a6.967 6.967 0 0 0 .6-1.932c.021-.817-.52-1.423-.133-2.126a1.628 1.628 0 0 0-.777-1.965c-.553-.269-1.984-.291-3.183-1.238-1.143-.905-3.473-.978-4.025-.237-.667.9-.091 1.13-1.537 1.935-.576.322-.264 1.57-.349 2.315a4.989 4.989 0 0 1-.167.864l-.046.181-1.436-.329c.1-1.164.292-2.429.48-3.481a3.628 3.628 0 0 1 3.054-2.955 9.66 9.66 0 0 1 8.061 2.121 3.647 3.647 0 0 1 1.108 3.434 26.5 26.5 0 0 1-.995 3.562z" class="prefix__cls-4" data-name="Path 134" transform="translate(-110.522 -252.884)"/>
                        <g id="prefix__Group_212" data-name="Group 212" transform="translate(0 8.003)">
                            <path id="prefix__Path_135" d="M111.388 267.22a6.168 6.168 0 0 0 .168-1.144 1.387 1.387 0 0 0-.485-1.351.9.9 0 0 0-1.245.028c-1.044.98-1 4.783 1.1 4.385z" class="prefix__cls-17" data-name="Path 135" transform="translate(-109.157 -264.489)"/>
                            <g id="prefix__Group_208" data-name="Group 208" transform="translate(.81 1.073)">
                                <g id="prefix__Group_207" data-name="Group 207">
                                    <g id="prefix__Group_206" data-name="Group 206">
                                        <path id="prefix__Path_136" d="M111.434 268.843a.167.167 0 0 1-.1-.176 2.564 2.564 0 0 0-.685-1.982.166.166 0 0 1 .234-.235 2.862 2.862 0 0 1 .779 2.265.166.166 0 0 1-.188.14.16.16 0 0 1-.04-.012z" class="prefix__cls-17" data-name="Path 136" transform="translate(-110.604 -266.402)"/>
                                    </g>
                                </g>
                            </g>
                            <g id="prefix__Group_211" data-name="Group 211" transform="translate(.733 2.059)">
                                <g id="prefix__Group_210" data-name="Group 210">
                                    <g id="prefix__Group_209" data-name="Group 209">
                                        <path id="prefix__Path_137" d="M110.565 268.652a.163.163 0 0 1-.071-.061.166.166 0 0 1 .048-.23 1.515 1.515 0 0 1 .772-.2.166.166 0 0 1 0 .331 1.192 1.192 0 0 0-.59.15.166.166 0 0 1-.159.01z" class="prefix__cls-17" data-name="Path 137" transform="translate(-110.467 -268.159)"/>
                                    </g>
                                </g>
                            </g>
                        </g>
                    </g>
                    <g id="prefix__Group_216" data-name="Group 216" transform="translate(28.317 20.033)">
                        <g id="prefix__Group_215" data-name="Group 215">
                            <g id="prefix__Group_214" data-name="Group 214">
                                <path id="prefix__Path_138" d="M98.14 285.926c2.842 3.354 13.19 15.07 15.44 16.282 2.929 1.577 12.1 3.974 16.719 5.262.834.232-.513 4.457-.513 4.457s-13.182-1.746-18.177-4.148A48.969 48.969 0 0 1 100.584 299a23.071 23.071 0 0 1-4.263-6.457 5.385 5.385 0 0 1 1.819-6.617z" class="prefix__cls-13" data-name="Path 138" transform="translate(-95.881 -285.926)"/>
                            </g>
                        </g>
                    </g>
                </g>
            </g>
            <g id="prefix__Group_276" data-name="Group 276" transform="translate(161.381 61.583)">
                <g id="prefix__Group_275" data-name="Group 275">
                    <g id="prefix__Group_226" data-name="Group 226" transform="translate(21.085 66.525)">
                        <path id="prefix__Path_140" d="M369.489 422.732v3.431l3.131-.05.2-3.636z" class="prefix__cls-12" data-name="Path 140" transform="translate(-360.464 -365.269)"/>
                        <g id="prefix__Group_224" data-name="Group 224" transform="translate(0 59.592)">
                            <g id="prefix__Group_223" data-name="Group 223">
                                <path id="prefix__Path_141" d="M362.941 427.708s-.786-1.033-1.4-.981-5.312 3.883-6.932 4.214-1.292 1.526-.987 2.135 12.865-.161 12.865-.161.394-4-.033-5.149-2.24.202-3.513-.058z" class="prefix__cls-4" data-name="Path 141" transform="translate(-353.371 -426.726)"/>
                                <g id="prefix__Group_222" data-name="Group 222" transform="translate(3.428 1.263)">
                                    <g id="prefix__Group_219" data-name="Group 219" transform="translate(.913 .65)">
                                        <path id="prefix__Path_142" d="M363.763 431.871a.225.225 0 0 0 .177-.022.229.229 0 0 0 .082-.312 3.515 3.515 0 0 0-1.2-1.224 1.565 1.565 0 0 0-1.609.094.228.228 0 0 0 .275.363 1.118 1.118 0 0 1 1.134-.047 3.106 3.106 0 0 1 1.006 1.044.225.225 0 0 0 .135.104z" class="prefix__cls-5" data-name="Path 142" transform="translate(-361.125 -430.135)"/>
                                    </g>
                                    <g id="prefix__Group_220" data-name="Group 220" transform="translate(1.584)">
                                        <path id="prefix__Path_143" d="M364.961 430.713a.226.226 0 0 0 .177-.022.229.229 0 0 0 .082-.312 3.5 3.5 0 0 0-1.2-1.224 1.565 1.565 0 0 0-1.609.094.228.228 0 0 0 .276.363 1.117 1.117 0 0 1 1.133-.047 3.08 3.08 0 0 1 1.006 1.044.225.225 0 0 0 .135.104z" class="prefix__cls-5" data-name="Path 143" transform="translate(-362.323 -428.977)"/>
                                    </g>
                                    <g id="prefix__Group_221" data-name="Group 221" transform="translate(0 1.182)">
                                        <path id="prefix__Path_144" d="M362.132 432.819a.226.226 0 0 0 .177-.022.228.228 0 0 0 .082-.312 3.516 3.516 0 0 0-1.2-1.224 1.566 1.566 0 0 0-1.609.094.228.228 0 0 0 .275.363 1.119 1.119 0 0 1 1.133-.047 3.09 3.09 0 0 1 1.01 1.043.228.228 0 0 0 .132.105z" class="prefix__cls-5" data-name="Path 144" transform="translate(-359.494 -431.082)"/>
                                    </g>
                                </g>
                            </g>
                        </g>
                        <path id="prefix__Path_145" d="M374.748 320.538l-.269 4.441-.055.9-.034.538c-.633 10.312-1.528 24.292-1.989 28.766-.937 9.092-.986 22.871-.986 22.871h-4.991c-.471-9.785-1.287-37.217-1.7-51.515-.013-.451-.025-.891-.039-1.316-.053-1.857-.1-3.445-.133-4.683z" class="prefix__cls-14" data-name="Path 145" transform="translate(-358.293 -320.537)"/>
                        <path id="prefix__Path_146" d="M374.748 320.538l-.269 4.441-.109.011a61.121 61.121 0 0 1-9.681.231c-.053-1.857-.1-3.445-.133-4.683z" class="prefix__cls-15" data-name="Path 146" transform="translate(-358.293 -320.537)"/>
                        <g id="prefix__Group_225" data-name="Group 225" transform="translate(7.581)">
                            <path id="prefix__Path_147" d="M376.542 320.537c-.462 9.342-1.19 23.076-1.743 28.795-.572 5.908-1.124 22.2-1.33 28.72h.651c.205-6.524.758-22.772 1.326-28.658.555-5.737 1.286-19.509 1.748-28.857z" class="prefix__cls-15" data-name="Path 147" transform="translate(-369.796 -320.537)"/>
                            <path id="prefix__Path_148" d="M366.91 419.806l.225 2.29h5.986l.18-2.29z" class="prefix__cls-15" data-name="Path 148" transform="translate(-366.91 -364.097)"/>
                        </g>
                    </g>
                    <g id="prefix__Group_234" data-name="Group 234" transform="translate(36.892 66.525)">
                        <path id="prefix__Path_149" d="M388.761 422.261l.128 3.428 3.127-.167.069-3.641z" class="prefix__cls-12" data-name="Path 149" transform="translate(-384.753 -365.008)"/>
                        <g id="prefix__Group_232" data-name="Group 232" transform="translate(3.592 59.416)">
                            <g id="prefix__Group_231" data-name="Group 231">
                                <path id="prefix__Path_150" d="M389.97 426.753a15 15 0 0 1 2.124-.338c.455.03 3.356 3.588 4.375 3.836 1.848.449 1.721 3.367.58 3.461-3.3.273-8.852-1.368-8.852-1.368a26.726 26.726 0 0 1-.074-4.932c.277-1.165.915-.355 1.847-.659z" class="prefix__cls-4" data-name="Path 150" transform="translate(-388.017 -426.413)"/>
                                <g id="prefix__Group_230" data-name="Group 230" transform="translate(3.664 1.383)">
                                    <g id="prefix__Group_227" data-name="Group 227" transform="translate(.598 .718)">
                                        <path id="prefix__Path_151" d="M395.9 431.714a.228.228 0 0 1-.222-.36 3.506 3.506 0 0 1 1.322-1.089 1.565 1.565 0 0 1 1.59.265.228.228 0 0 1-.313.331 1.118 1.118 0 0 0-1.122-.168 3.1 3.1 0 0 0-1.111.931.228.228 0 0 1-.144.09z" class="prefix__cls-5" data-name="Path 151" transform="translate(-395.629 -430.158)"/>
                                    </g>
                                    <g id="prefix__Group_228" data-name="Group 228">
                                        <path id="prefix__Path_152" d="M394.828 430.434a.228.228 0 0 1-.222-.36 3.5 3.5 0 0 1 1.321-1.089 1.565 1.565 0 0 1 1.59.265.228.228 0 0 1-.312.332 1.117 1.117 0 0 0-1.122-.168 3.084 3.084 0 0 0-1.111.931.228.228 0 0 1-.144.089z" class="prefix__cls-5" data-name="Path 152" transform="translate(-394.561 -428.878)"/>
                                    </g>
                                    <g id="prefix__Group_229" data-name="Group 229" transform="translate(1.449 1.344)">
                                        <path id="prefix__Path_153" d="M397.416 432.829a.228.228 0 0 1-.222-.36 3.512 3.512 0 0 1 1.322-1.089 1.567 1.567 0 0 1 1.59.265.228.228 0 1 1-.312.332 1.117 1.117 0 0 0-1.122-.168 3.084 3.084 0 0 0-1.111.931.229.229 0 0 1-.145.089z" class="prefix__cls-5" data-name="Path 153" transform="translate(-397.15 -431.273)"/>
                                    </g>
                                </g>
                            </g>
                        </g>
                        <path id="prefix__Path_154" d="M391.793 320.538c-.022.746-.046 1.62-.073 2.6 0 .075 0 .15-.007.226-.37 12.959-1.279 44.115-1.789 54.683h-4.991s-.048-13.779-.985-22.871c-.461-4.477-1.357-18.464-1.99-28.777l-.033-.528-.054-.886c-.1-1.616-.19-3.119-.27-4.452z" class="prefix__cls-14" data-name="Path 154" transform="translate(-381.602 -320.537)"/>
                        <path id="prefix__Path_155" d="M391.793 320.538c-.022.746-.046 1.62-.073 2.6a59.859 59.859 0 0 1-9.429 1.8c-.027 0-.057.007-.085.01l-.226.024-.109.011c-.1-1.616-.19-3.119-.27-4.452z" class="prefix__cls-15" data-name="Path 155" transform="translate(-381.602 -320.537)"/>
                        <g id="prefix__Group_233" data-name="Group 233" transform="translate(1.477)">
                            <path id="prefix__Path_156" d="M384.89 320.537h-.651c.462 9.348 1.193 23.12 1.747 28.857.568 5.885 1.12 22.133 1.326 28.658h.651c-.205-6.515-.758-22.812-1.33-28.72-.552-5.719-1.28-19.453-1.743-28.795z" class="prefix__cls-15" data-name="Path 156" transform="translate(-384.239 -320.537)"/>
                            <path id="prefix__Path_157" d="M392.427 419.806l-.225 2.29h-5.986l-.18-2.29z" class="prefix__cls-15" data-name="Path 157" transform="translate(-385.03 -364.097)"/>
                        </g>
                    </g>
                    <path id="prefix__Path_158" d="M357.1 262.824c-3.1 4.556-11.469 8.531-11.469 8.531a23.306 23.306 0 0 1-6.966-2.651 21.113 21.113 0 0 0 1.141-4.594c2.86.8 5.329 1.223 5.329 1.223 6.036-2.8 13.122-16.946 13.122-16.946 1.952 4.032-1.157 14.437-1.157 14.437z" class="prefix__cls-13" data-name="Path 158" transform="translate(-325.813 -222.353)"/>
                    <g id="prefix__Group_265" data-name="Group 265" transform="translate(26.756)">
                        <g id="prefix__Group_241" data-name="Group 241" transform="translate(0 24.118)">
                            <g id="prefix__Group_240" data-name="Group 240">
                                <path id="prefix__Path_159" d="M364.144 288.41c6.123 4.524 20.29.238 20.29.238 1.595-1.953-.619-6.418-1.269-11.645-.548-4.4.083-10.37.893-14.785.151-.826.308-1.6.466-2.3a74 74 0 0 0 1.1-11.8c-.769-.4-2.008-.927-3.264-1.438-.781-.318-1.57-.629-2.257-.9-1.221-.476-2.13-.813-2.13-.813l-5.052.776-1 .305-1.643.5-1.093.334s-.776 5-1.515 8.035a12.247 12.247 0 0 1-.585 1.911c-.843 1.835-.634 2.723.252 5.151a7.9 7.9 0 0 1 .42 1.85c.02.166.034.334.044.506a34.3 34.3 0 0 1-.937 8.042c-.777 4.02-2.67 11.775-3.32 14.411a1.549 1.549 0 0 0 .6 1.622z" class="prefix__cls-16" data-name="Path 159" transform="translate(-363.499 -244.971)"/>
                                <g id="prefix__Group_239" data-name="Group 239" transform="translate(4.258 7.66)">
                                    <g id="prefix__Group_235" data-name="Group 235" transform="translate(0 11.203)">
                                        <path id="prefix__Path_160" d="M371.1 278.585c.02.165.034.334.044.506 2.514 2.133 6.848 5.044 11.792 5.044a.178.178 0 0 0 0-.355c-5.02 0-9.412-3.08-11.836-5.195z" class="prefix__cls-13" data-name="Path 160" transform="translate(-371.103 -278.585)"/>
                                    </g>
                                    <g id="prefix__Group_236" data-name="Group 236" transform="translate(4.679)">
                                        <path id="prefix__Path_161" d="M379.866 261.708c2.512 0 4.829-2.676 4.929-2.793a.177.177 0 1 0-.269-.231c-.024.028-2.451 2.831-4.876 2.662a.177.177 0 0 0-.025.354c.081 0 .161.008.241.008z" class="prefix__cls-13" data-name="Path 161" transform="translate(-379.46 -258.622)"/>
                                    </g>
                                    <g id="prefix__Group_237" data-name="Group 237" transform="translate(1.424 15.942)">
                                        <path id="prefix__Path_162" d="M383.178 299.638a.178.178 0 0 0 .02-.354c-6.488-.749-9.175-12-9.2-12.118a.177.177 0 1 0-.345.081c.11.474 2.773 11.613 9.506 12.39z" class="prefix__cls-13" data-name="Path 162" transform="translate(-373.647 -287.029)"/>
                                    </g>
                                    <g id="prefix__Group_238" data-name="Group 238" transform="translate(4.144 19.358)">
                                        <path id="prefix__Path_163" d="M382.733 298.9a.178.178 0 0 0 .093-.329 8.4 8.4 0 0 1-3.969-5.307.176.176 0 0 0-.2-.149.178.178 0 0 0-.149.2 8.591 8.591 0 0 0 4.133 5.556.176.176 0 0 0 .092.029z" class="prefix__cls-13" data-name="Path 163" transform="translate(-378.505 -293.116)"/>
                                    </g>
                                </g>
                            </g>
                        </g>
                        <g id="prefix__Group_264" data-name="Group 264" transform="translate(4.733)">
                            <path id="prefix__Path_164" d="M377.106 226.877h6.587a4.708 4.708 0 0 0 4.678-5.193c0-.036-.007-.074-.011-.112-.189-1.962-.473-4.672-.473-4.672-.683-5.873-6.679-6.559-6.679-6.559-7.227-.97-9.281 5.13-9.254 8.471 0 .228.012.459.031.69v.018a25.557 25.557 0 0 0 .65 3.708 4.57 4.57 0 0 0 4.471 3.649z" class="prefix__cls-4" data-name="Path 164" transform="translate(-371.953 -205.611)"/>
                            <g id="prefix__Group_252" data-name="Group 252" transform="translate(.248 7.261)">
                                <g id="prefix__Group_247" data-name="Group 247" transform="translate(0 6.386)">
                                    <path id="prefix__Path_165" d="M374.523 226.992s-1.072-1.361-1.869-.236.33 4.45 2.281 3.638z" class="prefix__cls-17" data-name="Path 165" transform="translate(-372.396 -226.311)"/>
                                    <path id="prefix__Path_166" d="M374.811 232.9a.357.357 0 1 1-.357-.357.357.357 0 0 1 .357.357z" class="prefix__cls-5" data-name="Path 166" transform="translate(-373.145 -229.044)"/>
                                    <g id="prefix__Group_244" data-name="Group 244" transform="translate(.418 1.191)">
                                        <g id="prefix__Group_243" data-name="Group 243">
                                            <g id="prefix__Group_242" data-name="Group 242">
                                                <path id="prefix__Path_167" d="M374.838 230.3a.164.164 0 0 1-.158-.115 2.5 2.5 0 0 0-1.43-1.446.155.155 0 0 1-.1-.2.168.168 0 0 1 .212-.091A2.782 2.782 0 0 1 375 230.1a.156.156 0 0 1-.114.194.172.172 0 0 1-.048.006z" class="prefix__cls-18" data-name="Path 167" transform="translate(-373.143 -228.434)"/>
                                            </g>
                                        </g>
                                    </g>
                                    <g id="prefix__Group_246" data-name="Group 246" transform="translate(.822 1.808)">
                                        <g id="prefix__Group_245" data-name="Group 245">
                                            <path id="prefix__Path_168" d="M374.028 230.265a.174.174 0 0 1-.09-.025.153.153 0 0 1-.049-.217 1.488 1.488 0 0 1 .619-.475.168.168 0 0 1 .218.08.154.154 0 0 1-.083.207 1.178 1.178 0 0 0-.476.359.169.169 0 0 1-.139.071z" class="prefix__cls-18" data-name="Path 168" transform="translate(-373.863 -229.534)"/>
                                        </g>
                                    </g>
                                </g>
                                <path id="prefix__Path_169" d="M386.748 239.916v3.667s-1.891 1.874-3.367 2-1.983-1.615-1.983-1.615v-3.8z" class="prefix__cls-12" data-name="Path 169" transform="translate(-376.357 -225.895)"/>
                                <path id="prefix__Path_170" d="M386.748 240.628v1.627c-.99 1.1-2.747 1.491-5.349 1.106v-2.475z" class="prefix__cls-17" data-name="Path 170" transform="translate(-376.357 -226.208)"/>
                                <path id="prefix__Path_171" d="M374.909 224c.047.394.1.795.173 1.194.467 2.652 2.141 5.517 4.254 6 4.563 1.038 6.458-2.554 7.188-5.2.081-.295-.07-.632-.007-.98a26.7 26.7 0 0 0 .559-2.689c.052-.641.089-1.273.116-1.845a3.747 3.747 0 0 0-2.313-3.671 9.335 9.335 0 0 0-8.3.276 3.78 3.78 0 0 0-1.839 3.2 28.317 28.317 0 0 0 .169 3.715z" class="prefix__cls-12" data-name="Path 171" transform="translate(-373.425 -215.379)"/>
                                <path id="prefix__Path_173" d="M387.521 219.536c-.029.583-.068 1.228-.123 1.881-.3.176-1.019.257-1.05.733-.081 1.262-.141 2.125-.4 2.05-.443-.128-.718-1.656-.212-2.644a4.244 4.244 0 0 0-2.069-1.307 32.083 32.083 0 0 1-4.184-2.042 3.842 3.842 0 0 1-1.119-1.021 3.787 3.787 0 0 1-1.847 1.9 2.837 2.837 0 0 0-1.459 2.553c-.016.113-.031.224-.048.333a3.315 3.315 0 0 1-.312 1.118c-.039.07-.08.082-.122.047-.054-.445-.092-.884-.122-1.308l-.021-.338c-.042-.8-.047-1.534-.035-2.155a3.83 3.83 0 0 1 1.938-3.257 10.141 10.141 0 0 1 8.75-.281 3.816 3.816 0 0 1 2.435 3.738z" class="prefix__cls-4" data-name="Path 173" transform="translate(-373.273 -214.932)"/>
                            </g>
                            <g id="prefix__Group_257" data-name="Group 257" transform="translate(13.244 13.498)">
                                <path id="prefix__Path_180" d="M395.729 226.865s1.246-1.516 1.982-.423-.3 4.321-2.1 3.533z" class="prefix__cls-17" data-name="Path 180" transform="translate(-395.606 -226.046)"/>
                                <path id="prefix__Path_181" d="M397.067 232.9a.357.357 0 1 1-.357-.357.357.357 0 0 1 .357.357z" class="prefix__cls-5" data-name="Path 181" transform="translate(-395.935 -228.896)"/>
                                <g id="prefix__Group_253" data-name="Group 253" transform="translate(.241 1.12)">
                                    <path id="prefix__Path_182" d="M396.188 229.854a.153.153 0 0 0 .147-.112 2.355 2.355 0 0 1 1.319-1.4.152.152 0 0 0-.107-.285 2.622 2.622 0 0 0-1.505 1.607.153.153 0 0 0 .106.189.171.171 0 0 0 .04.001z" class="prefix__cls-18" data-name="Path 182" transform="translate(-396.036 -228.042)"/>
                                </g>
                                <g id="prefix__Group_256" data-name="Group 256" transform="translate(.775 1.719)">
                                    <g id="prefix__Group_255" data-name="Group 255">
                                        <g id="prefix__Group_254" data-name="Group 254">
                                            <path id="prefix__Path_183" d="M397.648 229.82a.151.151 0 0 0 .082-.024.153.153 0 0 0 .046-.211 1.4 1.4 0 0 0-.571-.461.152.152 0 0 0-.124.278 1.109 1.109 0 0 1 .44.348.152.152 0 0 0 .127.07z" class="prefix__cls-18" data-name="Path 183" transform="translate(-396.991 -229.11)"/>
                                        </g>
                                    </g>
                                </g>
                            </g>
                            <ellipse id="prefix__Ellipse_6" cx="5.271" cy="5.26" class="prefix__cls-4" data-name="Ellipse 6" rx="5.271" ry="5.26" transform="rotate(-80.755 8.621 2.265)"/>
                        </g>
                    </g>
                    <g id="prefix__Group_267" data-name="Group 267" transform="translate(0 19.249)">
                        <path id="prefix__Path_2109" d="M16.975-.019A16.975 16.975 0 1 1-.019 16.975 16.929 16.929 0 0 1 16.975-.019z" class="prefix__cls-3" data-name="Path 2109" transform="rotate(-45 29.012 12.017)"/>
                        <g id="prefix__Group_266" data-name="Group 266" transform="translate(15.882 17.627)">
                            <path id="prefix__Path_189" d="M360.473 272.417A5.064 5.064 0 0 1 359 276l-6.721 6.737-6.726-6.737a5.095 5.095 0 0 1 0-7.171c1.836-1.841 4.633-1.508 6.723 1.6 2.089-3.11 4.887-3.443 6.723-1.6a5.062 5.062 0 0 1 1.474 3.588z" class="prefix__cls-5" data-name="Path 189" transform="translate(-344.077 -267.705)"/>
                        </g>
                    </g>
                    <g id="prefix__Group_274" data-name="Group 274" transform="translate(20.684 27.267)">
                        <path id="prefix__Path_190" d="M360.047 301.08l-.688.349a1.68 1.68 0 0 1-1.819-.226 10.215 10.215 0 0 0-.826-.638 4.253 4.253 0 0 0-2.12-.4c-.34.145.03.727.4.878a6.175 6.175 0 0 1 1.294.587c.388.281-1.029 1.965-1.671 2.515s-2.128.808-1.946 1.48 1.192.273 1.192.273-.006.692 1.024.741a.83.83 0 0 0 .791.634.927.927 0 0 0 .976.585c.691-.126 2.843-.531 5.395-4.635z" class="prefix__cls-12" data-name="Path 190" transform="translate(-352.655 -272.322)"/>
                        <g id="prefix__Group_273" data-name="Group 273" transform="translate(7.392)">
                            <g id="prefix__Group_272" data-name="Group 272">
                                <g id="prefix__Group_271" data-name="Group 271">
                                    <g id="prefix__Group_270" data-name="Group 270">
                                        <g id="prefix__Group_269" data-name="Group 269">
                                            <g id="prefix__Group_268" data-name="Group 268">
                                                <path id="prefix__Path_191" d="M381.38 263.377a24.37 24.37 0 0 1-3.053 8.636s-2.481 1.478-6.275 4a51.333 51.333 0 0 1-6.195 3.325c.692.9 1.4 2.9 1.13 3.43 7.636-1.717 15.252-6.893 15.252-6.893 5.967-6.936 5.852-22.415 5.852-22.415s-.194-2.3-1.433-2.879a6.081 6.081 0 0 0-3.368 3.872c-.869 2.939-1.91 8.924-1.91 8.924z" class="prefix__cls-13" data-name="Path 191" transform="translate(-365.857 -250.581)"/>
                                            </g>
                                        </g>
                                    </g>
                                </g>
                            </g>
                        </g>
                    </g>
                    <path id="prefix__Path_192" d="M327.261 273.764s1.96.148 2.6.817-2.039.888-2.039.888 3.232-.241 3.437.522-2.928 1.086-2.928 1.086 2.215.171 2.43.74-2.065.9-2.065.9 1.742.314 1.952.727-1.678.92-2.695.827-.61-1.406-.61-1.406-.51-1.1-.175-1.565c0 0-.608-.966-.406-1.59-.003 0-.749-1.61.499-1.946z" class="prefix__cls-12" data-name="Path 192" transform="translate(-320.477 -233.487)"/>
                </g>
            </g>
            <g id="prefix__Group_282" data-name="Group 282" transform="translate(138.683 156.253)">
                <g id="prefix__Group_281" data-name="Group 281">
                    <g id="prefix__Group_277" data-name="Group 277">
                        <ellipse id="prefix__Ellipse_407" cx="18.948" cy="18.991" data-name="Ellipse 407" rx="18.948" ry="18.991" transform="rotate(-4.44 38.096 1.429)" style="opacity:.5;fill:#fff"/>
                        <ellipse id="prefix__Ellipse_8" cx="16.953" cy="16.991" data-name="Ellipse 8" rx="16.953" ry="16.991" transform="rotate(-4.44 61.983 -24.538)" style="fill:#c3c6dd"/>
                    </g>
                    <g id="prefix__Group_280" data-name="Group 280" transform="translate(10.64 11.948)">
                        <g id="prefix__Group_279" data-name="Group 279">
                            <g id="prefix__Group_278" data-name="Group 278">
                                <path id="prefix__Path_194" d="M301.59 410.687c-.007-.089-.015-.15-.017-.211q-.087-3.153-.168-6.306a.228.228 0 0 0-.2-.254q-3.428-1.057-6.853-2.126a.406.406 0 0 1-.176-.1c.132-.047.264-.092.395-.14q3.266-1.194 6.533-2.384a.2.2 0 0 0 .153-.234q-.1-3.393-.188-6.786v-.171c.057.063.1.1.133.148q2.232 2.71 4.46 5.423a.246.246 0 0 0 .328.089l6.091-2.2a.927.927 0 0 1 .267-.064c-.032.047-.064.094-.1.14q-2.012 2.734-4.027 5.465a.214.214 0 0 0 .005.318q2.171 2.726 4.333 5.46c.034.044.064.091.121.171l-.3-.078q-3.252-.928-6.5-1.86a.2.2 0 0 0-.264.091q-1.943 2.711-3.891 5.417c-.037.063-.078.115-.135.192z" class="prefix__cls-5" data-name="Path 194" transform="translate(-294.178 -391.979)"/>
                            </g>
                        </g>
                    </g>
                </g>
            </g>
        </g>
    </g>
</svg>
