<svg xmlns="http://www.w3.org/2000/svg" width="250.648" height="142.816" viewBox="0 0 250.648 142.816">
  <g id="OBJECTS" transform="translate(-5.574 -129.087)">
    <g id="Group_177" data-name="Group 177" transform="translate(197.643 128.858)">
      <g id="Group_176" data-name="Group 176">
        <path id="Path_102" data-name="Path 102" d="M338.922,243.083a44.89,44.89,0,0,1-6.151,10.8c-2.61,1.052-9.537,3.134-11.862,2.532a19.268,19.268,0,0,0,0-4.726c3.222.069,9.21-3.153,9.21-3.153a123.273,123.273,0,0,0,7.073-19.608C339.684,234.965,338.922,243.083,338.922,243.083Z" transform="translate(-312.49 -200.428)" fill="#e22445"/>
        <g id="Group_90" data-name="Group 90" transform="translate(19.556 125.785)">
          <path id="Path_103" data-name="Path 103" d="M362.713,413.855l-.5,4.482a5.766,5.766,0,0,1-3.774.381l.487-5.24Z" transform="translate(-349.792 -413.477)" fill="#dde4fd"/>
          <g id="Group_89" data-name="Group 89" transform="translate(0 3.691)">
            <path id="Path_104" data-name="Path 104" d="M351.774,421.518s-.735-1.063-1.349-1.04-5.47,3.616-7.1,3.87-1.357,1.456-1.081,2.076,12.922.218,12.922.218.477-3.743.1-4.906S353.03,421.834,351.774,421.518Z" transform="translate(-342.036 -420.478)" fill="#646784"/>
            <g id="Group_88" data-name="Group 88" transform="translate(3.532 1.152)">
              <g id="Group_84" data-name="Group 84" transform="translate(0.934 0.616)">
                <path id="Path_105" data-name="Path 105" d="M353.078,425.635a.227.227,0,0,0,.274-.32,3.5,3.5,0,0,0-1.138-1.271,1.564,1.564,0,0,0-1.607.019.227.227,0,1,0,.258.373,1.117,1.117,0,0,1,1.131.005,3.087,3.087,0,0,1,.954,1.084A.23.23,0,0,0,353.078,425.635Z" transform="translate(-350.508 -423.832)" fill="#fff9ff" opacity="0.2"/>
              </g>
              <g id="Group_85" data-name="Group 85" transform="translate(1.632)">
                <path id="Path_106" data-name="Path 106" d="M354.4,424.468a.227.227,0,0,0,.274-.32,3.494,3.494,0,0,0-1.138-1.271,1.563,1.563,0,0,0-1.607.02.227.227,0,0,0,.258.373,1.116,1.116,0,0,1,1.131.005,3.076,3.076,0,0,1,.954,1.084A.228.228,0,0,0,354.4,424.468Z" transform="translate(-351.833 -422.664)" fill="#fff9ff" opacity="0.2"/>
              </g>
              <g id="Group_87" data-name="Group 87" transform="translate(0 1.102)">
                <g id="Group_86" data-name="Group 86">
                  <path id="Path_107" data-name="Path 107" d="M351.306,426.557a.224.224,0,0,0,.178-.014.226.226,0,0,0,.1-.306,3.486,3.486,0,0,0-1.138-1.271,1.564,1.564,0,0,0-1.607.019.227.227,0,1,0,.258.373,1.116,1.116,0,0,1,1.131.006,3.072,3.072,0,0,1,.954,1.084A.223.223,0,0,0,351.306,426.557Z" transform="translate(-348.736 -424.754)" fill="#fff9ff" opacity="0.2"/>
                </g>
              </g>
            </g>
          </g>
        </g>
        <g id="Group_96" data-name="Group 96" transform="translate(48.388 120.271)">
          <path id="Path_108" data-name="Path 108" d="M400.172,403.017l2.9,3.451a5.767,5.767,0,0,1-2.324,3l-3.464-3.964Z" transform="translate(-396.994 -403.017)" fill="#dde4fd"/>
          <g id="Group_95" data-name="Group 95" transform="translate(0 2.84)">
            <path id="Path_109" data-name="Path 109" d="M400.871,410.87s-1.277-.2-1.683.261-1.147,6.456-2.085,7.812.121,1.987.76,2.214,9.06-9.215,9.06-9.215-2.385-2.924-3.484-3.456S401.966,410.177,400.871,410.87Z" transform="translate(-396.731 -408.405)" fill="#646784"/>
            <g id="Group_94" data-name="Group 94" transform="translate(0.977 4.677)">
              <g id="Group_91" data-name="Group 91" transform="translate(0.291 0.93)">
                <path id="Path_110" data-name="Path 110" d="M401.981,419.6a.227.227,0,0,0-.044-.419,3.489,3.489,0,0,0-1.705-.051,1.564,1.564,0,0,0-1.093,1.178.227.227,0,1,0,.448.071,1.116,1.116,0,0,1,.783-.817,3.092,3.092,0,0,1,1.443.055A.226.226,0,0,0,401.981,419.6Z" transform="translate(-399.136 -419.041)" fill="#fff9ff" opacity="0.2"/>
              </g>
              <g id="Group_92" data-name="Group 92" transform="translate(0.326)">
                <path id="Path_111" data-name="Path 111" d="M402.047,417.839a.227.227,0,0,0-.044-.419,3.5,3.5,0,0,0-1.706-.051,1.563,1.563,0,0,0-1.093,1.178.227.227,0,1,0,.448.07,1.118,1.118,0,0,1,.783-.816,3.08,3.08,0,0,1,1.443.055A.226.226,0,0,0,402.047,417.839Z" transform="translate(-399.202 -417.277)" fill="#fff9ff" opacity="0.2"/>
              </g>
              <g id="Group_93" data-name="Group 93" transform="translate(0 1.942)">
                <path id="Path_112" data-name="Path 112" d="M401.429,421.522a.224.224,0,0,0,.112-.139.227.227,0,0,0-.156-.28,3.5,3.5,0,0,0-1.705-.051,1.562,1.562,0,0,0-1.093,1.178.227.227,0,1,0,.448.07,1.116,1.116,0,0,1,.783-.816,3.083,3.083,0,0,1,1.443.055A.224.224,0,0,0,401.429,421.522Z" transform="translate(-398.584 -420.961)" fill="#fff9ff" opacity="0.2"/>
              </g>
            </g>
          </g>
        </g>
        <g id="Group_97" data-name="Group 97" transform="translate(24.06 72.427)">
          <path id="Path_113" data-name="Path 113" d="M361.765,312.492,364,336.711a51.156,51.156,0,0,1,5.87,8.342c2.115,3.852,8.692,15.214,8.692,15.214l-2.966,2.295-20.471-19.82-4.551-30.486Z" transform="translate(-350.579 -312.255)" fill="#dfe3ef"/>
          <path id="Path_114" data-name="Path 114" d="M395.955,405.2a3.757,3.757,0,0,0,1.547,1.732l3.958-3.342a5.968,5.968,0,0,0-1.348-1.831Z" transform="translate(-372.036 -354.577)" fill="#cdd4eb"/>
        </g>
        <g id="Group_98" data-name="Group 98" transform="translate(27.345 72.656)">
          <path id="Path_115" data-name="Path 115" d="M380.413,313.706s-5.257,12.925-12.089,23c0,0-1.02,9.809-2.765,15.031-.764,2.286-2.167,12.883-2.167,12.883h-5.26l1.337-30.118,5.483-21.815Z" transform="translate(-357.435 -312.69)" fill="#ccd0de"/>
          <path id="Path_116" data-name="Path 116" d="M357.025,410.873a4.358,4.358,0,0,0,0,2.689l6,.168a6.906,6.906,0,0,0,.248-2.622Z" transform="translate(-356.811 -359.117)" fill="#bec4d9"/>
        </g>
        <path id="Path_117" data-name="Path 117" d="M376.319,261.819c0,.185,0,.367,0,.547,0,3.282-.021,5.825-.036,7.074a52.506,52.506,0,0,1-9.51,1.669l-.431.033-.23.015c-.17.012-.342.023-.51.031-.189.012-.377.022-.567.031a50.551,50.551,0,0,1-6.473-.117c-.436-.036-.869-.078-1.305-.125l-.084-.008-.333-.039-.2-.024a53.266,53.266,0,0,1-7.529-1.466c-.007-.567-.01-1.408-.01-2.467,0-.2,0-.4,0-.611v0c0-1.516.011-3.4.027-5.535,0-.182,0-.366,0-.552.012-1.42.027-2.941.046-4.527,0-.184,0-.367.007-.552.021-1.626.045-3.316.073-5.032.018-1.047.037-2.1.058-3.163s.045-2.145.071-3.211c.005-.232.011-.464.017-.7.246-10.085.671-19.354,1.374-20.388a11.078,11.078,0,0,1,2.918-2.4q.241-.154.49-.31c.56-.349,5.129-1.9,5.709-2.243l4.83-.337c.03.017,4.647,1.575,4.677,1.591l.6.343a27.394,27.394,0,0,1,4.369,2.921,4.636,4.636,0,0,1,.376.381,2.719,2.719,0,0,1,.226.289,1.512,1.512,0,0,1,.169.424c.585,2.123.891,10.468,1.044,19.547q.016.976.03,1.961c0,.287.008.576.012.865,0,.2.007.4.008.6,0,.1,0,.2,0,.3q.01.741.016,1.477c0,.363.008.725.012,1.087C376.309,253.759,376.322,258.2,376.319,261.819Z" transform="translate(-325.82 -194.977)" fill="#7694f3"/>
        <g id="Group_160" data-name="Group 160" transform="translate(47.979 41.369)">
          <g id="Group_159" data-name="Group 159">
            <g id="Group_158" data-name="Group 158">
              <path id="Path_172" data-name="Path 172" d="M398.37,261.854c-.478-1.975-1.079-4.17-1.674-6.061l0-.011c-.183-.585-.367-1.14-.547-1.648a.134.134,0,0,0-.009-.027c-.055-.161-.112-.316-.168-.467a.281.281,0,0,1-.013-.079h0a.225.225,0,0,1,.436-.074c.61,1.663,1.331,4.057,1.949,6.406Q398.356,260.868,398.37,261.854Z" transform="translate(-395.955 -253.337)" fill="#e22445"/>
            </g>
          </g>
        </g>
        <g id="Group_171" data-name="Group 171" transform="translate(27.81)">
          <path id="Path_173" data-name="Path 173" d="M360.1,187.393s-1.421-3.921-1.152-6.022A7.015,7.015,0,0,1,364.136,176c3.207-.816,4.336,1.765,6.4,1.894,3.049.191,3.434,2.016,3.734,3.477s-1.174,3.175-1.174,3.175Z" transform="translate(-357.693 -174.858)" fill="#646784"/>
          <g id="Group_164" data-name="Group 164" transform="translate(0.653 11.656)">
            <path id="Path_174" data-name="Path 174" d="M361.182,197.726s-1.133-1.511-1.976-.261.349,4.94,2.412,4.039Z" transform="translate(-358.933 -196.969)" fill="#d1d8f0"/>
          </g>
          <g id="Group_169" data-name="Group 169" transform="translate(14.147 11.656)">
            <path id="Path_177" data-name="Path 177" d="M384.966,197.726s1.133-1.511,1.976-.261-.349,4.94-2.412,4.039Z" transform="translate(-384.53 -196.969)" fill="#d1d8f0"/>
          </g>
          <path id="Path_180" data-name="Path 180" d="M374.756,211.509v3.67s-1.095,1.869-2.575,2-2.793-1.609-2.793-1.609v-3.8Z" transform="translate(-363.223 -192.189)" fill="#dde4fd"/>
          <path id="Path_181" data-name="Path 181" d="M374.756,211.509v1.629c-.993,1.1-2.757,1.377-5.368.992v-2.363Z" transform="translate(-363.223 -192.189)" fill="#d1d8f0"/>
          <path id="Path_182" data-name="Path 182" d="M375.092,189.494a35.411,35.411,0,0,1-.475,4.636v0a.049.049,0,0,1,0,.014l0,0c-.067.348-.142.675-.225.97-.049.172-.1.353-.163.538-.87,2.73-2.886,6.68-7.951,4.872-2.133-.76-3.245-2.964-3.81-5.353-.033-.142-.064-.284-.092-.419-.02-.091-.037-.178-.054-.265l-.024-.128c0-.022-.007-.037-.008-.046l0-.008a26.181,26.181,0,0,1-.36-5.023,3.831,3.831,0,0,1,1.944-3.259,10.2,10.2,0,0,1,8.778-.283A3.816,3.816,0,0,1,375.092,189.494Z" transform="translate(-359.691 -179.599)" fill="#dde4fd"/>
          <path id="Path_190" data-name="Path 190" d="M375.093,189.493a35.719,35.719,0,0,1-.476,4.636l-.779-.055s.189-1.2.276-1.989.235-2.251-.434-2.435-.276-1.854-1.206-2.579a4.326,4.326,0,0,0-4.378-.083c-1.371.842-2.915-.064-3.546.083s-1.491,1.016-1.259,1.831-.464,1.308-.633,2.15a11.782,11.782,0,0,0,.372,3.109l-.745.15a26.18,26.18,0,0,1-.361-5.022,3.832,3.832,0,0,1,1.945-3.26,10.2,10.2,0,0,1,8.779-.283A3.819,3.819,0,0,1,375.093,189.493Z" transform="translate(-359.691 -179.599)" fill="#646784"/>
        </g>
        <path id="Path_193" data-name="Path 193" d="M305.076,274.814s1.553-1.465,2.555-1.487-.781,2.285-.781,2.285,2.173-2.77,2.933-2.377-1.273,3.143-1.273,3.143,1.757-1.653,2.371-1.41-.791,2.314-.791,2.314,1.526-1.169,2.011-1.036-.492,2.019-1.31,2.766-1.572-.538-1.572-.538-1.256-.4-1.381-1c0,0-1.218-.218-1.57-.835C306.266,276.639,304.427,276.058,305.076,274.814Z" transform="translate(-304.937 -221.359)" fill="#f9af8b"/>
        <g id="Group_175" data-name="Group 175" transform="translate(24.281 27.953)">
          <g id="Group_174" data-name="Group 174" transform="translate(0 33.764)">
            <path id="Path_194" data-name="Path 194" d="M359.583,293.7l-.79.278a1.829,1.829,0,0,1-1.927-.5,10.915,10.915,0,0,0-.8-.8,4.623,4.623,0,0,0-2.227-.725c-.386.108-.069.785.306,1a6.7,6.7,0,0,1,1.313.812c.379.355-1.381,1.968-2.15,2.469s-2.4.571-2.3,1.319,1.246.46,1.246.46-.1.743,1,.939a.9.9,0,0,0,.763.791,1.006,1.006,0,0,0,.97.765c.762-.038,3.136-.173,6.456-4.226Z" transform="translate(-350.999 -291.938)" fill="#dde4fd"/>
          </g>
          <path id="Path_195" data-name="Path 195" d="M366.894,262.976s11.581-7.855,15.45-12.2c0,0-.116-5.6-.391-10.09a40.816,40.816,0,0,1,.383-8.718,15.55,15.55,0,0,1,1.05-4.084s3.044,1.2,4.14,11.8a108.158,108.158,0,0,1,.595,12.669,4.762,4.762,0,0,1-1.3,3.193c-2.547,2.691-8.85,8.509-17.51,10.742C369.307,266.29,367.234,264.357,366.894,262.976Z" transform="translate(-358.515 -227.886)" fill="#6484ea"/>
        </g>
      </g>
    </g>
    <g id="Group_43" data-name="Group 43" transform="translate(44.028 129.087)">
      <g id="Group_42" data-name="Group 42">
        <rect id="Rectangle_4" data-name="Rectangle 4" width="178.901" height="120.194" rx="6.512" fill="#9195b5"/>
        <path id="Path_19" data-name="Path 19" d="M256.936,141.891V245.506a3.485,3.485,0,0,1-3.486,3.486H91.006a3.346,3.346,0,0,1-1.209-.221,3.473,3.473,0,0,1-2.272-3.265V141.891a3.484,3.484,0,0,1,3.481-3.486H253.449a3.488,3.488,0,0,1,3.486,3.486Z" transform="translate(-83.179 -133.911)" fill="#fff"/>
        <g id="Group_32" data-name="Group 32" transform="translate(4.744 4.803)">
          <path id="Path_20" data-name="Path 20" d="M256.935,141.889v5.158H87.522v-5.158a3.484,3.484,0,0,1,3.484-3.484H253.45A3.484,3.484,0,0,1,256.935,141.889Z" transform="translate(-87.522 -138.405)" fill="#e9edfc"/>
          <path id="Path_21" data-name="Path 21" d="M131.09,145.706h0a1.143,1.143,0,0,0,1.143,1.143H246.659a1.143,1.143,0,0,0,1.143-1.143h0a1.143,1.143,0,0,0-1.143-1.143H132.233A1.142,1.142,0,0,0,131.09,145.706Z" transform="translate(-108.124 -141.317)" fill="#fff"/>
          <g id="Group_30" data-name="Group 30" transform="translate(7.821 3.226)" opacity="0.3">
            <path id="Path_22" data-name="Path 22" d="M104.457,145.688v.847a.315.315,0,0,1-.473.273l-.733-.423-.733-.423a.316.316,0,0,1,0-.547l.733-.423.733-.423a.315.315,0,0,1,.473.273Z" transform="translate(-102.36 -144.525)" fill="#646784"/>
            <path id="Path_23" data-name="Path 23" d="M113.578,145.688v.847a.315.315,0,0,0,.473.273l.733-.423.734-.423a.316.316,0,0,0,0-.547l-.734-.423-.733-.423a.315.315,0,0,0-.473.273Z" transform="translate(-107.664 -144.525)" fill="#646784"/>
          </g>
          <g id="Group_31" data-name="Group 31" transform="translate(146.474 2.629)" opacity="0.2">
            <circle id="Ellipse_2" data-name="Ellipse 2" cx="1.692" cy="1.692" r="1.692" transform="translate(6.262 0)" fill="#646784"/>
            <circle id="Ellipse_3" data-name="Ellipse 3" cx="1.692" cy="1.692" r="1.692" transform="translate(0 0)" fill="#646784"/>
            <path id="Path_24" data-name="Path 24" d="M392.534,145.085a1.692,1.692,0,1,1-1.692-1.693A1.692,1.692,0,0,1,392.534,145.085Z" transform="translate(-376.625 -143.392)" fill="#646784"/>
          </g>
        </g>
        <g id="Group_41" data-name="Group 41" transform="translate(18.56 28.451)">
          <g id="Group_1440" data-name="Group 1440" transform="translate(0 1.043)">
            <g id="Group_36" data-name="Group 36">
              <path id="Path_31" data-name="Path 31" d="M147.028,186.5H115.185a1.541,1.541,0,0,1-1.454-1.615h0a1.541,1.541,0,0,1,1.454-1.615h31.842a1.541,1.541,0,0,1,1.454,1.615h0A1.541,1.541,0,0,1,147.028,186.5Z" transform="translate(-113.731 -183.266)" fill="#e9edfc"/>
              <path id="Path_32" data-name="Path 32" d="M147.028,201.907H115.185a1.541,1.541,0,0,1-1.454-1.615h0a1.541,1.541,0,0,1,1.454-1.615h31.842a1.541,1.541,0,0,1,1.454,1.615h0A1.541,1.541,0,0,1,147.028,201.907Z" transform="translate(-113.731 -190.553)" fill="#e9edfc"/>
              <path id="Path_33" data-name="Path 33" d="M147.028,217.318H115.185a1.541,1.541,0,0,1-1.454-1.615h0a1.541,1.541,0,0,1,1.454-1.615h31.842a1.541,1.541,0,0,1,1.454,1.615h0A1.541,1.541,0,0,1,147.028,217.318Z" transform="translate(-113.731 -197.841)" fill="#e9edfc"/>
              <path id="Path_34" data-name="Path 34" d="M147.028,232.729H115.185a1.541,1.541,0,0,1-1.454-1.615h0a1.541,1.541,0,0,1,1.454-1.615h31.842a1.541,1.541,0,0,1,1.454,1.615h0A1.541,1.541,0,0,1,147.028,232.729Z" transform="translate(-113.731 -205.128)" fill="#e9edfc"/>
            </g>
            <g id="Group_37" data-name="Group 37" transform="translate(0 33.043)">
              <path id="Path_35" data-name="Path 35" d="M147.028,281.9H115.185a1.541,1.541,0,0,1-1.454-1.615h0a1.541,1.541,0,0,1,1.454-1.615h31.842a1.541,1.541,0,0,1,1.454,1.615h0A1.541,1.541,0,0,1,147.028,281.9Z" transform="translate(-113.731 -278.675)" fill="#e9edfc"/>
              <path id="Path_36" data-name="Path 36" d="M147.028,297.316H115.185a1.541,1.541,0,0,1-1.454-1.615h0a1.541,1.541,0,0,1,1.454-1.615h31.842a1.541,1.541,0,0,1,1.454,1.615h0A1.541,1.541,0,0,1,147.028,297.316Z" transform="translate(-113.731 -285.962)" fill="#e9edfc"/>
              <path id="Path_37" data-name="Path 37" d="M147.028,312.726H115.185a1.541,1.541,0,0,1-1.454-1.615h0a1.541,1.541,0,0,1,1.454-1.615h31.842a1.541,1.541,0,0,1,1.454,1.615h0A1.541,1.541,0,0,1,147.028,312.726Z" transform="translate(-113.731 -293.249)" fill="#e9edfc"/>
              <path id="Path_38" data-name="Path 38" d="M147.028,328.137H115.185a1.541,1.541,0,0,1-1.454-1.615h0a1.541,1.541,0,0,1,1.454-1.615h31.842a1.541,1.541,0,0,1,1.454,1.615h0A1.541,1.541,0,0,1,147.028,328.137Z" transform="translate(-113.731 -300.537)" fill="#e9edfc"/>
            </g>
            <g id="Group_38" data-name="Group 38" transform="translate(106.018)">
              <path id="Path_39" data-name="Path 39" d="M348.148,186.5H316.306a1.541,1.541,0,0,1-1.454-1.615h0a1.541,1.541,0,0,1,1.454-1.615h31.842a1.541,1.541,0,0,1,1.454,1.615h0A1.541,1.541,0,0,1,348.148,186.5Z" transform="translate(-314.852 -183.266)" fill="#e9edfc"/>
              <path id="Path_40" data-name="Path 40" d="M348.148,201.907H316.306a1.541,1.541,0,0,1-1.454-1.615h0a1.541,1.541,0,0,1,1.454-1.615h31.842a1.541,1.541,0,0,1,1.454,1.615h0A1.541,1.541,0,0,1,348.148,201.907Z" transform="translate(-314.852 -190.553)" fill="#e9edfc"/>
              <path id="Path_41" data-name="Path 41" d="M348.148,217.318H316.306a1.541,1.541,0,0,1-1.454-1.615h0a1.541,1.541,0,0,1,1.454-1.615h31.842A1.541,1.541,0,0,1,349.6,215.7h0A1.541,1.541,0,0,1,348.148,217.318Z" transform="translate(-314.852 -197.841)" fill="#e9edfc"/>
              <path id="Path_42" data-name="Path 42" d="M348.148,232.729H316.306a1.541,1.541,0,0,1-1.454-1.615h0a1.541,1.541,0,0,1,1.454-1.615h31.842a1.541,1.541,0,0,1,1.454,1.615h0A1.541,1.541,0,0,1,348.148,232.729Z" transform="translate(-314.852 -205.128)" fill="#e9edfc"/>
            </g>
            <g id="Group_39" data-name="Group 39" transform="translate(106.018 33.043)">
              <path id="Path_43" data-name="Path 43" d="M348.148,281.9H316.306a1.541,1.541,0,0,1-1.454-1.615h0a1.541,1.541,0,0,1,1.454-1.615h31.842a1.541,1.541,0,0,1,1.454,1.615h0A1.541,1.541,0,0,1,348.148,281.9Z" transform="translate(-314.852 -278.675)" fill="#e9edfc"/>
              <path id="Path_44" data-name="Path 44" d="M348.148,297.316H316.306a1.541,1.541,0,0,1-1.454-1.615h0a1.541,1.541,0,0,1,1.454-1.615h31.842A1.541,1.541,0,0,1,349.6,295.7h0A1.541,1.541,0,0,1,348.148,297.316Z" transform="translate(-314.852 -285.962)" fill="#e9edfc"/>
              <path id="Path_45" data-name="Path 45" d="M348.148,312.726H316.306a1.541,1.541,0,0,1-1.454-1.615h0a1.541,1.541,0,0,1,1.454-1.615h31.842a1.541,1.541,0,0,1,1.454,1.615h0A1.541,1.541,0,0,1,348.148,312.726Z" transform="translate(-314.852 -293.249)" fill="#e9edfc"/>
              <path id="Path_46" data-name="Path 46" d="M348.148,328.137H316.306a1.541,1.541,0,0,1-1.454-1.615h0a1.541,1.541,0,0,1,1.454-1.615h31.842a1.541,1.541,0,0,1,1.454,1.615h0A1.541,1.541,0,0,1,348.148,328.137Z" transform="translate(-314.852 -300.537)" fill="#e9edfc"/>
            </g>
          </g>
        </g>
        <g id="_1527575" data-name="1527575" transform="translate(-117.242 -221.358)">
          <circle id="Ellipse_356" data-name="Ellipse 356" cx="25.088" cy="25.088" r="25.088" transform="translate(181.588 255.852)" fill="#7694f3"/>
          <path id="Path_2403" data-name="Path 2403" d="M219.383,328.468l24.257,24.257a17.561,17.561,0,0,1-24.257-24.257Z" transform="translate(-27.498 -56.993)" fill="#fff"/>
          <path id="Path_2404" data-name="Path 2404" d="M276.082,296.023a17.586,17.586,0,0,1,2.373,21.882L254.2,293.648A17.589,17.589,0,0,1,276.082,296.023Z" transform="translate(-56.988 -27.498)" fill="#fff"/>
        </g>
      </g>
    </g>
    <g id="Group_233" data-name="Group 233" transform="translate(8.272 201.126)">
      <g id="Group_220" data-name="Group 220" transform="translate(7.268 31.058)">
        <path id="Path_227" data-name="Path 227" d="M66.612,413.667V395.509c0-2.18-16.131-2.18-16.131,0v18.159C50.481,415.321,66.612,415.321,66.612,413.667Z" transform="translate(-50.481 -393.874)" fill="#646784"/>
        <g id="Group_219" data-name="Group 219" transform="translate(0 3.487)">
          <path id="Path_228" data-name="Path 228" d="M66.612,400.53v1.053a32.065,32.065,0,0,1-8,.934,31.517,31.517,0,0,1-8.127-.974v-1.055a30.278,30.278,0,0,0,8.127,1.017A30.716,30.716,0,0,0,66.612,400.53Z" transform="translate(-50.481 -400.488)" fill="#afb0c4" opacity="0.3"/>
        </g>
        <ellipse id="Ellipse_7" data-name="Ellipse 7" cx="7.224" cy="0.939" rx="7.224" ry="0.939" transform="translate(0.842 0.503)" fill="#2a3554"/>
      </g>
      <g id="Group_232" data-name="Group 232">
        <g id="Group_224" data-name="Group 224" transform="translate(4.967)">
          <g id="Group_222" data-name="Group 222">
            <g id="Group_221" data-name="Group 221">
              <path id="Path_229" data-name="Path 229" d="M54.717,367.455h3.326c.19-.973,2.139-11.369.374-20.276-1.85-9.354-7.5-14.908-11.008-10.912s.877,11.789,4.189,17.43C54.726,359.027,54.726,366.632,54.717,367.455Z" transform="translate(-46.115 -334.955)" fill="#7694f3"/>
            </g>
          </g>
          <g id="Group_223" data-name="Group 223" transform="translate(4.132 6.428)">
            <path id="Path_230" data-name="Path 230" d="M59.653,373.221h.877a49.546,49.546,0,0,0-5.761-25.859.438.438,0,1,0-.751.45A48.67,48.67,0,0,1,59.653,373.221Z" transform="translate(-53.954 -347.149)" fill="#fff" opacity="0.1"/>
          </g>
        </g>
        <g id="Group_228" data-name="Group 228" transform="translate(17.669 3.844)">
          <g id="Group_226" data-name="Group 226">
            <g id="Group_225" data-name="Group 225">
              <path id="Path_231" data-name="Path 231" d="M81.473,342.246c-7.511,0-11.766,22.891-11.213,28.822h3.2c.261-1.506,1.508-5.52,7.156-14.651C83.253,352.152,89.219,342.246,81.473,342.246Z" transform="translate(-70.212 -342.246)" fill="#7694f3"/>
            </g>
          </g>
          <g id="Group_227" data-name="Group 227" transform="translate(1.365 6.309)">
            <path id="Path_232" data-name="Path 232" d="M81.38,354.272a.44.44,0,0,0-.6.163c-.069.124-6.448,11.494-7.978,22.291h.886c1.532-10.582,7.786-21.739,7.858-21.859A.44.44,0,0,0,81.38,354.272Z" transform="translate(-72.802 -354.214)" fill="#fff" opacity="0.1"/>
          </g>
        </g>
        <g id="Group_231" data-name="Group 231" transform="translate(0 12.41)">
          <g id="Group_229" data-name="Group 229">
            <path id="Path_233" data-name="Path 233" d="M49.767,378.752c.125-4.231-5.776-21.434-10.816-20.191-5.5,1.359.5,9.456,2.751,12.466,3.589,4.8,4.983,6.849,5.508,7.725Z" transform="translate(-36.692 -358.497)" fill="#7694f3"/>
          </g>
          <g id="Group_230" data-name="Group 230" transform="translate(3.219 4.321)">
            <path id="Path_234" data-name="Path 234" d="M51.7,382.629c-1.709-7.121-7.834-15.381-8.112-15.757a.439.439,0,1,0-.7.523c.069.091,6.157,8.311,7.905,15.234Z" transform="translate(-42.8 -366.695)" fill="#fff" opacity="0.1"/>
          </g>
        </g>
      </g>
    </g>
    <g id="Group_83" data-name="Group 83" transform="translate(5.574 132.553)">
      <g id="Group_51" data-name="Group 51" transform="translate(20.75 65.815)">
        <path id="Path_51" data-name="Path 51" d="M114.655,415.589v4.625h3.452l.277-4.91Z" transform="translate(-106.37 -352.268)" fill="#dde4fd"/>
        <path id="Path_52" data-name="Path 52" d="M120.323,295.721s-.181,3.1-.455,7.632c-.627,10.344-1.738,28.121-2.272,33.294-.946,9.164-.994,23.049-.994,23.049h-5.042c-.562-11.651-1.609-48.124-1.9-58.267-.048-1.683-.074-2.641-.074-2.641l8.487-2.424.667-.19Z" transform="translate(-103.974 -295.721)" fill="#ccd0de"/>
        <path id="Path_53" data-name="Path 53" d="M118.744,296.173l1.579-.452s-.2,3.483-.478,8.01a23.168,23.168,0,0,1-10.181-2.3c-.048-1.683-.074-2.641-.074-2.641l8.487-2.424Z" transform="translate(-103.974 -295.721)" fill="#bfc6de"/>
        <g id="Group_44" data-name="Group 44" transform="translate(7.028 62.155)">
          <path id="Path_54" data-name="Path 54" d="M112.27,413.632l.227,2.308h6.046l.182-2.308Z" transform="translate(-112.27 -413.632)" fill="#bec4d9"/>
        </g>
        <g id="Group_50" data-name="Group 50" transform="translate(0 66.522)">
          <g id="Group_49" data-name="Group 49">
            <path id="Path_55" data-name="Path 55" d="M108.191,422.865s-.76-1-1.353-.947-5.136,3.747-6.7,4.066-1.249,1.472-.955,2.059,12.525-.366,12.525-.366.295-3.647-.118-4.757S109.423,423.115,108.191,422.865Z" transform="translate(-98.938 -421.917)" fill="#646684"/>
            <g id="Group_48" data-name="Group 48" transform="translate(3.315 1.219)">
              <g id="Group_45" data-name="Group 45" transform="translate(0.883 0.627)">
                <path id="Path_56" data-name="Path 56" d="M109.452,427.093a.217.217,0,0,0,.171-.021.22.22,0,0,0,.079-.3,3.381,3.381,0,0,0-1.159-1.18,1.516,1.516,0,0,0-1.556.09.22.22,0,0,0,.266.35,1.082,1.082,0,0,1,1.1-.045,3,3,0,0,1,.973,1.008A.216.216,0,0,0,109.452,427.093Z" transform="translate(-106.901 -425.419)" fill="#fff" opacity="0.2"/>
              </g>
              <g id="Group_46" data-name="Group 46" transform="translate(1.532)">
                <path id="Path_57" data-name="Path 57" d="M110.683,425.9a.22.22,0,0,0,.251-.323,3.39,3.39,0,0,0-1.159-1.18,1.515,1.515,0,0,0-1.556.09.22.22,0,1,0,.266.35,1.083,1.083,0,0,1,1.1-.045,2.975,2.975,0,0,1,.973,1.008A.218.218,0,0,0,110.683,425.9Z" transform="translate(-108.132 -424.229)" fill="#fff" opacity="0.2"/>
              </g>
              <g id="Group_47" data-name="Group 47" transform="translate(0 1.14)">
                <path id="Path_58" data-name="Path 58" d="M107.777,428.066a.22.22,0,0,0,.251-.323,3.386,3.386,0,0,0-1.159-1.181,1.514,1.514,0,0,0-1.556.091.22.22,0,1,0,.266.35,1.081,1.081,0,0,1,1.1-.045,2.975,2.975,0,0,1,.973,1.007A.221.221,0,0,0,107.777,428.066Z" transform="translate(-105.226 -426.391)" fill="#fff" opacity="0.2"/>
              </g>
            </g>
          </g>
        </g>
      </g>
      <g id="Group_59" data-name="Group 59" transform="translate(38.333 65.875)">
        <path id="Path_59" data-name="Path 59" d="M140.738,416.523l.144,3.865,3.533-.189.078-4.1Z" transform="translate(-136.286 -352.702)" fill="#dde4fd"/>
        <g id="Group_57" data-name="Group 57" transform="translate(4.22 66.26)">
          <g id="Group_56" data-name="Group 56">
            <path id="Path_60" data-name="Path 60" d="M142.227,421.868a14.8,14.8,0,0,1,2.1-.333c.45.03,3.312,3.532,4.318,3.776,1.823.442,1.7,3.315.572,3.407-3.257.268-8.735-1.347-8.735-1.347a26.254,26.254,0,0,1-.073-4.855C140.678,421.37,141.308,422.168,142.227,421.868Z" transform="translate(-140.299 -421.534)" fill="#646684"/>
            <g id="Group_55" data-name="Group 55" transform="translate(3.616 1.362)">
              <g id="Group_52" data-name="Group 52" transform="translate(0.59 0.707)">
                <path id="Path_61" data-name="Path 61" d="M148.541,426.99a.224.224,0,0,1-.219-.355,3.461,3.461,0,0,1,1.3-1.072,1.548,1.548,0,0,1,1.569.261.224.224,0,0,1-.308.326,1.1,1.1,0,0,0-1.107-.165,3.048,3.048,0,0,0-1.1.917A.225.225,0,0,1,148.541,426.99Z" transform="translate(-148.277 -425.458)" fill="#fff" opacity="0.2"/>
              </g>
              <g id="Group_53" data-name="Group 53">
                <path id="Path_62" data-name="Path 62" d="M147.421,425.649a.224.224,0,0,1-.219-.354,3.45,3.45,0,0,1,1.3-1.072,1.546,1.546,0,0,1,1.569.261.224.224,0,0,1-.308.326,1.1,1.1,0,0,0-1.107-.165,3.039,3.039,0,0,0-1.1.917A.224.224,0,0,1,147.421,425.649Z" transform="translate(-147.158 -424.117)" fill="#fff" opacity="0.2"/>
              </g>
              <g id="Group_54" data-name="Group 54" transform="translate(1.43 1.323)">
                <path id="Path_63" data-name="Path 63" d="M150.135,428.159a.224.224,0,0,1-.219-.354,3.46,3.46,0,0,1,1.3-1.072,1.546,1.546,0,0,1,1.569.261.224.224,0,1,1-.308.326,1.1,1.1,0,0,0-1.107-.165,3.038,3.038,0,0,0-1.1.917A.221.221,0,0,1,150.135,428.159Z" transform="translate(-149.871 -426.627)" fill="#fff" opacity="0.2"/>
              </g>
            </g>
          </g>
        </g>
        <path id="Path_64" data-name="Path 64" d="M143.028,298.9s-.045,1.613-.122,4.329c-.341,11.994-1.313,45.5-1.85,56.579h-4.57c-.289-.066-.77-14.587-.71-21.746.036-4.367-1.689-23.347-2.723-34.318-.443-4.687-.76-7.911-.76-7.911l1.325.378.676.194Z" transform="translate(-132.293 -295.835)" fill="#ccd0de"/>
        <path id="Path_65" data-name="Path 65" d="M143.028,298.9s-.045,1.613-.122,4.329a53.955,53.955,0,0,1-9.853.515c-.443-4.687-.76-7.911-.76-7.911l1.325.378.676.194Z" transform="translate(-132.293 -295.835)" fill="#bfc6de"/>
        <g id="Group_58" data-name="Group 58" transform="translate(3.102 62.155)">
          <path id="Path_66" data-name="Path 66" d="M138.177,413.746l.227,2.308h6.046l.182-2.308Z" transform="translate(-138.177 -413.746)" fill="#bec4d9"/>
        </g>
      </g>
      <g id="Group_82" data-name="Group 82">
        <g id="Group_63" data-name="Group 63" transform="translate(45.223 30.326)">
          <g id="Group_62" data-name="Group 62">
            <path id="Path_67" data-name="Path 67" d="M145.364,233.855l4.058,13.716.076.256c0,.064,0,.129,0,.2.141,3.4,3.27,13.95,3,15.714-.277,1.8-.312,4.325.3,5.482.586,1.114,1.176,2.95,1.631,2.005s-.482-3.568.031-3.639,1.7,2.162,1.283,4.63,1.065,3.129.953,1.911.866-2.7.819-4.561c-.045-1.746-1.935-5.67-1.935-5.67s-.083-10.681-1.153-15.819-4.761-19.653-4.761-19.653C147.363,227.926,145.364,233.855,145.364,233.855Z" transform="translate(-145.364 -228.396)" fill="#dde4fd"/>
            <g id="Group_61" data-name="Group 61" transform="translate(4.125 17.977)">
              <g id="Group_60" data-name="Group 60">
                <path id="Path_68" data-name="Path 68" d="M153.189,263.069l.074.248c0,.062,0,.125,0,.193a15.7,15.7,0,0,1,1.993-.574.22.22,0,0,0,.176-.257.216.216,0,0,0-.257-.176A15.894,15.894,0,0,0,153.189,263.069Z" transform="translate(-153.189 -262.5)" fill="#d1d9f8"/>
              </g>
            </g>
          </g>
        </g>
        <g id="Group_67" data-name="Group 67" transform="translate(25.809 24.685)">
          <path id="Path_69" data-name="Path 69" d="M132.347,261.984c-5.7,3.721-17.237,3.645-23.812.216.628-3.913,2.279-13.96,2.1-19.167q-.029-.856-.073-1.7-.038-.734-.085-1.455c-.568-8.663-2.046-15.747-1.319-16.663a6.91,6.91,0,0,1,1.5-1.276q.384-.262.819-.528c.683-.416,1.441-.835,2.2-1.244,1.807-.965,3.642-1.86,4.562-2.472a5.85,5.85,0,0,0,2.421.611.592.592,0,0,0,.067,0,.525.525,0,0,0,.065,0,5.858,5.858,0,0,0,2.422-.611c.853.568,2.46,1.359,4.1,2.222a35.551,35.551,0,0,1,3.378,1.962,6.791,6.791,0,0,1,1.443,1.24c.36.454.209,2.443-.1,5.391-.3,2.9-.761,6.73-1.037,10.94-.076,1.169-.139,2.367-.181,3.583A132.8,132.8,0,0,0,132.347,261.984Z" transform="translate(-108.535 -217.695)" fill="#7694f3"/>
          <path id="Path_73" data-name="Path 73" d="M131.93,219.918c-1.111,2.533-3.719,5.969-7.27,5.356-3.438-.595-5.19-3.226-6.367-5.106,1.808-.966,3.643-1.86,4.561-2.472a5.877,5.877,0,0,0,2.421.611.594.594,0,0,0,.067,0,.553.553,0,0,0,.066,0,5.886,5.886,0,0,0,2.422-.611C128.685,218.263,130.292,219.054,131.93,219.918Z" transform="translate(-113.15 -217.695)" fill="#dde4fd"/>
        </g>
        <path id="Path_74" data-name="Path 74" d="M131.734,219.023v0c-.021,0-.044,0-.066,0Z" transform="translate(-93.665 -193.638)" fill="#2a3554"/>
        <g id="Group_77" data-name="Group 77" transform="translate(30.235)">
          <path id="Path_75" data-name="Path 75" d="M132.665,175.105a4.288,4.288,0,0,1-.1.92,4.244,4.244,0,1,1,.1-.92Z" transform="translate(-120.363 -170.867)" fill="#545881"/>
          <path id="Path_76" data-name="Path 76" d="M132.659,179.827a4.223,4.223,0,0,1-.662,1.507l-.212.212H125.2a4.218,4.218,0,0,1-.816-1.7,9.236,9.236,0,0,1,4.133-.939A9.564,9.564,0,0,1,132.659,179.827Z" transform="translate(-120.457 -174.669)" fill="#7694f3"/>
          <g id="Group_76" data-name="Group 76" transform="translate(0 7.963)">
            <g id="Group_70" data-name="Group 70" transform="translate(0 6.017)">
              <path id="Path_77" data-name="Path 77" d="M119.056,198.1s-1.071-1.427-1.867-.247.329,4.666,2.278,3.815Z" transform="translate(-116.931 -197.387)" fill="#d1d9f0"/>
            </g>
            <g id="Group_73" data-name="Group 73" transform="translate(12.744 6.017)">
              <path id="Path_80" data-name="Path 80" d="M141.519,198.1s1.071-1.427,1.867-.247-.329,4.666-2.278,3.815Z" transform="translate(-141.107 -197.387)" fill="#d1d9f0"/>
            </g>
            <path id="Path_83" data-name="Path 83" d="M131.876,211.12v3.466s-1.034,1.765-2.432,1.886-2.637-1.52-2.637-1.52v-3.589Z" transform="translate(-121.601 -197.864)" fill="#dde4fd"/>
            <path id="Path_84" data-name="Path 84" d="M131.876,211.12v1.538c-.938,1.041-2.6,1.41-5.069,1.046v-2.34Z" transform="translate(-121.601 -197.864)" fill="#d1d9f0"/>
            <path id="Path_85" data-name="Path 85" d="M132.194,190.327a33.68,33.68,0,0,1-.449,4.378c-.064.336-.137.652-.218.936-.73,2.554-2.554,6.934-7.662,5.11-2.256-.805-3.3-3.318-3.767-5.874a24.688,24.688,0,0,1-.341-4.743,3.62,3.62,0,0,1,1.836-3.08,9.637,9.637,0,0,1,8.292-.267A3.607,3.607,0,0,1,132.194,190.327Z" transform="translate(-118.265 -185.973)" fill="#dde4fd"/>
          </g>
          <path id="Path_92" data-name="Path 92" d="M132.48,187.34a.542.542,0,0,1-.4.3,10.492,10.492,0,0,1-.06,1.219c-.2,2.379-.8,2.8-.939,2.21a27.506,27.506,0,0,1-.042-3.364,7.91,7.91,0,0,1-.871-.109l-.552-2.311-.193,2.282a7.239,7.239,0,0,1-2.761-.173l-.648-2.278-.4,2.191a4.6,4.6,0,0,1-2.794.2l-.356-2.363-.824,2.363a9.132,9.132,0,0,1-1.48.381c0,.738-.048,2.743-.419,2.628-.393-.123-.6-1.718-.552-2.67a.365.365,0,0,1-.228-.339,9.233,9.233,0,0,1,.41-3.426,5.289,5.289,0,0,1,2.67-3.083c2.832-1.3,6.854-.746,8.011.023C133.167,183.094,132.48,187.34,132.48,187.34Z" transform="translate(-117.887 -175.292)" fill="#545881"/>
        </g>
        <path id="Path_93" data-name="Path 93" d="M110.862,243.685c-.568-8.663-2.046-15.747-1.319-16.663a6.909,6.909,0,0,1,1.5-1.276C111.705,228.863,113.384,238.243,110.862,243.685Z" transform="translate(-83.11 -196.817)" fill="#dde4fd"/>
        <path id="Path_94" data-name="Path 94" d="M151.055,232.264c-.3,2.9-.761,6.73-1.037,10.94-2.235-5.428-.97-14.42-.307-17.571a6.791,6.791,0,0,1,1.443,1.24C151.514,227.327,151.362,229.316,151.055,232.264Z" transform="translate(-101.742 -196.764)" fill="#dde4fd"/>
        <g id="Group_81" data-name="Group 81" transform="translate(0 28.799)">
          <g id="Group_79" data-name="Group 79" transform="translate(10.106 1.601)">
            <path id="Path_95" data-name="Path 95" d="M105.014,237.57l-2.514,8.074-2.752,7.676a2.7,2.7,0,0,1-3.732,1.742l-.08-.036c-2.618-1.238-1.174-6.373-1.174-6.373l.494-.038c.2-.564.745-2,1.437-3.8.083-.221.171-.449.26-.68q.221-.574.454-1.183l.68-1.76c1.7-4.4,3.1-9.177,3.1-9.177l1.171-3.478Z" transform="translate(-86.132 -228.538)" fill="#dde4fd"/>
            <g id="Group_78" data-name="Group 78" transform="translate(10.563 15.598)">
              <path id="Path_96" data-name="Path 96" d="M100.043,264.29a.211.211,0,0,1-.032,0,.205.205,0,0,1-.205-.173c-.383-2.434-.768-4.232-1.023-5.31.084-.221.172-.449.26-.68.239.95.707,2.975,1.172,5.924A.207.207,0,0,1,100.043,264.29Z" transform="translate(-98.783 -258.129)" fill="#d1d9f8"/>
            </g>
            <path id="Path_97" data-name="Path 97" d="M90.193,262.174s-.361-5.849-1.609-7.093a4.715,4.715,0,0,0-3.558-1.676c-1.171.043-2.271.188-2.2.669,0,0-2.688-.406-3.889.291s3.556,1.307,4.968,1.343,2.158.826,2.215,1.667.872,6.416.872,6.416Z" transform="translate(-78.745 -240.295)" fill="#dde4fd"/>
          </g>
          <g id="Group_80" data-name="Group 80">
            <path id="Path_98" data-name="Path 98" d="M86.081,253.208l-17.821.119a1.215,1.215,0,0,1-1.222-1.206v-.011a1.214,1.214,0,0,1,1.206-1.221l17.821-.12a1.213,1.213,0,0,1,1.221,1.206v.011A1.214,1.214,0,0,1,86.081,253.208Z" transform="translate(-63.104 -237.45)" fill="#9fa2bf"/>
            <path id="Path_99" data-name="Path 99" d="M63.521,241.392l-3.9-14.228a1.26,1.26,0,0,1,1.207-1.594l8.375-.056a1.26,1.26,0,0,1,1.22.912l4.291,14.892Z" transform="translate(-59.574 -225.507)" fill="#646784"/>
            <path id="Path_100" data-name="Path 100" d="M79.06,226.42l4.255,14.769.957-.007-4.255-14.769a1.263,1.263,0,0,0-1.22-.912l-.957.006A1.264,1.264,0,0,1,79.06,226.42Z" transform="translate(-68.211 -225.501)" fill="#9fa2bf"/>
            <path id="Path_101" data-name="Path 101" d="M73.07,240.246a1.31,1.31,0,0,1-1.3,1.711,2.273,2.273,0,0,1-2.107-1.688,1.31,1.31,0,0,1,1.3-1.711A2.273,2.273,0,0,1,73.07,240.246Z" transform="translate(-64.323 -231.675)" fill="#fff" opacity="0.2"/>
          </g>
        </g>
      </g>
    </g>
  </g>
</svg>
