<svg xmlns="http://www.w3.org/2000/svg" width="205.768" height="211.548" viewBox="0 0 205.768 211.548">
    <defs>
        <style>
            .cls-2{fill:#fff}.cls-3,.cls-8{fill:#2585d3}.cls-15,.cls-5{fill:#5c617e}.cls-5,.cls-6{opacity:.5}.cls-6{fill:#171e48}.cls-8,.cls-9{opacity:.32}.cls-9{fill:#dedfe5}.cls-11{fill:#008d62}.cls-13,.cls-24{fill:#263238}.cls-14{opacity:.3}.cls-17{fill:#fafafa}.cls-18{fill:#ccc}.cls-19{fill:#455a64}.cls-20{fill:#ced6f2}.cls-21{fill:#95a3d4}.cls-22{opacity:.4}.cls-23{fill:#f5f5f5}.cls-24{opacity:.1}.cls-28{fill:#1a7ac8}.cls-32{fill:#196bae}
        </style>
    </defs>
    <g id="Group_2181" data-name="Group 2181" transform="translate(-782.051 -323.097)">
        <path id="Path_2127" fill="#e8f3fb" d="M102.884 111.548c56.821 0 102.884-46.591 102.884-104.063S159.195-77.307 102.884-96.578 0-49.988 0 7.485s46.063 104.063 102.884 104.063z" data-name="Path 2127" transform="translate(782.051 423.097)"/>
        <g id="Group_2166" data-name="Group 2166" transform="translate(789.409 351.354)">
            <g id="Screens" transform="translate(18.244)">
                <path id="Rectangle_1077" d="M0 0H139.55V91.535H0z" class="cls-2" data-name="Rectangle 1077" transform="translate(.104 .136)"/>
                <path id="Path_2933" d="M150.975 104.461c0-.882-.042-35.706-.11-91.535l.11.11-139.54.026.136-.136v91.535l-.125-.125 139.55.125-139.55.125h-.126V12.79h.146l139.54.026h.11v.11c-.1 55.829-.141 90.653-.141 91.535z" class="cls-3" data-name="Path 2933" transform="translate(-11.32 -12.79)"/>
                <path id="Path_2934" fill="#5c617e" d="M93.148 109.88l13.729.188a13.671 13.671 0 0 1-13.729 13.28h-.078z" data-name="Path 2934" opacity="0.7" transform="translate(-50.395 -59.198)"/>
                <path id="Path_2935" d="M120.267 135.963a1.329 1.329 0 0 1-.292.026h-.84l-3.069.037h-.037l-.026-.031c-1.222-1.566-2.8-3.534-4.526-5.706l-3.654-4.651.068.031-4.04-.037h-1.128a2.45 2.45 0 0 1-.4-.026 1.877 1.877 0 0 1 .4 0h1.128l4.04-.037h.042l.031.031 3.654 4.636 4.495 5.742-.068-.031 3.069.037h.84a1.648 1.648 0 0 1 .313-.021z" class="cls-5" data-name="Path 2935" transform="translate(-54.817 -66.697)"/>
                <path id="Path_2936" d="M138 148.406c0 .057-1.989.1-4.442.1s-4.437-.047-4.437-.1a44.2 44.2 0 0 1 4.437-.11 44.348 44.348 0 0 1 4.442.11z" class="cls-5" data-name="Path 2936" transform="translate(-67.627 -77.553)"/>
                <path id="Path_2937" d="M138 151.556c0 .057-1.989.1-4.442.1s-4.437-.047-4.437-.1a44.2 44.2 0 0 1 4.437-.11 44.334 44.334 0 0 1 4.442.11z" class="cls-5" data-name="Path 2937" transform="translate(-67.627 -79.059)"/>
                <path id="Path_2938" d="M76.494 93.808l-.194 13.463a13.47 13.47 0 1 1 13.923-13.463z" class="cls-3" data-name="Path 2938" transform="translate(-35.912 -45.078)"/>
                <path id="Path_2939" d="M67.434 90.019a.752.752 0 0 1-.24.057l-.7.1-2.464.345h-.073l-3.289-3.2c-1.566-1.566-3-2.96-4.025-3.993l-1.2-1.227a3.575 3.575 0 0 1-.423-.47 3.862 3.862 0 0 1 .48.412l1.248 1.18c1.044 1 2.49 2.4 4.066 3.946l3.278 3.216h-.068l2.469-.3.689-.063a1.27 1.27 0 0 1 .252-.003z" class="cls-5" data-name="Path 2939" transform="translate(-32.208 -45.695)"/>
                <path id="Path_2940" d="M40.259 80.384c0 .057-1.989.1-4.437.1s-4.442-.047-4.442-.1 1.989-.1 4.442-.1 4.437.043 4.437.1z" class="cls-5" data-name="Path 2940" transform="translate(-20.908 -45.049)"/>
                <path id="Path_2941" d="M40.259 83.534c0 .057-1.989.1-4.437.1s-4.442-.047-4.442-.1 1.989-.1 4.442-.1 4.437.043 4.437.1z" class="cls-5" data-name="Path 2941" transform="translate(-20.908 -46.555)"/>
                <path id="Path_2942" d="M171.568 47.532l-.052-8.352a10.686 10.686 0 0 0-6.9 2.694 9.918 9.918 0 0 0-3.33 8.665c.047.4.11.8.2 1.216l10.085-2.229z" class="cls-6" data-name="Path 2942" transform="translate(-82.967 -25.404)"/>
                <path id="Path_2944" fill="#5c617e" d="M192.463 45.03a9.918 9.918 0 0 0-8.138-5.7h-1.185l.057 8.352v1.968l10.085 2.2a10.006 10.006 0 0 0 .219-2.166 10.8 10.8 0 0 0-1.038-4.654z" data-name="Path 2944" opacity="0.2" transform="translate(-93.447 -25.476)"/>
                <path id="Path_2946" d="M172.86 61l-10.08 2.266a10.331 10.331 0 0 0 20.176-.068L172.871 61" class="cls-3" data-name="Path 2946" transform="translate(-83.716 -35.834)"/>
                <path id="Path_2947" d="M235.952 57.936c0 .078-5.22.136-11.641.136s-11.641-.057-11.641-.136 5.22-.136 11.641-.136 11.641.063 11.641.136z" class="cls-6" data-name="Path 2947" transform="translate(-107.562 -34.304)"/>
                <path id="Path_2948" d="M235.952 52.876c0 .073-5.22.136-11.641.136s-11.641-.063-11.641-.136 5.22-.136 11.641-.136 11.641.047 11.641.136z" class="cls-6" data-name="Path 2948" transform="translate(-107.562 -31.886)"/>
                <path id="Path_2949" d="M235.952 47.766c0 .078-5.22.136-11.641.136s-11.641-.057-11.641-.136 5.22-.136 11.641-.136 11.641.063 11.641.136z" class="cls-6" data-name="Path 2949" transform="translate(-107.562 -29.443)"/>
                <path id="Path_2950" d="M235.952 62.666c0 .078-5.22.136-11.641.136s-11.641-.057-11.641-.136 5.22-.136 11.641-.136 11.641.063 11.641.136z" class="cls-6" data-name="Path 2950" transform="translate(-107.562 -36.565)"/>
                <path id="Path_2951" d="M228.815 67.816c0 .073-3.581.136-8 .136s-8-.063-8-.136 3.581-.136 8-.136 8 .063 8 .136z" class="cls-6" data-name="Path 2951" transform="translate(-107.634 -39.027)"/>
                <path id="Rectangle_1078" d="M0 0H2.396V26.785H0z" class="cls-8" data-name="Rectangle 1078" transform="translate(80.688 47.999)"/>
                <path id="Rectangle_1079" d="M0 0H2.396V17.686H0z" class="cls-9" data-name="Rectangle 1079" transform="translate(85.318 57.098)"/>
                <path id="Rectangle_1080" fill="#8a8ea3" d="M0 0H2.396V23.59H0z" data-name="Rectangle 1080" opacity="0.32" transform="translate(89.948 51.33)"/>
                <path id="Rectangle_1081" d="M0 0H2.396V25.751H0z" class="cls-8" data-name="Rectangle 1081" transform="translate(94.579 49.033)"/>
                <path id="Rectangle_1082" d="M0 0H2.396V17.143H0z" class="cls-9" data-name="Rectangle 1082" transform="translate(99.209 57.641)"/>
                <path id="Rectangle_1083" d="M0 0H2.396V13.781H0z" class="cls-11" data-name="Rectangle 1083" transform="translate(103.839 61.003)"/>
                <path id="Rectangle_1084" d="M0 0H2.396V24.034H0z" class="cls-8" data-name="Rectangle 1084" transform="translate(108.469 50.75)"/>
                <path id="Rectangle_1085" fill="#5c617e" d="M0 0H2.396V19.701H0z" data-name="Rectangle 1085" opacity="0.32" transform="translate(113.1 55.083)"/>
                <path id="Rectangle_1086" d="M0 0H2.396V23.162H0z" class="cls-9" data-name="Rectangle 1086" transform="translate(117.73 51.622)"/>
                <path id="Rectangle_1087" d="M0 0H2.396V15.78H0z" class="cls-11" data-name="Rectangle 1087" transform="translate(122.36 59.003)"/>
                <path id="Rectangle_1088" d="M0 0H2.396V18.782H0z" class="cls-11" data-name="Rectangle 1088" transform="translate(126.99 56.002)"/>
                <path id="Path_2952" d="M214.528 159.534c0 .057-11.38.1-25.406.1s-25.412-.042-25.412-.1 11.375-.094 25.412-.094 25.406.042 25.406.094z" class="cls-5" data-name="Path 2952" transform="translate(-84.16 -82.887)"/>
                <path id="Path_2953" d="M169.18 163.569a16.021 16.021 0 0 1-3.56 0 16.023 16.023 0 0 1 3.56 0z" class="cls-5" data-name="Path 2953" transform="translate(-85.073 -84.813)"/>
                <path id="Path_2954" d="M179.854 163.767a22.858 22.858 0 0 1-4.254 0 22.854 22.854 0 0 1 4.254 0z" class="cls-5" data-name="Path 2954" transform="translate(-89.843 -84.901)"/>
                <path id="Path_2955" d="M189.5 163.767a22.858 22.858 0 0 1-4.254 0 22.865 22.865 0 0 1 4.254 0z" class="cls-5" data-name="Path 2955" transform="translate(-94.456 -84.901)"/>
                <path id="Path_2956" d="M199.1 163.767a22.866 22.866 0 0 1-4.254 0 22.854 22.854 0 0 1 4.254 0z" class="cls-13" data-name="Path 2956" transform="translate(-99.045 -84.901)"/>
                <path id="Path_2957" d="M208.794 163.779a22.849 22.849 0 0 1-4.254 0 22.86 22.86 0 0 1 4.254 0z" class="cls-13" data-name="Path 2957" transform="translate(-103.676 -84.913)"/>
                <path id="Path_2958" d="M218.444 163.779a22.85 22.85 0 0 1-4.254 0 22.86 22.86 0 0 1 4.254 0z" class="cls-13" data-name="Path 2958" transform="translate(-108.289 -84.913)"/>
                <path id="Path_2959" d="M228.1 163.779a22.85 22.85 0 0 1-4.254 0 22.86 22.86 0 0 1 4.254 0z" class="cls-13" data-name="Path 2959" transform="translate(-112.906 -84.913)"/>
                <path id="Path_2960" d="M237.734 163.779a22.85 22.85 0 0 1-4.254 0 22.86 22.86 0 0 1 4.254 0z" class="cls-13" data-name="Path 2960" transform="translate(-117.509 -84.913)"/>
                <path id="Path_2961" d="M247.379 163.779a22.8 22.8 0 0 1-4.249 0 22.809 22.809 0 0 1 4.249 0z" class="cls-13" data-name="Path 2961" transform="translate(-122.122 -84.913)"/>
                <path id="Path_2962" d="M257.024 163.779a22.85 22.85 0 0 1-4.254 0 22.861 22.861 0 0 1 4.254 0z" class="cls-13" data-name="Path 2962" transform="translate(-126.73 -84.913)"/>
                <g id="Group_2169" class="cls-14" data-name="Group 2169" transform="translate(103.839 61.003)">
                    <path id="Rectangle_1091" d="M0 0H2.396V13.781H0z" class="cls-2" data-name="Rectangle 1091"/>
                </g>
                <g id="Group_2171" class="cls-14" data-name="Group 2171" transform="translate(122.36 59.003)">
                    <path id="Rectangle_1093" d="M0 0H2.396V15.78H0z" class="cls-2" data-name="Rectangle 1093"/>
                </g>
                <path id="Path_2963" d="M39.775 43.887a2.307 2.307 0 1 1-2.307-2.307 2.307 2.307 0 0 1 2.307 2.307z" class="cls-3" data-name="Path 2963" transform="translate(-22.715 -26.551)"/>
                <path id="Path_2964" d="M88.166 42.4c0 .073-7.783.136-17.383.136S53.4 42.469 53.4 42.4s7.783-.136 17.383-.136 17.383.059 17.383.136z" class="cls-5" data-name="Path 2964" transform="translate(-31.434 -26.876)"/>
                <path id="Path_2965" d="M67.661 47.76a2.291 2.291 0 0 1-.522.052c-.345 0-.846.031-1.467.042-1.237.026-2.955.042-4.844.042s-3.607 0-4.844-.042c-.642-.026-1.143-.026-1.462-.026a2.291 2.291 0 0 1-.522-.052 1.989 1.989 0 0 1 .522-.052l1.467-.047c1.237 0 2.955-.037 4.844-.037s3.607 0 4.844.037l1.467.047a1.989 1.989 0 0 1 .517.036z" class="cls-5" data-name="Path 2965" transform="translate(-31.72 -29.448)"/>
            </g>
            <g id="Character_1" data-name="Character 1" transform="translate(0 59.025)">
                <path id="Rectangle_1107" d="M0 0H31.107V1.514H0z" class="cls-13" data-name="Rectangle 1107" transform="translate(56.315 55.52)"/>
                <path id="Path_3028" d="M132.256 242.1l5.836-21.862h-24.284L108.52 242.1z" class="cls-15" data-name="Path 3028" transform="translate(-40.016 -185.068)"/>
                <path id="Path_3029" d="M111.14 241.37h21.7l5.048-19.2h-21.81z" class="cls-2" data-name="Path 3029" transform="translate(-41.18 -185.99)"/>
                <path id="Path_3030" fill="#ebebeb" d="M132.95 223.548h-21.81l.365-1.378h21.81z" data-name="Path 3030" transform="translate(-36.607 -185.99)"/>
                <path id="Path_3031" d="M116.83 223.275a.24.24 0 1 1-.235-.235.235.235 0 0 1 .235.235z" class="cls-17" data-name="Path 3031" transform="translate(-22.842 -186.406)"/>
                <path id="Path_3032" d="M115.29 223.273a.235.235 0 0 1-.235.24.24.24 0 1 1 0-.475.235.235 0 0 1 .235.235z" class="cls-17" data-name="Path 3032" transform="translate(-20.482 -186.404)"/>
                <path id="Path_3033" d="M113.68 223.275a.24.24 0 1 1-.24-.235.24.24 0 0 1 .24.235z" class="cls-17" data-name="Path 3033" transform="translate(-18.047 -186.406)"/>
                <path id="Path_3047" d="M163.072 261.98v2.871h-1.579V322.9h-3.246v-58.049h-17.234V322.9h-3.246v-58.049H63.019v58.038h-3.246v-58.038h-1.4v-2.871z" class="cls-18" data-name="Path 3047" transform="translate(-38.817 -205.019)"/>
                <path id="Path_3048" d="M223.411 303.313a30.138 30.138 0 0 1-5.011 0 30.129 30.129 0 0 1 5.011 0z" class="cls-13" data-name="Path 3048" transform="translate(-182.694 -224.719)"/>
                <ellipse id="Ellipse_441" cx=".136" cy=".068" class="cls-19" data-name="Ellipse 441" rx=".136" ry=".068" transform="translate(77.07 79.053)"/>
                <path id="Path_3049" d="M179.6 185.283l14.392-14.616.313-1.566c.057-.292.12-.616.172-.981a3.818 3.818 0 0 0 0-1.289 5.708 5.708 0 0 0-.444-1.529c-.24-.423.146-.934.522-.762a4.188 4.188 0 0 1 1.248 2.908c.151 1.582 1.5-.522 2-1.274s2.172-3.017 2.521-3.043c.522-.037.637.522.115 1.258s-1.926 3.075-1.529 3.325a1.879 1.879 0 0 1 1.989.987c.36.694.767 1.686.433 2.14a25.416 25.416 0 0 1-2.292 2.433l-.48.412s-12.419 18.02-15.144 18.61c-1.691.365-27.782 2.532-27.782 2.532l-1.968-7.188z" class="cls-20" data-name="Path 3049" transform="translate(-126.94 -157.768)"/>
                <path id="Path_3050" d="M156.194 176.353l-1.331 1.279a1.565 1.565 0 0 1-.522.365.475.475 0 0 1-.663-.616 1.651 1.651 0 0 1 .308-.475l1.295-1.566" class="cls-20" data-name="Path 3050" transform="translate(-81.671 -163.606)"/>
                <path id="Path_3051" d="M155.414 175.34a4.057 4.057 0 0 0-.663.642c-.209.245-.428.491-.658.746a2.612 2.612 0 0 0-.365.5.7.7 0 0 0 .037.741.642.642 0 0 0 .726.167 1.477 1.477 0 0 0 .522-.365l.7-.71a3.226 3.226 0 0 0 .6-.7 3.3 3.3 0 0 0-.731.564c-.235.219-.48.438-.736.668a1.243 1.243 0 0 1-.433.3.4.4 0 0 1-.428-.084.465.465 0 0 1 0-.459 2.527 2.527 0 0 1 .318-.449l.616-.783a3.267 3.267 0 0 0 .495-.778z" class="cls-21" data-name="Path 3051" transform="translate(-81.784 -163.606)"/>
                <path id="Path_3052" d="M158.012 174.587l-1.331 1.305a1.63 1.63 0 0 1-.522.365.48.48 0 0 1-.663-.626 1.648 1.648 0 0 1 .308-.475l1.295-1.566" class="cls-20" data-name="Path 3052" transform="translate(-84.434 -162.77)"/>
                <path id="Path_3053" d="M157.222 173.56a4.056 4.056 0 0 0-.663.642l-.658.746a2.61 2.61 0 0 0-.365.5.72.72 0 0 0 .037.741.653.653 0 0 0 .726.167 1.425 1.425 0 0 0 .522-.371l.7-.7a3.224 3.224 0 0 0 .6-.7 3.132 3.132 0 0 0-.731.564l-.736.668a1.4 1.4 0 0 1-.433.3.4.4 0 0 1-.428-.084.465.465 0 0 1 0-.459 2.53 2.53 0 0 1 .318-.449l.616-.783a3.4 3.4 0 0 0 .495-.782z" class="cls-21" data-name="Path 3053" transform="translate(-84.536 -162.755)"/>
                <path id="Path_3054" d="M159.988 173.073l-1.331 1.279a1.629 1.629 0 0 1-.522.365.473.473 0 0 1-.658-.616 1.472 1.472 0 0 1 .3-.475l1.295-1.566" class="cls-20" data-name="Path 3054" transform="translate(-87.449 -162.038)"/>
                <path id="Path_3055" d="M159.212 172.1a6.819 6.819 0 0 0-.658.642l-.658.746a2.409 2.409 0 0 0-.371.522.721.721 0 0 0 .037.741.663.663 0 0 0 .731.167 1.424 1.424 0 0 0 .522-.371l.694-.71a3.133 3.133 0 0 0 .6-.7c-.026-.031-.3.188-.726.564l-.736.668a1.316 1.316 0 0 1-.438.292.381.381 0 0 1-.428-.084.438.438 0 0 1 0-.454 2.281 2.281 0 0 1 .318-.449l.611-.783a2.992 2.992 0 0 0 .506-.793z" class="cls-21" data-name="Path 3055" transform="translate(-87.565 -162.057)"/>
                <path id="Path_3056" d="M163.015 176.284c0-.042-.329-.11-.809.042l.151.13a2.274 2.274 0 0 0 .037-.914 2.322 2.322 0 0 0-.522-1.112c-.2-.24-.376-.334-.4-.313a4.73 4.73 0 0 1 .632 1.467 2.75 2.75 0 0 1 0 .825l-.031.209.183-.078c.444-.178.759-.199.759-.256z" class="cls-21" data-name="Path 3056" transform="translate(-92.58 -163.02)"/>
                <path id="Path_3057" d="M206.764 161.324l-.057 20.024 7.8.376.318-4.8s3.769.574 4.552-2.26c.522-1.811.381-15.8.381-15.8z" class="cls-20" data-name="Path 3057" transform="translate(-172.959 -155.729)"/>
                <path id="Path_3058" d="M220.565 157.966c-.574 1.2-3.33 3.388-3.33 3.388l-1.248 3.336c-1.081-.846-2.532-.8-2.808 1.1-.2 1.373 1.509 1.65 1.509 1.65a24.942 24.942 0 0 1-3.132 4.7 4.6 4.6 0 0 1-4.14 1.942h-1.874s-3.832-3.2-3.075-11.636 8.352-5.977 10.153-8.081c2.944-3.465 9.86-.387 7.945 3.601z" class="cls-15" data-name="Path 3058" transform="translate(-171.808 -152.862)"/>
                <path id="Path_3059" d="M203.167 172.4a2.662 2.662 0 0 0 .924-.042 4.792 4.792 0 0 0 2.239-1.154 12.205 12.205 0 0 0 2.26-2.991 10.846 10.846 0 0 1 2.871-3.508 10.992 10.992 0 0 1 4.327-1.373 8.2 8.2 0 0 0 3.493-1.332 3.743 3.743 0 0 0 1.4-2.088 2.2 2.2 0 0 0 .037-.929 3.133 3.133 0 0 1-.078.919 3.779 3.779 0 0 1-1.4 2.02 8.144 8.144 0 0 1-3.466 1.295 11.47 11.47 0 0 0-4.374 1.383 10.394 10.394 0 0 0-2.892 3.544 12.18 12.18 0 0 1-2.229 2.986 4.886 4.886 0 0 1-2.192 1.169 3.713 3.713 0 0 1-.679.078z" class="cls-19" data-name="Path 3059" transform="translate(-172.081 -155.786)"/>
                <path id="Path_3060" d="M203.32 164.528l.4-.125a6.329 6.329 0 0 1 1.175-.261 2.646 2.646 0 0 1 1.811.407 1.477 1.477 0 0 1 .626.95 1.305 1.305 0 0 1-.36 1.19.987.987 0 0 1-.632.251 1.358 1.358 0 0 1-.7-.188 2.088 2.088 0 0 1-.94-1.206 2.991 2.991 0 0 1 .83-3.169 3.043 3.043 0 0 1 1.686-.752 5.22 5.22 0 0 1 1.942.256 13.772 13.772 0 0 0 2.01.485 8.3 8.3 0 0 0 2.13 0 7.079 7.079 0 0 0 2.057-.569 2.505 2.505 0 0 0 1.4-1.482 1.937 1.937 0 0 0-.48-1.895 1.665 1.665 0 0 0-1.832-.271 1.4 1.4 0 0 0-.679.642 1.535 1.535 0 0 0-.146.9 2.052 2.052 0 0 0 .914 1.43 2.887 2.887 0 0 0 1.566.428 4.443 4.443 0 0 0 1.462-.224 5.221 5.221 0 0 0 2.156-1.325 5.482 5.482 0 0 0 1.1-1.566 5.576 5.576 0 0 0 .391-1.143c.047-.277.063-.418.063-.418s-.031.141-.084.412a6.152 6.152 0 0 1-.407 1.133 5.643 5.643 0 0 1-1.1 1.54 5.189 5.189 0 0 1-2.13 1.295 4.479 4.479 0 0 1-1.441.214 2.814 2.814 0 0 1-1.493-.418 1.968 1.968 0 0 1-.872-1.368 1.342 1.342 0 0 1 .773-1.436 1.566 1.566 0 0 1 1.723.256 1.832 1.832 0 0 1 .444 1.785 2.4 2.4 0 0 1-1.347 1.415 7.147 7.147 0 0 1-2.025.559 8.066 8.066 0 0 1-2.088 0 13.449 13.449 0 0 1-2-.48 5.454 5.454 0 0 0-1.978-.256 3.1 3.1 0 0 0-2.61 4.056 2.261 2.261 0 0 0 .987 1.248 1.451 1.451 0 0 0 .741.2 1.086 1.086 0 0 0 .679-.277 1.378 1.378 0 0 0 .381-1.263 1.535 1.535 0 0 0-.658-.987 2.7 2.7 0 0 0-1.853-.4 5.861 5.861 0 0 0-1.175.282c-.281.088-.417.145-.417.145z" class="cls-19" data-name="Path 3060" transform="translate(-172.678 -154.778)"/>
                <path id="Path_3061" d="M220.18 361.906l2.553-3.273-6.1-4.823-3.785 4.75.36.324c1.608 1.425 8.29 7.126 9.683 7.674 1.554.61-2.711-4.652-2.711-4.652z" class="cls-3" data-name="Path 3061" transform="translate(-179.615 -248.912)"/>
                <g id="Group_2175" class="cls-22" data-name="Group 2175" transform="translate(33.231 109.533)">
                    <path id="Path_3062" d="M222.2 368.813s1.4 1.958.94 2.088-7.428-5.387-10.289-8.086l.115-.125 8.07 6.494s.792-.637 1.164-.371z" class="cls-2" data-name="Path 3062" transform="translate(-212.85 -362.69)"/>
                </g>
                <path id="Path_3063" d="M212.87 362.519l.094.094.287.256 1.07.945c.908.773 2.182 1.827 3.612 2.96s2.746 2.125 3.706 2.835l1.143.83.318.219c.073.052.11.078.115.073l-.1-.083-.3-.235-1.128-.856c-.955-.72-2.26-1.728-3.691-2.855s-2.7-2.177-3.654-2.939l-1.091-.9-.3-.24c-.044-.083-.081-.109-.081-.104z" class="cls-13" data-name="Path 3063" transform="translate(-179.613 -253.075)"/>
                <path id="Path_3064" d="M214.64 374.791a3.188 3.188 0 0 1 .626-.365 2.744 2.744 0 0 1 .71-.125 1.013 1.013 0 0 0-.747.036 1.044 1.044 0 0 0-.589.454z" class="cls-13" data-name="Path 3064" transform="translate(-173.297 -258.68)"/>
                <path id="Path_3065" d="M217.88 370.572c0 .026.177 0 .376-.084a.893.893 0 0 0 .35-.167c0-.026-.177 0-.376.078s-.355.147-.35.173z" class="cls-13" data-name="Path 3065" transform="translate(-177.617 -256.8)"/>
                <path id="Path_3066" d="M218.57 369.494c0 .026.151.037.329.026s.324-.042.324-.068-.151-.037-.329-.026-.324.042-.324.068z" class="cls-13" data-name="Path 3066" transform="translate(-178.594 -256.375)"/>
                <path id="Path_3067" d="M218.326 368a1.946 1.946 0 0 0 .287.292c.172.141.329.235.35.214s-.115-.146-.287-.287a1.266 1.266 0 0 0-.35-.219z" class="cls-13" data-name="Path 3067" transform="translate(-178.209 -255.695)"/>
                <path id="Path_3068" d="M217.83 367.047a.836.836 0 0 0 .277.381c.193.183.391.266.407.24a3.758 3.758 0 0 0-.345-.308c-.182-.171-.313-.339-.339-.313z" class="cls-13" data-name="Path 3068" transform="translate(-177.499 -255.238)"/>
                <path id="Path_3069" d="M215.272 369.959a1.43 1.43 0 0 0 .4.308 2.69 2.69 0 0 0 .491.24 1.373 1.373 0 0 0 .313.089.261.261 0 0 0 .193-.042.209.209 0 0 0 .068-.2.919.919 0 0 0-1.044-.522.943.943 0 0 0-.334.162c-.073.052-.1.094-.094.1a1.254 1.254 0 0 1 .438-.193.889.889 0 0 1 .522.047.773.773 0 0 1 .438.4.126.126 0 0 1-.157.136 1.481 1.481 0 0 1-.3-.083 3.06 3.06 0 0 1-.485-.214c-.288-.118-.439-.238-.449-.228z" class="cls-13" data-name="Path 3069" transform="translate(-174.382 -256.558)"/>
                <path id="Path_3070" d="M217.3 369.3a.522.522 0 0 0 .261-.24.82.82 0 0 0 .12-.371.522.522 0 0 0-.172-.459.2.2 0 0 0-.261.089.565.565 0 0 0-.073.225 1.362 1.362 0 0 0 0 .386.658.658 0 0 0 .1.334 2.565 2.565 0 0 1-.037-.339 1.565 1.565 0 0 1 .026-.365c0-.125.089-.3.2-.245s.125.245.125.371a.815.815 0 0 1-.089.345 2.478 2.478 0 0 1-.2.269z" class="cls-13" data-name="Path 3070" transform="translate(-176.322 -255.797)"/>
                <path id="Path_3071" d="M227.527 359.51a2.926 2.926 0 0 1 .438.371 2.438 2.438 0 0 1 .59 2.537 4.99 4.99 0 0 1-.224.522c.016 0 .042-.036.094-.125a1.691 1.691 0 0 0 .193-.381 2.4 2.4 0 0 0 .1-1.4 2.438 2.438 0 0 0-.71-1.206 1.73 1.73 0 0 0-.345-.256.366.366 0 0 0-.141-.063z" class="cls-13" data-name="Path 3071" transform="translate(-192.829 -251.637)"/>
                <path id="Path_3072" d="M226.885 355.6a14.286 14.286 0 0 0-1.044 1.211 12.076 12.076 0 0 0-.971 1.274 13.268 13.268 0 0 0 1.044-1.211 13.479 13.479 0 0 0 .971-1.274z" class="cls-13" data-name="Path 3072" transform="translate(-189.545 -249.768)"/>
                <path id="Path_3073" d="M222.67 366.189a4.4 4.4 0 0 0 .82.793 4.724 4.724 0 0 0 .95.637c0-.026-.4-.313-.887-.71a11.292 11.292 0 0 0-.883-.72z" class="cls-13" data-name="Path 3073" transform="translate(-185.952 -254.829)"/>
                <path id="Path_3074" d="M228.4 364.38c-.026 0-.031.11-.063.235s-.073.219-.052.235.11-.068.141-.214-.005-.261-.026-.256z" class="cls-13" data-name="Path 3074" transform="translate(-192.872 -253.964)"/>
                <path id="Path_3075" d="M228.191 362.62a.36.36 0 0 0 0 .214c.037.115.047.2.073.2s.037-.094 0-.209-.047-.205-.073-.205z" class="cls-13" data-name="Path 3075" transform="translate(-192.673 -253.123)"/>
                <path id="Path_3076" d="M228.68 361.153a1.469 1.469 0 0 1 .136.188c.063.1.094.2.12.2s.042-.125-.042-.251-.203-.163-.214-.137z" class="cls-13" data-name="Path 3076" transform="translate(-193.606 -252.418)"/>
                <path id="Path_3077" d="M229.682 360.227v.13c0 .057.084.1.1.084s0-.073 0-.131-.082-.099-.1-.083z" class="cls-13" data-name="Path 3077" transform="translate(-194.968 -251.978)"/>
                <g id="Group_2176" class="cls-14" data-name="Group 2176" transform="translate(34.839 107.289)">
                    <path id="Path_3078" d="M216.74 358.818l6.17 4.714.574-.741L217 358.39z" data-name="Path 3078" transform="translate(-216.74 -358.39)"/>
                </g>
                <path id="Path_3079" d="M162.67 371.772V367.6l-7.778-.026-.047 6.076.48.031c2.145.125 10.921.5 12.356.063 1.593-.458-5.011-1.972-5.011-1.972z" class="cls-3" data-name="Path 3079" transform="translate(-94.036 -255.489)"/>
                <g id="Group_2177" class="cls-22" data-name="Group 2177" transform="translate(60.799 117.134)">
                    <path id="Path_3080" d="M165.874 377.25s2.313.679 2.025 1.044-9.172.345-13.087 0v-.177l10.357.136s.251-.982.705-1.003z" class="cls-2" data-name="Path 3080" transform="translate(-154.813 -377.25)"/>
                </g>
                <path id="Path_3081" d="M154.865 378.9a.468.468 0 0 0 .136 0l.381.026 1.415.068c1.2.047 2.845.094 4.667.1s3.477 0 4.667-.052l1.415-.052h.386a.416.416 0 0 0 .13 0h-1.937c-1.2 0-2.845.036-4.667.026s-3.471-.042-4.667-.073l-1.409-.036h-.522z" class="cls-13" data-name="Path 3081" transform="translate(-94.176 -260.905)"/>
                <path id="Path_3082" d="M158.635 378.305a3.4 3.4 0 0 1 .266-.673 2.924 2.924 0 0 1 .485-.522 1.248 1.248 0 0 0-.752 1.2z" class="cls-13" data-name="Path 3082" transform="translate(-87.469 -260.049)"/>
                <path id="Path_3083" d="M163.657 376.556a.947.947 0 0 0 .251-.3c.115-.177.188-.334.167-.35s-.136.12-.251.3-.188.334-.167.35z" class="cls-13" data-name="Path 3083" transform="translate(-94.782 -259.475)"/>
                <path id="Path_3084" d="M164.726 376.111a1.212 1.212 0 0 0 .277-.183c.136-.12.23-.235.209-.251s-.136.057-.271.178-.23.235-.215.256z" class="cls-13" data-name="Path 3084" transform="translate(-96.478 -259.364)"/>
                <path id="Path_3085" d="M164.86 375.055a.974.974 0 0 0 .407.052.877.877 0 0 0 .407-.042.971.971 0 0 0-.407-.052.893.893 0 0 0-.407.042z" class="cls-13" data-name="Path 3085" transform="translate(-97.009 -259.044)"/>
                <path id="Path_3086" d="M164.91 374.1a.751.751 0 0 0 .449.136.846.846 0 0 0 .47-.057 2 2 0 0 0-.459-.037 3.057 3.057 0 0 0-.46-.042z" class="cls-13" data-name="Path 3086" transform="translate(-97.189 -258.611)"/>
                <path id="Path_3087" d="M161.151 375.218a1.369 1.369 0 0 0 .5 0 2.607 2.607 0 0 0 .522-.115 1.372 1.372 0 0 0 .308-.125.281.281 0 0 0 .125-.151.2.2 0 0 0-.078-.2.913.913 0 0 0-1.133.266.883.883 0 0 0-.167.329v.136a1.332 1.332 0 0 1 .23-.423.851.851 0 0 1 .428-.277.783.783 0 0 1 .6.042c.078.063.047.151-.042.2a1.118 1.118 0 0 1-.282.12 2.987 2.987 0 0 1-.522.13c-.301.05-.489.05-.489.068z" class="cls-13" data-name="Path 3087" transform="translate(-92.005 -258.815)"/>
                <path id="Path_3088" d="M164.208 375.011a.465.465 0 0 0 .063-.345.85.85 0 0 0-.136-.365.522.522 0 0 0-.418-.261.2.2 0 0 0-.151.235.48.48 0 0 0 .084.219 1.531 1.531 0 0 0 .235.308.694.694 0 0 0 .282.2 2.985 2.985 0 0 1-.235-.245 1.9 1.9 0 0 1-.209-.3c-.068-.1-.115-.292 0-.318s.256.115.329.214a.845.845 0 0 1 .141.329 1.681 1.681 0 0 1 .015.329z" class="cls-13" data-name="Path 3088" transform="translate(-94.936 -258.582)"/>
                <path id="Path_3089" d="M174.535 374.755h.574a2.433 2.433 0 0 1 2.031 1.634c.12.334.13.559.146.553a.4.4 0 0 0 0-.157 1.873 1.873 0 0 0-.084-.418 2.406 2.406 0 0 0-.783-1.164 2.443 2.443 0 0 0-1.3-.522 2.624 2.624 0 0 0-.428 0 .492.492 0 0 0-.156.074z" class="cls-13" data-name="Path 3089" transform="translate(-113.679 -258.885)"/>
                <path id="Path_3090" d="M178.3 368.64a13.7 13.7 0 0 0-.073 1.592 13.3 13.3 0 0 0 0 1.6 13.934 13.934 0 0 0 .073-1.6 13.245 13.245 0 0 0 0-1.592z" class="cls-13" data-name="Path 3090" transform="translate(-116.625 -256.001)"/>
                <path id="Path_3091" d="M168.29 377.694a4.173 4.173 0 0 0 1.138.12 4.235 4.235 0 0 0 1.138-.089c0-.026-.522 0-1.138 0s-1.128-.057-1.138-.031z" class="cls-13" data-name="Path 3091" transform="translate(-103.691 -260.325)"/>
                <path id="Path_3092" d="M175.141 377.687l.094.224c.052.124.078.219.1.219s.042-.125 0-.261-.174-.203-.194-.182z" class="cls-13" data-name="Path 3092" transform="translate(-112.066 -260.323)"/>
                <path id="Path_3093" d="M176.1 376.307a.535.535 0 0 0 .11.183c.078.084.162.136.177.115s-.031-.1-.11-.183-.157-.13-.177-.115z" class="cls-13" data-name="Path 3093" transform="translate(-113.598 -259.664)"/>
                <path id="Path_3094" d="M177.384 375.642c0 .026.1.026.219.068s.2.1.219.084-.047-.125-.188-.172-.261 0-.25.02z" class="cls-13" data-name="Path 3094" transform="translate(-115.697 -259.328)"/>
                <path id="Path_3095" d="M178.909 375.366c0 .026.031.063.1.089s.125.026.13 0-.031-.068-.1-.089-.119-.021-.13 0z" class="cls-13" data-name="Path 3095" transform="translate(-117.807 -259.208)"/>
                <g id="Group_2178" class="cls-14" data-name="Group 2178" transform="translate(60.799 114.576)">
                    <path id="Path_3096" d="M164.91 373.331l7.841.01-.01-.94-7.8-.052z" data-name="Path 3096" transform="translate(-164.91 -372.35)"/>
                </g>
                <path id="Path_3097" d="M151.58 235.2l3.132 9.4c.84 2.532 3.054 2.965 5.742 2.965h17.284v-3.884l-15.827-2.26-3.769-9.636z" class="cls-20" data-name="Path 3097" transform="translate(-102.14 -190.584)"/>
                <path id="Path_3098" d="M133.223 249.885l1.373-.652s1.483-2.861 1.822-2.746.439.955-.157 2.271l1.827-.522s3.962 1.832 3.785 2.088a.913.913 0 0 1-1.362.386c-.861-.438-1.989-.955-1.989-.955l-2.135.611 2.751.345 2.584 2.354a1.263 1.263 0 0 1-1.566-.037l-6.718 1.441-2.088.12V250.7z" class="cls-20" data-name="Path 3098" transform="translate(-55.72 -197.612)"/>
                <path id="Path_3099" d="M138.3 257.752s-.151-.183-.391-.444a2.132 2.132 0 0 0-.491-.381 1.972 1.972 0 0 0-.726-.188 9.742 9.742 0 0 1-2.015-.345 10.235 10.235 0 0 1 2.041.136 1.979 1.979 0 0 1 .793.23 1.89 1.89 0 0 1 .522.449 1.17 1.17 0 0 1 .267.543z" class="cls-23" data-name="Path 3099" transform="translate(-53.883 -202.346)"/>
                <path id="Path_3100" d="M138.875 259.021c-.026 0-.047-.141-.235-.183s-.522-.068-.814-.1a6.144 6.144 0 0 1-1.185-.12 2.426 2.426 0 0 1 1.206-.089 3.651 3.651 0 0 1 .846.172.334.334 0 0 1 .2.214c.018.069-.008.106-.018.106z" class="cls-23" data-name="Path 3100" transform="translate(-55.504 -203.349)"/>
                <path id="Path_3101" d="M210.247 217.012l1.31 4.51 8.451-3.826c-.3-.945-1.7-5.152-4.38-11.834a11.484 11.484 0 0 0-8.765-7.063 50.122 50.122 0 0 0-8.07-.8c-4.74.052-11.719 3.017-12.659 7.663-.715 3.55-.026 9.814-.026 17.42l.621 14.543 24.3.83z" class="cls-3" data-name="Path 3101" transform="translate(-162.279 -174.437)"/>
                <g id="Group_2179" class="cls-14" data-name="Group 2179" transform="translate(23.856 45.019)">
                    <path id="Path_3102" d="M216.19 239.373c2.96.606 5.993 0 9-.183 1.827-.11 3.852-.308 5.3.814a6.449 6.449 0 0 1 1.937 3.8 72.164 72.164 0 0 1 1.775 14.517l-14.616.887z" data-name="Path 3102" transform="translate(-216.19 -239.103)"/>
                </g>
                <path id="Path_3103" d="M206.4 204.173a3.2 3.2 0 0 0-.647.2 3.321 3.321 0 0 0-1.4 1.133 4.7 4.7 0 0 0-.835 2.532 15.662 15.662 0 0 0 .256 3.33 55.441 55.441 0 0 0 1.357 5.956l.491 1.785a4.789 4.789 0 0 1 .157.663 3.5 3.5 0 0 1-.235-.637c-.141-.418-.329-1.044-.559-1.775a46.275 46.275 0 0 1-1.42-5.972 15.267 15.267 0 0 1-.24-3.377 4.781 4.781 0 0 1 .908-2.61 3.31 3.31 0 0 1 1.488-1.117 2.471 2.471 0 0 1 .522-.115.657.657 0 0 1 .157.004z" class="cls-24" data-name="Path 3103" transform="translate(-157.803 -177.384)"/>
                <path id="Path_3104" d="M194.79 233.52a8.251 8.251 0 0 1-1.19.684c-.752.4-1.806.914-2.986 1.446s-2.26.976-3.054 1.279a8.056 8.056 0 0 1-1.3.439 10.477 10.477 0 0 1 1.242-.579c.778-.334 1.848-.8 3.028-1.331s2.234-1.044 3-1.383a9.754 9.754 0 0 1 1.26-.555z" class="cls-24" data-name="Path 3104" transform="translate(-137.295 -191.415)"/>
                <path id="Path_3105" d="M197.563 277.62a8.66 8.66 0 0 1 3.534 11.6l-21.147 36.305-9.756-5.894 16.423-32.782-11.9-7.768" class="cls-15" data-name="Path 3105" transform="translate(-136.195 -212.495)"/>
                <path id="Path_3106" d="M156.558 274.17l29.029 1.044a8.655 8.655 0 0 1 8.352 8.786l-1.2 41.464h-12.21l.407-39.2-24.378-.642z" class="cls-15" data-name="Path 3106" transform="translate(-120.941 -210.845)"/>
                <path id="Path_3107" d="M181.912 300a1.988 1.988 0 0 0-.037.381c0 .277-.026.647-.047 1.1-.037.955-.073 2.339-.11 4.051-.073 3.414-.12 8.138-.146 13.358s-.052 9.918-.068 13.358c0 1.686 0 3.064-.026 4.051v1.1a1.949 1.949 0 0 0 0 .381 2.42 2.42 0 0 0 .031-.381c0-.277.031-.642.047-1.1.037-.955.073-2.339.11-4.046.073-3.419.125-8.144.151-13.364s.047-9.918.068-13.358v-5.152a2.377 2.377 0 0 0 .027-.379z" class="cls-19" data-name="Path 3107" transform="translate(-121.917 -223.192)"/>
                <path id="Path_3108" d="M187.46 223.76h8.78a6.405 6.405 0 0 1 6.405 6.389v30.642h17.545a4.437 4.437 0 0 1 4.437 4.432h-40.07v-.023a3.654 3.654 0 0 1-3.5-3.654v-31.397a6.4 6.4 0 0 1 6.403-6.389z" class="cls-18" data-name="Path 3108" transform="translate(-164.418 -186.75)"/>
                <path id="Path_3109" d="M227.936 225.7c-.078 0-.136 9-.136 20.113s.057 20.113.136 20.113.136-9 .136-20.113-.063-20.113-.136-20.113z" class="cls-13" data-name="Path 3109" transform="translate(-192.261 -187.678)"/>
                <path id="Path_3110" d="M211.476 335.4v-32.15h2.855v32.15c1.744 3.44 5.841 5.742 10.837 7.668H199.71c5.173-2.108 9.835-3.721 11.766-7.668z" class="cls-18" data-name="Path 3110" transform="translate(-174.695 -224.745)"/>
            </g>
            <g id="g10" transform="translate(109.188 28.414)">
                <g id="g12">
                    <path id="path706" d="M1308.342-979.338h-12.217v-2.353h12.217v2.353" class="cls-2" transform="translate(-1293.451 1014.692)"/>
                    <path id="path894" d="M1447.132-198.681a7.578 7.578 0 0 1-3.853 2.917c-2.249.518-4.466 1.344-4.482 2.763s6.5 2.267 9.078.835c3.844-2.136 4.233-1.491 4.66-2.559s-.513-3.923-.485-4.263c.035-.419-4.918.307-4.918.307" class="cls-3" transform="translate(-1416.451 340.019)"/>
                    <path id="path896" d="M1499.474-208.889a10.5 10.5 0 0 0-.25 1.184c.044.024 5.071.623 4.918-.307-.123-.754-.3-1.574-.3-1.574l-4.37.7" class="cls-20" transform="translate(-1468.544 349.044)"/>
                    <path id="path898" d="M1579.256-200.823a7.06 7.06 0 0 1-3.1 3.077c-2.09.836-3.765 1.8-3.726 3.18s5.107 2.785 8.795.131c2.331-1.678 3.068-1.686 3.443-2.743s-.649-3.8-.636-4.133c.018-.41-4.778.487-4.778.487" class="cls-3" transform="translate(-1531.661 342.002)"/>
                    <path id="path900" d="M1621.516-211.321a11.533 11.533 0 0 0 .057 1.191c.045.022 4.9.423 4.778-.487a7.457 7.457 0 0 0-.471-1.6l-4.365.892" class="cls-20" transform="translate(-1573.978 351.308)"/>
                    <path id="path902" d="M1449.663-747.624s-4.513 19.908-5.544 25.971c-.877 5.16-1.575 10.536-1.156 14.26.521 4.613 7.051 28.519 6.778 29.872s6.831.217 6.831.217-4.965-26.667-3.973-31.629c.733-3.677 7.172-28.094 8.159-26.842s2.21 23.046 2.939 26.662 2.974 32.2 2.974 32.2 5.015.739 6.354-.393c0 0 .61-24.408.145-31.19-.178-2.585 3.028-30.991-1.083-42.428-2.173-6.043-22.425 3.3-22.425 3.3" class="cls-15" transform="translate(-1419.935 817.495)"/>
                    <path id="path904" fill="#ebf0f3" d="M1345.645-1021.65c3.218-.45 13.337 4.031 14.257 3.694.633-.232 2.116-5.069 3.177-8.729.627-2.164 1.1-3.917 1.171-4.062v-.008a21.861 21.861 0 0 0 .035 3.927c.013.14.029.283.046.428 0 .037.009.076.013.114a19.521 19.521 0 0 0 .456 2.448 22.369 22.369 0 0 1 .531 4.6V-1019.025c.088 3.134-.127 6.513-.217 8.311a6.548 6.548 0 0 0 .8 4.076l.971-.136.7-.1h.007l.936-.13 3.671-.517 1.329-.188.314-.044 2.323-.327 6.556-.921.721-.1.3-.042 2.473-.349 1.116-.156s.95-6.73 1.022-10.369c.066-3.342 1.855-10.125 2.147-11.212l.006-.022.007-.029c.006-.019.009-.035.015-.048l.005-.024V-1031.378s5.352 5.622 6.388 8.074c.318.745 1.285 2.769 2.517 5.234a14.781 14.781 0 0 0 1.372-3.006v-.11c-.079-2.425-2.619-12.258-4.625-18.683-1.557-3.13-2.9-5.662-3.331-5.971a47.257 47.257 0 0 0-5.8-2.6c-.079-.031-.156-.063-.233-.092-.223-.09-.443-.175-.658-.259-.107-.04-.211-.082-.316-.121l-.169-.064-.138-.054a18.547 18.547 0 0 0-2.3-.785h-.149c-.068 0-.182.005-.3.015-1.482.086-5.9.5-7.326.636l-.443.042-1.7.774-.1.042c-.616.283-1.331.66-2.085 1.074-1.48.811-3.112 1.758-4.469 2.4-1.327.633-3.147 1.513-3.3 1.636l-6.732 19.415-11.681-2.134.675 4.259" transform="translate(-1335.562 1073.424)"/>
                    <path id="path906" fill="#424867" d="M1492.979-755.511s-.493.59-.636 3.088c0 0 20.281-2.366 22.425-3.3 0 0 .085-2.754-.371-2.8-.5-.051-21.417 3.011-21.417 3.011" transform="translate(-1462.615 822.294)"/>
                    <path id="path908" d="M1570.6-1100.213c-.064 3.182-6.226 4.925-6.226 4.925s-2.577-3.232-1.962-3.543c.241-.121.34-.6.369-1.143a11.34 11.34 0 0 0-.035-1.445c-.019-.225-.035-.37-.035-.37s.881-.928 2-2.035c1.958-1.936 4.649-4.416 4.653-3.428a.956.956 0 0 1-.022.186c-.474 2.221 1.257 6.854 1.257 6.854" class="cls-20" transform="translate(-1522.944 1123.134)"/>
                    <path id="path910" d="M1618.689-755.707s.442 2.791.48 3.519l.939-.187s-.259-2.953-.412-3.449l-1.007.118" class="cls-15" transform="translate(-1571.541 819.968)"/>
                    <path id="path912" d="M1506.947-739.866s-.355 2.537-.364 3.495l.993-.129s.2-3.168.316-3.5l-.945.132" class="cls-15" transform="translate(-1474.892 806.324)"/>
                    <path id="path914" fill="#a3b3e9" d="M1567.089-1088.624c-.011.018-.272.408-.719.97a12.935 12.935 0 0 1-4.724 3.931 11.528 11.528 0 0 0-.035-1.445 3.126 3.126 0 0 1-.613-.074 18.826 18.826 0 0 1 1.34-1.961l1.237-.37 3.515-1.053" transform="translate(-1521.803 1106.882)"/>
                    <path id="path916" d="M1542.284-1172.428c-.533 1.16-1.039 2-1.182 2.333a4.147 4.147 0 0 1-.719.971c-1.017 1.094-2.9 2.537-4.76 2.485a3.145 3.145 0 0 1-.612-.073 2.911 2.911 0 0 1-2.121-1.465 16.67 16.67 0 0 1-1.061-13.683s10.514-2.973 12.157.193c1.154 2.219-.449 6.513-1.7 9.238" class="cls-20" transform="translate(-1495.815 1188.352)"/>
                    <path id="path918" d="M1529.89-1214.548s-.976-.053-1.217-1.9c-.239-1.829.243-2.337.243-2.337a43.4 43.4 0 0 1 5.9-2.051c1.559-.238 5.39-.463 6.29.564 0 0 2.182-.507 2.777 3.116.943 5.747-3.215 11.328-3.215 11.328s.035-3.754-.792-4.252-1.542.686-1.542.686l-1.695.3s2.574-5.556-.513-5.762-4.467.63-6.234.309" class="cls-15" transform="translate(-1493.879 1221.042)"/>
                    <path id="path920" d="M1599.135-1157.363c.162-1.654 3.153-2.287 2.953-.553s-1.673 3.4-2.355 3.343-.72-1.528-.6-2.789" class="cls-20" transform="translate(-1554.635 1167.509)"/>
                    <path id="path922" d="M1593.4-1026.32l.005-.022.008-.03.014-.048.006-.024v-.012s3.156 4.932 2.917 9.217a20.268 20.268 0 0 1-1.665 4.513c-.351.789-.742 1.638-1.158 2.524-.017-.035-.031-.074-.046-.11a11.208 11.208 0 0 1-1-4.063s.276-9.397.919-11.945zm10.315 10.153v-.11a93.637 93.637 0 0 0-3.254-18.529c-.972-3.12-1.2-5.3-1.574-5.568-.653-.469-6.462-2.188-8.927-3.153l-.233-.092c-.223-.09-.443-.175-.658-.259-.107-.041-.211-.083-.316-.122l-.169-.064-.138-.053-.013.015a39.95 39.95 0 0 0-2.72 3.477c-2.545 3.62-5.861 9.479-5.352 14.891.162 1.737.364 4.232.7 7.03.03.241.061.482.09.725.083.645.173 1.3.27 1.969.059.4.121.8.185 1.206.673 4.2 2.787 7.057 4.663 10.479.016.027.031.057.047.086l.028.049.119.219c.064.119.127.241.191.362.037.07.074.14.109.21.36.689.711 1.393 1.052 2.1q.331.684.649 1.371l.065.142.789 1.833c.164.379.338.787.515 1.2.121.283.244.566.36.842.1.241.2.474.3.7.213.5.4.932.528 1.235.1.226.162.38.182.434.645 1.614 1.112 2.86 1.327 3.442l.13.362 6.488-3.581c1.232-.616.588-3.936.125-5.234a29.707 29.707 0 0 0-1.537-3.429c-.25-.489-.511-.983-.777-1.482 2.03-3.548 4.085-7.206 5.388-9.692a14.782 14.782 0 0 0 1.371-3.006" class="cls-3" transform="translate(-1538.453 1068.511)"/>
                    <path id="path924" d="M1310.337-1018.763l14.69 3.2 7-18.314c.154-.121 2.161-1.2 3.491-1.834 1.384-.66 3.134-1.473 4.688-2.189.743-.344 1.441-.664 2.031-.936l.05.039a86.567 86.567 0 0 0-1.989 10.094c-.039.243-.075.489-.114.741 0 .03-.007.059-.013.088-.026.165-.052.334-.075.505a.571.571 0 0 0-.009.061c-.019.114-.035.232-.052.347l-.127.872c-.5 3.508-1.2 9.477-1.877 15.5-.533 4.75-1.748 9.626-2.134 13.264v.007a25.228 25.228 0 0 1-.506 2.734l-.086.37c-1.087 4.59-3.2 11.091-3.2 11.091l-.614-.568-1.82-1.68a1.472 1.472 0 0 1-.408-1.522c1.009-3.256 4.439-14.781 5.068-22.884v-.005c.2-2.546-.548-4.945-.978-7.217a.476.476 0 0 0-.022.059c-.362 1-.761 2.1-1.165 3.16-1.083 2.855-2.189 5.5-2.651 5.67-1.027.379-20.371-4.91-20.5-5.67l1.322-4.988" class="cls-3" transform="translate(-1304.564 1063.959)"/>
                    <path id="path926" d="M1586.738-1036.218l-3 1.691 1.28 1.308-3.41 18.415c-.7-4.317-1.011-8.416-1.247-10.929-.785-8.369 7.565-17.8 8.085-18.384.4.153.835.32 1.281.5l-2.992 7.4" class="cls-28" transform="translate(-1538.455 1068.511)"/>
                    <path id="path928" d="M1519.412-1039.144a96.8 96.8 0 0 0-2.427 12.79c-.5 3.51-1.2 9.48-1.877 15.507l-.7-17.248 1.428-1.546-1.271-1.587 2.717-6.938c.743-.344 1.441-.663 2.032-.936l.1-.042" class="cls-28" transform="translate(-1481.639 1064.224)"/>
                    <path id="path930" d="M1585.948-1053.288l-2.485-1.509s-.069 1.364-6.227 4.925l1.748 4.923 6.964-8.339" class="cls-2" transform="translate(-1535.803 1077.719)"/>
                    <path id="path932" d="M1552.712-1049.811a11.605 11.605 0 0 0 1.639 4.237l-3.412 4.447-.248-7.214 2.022-1.471" class="cls-2" transform="translate(-1512.917 1073.42)"/>
                    <path id="path934" fill="#2585d3" d="M1564.325-1019.078s.662 2.644.423 3.385a3.226 3.226 0 0 1-2.5-.132 11.629 11.629 0 0 1 2.076-3.252" opacity="0.5" transform="translate(-1522.883 1046.924)"/>
                    <path id="path936" fill="#ad9f99" d="M1551.457-790.529c-.371-1.866-.018-7.458 0-7.7l.318.02c0 .057-.366 5.787 0 7.613l-.311.063" transform="translate(-1513.433 856.522)"/>
                    <path id="path938" fill="#c5d5df" d="M1546.461-748.652s-2.984.357-3.971.6l.129 3.344 3.909-.417-.066-3.53" transform="translate(-1505.847 813.784)"/>
                    <path id="path940" d="M1548.766-999.533a46.927 46.927 0 0 0-2.785 17.812c.563 9.754 1.485 13.291 1.485 13.291l2.052 2.574.906-3.164s-2.753-12.435-.976-24.537c.322-2.191.8-6.348.8-6.348l-1.482.372" class="cls-3" transform="translate(-1508.805 1030.394)"/>
                    <path id="path942" d="M1619.18-709.4s-.713 1.428-1.428 1.667a6.182 6.182 0 0 0-1.756 1.4l5.03 2.647a13.739 13.739 0 0 0 1.4-4.285c.061-1.666-3.243-1.428-3.243-1.428" class="cls-20" transform="translate(-1569.219 779.958)"/>
                    <path id="path944" d="M1633.542-708.358l-.333.671s3.193 2.335 4.055 2.484l.294-.892-4.017-2.263" class="cls-2" transform="translate(-1584.059 779.046)"/>
                    <path id="path946" d="M1633.21-808.841a24.465 24.465 0 0 0 4.41 2.892l6.783-12.2-3.515-6.795s-7.521 14.915-7.678 16.1" class="cls-3" transform="translate(-1584.059 879.558)"/>
                    <path id="path948" d="M1477.607-946.414c-.11 2.256-.094 4.261-.094 4.261 0 .011 0 .072-.009.173 0-.039-.009-.077-.013-.114-.362 1-.761 2.1-1.165 3.16a33.836 33.836 0 0 1-.09-3.445c.161-6.328 2.153-9.648 2.153-9.648a21.469 21.469 0 0 0-.781 5.611" class="cls-32" transform="translate(-1448.72 989.116)"/>
                    <path id="path950" d="M1672.747-747.823l-5.431 6.559 4.653-8.041c.267.5.528.993.777 1.482" class="cls-32" transform="translate(-1613.463 814.347)"/>
                    <path id="path952" d="M1296.579-962.081h-12.539a1.862 1.862 0 0 1-1.809-1.423l-5.446-22.487a1.862 1.862 0 0 1 1.81-2.3h12.537a1.862 1.862 0 0 1 1.811 1.425l5.445 22.485a1.863 1.863 0 0 1-1.809 2.3" class="cls-15" transform="translate(-1276.731 1020.382)"/>
                    <path id="path954" d="M1295.847-893.536c.613-.568 1.8-.9 2.81-1.576a.8.8 0 0 0 .167-1.375c1.042-.357.929-.833.8-1.156-.18-.437-1.317-.314-1.317-.314a11.184 11.184 0 0 0 1.439-.41c.42-.186.276-.917-.369-1.149s-3.274.417-3.274.417.429-.209 1.726-.86 1.581-1.243.817-1.528c-.531-.2-1.576.217-3.581 1.564-1.51 1.015-1.387 1.145-1.387 1.145s1.44 5.92 2.173 5.241" class="cls-20" transform="translate(-1291.336 945.587)"/>
                </g>
            </g>
        </g>
    </g>
</svg>
