<svg xmlns="http://www.w3.org/2000/svg" width="241.114" height="196.771" viewBox="0 0 241.114 196.771">
    <defs>
        <linearGradient id="prefix__linear-gradient" x2="1" y1=".5" y2=".5" gradientUnits="objectBoundingBox">
            <stop offset="0" stop-color="#ff697c"/>
            <stop offset="1" stop-color="#dd2175"/>
        </linearGradient>
        <style>
            .prefix__cls-3{fill:#e0e0e0}.prefix__cls-5{fill:#263238}.prefix__cls-10,.prefix__cls-11,.prefix__cls-12,.prefix__cls-14,.prefix__cls-15,.prefix__cls-16,.prefix__cls-18,.prefix__cls-19,.prefix__cls-20,.prefix__cls-21,.prefix__cls-8,.prefix__cls-9{fill-rule:evenodd}.prefix__cls-8{fill:#f9fbfc}.prefix__cls-9{fill:#747891}.prefix__cls-10{fill:rgba(108,131,172,.25)}.prefix__cls-11{fill:#e1e4f9}.prefix__cls-12{fill:#3d348b}.prefix__cls-14{fill:#171e48;opacity:.2}.prefix__cls-15{fill:#9b9fb8}.prefix__cls-16{fill:#3295e6}.prefix__cls-18{fill:#343c4e}.prefix__cls-19{fill:#ced6f2}.prefix__cls-20{fill:#646784}.prefix__cls-21{fill:#566683}
        </style>
    </defs>
    <g id="prefix__Group_2051" data-name="Group 2051" transform="translate(-53.968 -35.685)">
        <path id="prefix__Path_2127" fill="#e9edfc" d="M95.7 96.771c52.852 0 95.7-43.336 95.7-96.794s-43.32-78.869-95.7-96.794S0-53.481 0-.023s42.845 96.794 95.7 96.794z" data-name="Path 2127" transform="translate(88.115 135.685)"/>
        <g id="prefix__Background_Complete" data-name="Background Complete" transform="translate(64.082 139.006)">
            <g id="prefix__Group_19" data-name="Group 19">
                <g id="prefix__Group_3" data-name="Group 3">
                    <g id="prefix__Group_2" data-name="Group 2">
                        <path id="prefix__Path_1" fill="#ebebeb" d="M51.534 353.25c-10.54-5.117-14.649-17.075-16.033-28.191-.231-1.855-.744-3.769-.123-5.528s2.493-3.192 4.269-2.677c1.473.427 2.324 1.926 3.3 3.122a10.926 10.926 0 0 0 4.986 3.445 4.166 4.166 0 0 0 3.844-.26c1.452-1.132 1.29-3.361.986-5.2q-.849-5.127-1.7-10.253a17.322 17.322 0 0 1-.314-5.54 5.765 5.765 0 0 1 2.966-4.42 3.5 3.5 0 0 1 4.643 1.634 17.1 17.1 0 0 1 .416 2.277A1.955 1.955 0 0 0 60.2 303.3c.767.1 1.419-.539 1.882-1.163a24.721 24.721 0 0 0 3.329-7.312 34.3 34.3 0 0 1 3-7.478 10.05 10.05 0 0 1 6.125-4.843c2.605-.567 5.664.61 6.739 3.085s-.014 5.347-1.323 7.7a41.485 41.485 0 0 1-7.237 9.49 3.416 3.416 0 0 0-1.183 1.761c-.2 1.288 1.149 2.318 2.421 2.528a21.517 21.517 0 0 0 4.361-.2c1.458-.059 3.109.325 3.866 1.592 1.05 1.756-.206 3.973-1.545 5.506a35.537 35.537 0 0 1-9.434 7.65 11.987 11.987 0 0 0-3.562 2.491 3.441 3.441 0 0 0-.469 4.065 3.5 3.5 0 0 0 3.991.847 24.8 24.8 0 0 0 3.783-2.18c2.371-1.353 5.656-1.7 7.619.225A5.882 5.882 0 0 1 84 332.109a13.562 13.562 0 0 1-2.061 4.979 35.741 35.741 0 0 1-13.386 12.99c-5.529 2.96-10.864 4.373-17.018 3.171" data-name="Path 1" transform="translate(-35.082 -282.366)"/>
                    </g>
                </g>
                <g id="prefix__Group_6" data-name="Group 6" transform="translate(17.682 1.129)">
                    <g id="prefix__Group_5" data-name="Group 5">
                        <g id="prefix__Group_4" data-name="Group 4">
                            <path id="prefix__Path_2" d="M48.432 355.233c-.3-4.444-.494-2.139.257-7.975a166.519 166.519 0 0 1 3.711-18.747l1.225-4.864c.406-1.6.808-3.178 1.3-4.7a83.116 83.116 0 0 1 3.312-8.592c1.186-2.682 2.409-5.185 3.569-7.515s2.294-4.481 3.406-6.4a66.005 66.005 0 0 1 5.913-8.644c.775-.962 1.4-1.689 1.832-2.176l.493-.55a1.434 1.434 0 0 1 .177-.18 1.271 1.271 0 0 1-.15.2l-.468.573c-.413.5-1.022 1.241-1.781 2.215a69.79 69.79 0 0 0-5.807 8.683c-1.1 1.919-2.208 4.071-3.361 6.4s-2.361 4.838-3.536 7.516a84.071 84.071 0 0 0-3.28 8.566c-.484 1.515-.881 3.084-1.287 4.684l-1.226 4.873A170.589 170.589 0 0 0 49 347.3c-.765 5.816-.592 3.488-.328 7.918" class="prefix__cls-3" data-name="Path 2" transform="translate(-48.167 -284.89)"/>
                        </g>
                    </g>
                </g>
                <g id="prefix__Group_9" data-name="Group 9" transform="translate(18.634 15.387)">
                    <g id="prefix__Group_8" data-name="Group 8">
                        <g id="prefix__Group_7" data-name="Group 7">
                            <path id="prefix__Path_3" d="M95.644 336.527a3.768 3.768 0 0 1-.3-.754c-.178-.492-.41-1.212-.685-2.105-.55-1.786-1.226-4.279-1.961-7.031s-1.445-5.229-2.021-7c-.286-.887-.524-1.6-.7-2.1a3.721 3.721 0 0 1-.229-.781 3.723 3.723 0 0 1 .353.733c.21.479.484 1.185.8 2.065.637 1.759 1.387 4.235 2.122 6.99l1.864 7.053.579 2.133a3.73 3.73 0 0 1 .178.797z" class="prefix__cls-3" data-name="Path 3" transform="translate(-89.746 -316.758)"/>
                        </g>
                    </g>
                </g>
                <g id="prefix__Group_12" data-name="Group 12" transform="translate(24.531 26.983)">
                    <g id="prefix__Group_11" data-name="Group 11">
                        <g id="prefix__Group_10" data-name="Group 10">
                            <path id="prefix__Path_4" d="M61.475 342.683a5.2 5.2 0 0 1-.923.263c-.6.15-1.462.363-2.522.66-2.124.578-5.031 1.478-8.194 2.611s-5.981 2.293-7.995 3.186c-1.011.44-1.819.817-2.379 1.075a5.132 5.132 0 0 1-.885.373 5.142 5.142 0 0 1 .826-.493c.543-.295 1.337-.707 2.338-1.177 1.994-.952 4.807-2.145 7.979-3.288a84.253 84.253 0 0 1 8.249-2.522c1.071-.268 1.947-.445 2.555-.555a5.08 5.08 0 0 1 .951-.133z" class="prefix__cls-3" data-name="Path 4" transform="translate(-38.576 -342.677)"/>
                        </g>
                    </g>
                </g>
                <g id="prefix__Group_15" data-name="Group 15" transform="translate(1.744 34.766)">
                    <g id="prefix__Group_14" data-name="Group 14">
                        <g id="prefix__Group_13" data-name="Group 13">
                            <path id="prefix__Path_5" d="M120.083 388.323a1.234 1.234 0 0 1-.208-.262l-.54-.79c-.465-.688-1.113-1.7-1.9-2.962-1.569-2.523-3.627-6.075-5.844-10.026s-4.24-7.519-5.754-10.071l-1.8-3.017-.486-.824a1.24 1.24 0 0 1-.15-.3 1.268 1.268 0 0 1 .208.263l.539.789c.465.688 1.113 1.7 1.9 2.962 1.569 2.522 3.626 6.075 5.845 10.027s4.24 7.517 5.754 10.069c.741 1.239 1.349 2.259 1.8 3.016l.486.824a1.226 1.226 0 0 1 .15.302z" class="prefix__cls-3" data-name="Path 5" transform="translate(-103.402 -360.071)"/>
                        </g>
                    </g>
                </g>
                <g id="prefix__Group_18" data-name="Group 18" transform="translate(18.424 47.917)">
                    <g id="prefix__Group_17" data-name="Group 17">
                        <g id="prefix__Group_16" data-name="Group 16">
                            <path id="prefix__Path_6" d="M66.658 389.467a1.28 1.28 0 0 1-.291.178l-.863.45-3.185 1.623c-2.689 1.371-6.381 3.307-10.459 5.452s-7.792 4.049-10.511 5.365c-1.359.659-2.463 1.18-3.234 1.524l-.89.392a1.249 1.249 0 0 1-.321.115 1.317 1.317 0 0 1 .291-.179l.862-.45 3.185-1.623c2.689-1.37 6.382-3.307 10.46-5.452s7.791-4.049 10.509-5.364c1.359-.658 2.464-1.18 3.235-1.524l.89-.392a1.268 1.268 0 0 1 .322-.115z" class="prefix__cls-3" data-name="Path 6" transform="translate(-36.905 -389.465)"/>
                        </g>
                    </g>
                </g>
            </g>
        </g>
        <g id="prefix__Plants" transform="translate(41.825 179.611)">
            <g id="prefix__Group_339" data-name="Group 339" transform="translate(12.142 -19)">
                <path id="prefix__Path_112" fill="#2585d3" d="M85.878 326.218s-2.94.13-1.91 6.638a76.235 76.235 0 0 0 2.1 9.915s.083 1.46-1.073 1.306-3.433-1.319-4.354-.143c-.955 1.22-.374 2.853 1.291 4.663s5.169 5.908 5.484 6.279.5 1.095-.3 1.116-6.39-1.174-6.8 1.51 5.059 6.963 5.648 7.442.657.817.481 1.169-2.015-.227-3.617-.5-3.509-.313-3.615 1.256 2.577 5.81 11.215 9.591l4.117 1.49 3.41-2.778c6.934-6.389 8.088-11.274 7.477-12.723s-2.4-.791-3.827-.009-2.976 1.929-3.256 1.654-.326-.617.074-1.262 4.176-6.472 2.914-8.877-6.152.546-6.92.788-.824-.51-.65-.956 2.154-5.47 3.139-7.724 1-3.986-.3-4.829c-1.254-.812-3.026 1.032-4.07 1.554s-1.44-.885-1.44-.885a76.288 76.288 0 0 0-1.243-10.059c-1.148-6.489-4.036-5.618-4.036-5.618" data-name="Path 112" transform="translate(-79.21 -326.186)"/>
                <g id="prefix__Group_332" data-name="Group 332" transform="translate(7.578 5.863)">
                    <path id="prefix__Path_113" d="M103.86 339.289a.65.65 0 0 0 .013.12l.053.349.221 1.338.83 4.918 2.677 16.236c1.033 6.345 2 12.085 2.727 16.233l.884 4.909.252 1.333.07.346a.653.653 0 0 0 .03.117.6.6 0 0 0-.013-.12l-.053-.349-.221-1.338c-.2-1.171-.481-2.849-.831-4.918-.7-4.153-1.644-9.894-2.677-16.24s-2-12.081-2.727-16.23l-.884-4.909-.252-1.333-.07-.346a.6.6 0 0 0-.029-.116z" class="prefix__cls-5" data-name="Path 113" transform="translate(-103.859 -339.289)"/>
                </g>
                <g id="prefix__Group_333" data-name="Group 333" transform="translate(4.551 19.505)">
                    <path id="prefix__Path_114" d="M114.173 369.783a8.94 8.94 0 0 0 .88.782l2.156 1.847c.841.723 1.608 1.373 2.178 1.826.285.226.52.4.686.523a1.146 1.146 0 0 0 .269.168 10.869 10.869 0 0 0-.878-.783l-2.144-1.863c-.842-.723-1.617-1.363-2.191-1.811-.287-.223-.522-.4-.688-.519a1.166 1.166 0 0 0-.268-.17z" class="prefix__cls-5" data-name="Path 114" transform="translate(-114.173 -369.782)"/>
                </g>
                <g id="prefix__Group_334" data-name="Group 334" transform="translate(11.091 17.174)">
                    <path id="prefix__Path_115" d="M100.6 371.876c.037.029 1.343-1.583 2.917-3.6s2.82-3.675 2.783-3.7-1.343 1.583-2.917 3.6-2.816 3.672-2.783 3.7z" class="prefix__cls-5" data-name="Path 115" transform="translate(-100.603 -364.572)"/>
                </g>
                <g id="prefix__Group_335" data-name="Group 335" transform="translate(12.388 30.694)">
                    <path id="prefix__Path_116" d="M96.043 399.852a1.175 1.175 0 0 0 .286-.153c.179-.106.432-.269.741-.475.618-.413 1.458-1 2.35-1.706s1.668-1.375 2.215-1.879c.274-.251.49-.46.637-.608a1.179 1.179 0 0 0 .216-.242 9.743 9.743 0 0 0-.932.759c-.565.48-1.35 1.138-2.24 1.836s-1.714 1.3-2.313 1.741a9.567 9.567 0 0 0-.96.727z" class="prefix__cls-5" data-name="Path 116" transform="translate(-96.043 -394.789)"/>
                </g>
                <g id="prefix__Group_336" data-name="Group 336" transform="translate(5.483 32.559)">
                    <path id="prefix__Path_117" d="M110.417 398.96a7.144 7.144 0 0 0 .989.508c.62.294 1.48.689 2.436 1.117s1.824.806 2.456 1.072a7.172 7.172 0 0 0 1.038.4 7.246 7.246 0 0 0-.989-.508c-.62-.294-1.481-.689-2.436-1.117s-1.824-.806-2.456-1.072a7.255 7.255 0 0 0-1.038-.4z" class="prefix__cls-5" data-name="Path 117" transform="translate(-110.417 -398.958)"/>
                </g>
                <g id="prefix__Group_337" data-name="Group 337" transform="translate(5.362 42.661)">
                    <path id="prefix__Path_118" d="M106.246 421.538a1.67 1.67 0 0 0 .336.183l.944.441c.8.365 1.909.859 3.138 1.4s2.347 1.013 3.159 1.35l.965.392a1.68 1.68 0 0 0 .363.122 1.653 1.653 0 0 0-.337-.183l-.944-.441c-.8-.365-1.909-.859-3.139-1.4s-2.346-1.012-3.158-1.349l-.965-.391a1.678 1.678 0 0 0-.362-.124z" class="prefix__cls-5" data-name="Path 118" transform="translate(-106.246 -421.536)"/>
                </g>
                <g id="prefix__Group_338" data-name="Group 338" transform="translate(14.08 39.747)">
                    <path id="prefix__Path_119" d="M88.781 421.668a1.886 1.886 0 0 0 .349-.216c.219-.148.529-.369.91-.646.76-.557 1.8-1.348 2.9-2.268s2.076-1.789 2.762-2.435c.344-.322.617-.588.8-.776a1.9 1.9 0 0 0 .276-.3 1.905 1.905 0 0 0-.321.255l-.838.736c-.706.622-1.685 1.476-2.79 2.393s-2.124 1.722-2.865 2.3l-.877.689a1.93 1.93 0 0 0-.306.268z" class="prefix__cls-5" data-name="Path 119" transform="translate(-88.781 -415.024)"/>
                </g>
            </g>
        </g>
        <g id="prefix__Desktop" transform="translate(67.082 44.592)">
            <g id="prefix__Facebook-planning-management-tool" transform="translate(0 .508)">
                <g id="prefix__Section-1">
                    <g id="prefix__Group-2">
                        <g id="prefix__Illustration2">
                            <g id="prefix__Group-56" transform="translate(47.366 146.008)">
                                <path id="prefix__Fill-54" fill="#5148ff" fill-rule="evenodd" d="M.7 22.143h.668c.245-1.99.553-3.979.935-5.947a61.346 61.346 0 0 1 2.252-8.11c.251-.66.536-1.3.8-1.951.137-.324.257-.654.41-.972l.48-.939.473-.945a8.193 8.193 0 0 1 .513-.922L8.351.564c.234-.369.049-.52-.216-.146L6.914 2.173a7.513 7.513 0 0 0-.553.917l-.525.933-.518.939c-.166.313-.3.643-.45.967-.286.654-.593 1.3-.861 1.955a51.873 51.873 0 0 0-2.4 8.183C1.212 18.079.91 20.109.7 22.143" transform="translate(-.699 -.201)"/>
                            </g>
                            <g id="prefix__Group-112" transform="translate(38.237 27.135)">
                                <path id="prefix__Fill-108" fill="#e6e7e8" fill-rule="evenodd" d="M.59.251h127.967V151.43H.59z" transform="translate(-.59 -.251)"/>
                                <path id="prefix__Fill-110" d="M12.438 169.713H140.4v-128H12.438z" class="prefix__cls-8" transform="translate(-7.286 -23.685)"/>
                            </g>
                            <g id="prefix__Group-115" transform="translate(43.678 21.861)">
                                <path id="prefix__Fill-113" d="M.761 23.613H128.7V.464H.761z" class="prefix__cls-9" transform="translate(-.761 -.464)"/>
                            </g>
                            <g id="prefix__Group-136" transform="translate(58.243 28.386)">
                                <path id="prefix__Fill-116" d="M4.041 74.176h24.465a3.037 3.037 0 0 1 3.042 3.032V101.6a3.037 3.037 0 0 1-3.042 3.033H4.041A3.036 3.036 0 0 1 1 101.6V77.209a3.036 3.036 0 0 1 3.042-3.032" class="prefix__cls-10" transform="translate(-.599 -42.043)"/>
                                <path id="prefix__Fill-118" d="M80.766 74.057a2.64 2.64 0 0 0-2.641 2.633v24.391a2.641 2.641 0 0 0 2.641 2.633h24.465a2.64 2.64 0 0 0 2.642-2.633V76.69a2.64 2.64 0 0 0-2.642-2.633zm24.465 30.455H80.766a3.44 3.44 0 0 1-3.442-3.431V76.69a3.44 3.44 0 0 1 3.442-3.431h24.465a3.441 3.441 0 0 1 3.442 3.431v24.391a3.441 3.441 0 0 1-3.442 3.431z" class="prefix__cls-11" transform="translate(-43.735 -41.525)"/>
                                <path id="prefix__Fill-120" d="M158.532 74.176H183a3.037 3.037 0 0 1 3.042 3.032V101.6a3.037 3.037 0 0 1-3.042 3.032h-24.468a3.037 3.037 0 0 1-3.042-3.033v-24.39a3.037 3.037 0 0 1 3.042-3.032" class="prefix__cls-10" transform="translate(-87.91 -42.043)"/>
                                <path id="prefix__Fill-122" d="M3.521 151.069A2.64 2.64 0 0 0 .879 153.7v24.391a2.641 2.641 0 0 0 2.641 2.633h24.466a2.641 2.641 0 0 0 2.641-2.633V153.7a2.64 2.64 0 0 0-2.641-2.633zm24.465 30.455H3.521a3.44 3.44 0 0 1-3.442-3.431V153.7a3.44 3.44 0 0 1 3.442-3.431h24.465a3.44 3.44 0 0 1 3.442 3.431v24.391a3.44 3.44 0 0 1-3.442 3.431z" class="prefix__cls-11" transform="translate(-.079 -85.048)"/>
                                <path id="prefix__Fill-124" d="M81.286 151.188h24.465a3.036 3.036 0 0 1 3.042 3.032v24.391a3.037 3.037 0 0 1-3.042 3.032H81.286a3.037 3.037 0 0 1-3.042-3.032V154.22a3.036 3.036 0 0 1 3.042-3.032" class="prefix__cls-10" transform="translate(-44.255 -85.566)"/>
                                <path id="prefix__Fill-126" d="M158.012 151.069a2.64 2.64 0 0 0-2.642 2.633v24.391a2.641 2.641 0 0 0 2.642 2.633h24.465a2.64 2.64 0 0 0 2.642-2.633V153.7a2.64 2.64 0 0 0-2.642-2.633zm24.465 30.455h-24.465a3.44 3.44 0 0 1-3.442-3.431V153.7a3.44 3.44 0 0 1 3.442-3.431h24.465a3.44 3.44 0 0 1 3.442 3.431v24.391a3.44 3.44 0 0 1-3.442 3.431z" class="prefix__cls-11" transform="translate(-87.39 -85.048)"/>
                                <path id="prefix__Fill-128" d="M28.506 228.2H4.041A3.037 3.037 0 0 0 1 231.231v24.39a3.037 3.037 0 0 0 3.042 3.033h24.464a3.037 3.037 0 0 0 3.042-3.033v-24.39a3.037 3.037 0 0 0-3.042-3.033m0 2.393a.641.641 0 0 1 .641.64v24.39a.642.642 0 0 1-.641.639H4.041a.641.641 0 0 1-.641-.639v-24.39a.641.641 0 0 1 .641-.64h24.465" class="prefix__cls-10" transform="translate(-.599 -129.089)"/>
                                <path id="prefix__Fill-130" d="M80.766 228.078a2.641 2.641 0 0 0-2.641 2.634V255.1a2.641 2.641 0 0 0 2.641 2.633h24.465a2.64 2.64 0 0 0 2.642-2.633v-24.39a2.64 2.64 0 0 0-2.642-2.634zm24.465 30.456H80.766a3.44 3.44 0 0 1-3.442-3.431v-24.39a3.441 3.441 0 0 1 3.442-3.432h24.465a3.441 3.441 0 0 1 3.442 3.432V255.1a3.441 3.441 0 0 1-3.442 3.431z" class="prefix__cls-11" transform="translate(-43.735 -128.57)"/>
                                <path id="prefix__Fill-132" d="M158.532 228.2H183a3.037 3.037 0 0 1 3.042 3.033v24.39a3.037 3.037 0 0 1-3.042 3.031h-24.468a3.037 3.037 0 0 1-3.042-3.033v-24.39a3.037 3.037 0 0 1 3.042-3.033" class="prefix__cls-10" transform="translate(-87.91 -129.089)"/>
                                <path id="prefix__Fill-134" d="M214.973 5.566a5.3 5.3 0 1 0 5.3-5.286 5.294 5.294 0 0 0-5.3 5.286" class="prefix__cls-12" transform="translate(-121.527 -.28)"/>
                            </g>
                            <g id="prefix__Group-139" transform="translate(153.607 12.204)">
                                <path id="prefix__Fill-137" fill="url(#prefix__linear-gradient)" fill-rule="evenodd" d="M.08 2.848V21.71a2.8 2.8 0 0 0 2.838 2.755 2.8 2.8 0 0 0 2.837-2.755V2.848A2.8 2.8 0 0 0 2.918.093 2.8 2.8 0 0 0 .08 2.848" transform="translate(-.08 -.093)"/>
                            </g>
                            <path id="prefix__Fill-140" d="M120.57 70.667a5.16 5.16 0 1 0 5.16-5.16 5.16 5.16 0 0 0-5.16 5.16" class="prefix__cls-14" transform="translate(-68.141 -37.242)"/>
                            <g id="prefix__Group-144" transform="translate(55.196 12.204)">
                                <path id="prefix__Fill-142" d="M.666 2.848V21.71A2.743 2.743 0 0 0 3.4 24.465a2.742 2.742 0 0 0 2.73-2.755V2.848A2.742 2.742 0 0 0 3.4.093 2.743 2.743 0 0 0 .666 2.848" class="prefix__cls-15" transform="translate(-.666 -.093)"/>
                            </g>
                            <path id="prefix__Fill-145" d="M178.481 70.667a5.16 5.16 0 1 0 5.16-5.16 5.16 5.16 0 0 0-5.16 5.16" class="prefix__cls-14" transform="translate(-100.869 -37.242)"/>
                            <g id="prefix__Group-149" transform="translate(79.902 12.204)">
                                <path id="prefix__Fill-147" d="M.52 2.848V21.71a2.743 2.743 0 0 0 2.73 2.755 2.743 2.743 0 0 0 2.731-2.755V2.848A2.743 2.743 0 0 0 3.25.093 2.742 2.742 0 0 0 .52 2.848" class="prefix__cls-15" transform="translate(-.52 -.093)"/>
                            </g>
                            <path id="prefix__Fill-150" d="M234.494 70.667a5.16 5.16 0 1 0 5.16-5.16 5.16 5.16 0 0 0-5.16 5.16" class="prefix__cls-14" transform="translate(-132.525 -37.242)"/>
                            <g id="prefix__Group-154" transform="translate(104.194 12.204)">
                                <path id="prefix__Fill-152" d="M.371 2.848V21.71A2.744 2.744 0 0 0 3.1 24.465a2.743 2.743 0 0 0 2.73-2.755V2.848A2.742 2.742 0 0 0 3.1.093 2.743 2.743 0 0 0 .371 2.848" class="prefix__cls-15" transform="translate(-.371 -.093)"/>
                            </g>
                            <path id="prefix__Fill-155" d="M292.4 70.667a5.16 5.16 0 1 0 5.16-5.16 5.16 5.16 0 0 0-5.16 5.16" class="prefix__cls-12" transform="translate(-165.254 -37.242)"/>
                            <g id="prefix__Group-162" transform="translate(63.194 133.724)">
                                <path id="prefix__Fill-160" d="M17.573.731L6.99 11.261l-3.523-3.53a1.021 1.021 0 0 0-.722-.3 1.023 1.023 0 0 0-.724.3L.373 9.368a1.011 1.011 0 0 0 0 1.435l5.895 5.9a1.021 1.021 0 0 0 .722.3 1.016 1.016 0 0 0 .723-.3L20.666 3.808a1.019 1.019 0 0 0 .3-.718 1.024 1.024 0 0 0-.3-.719l-1.65-1.64a1.017 1.017 0 0 0-.721-.3 1.017 1.017 0 0 0-.721.3" class="prefix__cls-16" transform="translate(-.073 -.433)"/>
                            </g>
                            <g id="prefix__Clocks" transform="translate(109.569)">
                                <g id="prefix__Group-183">
                                    <path id="prefix__Fill-181" d="M.391 59.314a58.87 58.87 0 0 0 58.8 58.805 58.876 58.876 0 0 0 53.458-34.328 59.28 59.28 0 0 0 3.115-8.434 58.756 58.756 0 0 0 2.222-16.044A58.869 58.869 0 0 0 59.193.508 58.871 58.871 0 0 0 .391 59.314" class="prefix__cls-9" transform="translate(-.391 -.508)"/>
                                </g>
                                <g id="prefix__Group-220" transform="translate(5.685 5.106)">
                                    <path id="prefix__Fill-184" fill="#dddfe9" fill-rule="evenodd" d="M106.816 53.553A53.354 53.354 0 1 1 53.462.228a53.34 53.34 0 0 1 53.354 53.325" transform="translate(-.108 -.228)"/>
                                    <path id="prefix__Fill-186" d="M107.492 56.483a51.1 51.1 0 1 1-51.1-51.071 51.085 51.085 0 0 1 51.1 51.071" class="prefix__cls-8" transform="translate(-3.04 -3.158)"/>
                                    <path id="prefix__Fill-188" d="M121.794 118.479a3.372 3.372 0 1 1-3.372-3.37 3.371 3.371 0 0 1 3.372 3.37" class="prefix__cls-9" transform="translate(-65.068 -65.153)"/>
                                    <path id="prefix__Fill-190" d="M122.1 75.237a1.552 1.552 0 0 1-1.552-1.551V37.4a1.552 1.552 0 0 1 3.1 0v36.286a1.551 1.551 0 0 1-1.552 1.551" class="prefix__cls-9" transform="translate(-68.175 -20.36)"/>
                                    <path id="prefix__Fill-192" d="M85.676 122.393H57.65a1.551 1.551 0 1 1 0-3.1h28.026a1.551 1.551 0 1 1 0 3.1" class="prefix__cls-9" transform="translate(-31.751 -67.517)"/>
                                    <path id="prefix__Fill-194" d="M123.311 16.932a.621.621 0 0 1-.621-.62v-4.019a.621.621 0 0 1 1.241 0v4.018a.621.621 0 0 1-.621.62" class="prefix__cls-18" transform="translate(-69.386 -6.696)"/>
                                    <path id="prefix__Fill-196" d="M70.236 30.441a.62.62 0 0 1-.538-.31l-2.01-3.48a.621.621 0 0 1 1.075-.62l2.01 3.48a.621.621 0 0 1-.537.931" class="prefix__cls-18" transform="translate(-38.254 -14.635)"/>
                                    <path id="prefix__Fill-198" d="M31.029 68.665a.619.619 0 0 1-.31-.083l-3.481-2.009a.621.621 0 1 1 .621-1.075l3.481 2.009a.62.62 0 0 1-.311 1.158" class="prefix__cls-18" transform="translate(-15.265 -37.069)"/>
                                    <path id="prefix__Fill-200" d="M16.2 121.36h-4.02a.621.621 0 1 1 0-1.241h4.02a.621.621 0 1 1 0 1.241" class="prefix__cls-18" transform="translate(-6.579 -67.985)"/>
                                    <path id="prefix__Fill-202" d="M26.236 173.8a.62.62 0 0 1-.311-1.158l3.481-2.009a.62.62 0 1 1 .621 1.075l-3.481 2.009a.617.617 0 0 1-.31.083" class="prefix__cls-18" transform="translate(-14.523 -96.488)"/>
                                    <path id="prefix__Fill-204" d="M65.95 212.547a.62.62 0 0 1-.537-.931l2.01-3.48a.621.621 0 1 1 1.075.621l-2.01 3.48a.62.62 0 0 1-.538.31" class="prefix__cls-18" transform="translate(-36.968 -117.553)"/>
                                    <path id="prefix__Fill-206" d="M120.685 227.209a.62.62 0 0 1-.621-.621v-4.018a.621.621 0 0 1 1.241 0v4.018a.62.62 0 0 1-.621.621" class="prefix__cls-18" transform="translate(-67.902 -125.535)"/>
                                    <path id="prefix__Fill-208" d="M173.158 213.859a.62.62 0 0 1-.538-.31l-2.01-3.48a.62.62 0 1 1 1.075-.62l2.01 3.479a.62.62 0 0 1-.537.931" class="prefix__cls-18" transform="translate(-96.421 -118.294)"/>
                                    <path id="prefix__Fill-210" d="M211.921 176.077a.622.622 0 0 1-.31-.083l-3.481-2.009a.621.621 0 1 1 .621-1.075l3.481 2.009a.621.621 0 0 1-.311 1.158" class="prefix__cls-18" transform="translate(-117.497 -97.773)"/>
                                    <path id="prefix__Fill-212" d="M226.592 123.985h-4.02a.621.621 0 1 1 0-1.241h4.02a.621.621 0 1 1 0 1.241" class="prefix__cls-18" transform="translate(-125.483 -69.468)"/>
                                    <path id="prefix__Fill-214" d="M209.754 70.938a.62.62 0 0 1-.311-1.158l3.481-2.009a.62.62 0 1 1 .621 1.075l-3.481 2.009a.618.618 0 0 1-.31.083" class="prefix__cls-18" transform="translate(-118.239 -38.353)"/>
                                    <path id="prefix__Fill-216" d="M173.421 31.753a.621.621 0 0 1-.537-.931l2.01-3.479a.621.621 0 1 1 1.075.62l-2.01 3.479a.62.62 0 0 1-.538.31" class="prefix__cls-18" transform="translate(-97.706 -15.376)"/>
                                </g>
                            </g>
                            <g id="prefix__Group-42" transform="translate(173.388 72.85)">
                                <path id="prefix__Fill-510" d="M99.711 153.98c-1.052.177-6.855 1.11-7.523.247a45.1 45.1 0 0 0 1.708 5.83c1.222 3.39 7.715 23.99 8.226 28.073 0 0 1.189 2.1 1.956-.565.793-2.752.11-24.353-2.518-29.425-1.548-2.986-1.856-3.907-1.849-4.161" class="prefix__cls-19" transform="translate(-52.101 -87.022)"/>
                                <path id="prefix__Fill-511" d="M111.031 230.889a7.573 7.573 0 0 1-3.474 3.536c-2.326.971 1.962 1.839 4.091.194s2.326-.971 3.2-1.243-1.782-3.074-1.782-3.074a1.884 1.884 0 0 1-2.031.588" class="prefix__cls-18" transform="translate(-60.406 -130.156)"/>
                                <path id="prefix__Fill-513" d="M72.988 154.76c-1.011-.162-6.571-1.1-6.935-2.119a46.437 46.437 0 0 0-.1 6.025c.15 3.574.211 25-.485 29.008 0 0 .489 2.345 1.945.079 1.507-2.344 7.033-22.9 6.079-28.5-.562-3.3-.582-4.26-.5-4.5" class="prefix__cls-19" transform="translate(-36.999 -86.266)"/>
                                <path id="prefix__Fill-514" d="M58.491 234.318a7.4 7.4 0 0 1-4.253 2c-2.443.167 1.291 2.093 3.746 1.3s2.443-.166 3.33-.152-.766-3.08-.766-3.08a1.978 1.978 0 0 1-2.058-.073" class="prefix__cls-18" transform="translate(-30.203 -132.426)"/>
                                <path id="prefix__Fill-515" d="M62.8 88.505c.111 10.149 0 16.763 0 16.763s9.243 6.267 23.664 0c0 0 1.39-25.85-4.144-32.768s-15.347.822-15.347.822-4.287 5.033-4.173 15.183z" class="prefix__cls-9" transform="translate(-35.489 -39.349)"/>
                                <path id="prefix__Fill-518" d="M51.183 1.039a8.087 8.087 0 0 0-4.323-1c-3.486.432-5.16 4.403-7.853 6.645-2.45 2.037-5.762 2.608-8.771 3.669q-.335.118-.667.245a26.329 26.329 0 0 0-7.444 4.372c-2.256 1.886-4.32 4.941-3.013 7.569a5.175 5.175 0 0 0 4.765 2.494c1.866-.039 3.134-1.72 5.014-1.005a30.627 30.627 0 0 0 3.1 1.475c1.928.493 3.943-.656 5.217-2.179a45.237 45.237 0 0 0 3.1-5.075 10.367 10.367 0 0 1 6.664-4.613c1.84-.315 3.409-.005 5.219-.461a6.054 6.054 0 0 0 3.565-8.57 9.992 9.992 0 0 0-4.569-3.567" class="prefix__cls-20" transform="translate(-10.571)"/>
                                <path id="prefix__Fill-519" d="M42.715 32.141c-10.409-.335-12.491 13.747-15.558 17.1s-15.12 9.5-15.12 9.5c-.147.856 1.1 1.341 1.1 1.341s13.805-4.471 16-5.738 7.816-8.905 7.816-8.905c.583 1.672 1.9 1.455 1.9 1.455 1.38 2.906-1.153 5.573-1.153 5.573.793 1.214 3.628 1.372 6.543 1.457 4.061.119 8.231-.744 7.074-2.262-1.99-2.607-1.738-6.741-.934-6.854a9.3 9.3 0 0 1 3.629 2.437c.824 1.039 1.521 2.291 1.412 3.076a.368.368 0 0 1-.024.092c-.55 1.643-9.764 6.02-9.764 6.02l-.121.4.333.756c2.485.688 8.373-.32 11.8-2.043 1.552-.778 2.6-1.705 2.6-2.687a41.108 41.108 0 0 0-3.4-13.9c-1.863-3.912-3.726-6.483-14.135-6.818" class="prefix__cls-16" transform="translate(-6.796 -18.161)"/>
                                <path id="prefix__Fill-522" d="M90.637 55.883a1.512 1.512 0 0 0-2.044-.843l-7.513 3.611a1.723 1.723 0 0 0-.782 2.2l2.331 5.609 1.242 2.993.118-.41s9-4.509 9.538-6.2l-1.355-3.263z" class="prefix__cls-21" transform="translate(-45.305 -31.025)"/>
                                <path id="prefix__Fill-525" d="M3.8 94.136c-.221 1.058-1.549 1.481-2.434 1.481s-1.549 0-1.328.423 3.54.846 5.089-.423 1.84-1.2 1.84-1.2l-1.359-2.029s-1.582.69-1.8 1.748" class="prefix__cls-19" transform="translate(0 -52.214)"/>
                                <path id="prefix__Fill-526" d="M85.03 14.889c.663-1.1 1.1-3.529.443-4.412s-.663-.883-1.546-1.986-.22 0-1.987 1.1-3.313-.22-3.09.883a21 21 0 0 1 .22 3.089 2.72 2.72 0 0 0 2.207 2.407l-.042 1.8a1.566 1.566 0 0 0 1.73 1.325 2.064 2.064 0 0 0 2-1.023l-.475-2.692a1.637 1.637 0 0 0 .536-.492" class="prefix__cls-19" transform="translate(-44.55 -4.54)"/>
                                <path id="prefix__Fill-524" d="M84.914 79.884c.059.5-.518.3-.939-.926s-.509-1.975-.881-.426-.887 3.438 2.821 4.368c0 0 .936-.664-.033-1.84 0 0-1.027-1.676-.969-1.176" class="prefix__cls-19" transform="translate(-46.815 -43.89)"/>
                                <path id="prefix__Fill-523" d="M101.122 85.693c-3.41 1.763-9.132 3.124-11.606 2.42l1.529 3.587a1.555 1.555 0 0 0 2.084.837l7.656-3.586a1.691 1.691 0 0 0 .8-2.184z" class="prefix__cls-21" transform="translate(-50.591 -48.43)"/>
                            </g>
                            <g id="prefix__Group-24" transform="translate(0 65.006)">
                                <path id="prefix__Fill-499" fill="#71abdb" fill-rule="evenodd" d="M61.384 38.985s-4.639 4.633-8.1 8.356C52 48.73 50.541 46.316 50.039 45.2c-.971-2.16-1.8-4.417-3.435-6.2-2.746-3-6.795-4.4-10.763-5.012s-8.074-1-12-.136a22.745 22.745 0 0 0-7.341 3.116A51.475 51.475 0 0 0 7.327 44.9C4.174 48.176-2.228 53.321.786 58.383c1.346 2.261 16.4 9.762 16.4 9.762l1.6-1.958s-8.544-9.521-8.928-10.265 5.249-4.526 6.785-3.146 3.805 13.016 3.805 13.016c8.541 6.617 19.058 0 19.058 0 .6-.377.859-3.867 1-4.529.525-2.426.077-4.6.9-6.914a1.6 1.6 0 0 1 2.28-.946c3.533 1.215 6.52 6.781 10.623 3.417 2.712-2.22 4.051-5.82 5.515-8.844a64.462 64.462 0 0 0 3.185-7.736 3.817 3.817 0 0 1-1.625-1.255" transform="translate(0 -18.848)"/>
                                <path id="prefix__Fill-501" d="M46.514 251.775c-1.025-.448-3.168-1.735-3.168-1.735a2.207 2.207 0 0 1-1.936-.586 3.809 3.809 0 0 0-1.01 1.706c-.076.768-.3 2.338 0 2.571a3.5 3.5 0 0 0 2.277 0 3.437 3.437 0 0 1 2.315.188c.721.28 3.757.313 3.985-.555s-1.442-1.141-2.467-1.589" class="prefix__cls-16" transform="translate(-22.747 -140.981)"/>
                                <path id="prefix__Fill-502" d="M86.763 251.775c-1.024-.448-3.167-1.734-3.167-1.734a2.205 2.205 0 0 1-1.937-.586 3.807 3.807 0 0 0-1.006 1.705c-.076.768-.3 2.338 0 2.571a3.5 3.5 0 0 0 2.277 0 3.434 3.434 0 0 1 2.315.188c.721.279 3.757.313 3.985-.555s-1.442-1.141-2.467-1.589" class="prefix__cls-16" transform="translate(-45.495 -140.981)"/>
                                <path id="prefix__Fill-503" d="M57.228 106.719s-10.945 5.109-19.134 0c0 0-6.262 8.609-5.877 16.6s4.049 15 2.6 17.854a28.064 28.064 0 0 0-1.639 16.738 67.388 67.388 0 0 0 3.663 11.461h2.6s1.253-17.5 3.181-22a48.549 48.549 0 0 0 3.47-14.91c.386-5.012 1.028-8.774 1.542-9.143s2.467 14.67 1.555 18.911-1.041 16.495 3.329 27.142h3.084s1.794-21.148 3.048-26.219c.993-4.015 1.958-26.3-1.145-35.64q-.137-.412-.283-.788" class="prefix__cls-9" transform="translate(-18.198 -60.313)"/>
                                <path id="prefix__Fill-504" d="M43.349 108.053a24.96 24.96 0 0 0-2.867.414l-1.573 2.058a3.608 3.608 0 0 0 2.551.2c1.512-.4 2.929.989 3.685.791s-1.039-3.461-1.8-3.461" class="prefix__cls-19" transform="translate(-21.989 -61.067)"/>
                                <path id="prefix__Fill-505" fill="#e9eeff" fill-rule="evenodd" d="M148.685 42.155a7.652 7.652 0 0 1-3.628 0s1.663-.441 1.31-.736-2.67.491-3.477.491-2.016 1.619-2.016 1.619c.454 1.618 1.663 1.275 1.663 1.275a3.269 3.269 0 0 1 2.57-.735c1.613.2 5.089-1.079 5.1-1.627s-.214-.826-1.524-.286" transform="translate(-79.616 -23.371)"/>
                                <path id="prefix__Fill-506" d="M60.08 8.545a4.024 4.024 0 0 0-1.869 1.5 4.416 4.416 0 0 0-.484 2.773c.03.307.06.628.094.956.195 1.856.534 3.951 1.873 5.291a4.649 4.649 0 0 0 4.066 1.044c2.883-.406 3.684-5.022 3.684-5.022a10.825 10.825 0 0 0 0-3.7c-.709-3.272-4.52-4.056-7.364-2.84" class="prefix__cls-19" transform="translate(-32.605 -4.523)"/>
                                <path id="prefix__Fill-507" d="M64.094 12.108a1.539 1.539 0 0 1-.165.207.574.574 0 0 1-.126.1.986.986 0 0 1-.737-.026 8.27 8.27 0 0 0-3.743-.189 1.468 1.468 0 0 1-.631.03 1.075 1.075 0 0 1-.38-.206 5.3 5.3 0 0 1-1.475-2.471 2.447 2.447 0 0 1-.208-.908 2.449 2.449 0 0 1 1.1-1.63 3.926 3.926 0 0 1 1.3-.821 8.219 8.219 0 0 1 1.344-.173 3.7 3.7 0 0 0 1.434-.521c.186-.114.454-.233.588-.061a.541.541 0 0 1 .075.244 2.068 2.068 0 0 0 .751 1.107 9.969 9.969 0 0 0 1.348 1.015c1.9 1.189.424 3.029-.475 4.3m1.237-8.429c-.389-.434-.35-.552-.311-1.459s-1.712-1.025-2.257-.749S61.6 1.312 61.324.405s-2.959-.118-3.387.671-.544 1.853-.937 1.972a1.584 1.584 0 0 0-.959 1.538 5.52 5.52 0 0 1-.831 2.563c-.35.552-.272 1.026.389 1.832a4.529 4.529 0 0 0 .684.7 13.608 13.608 0 0 0-.178 2.634 6.8 6.8 0 0 1-.022 3c-.329 1.183 1.345 2.5 2.2 2.59s.622 1.314 2.724 1.235 2.257-1.328 2.919-1.235a3.05 3.05 0 0 0 2.49-1.565c.506-.986-.195-3.51-.195-4.456a17.962 17.962 0 0 0-.013-2.021 13.227 13.227 0 0 0 1.024-2.12c.156-.631-.545-1.42-.634-2.13a4.51 4.51 0 0 0-1.273-1.932" class="prefix__cls-20" transform="translate(-31.088)"/>
                                <path id="prefix__Fill-508" d="M67.839 29.348c-.354 0-.805.185-.751.349.022.066.124.128.346.173.3.061 1.23.142 1.375-.163.125-.264-.219-.36-.97-.36" class="prefix__cls-19" transform="translate(-37.912 -16.586)"/>
                            </g>
                        </g>
                    </g>
                </g>
            </g>
        </g>
    </g>
</svg>
