<svg xmlns="http://www.w3.org/2000/svg" xmlns:xlink="http://www.w3.org/1999/xlink" width="162.742" height="161.777" viewBox="0 0 162.742 161.777">
  <defs>
    <clipPath id="clip-path">
      <path id="Path_3728" data-name="Path 3728" d="M74.624,55.247c41.214,0,74.624-34.191,74.624-76.368s-33.78-62.226-74.624-76.368S0-63.3,0-21.121,33.41,55.247,74.624,55.247Z" transform="translate(0 100)" fill="none"/>
    </clipPath>
    <clipPath id="clip-path-2">
      <path id="Path_3727" data-name="Path 3727" d="M-282,662.255H1525.931V-346H-282Z" transform="translate(282 346)" fill="none"/>
    </clipPath>
  </defs>
  <g id="No_comments...start_a_conversation_2" data-name="No comments...start a conversation 2" transform="translate(-1101.144 -87.429)">
    <g id="Group_2859" data-name="Group 2859" transform="translate(1110 89)" clip-path="url(#clip-path)">
      <g id="Group_2858" data-name="Group 2858" transform="translate(-478.271 -419.68)" clip-path="url(#clip-path-2)">
        <path id="Path_3726" data-name="Path 3726" d="M-5-105H161.208V67.308H-5Z" transform="translate(474.791 516.15)" fill="#e9edfc"/>
      </g>
    </g>
    <g id="Group_2857" data-name="Group 2857" transform="translate(70.075 74.019)">
      <path id="Path_3692" data-name="Path 3692" d="M14.083,370.541H108.81v3.246a3.255,3.255,0,0,1-3.246,3.246H17.328a3.255,3.255,0,0,1-3.246-3.246v-3.246Z" transform="translate(1085 -231.361)" fill="#7794f3"/>
      <path id="Path_3693" data-name="Path 3693" d="M189.708,370.541h25.956v.954a.957.957,0,0,1-.954.954H190.661a.957.957,0,0,1-.954-.954v-.954Z" transform="translate(943.76 -231.361)" fill="#fff"/>
      <path id="Path_3694" data-name="Path 3694" d="M53.889,108.306H135.3a1.778,1.778,0,0,1,1.807,1.735v47.873a1.777,1.777,0,0,1-1.807,1.735H53.889a1.778,1.778,0,0,1-1.807-1.735V110.041A1.777,1.777,0,0,1,53.889,108.306Z" transform="translate(1051.807 -20.272)" fill="#a3b7ff"/>
      <path id="Path_3695" data-name="Path 3695" d="M70.307,125.714h78.917v45.428H70.307Z" transform="translate(1036.603 -34.664)" fill="#fff"/>
      <g id="Group_2854" data-name="Group 2854" transform="translate(1134.377 74.472)">
        <g id="Group_2839" data-name="Group 2839" transform="translate(0)">
          <path id="Path_3640" data-name="Path 3640" d="M77.561,31.571c12.034,0,21.789,7.447,21.789,16.634S89.595,64.84,77.561,64.84,55.771,57.392,55.771,48.2,65.527,31.571,77.561,31.571Z" transform="translate(-55.771 -31.571)" fill="#c3d0ff"/>
          <path id="Path_3641" data-name="Path 3641" d="M73.617,76.968,63.022,78.519s4.4,9.361,16.488,13.267C79.51,91.786,72.56,84.969,73.617,76.968Z" transform="translate(-40.257 -51.016)" fill="#c3d0ff"/>
        </g>
        <ellipse id="Ellipse_395" data-name="Ellipse 395" cx="2.618" cy="2.618" rx="2.618" ry="2.618" transform="translate(11.089 14.301)" fill="#fff"/>
        <ellipse id="Ellipse_396" data-name="Ellipse 396" cx="2.618" cy="2.618" rx="2.618" ry="2.618" transform="translate(18.941 14.301)" fill="#fff"/>
        <ellipse id="Ellipse_397" data-name="Ellipse 397" cx="2.618" cy="2.618" rx="2.618" ry="2.618" transform="translate(26.794 14.301)" fill="#fff"/>
      </g>
      <g id="Group_2855" data-name="Group 2855" transform="translate(1115.883 97.515)">
        <g id="Group_2839-2" data-name="Group 2839" transform="translate(0)">
          <path id="Path_3640-2" data-name="Path 3640" d="M71.59,31.571c-8.736,0-15.819,5.407-15.819,12.076S62.854,55.724,71.59,55.724s15.819-5.407,15.819-12.077S80.327,31.571,71.59,31.571Z" transform="translate(-55.771 -31.571)" fill="#a3b7ff"/>
          <path id="Path_3641-2" data-name="Path 3641" d="M67.3,76.968l7.692,1.126a20.539,20.539,0,0,1-11.97,9.632S68.067,82.777,67.3,76.968Z" transform="translate(-59.881 -58.127)" fill="#a3b7ff"/>
        </g>
        <ellipse id="Ellipse_395-2" data-name="Ellipse 395" cx="1.9" cy="1.9" rx="1.9" ry="1.9" transform="translate(19.787 10.383)" fill="#fff"/>
        <ellipse id="Ellipse_396-2" data-name="Ellipse 396" cx="1.9" cy="1.9" rx="1.9" ry="1.9" transform="translate(14.087 10.383)" fill="#fff"/>
        <ellipse id="Ellipse_397-2" data-name="Ellipse 397" cx="1.9" cy="1.9" rx="1.9" ry="1.9" transform="translate(8.386 10.383)" fill="#fff"/>
      </g>
    </g>
    <g id="Group_2868" data-name="Group 2868" transform="translate(1101.144 87.429)">
      <path id="Path_3635" data-name="Path 3635" d="M18.058,10.344,17.892.8a.318.318,0,0,0-.269-.4L16.7.073C16.549.073,1.7-.153.847.191S-.668,1.625,1.208,2.91,7.892,4.973,7.892,4.973l.62,5.932Z" transform="matrix(-1, -0.017, 0.017, -1, 62.39, 159.08)" fill="#646784"/>
      <path id="Path_3636" data-name="Path 3636" d="M16.074,12.9l.837-9.532a.318.318,0,0,0-.269-.4l-.185-.15C16.311,2.812,12.676,1.1.967,0a1.552,1.552,0,0,0-.1,2.8C2.744,4.09,6.406,6.658,6.406,6.658L6.522,12.9Z" transform="translate(35.815 161.777) rotate(-177)" fill="#646784"/>
      <path id="Path_3555" data-name="Path 3555" d="M1014.208,129.978c1.669-.876,4.146,6.457,1.525,7.718s-4.619-4.113-4.619-4.113S1012.462,130.895,1014.208,129.978Z" transform="translate(-941.276 -79.446)" fill="#646784"/>
      <path id="Path_3556" data-name="Path 3556" d="M1004.076,128.587a13.492,13.492,0,0,0-2.8.083,7.691,7.691,0,0,1-3.518.581c-.956-.167-3.052,1.431-3.052,1.431a8.39,8.39,0,0,1-.66-4.578,4.9,4.9,0,0,0,1.547-.795c.5-.7.285-2.022,1.465-3.116a12.171,12.171,0,0,0,2.13-3.048s.886-.038.761.792-1.034,1.791-.976,2.179a1,1,0,0,0,.059.225.059.059,0,0,1,0,.02.917.917,0,0,0,.517.577.114.114,0,0,0,.053.022c.929.224,2.889-.62,3.723-1.077,1.159-.638,2.807-1.427,2.9-.569s-.9.539-3.207,2.426l.1.286a11.2,11.2,0,0,0,3.566-1c1.181-.5,1.144.461.868.808a10.32,10.32,0,0,1-2.382,1.053c-.564.24-1.153.486-1.5.631l-.013.4c2.553.119,3.172-.688,3.551-.047s-1.409,1.255-2.224,1.227a7.014,7.014,0,0,0-1.618.307c1.934.472,2.568-.016,2.757.559C1006.324,128.565,1004.743,128.754,1004.076,128.587Z" transform="translate(-922.389 -74.79)" fill="#a0b5ff"/>
      <path id="Path_3558" data-name="Path 3558" d="M1014.772,88.726c4.107,1.977,11.183,27.029,11.183,27.029s1.087-1.082,1.531-.3,12.5-3.3,12.5-3.3a6.2,6.2,0,0,0,1.525,7.718s-12.88,6.341-17.225,7.2-11.159-21.141-11.159-21.141Z" transform="translate(-967.057 -61.626)" fill="#7794f3"/>
      <path id="Path_3567" data-name="Path 3567" d="M40.533,80.589c0-11.3-1.112-22.818-1.4-25.739S35.825,19.3,35.4,6.683a55.4,55.4,0,0,0-.5-6C29.626-1.178,22.2,1.266,23.458,2.146c0,0,.107.587.443,6.381s1.868,57.115,1.868,57.115l-2.752.176L10.3,2.688A19.777,19.777,0,0,0,0,4.05L1.278,12.1s9.654,60.6,8.912,67.372Z" transform="translate(54.455 154.174) rotate(-177)" fill="#c9c9d6"/>
      <path id="Path_3568" data-name="Path 3568" d="M1090.651,101.752c.005.749.005,1.515,0,2.286,0,1.429-.017,2.9-.04,4.39-.011.754-.022,1.515-.039,2.275-.034,1.815-.079,3.642-.136,5.428-.023.771-.045,1.537-.068,2.292-.068,2.082-.147,4.1-.221,5.967-.034.812-.068,1.595-.1,2.343-.068,1.7-.142,3.245-.2,4.556-.045.93-.085,1.752-.124,2.433-.074,1.441-.12,2.269-.12,2.269s-3.6,3.869-11.515,5.122c-13.943,2.206-18.708-4.5-18.708-4.5s-.057-.528-.153-1.47c-.068-.618-.147-1.418-.244-2.365-.119-1.128-.25-2.467-.4-3.964q-.111-1.1-.221-2.3c-.159-1.673-.329-3.482-.5-5.377-.062-.737-.13-1.492-.193-2.252-.135-1.515-.267-3.074-.391-4.634-.062-.76-.125-1.526-.182-2.286-.136-1.679-.255-3.358-.369-5-.051-.783-.1-1.549-.147-2.309-.114-1.792-.2-3.523-.278-5.134-.034-.811-.063-1.588-.08-2.331-.051-1.673-.068-3.171-.034-4.436.023-.959.068-1.781.147-2.433a4,4,0,0,1,.4-1.588c1.355-1.991,4.356-2.916,10.2-4.549a21.558,21.558,0,0,1,4.771-.766c2.275-.108,4.419-.125,6.387-.023,5.077.272,9.008,1.35,11.089,3.846.057.068.114.136.171.21a5.731,5.731,0,0,1,.686,2.246,43.046,43.046,0,0,1,.426,4.413c.046.72.079,1.486.1,2.292C1090.611,98.054,1090.645,99.858,1090.651,101.752Z" transform="translate(-1040.606 -59.292)" fill="#7794f3"/>
      <path id="Path_3577" data-name="Path 3577" d="M1087.383,73.471l-1.257,7.43s-2.012,1.155-6.689-1.471c0,0,1.906-5.73-.5-9.5,0,0,.529-.012,1.371.02C1080.311,69.952,1081.5,74.214,1087.383,73.471Z" transform="translate(-1050.255 -53.491)" fill="#8da7ff"/>
      <path id="Path_3578" data-name="Path 3578" d="M1087.99,47.733s2.147-1.753.206-2.324c0,0,.819-2.146-.12-2.5s-1.9.512-2.418-.408-1.657-2.392-3.664-.949-3.124-.926-3.986-.16-.336,2-1.744,2.189-2.725.513-2.405,1.922-1.23,1.5-1.3,2.361.588,1.11.648,1.842-.983,1.044-.609,2.145,1.44.943,1.355,1.733-.784,2.534.226,2.782,1.389,2.025,2.567,1.773S1087.99,47.733,1087.99,47.733Z" transform="translate(-1048.237 -40.95)" fill="#646784"/>
      <path id="Path_3579" data-name="Path 3579" d="M1073.1,56.853c-.255,7.044,9.8,10.074,11.689,6.717a21.912,21.912,0,0,0,1.427-6.121c.052-.467.088-.94.11-1.413.142-3.209-.429-6.4-2.274-7.109C1077.639,46.461,1073.415,48.215,1073.1,56.853Z" transform="translate(-1045.907 -43.96)" fill="#a0b5ff"/>
      <path id="Path_3588" data-name="Path 3588" d="M1077.476,55.029A5.739,5.739,0,0,1,1078.871,51c1.545-1.477.2-3.65.2-3.65s6.19-1.047,8.946,1.457c0,0,2.063-3.626-3.828-5.107s-15.457,3.094-7.419,15.518l-1.311-4.3Z" transform="translate(-1048.267 -42.024)" fill="#646784"/>
      <path id="Path_3589" data-name="Path 3589" d="M1095.792,62.563s-1.386-1.66-2.7-.665.842,4.042,2.249,3.944S1095.792,62.563,1095.792,62.563Z" transform="translate(-1066.782 -49.878)" fill="#a0b5ff"/>
      <path id="Path_3590" data-name="Path 3590" d="M1.373,7.617C-.129,7.642-.979.728,1.961,0,1.961,0,5.484,7.549,1.373,7.617Z" transform="matrix(-0.985, -0.174, 0.174, -0.985, 21.958, 66.049)" fill="#646784"/>
      <path id="Path_3591" data-name="Path 3591" d="M12.186,1.745C11.542,1.485,7.034-.115,6.142.007a.718.718,0,0,0-.1.016A15.609,15.609,0,0,0,3.589,1.262c-.633.23-.851.833-1.4,1.243a3.846,3.846,0,0,0-.9,1.657S-.594,5.847.192,6.072c.982.276,2.093-.709,2.093-.709l2.431-.415s2.92,1.153,2.8,1.739-1.332.1-2.39.192c-.7.054-.75.817-.75.817l1.8.453a12.578,12.578,0,0,0,3.191.193C9.925,8.113,12,6.8,12,6.8l3.89.086L16.645,1.8A25.586,25.586,0,0,1,12.186,1.745Z" transform="matrix(-0.985, -0.174, 0.174, -0.985, 32.478, 68.274)" fill="#a0b5ff"/>
      <path id="Path_3593" data-name="Path 3593" d="M10.36,37.559c-4.006-2.105-5.424-10.875-5-14.431l4.406-11.7S8.9,9.845,9.611,9.562L0,9.29S2.46,6.729.588,1.673c0,0,12.563-3.764,17.945,0,1.557,1.089,2.392,4.195,2,6.465A104.905,104.905,0,0,1,10.36,37.559Z" transform="matrix(-0.985, -0.174, 0.174, -0.985, 20.315, 67.458)" fill="#7794f3"/>
      <path id="Path_3639" data-name="Path 3639" d="M1.7,5.9c-.346,2.6-.475,3.031-.779,5.535A23.785,23.785,0,0,1,0,4.337,9.125,9.125,0,0,1,1.837,0C1.86,2.5,1.553,3.737,1.7,5.9Z" transform="matrix(1, -0.017, 0.017, 1, 16.139, 44.195)" opacity="0.3"/>
    </g>
  </g>
</svg>
