<svg xmlns="http://www.w3.org/2000/svg" xmlns:xlink="http://www.w3.org/1999/xlink" width="175.219" height="155.247" viewBox="0 0 175.219 155.247">
  <defs>
    <clipPath id="clip-path">
      <path id="Path_1968" data-name="Path 1968" d="M74.624,55.247c41.214,0,74.624-34.191,74.624-76.368s-33.78-62.226-74.624-76.368S0-63.3,0-21.121,33.41,55.247,74.624,55.247Z" transform="translate(0 100)" fill="none"/>
    </clipPath>
    <clipPath id="clip-path-2">
      <path id="Path_1967" data-name="Path 1967" d="M-282,662.255H1525.929V-346H-282Z" transform="translate(282 346)" fill="none"/>
    </clipPath>
  </defs>
  <g id="processing" transform="translate(-89 -300)">
    <g id="Group_1152" data-name="Group 1152" transform="translate(89 300)" clip-path="url(#clip-path)">
      <g id="Group_1151" data-name="Group 1151" transform="translate(-478.27 -419.68)" clip-path="url(#clip-path-2)">
        <path id="Path_1966" data-name="Path 1966" d="M-5-105H161.207V67.308H-5Z" transform="translate(474.79 516.15)" fill="#e9edfc"/>
      </g>
    </g>
    <path id="Path_2743" data-name="Path 2743" d="M290.449,722.725H170.684a3.353,3.353,0,0,0-2.173.8l-12.066,10.223a3.571,3.571,0,0,0,2.17,6.3h143.9a3.571,3.571,0,0,0,2.17-6.3l-12.07-10.223A3.335,3.335,0,0,0,290.449,722.725Z" transform="translate(-41.782 -319.776)" fill="#c3d0ff"/>
    <path id="Path_2745" data-name="Path 2745" d="M158.19,731.687c-5.284-1.689-2.8-7.032.428-7.032h143.9a3.528,3.528,0,0,1,1.2,6.818C287.843,731.542,180.6,731.687,158.19,731.687Z" transform="translate(-41.786 -311.4)" fill="#7794f3"/>
    <path id="Path_2744" data-name="Path 2744" d="M380.605,398.582V335.874H274.321v62.708Zm-54.165-22.54H303.434v-2.859H326.44Zm1.442,0v-2.859h23.009v2.859Zm47.457,0H352.33v-2.859h23.009ZM278.987,341.2h96.352v29.41H278.987Zm0,31.983h23.007v2.859H278.987Z" transform="translate(-138.792 -6.692)" fill="#fff"/>
    <rect id="Rectangle_800" data-name="Rectangle 800" width="23.007" height="2.859" transform="translate(140.194 366.491)" fill="#e9edfc"/>
    <rect id="Rectangle_802" data-name="Rectangle 802" width="23.006" height="2.859" transform="translate(164.643 366.491)" fill="#e9edfc"/>
    <rect id="Rectangle_803" data-name="Rectangle 803" width="23.01" height="2.859" transform="translate(189.09 366.491)" fill="#e9edfc"/>
    <rect id="Rectangle_808" data-name="Rectangle 808" width="23.01" height="2.859" transform="translate(213.537 366.491)" fill="#e9edfc"/>
    <g id="Group_2147" data-name="Group 2147" transform="translate(191.257 380.841) rotate(-41)">
      <g id="Group_2140" data-name="Group 2140" transform="translate(0 0)">
        <g id="Group_2135" data-name="Group 2135" transform="translate(0 0)">
          <path id="Path_2737" data-name="Path 2737" d="M1.572,19.339,0,17.208,16.228,5.2l12.681,8.669L49.158,0l1.495,2.184L28.909,17.074,16.286,8.444Z" transform="translate(0 0)" fill="#7794f3"/>
        </g>
        <g id="Group_2136" data-name="Group 2136" transform="translate(43.921 -1.151) rotate(10)">
          <path id="Path_2738" data-name="Path 2738" d="M7.509,7.508H5.166V2.342H0V0H7.509Z" fill="#7794f3"/>
        </g>
      </g>
      <path id="Path_2737-2" data-name="Path 2737" d="M5.824,2.912A2.912,2.912,0,1,0,2.912,5.824,2.913,2.913,0,0,0,5.824,2.912Z" transform="translate(25.828 12.061)" fill="#7794f3"/>
      <path id="Path_2738-2" data-name="Path 2738" d="M5.824,2.912A2.912,2.912,0,1,0,2.911,5.824,2.912,2.912,0,0,0,5.824,2.912Z" transform="translate(13.389 3.909)" fill="#7794f3"/>
    </g>
    <circle id="Ellipse_355" data-name="Ellipse 355" cx="10.5" cy="10.5" r="10.5" transform="translate(166 350)" fill="#fff"/>
    <g id="Group_2145" data-name="Group 2145" transform="matrix(0.914, 0.407, -0.407, 0.914, 164.886, 330.284)">
      <g id="Group_802" data-name="Group 802" transform="translate(0 0)">
        <path id="Path_667" data-name="Path 667" d="M45.8,19.332l-5.634-1.848a17.342,17.342,0,0,0-.761-1.831l2.614-5.227a1.369,1.369,0,0,0-.257-1.58L37.891,4.973a1.368,1.368,0,0,0-1.58-.257L31.084,7.331a17.331,17.331,0,0,0-1.831-.761L27.405.936A1.368,1.368,0,0,0,26.107,0H20.63a1.368,1.368,0,0,0-1.3.936L17.484,6.57a17.339,17.339,0,0,0-1.831.761L10.426,4.717a1.365,1.365,0,0,0-1.58.257L4.973,8.846a1.369,1.369,0,0,0-.257,1.58l2.614,5.227a17.331,17.331,0,0,0-.761,1.831L.936,19.332A1.368,1.368,0,0,0,0,20.63v5.477a1.368,1.368,0,0,0,.936,1.3L6.57,29.253a17.339,17.339,0,0,0,.761,1.831L4.717,36.311a1.369,1.369,0,0,0,.257,1.58l3.872,3.872a1.366,1.366,0,0,0,1.58.257l5.227-2.614a17.332,17.332,0,0,0,1.831.761L19.332,45.8a1.368,1.368,0,0,0,1.3.936h5.477a1.368,1.368,0,0,0,1.3-.936l1.848-5.634a17.341,17.341,0,0,0,1.831-.761l5.227,2.614a1.374,1.374,0,0,0,1.58-.257l3.872-3.872a1.369,1.369,0,0,0,.257-1.58l-2.614-5.227a17.33,17.33,0,0,0,.761-1.831L45.8,27.405a1.368,1.368,0,0,0,.936-1.3V20.63A1.368,1.368,0,0,0,45.8,19.332ZM23.369,32.953a9.585,9.585,0,1,1,9.585-9.585A9.6,9.6,0,0,1,23.369,32.953Z" fill="#7794f3"/>
      </g>
    </g>
    <path id="Path_2742" data-name="Path 2742" d="M235.483,295.758a3.429,3.429,0,0,0-3.427,3.432v70.975a3.427,3.427,0,0,0,3.427,3.428H350.839a3.43,3.43,0,0,0,3.431-3.428V299.19a3.433,3.433,0,0,0-3.431-3.432Zm110.708,70.16H239.907V303.21H346.191Z" transform="translate(-104.379 25.972)" fill="#c3d0ff"/>
    <circle id="Ellipse_356" data-name="Ellipse 356" cx="8" cy="8" r="8" transform="translate(199 323)" fill="#fff"/>
    <g id="Group_2146" data-name="Group 2146" transform="translate(189.274 313.15)">
      <g id="Group_802-2" data-name="Group 802" transform="translate(0 0)">
        <path id="Path_667-2" data-name="Path 667" d="M36.031,15.208,31.6,13.754a13.641,13.641,0,0,0-.6-1.44L33.057,8.2a1.077,1.077,0,0,0-.2-1.243L29.808,3.912a1.076,1.076,0,0,0-1.243-.2L24.453,5.767a13.634,13.634,0,0,0-1.44-.6L21.559.736A1.076,1.076,0,0,0,20.538,0H16.229a1.076,1.076,0,0,0-1.021.736L13.754,5.168a13.64,13.64,0,0,0-1.44.6L8.2,3.71a1.074,1.074,0,0,0-1.243.2L3.912,6.959A1.077,1.077,0,0,0,3.71,8.2l2.057,4.112a13.634,13.634,0,0,0-.6,1.44L.736,15.208A1.076,1.076,0,0,0,0,16.229v4.309a1.076,1.076,0,0,0,.736,1.021l4.432,1.454a13.64,13.64,0,0,0,.6,1.44L3.71,28.565a1.077,1.077,0,0,0,.2,1.243l3.046,3.046a1.075,1.075,0,0,0,1.243.2L12.314,31a13.633,13.633,0,0,0,1.44.6l1.454,4.432a1.076,1.076,0,0,0,1.021.736h4.309a1.076,1.076,0,0,0,1.021-.736L23.013,31.6a13.641,13.641,0,0,0,1.44-.6l4.112,2.057a1.081,1.081,0,0,0,1.243-.2l3.046-3.046a1.077,1.077,0,0,0,.2-1.243L31,24.453a13.634,13.634,0,0,0,.6-1.44l4.432-1.454a1.076,1.076,0,0,0,.736-1.021V16.229A1.076,1.076,0,0,0,36.031,15.208ZM18.383,25.924a7.54,7.54,0,1,1,7.54-7.54A7.549,7.549,0,0,1,18.383,25.924Z" fill="#96acff"/>
      </g>
    </g>
  </g>
</svg>
