<svg xmlns="http://www.w3.org/2000/svg" xmlns:xlink="http://www.w3.org/1999/xlink" width="164" height="170" viewBox="0 0 164 170">
  <defs>
    <clipPath id="clip-path">
      <path id="Path_2277" data-name="Path 2277" d="M82,79c45.287,0,82-37.44,82-83.625S126.881-72.764,82-88.25,0-50.81,0-4.625,36.713,79,82,79Z" transform="translate(0 91)" fill="none"/>
    </clipPath>
    <clipPath id="clip-path-2">
      <path id="Path_2276" data-name="Path 2276" d="M-105,2887.154H2945.773V-709H-105Z" transform="translate(105 709)" fill="none"/>
    </clipPath>
    <clipPath id="clip-path-3">
      <path id="Path_2280" data-name="Path 2280" d="M92.206-29.1,74.279-36,61.424-31.464,48.568-36,30.642-29.1A9.063,9.063,0,0,0,25-20.573V-6.514a2.208,2.208,0,0,0,2.143,2.268H95.7a2.208,2.208,0,0,0,2.143-2.268V-20.573A9.062,9.062,0,0,0,92.206-29.1Z" transform="translate(-25 36)" fill="none" clip-rule="evenodd"/>
    </clipPath>
    <clipPath id="clip-path-4">
      <path id="Path_2279" data-name="Path 2279" d="M-105,2886.66H2952.712V-709H-105Z" transform="translate(105 709)" fill="none"/>
    </clipPath>
    <clipPath id="clip-path-5">
      <path id="Path_2283" data-name="Path 2283" d="M92.206-29.5,74.279-36,61.424-31.73,48.568-36,30.642-29.5A8.54,8.54,0,0,0,25-21.48V-8.249a2.139,2.139,0,0,0,2.143,2.135H95.7a2.139,2.139,0,0,0,2.143-2.135V-21.48A8.54,8.54,0,0,0,92.206-29.5Z" transform="translate(-25 36)" fill="none" clip-rule="evenodd"/>
    </clipPath>
    <clipPath id="clip-path-7">
      <path id="Path_2286" data-name="Path 2286" d="M44.779-32,43-9.585h7.472L48.693-32Z" transform="translate(-43 32)" fill="none" clip-rule="evenodd"/>
    </clipPath>
    <clipPath id="clip-path-9">
      <path id="Path_2289" data-name="Path 2289" d="M48.977-26.528H44.495A1.523,1.523,0,0,1,43-28.079V-34h7.472v5.921A1.523,1.523,0,0,1,48.977-26.528Z" transform="translate(-43 34)" fill="none" clip-rule="evenodd"/>
    </clipPath>
    <clipPath id="clip-path-11">
      <path id="Path_2292" data-name="Path 2292" d="M77.829-48.194V-65.8A4.14,4.14,0,0,0,73.754-70H49.3A16.562,16.562,0,0,0,33-53.189v5a21.61,21.61,0,0,0,1.046,6.645l.678,2.1a6.483,6.483,0,0,1,.314,1.993v1.078H75.791v-1.078A6.483,6.483,0,0,1,76.1-39.45l.678-2.1A21.606,21.606,0,0,0,77.829-48.194Z" transform="translate(-33 70)" fill="none" clip-rule="evenodd"/>
    </clipPath>
    <clipPath id="clip-path-13">
      <path id="Path_2295" data-name="Path 2295" d="M38-61.463a8.509,8.509,0,0,0,8.481,8.537h1.174l.567,16.548H71.4v-1.078a6.341,6.341,0,0,1,.321-1.993l.695-2.1a21.137,21.137,0,0,0,1.071-6.645V-65.8A4.189,4.189,0,0,0,69.314-70H46.481A8.509,8.509,0,0,0,38-61.463Z" transform="translate(-38 70)" fill="none" clip-rule="evenodd"/>
    </clipPath>
    <clipPath id="clip-path-15">
      <path id="Path_2298" data-name="Path 2298" d="M38-44H64.15v18.679H38Z" transform="translate(-38 44)" fill="none" clip-rule="evenodd"/>
    </clipPath>
    <clipPath id="clip-path-17">
      <path id="Path_2301" data-name="Path 2301" d="M38-36.421a25.443,25.443,0,0,0,13.075,3.628A25.442,25.442,0,0,0,64.15-36.421V-44H38Z" transform="translate(-38 44)" fill="none" clip-rule="evenodd"/>
    </clipPath>
    <clipPath id="clip-path-19">
      <path id="Path_2304" data-name="Path 2304" d="M52.7-30.454l-6.608,7.379a1.936,1.936,0,0,1-3.116-.237L36.126-33.394l1.792-4.218a1.973,1.973,0,0,1,2.959-.978Z" transform="translate(-36.126 38.934)" fill="none" clip-rule="evenodd"/>
    </clipPath>
    <clipPath id="clip-path-21">
      <path id="Path_2307" data-name="Path 2307" d="M45-30.454l6.608,7.379a1.936,1.936,0,0,0,3.116-.237l6.852-10.082-1.792-4.218a1.973,1.973,0,0,0-2.959-.978Z" transform="translate(-45 38.934)" fill="none" clip-rule="evenodd"/>
    </clipPath>
    <clipPath id="clip-path-23">
      <path id="Path_2310" data-name="Path 2310" d="M53.547-22.775A20.656,20.656,0,0,1,33-43.537v-2.432a4.176,4.176,0,0,1,1.2-2.936l1.7-1.72a4.175,4.175,0,0,0,1.2-2.936v-4.977a2.056,2.056,0,0,1,1.565-2.018c4.86-1.16,19.981-3.907,30.273,3.741a2.674,2.674,0,0,1,1.038,2.151v1.1a4.176,4.176,0,0,0,1.2,2.936l1.7,1.72a4.175,4.175,0,0,1,1.2,2.936v2.432A20.654,20.654,0,0,1,53.547-22.775Z" transform="translate(-33 62)" fill="none" clip-rule="evenodd"/>
    </clipPath>
  </defs>
  <g id="Group_1357" data-name="Group 1357" transform="translate(0 91)">
    <g id="Group_1358" data-name="Group 1358" transform="translate(0 -91)" clip-path="url(#clip-path)">
      <g id="Group_1357-2" data-name="Group 1357" transform="translate(-195.682 -1154.505)" clip-path="url(#clip-path-2)">
        <path id="Path_2275" data-name="Path 2275" d="M-5-96H177.636V92.681H-5Z" transform="translate(191.364 1241.165)" fill="#e9edfc"/>
      </g>
    </g>
    <g id="Group_1360" data-name="Group 1360" transform="translate(46.507 11.75)" clip-path="url(#clip-path-3)">
      <g id="Group_1359" data-name="Group 1359" transform="translate(-242.824 -1257.08)" clip-path="url(#clip-path-4)">
        <path id="Path_2278" data-name="Path 2278" d="M20-41h91.526V9.433H20Z" transform="translate(213.484 1288.741)" fill="#6b81de"/>
      </g>
    </g>
    <g id="Group_1362" data-name="Group 1362" transform="translate(46.507 11.75)" clip-path="url(#clip-path-5)">
      <g id="Group_1361" data-name="Group 1361" transform="translate(-242.824 -1257.08)" clip-path="url(#clip-path-4)">
        <path id="Path_2281" data-name="Path 2281" d="M20-41h91.526V7.565H20Z" transform="translate(213.484 1288.741)" fill="#7794f3"/>
      </g>
    </g>
    <g id="Group_1364" data-name="Group 1364" transform="translate(80.128 19.222)" clip-path="url(#clip-path-7)">
      <g id="Group_1363" data-name="Group 1363" transform="translate(-276.446 -1264.552)" clip-path="url(#clip-path-4)">
        <path id="Path_2284" data-name="Path 2284" d="M38-37H64.15V4.093H38Z" transform="translate(229.106 1292.212)" fill="#5567b1"/>
      </g>
    </g>
    <g id="Group_1366" data-name="Group 1366" transform="translate(80.128 15.484)" clip-path="url(#clip-path-9)">
      <g id="Group_1365" data-name="Group 1365" transform="translate(-276.446 -1260.816)" clip-path="url(#clip-path-4)">
        <path id="Path_2287" data-name="Path 2287" d="M38-39H64.15v26.15H38Z" transform="translate(229.106 1290.477)" fill="#4d5da0"/>
      </g>
    </g>
    <g id="Group_1368" data-name="Group 1368" transform="translate(61.448 -51.768)" clip-path="url(#clip-path-11)">
      <g id="Group_1367" data-name="Group 1367" transform="translate(-257.767 -1193.573)" clip-path="url(#clip-path-4)">
        <path id="Path_2290" data-name="Path 2290" d="M28-75H91.508v52.3H28Z" transform="translate(220.427 1259.233)" fill="#6d718e"/>
      </g>
    </g>
    <g id="Group_1370" data-name="Group 1370" transform="translate(70.774 -51.768)" clip-path="url(#clip-path-13)">
      <g id="Group_1369" data-name="Group 1369" transform="translate(-267.106 -1193.573)" clip-path="url(#clip-path-4)">
        <path id="Path_2293" data-name="Path 2293" d="M33-75H87.168v52.3H33Z" transform="translate(224.767 1259.233)" fill="#646784"/>
      </g>
    </g>
    <g id="Group_1372" data-name="Group 1372" transform="translate(70.788 -3.196)" clip-path="url(#clip-path-15)">
      <g id="Group_1371" data-name="Group 1371" transform="translate(-267.106 -1242.137)" clip-path="url(#clip-path-4)">
        <path id="Path_2296" data-name="Path 2296" d="M33-49H77.829v37.358H33Z" transform="translate(224.767 1281.798)" fill="#e4e9f9"/>
      </g>
    </g>
    <g id="Group_1374" data-name="Group 1374" transform="translate(70.788 -3.197)" clip-path="url(#clip-path-17)">
      <g id="Group_1373" data-name="Group 1373" transform="translate(-267.106 -1242.137)" clip-path="url(#clip-path-4)">
        <path id="Path_2299" data-name="Path 2299" d="M33-49H77.829v29.886H33Z" transform="translate(224.767 1281.798)" fill="#e0e6fb"/>
      </g>
    </g>
    <g id="Group_1376" data-name="Group 1376" transform="translate(67.308 6.268)" clip-path="url(#clip-path-19)">
      <g id="Group_1375" data-name="Group 1375" transform="translate(-263.605 -1251.601)" clip-path="url(#clip-path-4)">
        <path id="Path_2302" data-name="Path 2302" d="M31.126-43.934H66.381V-8.718H31.126Z" transform="translate(223.14 1286.195)" fill="#c2cffb"/>
      </g>
    </g>
    <g id="Group_1378" data-name="Group 1378" transform="translate(83.842 6.268)" clip-path="url(#clip-path-21)">
      <g id="Group_1377" data-name="Group 1377" transform="translate(-280.181 -1251.601)" clip-path="url(#clip-path-4)">
        <path id="Path_2305" data-name="Path 2305" d="M40-43.934H75.255V-8.718H40Z" transform="translate(230.842 1286.195)" fill="#c2cffb"/>
      </g>
    </g>
    <g id="Group_1380" data-name="Group 1380" transform="translate(61.453 -36.822)" clip-path="url(#clip-path-23)">
      <g id="Group_1379" data-name="Group 1379" transform="translate(-257.767 -1208.516)" clip-path="url(#clip-path-4)">
        <path id="Path_2308" data-name="Path 2308" d="M28-67H87.772V-9.1H28Z" transform="translate(220.427 1266.176)" fill="#f3f7fc"/>
      </g>
    </g>
  </g>
</svg>
