<svg xmlns="http://www.w3.org/2000/svg" xmlns:xlink="http://www.w3.org/1999/xlink" width="153.415" height="171.505" viewBox="0 0 153.415 171.505">
  <defs>
    <clipPath id="clip-path">
      <path id="Path_2972" data-name="Path 2972" d="M74.624,55.247c41.214,0,74.624-34.191,74.624-76.368s-33.78-62.226-74.624-76.368S0-63.3,0-21.121,33.41,55.247,74.624,55.247Z" transform="translate(0 100)" fill="none"/>
    </clipPath>
    <clipPath id="clip-path-2">
      <path id="Path_2971" data-name="Path 2971" d="M-282,662.255H1525.929V-346H-282Z" transform="translate(282 346)" fill="none"/>
    </clipPath>
  </defs>
  <g id="vault" transform="translate(-84.832 -506.743)">
    <g id="Group_2587" data-name="Group 2587" transform="translate(89 523)" clip-path="url(#clip-path)">
      <g id="Group_2586" data-name="Group 2586" transform="translate(-478.27 -419.68)" clip-path="url(#clip-path-2)">
        <path id="Path_2970" data-name="Path 2970" d="M-5-105H161.207V67.308H-5Z" transform="translate(474.79 516.15)" fill="#e9edfc"/>
      </g>
    </g>
    <g id="Group_2600" data-name="Group 2600" transform="translate(6.986 7.797)">
      <path id="Path_2969" data-name="Path 2969" d="M9.591,0H70.133a9.591,9.591,0,0,1,9.591,9.591V91.324a9.591,9.591,0,0,1-9.591,9.591H9.591A9.591,9.591,0,0,1,0,91.324V9.591A9.591,9.591,0,0,1,9.591,0Z" transform="translate(141.905 554)" fill="#96acff"/>
      <path id="Rectangle_812" data-name="Rectangle 812" d="M.746,0H6.6a.747.747,0,0,1,.747.747v.3A.748.748,0,0,1,6.6,1.8H.748A.748.748,0,0,1,0,1.049v-.3A.746.746,0,0,1,.746,0Z" transform="translate(151.25 654.915)" fill="#646784"/>
      <path id="Rectangle_813" data-name="Rectangle 813" d="M.746,0H6.6a.747.747,0,0,1,.747.747v.3A.748.748,0,0,1,6.6,1.8H.748A.748.748,0,0,1,0,1.049v-.3A.746.746,0,0,1,.746,0Z" transform="translate(204.134 654.915)" fill="#646784"/>
      <path id="Path_2958" data-name="Path 2958" d="M669.98,208.5H618.03a2.248,2.248,0,0,1-2.247-2.246V133.115a2.249,2.249,0,0,1,2.247-2.246H669.98a2.249,2.249,0,0,1,2.247,2.246v73.143A2.248,2.248,0,0,1,669.98,208.5Zm-51.951-77.39a2,2,0,0,0-2,2v73.143a2,2,0,0,0,2,2H669.98a2,2,0,0,0,2-2V133.115a2,2,0,0,0-2-2Z" transform="translate(-462.238 434.771)" fill="#e6e6e6" opacity="0.4" style="mix-blend-mode: color-dodge;isolation: isolate"/>
      <g id="Group_2576" data-name="Group 2576" transform="translate(154.648 566.742)">
        <path id="Rectangle_815" data-name="Rectangle 815" d="M2.334,0H73.1a2.333,2.333,0,0,1,2.333,2.333V51.9A2.333,2.333,0,0,1,73.1,54.238H2.332A2.332,2.332,0,0,1,0,51.906V2.334A2.334,2.334,0,0,1,2.334,0Z" transform="translate(54.238 0) rotate(90)" fill="#c3d0ff"/>
        <path id="Rectangle_816" data-name="Rectangle 816" d="M2.334,0H73.1a2.333,2.333,0,0,1,2.333,2.333V51.9A2.333,2.333,0,0,1,73.1,54.238H2.332A2.332,2.332,0,0,1,0,51.906V2.334A2.334,2.334,0,0,1,2.334,0Z" transform="translate(54.238 0) rotate(90)" fill="#c3d0ff" opacity="0.1"/>
      </g>
      <path id="Path_2959" data-name="Path 2959" d="M672.692,195.6a16.712,16.712,0,1,1-16.712-16.712A16.712,16.712,0,0,1,672.692,195.6Z" transform="translate(-474.213 410.286)" opacity="0.1"/>
      <g id="Group_2579" data-name="Group 2579" transform="translate(152.035 576.347)">
        <path id="Rectangle_819" data-name="Rectangle 819" d="M1.482,0h.305a1.48,1.48,0,0,1,1.48,1.48V9.918A1.481,1.481,0,0,1,1.786,11.4h-.3A1.482,1.482,0,0,1,0,9.916V1.482A1.482,1.482,0,0,1,1.482,0Z" transform="translate(0 0)" fill="#7794f3"/>
        <path id="Rectangle_820" data-name="Rectangle 820" d="M1.482,0h.305a1.48,1.48,0,0,1,1.48,1.48V9.918A1.481,1.481,0,0,1,1.786,11.4h-.3A1.482,1.482,0,0,1,0,9.916V1.482A1.482,1.482,0,0,1,1.482,0Z" transform="translate(0 0)" fill="#7794f3" opacity="0.6"/>
      </g>
      <g id="Group_2580" data-name="Group 2580" transform="translate(152.035 621.17)">
        <path id="Rectangle_821" data-name="Rectangle 821" d="M1.48,0h.306a1.48,1.48,0,0,1,1.48,1.48V9.917A1.482,1.482,0,0,1,1.786,11.4h-.3A1.482,1.482,0,0,1,0,9.916V1.48A1.48,1.48,0,0,1,1.48,0Z" transform="translate(0 0)" fill="#7794f3"/>
        <path id="Rectangle_822" data-name="Rectangle 822" d="M1.48,0h.306a1.48,1.48,0,0,1,1.48,1.48V9.917A1.482,1.482,0,0,1,1.786,11.4h-.3A1.482,1.482,0,0,1,0,9.916V1.48A1.48,1.48,0,0,1,1.48,0Z" transform="translate(0 0)" fill="#7794f3" opacity="0.6"/>
      </g>
      <g id="Group_2581" data-name="Group 2581" transform="translate(165.055 587.746)">
        <path id="Path_2963" data-name="Path 2963" d="M672.692,192.685a16.712,16.712,0,1,1-16.712-16.712A16.712,16.712,0,0,1,672.692,192.685Z" transform="translate(-639.268 -175.973)" fill="#407bff"/>
        <path id="Path_2964" data-name="Path 2964" d="M672.692,192.685a16.712,16.712,0,1,1-16.712-16.712A16.712,16.712,0,0,1,672.692,192.685Z" transform="translate(-639.268 -175.973)" fill="#fff"/>
      </g>
      <g id="Group_2584" data-name="Group 2584" transform="translate(170.516 598.456) rotate(-17)">
        <g id="Group_2582" data-name="Group 2582" transform="translate(0.05 0.058)">
          <rect id="Rectangle_824" data-name="Rectangle 824" width="24.376" height="0.98" transform="translate(0 17.236) rotate(-45)" fill="#407bff"/>
        </g>
        <g id="Group_2583" data-name="Group 2583" transform="translate(0 0)">
          <path id="Path_2973" data-name="Path 2973" d="M.49,0h23.4a.49.49,0,1,1,0,.98H.49A.49.49,0,1,1,.49,0Z" transform="translate(0 17.242) rotate(-45.018)" fill="#7794f3" stroke="#7794f3" stroke-width="1"/>
          <path id="Path_2974" data-name="Path 2974" d="M.49.98h23.4a.49.49,0,1,0,0-.98H.49a.49.49,0,1,0,0,.98Z" transform="translate(0.693 0) rotate(45.018)" fill="#7794f3" stroke="#7794f3" stroke-width="1"/>
          <path id="Path_2968" data-name="Path 2968" d="M669.862,202.844a3.717,3.717,0,1,1-3.717-3.717A3.717,3.717,0,0,1,669.862,202.844Z" transform="translate(-657.365 -194.06)" fill="#7794f3"/>
          <path id="Path_2975" data-name="Path 2975" d="M666.495,201.161a2.034,2.034,0,1,1-2.034-2.034A2.034,2.034,0,0,1,666.495,201.161Z" transform="translate(-655.701 -192.346)" fill="none" stroke="#fff" stroke-width="0.2"/>
        </g>
      </g>
      <rect id="Rectangle_827" data-name="Rectangle 827" width="6" height="9" rx="2" transform="translate(199.014 582.203)" fill="#fff"/>
    </g>
    <g id="Group_2599" data-name="Group 2599" transform="translate(181.653 59.259)">
      <g id="Group_2601" data-name="Group 2601" transform="translate(-46.621 463.55) rotate(42)">
        <path id="Path_2979" data-name="Path 2979" d="M0,5.81,1.565,0,6.973,2.323S4.694,8.581,2.634,8.27Z" transform="translate(45.951 3.104) rotate(10)" fill="#a0b5ff"/>
        <path id="Path_2980" data-name="Path 2980" d="M4.47.274,8.939,0,5.408,6.2,0,3.873Z" transform="translate(48.165 -0.438) rotate(10)" fill="#a0b5ff"/>
        <path id="Path_2976" data-name="Path 2976" d="M6.457,12.45c4.638,1.105,5.256-.913,9.956.085s9.432,1.918,14.059,2.538l1.719.2.411.048a.131.131,0,0,0-.062.014c-.018.017.039.021.13.008a6.7,6.7,0,0,0,2.076-.929,36.861,36.861,0,0,0,5.171-4.11c3.412-3.164,6.75-6.741,9.952-10.3l3.755,2.6a81.288,81.288,0,0,1-8.573,12.579,37.625,37.625,0,0,1-5.79,5.7,14,14,0,0,1-4.455,2.4,8.481,8.481,0,0,1-1.682.323,7.836,7.836,0,0,1-.982.029l-.506-.023-1.953-.093a135.266,135.266,0,0,1-15.043-1.978C9.7,20.628,4.884,19.561,0,18.264Z" transform="translate(-1.412 4.84)" fill="#a0b5ff"/>
      </g>
      <g id="Group_2598" data-name="Group 2598" transform="translate(-94.537 522.716)">
        <g id="Group_2597" data-name="Group 2597" transform="translate(24.886 0) rotate(17)">
          <path id="Path_3005" data-name="Path 3005" d="M1.76,16.227l6.46-1.122L6.46,0,0,1.122Z" transform="translate(35.41 59.733)" fill="#7794f3"/>
          <g id="Group_2596" data-name="Group 2596" transform="translate(35.408 59.737)">
            <path id="Path_3006" data-name="Path 3006" d="M0,1.122,6.463,0l.909,7.771L1.107,9.456Z" transform="translate(0 0)" opacity="0.2"/>
          </g>
          <path id="Path_3007" data-name="Path 3007" d="M9.082,1.116,1.8.006a.47.47,0,0,0-.548.37L.021,6.084A1.162,1.162,0,0,0,.98,7.41c2.541.342,3.775.378,6.978.866,1.97.3,10.315,1.781,13.035,2.2,2.661.406,3.053-2.287,1.938-2.706-5-1.88-11.182-4.364-12.794-6.079A1.843,1.843,0,0,0,9.082,1.116Z" transform="matrix(0.914, -0.407, 0.407, 0.914, 34.351, 75.515)" fill="#636683"/>
          <path id="Path_3008" data-name="Path 3008" d="M17.368,0S33.238,24.144,36.462,33.458c3.532,10.2,8.885,36.872,8.885,36.872l-9.883,3.021S28.229,46.5,23.323,36.668C18,25.992-.708,5.526-.708,5.526Z" transform="translate(0 0)" fill="#c9c9d6"/>
          <path id="Path_3009" data-name="Path 3009" d="M.478,0,0,7.19C3.069,13.239,6.606,20.3,10.064,27.461,11.621,20.368,7.677,3.325.478,0Z" transform="translate(9.106 10.606) rotate(-9)" fill="#c2c2ca"/>
        </g>
        <g id="Group_2594" data-name="Group 2594" transform="translate(16.14 71.646)">
          <path id="Path_3000" data-name="Path 3000" d="M638.813,329.385H644.9l.79-14.089H639.6Z" transform="translate(-638.813 -315.296)" fill="#7794f3"/>
          <g id="Group_2593" data-name="Group 2593" transform="translate(0.378 0.004)">
            <path id="Path_3001" data-name="Path 3001" d="M639.684,315.3h6.087l-.41,7.262h-6.087Z" transform="translate(-639.273 -315.3)" opacity="0.2"/>
          </g>
        </g>
        <path id="Path_3002" data-name="Path 3002" d="M644.95,331.606h-6.834a.435.435,0,0,0-.451.415l-.332,5.408a1.078,1.078,0,0,0,1.064,1.082c2.38-.041,3.517-.181,6.522-.181,1.85,0,9.711.192,12.265.192,2.5,0,2.481-2.525,1.4-2.754-4.853-1.025-10.868-2.439-12.585-3.789A1.714,1.714,0,0,0,644.95,331.606Z" transform="translate(-622.407 -246.576)" fill="#636683"/>
        <path id="Path_3010" data-name="Path 3010" d="M18.113.316S18.4,23.5,17.555,32.307c-.921,9.642-5.423,43.6-5.423,43.6l-9.68-.169s.351-33.01-.222-42.556C1.61,22.82,0,0,0,0Z" transform="matrix(1, -0.017, 0.017, 1, 11.064, 7.551)" fill="#c9c9d6"/>
      </g>
      <g id="Group_2588" data-name="Group 2588" transform="translate(-68.73 478.188)">
        <path id="Path_2977" data-name="Path 2977" d="M657.415,84.9c2.794,4.068,10.6,13.418,10.6,13.418l8.178-7.35s-5.877-8.933-10.02-11.144a17.363,17.363,0,0,0-5.546-1.92C648.691,76.246,654.348,80.441,657.415,84.9Z" transform="translate(-649.591 -77.631)" fill="#7794f3"/>
      </g>
      <g id="Group_2590" data-name="Group 2590" transform="translate(-87.131 478.082)">
        <g id="Group_2589" data-name="Group 2589" transform="translate(0 0)">
          <path id="Path_2981" data-name="Path 2981" d="M664.448,85.082s-3.626,16.968,0,46.9H631.907c-.4-5,1.9-29.363-3.738-52.9A83.775,83.775,0,0,1,639.015,77.7c4.151-.2,7.61-.613,11.276-.28C655.125,77.865,664.448,85.082,664.448,85.082Z" transform="translate(-628.169 -77.502)" fill="#7794f3"/>
        </g>
        <path id="Path_2983" data-name="Path 2983" d="M629.41,85.168a159.635,159.635,0,0,1,2.692,24.406,92.833,92.833,0,0,0,2.413-14.6C634.859,89.5,632.742,86.046,629.41,85.168Z" transform="translate(-628.392 -78.877)" opacity="0.3"/>
      </g>
      <path id="Path_2997" data-name="Path 2997" d="M632.475,89.2,631.3,91.752c-.4.876-.782,1.762-1.156,2.651-.758,1.776-1.473,3.566-2.164,5.356s-1.293,3.6-1.872,5.4c-.539,1.806-1.037,3.607-1.415,5.4l-.035.154a.2.2,0,0,0,0-.055c-.009-.033,0-.083-.014-.126a1.2,1.2,0,0,0-.074-.267c-.066-.156-.144-.187-.105-.1a3.5,3.5,0,0,0,1.131,1.028,23.2,23.2,0,0,0,4.677,2.174,103.2,103.2,0,0,0,11.177,3.137l-.375,4.552a57.813,57.813,0,0,1-12.635-.982,27.08,27.08,0,0,1-6.6-2.118,11.732,11.732,0,0,1-3.608-2.674,7.571,7.571,0,0,1-1.543-2.733,7.086,7.086,0,0,1-.3-2.636l.04-.43.029-.218a63.9,63.9,0,0,1,2.913-12.555q.995-3.012,2.212-5.92c.41-.968.831-1.931,1.27-2.889.437-.977.882-1.879,1.42-2.907Z" transform="translate(-713.182 399.236)" fill="#a0b5ff"/>
      <g id="Group_2592" data-name="Group 2592" transform="translate(-97.654 479.549)">
        <path id="Path_2998" data-name="Path 2998" d="M624.243,79.384c-4.842.708-8.9,15.983-8.9,15.983l11.7,4.452s2.007-5.112,4.021-11.067C633.18,82.512,629.436,78.625,624.243,79.384Z" transform="translate(-613.346 -79.29)" fill="#7794f3"/>
      </g>
      <path id="Path_3017" data-name="Path 3017" d="M645.778,123.011l4.991-1.373.684,6.313s-4.937,1.479-6.147-1.114Z" transform="translate(-718.374 392.663)" fill="#a0b5ff"/>
      <path id="Path_3018" data-name="Path 3018" d="M656.489,122.509l-.3,5.69-3.541-.248-.684-6.314Z" transform="translate(-719.568 392.663)" fill="#a0b5ff"/>
      <g id="Group_2591" data-name="Group 2591" transform="translate(-76.285 468.098)">
        <path id="Path_2985" data-name="Path 2985" d="M642.215,58.77c1.027,3.205,2.181,9.079-.83,11.218,0,0,1.3,2.656,9.569,2.656A5.025,5.025,0,0,0,655,69.764c-5-.854-4.787-3.281-4.042-5.772Z" transform="translate(-641.385 -58.77)" fill="#a0b5ff"/>
        <path id="Path_2986" data-name="Path 2986" d="M646.715,62.375l5.174,4.288a14.119,14.119,0,0,0-.341,2.455c-1.906-.274-4.582-2.355-4.852-4.34A6.631,6.631,0,0,1,646.715,62.375Z" transform="translate(-642.32 -60.69)" fill="#a0b5ff" opacity="0.2"/>
      </g>
      <path id="Path_2987" data-name="Path 2987" d="M5.591,12.1C6.934,10.956,7.544,4.089,4.893.8S0,5.481,0,5.481,1.18,15.878,5.591,12.1Z" transform="translate(-69.131 453.168) rotate(-14)" fill="#636683"/>
      <path id="Path_2988" data-name="Path 2988" d="M639.936,50.787c1.854,5.764,2.644,9.221,6.384,11.569a7.871,7.871,0,0,0,12.124-6.873c-.076-5.526-3.1-14.023-9.452-15.087A7.963,7.963,0,0,0,639.936,50.787Z" transform="translate(-717.337 411.361)" fill="#a0b5ff"/>
      <path id="Path_2993" data-name="Path 2993" d="M655.994,52a18.361,18.361,0,0,0,3.328,3.568,2.79,2.79,0,0,1-2.18.928Z" transform="translate(-720.291 409.257)" fill="#7794f3"/>
      <path id="Path_3019" data-name="Path 3019" d="M657.534,52.412c1.343-1.087,1.953-7.591-.7-10.709-1.371-1.612-3.839.3-4.5,2.217-.462,1.318.419,4.435.419,4.435A12.535,12.535,0,0,0,657.534,52.412Z" transform="translate(-731.92 414.495)" fill="#636683"/>
      <path id="Path_3020" data-name="Path 3020" d="M7.053,16.936C8.3,15.565,10.9,8.1,6.71,1.62,4.376-.6.193-.088,0,.528,2.277,2.55,1.195,6.139,1.195,6.139s-.44,5.351,1.3,8.976C3.409,17.039,5.463,18.68,7.053,16.936Z" transform="translate(-62.992 447.484) rotate(77)" fill="#636683"/>
      <path id="Path_2990" data-name="Path 2990" d="M638.59,60.675a6.016,6.016,0,0,0,4.121,1.693c2.027,0,2.436-1.918,1.366-3.523-.963-1.444-3.179-3.183-4.971-2.41C637.342,57.2,637.242,59.348,638.59,60.675Z" transform="translate(-716.183 406.855)" fill="#a0b5ff"/>
    </g>
    <path id="Path_3040" data-name="Path 3040" d="M627.438,268.936h-11.6l-.609-3.812,12.276-.389Z" transform="matrix(0.766, -0.643, 0.643, 0.766, -513.079, 748.45)" fill="#c3d0ff"/>
    <path id="Path_3041" data-name="Path 3041" d="M13.839,0H.69L0,3.812,13.914,4.2Z" transform="matrix(-0.966, -0.259, 0.259, -0.966, 98.401, 560.493)" fill="#c3d0ff"/>
  </g>
</svg>
