<svg xmlns="http://www.w3.org/2000/svg" width="20" height="20" viewBox="0 0 20 20">
    <defs>
        <style>
            .cls-1,.cls-2{fill:#fff}.cls-1{stroke:#171e48;stroke-width:1.4px}.cls-2{stroke-linecap:round;stroke-linejoin:round}.cls-3,.cls-5{stroke:none}.cls-4{fill:none}.cls-5{fill:#171e48}
        </style>
    </defs>
    <g id="Group_1153" data-name="Group 1153" transform="translate(2 1)">
        <g id="Ellipse_374" class="cls-1" data-name="Ellipse 374" transform="translate(-2 -1)">
            <circle cx="10" cy="10" r="10" class="cls-3"/>
            <circle cx="10" cy="10" r="9.3" class="cls-4"/>
        </g>
        <g id="Polygon_7" class="cls-2" data-name="Polygon 7">
            <path d="M7.4 4.7h-8.8l.84-1.12 3-4L3-1.167l.56.747 3 4L7.4 4.7z" class="cls-3" transform="rotate(90 2.5 8.5)"/>
            <path d="M3 0L0 4h6L3 0m0-1.4a1.4 1.4 0 0 1 1.12.56l3 4A1.4 1.4 0 0 1 6 5.4H0a1.4 1.4 0 0 1-1.12-2.24l3-4A1.4 1.4 0 0 1 3-1.4z" class="cls-5" transform="rotate(90 2.5 8.5)"/>
        </g>
    </g>
</svg>
