<svg xmlns="http://www.w3.org/2000/svg" width="18" height="18" viewBox="0 0 18 18">
    <defs>
        <style>
            .cls-1{fill:#171e48}
        </style>
    </defs>
    <path id="Path_1860" d="M9.05-17.95a9 9 0 0 1 6.364 2.636A9 9 0 0 1 18.05-8.95a9 9 0 0 1-9 9 9 9 0 0 1-9-9 9 9 0 0 1 9-9zm4.468 3.339l-.413-.285a7.09 7.09 0 0 0-4.057-1.254 7.2 7.2 0 0 0-7.173 7.2A7.09 7.09 0 0 0 3.13-4.895l.286.414zM4.995-3.03a7.091 7.091 0 0 0 4.056 1.255 7.161 7.161 0 0 0 5.076-2.1 7.162 7.162 0 0 0 2.1-5.08 7.087 7.087 0 0 0-1.255-4.053l-.285-.413-10.1 10.1z" class="cls-1" data-name="Path 1860" transform="translate(-.05 17.95)"/>
</svg>
