<svg xmlns="http://www.w3.org/2000/svg" width="18" height="12" viewBox="0 0 18 12">
    <defs>
        <style>
            .cls-1{fill:#171e48}
        </style>
    </defs>
    <path id="promote-increase" d="M33.665 41.777v-4.162a.812.812 0 1 0-1.606 0V39.6l-5.273-6.128a.745.745 0 0 0-1.138 0l-3.234 3.757-5.378-6.249a.748.748 0 0 0-.567-.274.74.74 0 0 0-.567.274 1.036 1.036 0 0 0 0 1.319l5.945 6.911a.747.747 0 0 0 1.135 0l3.234-3.76 4.639 5.39H29.28a.944.944 0 0 0 0 1.866h3.582a.874.874 0 0 0 .803-.929z" class="cls-1" transform="translate(-15.665 -30.71)"/>
</svg>
