<svg xmlns="http://www.w3.org/2000/svg" width="15" height="14" viewBox="0 0 15 14">
    <defs>
        <style>
            .cls-1{fill:#171e48}
        </style>
    </defs>
    <g id="edit3" transform="translate(-.492 -.002)">
        <path id="Path_1771" d="M11.219 8.577a.7.7 0 0 1 1.4 0v3.593A1.842 1.842 0 0 1 10.78 14H1.841A1.842 1.842 0 0 1 0 12.17V3.211a1.842 1.842 0 0 1 1.841-1.832h3.846a.7.7 0 0 1 0 1.4H1.841a.438.438 0 0 0-.438.436v8.955a.439.439 0 0 0 .438.437h8.939a.439.439 0 0 0 .439-.437V8.577zm3.451-6.522a1.124 1.124 0 0 1 .288 1.1v.104l-.005.013-.005.013-.005.012-.005.012-.006.013-.006.012-.006.012-.006.012-.006.012-.007.012-.007.012-.007.012-.007.012-.007.012-.007.012-.008.012-.008.012-.008.012-.008.012-.008.012-.008.011-.008.011-.009.011-.009.011-.009.011-.009.011-.009.011-.01.011-.01.011-.01.011-.01.011-.01.01-.01.01L8.83 9.461 4.982 10l.5-3.846L11.338.33a1.138 1.138 0 0 1 1.6 0l1.732 1.725zm-2.436 2.438l-1.746-1.738-3.944 3.926-.263 2.014L8.3 8.411l3.935-3.917zm-.953-2.528L13.027 3.7l.85-.846a.012.012 0 0 0 0-.013l-1.733-1.722a.009.009 0 0 0-.013 0l-.85.846z" class="cls-1" data-name="Path 1771" transform="translate(.492)"/>
    </g>
</svg>
