<svg xmlns="http://www.w3.org/2000/svg" width="4" height="20" viewBox="0 0 4 20">
    <defs>
        <style>
            .cls-1{fill:#5c617e}
        </style>
    </defs>
    <path id="Union_1" d="M-13665 28.994a2.06 2.06 0 0 1 2-2.007 2.037 2.037 0 0 1 2 2.007 2.02 2.02 0 0 1-2 2.007 2.042 2.042 0 0 1-2-2.007zm0-7.994a2.06 2.06 0 0 1 2-2.007 2.037 2.037 0 0 1 2 2.007 2.018 2.018 0 0 1-2 2.007 2.04 2.04 0 0 1-2-2.007zm0-7.991a2.06 2.06 0 0 1 2-2.007 2.037 2.037 0 0 1 2 2.007 2.018 2.018 0 0 1-2 2.007 2.04 2.04 0 0 1-2-2.007z" class="cls-1" data-name="Union 1" transform="translate(13665 -11.002)"/>
</svg>
