<svg xmlns="http://www.w3.org/2000/svg" width="20" height="20" viewBox="0 0 20 20">
    <defs>
        <style>
            .cls-1{fill:#fff;stroke:#171e48;stroke-width:1.4px}.cls-2{fill:#171e48}.cls-3{stroke:none}.cls-4{fill:none}
        </style>
    </defs>
    <g id="Group_1155" data-name="Group 1155" transform="translate(2 1)">
        <g id="Ellipse_374" class="cls-1" data-name="Ellipse 374" transform="translate(-2 -1)">
            <circle cx="10" cy="10" r="10" class="cls-3"/>
            <circle cx="10" cy="10" r="9.3" class="cls-4"/>
        </g>
        <path id="Union_40" d="M2930.026-767.308a1.254 1.254 0 0 1 1.287-1.189 1.207 1.207 0 0 1 1.256 1.218 1.219 1.219 0 0 1-1.256 1.162 1.255 1.255 0 0 1-1.287-1.191zm.324-3.115l-.263-3.61c-.031-.318-.056-.64-.087-.958a1.152 1.152 0 0 1 .993-1.1 1.416 1.416 0 0 1 1.488.567 1.008 1.008 0 0 1 .119.5c-.031.5-.088 1.007-.119 1.51-.056.777-.118 1.553-.175 2.33a5.826 5.826 0 0 0-.031.733.885.885 0 0 1-.963.733.875.875 0 0 1-.962-.705z" class="cls-2" data-name="Union 40" transform="translate(-2923.274 779.412)"/>
    </g>
</svg>
