<svg width="24" height="21" viewBox="0 0 24 21" fill="none" xmlns="http://www.w3.org/2000/svg">
<path d="M2.18182 0C0.981818 0 0 0.981818 0 2.18182V15.2727C0 16.4727 0.981818 17.4545 2.18182 17.4545H13.6364C13.3396 16.7609 13.1555 16.0244 13.0909 15.2727H2.18182V4.36364L10.9091 9.81818L19.6364 4.36364V7.63636C19.8181 7.62937 20.0001 7.62937 20.1818 7.63636C20.7331 7.63799 21.2822 7.70389 21.8182 7.83273V2.18182C21.8182 0.981818 20.8364 0 19.6364 0H2.18182ZM2.18182 2.18182H19.6364L10.9091 7.63636L2.18182 2.18182ZM19.6364 8.72727L17.1818 11.1818L19.6364 13.6364V12C20.3597 12 21.0534 12.2873 21.5648 12.7988C22.0763 13.3103 22.3636 14.004 22.3636 14.7273C22.3636 15.1636 22.2655 15.5782 22.08 15.9491L23.2691 17.1382C23.7273 16.4509 24 15.6218 24 14.7273C24 12.3164 22.0473 10.3636 19.6364 10.3636V8.72727ZM16.0036 12.3164C15.5455 13.0036 15.2727 13.8327 15.2727 14.7273C15.2727 17.1382 17.2255 19.0909 19.6364 19.0909V20.7273L22.0909 18.2727L19.6364 15.8182V17.4545C18.913 17.4545 18.2194 17.1672 17.7079 16.6557C17.1964 16.1443 16.9091 15.4506 16.9091 14.7273C16.9091 14.2909 17.0073 13.8764 17.1927 13.5055L16.0036 12.3164V12.3164Z" fill="#171E48"/>
</svg>
