<svg xmlns="http://www.w3.org/2000/svg" width="20.5" height="20.5" viewBox="0 0 20.5 20.5">
    <defs>
        <style>
            .cls-1{stroke:#171e48;stroke-linecap:round;stroke-linejoin:round;stroke-width:.5px}
        </style>
    </defs>
    <g id="reset-password" transform="translate(.495 .495)">
        <path id="Union_39" d="M9.317 20a8.951 8.951 0 0 1-6.549-2.888A10.313 10.313 0 0 1 0 10.058 10.314 10.314 0 0 1 2.693 2.97 8.957 8.957 0 0 1 9.265 0h.053a9.482 9.482 0 0 1 9.019 7.481L20 7.47l-2.062 3.887L15.831 7.5l1.845-.01A8.818 8.818 0 0 0 9.32.686h-.05a8.339 8.339 0 0 0-6.125 2.766 9.61 9.61 0 0 0-2.506 6.6 9.585 9.585 0 0 0 2.577 6.569 8.325 8.325 0 0 0 6.1 2.691h.051a8.552 8.552 0 0 0 7.024-3.912l.52.4A9.183 9.183 0 0 1 9.372 20zM6.46 14a.449.449 0 0 1-.435-.459L6 9.02a.449.449 0 0 1 .43-.462h.577L7 7.469a2.45 2.45 0 0 1 2.359-2.525 2.453 2.453 0 0 1 2.387 2.5l.006 1.085h.578a.45.45 0 0 1 .437.457l.025 4.524a.468.468 0 0 1-.125.325.41.41 0 0 1-.306.137L6.462 14zm.14-4.807l.024 4.167 5.563-.034-.023-4.167zm1-1.729l.006 1.085 3.54-.022-.006-1.085A1.827 1.827 0 0 0 9.37 5.58a1.829 1.829 0 0 0-1.764 1.884z" class="cls-1" data-name="Union 39" transform="translate(-.245 -.245)"/>
    </g>
</svg>
