<svg xmlns="http://www.w3.org/2000/svg" id="Group_1147" width="18" height="20" data-name="Group 1147" viewBox="0 0 18 20">
    <defs>
        <style>
            .cls-1{fill:#171e48}
        </style>
    </defs>
    <path id="Union_38" d="M10.125 20a.377.377 0 0 1-.265-.109C7.949 18 6.245 13.468 6.174 13.276a1.491 1.491 0 0 1 .576-1.966 1.533 1.533 0 0 1 .759-.2 1.451 1.451 0 0 1 1.3.757l.191.356v-6.3a1.5 1.5 0 0 1 3 0v4.536l4.962 1.4A1.4 1.4 0 0 1 18 13.333v1.111a8.778 8.778 0 0 1-1.563 5.391.376.376 0 0 1-.312.165zm-3-8.049a.784.784 0 0 0-.258 1.042c.027.071 1.663 4.425 3.417 6.266h5.638a8.108 8.108 0 0 0 1.328-4.815v-1.111c0-.66-.436-.746-.441-.746a.242.242 0 0 1-.036-.009L16.5 12.5v.092a.375.375 0 0 1-.749 0v-.3L15 12.078v.1a.375.375 0 0 1-.75 0v-.309l-.75-.212v.116a.375.375 0 0 1-.749 0v-.328l-1.229-.345a.371.371 0 0 1-.272-.356V5.926a.75.75 0 0 0-1.5 0V13.7a.371.371 0 0 1-.285.359.378.378 0 0 1-.421-.185l-.9-1.666a.728.728 0 0 0-.648-.356.751.751 0 0 0-.371.099zM0 10.37a1.492 1.492 0 0 1 1.5-1.481 1.482 1.482 0 1 1 0 2.963A1.493 1.493 0 0 1 0 10.37zm5.261.993a1.471 1.471 0 0 1-.386-.993 1.5 1.5 0 0 1 2.975-.27.37.37 0 0 1-.3.431.375.375 0 0 1-.437-.3.751.751 0 0 0-1.487.136.737.737 0 0 0 .193.5.368.368 0 0 1-.028.523.379.379 0 0 1-.53-.027zm-.386-5.437a1.5 1.5 0 1 1 1.5 1.482 1.492 1.492 0 0 1-1.5-1.482zM0 5.926a1.492 1.492 0 0 1 1.5-1.481 1.481 1.481 0 1 1 0 2.962A1.492 1.492 0 0 1 0 5.926zm9-4.444a1.5 1.5 0 0 1 3 0 1.5 1.5 0 0 1-3 0zm-4.5 0a1.5 1.5 0 0 1 3 0 1.5 1.5 0 0 1-3 0zm-4.5 0a1.5 1.5 0 0 1 3 0 1.492 1.492 0 0 1-1.5 1.481A1.492 1.492 0 0 1 0 1.482z" class="cls-1" data-name="Union 38"/>
</svg>
