<svg xmlns="http://www.w3.org/2000/svg" width="18.501" height="15.519" viewBox="0 0 18.501 15.519">
    <defs>
        <style>
            .cls-1{fill:#171e48;stroke:#171e48;stroke-linecap:round;stroke-linejoin:round;stroke-miterlimit:10;stroke-width:.5px}
        </style>
    </defs>
    <g id="transfer" transform="translate(-7.758 -968.109)">
        <path id="Path_1796" d="M26.005 973.515a.334.334 0 0 0-.1-.2l-5.01-4.854a.315.315 0 0 0-.362-.059.333.333 0 0 0-.181.328l.188 2.586-3.53-.007a.331.331 0 0 0 0 .662l3.871.007a.317.317 0 0 0 .235-.1.337.337 0 0 0 .087-.248l-.147-2.1 4.179 4.047-3.935 4.275.033-1.827a.336.336 0 0 0-.094-.241.317.317 0 0 0-.234-.1l-7.568.09-.188-2.627a.33.33 0 0 0-.212-.292.315.315 0 0 0-.344.085l-4.6 5.019a.338.338 0 0 0 .013.469l5.01 4.854a.314.314 0 0 0 .349.054.332.332 0 0 0 .186-.309l-.067-2.482 3.67-.117a.331.331 0 0 0-.013-.662l-4 .124a.327.327 0 0 0-.308.338l.06 2.034-4.22-4.089 3.885-4.233.154 2.2a.325.325 0 0 0 .328.3l7.542-.09-.047 2.344a.331.331 0 0 0 .2.314.315.315 0 0 0 .356-.08l4.722-5.15a.337.337 0 0 0 .087-.269z" class="cls-1" data-name="Path 1796"/>
    </g>
</svg>
