<?xml version="1.0" standalone="no"?>
<!DOCTYPE svg PUBLIC "-//W3C//DTD SVG 20010904//EN"
 "http://www.w3.org/TR/2001/REC-SVG-20010904/DTD/svg10.dtd">
<svg version="1.0" xmlns="http://www.w3.org/2000/svg"
 width="700.000000pt" height="700.000000pt" viewBox="0 0 700.000000 700.000000"
 preserveAspectRatio="xMidYMid meet">
<metadata>
Created by potrace 1.11, written by Peter Selinger 2001-2013
</metadata>
<g transform="translate(0.000000,700.000000) scale(0.100000,-0.100000)"
fill="#000000" stroke="none">
<path d="M4606 6044 c-51 -18 -118 -70 -146 -113 -97 -148 -46 -348 110 -428
53 -27 61 -28 242 -33 l186 -5 -60 -65 c-34 -36 -138 -146 -232 -244 -279
-292 -518 -544 -586 -616 -23 -25 -118 -124 -212 -222 -206 -215 -224 -238
-243 -301 -32 -108 -6 -214 72 -293 62 -64 121 -88 208 -88 121 1 148 18 355
235 100 103 190 197 200 209 9 11 92 98 183 193 90 94 179 188 197 207 18 19
73 78 124 130 154 161 429 451 458 482 l27 31 3 -259 c3 -246 4 -261 26 -305
30 -63 86 -117 151 -147 46 -21 63 -24 130 -20 50 3 90 12 117 26 79 40 141
119 159 200 5 25 11 1348 6 1430 -1 19 -1421 16 -1475 -4z"/>
<path d="M1093 5766 c-102 -48 -163 -137 -171 -247 -8 -117 11 -154 152 -294
105 -104 379 -366 486 -465 19 -18 78 -73 130 -124 53 -50 143 -136 201 -191
58 -55 183 -174 278 -265 96 -91 190 -180 210 -199 20 -18 81 -77 136 -130
124 -120 156 -144 224 -166 134 -44 286 26 351 161 33 67 33 168 1 242 -22 49
-138 169 -441 452 -25 23 -121 115 -214 204 -93 88 -187 178 -210 200 -23 21
-112 106 -200 190 -87 83 -175 167 -196 186 -20 19 -118 112 -216 206 -267
256 -267 256 -389 261 -69 4 -87 1 -132 -21z"/>
<path d="M2701 3129 c-18 -6 -50 -20 -70 -33 -28 -18 -237 -229 -441 -446 -14
-14 -96 -101 -184 -193 -87 -91 -174 -183 -193 -204 -20 -21 -79 -83 -132
-139 -129 -134 -400 -419 -446 -469 -21 -22 -80 -84 -131 -137 -56 -59 -103
-119 -119 -153 -25 -49 -27 -64 -23 -133 6 -91 28 -142 90 -202 59 -56 135
-83 218 -77 106 7 145 33 325 223 88 92 178 186 200 209 22 23 106 111 186
196 81 85 172 181 204 214 49 51 139 146 379 399 26 28 112 119 191 201 78 83
170 179 204 215 34 36 74 90 89 120 70 142 0 327 -147 393 -52 23 -151 31
-200 16z"/>
<path d="M3815 3082 c-28 -10 -65 -28 -84 -41 -79 -56 -129 -170 -117 -268 12
-99 46 -146 247 -335 77 -72 389 -368 484 -459 55 -53 116 -111 135 -129 19
-18 106 -101 194 -184 87 -83 179 -171 205 -196 506 -481 468 -447 529 -470
65 -24 142 -26 208 -3 69 23 155 110 179 182 34 103 7 223 -68 301 -28 29
-260 251 -413 396 -23 21 -113 107 -200 190 -88 83 -175 166 -194 184 -19 18
-115 109 -213 203 -98 94 -187 179 -199 188 -11 10 -100 95 -198 189 -98 94
-198 186 -222 205 -82 63 -178 80 -273 47z"/>
</g>
</svg>
