<svg xmlns="http://www.w3.org/2000/svg" width="14.7" height="14.7" viewBox="0 0 14.7 14.7">
    <defs>
        <style>
            .prefix__cls-1{fill:#9599ac;stroke:#9599ac;stroke-width:.7px}
        </style>
    </defs>
    <g id="prefix__app-icon" transform="translate(.35 .35)">
        <path id="prefix__Path_1250" d="M23.362 18.3H19.3a.965.965 0 0 0-.965.965v4.065a.965.965 0 0 0 .965.963h4.066a.965.965 0 0 0 .965-.963v-4.067a.965.965 0 0 0-.965-.963zm.374 5.03a.374.374 0 0 1-.374.372H19.3a.374.374 0 0 1-.374-.372v-4.067a.374.374 0 0 1 .374-.374h4.066a.374.374 0 0 1 .374.374z" class="prefix__cls-1" data-name="Path 1250" transform="translate(-18.33 -18.3)"/>
        <path id="prefix__Path_1251" d="M56.262 18.3H52.2a.965.965 0 0 0-.965.965v4.065a.965.965 0 0 0 .965.963h4.066a.965.965 0 0 0 .965-.963v-4.067a.965.965 0 0 0-.969-.963zm.374 5.03a.374.374 0 0 1-.374.372H52.2a.374.374 0 0 1-.374-.372v-4.067a.374.374 0 0 1 .374-.374h4.066a.374.374 0 0 1 .374.374z" class="prefix__cls-1" data-name="Path 1251" transform="translate(-43.227 -18.3)"/>
        <path id="prefix__Path_1252" d="M23.362 51.28H19.3a.965.965 0 0 0-.965.965v4.065a.965.965 0 0 0 .965.965h4.066a.965.965 0 0 0 .965-.965v-4.067a.965.965 0 0 0-.969-.963zm.374 5.03a.374.374 0 0 1-.374.374H19.3a.374.374 0 0 1-.374-.374v-4.067a.374.374 0 0 1 .374-.374h4.066a.374.374 0 0 1 .374.374z" class="prefix__cls-1" data-name="Path 1252" transform="translate(-18.33 -43.275)"/>
        <path id="prefix__Path_2056" d="M23.362 51.28H19.3a.965.965 0 0 0-.965.965v4.065a.965.965 0 0 0 .965.965h4.066a.965.965 0 0 0 .965-.965v-4.067a.965.965 0 0 0-.969-.963zm.374 5.03a.374.374 0 0 1-.374.374H19.3a.374.374 0 0 1-.374-.374v-4.067a.374.374 0 0 1 .374-.374h4.066a.374.374 0 0 1 .374.374z" class="prefix__cls-1" data-name="Path 2056" transform="translate(-10.33 -43.275)"/>
    </g>
</svg>
