<svg xmlns="http://www.w3.org/2000/svg" width="16.7" height="16.7" viewBox="0 0 16.7 16.7">
    <defs>
        <style>
            .cls-1{fill:#9599ac;stroke:#9599ac;stroke-linecap:round;stroke-linejoin:round;stroke-width:.7px}
        </style>
    </defs>
    <path id="groups" d="M8.175 26.338l7.686-5.74a.324.324 0 0 0 .139-.267V20.3a.319.319 0 0 0-.134-.232L13.631 18.4l2.229-1.665a.324.324 0 0 0 .14-.269v-.033a.32.32 0 0 0-.134-.233l-7.69-5.743a.288.288 0 0 0-.352 0L.138 16.2a.324.324 0 0 0-.138.237v.028a.32.32 0 0 0 .135.264L2.369 18.4.138 20.064A.324.324 0 0 0 0 20.3v.03a.32.32 0 0 0 .135.263l7.69 5.745A.55.55 0 0 0 8 26.4a.3.3 0 0 0 .175-.062zM.759 16.465L8 11.056l7.241 5.409L8 21.874zm0 3.866l2.1-1.568 4.968 3.711a.286.286 0 0 0 .35 0l4.967-3.71 2.1 1.568L8 25.739z" class="cls-1" transform="translate(.35 -10.048)"/>
</svg>
