<svg xmlns="http://www.w3.org/2000/svg" width="24" height="24" viewBox="0 0 24 24">
  <g fill="none" fill-rule="evenodd">
    <rect width="24" height="24" fill="#9599ac" fill-rule="nonzero" opacity="0"/>
    <path fill="#9599ac" fill-rule="nonzero" d="M17.6282467,19.0521583 C18.0198753,19.3226775 18.2670799,19.6216009 18.2880727,19.9683402 L18.2880727,21.6929869 C18.2907965,22.040846 18.1537036,22.375238 17.9075178,22.6209845 C17.6613379,22.8667251 17.3267084,23.0032224 16.9803744,22.9999421 L2.30929907,22.9999421 C1.96124127,23.0032271 1.62643026,22.8665697 1.38021541,22.6205736 C1.13399748,22.3745745 0.997042813,22.0398808 1.00004845,21.6932042 L1.00004845,19.9673073 C1.00004845,19.6217832 1.24389247,19.3104544 1.64098188,19.0249226 C1.86738427,18.8621252 2.09226993,18.7422641 2.23399856,18.680478 L6.42241514,16.4120652 C5.12270026,15.0733814 4.39157822,13.2795699 4.3889618,11.4080568 L4.3889618,8.56564616 C4.3889618,6.54644088 7.07720023,4.41770965 9.66060233,4.41770965 C12.2339857,4.41770965 14.8651079,6.53822961 14.8651079,8.56564616 L14.8651079,11.4080568 C14.8651079,13.3012831 14.2248257,15.3267313 12.9491248,16.4575429 L17.0138039,18.7121098 C17.171325,18.7779332 17.3990111,18.8938128 17.6282467,19.0521583 Z M16.6281742,20.35046 C16.5637272,20.3058921 16.4837754,20.2652136 16.3603294,20.2107521 C16.3712847,20.2224143 16.3696647,20.2216655 16.3573787,20.2175701 L16.3551639,20.2168318 C16.2954589,20.1969195 16.2654683,20.1831325 16.2628115,20.1719985 L11.9916591,17.8034789 C11.5477548,17.5558634 11.2527192,17.1070976 11.2015298,16.6029291 C11.1445052,16.0919021 11.3604184,15.5885398 11.7673968,15.2796743 C12.6911679,14.5471084 13.2001619,12.8721838 13.2001619,11.4080568 L13.2001619,8.56564616 C13.2001619,7.53567187 11.3644547,6.08163538 9.66163517,6.08163538 C7.97180597,6.08163538 6.05494067,7.55452414 6.05494067,8.56564616 L6.05494023,11.4042957 C6.05146937,12.8566388 6.61991608,14.2519604 7.62392087,15.2762721 C8.01929542,15.5946953 8.23107793,16.0884278 8.18954205,16.5910763 C8.15794715,17.1075373 7.85487896,17.5685211 7.39707983,17.8002636 L2.9522745,20.187305 C2.97031165,20.187305 2.9726557,20.1864407 2.96911258,20.1881989 C2.92050839,20.2123185 2.89627443,20.2213891 2.91454179,20.2068377 C2.82729254,20.2475812 2.74384238,20.2959038 2.6651436,20.3512235 L2.6651436,21.3358372 L16.6281742,21.3358372 L16.6281742,20.35046 Z M22.3566792,15.663089 C22.7548368,15.9431738 22.9999285,16.2590833 22.9999285,16.6187988 L22.9999285,18.3089527 C23.0035898,18.6578332 22.8665915,18.9934946 22.6197984,19.2400687 C22.3730091,19.4866392 22.0372311,19.6233403 21.6901472,19.6193159 L19.454038,19.6193159 L19.3006506,19.4861737 C19.231866,19.0018731 18.9975695,18.5563808 18.6375412,18.2253125 C18.5336225,18.1297529 18.601232,17.9563431 18.7424078,17.9563431 L21.3317501,17.9563431 L21.3317501,16.969933 C21.267303,16.9253651 21.1873513,16.8846867 21.0639053,16.8302251 L21.0587397,16.8363048 C20.9990347,16.8163925 20.9690441,16.8026056 20.9672815,16.7919636 L16.6281,14.422952 C16.1841957,14.1753364 15.8891601,13.7265706 15.8379707,13.2224022 C15.7809461,12.7113751 15.9968593,12.2080128 16.3879124,11.9136925 C17.383435,10.8683706 17.9279049,9.47344911 17.9037377,8.0275299 L17.9037377,5.18511922 C17.9037377,4.13680849 16.0164831,2.66702429 14.2972612,2.66702413 C13.3887206,2.66830229 12.5054476,2.96622562 11.7817392,3.51549637 L11.6508167,3.54246746 C11.1088622,3.40818393 10.5525816,3.34034433 9.99423897,3.34044426 C9.86095688,3.34046811 9.78985443,3.18334763 9.87784378,3.083237 C10.9983647,1.80835474 12.5966838,1.05425847 14.2980761,1 C16.8749328,1 19.5697166,3.15852105 19.5697166,5.18305351 L19.5697166,8.02339849 C19.5697166,9.88728123 18.9048215,11.9354854 17.6229548,13.0718362 L21.7520442,15.3261393 C21.9060807,15.3896667 22.1305974,15.5040513 22.3566792,15.663089 Z M21.3317501,17.9563431 L21.3317501,18.111271 L21.4866768,17.9563431 L21.3317501,17.9563431 Z M16.5445138,17.2705289 C16.1737379,17.2705289 15.8731646,16.9699533 15.8731646,16.5991746 C15.8731646,16.2283959 16.1737379,15.9278203 16.5445138,15.9278203 L18.9024988,15.9278203 C19.2732747,15.9278203 19.573848,16.2283959 19.573848,16.5991746 C19.573848,16.9699533 19.2732747,17.2705289 18.9024988,17.2705289 L16.5445138,17.2705289 Z M8.28175434,20.3597914 C7.91097841,20.3597914 7.61040514,20.0592158 7.61040514,19.6884371 C7.61040514,19.3176584 7.91097841,19.0170828 8.28175434,19.0170828 L12.7054292,19.0170828 C13.0762051,19.0170828 13.3767784,19.3176584 13.3767784,19.6884371 C13.3767784,20.0592158 13.0762051,20.3597914 12.7054292,20.3597914 L8.28175434,20.3597914 Z"/>
  </g>
</svg>
