<svg xmlns="http://www.w3.org/2000/svg" width="16" height="16" viewBox="0 0 16 16">
    <path id="prefix__Union_41" d="M-1388.52-249.536l-4.944-4.944a1.859 1.859 0 0 1 0-2.607l7.31-7.367a1.849 1.849 0 0 1 1.311-.545h5a1.856 1.856 0 0 1 1.846 1.846v5a1.851 1.851 0 0 1-.545 1.311l-7.368 7.31a1.842 1.842 0 0 1-1.3.532 1.84 1.84 0 0 1-1.31-.536zm3.234-14.05l-7.31 7.367a.6.6 0 0 0 0 .868l4.943 4.944a.607.607 0 0 0 .869 0l7.367-7.31a.618.618 0 0 0 .183-.438v-5a.607.607 0 0 0-.615-.615h-5a.608.608 0 0 0-.436.184zm1.889 2.894a1.087 1.087 0 0 1 1.087-1.087 1.088 1.088 0 0 1 1.088 1.087 1.089 1.089 0 0 1-1.088 1.088 1.088 1.088 0 0 1-1.09-1.088z" data-name="Union 41" transform="translate(1394 265)" style="fill:#9599ac"/>
</svg>
