<svg xmlns="http://www.w3.org/2000/svg" width="19" height="16" viewBox="0 0 19 16">
    <g id="prefix__users2" transform="translate(-10.6 -12.9)">
        <path id="prefix__Union_4" d="M14.729 16H4.2a.831.831 0 0 1-.826-.849v-1.272c.019-.386.569-.688.774-.788.072-.039.119-.06.119-.06L4.325 13l2.966-1.692a5.079 5.079 0 0 1-1.457-3.745v-2.1c0-1.4 1.8-2.947 3.622-2.947h.089c1.823 0 3.622 1.548 3.622 2.947v2.1a5.082 5.082 0 0 1-1.458 3.745l2.882 1.645.138.077s.056.025.137.07c.218.109.735.4.754.778v1.273a.83.83 0 0 1-.826.849zM6.848 5.467v2.1a4.253 4.253 0 0 0 1.165 2.945 1.029 1.029 0 0 1 .366.874.963.963 0 0 1-.511.8l-3.134 1.743c-.024 0-.049.023-.073.023a1.355 1.355 0 0 0-.243.151V15h10.164v-.9a1.272 1.272 0 0 0-.242-.151c-.024 0-.049-.023-.073-.023l-3.134-1.747a.964.964 0 0 1-.511-.8 1.029 1.029 0 0 1 .366-.874 4.254 4.254 0 0 0 1.166-2.945v-2.1c0-.717-1.285-1.922-2.653-1.948-1.368.033-2.653 1.238-2.653 1.955zm9.72 8.038a1.694 1.694 0 0 0-.511-1h1.969v-.9a.661.661 0 0 0-.219-.124c-.024-.025-.073-.025-.1-.05L14.6 9.684a1.039 1.039 0 0 1-.509-.8.973.973 0 0 1 .364-.874 4.242 4.242 0 0 0 1.119-2.947V2.97c0-.75-1.288-1.972-2.7-1.972A3.053 3.053 0 0 0 11 1.647 4.96 4.96 0 0 0 9.789 1.5 4.246 4.246 0 0 1 12.874 0c1.824 0 3.67 1.571 3.67 2.97v2.1a5.105 5.105 0 0 1-1.482 3.745l3.111 1.747s.828.349.828.849v1.248a.833.833 0 0 1-.828.851zM.826 13.5A.833.833 0 0 1 0 12.654v-1.247c0-.5.826-.849.826-.849l3.112-1.747a5.105 5.105 0 0 1-1.482-3.745V2.97C2.456 1.571 4.3 0 6.124 0a4.25 4.25 0 0 1 3.088 1.5A4.991 4.991 0 0 0 8 1.647 3.045 3.045 0 0 0 6.124 1c-1.408 0-2.7 1.222-2.7 1.972v2.1a4.241 4.241 0 0 0 1.122 2.941.973.973 0 0 1 .364.874 1.037 1.037 0 0 1-.509.8l-3.113 1.745c-.024.025-.072.025-.1.05a.636.636 0 0 0-.218.124v.9h1.971a1.7 1.7 0 0 0-.509 1z" data-name="Union 4" transform="translate(10.6 12.9)" style="fill:#9599ac"/>
    </g>
</svg>
