<svg xmlns="http://www.w3.org/2000/svg" width="13" height="14" viewBox="0 0 13 14">
    <g id="prefix__users2" transform="translate(-15 -14.9)">
        <path id="prefix__Path_1182" d="M25.592 26.654l-3.27-1.814a5.2 5.2 0 0 0 1.557-3.889v-2.178c0-1.452-1.92-3.059-3.866-3.059s-3.918 1.607-3.918 3.059v2.178a5.4 5.4 0 0 0 1.635 3.863l-3.347 1.815s-.882.389-.882.881v1.322a.875.875 0 0 0 .882.881h11.235a.875.875 0 0 0 .882-.881V27.51c-.026-.493-.908-.856-.908-.856zm-.156 2.022h-10.9v-.933a1.375 1.375 0 0 1 .259-.156c.026 0 .052-.026.078-.026l3.347-1.815a1 1 0 0 0 .545-.83 1.055 1.055 0 0 0-.389-.907 4.353 4.353 0 0 1-1.246-3.059v-2.177c0-.752 1.4-2.022 2.88-2.022 1.5 0 2.828 1.27 2.828 2.022v2.178A4.272 4.272 0 0 1 21.7 24.01a1 1 0 0 0-.389.907 1.074 1.074 0 0 0 .545.83l3.269 1.815c.026.026.078.026.1.052a.681.681 0 0 1 .234.13v.933z" data-name="Path 1182" transform="translate(1.5 -.814)" style="fill:#9599ac"/>
    </g>
</svg>
