<svg xmlns="http://www.w3.org/2000/svg" width="31.7" height="31.7" viewBox="0 0 31.7 31.7">
    <defs>
        <filter id="prefix__Rectangle_1054" width="31.7" height="31.7" x="0" y="0" filterUnits="userSpaceOnUse">
            <feOffset dy="1"/>
            <feGaussianBlur result="blur" stdDeviation="1.5"/>
            <feFlood flood-opacity=".161"/>
            <feComposite in2="blur" operator="in"/>
            <feComposite in="SourceGraphic"/>
        </filter>
        <style>
            .prefix__cls-2{fill:#2585d3}
        </style>
    </defs>
    <g id="prefix__Group_2315" data-name="Group 2315" transform="translate(-297.15 -49.15)">
        <g filter="url(#prefix__Rectangle_1054)" transform="translate(297.15 49.15)">
            <rect id="prefix__Rectangle_1054-2" width="22" height="22" fill="#fff" stroke="rgba(37,133,211,0.3)" stroke-width="0.7px" data-name="Rectangle 1054" rx="4" transform="translate(4.85 3.85)"/>
        </g>
        <g id="prefix__Group_2304" data-name="Group 2304" transform="translate(305.535 57.584)">
            <path id="prefix__Path_2112" d="M14 20.95l-6.565-3.316a.548.548 0 0 0-.5 0L.37 20.95a.7.7 0 0 0-.364.611.717.717 0 0 0 .325.639L6.9 26.164a.553.553 0 0 0 .579 0l6.56-3.964a.716.716 0 0 0 .325-.639.7.7 0 0 0-.364-.611zm-6.815 3.811l-5.166-3.12 5.166-2.609 5.166 2.609z" class="prefix__cls-2" data-name="Path 2112" transform="translate(-.006 -17.574)"/>
            <path id="prefix__Path_2113" d="M13.454 131.982l-6.275 3.791L.9 131.982a.579.579 0 0 0-.831.286.745.745 0 0 0 .253.942l6.564 3.966a.553.553 0 0 0 .579 0l6.564-3.966a.745.745 0 0 0 .253-.942.58.58 0 0 0-.828-.286z" class="prefix__cls-2" data-name="Path 2113" transform="translate(0 -124.205)"/>
        </g>
    </g>
</svg>
