<?xml version="1.0" encoding="utf-8"?>
<!-- Generator: Adobe Illustrator 21.0.0, SVG Export Plug-In . SVG Version: 6.00 Build 0)  -->
<svg version="1.1" id="Layer_1" xmlns="http://www.w3.org/2000/svg" xmlns:xlink="http://www.w3.org/1999/xlink" x="0px" y="0px"
	 viewBox="0 0 1920 1080" style="enable-background:new 0 0 1920 1080;" xml:space="preserve">
<style type="text/css">
	.st0{fill:#D2262F;}
	.st1{fill:url(#SVGID_1_);}
	.st2{fill:url(#SVGID_2_);}
	.st3{fill:url(#SVGID_3_);}
	.st4{fill:url(#SVGID_4_);}
	.st5{fill:#0D83D5;}
	.st6{fill:url(#SVGID_5_);}
	.st7{fill:url(#SVGID_6_);}
	.st8{fill:url(#SVGID_7_);}
	.st9{fill:url(#SVGID_8_);}
	.st10{fill:#FFFFFF;}
</style>
<g>
	<g>
		<g>
			<g>
				<g>
					<path class="st0" d="M1129.8,550.3v73.5h-18.4V460.4h18.4V533h94.3v-72.6h18.4v163.4h-18.4v-73.5H1129.8z"/>
					<path class="st0" d="M1280.1,526.2l-5.4-14.7c13.3-6.1,26.4-10,43.9-10c32.9,0,51.3,16.8,51.3,48.5v73.7h-17.3v-18.2
						c-8.4,11-22.4,20.8-43.6,20.8c-22.4,0-45-12.6-45-37.8c0-25.7,21-39.2,51.6-39.2c15.4,0,26.4,2.1,37.1,5.1v-4.2
						c0-21.7-13.3-32.9-35.9-32.9C1302.5,517.4,1291.3,521.1,1280.1,526.2z M1282.2,587.8c0,15.4,14,24.3,30.3,24.3
						c22.2,0,40.4-13.5,40.4-32.7v-11.7c-8.9-2.6-20.8-5.1-35.5-5.1C1294.8,562.6,1282.2,572.4,1282.2,587.8z"/>
					<path class="st0" d="M1509.6,600l31.7-96.8h18.7l-42.5,121.6h-15.6l-32.4-95.2l-32.7,95.2H1421l-42.2-121.6h19.1l31.7,96.8
						l32.4-97.3h14.9L1509.6,600z"/>
					<path class="st0" d="M1681.1,623.8h-21.5l-43.2-56.2l-24.5,24.7v31.5h-18V453.4h18V571l65.1-67.9h22.4l-50.6,51.8L1681.1,623.8
						z"/>
				</g>
			</g>
			<g>
				<g>
					<linearGradient id="SVGID_1_" gradientUnits="userSpaceOnUse" x1="1111.3726" y1="539.8889" x2="1681.077" y2="539.8889">
						<stop  offset="0" style="stop-color:#0D83D5"/>
						<stop  offset="1" style="stop-color:#3AC587"/>
					</linearGradient>
					<path class="st1" d="M1129.8,550.3v73.5h-18.4V460.4h18.4V533h94.3v-72.6h18.4v163.4h-18.4v-73.5H1129.8z"/>
					<linearGradient id="SVGID_2_" gradientUnits="userSpaceOnUse" x1="1111.3726" y1="539.8889" x2="1681.077" y2="539.8889">
						<stop  offset="0" style="stop-color:#0D83D5"/>
						<stop  offset="1" style="stop-color:#3AC587"/>
					</linearGradient>
					<path class="st2" d="M1280.1,526.2l-5.4-14.7c13.3-6.1,26.4-10,43.9-10c32.9,0,51.3,16.8,51.3,48.5v73.7h-17.3v-18.2
						c-8.4,11-22.4,20.8-43.6,20.8c-22.4,0-45-12.6-45-37.8c0-25.7,21-39.2,51.6-39.2c15.4,0,26.4,2.1,37.1,5.1v-4.2
						c0-21.7-13.3-32.9-35.9-32.9C1302.5,517.4,1291.3,521.1,1280.1,526.2z M1282.2,587.8c0,15.4,14,24.3,30.3,24.3
						c22.2,0,40.4-13.5,40.4-32.7v-11.7c-8.9-2.6-20.8-5.1-35.5-5.1C1294.8,562.6,1282.2,572.4,1282.2,587.8z"/>
					<linearGradient id="SVGID_3_" gradientUnits="userSpaceOnUse" x1="1111.3726" y1="539.8889" x2="1681.077" y2="539.8889">
						<stop  offset="0" style="stop-color:#0D83D5"/>
						<stop  offset="1" style="stop-color:#3AC587"/>
					</linearGradient>
					<path class="st3" d="M1509.6,600l31.7-96.8h18.7l-42.5,121.6h-15.6l-32.4-95.2l-32.7,95.2H1421l-42.2-121.6h19.1l31.7,96.8
						l32.4-97.3h14.9L1509.6,600z"/>
					<linearGradient id="SVGID_4_" gradientUnits="userSpaceOnUse" x1="1111.3726" y1="539.8889" x2="1681.077" y2="539.8889">
						<stop  offset="0" style="stop-color:#0D83D5"/>
						<stop  offset="1" style="stop-color:#3AC587"/>
					</linearGradient>
					<path class="st4" d="M1681.1,623.8h-21.5l-43.2-56.2l-24.5,24.7v31.5h-18V453.4h18V571l65.1-67.9h22.4l-50.6,51.8L1681.1,623.8
						z"/>
				</g>
			</g>
		</g>
		<g>
			<g>
				<path class="st5" d="M254.7,468c-3.8-3.6-9.7-3.4-13.2,0.3c-3.6,3.8-3.4,9.7,0.3,13.2l51,48.5c1.8,1.7,4.2,2.6,6.4,2.6
					c2.5,0,5-0.9,6.8-2.9c3.5-3.8,3.4-9.6-0.3-13.2L254.7,468z"/>
				<path class="st5" d="M340.2,553.4c-3.8-3.5-9.7-3.4-13.2,0.3c-3.5,3.8-3.4,9.6,0.3,13.2l51,48.5c1.8,1.7,4.1,2.6,6.4,2.6
					c2.5,0,5-1,6.8-2.9c3.6-3.7,3.4-9.7-0.3-13.2L340.2,553.4z"/>
				<path class="st5" d="M291.3,552.5l-48.5,51c-3.6,3.7-3.4,9.6,0.3,13.2c1.8,1.7,4.1,2.6,6.4,2.6c2.5,0,5-1,6.8-2.9l48.5-51
					c3.5-3.7,3.4-9.6-0.3-13.2C300.7,548.6,294.8,548.8,291.3,552.5z"/>
				<path class="st5" d="M359,456.9c-5.2,0-9.3,4.2-9.3,9.4c0,5.1,4.2,9.3,9.3,9.3h9.6L328.2,518c-3.6,3.8-3.4,9.6,0.4,13.2
					c1.8,1.8,4.1,2.6,6.4,2.6c2.5,0,5-1,6.8-2.9l42.2-44.4v14c0,5.2,4.2,9.4,9.3,9.4c5.2,0,9.4-4.2,9.4-9.4v-43.6H359z"/>
			</g>
			<g>
				<linearGradient id="SVGID_5_" gradientUnits="userSpaceOnUse" x1="242.2884" y1="615.9272" x2="402.0169" y2="456.1987">
					<stop  offset="0" style="stop-color:#0D83D5"/>
					<stop  offset="1" style="stop-color:#3AC587"/>
				</linearGradient>
				<path class="st6" d="M254.7,468c-3.8-3.6-9.7-3.4-13.2,0.3c-3.6,3.8-3.4,9.7,0.3,13.2l51,48.5c1.8,1.7,4.2,2.6,6.4,2.6
					c2.5,0,5-0.9,6.8-2.9c3.5-3.8,3.4-9.6-0.3-13.2L254.7,468z"/>
				<linearGradient id="SVGID_6_" gradientUnits="userSpaceOnUse" x1="242.2884" y1="615.9272" x2="402.0169" y2="456.1987">
					<stop  offset="0" style="stop-color:#0D83D5"/>
					<stop  offset="1" style="stop-color:#3AC587"/>
				</linearGradient>
				<path class="st7" d="M340.2,553.4c-3.8-3.5-9.7-3.4-13.2,0.3c-3.5,3.8-3.4,9.6,0.3,13.2l51,48.5c1.8,1.7,4.1,2.6,6.4,2.6
					c2.5,0,5-1,6.8-2.9c3.6-3.7,3.4-9.7-0.3-13.2L340.2,553.4z"/>
				<linearGradient id="SVGID_7_" gradientUnits="userSpaceOnUse" x1="242.2884" y1="615.9272" x2="402.0169" y2="456.1987">
					<stop  offset="0" style="stop-color:#0D83D5"/>
					<stop  offset="1" style="stop-color:#3AC587"/>
				</linearGradient>
				<path class="st8" d="M291.3,552.5l-48.5,51c-3.6,3.7-3.4,9.6,0.3,13.2c1.8,1.7,4.1,2.6,6.4,2.6c2.5,0,5-1,6.8-2.9l48.5-51
					c3.5-3.7,3.4-9.6-0.3-13.2C300.7,548.6,294.8,548.8,291.3,552.5z"/>
				<linearGradient id="SVGID_8_" gradientUnits="userSpaceOnUse" x1="242.2884" y1="615.9272" x2="402.0169" y2="456.1987">
					<stop  offset="0" style="stop-color:#0D83D5"/>
					<stop  offset="1" style="stop-color:#3AC587"/>
				</linearGradient>
				<path class="st9" d="M359,456.9c-5.2,0-9.3,4.2-9.3,9.4c0,5.1,4.2,9.3,9.3,9.3h9.6L328.2,518c-3.6,3.8-3.4,9.6,0.4,13.2
					c1.8,1.8,4.1,2.6,6.4,2.6c2.5,0,5-1,6.8-2.9l42.2-44.4v14c0,5.2,4.2,9.4,9.3,9.4c5.2,0,9.4-4.2,9.4-9.4v-43.6H359z"/>
			</g>
		</g>
	</g>
	<path class="st10" d="M551.7,533.2c36.4,7.9,53.2,21.2,53.2,46.4c0,28.2-23.3,46.4-55.8,46.4c-25.9,0-47.1-8.6-66.7-26.1l11.4-13.5
		c17,15.4,33.4,23.1,56,23.1c21.9,0,36.4-11.4,36.4-28c0-15.4-8.2-24-42.5-31.3c-37.6-8.2-54.8-20.3-54.8-47.4
		c0-26.1,22.6-44.8,53.7-44.8c23.8,0,40.8,6.8,57.4,20.1l-10.7,14.2c-15.2-12.4-30.3-17.7-47.1-17.7c-21.2,0-34.8,11.7-34.8,26.6
		C507.3,516.9,515.8,525.5,551.7,533.2z"/>
	<path class="st10" d="M679.4,610.9c16.6,0,28.2-6.8,38-17l11.2,10c-12.1,13.5-26.8,22.6-49.7,22.6c-33.1,0-60.2-25.4-60.2-63
		c0-35,24.5-63,57.9-63c35.7,0,56.2,28.5,56.2,63.9c0,1.6,0,3.5-0.2,5.6h-95.7C639.5,596.2,658.2,610.9,679.4,610.9z M714.6,556.8
		c-1.9-21.9-14.5-41.1-38.5-41.1c-21,0-36.9,17.5-39.2,41.1H714.6z"/>
	<path class="st10" d="M769.3,623.8h-18V503.1h18v21c7.9-13.1,20.5-23.6,41.3-23.6c29.2,0,46.2,19.6,46.2,48.3v74.9h-18v-70.5
		c0-22.4-12.1-36.4-33.4-36.4c-20.8,0-36.2,15.2-36.2,37.8V623.8z"/>
	<path class="st10" d="M920.8,626.1c-17.3,0-36.4-6.8-49.9-17.7l9.1-12.8c13.1,9.8,27.5,15.4,41.8,15.4c14.5,0,25-7.5,25-19.1v-0.5
		c0-12.1-14.2-16.8-30.1-21.2c-18.9-5.4-39.9-11.9-39.9-34.1v-0.5c0-20.8,17.3-34.5,41.1-34.5c14.7,0,31,5.1,43.4,13.3l-8.2,13.5
		c-11.2-7.2-24-11.7-35.7-11.7c-14.2,0-23.3,7.5-23.3,17.5v0.5c0,11.4,14.9,15.9,31,20.8c18.7,5.6,38.7,12.8,38.7,34.5v0.5
		C963.7,612.8,944.8,626.1,920.8,626.1z"/>
	<path class="st10" d="M1035.1,610.9c16.6,0,28.2-6.8,38-17l11.2,10c-12.1,13.5-26.8,22.6-49.7,22.6c-33.1,0-60.2-25.4-60.2-63
		c0-35,24.5-63,57.9-63c35.7,0,56.2,28.5,56.2,63.9c0,1.6,0,3.5-0.2,5.6h-95.7C995.2,596.2,1013.8,610.9,1035.1,610.9z
		 M1070.3,556.8c-1.9-21.9-14.5-41.1-38.5-41.1c-21,0-36.9,17.5-39.2,41.1H1070.3z"/>
</g>
</svg>
