<?xml version="1.0" encoding="utf-8"?>
<!-- Generator: Adobe Illustrator 21.0.0, SVG Export Plug-In . SVG Version: 6.00 Build 0)  -->
<svg version="1.1" id="Layer_1" xmlns="http://www.w3.org/2000/svg" xmlns:xlink="http://www.w3.org/1999/xlink" x="0px" y="0px"
	 viewBox="0 0 1080 1080" style="enable-background:new 0 0 1080 1080;" xml:space="preserve">
<style type="text/css">
	.st0{fill:#0D83D5;}
	.st1{fill:url(#SVGID_1_);}
	.st2{fill:url(#SVGID_2_);}
	.st3{fill:url(#SVGID_3_);}
	.st4{fill:url(#SVGID_4_);}
</style>
<g>
	<g>
		<g>
			<path class="st0" d="M218.7,199c-18.3-17.5-47.1-16.5-64.2,1.5c-17.5,18.4-16.7,47,1.4,64.2L404,500.7
				c8.9,8.5,20.2,12.6,31.2,12.6c12.1,0,24.1-4.6,33-14.1c17.3-18.3,16.6-46.9-1.6-64.2L218.7,199z"/>
			<path class="st0" d="M634.3,614.6c-18.3-17.2-47-16.6-64.3,1.6c-17.2,18.3-16.6,46.8,1.5,64.2l248.1,235.9
				c8.9,8.5,20.1,12.5,31.2,12.5c12.2,0,24.1-4.7,33-14.1c17.5-18.1,16.6-47-1.4-64.2L634.3,614.6z"/>
			<path class="st0" d="M396.3,610.2l-235.8,248c-17.4,18.2-16.7,46.9,1.5,64.2c8.8,8.4,20,12.5,31.2,12.5c11.9,0,24.1-4.7,33-14
				l235.9-248.2c17.2-18.1,16.5-46.6-1.6-64.1C442.2,591.2,413.6,591.9,396.3,610.2z"/>
			<path class="st0" d="M725.9,145.1c-25.2,0-45.4,20.5-45.4,45.6c0,24.9,20.3,45.3,45.4,45.3h46.7L576,442.6
				c-17.4,18.3-16.6,46.9,1.7,64.2c8.7,8.5,19.8,12.5,31.1,12.5c11.9,0,24.1-4.8,32.9-13.9l205.4-215.9v67.9
				c0,25.1,20.6,45.5,45.4,45.5c25.3,0,45.7-20.4,45.7-45.5V145.1H725.9z"/>
		</g>
		<g>
			<linearGradient id="SVGID_1_" gradientUnits="userSpaceOnUse" x1="158.1734" y1="918.5618" x2="934.9055" y2="141.8297">
				<stop  offset="0" style="stop-color:#0D83D5"/>
				<stop  offset="1" style="stop-color:#3AC587"/>
			</linearGradient>
			<path class="st1" d="M218.7,199c-18.3-17.5-47.1-16.5-64.2,1.5c-17.5,18.4-16.7,47,1.4,64.2L404,500.7
				c8.9,8.5,20.2,12.6,31.2,12.6c12.1,0,24.1-4.6,33-14.1c17.3-18.3,16.6-46.9-1.6-64.2L218.7,199z"/>
			<linearGradient id="SVGID_2_" gradientUnits="userSpaceOnUse" x1="158.1734" y1="918.5618" x2="934.9055" y2="141.8297">
				<stop  offset="0" style="stop-color:#0D83D5"/>
				<stop  offset="1" style="stop-color:#3AC587"/>
			</linearGradient>
			<path class="st2" d="M634.3,614.6c-18.3-17.2-47-16.6-64.3,1.6c-17.2,18.3-16.6,46.8,1.5,64.2l248.1,235.9
				c8.9,8.5,20.1,12.5,31.2,12.5c12.2,0,24.1-4.7,33-14.1c17.5-18.1,16.6-47-1.4-64.2L634.3,614.6z"/>
			<linearGradient id="SVGID_3_" gradientUnits="userSpaceOnUse" x1="158.1734" y1="918.5618" x2="934.9055" y2="141.8297">
				<stop  offset="0" style="stop-color:#0D83D5"/>
				<stop  offset="1" style="stop-color:#3AC587"/>
			</linearGradient>
			<path class="st3" d="M396.3,610.2l-235.8,248c-17.4,18.2-16.7,46.9,1.5,64.2c8.8,8.4,20,12.5,31.2,12.5c11.9,0,24.1-4.7,33-14
				l235.9-248.2c17.2-18.1,16.5-46.6-1.6-64.1C442.2,591.2,413.6,591.9,396.3,610.2z"/>
			<linearGradient id="SVGID_4_" gradientUnits="userSpaceOnUse" x1="158.1734" y1="918.5618" x2="934.9055" y2="141.8297">
				<stop  offset="0" style="stop-color:#0D83D5"/>
				<stop  offset="1" style="stop-color:#3AC587"/>
			</linearGradient>
			<path class="st4" d="M725.9,145.1c-25.2,0-45.4,20.5-45.4,45.6c0,24.9,20.3,45.3,45.4,45.3h46.7L576,442.6
				c-17.4,18.3-16.6,46.9,1.7,64.2c8.7,8.5,19.8,12.5,31.1,12.5c11.9,0,24.1-4.8,32.9-13.9l205.4-215.9v67.9
				c0,25.1,20.6,45.5,45.4,45.5c25.3,0,45.7-20.4,45.7-45.5V145.1H725.9z"/>
		</g>
	</g>
</g>
</svg>
