<svg xmlns="http://www.w3.org/2000/svg" width="100" height="100" viewBox="0 0 100 100">
  <g id="Group_684" data-name="Group 684" transform="translate(-150.959 -145.959)">
    <g id="Group_1145" data-name="Group 1145" transform="translate(0 19)">
      <path id="Path_1695" data-name="Path 1695" d="M50,0A50,50,0,1,1,0,50,50,50,0,0,1,50,0Z" transform="translate(150.959 126.959)" fill="#eaefff"/>
      <g id="Group_1161" data-name="Group 1161" transform="translate(174.459 205.459)">
        <path id="Path_1872" data-name="Path 1872" d="M23.829-15.2a5.188,5.188,0,0,0-2.438,3.49,1.478,1.478,0,0,1-.123.372q0,.3.015.6l0,.082a5.207,5.207,0,0,0,5.208,5.205A5.207,5.207,0,0,0,31.7-10.582a9.954,9.954,0,0,0-.159-1.034A5.232,5.232,0,0,0,26.4-15.872,5.221,5.221,0,0,0,23.829-15.2Zm-4.864,1.149a8.184,8.184,0,0,1,3.384-3.694,8.121,8.121,0,0,1,4.145-1.133A8.142,8.142,0,0,1,33.95-14.01a16.427,16.427,0,0,0,7.062-7.067A8.136,8.136,0,0,1,36.1-28.546a8.136,8.136,0,0,1,4.865-7.448,16.4,16.4,0,0,0-6.949-6.943A8.187,8.187,0,0,1,29.7-38.8a8.124,8.124,0,0,1-3.254.677,8.142,8.142,0,0,1-7.456-4.869A16.334,16.334,0,0,0,12.027-36.1a8.244,8.244,0,0,1,4.695,6.147,8.152,8.152,0,0,1,.122,1.4,8.136,8.136,0,0,1-4.875,7.452A16.427,16.427,0,0,0,18.965-14.048Zm15.648,2.993q.016.136.028.272l.006.136A8.151,8.151,0,0,1,26.493-2.5a8.151,8.151,0,0,1-8.154-8.106q-.013-.237-.016-.474a19.371,19.371,0,0,1-9.288-9.305q-.178.009-.359.011a8.179,8.179,0,0,1-5.782-2.394A8.168,8.168,0,0,1,.5-28.547a8.168,8.168,0,0,1,2.394-5.778,8.179,8.179,0,0,1,5.721-2.393q.221-.017.442-.023a19.278,19.278,0,0,1,9.457-9.287c0-.113.008-.221.014-.324A8.151,8.151,0,0,1,26.682-54.5a8.151,8.151,0,0,1,8.154,8.148,1.468,1.468,0,0,1-.085.494,19.347,19.347,0,0,1,9.186,9.232q.267,0,.534.026a8.12,8.12,0,0,1,6.956,4.082,8.108,8.108,0,0,1-.029,8.113,8.124,8.124,0,0,1-7.056,4.031q-.193,0-.387-.013A19.371,19.371,0,0,1,34.613-11.056Zm8.775-22.616q-.056.015-.114.026-.158.03-.311.069a5.228,5.228,0,0,0-3.808,5.03A5.228,5.228,0,0,0,43.03-23.5l.149.033a1.47,1.47,0,0,1,.352.074,5.632,5.632,0,0,0,.832.072,5.174,5.174,0,0,0,4.489-2.569,5.167,5.167,0,0,0,.019-5.17,5.174,5.174,0,0,0-4.471-2.6l-.12-.005A5.992,5.992,0,0,0,43.388-33.672ZM9.459-23.389a1.5,1.5,0,0,1,.209-.055,5.212,5.212,0,0,0,.863-.241,5.294,5.294,0,0,0,3.354-4.906,5.306,5.306,0,0,0-.068-.864,5.193,5.193,0,0,0-4.149-4.189,1.475,1.475,0,0,1-.436-.155q-.217,0-.434.02l-.122.005a5.233,5.233,0,0,0-3.7,1.531,5.226,5.226,0,0,0-1.532,3.7h0a5.226,5.226,0,0,0,1.532,3.7A5.224,5.224,0,0,0,8.66-23.318,5.154,5.154,0,0,0,9.459-23.389ZM28.552-41.509a5.192,5.192,0,0,0,3-3.781,1.471,1.471,0,0,1,.169-.459q0-.256-.016-.512A1.463,1.463,0,0,1,31.851-47a5.208,5.208,0,0,0-5.169-4.559,5.228,5.228,0,0,0-5.211,5.288,9.577,9.577,0,0,0,0,.983,5.23,5.23,0,0,0,5.121,4.16A5.222,5.222,0,0,0,28.552-41.509Z" transform="translate(0 0)" fill="#2585d3"/>
      </g>
    </g>
  </g>
</svg>
