<svg xmlns="http://www.w3.org/2000/svg" width="100" height="100" viewBox="0 0 100 100">
    <defs>
        <style>
            .cls-1{fill:#eaefff}.cls-2{fill:#2585d3;stroke:#2585d3}
        </style>
    </defs>
    <g id="Group_684" data-name="Group 684" transform="translate(-150.959 -126.959)">
        <path id="Path_1695" d="M50 0A50 50 0 1 1 0 50 50 50 0 0 1 50 0z" class="cls-1" data-name="Path 1695" transform="translate(150.959 126.959)"/>
        <path id="groups" d="M22.482 54.233l21.135-15.786a.892.892 0 0 0 .383-.732v-.09a.877.877 0 0 0-.368-.638L37.486 32.4l6.131-4.58a.891.891 0 0 0 .383-.734V27a.88.88 0 0 0-.368-.64L22.485 10.563a.792.792 0 0 0-.968 0L.379 26.35a.89.89 0 0 0-.379.656v.077a.88.88 0 0 0 .372.725L6.514 32.4.379 36.978a.891.891 0 0 0-.379.654v.081a.879.879 0 0 0 .372.724l21.149 15.8A1.513 1.513 0 0 0 22 54.4a.817.817 0 0 0 .482-.167zM2.088 27.083L22 12.208l19.912 14.875L22 41.957zm0 10.63l5.77-4.313 13.663 10.207a.788.788 0 0 0 .961 0l13.66-10.2 5.77 4.312L22 52.586z" class="cls-2" transform="translate(178.959 144.561)"/>
    </g>
</svg>
