<svg xmlns="http://www.w3.org/2000/svg" width="86.5" height="65.831" viewBox="0 0 86.5 65.831">
    <defs>
        <style>
            .cls-1,.cls-3,.cls-6{fill:#171e48}.cls-1{stroke:#fff}.cls-1,.cls-2,.cls-3{stroke-linecap:round;stroke-linejoin:round}.cls-2,.cls-5{fill:#fff}.cls-4,.cls-5,.cls-6{stroke:none}
        </style>
    </defs>
    <g id="Group_802" data-name="Group 802" transform="translate(-1528.5 -216.543)">
        <g id="globe-user" transform="translate(1529 217.043)">
            <path id="Path_1634" d="M39.655 55.153c.022-.1.045-.19.067-.286l.2.033.041-.039a12.217 12.217 0 0 1 2.29-15.948h-1.067a67.793 67.793 0 0 0-.817-9.18 42.863 42.863 0 0 0 10.542-2.955 25.3 25.3 0 0 1 3.789 9.865 12.445 12.445 0 0 1 3.7 2.143 28.69 28.69 0 0 0-5.334-14.933l-.028-.061a1.705 1.705 0 0 0-.343-.445 29.337 29.337 0 0 0-46.93 0 1.706 1.706 0 0 0-.343.444l-.028.061a28.761 28.761 0 0 0 0 33.533l.028.061a1.7 1.7 0 0 0 .337.437A29.352 29.352 0 0 0 34.157 69.2a4.204 4.204 0 0 1-.015-.338 19.161 19.161 0 0 1 5.513-13.709zm-2.709-4.1a75.211 75.211 0 0 0-15.434 0 63.5 63.5 0 0 1-.8-8.726h17.033a63.528 63.528 0 0 1-.799 8.724zm-16.234-12.14a63.555 63.555 0 0 1 .8-8.726 73.721 73.721 0 0 0 7.717.4 73.72 73.72 0 0 0 7.717-.4 63.5 63.5 0 0 1 .8 8.726zM48.8 23.968a41.582 41.582 0 0 1-9.073 2.4 41.594 41.594 0 0 0-1.63-5.52 22.961 22.961 0 0 0-2.577-5.05 25.861 25.861 0 0 1 13.28 8.17zm-19.571-8.752c2.6 0 5.39 4.509 7.05 11.6a69.72 69.72 0 0 1-7.05.353 69.718 69.718 0 0 1-7.05-.353c1.659-7.091 4.453-11.6 7.05-11.6zm-6.285.584a22.968 22.968 0 0 0-2.577 5.05 41.542 41.542 0 0 0-1.63 5.52 41.569 41.569 0 0 1-9.073-2.4 25.86 25.86 0 0 1 13.279-8.17zM7.547 26.778a42.853 42.853 0 0 0 10.542 2.955 67.8 67.8 0 0 0-.817 9.18H3.5a25.287 25.287 0 0 1 4.047-12.135zm0 27.683A25.287 25.287 0 0 1 3.5 42.325h13.772a67.8 67.8 0 0 0 .817 9.18A42.861 42.861 0 0 0 7.547 54.46zm2.115 2.81a41.568 41.568 0 0 1 9.073-2.4 41.542 41.542 0 0 0 1.63 5.52 22.96 22.96 0 0 0 2.577 5.05 25.86 25.86 0 0 1-13.28-8.171zm19.566 8.752c-2.6 0-5.39-4.509-7.05-11.6a70.624 70.624 0 0 1 14.1 0c-1.659 7.09-4.453 11.599-7.049 11.599z" class="cls-1" data-name="Path 1634" transform="translate(0 -11.619)"/>
        </g>
        <g id="team" transform="translate(1565.81 243.465)">
            <g id="Group_791" data-name="Group 791" transform="translate(6.675)">
                <g id="Group_790" data-name="Group 790">
                    <g id="Path_1628" class="cls-2" data-name="Path 1628">
                        <path d="M356.048 224.683h-.07c-2.036-.017-4.044-.755-5.807-2.133-1.383-1.081-2.555-2.493-3.486-4.196-.9-1.647-1.483-3.326-1.732-4.988-.323-2.146-.128-4.146.578-5.944.759-1.935 1.994-3.606 3.57-4.832a11.36 11.36 0 0 1 6.942-2.375c1.74 0 3.473.41 5.013 1.186 1.844.93 3.398 2.36 4.492 4.135a11.312 11.312 0 0 1 1.684 5.95c-.005.616-.06 1.242-.165 1.912-.575 3.628-2.524 7.05-5.214 9.152-1.785 1.396-3.793 2.133-5.805 2.133zm-.065-15.266c-.332 0-.647.079-.911.227-.753.424-1.155 1.248-1.05 2.15.07.598.325 1.365.667 2.001.54 1.005 1.002 1.398 1.13 1.494.079.059.143.1.192.131.1-.062.23-.16.364-.292.483-.479.89-1.104 1.213-1.857.278-.651.429-1.288.435-1.843-.01-.706-.384-1.378-.953-1.716a2.16 2.16 0 0 0-1.087-.295z" class="cls-4" transform="translate(-348.802 -204.215)"/>
                        <path d="M356.043 204.215a7.32 7.32 0 0 0-4.486 1.533c-1.048.814-1.82 1.904-2.303 3.135-.487 1.242-.542 2.583-.346 3.89.193 1.282.668 2.53 1.287 3.663.613 1.121 1.43 2.173 2.44 2.962.975.763 2.123 1.275 3.377 1.285h.036c1.232 0 2.387-.538 3.342-1.285 2.004-1.566 3.331-4.137 3.726-6.626.07-.44.113-.884.117-1.33-.007.378-.304.567-.601.567-.303 0-.606-.195-.609-.585-.005 1.16-.289 2.324-.757 3.42-.495 1.157-1.18 2.237-2.074 3.124-.767.76-1.782 1.377-2.777 1.486a3.61 3.61 0 0 1-.39.021c-.951 0-1.8-.383-2.601-.983-.933-.698-1.695-1.754-2.259-2.803-.565-1.052-.985-2.303-1.116-3.433-.288-2.482.878-4.869 3.06-6.098a5.853 5.853 0 0 1 2.874-.74c1.088 0 2.177.29 3.128.854 1.806 1.072 2.9 3.064 2.912 5.152.002-.39.306-.585.608-.585.298 0 .594.19.602.567-.023-2.7-1.56-5.215-3.977-6.433a7.136 7.136 0 0 0-3.213-.758m7.19 7.19v0M356.043 196.216c2.361 0 4.717.558 6.812 1.614 5.114 2.576 8.323 7.745 8.377 13.494a11.035 11.035 0 0 1 0 .16v.019a16.918 16.918 0 0 1-.215 2.522c-.74 4.671-3.182 8.927-6.7 11.677-2.496 1.951-5.355 2.982-8.27 2.982-3.027-.025-5.876-1.056-8.34-2.982-1.814-1.418-3.339-3.245-4.532-5.429-1.126-2.06-1.859-4.184-2.178-6.312-.428-2.848-.155-5.54.81-7.999 1.022-2.604 2.695-4.862 4.84-6.529a15.378 15.378 0 0 1 9.396-3.217z" class="cls-5" transform="translate(-348.802 -204.215)"/>
                    </g>
                </g>
            </g>
            <g id="Group_793" data-name="Group 793" transform="translate(0 17.615)">
                <g id="Group_792" data-name="Group 792">
                    <g id="Path_1629" class="cls-2" data-name="Path 1629">
                        <path d="M260.033 527.42H233.51a4.61 4.61 0 0 1-4.604-4.605v-2.875c0-.253-.005-.522-.011-.807-.016-.794-.034-1.694.06-2.644.415-4.17 3.017-7.774 6.793-9.409 1.48-.641 3.09-.953 4.918-.953h1.184c1.082 0 2.632.356 3.875 2.052l1.052 1.436 1.094-1.506a4.718 4.718 0 0 1 2.467-1.767c.714-.215 1.333-.215 1.63-.215h1.21c1.94 0 3.838.475 5.489 1.373a11.457 11.457 0 0 1 5.971 10.055v5.26a4.61 4.61 0 0 1-4.605 4.605zm-8.125-9.21h3.521v-.671c-.008-.775-.42-1.514-1.05-1.885a2.428 2.428 0 0 0-.46-.21l-2.011 2.766zm-13.794 0h3.552l-1.58-2.155-.448-.612a2.18 2.18 0 0 0-.964.62c-.292.325-.48.73-.545 1.17-.024.163-.02.545-.017.852l.002.125z" class="cls-4" transform="translate(-232.882 -510.127)"/>
                        <path d="M260.033 523.42a.61.61 0 0 0 .605-.605v-5.276c-.005.38-.302.57-.601.57-.302 0-.606-.195-.608-.585v4.686h.604l-.604.605v-.605h-25.314v.605l-.604-.605h.604v-3.703c0-.612-.03-1.26.057-1.854a6.245 6.245 0 0 1 1.523-3.26c.924-1.031 2.148-1.698 3.506-1.961.464-.09.952-.11 1.442-.11.316 0 .632.008.943.012l-.217-.297.522.3-.305-.003 4.599 6.277.085.116c.141.193.332.29.523.29.19 0 .38-.096.521-.29l4.644-6.391h-.305l.523-.3-.077.105-.141.195H253.322c1.087.007 2.15.32 3.085.87 1.871 1.101 3.01 3.159 3.022 5.318 0-.39.302-.584.604-.584.303 0 .605.195.605.584v0a7.485 7.485 0 0 0-3.883-6.51 7.484 7.484 0 0 0-3.576-.887h-1.21c-.354 0-.626.008-.862.333-1.44 1.98-2.878 3.961-4.317 5.941l.524.716h-1.044l.015-.02.505-.696-4.292-5.858c-.165-.225-.333-.416-.648-.416h-1.184c-1.157 0-2.261.161-3.33.624-2.48 1.074-4.135 3.464-4.4 6.133-.1 1.006-.03 2.047-.03 3.056v2.875c0 .33.275.605.605.605H260.034m0 8H233.51c-4.418 0-8.604-4.187-8.604-8.605v-2.875c-.031-1.769-.033-2.82.069-3.847.558-5.613 4.077-10.473 9.183-12.684 1.993-.863 4.122-1.282 6.508-1.282h1.184c1.62 0 3.441.659 4.94 1.667 1.578-1.017 3.525-1.667 5.178-1.667h1.21c2.606 0 5.165.643 7.4 1.86a15.457 15.457 0 0 1 8.06 13.491v5.337c0 4.418-4.186 8.605-8.605 8.605z" class="cls-5" transform="translate(-232.882 -510.127)"/>
                    </g>
                </g>
            </g>
            <g id="Group_795" data-name="Group 795" transform="translate(24.553 4.368)">
                <g id="Group_794" data-name="Group 794">
                    <g id="Path_1630" class="cls-2" data-name="Path 1630">
                        <path d="M665.068 297.111c-.232 0-.467-.01-.697-.033-2.172-.21-4.237-1.297-5.814-3.059a13.17 13.17 0 0 1-2.785-4.957c-.659-2.19-.653-4.385.016-6.344 1.358-3.98 5.082-6.654 9.267-6.654a9.658 9.658 0 0 1 7.387 3.45 9.844 9.844 0 0 1 2.318 6.36c-.038 3.28-1.561 6.675-3.98 8.863-1.69 1.531-3.72 2.374-5.712 2.374zm-.061-11.83c-.118 0-.22.031-.304.092a.578.578 0 0 0-.204.353c-.023.145.005.542.262 1.11.09.199.18.37.265.513a4.47 4.47 0 0 0 .057-.102c.283-.512.457-1.05.468-1.45a.55.55 0 0 0-.097-.314c-.104-.148-.3-.201-.447-.201z" class="cls-4" transform="translate(-659.282 -280.064)"/>
                        <path d="M665.055 280.064c-2.447 0-4.672 1.574-5.482 3.946-.853 2.5.277 5.455 1.965 7.341.84.94 1.951 1.623 3.22 1.746.103.01.207.015.31.015 1.136 0 2.203-.593 3.028-1.34 1.606-1.454 2.643-3.792 2.664-5.956-.009.374-.303.56-.6.56-.302 0-.606-.194-.609-.584-.007 1.157-.388 2.343-.967 3.39-.574 1.04-1.37 1.964-2.438 2.47-.346.165-.73.244-1.137.244a3.3 3.3 0 0 1-.315-.015h-.003.003l.024.002c.018 0-.129-.02-.13-.02a3.272 3.272 0 0 1-.578-.166 4.22 4.22 0 0 1-.706-.385c-.973-.647-1.697-1.745-2.187-2.826-.481-1.062-.75-2.27-.566-3.404a4.57 4.57 0 0 1 1.81-2.953 4.507 4.507 0 0 1 2.646-.847c1.435 0 2.854.664 3.724 1.908.54.771.813 1.668.82 2.602.003-.39.307-.585.609-.585.296 0 .59.187.6.56-.032-2.746-2.047-5.182-4.78-5.628-.31-.05-.62-.075-.925-.075m5.705 5.728v0m-5.705-13.728c.431 0 1.787.11 2.212.18 6.58 1.073 11.413 6.72 11.493 13.428v.06a7.21 7.21 0 0 1 0 .132v.03c-.043 4.432-2.023 8.847-5.295 11.809-2.428 2.198-5.41 3.408-8.397 3.408-.258 0-.826-.027-1.083-.052-3.174-.307-6.16-1.86-8.409-4.372-3.862-4.317-5.265-10.307-3.574-15.261 1.911-5.6 7.157-9.362 13.053-9.362z" class="cls-5" transform="translate(-659.282 -280.064)"/>
                    </g>
                </g>
            </g>
            <g id="Group_797" data-name="Group 797" transform="translate(29.706 18.027)">
                <g id="Group_796" data-name="Group 796">
                    <g id="Path_1631" class="cls-2" data-name="Path 1631">
                        <path d="M759.644 531.866H749.376a4.568 4.568 0 0 1-3.472-1.581 4.636 4.636 0 0 1-1.114-3.024c0-.73.17-1.444.49-2.084a4.677 4.677 0 0 1-.418-1.18 4.517 4.517 0 0 1 .755-3.574l.245-.337 2.936-4.041.482-.663a5.35 5.35 0 0 1 1.066-1.126 4.614 4.614 0 0 1 2.849-.97l.309-.001.349-.001c1.058 0 2.207.053 3.434.44a9.892 9.892 0 0 1 5.03 3.6 9.872 9.872 0 0 1 1.931 5.885v4.052a4.61 4.61 0 0 1-4.604 4.605z" class="cls-4" transform="translate(-748.764 -517.284)"/>
                        <path d="M759.644 527.866a.61.61 0 0 0 .604-.605v-4.052a5.953 5.953 0 0 0-4.163-5.67c-.728-.23-1.48-.255-2.232-.255l-.658.002c-.337 0-.506.208-.68.448l-.481.662a42160.22 42160.22 0 0 0-3.18 4.378c-.195.267-.047.673.216.827a.576.576 0 0 0 .293.083c.208 0 .402-.119.534-.3l3.554-4.89-.306.001.522-.3-.216.298.469-.003c.573 0 1.14.023 1.696.172 1.146.306 2.13 1.073 2.748 2.078.497.809.675 1.698.675 2.638v3.279h.605l-.605.604v-.604h-9.664c-.78 0-.78 1.209 0 1.209h10.269m0 8H749.376c-4.419 0-8.586-4.186-8.586-8.605 0-.707.086-1.396.248-2.054a8.67 8.67 0 0 1-.091-.39c-.463-2.21.106-4.918 1.433-6.744l3.182-4.38c2.85-3.92 5.979-4.407 7.633-4.407h.081c1.932 0 3.49.08 5.212.622a13.893 13.893 0 0 1 9.76 13.3v4.053c0 4.418-4.186 8.605-8.604 8.605z" class="cls-5" transform="translate(-748.764 -517.284)"/>
                    </g>
                </g>
            </g>
        </g>
        <g id="team-2" data-name="team" transform="translate(1565.81 243.465)">
            <g id="Group_791-2" data-name="Group 791" transform="translate(6.675)">
                <g id="Group_790-2" data-name="Group 790">
                    <g id="Path_1628-2" class="cls-3" data-name="Path 1628">
                        <path d="M356.048 220.933h-.038c-1.22-.01-2.407-.46-3.53-1.338-.963-.753-1.83-1.804-2.504-3.039-.688-1.26-1.13-2.52-1.315-3.747-.223-1.487-.102-2.839.36-4.017.514-1.308 1.337-2.43 2.382-3.242a7.591 7.591 0 0 1 4.64-1.585c1.156 0 2.306.271 3.325.785a7.449 7.449 0 0 1 2.987 2.753 7.563 7.563 0 0 1 1.128 3.944 9.1 9.1 0 0 1-.12 1.364c-.43 2.715-1.858 5.251-3.82 6.784-1.119.876-2.328 1.338-3.495 1.338zm-.065-15.266c-.975 0-1.926.245-2.75.71a5.796 5.796 0 0 0-2.357 2.471 6.002 6.002 0 0 0-.58 3.379c.125 1.068.521 2.286 1.09 3.343.444.828 1.185 1.972 2.188 2.722.84.628 1.64.933 2.45.933.12 0 .243-.007.364-.02.858-.093 1.816-.609 2.628-1.415.827-.82 1.507-1.845 2.02-3.044.484-1.133.732-2.251.737-3.323-.012-2.03-1.08-3.922-2.79-4.936a5.881 5.881 0 0 0-3-.82z" class="cls-4" transform="translate(-348.802 -204.215)"/>
                        <path d="M356.043 204.215a7.32 7.32 0 0 0-4.486 1.533c-1.048.814-1.82 1.904-2.303 3.135-.487 1.242-.542 2.583-.346 3.89.193 1.282.668 2.53 1.287 3.663.613 1.121 1.43 2.173 2.44 2.962.975.763 2.123 1.275 3.377 1.285h.036c1.232 0 2.387-.538 3.342-1.285 2.004-1.566 3.331-4.137 3.726-6.626.07-.44.113-.884.117-1.33-.007.378-.304.567-.601.567-.303 0-.606-.195-.609-.585-.005 1.16-.289 2.324-.757 3.42-.495 1.157-1.18 2.237-2.074 3.124-.767.76-1.782 1.377-2.777 1.486a3.61 3.61 0 0 1-.39.021c-.951 0-1.8-.383-2.601-.983-.933-.698-1.695-1.754-2.259-2.803-.565-1.052-.985-2.303-1.116-3.433-.288-2.482.878-4.869 3.06-6.098a5.853 5.853 0 0 1 2.874-.74c1.088 0 2.177.29 3.128.854 1.806 1.072 2.9 3.064 2.912 5.152.002-.39.306-.585.608-.585.298 0 .594.19.602.567-.023-2.7-1.56-5.215-3.977-6.433a7.136 7.136 0 0 0-3.213-.758m7.19 7.19v0m-7.19-7.69c1.195 0 2.384.28 3.438.811a7.698 7.698 0 0 1 3.087 2.846 7.813 7.813 0 0 1 1.165 4.076 9.361 9.361 0 0 1-.123 1.403c-.44 2.775-1.903 5.37-3.912 6.941-1.164.91-2.426 1.391-3.65 1.391h-.04c-1.258-.01-2.531-.491-3.681-1.39-.991-.775-1.88-1.853-2.57-3.117-.703-1.286-1.155-2.574-1.343-3.83-.23-1.53-.104-2.926.375-4.145.53-1.35 1.38-2.508 2.46-3.348a7.842 7.842 0 0 1 4.794-1.638zm5.48 7.71c-.012-1.944-1.034-3.754-2.667-4.723a5.63 5.63 0 0 0-2.873-.785c-.932 0-1.841.234-2.628.677a5.547 5.547 0 0 0-2.255 2.366 5.753 5.753 0 0 0-.555 3.238c.12 1.038.507 2.224 1.06 3.254.433.805 1.152 1.917 2.118 2.64.806.602 1.537.883 2.301.883.111 0 .225-.006.337-.018.79-.086 1.717-.589 2.479-1.344.804-.799 1.466-1.796 1.966-2.966.47-1.1.712-2.185.717-3.222z" class="cls-6" transform="translate(-348.802 -204.215)"/>
                    </g>
                </g>
            </g>
            <g id="Group_793-2" data-name="Group 793" transform="translate(0 17.615)">
                <g id="Group_792-2" data-name="Group 792">
                    <g id="Path_1629-2" class="cls-3" data-name="Path 1629">
                        <path d="M260.033 523.67H233.51a.856.856 0 0 1-.854-.855v-2.875c0-.291-.006-.591-.012-.882-.014-.723-.03-1.47.043-2.199.28-2.815 2.023-5.244 4.55-6.338 1.016-.44 2.105-.644 3.429-.644h1.184c.434 0 .666.268.85.518l2.094 2.858 1.995 2.724 1.342-1.846 2.773-3.818c.317-.436.714-.436 1.064-.436h1.21c1.316 0 2.594.317 3.696.917a7.707 7.707 0 0 1 4.014 6.729v5.292a.856.856 0 0 1-.855.855zm-25.668-1.71h24.814v-4.436c-.012-2.102-1.123-4.057-2.898-5.102a5.926 5.926 0 0 0-2.96-.835 103.188 103.188 0 0 0-1.133-.001h-.102l-4.57 6.288a.899.899 0 0 1-.723.393.904.904 0 0 1-.724-.392l-.086-.117-2.872-3.92-1.653-2.256-.187-.003a34.653 34.653 0 0 0-.628-.008c-.394 0-.91.012-1.395.106-1.33.259-2.495.91-3.367 1.883a5.97 5.97 0 0 0-1.462 3.13c-.066.452-.061.95-.056 1.433l.002.384v3.453z" class="cls-4" transform="translate(-232.882 -510.127)"/>
                        <path d="M260.033 523.42a.61.61 0 0 0 .605-.605v-5.276c-.005.38-.303.57-.601.57-.302 0-.606-.195-.608-.585v4.686h.604l-.604.605v-.605h-25.314v.605l-.604-.605h.604v-3.703c0-.612-.03-1.26.057-1.854a6.245 6.245 0 0 1 1.523-3.26c.924-1.031 2.148-1.698 3.506-1.961.464-.09.952-.11 1.442-.11.316 0 .632.008.943.012l-.217-.297.522.3-.305-.003 4.599 6.277.085.116c.141.193.332.29.523.29.19 0 .38-.096.521-.29l4.644-6.391h-.305l.523-.3-.077.105-.141.195h1.363c1.088.007 2.151.32 3.086.87 1.871 1.101 3.01 3.159 3.022 5.318 0-.39.302-.584.604-.584.303 0 .605.195.605.584v0a7.485 7.485 0 0 0-3.883-6.51 7.484 7.484 0 0 0-3.576-.887h-1.21c-.354 0-.626.008-.862.333-1.44 1.98-2.878 3.961-4.317 5.941l.524.716h-1.044l.015-.02.505-.696-4.292-5.858c-.165-.225-.333-.416-.648-.416h-1.184c-1.157 0-2.261.161-3.33.624-2.48 1.074-4.135 3.464-4.4 6.133-.1 1.006-.03 2.047-.03 3.056v2.875c0 .33.275.605.605.605H260.034m0 .5H233.51c-.608 0-1.104-.496-1.104-1.105v-2.875c0-.289-.006-.588-.012-.877-.014-.73-.03-1.485.044-2.228.289-2.906 2.09-5.413 4.7-6.543 1.048-.454 2.169-.665 3.528-.665h1.184c.597 0 .904.42 1.052.62l2.249 3.07 1.637 2.236 1.15-1.582 2.764-3.805c.392-.539.897-.539 1.266-.539h1.21c1.357 0 2.677.328 3.816.948a7.957 7.957 0 0 1 4.144 6.967v5.273c0 .61-.496 1.105-1.105 1.105zm-25.419-2.21h24.314v-4.184c-.012-2.016-1.076-3.888-2.775-4.888a5.676 5.676 0 0 0-2.835-.801 102.683 102.683 0 0 0-1.106-.001l-4.494 6.185a1.146 1.146 0 0 1-.926.496c-.358 0-.696-.18-.926-.494l-.086-.117-2.699-3.684-1.752-2.392-.064-.001a34.52 34.52 0 0 0-.623-.008c-.383 0-.883.012-1.347.102-1.277.248-2.393.872-3.229 1.804a5.721 5.721 0 0 0-1.4 2.999c-.064.433-.06.922-.054 1.395l.002.386v3.203z" class="cls-6" transform="translate(-232.882 -510.127)"/>
                    </g>
                </g>
            </g>
            <g id="Group_795-2" data-name="Group 795" transform="translate(24.553 4.368)">
                <g id="Group_794-2" data-name="Group 794">
                    <g id="Path_1630-2" class="cls-3" data-name="Path 1630">
                        <path d="M665.068 293.361c-.112 0-.224-.005-.335-.016-1.233-.12-2.434-.768-3.382-1.827a9.528 9.528 0 0 1-1.988-3.535c-.432-1.437-.441-2.84-.026-4.054a6.053 6.053 0 0 1 5.718-4.115 5.906 5.906 0 0 1 4.519 2.116 6.084 6.084 0 0 1 1.436 3.892c-.021 2.235-1.1 4.645-2.746 6.135-1 .906-2.135 1.404-3.196 1.404zm-.32-1.726c.089.008.176.011.261.011.377 0 .723-.073 1.03-.219.916-.435 1.7-1.231 2.326-2.365.606-1.096.93-2.227.936-3.272a4.324 4.324 0 0 0-.775-2.457c-.789-1.128-2.105-1.801-3.52-1.801-.909 0-1.773.276-2.498.8a4.314 4.314 0 0 0-1.71 2.79c-.203 1.248.185 2.462.547 3.26.392.867 1.075 2.042 2.098 2.721.23.154.506.305.654.36a3.349 3.349 0 0 0 .528.153 4.26 4.26 0 0 1 .124.02z" class="cls-4" transform="translate(-659.282 -280.064)"/>
                        <path d="M665.055 280.064c-2.447 0-4.672 1.574-5.482 3.946-.853 2.5.277 5.455 1.965 7.341.84.94 1.951 1.623 3.22 1.746.103.01.207.015.31.015 1.136 0 2.203-.593 3.028-1.34 1.606-1.454 2.643-3.792 2.664-5.956-.009.374-.303.56-.6.56-.302 0-.606-.194-.609-.584-.007 1.157-.388 2.343-.967 3.39-.574 1.04-1.37 1.964-2.438 2.47-.346.165-.73.244-1.137.244a3.3 3.3 0 0 1-.315-.015h-.003.003l.024.002c.018 0-.129-.02-.13-.02a3.272 3.272 0 0 1-.578-.166 4.22 4.22 0 0 1-.706-.385c-.973-.647-1.697-1.745-2.187-2.826-.481-1.062-.75-2.27-.566-3.404a4.57 4.57 0 0 1 1.81-2.953 4.507 4.507 0 0 1 2.646-.847c1.435 0 2.854.664 3.724 1.908.54.771.813 1.668.82 2.602.003-.39.307-.585.609-.585.296 0 .59.187.6.56-.032-2.746-2.047-5.182-4.78-5.628-.31-.05-.62-.075-.925-.075m5.705 5.728v0m-5.705-6.228c.335 0 .673.028 1.005.082a6.156 6.156 0 0 1 3.705 2.123 6.335 6.335 0 0 1 1.495 4.054c-.023 2.305-1.133 4.785-2.828 6.32-1.047.947-2.241 1.468-3.364 1.468-.12 0-.24-.005-.36-.017-1.295-.125-2.553-.803-3.543-1.91a9.784 9.784 0 0 1-2.041-3.63c-.447-1.487-.456-2.941-.024-4.206a6.304 6.304 0 0 1 5.955-4.284zm3.996 6.228a4.078 4.078 0 0 0-.73-2.316c-.742-1.06-1.981-1.694-3.314-1.694-.857 0-1.67.26-2.353.753a4.062 4.062 0 0 0-1.61 2.627c-.193 1.187.181 2.35.529 3.118.379.836 1.034 1.968 2.008 2.615.21.14.475.286.602.333a3.107 3.107 0 0 0 .481.14 5.055 5.055 0 0 1 .117.019c.078.006.154.01.228.01.34 0 .65-.066.922-.196.869-.412 1.614-1.173 2.215-2.26.585-1.059.898-2.147.905-3.149z" class="cls-6" transform="translate(-659.282 -280.064)"/>
                    </g>
                </g>
            </g>
            <g id="Group_797-2" data-name="Group 797" transform="translate(29.706 18.027)">
                <g id="Group_796-2" data-name="Group 796">
                    <g id="Path_1631-2" class="cls-3" data-name="Path 1631">
                        <path d="M759.644 528.116H749.376c-.549 0-.836-.43-.836-.855 0-.424.287-.854.835-.854h9.414v-3.029c0-.989-.209-1.809-.638-2.507-.596-.968-1.543-1.686-2.6-1.968-.535-.143-1.1-.163-1.63-.163l-.342.002-3.48 4.789c-.185.256-.454.403-.736.403a.823.823 0 0 1-.42-.117.899.899 0 0 1-.41-.587.75.75 0 0 1 .118-.603l.243-.335 2.938-4.043.48-.662c.16-.22.401-.551.883-.551l.327-.001.33-.001c.74 0 1.527.02 2.308.266a6.165 6.165 0 0 1 3.135 2.245 6.147 6.147 0 0 1 1.203 3.664v4.052a.856.856 0 0 1-.854.855z" class="cls-4" transform="translate(-748.764 -517.284)"/>
                        <path d="M759.644 527.866a.61.61 0 0 0 .604-.605v-4.052a5.953 5.953 0 0 0-4.163-5.67c-.728-.23-1.48-.255-2.232-.255l-.658.002c-.337 0-.506.208-.68.448l-.481.662a42160.22 42160.22 0 0 0-3.18 4.378c-.195.267-.047.673.216.827a.576.576 0 0 0 .293.083c.208 0 .402-.119.534-.3l3.554-4.89-.306.001.522-.3-.216.298.469-.003c.573 0 1.14.023 1.696.172 1.146.306 2.13 1.073 2.748 2.078.497.809.675 1.698.675 2.638v3.279h.605l-.605.604v-.604h-9.664c-.78 0-.78 1.209 0 1.209h10.269m0 .5H749.376c-.62 0-1.086-.475-1.086-1.105 0-.278.095-.541.267-.741.202-.234.492-.363.818-.363h9.164v-2.779c0-.941-.196-1.718-.6-2.376-.563-.915-1.457-1.591-2.452-1.857-.48-.128-.973-.155-1.567-.155l-.213.001-3.405 4.687c-.234.321-.576.506-.939.506a1.07 1.07 0 0 1-.546-.152 1.152 1.152 0 0 1-.53-.75.998.998 0 0 1 .162-.802l.243-.335 2.938-4.043.48-.662c.178-.245.476-.654 1.085-.654l.326-.001.332-.001c.725 0 1.567.021 2.382.278a6.414 6.414 0 0 1 3.262 2.335 6.395 6.395 0 0 1 1.251 3.812v4.052c0 .61-.495 1.105-1.104 1.105z" class="cls-6" transform="translate(-748.764 -517.284)"/>
                    </g>
                </g>
            </g>
        </g>
    </g>
</svg>
