<svg xmlns="http://www.w3.org/2000/svg" width="100" height="100" viewBox="0 0 100 100">
  <g id="Group_684" data-name="Group 684" transform="translate(-150.959 -145.959)">
    <g id="Group_1145" data-name="Group 1145" transform="translate(0 19)">
      <path id="Path_1695" data-name="Path 1695" d="M50,0A50,50,0,1,1,0,50,50,50,0,0,1,50,0Z" transform="translate(150.959 126.959)" fill="#eaefff"/>
      <path id="globe-earth" d="M35,4A31,31,0,1,0,66,35,31.039,31.039,0,0,0,35,4Zm0,5.167c.467,0,1.166.287,2.1,1.372a17.518,17.518,0,0,1,2.745,5.247c.4,1.113.794,2.384,1.13,3.714H29.026c.337-1.329.725-2.6,1.13-3.714A17.519,17.519,0,0,1,32.9,10.539C33.834,9.454,34.533,9.167,35,9.167Zm-8.234,1.292a27.57,27.57,0,0,0-1.534,3.552A44.909,44.909,0,0,0,23.7,19.5H14.333A25.849,25.849,0,0,1,26.766,10.458Zm16.469,0A25.849,25.849,0,0,1,55.667,19.5H46.3a44.907,44.907,0,0,0-1.534-5.49A27.569,27.569,0,0,0,43.234,10.458ZM11.266,24.667H22.81a76.125,76.125,0,0,0-.646,7.75H9.328A25.766,25.766,0,0,1,11.266,24.667Zm16.792,0H41.943a68.121,68.121,0,0,1,.727,7.75H27.331A68.119,68.119,0,0,1,28.057,24.667Zm19.133,0H58.734a25.765,25.765,0,0,1,1.937,7.75H47.836A76.124,76.124,0,0,0,47.19,24.667ZM9.328,37.583H22.164a76.124,76.124,0,0,0,.646,7.75H11.266A25.766,25.766,0,0,1,9.328,37.583Zm18,0H42.669a68.12,68.12,0,0,1-.727,7.75H28.057A68.119,68.119,0,0,1,27.331,37.583Zm20.505,0H60.672a25.765,25.765,0,0,1-1.937,7.75H47.19A76.124,76.124,0,0,0,47.836,37.583ZM14.333,50.5H23.7a44.909,44.909,0,0,0,1.534,5.49,27.571,27.571,0,0,0,1.534,3.552A25.849,25.849,0,0,1,14.333,50.5Zm14.693,0H40.974c-.337,1.329-.725,2.6-1.13,3.714A17.518,17.518,0,0,1,37.1,59.461c-.933,1.085-1.632,1.372-2.1,1.372s-1.166-.287-2.1-1.372a17.518,17.518,0,0,1-2.745-5.247C29.751,53.1,29.363,51.829,29.026,50.5Zm17.276,0h9.365a25.849,25.849,0,0,1-12.432,9.042,27.569,27.569,0,0,0,1.534-3.552A44.907,44.907,0,0,0,46.3,50.5Z" transform="translate(166.459 142.459)" fill="#2585d3" stroke="#eef2ff" stroke-linecap="round" stroke-width="1.5"/>
    </g>
  </g>
</svg>
