<svg xmlns="http://www.w3.org/2000/svg" width="100" height="100" viewBox="0 0 100 100">
    <defs>
        <style>
            .cls-1{fill:#eaefff}.cls-2{fill:#2585d3}.cls-3{fill:none;stroke:#2585d3;stroke-linecap:round;stroke-width:2px}
        </style>
    </defs>
    <g id="Group_684" data-name="Group 684" transform="translate(-150.959 -126.959)">
        <path id="Path_1695" d="M50 0A50 50 0 1 1 0 50 50 50 0 0 1 50 0z" class="cls-1" data-name="Path 1695" transform="translate(150.959 126.959)"/>
        <g id="Group_684-2" data-name="Group 684" transform="translate(-.041 -.541)">
            <g id="Group_636" data-name="Group 636" transform="translate(176 149.5)">
                <g id="users2">
                    <path id="Path_1182" d="M51.362 54.827l-10.237-5.678C44.944 46.147 46 40.306 46 36.98v-6.814c0-4.543-6.012-9.573-12.106-9.573s-12.269 5.03-12.269 9.573v6.814c0 3 1.3 9.086 5.119 12.087l-10.482 5.679S13.5 55.963 13.5 57.5v4.137a2.738 2.738 0 0 0 2.762 2.763h35.182a2.738 2.738 0 0 0 2.763-2.758V57.5c-.082-1.537-2.845-2.673-2.845-2.673zm-.487 6.328H16.75v-2.92a4.305 4.305 0 0 1 .812-.487c.081 0 .163-.081.244-.081l10.481-5.679a3.122 3.122 0 0 0 1.706-2.6 3.3 3.3 0 0 0-1.219-2.839c-2.763-2.19-3.9-6.977-3.9-9.573v-6.81c0-2.353 4.387-6.328 9.019-6.328 4.713 0 8.856 3.975 8.856 6.328v6.814c0 2.515-.812 7.382-3.575 9.573a3.129 3.129 0 0 0-1.219 2.839 3.361 3.361 0 0 0 1.706 2.6L49.9 57.667c.081.081.244.081.325.162a2.131 2.131 0 0 1 .731.406v2.92zm11.863-14.44l-10.4-5.679c3.819-3 4.956-8.842 4.956-12.168v-6.814c0-4.543-6.175-9.654-12.269-9.654a14.349 14.349 0 0 0-10.319 4.867 16.877 16.877 0 0 1 4.063.487 10.371 10.371 0 0 1 6.256-2.109c4.712 0 9.019 3.975 9.019 6.409v6.814c0 2.515-.975 7.382-3.737 9.573a3.129 3.129 0 0 0-1.219 2.839 3.361 3.361 0 0 0 1.706 2.6l10.4 5.679c.081.081.244.081.325.162a2.131 2.131 0 0 1 .731.406v2.92h-6.581c.975.73 1.3 1.785 1.706 3.245h5.362a2.738 2.738 0 0 0 2.763-2.763v-4.056c0-1.622-2.763-2.758-2.763-2.758z" class="cls-2" data-name="Path 1182" transform="translate(-13.5 -12.4)"/>
                    <path id="Path_1227" d="M174.9 158.975h5.708" class="cls-3" data-name="Path 1227" transform="translate(-138.043 -121.948)"/>
                </g>
                <path id="Path_1226" d="M172.9 158.975h10.708" class="cls-3" data-name="Path 1226" transform="translate(-155.853 -114.614)"/>
            </g>
        </g>
    </g>
</svg>
