<svg xmlns="http://www.w3.org/2000/svg" width="100" height="100" viewBox="0 0 100 100">
    <defs>
        <style>
            .cls-1{fill:#eaefff}.cls-2{fill:#2585d3}
        </style>
    </defs>
    <g id="Group_684" data-name="Group 684" transform="translate(-150.959 -126.959)">
        <path id="Path_1695" d="M50 0A50 50 0 1 1 0 50 50 50 0 0 1 50 0z" class="cls-1" data-name="Path 1695" transform="translate(150.959 126.959)"/>
        <g id="Group_684-2" data-name="Group 684" transform="translate(12.656 11.625)">
            <g id="Group_636" data-name="Group 636" transform="translate(168.303 149.333)">
                <g id="users2">
                    <g id="users2-2" data-name="users2">
                        <path id="Union_4" d="M31.008 32H8.851a1.7 1.7 0 0 1-1.738-1.7v-2.543c.04-.772 1.2-1.377 1.631-1.576a4.59 4.59 0 0 1 .25-.121l.113-.06 6.244-3.384c-2.405-1.848-3.068-5.444-3.068-7.49v-4.192c0-2.8 3.783-5.893 7.624-5.893h.188c3.836 0 7.625 3.1 7.625 5.893v4.192c0 2.046-.664 5.641-3.069 7.49l6.067 3.29.29.154s.118.05.29.141c.459.217 1.547.809 1.587 1.556V30.3a1.7 1.7 0 0 1-1.739 1.7zm-16.59-21.066v4.192c0 1.6.714 4.541 2.453 5.889a2.008 2.008 0 0 1 .77 1.747 1.92 1.92 0 0 1-1.077 1.6l-6.6 3.495c-.053 0-.1.046-.155.046a2.876 2.876 0 0 0-.512.3V30H30.7v-1.8a2.7 2.7 0 0 0-.509-.3c-.051 0-.1-.046-.155-.046l-6.6-3.495a1.924 1.924 0 0 1-1.077-1.6 2.008 2.008 0 0 1 .77-1.747c1.739-1.348 2.455-4.293 2.455-5.889v-4.189c0-1.433-2.7-3.845-5.585-3.9-2.876.055-5.581 2.466-5.581 3.9zM34.882 27.01a3.34 3.34 0 0 0-1.075-2h4.145v-1.8a1.4 1.4 0 0 0-.461-.248c-.051-.05-.154-.05-.2-.1l-6.55-3.495a2.072 2.072 0 0 1-1.071-1.6 1.9 1.9 0 0 1 .765-1.747c1.739-1.348 2.355-4.343 2.355-5.893V5.94C32.786 4.44 30.075 2 27.1 2a6.644 6.644 0 0 0-3.938 1.3 10.973 10.973 0 0 0-2.554-.3 9.123 9.123 0 0 1 6.5-3c3.84 0 7.728 3.142 7.728 5.94v4.192c0 2.05-.715 5.641-3.12 7.49l6.548 3.495s1.741.7 1.741 1.7v2.5a1.709 1.709 0 0 1-1.741 1.7zm-33.143 0A1.71 1.71 0 0 1 0 25.308v-2.5c0-1 1.739-1.7 1.739-1.7l6.551-3.495c-2.405-1.848-3.12-5.44-3.12-7.49V5.94C5.17 3.142 9.059 0 12.893 0a9.132 9.132 0 0 1 6.5 3 11.042 11.042 0 0 0-2.562.3A6.627 6.627 0 0 0 12.893 2C9.928 2 7.215 4.44 7.215 5.94v4.192c0 1.55.616 4.545 2.355 5.893a1.9 1.9 0 0 1 .765 1.747 2.066 2.066 0 0 1-1.072 1.6l-6.551 3.492c-.051.05-.151.05-.2.1a1.37 1.37 0 0 0-.461.248v1.8h4.14a3.338 3.338 0 0 0-1.072 2z" class="cls-2" data-name="Union 4"/>
                    </g>
                </g>
            </g>
        </g>
    </g>
</svg>
