<svg xmlns="http://www.w3.org/2000/svg" width="100" height="100" viewBox="0 0 100 100">
    <defs>
        <style>
            .cls-1{fill:#eaefff}.cls-2,.cls-3{fill:#2585d3}.cls-3{stroke:#2585d3;stroke-linecap:round;stroke-linejoin:round;stroke-width:.3px}
        </style>
    </defs>
    <g id="Group_684" data-name="Group 684" transform="translate(-150.959 -126.959)">
        <path id="Path_1695" d="M50 0A50 50 0 1 1 0 50 50 50 0 0 1 50 0z" class="cls-1" data-name="Path 1695" transform="translate(150.959 126.959)"/>
        <g id="Group_971" data-name="Group 971" transform="translate(-378.315 -254.041)">
            <g id="Group_965" data-name="Group 965" transform="translate(555.274 407)">
                <path id="Path_1764" d="M3052.325 826.412l-6.437-15.547a.588.588 0 0 0-1.086 0l-6.394 15.5a.587.587 0 0 0 .819.743l5.926-3.127 6.357 3.179a.588.588 0 0 0 .816-.747z" class="cls-2" data-name="Path 1764" transform="translate(-3030.162 -788.179)"/>
                <path id="Union_30" d="M12.773 14.673l1.908-1.908 1.292 1.292-1.908 1.908zm-2.585-2.561l1.912-1.907 1.288 1.295-1.908 1.9zm-2.5-2.56l1.905-1.908 1.291 1.292-1.907 1.908zm-2.564-2.56l1.908-1.908 1.292 1.292-1.908 1.908zm-2.56-2.5l1.908-1.904L5.764 3.88 3.856 5.787zM0 1.907L1.908 0 3.2 1.292 1.292 3.2z" class="cls-2" data-name="Union 30" transform="translate(28.799 4.024)"/>
                <path id="Path_1765" d="M3044.334 712.27h-36.246a5.885 5.885 0 0 0-5.875 5.877v36.246a5.887 5.887 0 0 0 5.877 5.877h36.246a5.875 5.875 0 0 0 5.877-5.877v-36.246a5.885 5.885 0 0 0-5.877-5.877zm-19.271 2.716l-7.971 7.971-7.971-7.971zm-20.136 3.161a3.151 3.151 0 0 1 1.1-2.4l9.135 9.136-10.24 10.239zm3.161 39.407a3.164 3.164 0 0 1-3.161-3.161v-15.43l12.159-12.159 17.186 17.187-13.566 13.563zm36.246 0h-19.776l11.649-11.65 10.537 10.537a3.158 3.158 0 0 1-2.41 1.116zm-6.22-13.563l9.182-9.182.2.2v18.361zm-1.922-1.922l-17.183-17.183 9.182-9.182 1.226 1.226 1.923-1.922-.034-.034h13.023a3.164 3.164 0 0 1 3.161 3.16v12.622z" class="cls-3" data-name="Path 1765" transform="translate(-3002.211 -712.27)"/>
            </g>
        </g>
    </g>
</svg>
