<svg xmlns="http://www.w3.org/2000/svg" width="100" height="100" viewBox="0 0 100 100">
  <g id="Group_684" data-name="Group 684" transform="translate(-150.959 -145.959)">
    <g id="Group_1145" data-name="Group 1145" transform="translate(0 19)">
      <path id="Path_1695" data-name="Path 1695" d="M50,0A50,50,0,1,1,0,50,50,50,0,0,1,50,0Z" transform="translate(150.959 126.959)" fill="#eaefff"/>
      <g id="Group_1161" data-name="Group 1161" transform="translate(174.459 205.459)">
        <g id="users2" transform="translate(-8.5 -63.4)">
          <path id="Path_1182" data-name="Path 1182" d="M50.706,46.973l-10.06-5.185c3.752-2.741,4.79-8.074,4.79-11.111V24.454c0-4.148-5.908-8.741-11.9-8.741s-12.056,4.593-12.056,8.741v6.222c0,2.741,1.277,8.3,5.03,11.037L16.215,46.9S13.5,48.01,13.5,49.417V53.2a2.6,2.6,0,0,0,2.715,2.519H50.785A2.6,2.6,0,0,0,53.5,53.2V49.417C53.42,48.01,50.706,46.973,50.706,46.973Zm-.479,5.778H16.694V50.084a4.308,4.308,0,0,1,.8-.444c.08,0,.16-.074.24-.074l10.3-5.185a2.851,2.851,0,0,0,1.677-2.37,2.918,2.918,0,0,0-1.2-2.593c-2.715-2-3.832-6.37-3.832-8.741V24.454c0-2.148,4.311-5.778,8.862-5.778,4.631,0,8.7,3.63,8.7,5.778v6.222c0,2.3-.8,6.741-3.513,8.741a2.772,2.772,0,0,0-1.2,2.593,3.065,3.065,0,0,0,1.677,2.37l10.06,5.185c.08.074.24.074.319.148a2.143,2.143,0,0,1,.719.37v2.667Z" transform="translate(1.5 -0.814)" fill="#2585d3" stroke="#2585d3" stroke-linecap="round" stroke-linejoin="round" stroke-width="0.3"/>
        </g>
      </g>
    </g>
  </g>
</svg>
