<svg xmlns="http://www.w3.org/2000/svg" width="80.5" height="45.655" viewBox="0 0 80.5 45.655">
    <defs>
        <style>
            .cls-1{fill:#171e48;stroke:#171e48;stroke-width:.5px}
        </style>
    </defs>
    <g id="team" transform="translate(.249 -203.81)">
        <g id="Group_791" data-name="Group 791" transform="translate(29.478 204.215)">
            <g id="Group_790" data-name="Group 790">
                <path id="Path_1628" d="M368.085 214.729a12.935 12.935 0 0 1-1.105 4.987 14.31 14.31 0 0 1-3.024 4.556 7.245 7.245 0 0 1-4.05 2.167 6.044 6.044 0 0 1-4.362-1.4 12.542 12.542 0 0 1-3.294-4.089 14.621 14.621 0 0 1-1.629-5.007 8.926 8.926 0 0 1 4.465-8.892 8.768 8.768 0 0 1 13 7.68.882.882 0 0 0 1.764 0 10.532 10.532 0 0 0-20.387-3.706 10.987 10.987 0 0 0-.5 5.672 16.342 16.342 0 0 0 1.877 5.344 13.974 13.974 0 0 0 3.557 4.32 8.135 8.135 0 0 0 4.926 1.874 8.019 8.019 0 0 0 4.926-1.874 15.654 15.654 0 0 0 5.434-9.664 12.968 12.968 0 0 0 .17-1.966.882.882 0 0 0-1.768-.002z" class="cls-1" data-name="Path 1628" transform="translate(-348.802 -204.215)"/>
            </g>
        </g>
        <g id="Group_793" data-name="Group 793" transform="translate(19.743 229.828)">
            <g id="Group_792" data-name="Group 792">
                <path id="Path_1629" d="M271.6 520.916v7.716l.882-.882H233.8l.882.882v-6.283a19.14 19.14 0 0 1 .082-2.7 9.054 9.054 0 0 1 7.335-7.615 21.032 21.032 0 0 1 3.923-.14l-.761-.437 7.024 9.587.125.17a.9.9 0 0 0 1.523 0l6.979-9.6.111-.153-.761.437h2.433a9.021 9.021 0 0 1 8.907 9.025.882.882 0 0 0 1.764 0 10.786 10.786 0 0 0-10.879-10.789h-1.765a1.3 1.3 0 0 0-1.256.486l-7.032 9.678-.022.03h1.523l-7.024-9.587a1.14 1.14 0 0 0-.945-.607h-1.728a11.973 11.973 0 0 0-4.855.91 10.893 10.893 0 0 0-6.419 8.945c-.146 1.467-.043 2.986-.043 4.457v4.193a.89.89 0 0 0 .882.882h38.682a.89.89 0 0 0 .882-.882v-7.716a.882.882 0 0 0-1.767-.007z" class="cls-1" data-name="Path 1629" transform="translate(-232.882 -510.127)"/>
            </g>
        </g>
        <g id="Group_795" data-name="Group 795" transform="translate(55.737 210.585)">
            <g id="Group_794" data-name="Group 794">
                <path id="Path_1630" d="M674.26 288.418a10.583 10.583 0 0 1-1.411 4.945 8.279 8.279 0 0 1-3.556 3.6 4 4 0 0 1-2.122.332c.152.015-.16-.028-.15-.026-.1-.017-.19-.041-.285-.064a5.1 5.1 0 0 1-.558-.178 6.156 6.156 0 0 1-1.029-.563 9.75 9.75 0 0 1-3.19-4.121 8.834 8.834 0 0 1-.825-4.965 6.6 6.6 0 0 1 13.126 1.036.882.882 0 0 0 1.764 0 8.366 8.366 0 0 0-16.316-2.6c-1.245 3.647.4 7.956 2.865 10.708a7.328 7.328 0 0 0 4.7 2.545 6.549 6.549 0 0 0 4.87-1.932 12.39 12.39 0 0 0 3.886-8.721.882.882 0 0 0-1.769.004z" class="cls-1" data-name="Path 1630" transform="translate(-659.282 -280.064)"/>
            </g>
        </g>
        <g id="Group_797" data-name="Group 797" transform="translate(63.252 230.429)">
            <g id="Group_796" data-name="Group 796">
                <path id="Path_1631" d="M750.417 526.181l5.5-7.567-.761.437a13.828 13.828 0 0 1 3.6.243 6.829 6.829 0 0 1 4.008 3.031 7.149 7.149 0 0 1 .985 3.847v5.664l.882-.882h-14.976a.882.882 0 0 0 0 1.764h14.976a.89.89 0 0 0 .882-.882v-5.91a8.682 8.682 0 0 0-6.072-8.269 13.827 13.827 0 0 0-4.215-.369 1.192 1.192 0 0 0-.992.654l-.7.966-4.285 5.9-.354.488a.884.884 0 0 0 .316 1.206.9.9 0 0 0 1.206-.316z" class="cls-1" data-name="Path 1631" transform="translate(-748.764 -517.284)"/>
            </g>
        </g>
        <g id="Group_799" data-name="Group 799" transform="translate(7.499 210.585)">
            <g id="Group_798" data-name="Group 798">
                <path id="Path_1632" d="M104.259 288.418a10.582 10.582 0 0 1-1.411 4.945 8.279 8.279 0 0 1-3.556 3.6 4 4 0 0 1-2.123.332c.152.015-.16-.028-.15-.026-.1-.017-.19-.041-.285-.064a5.11 5.11 0 0 1-.558-.178 6.15 6.15 0 0 1-1.029-.563 9.751 9.751 0 0 1-3.19-4.121 8.835 8.835 0 0 1-.825-4.965 6.6 6.6 0 0 1 13.126 1.036.882.882 0 0 0 1.764 0 8.366 8.366 0 0 0-16.316-2.6c-1.245 3.647.4 7.956 2.865 10.708a7.328 7.328 0 0 0 4.7 2.545 6.55 6.55 0 0 0 4.87-1.932 12.389 12.389 0 0 0 3.886-8.721.882.882 0 0 0-1.768.004z" class="cls-1" data-name="Path 1632" transform="translate(-89.281 -280.064)"/>
            </g>
        </g>
        <g id="Group_801" data-name="Group 801" transform="translate(.001 230.432)">
            <g id="Group_800" data-name="Group 800">
                <path id="Path_1633" d="M15.9 530.989H.883l.882.882v-5.91a6.9 6.9 0 0 1 5.88-6.82 18.083 18.083 0 0 1 2.716-.055l-.761-.437 5.544 7.567a.9.9 0 0 0 1.206.316.884.884 0 0 0 .316-1.207l-3.554-4.851L11.3 518c-.253-.345-.488-.679-.98-.679H8.677a8.684 8.684 0 0 0-8.37 6.288A12.637 12.637 0 0 0 0 527.1v4.768a.89.89 0 0 0 .882.882H15.9a.882.882 0 0 0 0-1.764z" class="cls-1" data-name="Path 1633" transform="translate(-.001 -517.322)"/>
            </g>
        </g>
    </g>
</svg>
