<svg xmlns="http://www.w3.org/2000/svg" width="42" height="42" viewBox="0 0 42 42">
    <defs>
        <filter id="prefix__Rectangle_844" width="42" height="42" x="0" y="0" filterUnits="userSpaceOnUse">
            <feOffset dy="1"/>
            <feGaussianBlur result="blur" stdDeviation="2"/>
            <feFlood flood-color="#2585d3" flood-opacity=".2"/>
            <feComposite in2="blur" operator="in"/>
            <feComposite in="SourceGraphic"/>
        </filter>
    </defs>
    <g id="prefix__archive" transform="translate(-462 -233)">
        <g transform="translate(462 233)">
            <g id="prefix__Rectangle_844-2" data-name="Rectangle 844" transform="translate(6 5)" style="fill:#fff;stroke:#2585d3;opacity:0">
                <rect width="30" height="30" rx="6" style="stroke:none"/>
                <rect width="29" height="29" x=".5" y=".5" rx="5.5" style="fill:none"/>
            </g>
        </g>
        <g id="prefix__container" transform="translate(310.619 104.618)">
            <path id="prefix__container-2" d="M5.275 2a1.633 1.633 0 0 0-1.35.8L2.15 5.675A1.943 1.943 0 0 0 2 6.4v10A1.6 1.6 0 0 0 3.6 18h12.8a1.6 1.6 0 0 0 1.6-1.6v-10a2.823 2.823 0 0 0-.15-.8l-1.775-2.8a1.633 1.633 0 0 0-1.35-.8zm0 1.6h9.45l.95 1.6H4.325zM3.6 6.8h12.8v9.6H3.6z" data-name="container" transform="translate(162.185 138.186)" style="stroke:#fff;fill:#747891;stroke-width:.3px"/>
            <path id="prefix__Path_1986" d="M112.926 45.155l-1.832 1.68-.01.009a.447.447 0 0 1-.241.112h-.022a.3.3 0 0 1-.045 0h-.064a.439.439 0 0 1-.241-.112l-.01-.009-1.832-1.68a.379.379 0 0 1 0-.565.467.467 0 0 1 .617 0l1.1 1.01v-3.7a.42.42 0 0 1 .435-.4.466.466 0 0 1 .308.116.378.378 0 0 1 .127.283v3.7l1.1-1.01a.467.467 0 0 1 .617 0 .384.384 0 0 1-.007.566z" data-name="Path 1986" transform="translate(61.408 105.271)" style="stroke:#747891;stroke-linecap:round;stroke-linejoin:round;fill:#747891;stroke-width:.3px"/>
        </g>
    </g>
</svg>
