<svg xmlns="http://www.w3.org/2000/svg" width="18" height="18" viewBox="0 0 18 18">
  <g id="download" transform="translate(-401 -244)">
    <g id="download3" transform="translate(401 244)">
      <path id="Union_38" data-name="Union 38" d="M.857,18a.864.864,0,0,1-.845-.783A.727.727,0,0,1,0,17.059V12.948a.867.867,0,0,1,.85-.877.841.841,0,0,1,.6.257.9.9,0,0,1,.25.62v3.293h14.6V12.948a.867.867,0,0,1,.85-.877.839.839,0,0,1,.6.257.943.943,0,0,1,.244.626v4.111a.95.95,0,0,1-.028.228.862.862,0,0,1-.833.707ZM8.9,13.83c-.016,0-.032-.006-.049-.006a.907.907,0,0,1-.531-.283L8.3,13.518,4.279,9.26a1.061,1.061,0,0,1,0-1.433.927.927,0,0,1,1.355,0l2.419,2.56V1.011A.989.989,0,0,1,9.008,0a.947.947,0,0,1,.676.294,1.027,1.027,0,0,1,.278.717v9.376l2.419-2.56a.927.927,0,0,1,1.355,0A1.081,1.081,0,0,1,13.72,9.26L9.7,13.518c-.005.012-.016.017-.022.023a.919.919,0,0,1-.53.283c-.016,0-.032.006-.049.006a.605.605,0,0,1-.1.005Z" transform="translate(0 0)" fill="#5b607e"/>
    </g>
  </g>
</svg>
