<svg xmlns="http://www.w3.org/2000/svg" width="42" height="42" viewBox="0 0 42 42">
    <defs>
        <filter id="prefix__Rectangle_902" width="42" height="42" x="0" y="0" filterUnits="userSpaceOnUse">
            <feOffset dy="1"/>
            <feGaussianBlur result="blur" stdDeviation="2"/>
            <feFlood flood-color="#2585d3" flood-opacity=".2"/>
            <feComposite in2="blur" operator="in"/>
            <feComposite in="SourceGraphic"/>
        </filter>
        <style>
            .prefix__cls-2{fill:#747891}
        </style>
    </defs>
    <g id="prefix__lock" transform="translate(-536 -233)">
        <g transform="translate(536 233)">
            <g id="prefix__Rectangle_902-2" data-name="Rectangle 902" transform="translate(6 5)" style="fill:#fff;stroke:#2585d3;opacity:0">
                <rect width="30" height="30" rx="6" style="stroke:none"/>
                <rect width="29" height="29" x=".5" y=".5" rx="5.5" style="fill:none"/>
            </g>
        </g>
        <g id="prefix__unlock2" transform="translate(463 219)">
            <path id="prefix__Path_2030" d="M98.2 31.476H98V29.2a4.343 4.343 0 0 0-4.473-4.2h-.054a4.354 4.354 0 0 0-4.485 4.2.654.654 0 0 0 1.308 0 3.073 3.073 0 0 1 3.181-2.947h.054A3.062 3.062 0 0 1 96.7 29.2v2.278h-7.9a1.779 1.779 0 0 0-1.8 1.746v7.047A1.766 1.766 0 0 0 88.8 42h9.4a1.766 1.766 0 0 0 1.8-1.729v-7.047a1.779 1.779 0 0 0-1.8-1.748zm.492 8.794a.489.489 0 0 1-.5.478h-9.384a.489.489 0 0 1-.5-.478v-7.064a.489.489 0 0 1 .5-.478h9.385a.489.489 0 0 1 .5.478z" class="prefix__cls-2" data-name="Path 2030"/>
            <path id="prefix__Path_2031" d="M239.654 322.2a.655.655 0 0 0-.654.658v1.3a.654.654 0 1 0 1.308 0v-1.3a.655.655 0 0 0-.654-.658z" class="prefix__cls-2" data-name="Path 2031" transform="translate(-146.154 -286.36)"/>
            <path id="prefix__Path_2032" d="M88.8 31.476h.2V29.2a4.343 4.343 0 0 1 4.473-4.2h.054a4.354 4.354 0 0 1 4.485 4.2.654.654 0 0 1-1.308 0 3.073 3.073 0 0 0-3.181-2.947h-.054A3.062 3.062 0 0 0 90.3 29.2v2.278h7.9a1.779 1.779 0 0 1 1.8 1.748v7.047A1.766 1.766 0 0 1 98.2 42h-9.4a1.766 1.766 0 0 1-1.8-1.729v-7.047a1.779 1.779 0 0 1 1.8-1.748zm-.492 8.794a.489.489 0 0 0 .5.478h9.385a.489.489 0 0 0 .5-.478v-7.064a.489.489 0 0 0-.5-.478h-9.385a.489.489 0 0 0-.5.478z" class="prefix__cls-2" data-name="Path 2032"/>
        </g>
    </g>
</svg>
