<svg xmlns="http://www.w3.org/2000/svg" width="42" height="42" viewBox="0 0 42 42">
    <defs>
        <filter id="prefix__Rectangle_901" width="42" height="42" x="0" y="0" filterUnits="userSpaceOnUse">
            <feOffset dy="1"/>
            <feGaussianBlur result="blur" stdDeviation="2"/>
            <feFlood flood-color="#2585d3" flood-opacity=".2"/>
            <feComposite in2="blur" operator="in"/>
            <feComposite in="SourceGraphic"/>
        </filter>
    </defs>
    <g id="prefix__move-folder" transform="translate(-573 -233)">
        <g transform="translate(573 233)">
            <g id="prefix__Rectangle_901-2" data-name="Rectangle 901" transform="translate(6 5)" style="fill:#fff;stroke:#2585d3;opacity:0">
                <rect width="30" height="30" rx="6" style="stroke:none"/>
                <rect width="29" height="29" x=".5" y=".5" rx="5.5" style="fill:none"/>
            </g>
        </g>
        <path id="prefix__move-folder-2" d="M18.047 22.726a.31.31 0 0 0-.066-.1L16.4 21.073a.318.318 0 0 0-.445 0 .3.3 0 0 0 0 .437L17 22.536h-3.051a.309.309 0 1 0 0 .618H17l-1.044 1.026a.3.3 0 0 0 0 .437.319.319 0 0 0 .445 0l1.579-1.552a.309.309 0 0 0 .071-.1.3.3 0 0 0 .022-.113.308.308 0 0 0-.022-.111.041.041 0 0 1-.004-.015zm5.863-9.106h-.3v-1.506a1.144 1.144 0 0 0-1.153-1.133H13.84l-.693-.726a.317.317 0 0 0-.229-.1H9.669a1.144 1.144 0 0 0-1.153 1.135v2.33h-.3a1.144 1.144 0 0 0-1.153 1.133v.026l.837 9.9A1.144 1.144 0 0 0 9.053 25.8h3.819a4.421 4.421 0 0 0 6.379 0h3.819a1.144 1.144 0 0 0 1.153-1.119l.837-9.9v-.026a1.144 1.144 0 0 0-1.151-1.135zM9.145 11.29a.52.52 0 0 1 .524-.515h3.113l.693.726a.317.317 0 0 0 .229.1h8.751a.52.52 0 0 1 .524.515v1.504H9.145zm6.917 15.249a3.695 3.695 0 1 1 3.76-3.694 3.732 3.732 0 0 1-3.76 3.694zm7.534-1.9v.026a.52.52 0 0 1-.524.515h-3.326a4.229 4.229 0 0 0 .7-2.335 4.389 4.389 0 0 0-8.777 0 4.23 4.23 0 0 0 .7 2.335H9.053a.52.52 0 0 1-.524-.515v-.026l-.837-9.9a.52.52 0 0 1 .524-.5H23.91a.52.52 0 0 1 .524.5z" data-name="move-folder" transform="translate(578.438 234.343)" style="fill:#747891;stroke:#747891;stroke-linecap:round;stroke-width:.5px"/>
    </g>
</svg>
