<svg xmlns="http://www.w3.org/2000/svg" width="42" height="42" viewBox="0 0 42 42">
    <defs>
        <filter id="prefix__Rectangle_839" width="42" height="42" x="0" y="0" filterUnits="userSpaceOnUse">
            <feOffset dy="1"/>
            <feGaussianBlur result="blur" stdDeviation="2"/>
            <feFlood flood-color="#2585d3" flood-opacity=".2"/>
            <feComposite in2="blur" operator="in"/>
            <feComposite in="SourceGraphic"/>
        </filter>
    </defs>
    <g id="prefix__tags" transform="translate(-351 -233)">
        <g transform="translate(351 233)">
            <g id="prefix__Rectangle_839-2" data-name="Rectangle 839" transform="translate(6 5)" style="fill:#fff;stroke:#2585d3;opacity:0">
                <rect width="30" height="30" rx="6" style="stroke:none"/>
                <rect width="29" height="29" x=".5" y=".5" rx="5.5" style="fill:none"/>
            </g>
        </g>
        <path id="prefix__Union_17" d="M4.8 13.531L.469 9.2a1.626 1.626 0 0 1 0-2.281L6.861.477A1.618 1.618 0 0 1 8.008 0h4.377A1.624 1.624 0 0 1 14 1.615v4.377a1.619 1.619 0 0 1-.477 1.147l-6.447 6.4a1.624 1.624 0 0 1-2.28 0zM7.625 1.237l-6.4 6.446a.528.528 0 0 0 0 .759l4.325 4.326a.531.531 0 0 0 .76 0l6.446-6.4a.54.54 0 0 0 .16-.383v-4.37a.531.531 0 0 0-.538-.538h-4.37a.533.533 0 0 0-.383.16zm1.653 2.532a.952.952 0 1 1 .951.952.951.951 0 0 1-.951-.952z" data-name="Union 17" transform="translate(365 246)" style="fill:#747891;stroke:#747891;stroke-linecap:round;stroke-linejoin:round;stroke-width:.5px"/>
    </g>
</svg>
