<svg xmlns="http://www.w3.org/2000/svg" width="42" height="42" viewBox="0 0 42 42">
    <defs>
        <filter id="prefix__Rectangle_838" width="42" height="42" x="0" y="0" filterUnits="userSpaceOnUse">
            <feOffset dy="1"/>
            <feGaussianBlur result="blur" stdDeviation="2"/>
            <feFlood flood-color="#2585d3" flood-opacity=".2"/>
            <feComposite in2="blur" operator="in"/>
            <feComposite in="SourceGraphic"/>
        </filter>
    </defs>
    <g id="prefix__users" transform="translate(-241.748 -235.419)">
        <g transform="translate(241.75 235.42)">
            <g id="prefix__Rectangle_838-2" data-name="Rectangle 838" transform="translate(6 5)" style="stroke:#2585d3;opacity:0;fill:#fff">
                <rect width="30" height="30" rx="6" style="stroke:none"/>
                <rect width="29" height="29" x=".5" y=".5" rx="5.5" style="fill:none"/>
            </g>
        </g>
        <g id="prefix__Group_1553" data-name="Group 1553" transform="translate(253 246)">
            <g id="prefix__users2">
                <path id="prefix__Union_4" d="M4.253 13.644l3.08-1.826A5.427 5.427 0 0 1 5.867 7.9V5.713c0-1.461 1.809-3.078 3.642-3.078S13.2 4.252 13.2 5.713V7.9a5.627 5.627 0 0 1-1.54 3.887l3.153 1.826s.831.391.831.887v1.33a.853.853 0 0 1-.831.887H4.229a.853.853 0 0 1-.831-.887V14.5c.024-.491.855-.856.855-.856zm.147 2.035h10.266v-.939a1.281 1.281 0 0 0-.244-.157c-.024 0-.049-.026-.073-.026L11.2 12.731a1.009 1.009 0 0 1-.513-.835 1.1 1.1 0 0 1 .367-.913A4.543 4.543 0 0 0 12.222 7.9V5.713c0-.757-1.32-2.035-2.713-2.035a2.791 2.791 0 0 0-2.665 2.035V7.9a4.475 4.475 0 0 0 1.076 3.083 1.038 1.038 0 0 1 .367.913 1.088 1.088 0 0 1-.513.835l-3.08 1.826c-.024.026-.073.026-.1.052a.631.631 0 0 0-.22.13v.939zM.831 11.035L3.96 9.209A5.456 5.456 0 0 1 2.469 5.3V3.1C2.469 1.644 4.327 0 6.16 0a4.212 4.212 0 0 1 3.1 1.565 4.767 4.767 0 0 0-1.222.157 2.992 2.992 0 0 0-1.878-.678c-1.418 0-2.713 1.278-2.713 2.061V5.3a4.531 4.531 0 0 0 1.124 3.074 1.038 1.038 0 0 1 .367.913 1.088 1.088 0 0 1-.513.835L1.3 11.948c-.024.026-.073.026-.1.052a.631.631 0 0 0-.22.13v.939h1.98a1.789 1.789 0 0 0-.513 1.044H.831A.853.853 0 0 1 0 13.226v-1.3c0-.526.831-.891.831-.891z" data-name="Union 4" style="stroke-width:.4px;fill:#747891;stroke:#747891"/>
            </g>
            <g id="prefix__Group_1470" data-name="Group 1470" transform="translate(9.724 5.826)">
                <ellipse id="prefix__Ellipse_391" cx="5.881" cy="5.805" data-name="Ellipse 391" rx="5.881" ry="5.805" style="fill:#fff"/>
                <path id="prefix__Path_1987" d="M15.868 12.667h-2.134v-2.134a.533.533 0 0 0-1.067 0v2.134h-2.134a.533.533 0 1 0 0 1.067h2.134v2.134a.533.533 0 0 0 1.067 0v-2.134h2.134a.533.533 0 0 0 0-1.067z" data-name="Path 1987" transform="translate(-7.023 -7.767)" style="stroke-width:.2px;fill:#747891;stroke:#747891"/>
            </g>
        </g>
    </g>
</svg>
