<svg xmlns="http://www.w3.org/2000/svg" width="17.459" height="20" viewBox="0 0 17.459 20">
    <defs>
        <style>
            .cls-1{fill:#171e48}
        </style>
    </defs>
    <g id="vault" transform="rotate(90 131.393 24.45)">
        <path id="Subtraction_2" d="M23074.6 20394.371v-1.062c-.121-.709.764-1.342 2-1.437h5l1.994 1.438h-7.027c-1.044.003-1.905.467-1.967 1.061z" class="cls-1" transform="translate(-22967.648 -20253.488)"/>
        <g id="Path_1990" fill="#fff" stroke="none">
            <path d="M124.972 183.06H108.91c-.79 0-1.449-.753-1.469-1.68v-10.642c.02-.926.678-1.68 1.47-1.68l.021.001h16.04c.791 0 1.45.753 1.469 1.68v10.641c-.02.927-.678 1.68-1.47 1.68z" transform="translate(.002 -27.717)"/>
            <path fill="#171e48" d="M124.972 169.559H108.91c-.52 0-.953.53-.969 1.185v10.63c.016.655.45 1.186.97 1.186H124.971c.52 0 .953-.531.969-1.185v-10.63c-.016-.655-.45-1.186-.97-1.186m0-1c1.07 0 1.947.964 1.97 2.175v10.652c-.024 1.21-.9 2.174-1.97 2.174H108.912c-1.07 0-1.946-.964-1.97-2.174v-10.653c.024-1.21.9-2.174 1.97-2.174H124.97z" transform="translate(.002 -27.717)"/>
        </g>
        <g id="lock" transform="translate(114.444 145.131)">
            <path id="Path_2903" d="M124.9 2.194a1.42 1.42 0 0 1 2.839 0v1.162h.774V2.194a2.194 2.194 0 1 0-4.387 0v1.162h.774z" class="cls-1" transform="translate(-123.349)"/>
            <path id="Path_2902" d="M83.125 201.7h-5.162a.355.355 0 0 0-.387.309v3.5a.355.355 0 0 0 .387.309h5.162a.355.355 0 0 0 .387-.309v-3.5a.355.355 0 0 0-.386-.309z" class="cls-1" transform="translate(-77.576 -199.33)"/>
        </g>
        <path id="Path_2991" d="M0 0l1-.375V5H0z" class="cls-1" transform="translate(106.943 139.781)"/>
    </g>
</svg>
