<svg xmlns="http://www.w3.org/2000/svg" width="18.845" height="21.998" viewBox="0 0 18.845 21.998">
    <g id="XMLID_2_" transform="translate(-22.3 -18)">
        <path id="XMLID_9_" fill="#8e97ba" d="M40.3 23.829a2.285 2.285 0 0 1 .33.44h-5.754v-5.792a2.285 2.285 0 0 1 .44.33z"/>
        <path id="XMLID_9_2" fill="#a0a9cb" d="M34.472 25.846h6.673v12.979A1.13 1.13 0 0 1 39.972 40h-16.5a1.13 1.13 0 0 1-1.172-1.175V19.173A1.13 1.13 0 0 1 23.473 18H33.3v6.673a1.13 1.13 0 0 0 1.173 1.173zm1.98 9.056v-.77a.379.379 0 0 0-.4-.4H27.4a.379.379 0 0 0-.4.4v.77a.379.379 0 0 0 .4.4h8.653a.416.416 0 0 0 .293-.11.488.488 0 0 0 .106-.292zm0-3.153v-.77a.379.379 0 0 0-.4-.4H27.4a.379.379 0 0 0-.4.4v.77a.379.379 0 0 0 .4.4h8.653a.379.379 0 0 0 .4-.4zm0-3.153v-.77a.379.379 0 0 0-.4-.4H27.4a.379.379 0 0 0-.4.4v.77a.379.379 0 0 0 .4.4h8.653a.379.379 0 0 0 .4-.4z" data-name="XMLID_9_"/>
    </g>
</svg>
