<svg id="help" xmlns="http://www.w3.org/2000/svg" width="18" height="18" viewBox="0 0 18 18">
  <path id="Path_2108" data-name="Path 2108" d="M9,1.44A7.56,7.56,0,1,1,1.44,9,7.56,7.56,0,0,1,9,1.44M9,0a9,9,0,1,0,9,9A9,9,0,0,0,9,0Z" fill="#2585d3"/>
  <path id="Path_2109" data-name="Path 2109" d="M36.526,23.484l.194.018a3.78,3.78,0,0,1,1.388.36,2.311,2.311,0,0,1,.958.819,2.115,2.115,0,0,1,.326.932,2.063,2.063,0,0,1-.068.857,2.225,2.225,0,0,1-.522.884,5.959,5.959,0,0,1-.9.74c-.18.124-.34.254-.509.383a1.08,1.08,0,0,0-.333.481c-.036.1-.077.194-.115.292a.671.671,0,0,1-.626.445.877.877,0,0,1-.455-.072.743.743,0,0,1-.409-.556,1.278,1.278,0,0,1,.216-.954,2.621,2.621,0,0,1,.565-.6c.236-.193.479-.376.72-.569a1.9,1.9,0,0,0,.493-.563,1.057,1.057,0,0,0-.126-1.17.972.972,0,0,0-.54-.3,1.719,1.719,0,0,0-.839.014,1.021,1.021,0,0,0-.65.54c-.085.158-.158.32-.238.481a1.168,1.168,0,0,1-.232.326.8.8,0,0,1-.61.2.844.844,0,0,1-.385-.1.666.666,0,0,1-.36-.594,1.742,1.742,0,0,1,.36-1.1,2.776,2.776,0,0,1,1.08-.875,3.294,3.294,0,0,1,1.024-.3l.2-.02Z" transform="translate(-27.443 -19.254)" fill="#2585d3"/>
  <path id="Path_2110" data-name="Path 2110" d="M44.347,67.407c-.054-.011-.108-.02-.16-.034a1,1,0,1,1,.432.016l-.088.018Z" transform="translate(-35.623 -53.637)" fill="#2585d3"/>
</svg>
