<svg xmlns="http://www.w3.org/2000/svg" width="18.3" height="18.304" viewBox="0 0 18.3 18.304">
  <path id="settings" d="M9.587,18.024H8.42a1.062,1.062,0,0,1-.9-.5c-.085-.133-.6-1-.864-1.513l-.933-.384c-.569.18-1.594.436-1.682.457a1.066,1.066,0,0,1-.992-.285l-.827-.827a1.064,1.064,0,0,1-.285-.992c.036-.155.281-1.133.457-1.682l-.384-.929C1.471,11.1.571,10.552.5,10.507a1.062,1.062,0,0,1-.5-.9V8.437a1.062,1.062,0,0,1,.5-.9c.133-.085,1-.6,1.513-.864l.384-.929c-.18-.569-.436-1.594-.457-1.682a1.066,1.066,0,0,1,.285-.992l.827-.827a1.064,1.064,0,0,1,.992-.285c.155.036,1.133.281,1.682.457l.929-.384c.274-.54.819-1.441.864-1.513a1.062,1.062,0,0,1,.9-.5H9.583a1.062,1.062,0,0,1,.9.5c.085.133.6,1,.864,1.513l.929.384c.569-.18,1.594-.436,1.682-.457a1.066,1.066,0,0,1,.992.285l.827.827a1.064,1.064,0,0,1,.285.992c-.036.155-.281,1.133-.457,1.682l.384.929c.54.274,1.441.819,1.513.864a1.062,1.062,0,0,1,.5.9V9.6a1.062,1.062,0,0,1-.5.9c-.133.085-1,.6-1.513.864l-.376.933c.18.569.436,1.594.457,1.682a1.066,1.066,0,0,1-.285.992l-.827.827a1.066,1.066,0,0,1-.992.285c-.155-.036-1.133-.281-1.682-.457l-.929.384c-.274.54-.819,1.441-.864,1.513a1.062,1.062,0,0,1-.9.5ZM5.75,14.559l1.633.679.081.18c.166.36.764,1.372.9,1.579a.068.068,0,0,0,.059.032H9.591A.068.068,0,0,0,9.65,17c.106-.169.72-1.2.9-1.579l.081-.18,1.639-.679.18.067c.373.137,1.509.429,1.748.486a.061.061,0,0,0,.063-.018l.827-.827a.063.063,0,0,0,.018-.063c-.045-.193-.337-1.354-.486-1.748l-.067-.18.675-1.635.18-.081c.36-.166,1.372-.764,1.579-.9A.068.068,0,0,0,17.02,9.6V8.433a.068.068,0,0,0-.032-.059h0c-.169-.106-1.2-.72-1.579-.9l-.18-.081L14.55,5.753l.067-.18c.137-.373.429-1.509.486-1.748a.068.068,0,0,0-.018-.063l-.827-.827a.063.063,0,0,0-.063-.018c-.193.045-1.351.337-1.748.486l-.18.067-1.642-.675-.081-.18c-.166-.36-.764-1.372-.9-1.579A.068.068,0,0,0,9.583,1H8.424a.068.068,0,0,0-.059.032c-.106.169-.72,1.2-.9,1.579l-.081.18-1.639.679-.18-.067c-.373-.137-1.509-.429-1.748-.486a.061.061,0,0,0-.063.018l-.827.827a.063.063,0,0,0-.018.063c.045.193.337,1.354.486,1.748l.067.18L2.786,7.4l-.18.081c-.36.166-1.372.764-1.579.9a.068.068,0,0,0-.032.059V9.607a.068.068,0,0,0,.032.059c.169.106,1.2.72,1.579.9l.18.081.679,1.639-.067.18c-.137.373-.429,1.509-.486,1.748a.068.068,0,0,0,.018.063l.827.827a.063.063,0,0,0,.063.018c.193-.045,1.351-.337,1.748-.486ZM9,13.226A4.206,4.206,0,1,1,13.21,9.02,4.206,4.206,0,0,1,9,13.226ZM9,5.809A3.211,3.211,0,1,0,12.214,9.02,3.211,3.211,0,0,0,9,5.809Z" transform="translate(0.15 0.13)" fill="#2585d3" stroke="#2585d3" stroke-width="0.3"/>
</svg>
