<svg xmlns="http://www.w3.org/2000/svg" width="15.3" height="15.3" viewBox="0 0 15.3 15.3">
    <path id="prefix__container" d="M5.07 2a1.531 1.531 0 0 0-1.27.75l-1.664 2.7A1.821 1.821 0 0 0 2 6.125V15.5A1.5 1.5 0 0 0 3.5 17h12a1.5 1.5 0 0 0 1.5-1.5V6.125a2.646 2.646 0 0 0-.141-.75L15.2 2.75A1.531 1.531 0 0 0 13.93 2zm0 1.5h8.86l.89 1.5H4.18zm-1.57 3h12v9h-12zM7.859 8A.753.753 0 1 0 8 9.5h3A.75.75 0 1 0 11 8H7.86z" transform="translate(-1.85 -1.85)" style="fill:#43496b;stroke:#f4f7fc;stroke-width:.3px"/>
</svg>
