<svg xmlns="http://www.w3.org/2000/svg" width="21.534" height="19.394" viewBox="0 0 21.534 19.394">
    <defs>
        <style>
            .cls-1{fill:#000;stroke:#000;stroke-linecap:round;stroke-linejoin:round;stroke-width:.3px}
        </style>
    </defs>
    <path id="my_workspace" d="M101.575 282.573a.342.342 0 0 0-.342.342v1.629h-2.609v-1.629a.342.342 0 1 0-.685 0v1.972a.342.342 0 0 0 .342.342h3.3a.343.343 0 0 0 .342-.342v-1.972a.342.342 0 0 0-.347-.342zm-1.405-3.168a.338.338 0 0 0-.485 0L97 282.086a.343.343 0 0 0 .485.485l2.439-2.439 2.439 2.439a.343.343 0 0 0 .485-.485zm4.265-7.34h-.571v-1.247a.77.77 0 0 0-.209-.57 1.222 1.222 0 0 0-.93-.23h-9.258l-1.211-1.472a.338.338 0 0 0-.265-.125h-5.137a1.257 1.257 0 0 0-1.256 1.256v2.389h-.8a.8.8 0 0 0-.8.8v13.85a.8.8 0 0 0 .8.8h19.636a.8.8 0 0 0 .8-.8v-13.853a.8.8 0 0 0-.799-.797zm-18.152-2.389a.572.572 0 0 1 .571-.571h4.976l1.21 1.473a.338.338 0 0 0 .265.125h9.428a1.777 1.777 0 0 1 .435.025.223.223 0 0 1 .012.09v1.246h-16.9zm18.265 17.038a.114.114 0 0 1-.114.114H84.8a.114.114 0 0 1-.114-.114v-13.851a.114.114 0 0 1 .114-.114h19.636a.114.114 0 0 1 .114.114zm-10.683-11.56h-6.62a.342.342 0 0 0 0 .685h6.621a.342.342 0 0 0 0-.685zm-1.827 2.558h-4.793a.342.342 0 1 0 0 .685h4.795a.342.342 0 1 0 0-.685z" class="cls-1" data-name="my workspace" transform="translate(-83.849 -268.271)"/>
</svg>
