<svg xmlns="http://www.w3.org/2000/svg" width="24" height="24" viewBox="0 0 24 24">
  <g fill="none" fill-rule="evenodd">
    <rect width="24" height="24" fill="#2585d3" fill-rule="nonzero" opacity="0"/>
    <path fill="#40466c" fill-rule="nonzero" d="M18.4253679,17.9713699 L18.5833872,18.0628966 C18.6217313,18.0798359 18.6855921,18.1110327 18.7597427,18.1521583 C19.3340844,18.4344733 19.7595325,18.78931 19.7837381,19.2433418 L19.7837235,20.8087583 C19.788145,21.123543 19.6657896,21.4269279 19.4440582,21.6508699 C19.2222934,21.8748455 18.9196689,22.0006271 18.6043855,21.9999976 L18.5184606,21.9999976 L5.39354991,21.9999976 C5.07763462,21.9997304 4.77503459,21.8730341 4.55356865,21.6482986 C4.33214557,21.4236065 4.21030888,21.1196649 4.21527835,20.8068879 L4.21546378,19.2320092 C4.23835812,18.7759758 4.68453555,18.4131285 5.2592403,18.1388392 C5.3302844,18.1006785 5.38535409,18.0741311 5.40535395,18.0660601 L5.47194629,18.0289396 L8.98707846,16.0491545 C7.84737311,15.0190296 7.27809607,13.1841139 7.27809607,11.4620646 L7.27809607,8.88078501 C7.27809607,7.03468477 9.63605123,5.10443207 11.9447091,5.10443207 L12.0563127,5.10443207 C14.3623006,5.10443207 16.7229257,7.035742 16.7229257,8.88078501 L16.7229257,11.4620646 C16.7229257,13.1794115 16.1516642,15.0183551 15.0137088,16.0490655 L18.4253679,17.9713699 Z M18.0374785,19.4778245 C17.9949111,19.4778245 17.9595895,19.4654638 17.9287856,19.449619 C17.9136641,19.4440352 17.9285744,19.449253 17.8740684,19.4308693 L13.967375,17.2809524 C13.5483149,17.0642761 13.2753261,16.642729 13.249875,16.1765308 C13.2123122,15.7167983 13.4027233,15.2678393 13.7469522,14.986319 C14.6584969,14.0391273 15.1653484,12.7756206 15.1604745,11.4620646 L15.1604745,8.88078501 C15.1604745,7.97764131 13.4907491,6.65960266 12.0018614,6.62854229 C10.5112747,6.65697146 8.83955959,7.97945934 8.83955959,8.88078501 L8.83955842,11.462652 C8.834327,12.7755391 9.34083893,14.0390572 10.2394088,14.9745917 C10.5963232,15.2678393 10.7867342,15.7167983 10.749441,16.1725785 C10.7237204,16.642729 10.4507315,17.0642761 10.0350565,17.2791462 L6.0534188,19.449253 C6.07047211,19.449253 6.08538241,19.4440352 6.07026084,19.449619 C6.03945701,19.4654638 6.00413542,19.4778245 6.02553591,19.463338 C5.94910611,19.4998363 5.87585321,19.5425289 5.80650806,19.5909655 L5.80650806,20.4758536 L18.1915508,20.4758536 L18.1915508,19.5900112 C18.1255983,19.5423143 18.0640238,19.5025262 18.0374785,19.4778245 Z M22.876467,15.0162225 C23.0149202,15.0735826 23.2175982,15.177672 23.4217648,15.3230641 C23.7794643,15.5777909 23.999879,15.8660472 23.999879,16.1950674 L23.9998617,17.7287686 C24.0046959,18.0442616 23.8825901,18.3485295 23.6608463,18.5735397 C23.4391025,18.7985499 23.1362163,18.9255345 22.8197188,18.9261006 L20.8187542,18.9270858 L20.6719135,18.7994191 C20.6116371,18.361802 20.4027776,17.9580281 20.0801703,17.6554418 L19.8078193,17.3999929 L22.489773,17.3999929 L22.489773,16.5143228 C22.4337948,16.4758954 22.3643236,16.4398777 22.2579376,16.3914902 C22.1983685,16.3779035 22.1718327,16.3657213 22.1698975,16.3557631 L18.287244,14.2027929 C17.8872215,13.9719574 17.623451,13.5627446 17.5791792,13.1064002 C17.5261034,12.6422798 17.7191689,12.1840869 18.0713236,11.9130306 C18.9640734,10.9574889 19.4504482,9.69375065 19.4280798,8.38521873 L19.4280798,5.80492436 C19.4280798,4.85483262 17.7450038,3.52413723 16.2088085,3.52413656 C15.3965161,3.52656954 14.6077793,3.79660639 13.965186,4.29227716 L13.8389052,4.31880691 C13.3550428,4.19910989 12.8582972,4.13902636 12.3597794,4.13990026 L12.0363797,4.14046719 L12.2471624,3.89579659 C13.242749,2.7401482 14.6776336,2.0527399 16.2093514,2 C18.519059,2 20.9362106,3.96301075 20.9362106,5.80492436 L20.9362106,8.38620396 C20.9362106,10.0798393 20.3433955,11.9369247 19.1976191,12.9724357 L22.876467,15.0162225 Z M4.18906234,17.4009781 L3.91812175,17.6562078 C3.5963839,17.9592892 3.38820426,18.3630007 3.32812795,18.8003507 L3.18127998,18.928071 L1.1793277,18.9270858 C0.862894845,18.9265241 0.56008448,18.7994886 0.338492581,18.5744171 C0.116900683,18.3493457 -0.00496554285,18.045036 0.000155087776,17.7320125 L0.000155087776,16.1950674 C0.000155087776,15.8669744 0.220101904,15.5789889 0.577096105,15.3239354 C0.780843706,15.1783685 0.983110603,15.0739687 1.10646407,15.0235191 L4.80252855,12.9750807 C3.65665477,11.9367454 3.06184827,10.0772826 3.06184827,8.38620396 L3.06184827,5.80492436 C3.06184827,3.96288963 5.47815735,2.00008837 7.79284237,2.00008837 C9.31996627,2.05279459 10.7554217,2.74012369 11.7518431,3.89574905 L11.9627633,4.14036924 L11.6393121,4.13990034 C11.1397735,4.13917615 10.642013,4.19926492 10.1570676,4.31883427 L10.0307948,4.29219783 C9.38835406,3.79574599 8.59910911,3.52564947 7.78673219,3.52413723 C6.25330489,3.52413723 4.57096671,4.8553062 4.57096671,5.80492436 L4.57094443,8.38876695 C4.54823745,9.69465478 5.03427284,10.958405 5.90934099,11.8981425 C6.27923867,12.1852776 6.47234565,12.6439887 6.41914476,13.1058628 C6.37460787,13.5647151 6.11083729,13.9739278 5.70854616,14.2060461 L1.86160136,16.3294213 C1.82681248,16.3652443 1.79898284,16.3784621 1.74341068,16.3976514 L1.74233333,16.3980234 C1.73126424,16.4018449 1.73030657,16.4022924 1.68046836,16.4292186 C1.61976955,16.4488851 1.56243231,16.4773519 1.51026118,16.5136081 L1.51026118,17.4009781 L4.18906234,17.4009781 Z"/>
  </g>
</svg>
