<svg width="0" height="0" class="hidden">
    <symbol xmlns="http://www.w3.org/2000/svg" viewBox="0 0 24 24" id="home">
        <g fill="none" stroke="#5b607e" stroke-width="1.25">
            <circle cx="12" cy="12" r="12" stroke="none" />
            <circle cx="12" cy="12" r="11.375" />
        </g>
        <path fill="#5b607e"
            d="M17.781 13.99a.913.913 0 0 0 .685 1.065.862.862 0 0 0 1-.728.914.914 0 0 0-.678-1.07.813.813 0 0 0-.646.142.922.922 0 0 0-.361.591zM5.898 10.153a.957.957 0 0 0-.244-1.061.814.814 0 0 0-1.021-.056.948.948 0 0 0-.344 1.028.84.84 0 0 0 1.609.088zm-1.36 3.129a.908.908 0 0 0-.689.987.88.88 0 0 0 .856.829.789.789 0 0 0 .168-.017.915.915 0 0 0 .673-1.075.861.861 0 0 0-1.008-.724zm2.709-7.641A.954.954 0 0 0 7.01 6.91a.824.824 0 0 0 1.188.253.954.954 0 0 0 .237-1.269.824.824 0 0 0-1.188-.253zm9.069 1.262a.954.954 0 0 0-.238-1.269.824.824 0 0 0-1.188.255.954.954 0 0 0 .239 1.269.808.808 0 0 0 .643.137.852.852 0 0 0 .544-.391zm-3.867-1.43a.969.969 0 0 0-.078-.856.844.844 0 0 0-.708-.409.877.877 0 0 0-.855.792.916.916 0 0 0 .626 1.007.844.844 0 0 0 1.015-.533zm6.066 5.038l-4.31 2.948a2.662 2.662 0 0 1-2.274 2.169 2.575 2.575 0 0 1-2.634-1.639 2.9 2.9 0 0 1 .644-3.183 2.466 2.466 0 0 1 3.033-.33l4.977-1.378a.714.714 0 0 1 .838.442.806.806 0 0 1-.264.958zm-6.01 1.96a.9.9 0 0 0-1.207-.506 1.006 1.006 0 0 0-.474 1.289.9.9 0 0 0 1.207.507 1.009 1.009 0 0 0 .479-1.29z" />
    </symbol>
    <symbol xmlns="http://www.w3.org/2000/svg" viewBox="0 0 20.5 23.5" id="notifications">
        <path fill="#5b607e" stroke="#fff" stroke-linecap="round" stroke-width=".5"
            d="M8.812.826A2.057 2.057 0 0 1 10.25.249a1.847 1.847 0 0 1 1.375.577 1.592 1.592 0 0 1 .625 1.269v.231a7.758 7.758 0 0 1 4.312 2.711A7.218 7.218 0 0 1 18.25 9.71v7.077q0 .923 1 .923h1v1.847h-7.188a2.437 2.437 0 0 1 .187.923 2.57 2.57 0 0 1-.875 1.957 3.019 3.019 0 0 1-2.125.808 3.019 3.019 0 0 1-2.125-.808 2.571 2.571 0 0 1-.875-1.961 2.436 2.436 0 0 1 .188-.923H.25v-1.842h1q1 0 1-.923V9.48a6.7 6.7 0 0 1 1.688-4.5A8.188 8.188 0 0 1 8.25 2.326v-.23a1.662 1.662 0 0 1 .562-1.27zm1 3.111a6.117 6.117 0 0 0-4 1.793A5.1 5.1 0 0 0 4.25 9.48v7.308a2.436 2.436 0 0 1-.188.923h12.375a2.437 2.437 0 0 1-.187-.923V9.711a5.413 5.413 0 0 0-1.688-3.981 5.742 5.742 0 0 0-4.125-1.793h-.625zm1.438 16.538q0-.923-1-.923t-1 .923q0 .923 1 .923t.999-.918z" />
    </symbol>
    <symbol xmlns="http://www.w3.org/2000/svg" viewBox="0 0 21.996 22" id="settings">
        <path fill="#5b607e"
            d="M11.715 22h-1.426a1.3 1.3 0 0 1-1.1-.609 37.78 37.78 0 0 1-1.056-1.849l-1.14-.469c-.7.22-1.947.533-2.055.559a1.3 1.3 0 0 1-1.213-.352l-1.01-1.01a1.3 1.3 0 0 1-.348-1.212 37.09 37.09 0 0 1 .559-2.055l-.469-1.135C1.8 13.537.7 12.87.61 12.815a1.3 1.3 0 0 1-.61-1.1V10.28a1.3 1.3 0 0 1 .609-1.1 37.78 37.78 0 0 1 1.849-1.056l.469-1.135c-.22-.7-.533-1.947-.559-2.055a1.3 1.3 0 0 1 .348-1.212l1.01-1.01a1.3 1.3 0 0 1 1.212-.348 37.09 37.09 0 0 1 2.055.559l1.135-.469c.334-.66 1-1.76 1.056-1.848a1.3 1.3 0 0 1 1.1-.61h1.426a1.3 1.3 0 0 1 1.1.609c.1.163.735 1.221 1.056 1.849L15 2.927c.7-.22 1.947-.533 2.055-.559a1.3 1.3 0 0 1 1.212.348l1.01 1.01a1.3 1.3 0 0 1 .348 1.212 37.09 37.09 0 0 1-.559 2.055l.469 1.135c.66.334 1.76 1 1.848 1.056A1.3 1.3 0 0 1 22 10.28v1.426a1.3 1.3 0 0 1-.609 1.1c-.163.1-1.221.735-1.849 1.056l-.46 1.14c.22.7.533 1.947.559 2.055a1.3 1.3 0 0 1-.348 1.212l-1.01 1.01a1.3 1.3 0 0 1-1.212.348 37.09 37.09 0 0 1-2.055-.559l-1.135.469c-.334.66-1 1.76-1.056 1.848a1.3 1.3 0 0 1-1.1.61zm-4.689-4.234l2 .83.1.22c.2.44.933 1.677 1.1 1.93a.084.084 0 0 0 .073.04h1.421a.084.084 0 0 0 .073-.04c.13-.207.88-1.461 1.1-1.93l.1-.22 2-.83.22.081c.455.167 1.844.524 2.137.594a.075.075 0 0 0 .077-.022l1.01-1.01a.077.077 0 0 0 .022-.077c-.055-.235-.411-1.655-.594-2.137l-.081-.215.825-2 .22-.1c.44-.2 1.677-.933 1.93-1.1a.084.084 0 0 0 .04-.073V10.28a.084.084 0 0 0-.04-.073c-.207-.13-1.461-.88-1.93-1.1l-.22-.1-.83-2 .081-.22c.167-.455.524-1.844.594-2.137a.084.084 0 0 0-.022-.077l-1.01-1.01a.077.077 0 0 0-.077-.022c-.235.055-1.65.411-2.137.594l-.22.081-2.007-.825-.1-.22c-.2-.44-.933-1.677-1.1-1.93a.084.084 0 0 0-.073-.04h-1.414a.084.084 0 0 0-.073.04c-.13.207-.88 1.461-1.1 1.93l-.1.22-2 .83-.221-.082c-.455-.167-1.844-.524-2.137-.594a.075.075 0 0 0-.077.022L3.576 4.58a.077.077 0 0 0-.022.077c.055.235.411 1.655.594 2.137l.081.22L3.4 9.017l-.22.1c-.44.2-1.677.933-1.93 1.1a.084.084 0 0 0-.04.073v1.426a.084.084 0 0 0 .04.073c.207.13 1.461.88 1.93 1.1l.22.1.83 2-.081.22c-.167.455-.524 1.844-.594 2.137a.084.084 0 0 0 .022.077l1.01 1.01a.077.077 0 0 0 .077.022c.235-.055 1.65-.411 2.137-.594zM11 16.138a5.14 5.14 0 1 1 5.14-5.14 5.14 5.14 0 0 1-5.14 5.14zm0-9.064a3.923 3.923 0 1 0 3.923 3.923A3.923 3.923 0 0 0 11 7.074z" />
    </symbol>
    <symbol xmlns="http://www.w3.org/2000/svg" viewBox="0 0 24 24" id="nav-tickets">
        <g fill="none" stroke="#737790" stroke-linecap="round" stroke-linejoin="round" stroke-width="1">
            <g transform="translate(2 2)">
                <rect width="16" height="16" rx="2.34"></rect>
                <rect width="18" height="18" x="-1" y="-1" rx="3.34"></rect>
            </g>
            <g transform="translate(4.6 5.467)">
                <rect width="3" height="3" rx="1.5"></rect>
                <rect width="1" height="1" x="1" y="1" rx=".5"></rect>
            </g>
            <g transform="translate(4.6 11.533)">
                <rect width="3" height="3" rx="1.5"></rect>
                <rect width="1" height="1" x="1" y="1" rx=".5"></rect>
            </g>
            <path d="M9.554 6.889h5.553m-5.553 6.222h5.553"></path>
        </g>
    </symbol>
    <symbol xmlns="http://www.w3.org/2000/svg" viewBox="0 0 24 24" id="nav-tickets-active">
        <g fill="none" stroke="#2585d3" stroke-linecap="round" stroke-linejoin="round" stroke-width="1">
            <g transform="translate(2 2)">
                <rect width="16" height="16" rx="2.34"></rect>
                <rect width="18" height="18" x="-1" y="-1" rx="3.34"></rect>
            </g>
            <g transform="translate(4.6 5.467)">
                <rect width="3" height="3" rx="1.5"></rect>
                <rect width="1" height="1" x="1" y="1" rx=".5"></rect>
            </g>
            <g transform="translate(4.6 11.533)">
                <rect width="3" height="3" rx="1.5"></rect>
                <rect width="1" height="1" x="1" y="1" rx=".5"></rect>
            </g>
            <path d="M9.554 6.889h5.553m-5.553 6.222h5.553"></path>
        </g>
    </symbol>
    <symbol xmlns="http://www.w3.org/2000/svg" viewBox="0 0 19.8 18" id="nav-vault">
        <path fill="#737790"
            d="M19.027 3.415h-8.64L9.077.471a.771.771 0 0 0-.7-.471H.773A.8.8 0 0 0 0 .83v16.337a.8.8 0 0 0 .773.831h18.254a.8.8 0 0 0 .773-.833V4.247a.8.8 0 0 0-.773-.832zm-17.48-1.75H7.9l.776 1.75H1.541zm16.707 14.67H1.547V5.082h16.707z" />
    </symbol>
    <symbol xmlns="http://www.w3.org/2000/svg" viewBox="0 0 19.8 18" id="nav-vault-active">
        <path fill="#2585d3"
            d="M19.027 3.415h-8.64L9.077.471a.771.771 0 0 0-.7-.471H.773A.8.8 0 0 0 0 .83v16.337a.8.8 0 0 0 .773.831h18.254a.8.8 0 0 0 .773-.833V4.247a.8.8 0 0 0-.773-.832zm-17.48-1.75H7.9l.776 1.75H1.541zm16.707 14.67H1.547V5.082h16.707z" />
    </symbol>
    <symbol xmlns="http://www.w3.org/2000/svg" viewBox="0 0 30 30" id="nav-views-active">
        <path d="M14 26V16H4a1 1 0 0 1 0-2h10V4a1 1 0 0 1 2 0v10h10a1 1 0 0 1 0 2H16v10a1 1 0 0 1-2 0z" fill="#2585d3">
        </path>
        <g transform="translate(5.808 5.827)" fill="#fff" stroke="#2585d3" stroke-width="1.8">
            <circle cx="9.231" cy="9.231" r="9.231" stroke="none"></circle>
            <circle cx="9.231" cy="9.231" r="8.331" fill="none"></circle>
        </g>
        <g transform="translate(11.346 11.366)" fill="#fff" stroke="#2585d3" stroke-width="1.8">
            <circle cx="3.692" cy="3.692" r="3.692" stroke="none"></circle>
            <circle cx="3.692" cy="3.692" r="2.792" fill="none"></circle>
        </g>
    </symbol>
    <symbol xmlns="http://www.w3.org/2000/svg" viewBox="0 0 30 30" id="nav-views">
        <path d="M15.5 2.997v24M14 26V16H4a1 1 0 0 1 0-2h10V4a1 1 0 0 1 2 0v10h10a1 1 0 0 1 0 2H16v10a1 1 0 0 1-2 0z"
            fill="#737790"></path>
        <g transform="translate(5.808 5.827)" fill="#fff" stroke="#737790" stroke-width="1.8">
            <circle cx="9.231" cy="9.231" r="9.231" stroke="none"></circle>
            <circle cx="9.231" cy="9.231" r="8.331" fill="none"></circle>
        </g>
        <g transform="translate(11.346 11.366)" fill="#fff" stroke="#737790" stroke-width="1.8">
            <circle cx="3.692" cy="3.692" r="3.692" stroke="none"></circle>
            <circle cx="3.692" cy="3.692" r="2.792" fill="none"></circle>
        </g>
    </symbol>
    <symbol xmlns="http://www.w3.org/2000/svg" viewBox="0 0 22 22" id="nav-assets">
        <g transform="translate(-60 -23)">
            <rect width="1.719" height="1.719" rx=".4" transform="translate(63.609 39.328)" />
            <rect width="1.719" height="1.719" rx=".4" transform="translate(63.609 35.719)" />
            <rect width="1.719" height="1.719" rx=".3" transform="translate(63.609 32.11)" />
            <path fill="#737790"
                d="M67.333 23v4.927L60 29.3V45h22V25.75zm0 20.167h-5.5V30.824l5.5-1.031zm12.833 0h-11V25.209l11 2.063z" />
            <path fill="#737790" stroke="#737790" stroke-linecap="round" stroke-width=".7"
                d="M74.667 31.254a1.772 1.772 0 0 1 1.887 1.623.436.436 0 0 0 .863 0 2.509 2.509 0 0 0-2.318-2.336v-.754a.436.436 0 0 0-.862 0v.754a2.47 2.47 0 0 0-2.31 2.522 2.618 2.618 0 0 0 2.741 2.179 1.64 1.64 0 1 1 .022 3.246h-.044a1.768 1.768 0 0 1-1.865-1.623.436.436 0 0 0-.862 0 2.509 2.509 0 0 0 2.317 2.337v.845a.436.436 0 0 0 .862 0v-.845a2.47 2.47 0 0 0 2.31-2.521 2.619 2.619 0 0 0-2.742-2.179 1.964 1.964 0 0 1-1.644-.809 1.429 1.429 0 0 1 0-1.629 1.964 1.964 0 0 1 1.645-.81zm0 0" />
        </g>
    </symbol>
    <symbol xmlns="http://www.w3.org/2000/svg" viewBox="0 0 22 22" id="nav-assets-active">
        <g transform="translate(-60 -23)">
            <rect width="1.719" height="1.719" rx=".4" transform="translate(63.609 39.328)" />
            <rect width="1.719" height="1.719" rx=".4" transform="translate(63.609 35.719)" />
            <rect width="1.719" height="1.719" rx=".3" transform="translate(63.609 32.11)" />
            <path fill="#2585d3"
                d="M67.333 23v4.927L60 29.3V45h22V25.75zm0 20.167h-5.5V30.824l5.5-1.031zm12.833 0h-11V25.209l11 2.063z" />
            <path fill="#2585d3" stroke="#2585d3" stroke-linecap="round" stroke-width=".7"
                d="M74.667 31.254a1.772 1.772 0 0 1 1.887 1.623.436.436 0 0 0 .863 0 2.509 2.509 0 0 0-2.318-2.336v-.754a.436.436 0 0 0-.862 0v.754a2.47 2.47 0 0 0-2.31 2.522 2.618 2.618 0 0 0 2.741 2.179 1.64 1.64 0 1 1 .022 3.246h-.044a1.768 1.768 0 0 1-1.865-1.623.436.436 0 0 0-.862 0 2.509 2.509 0 0 0 2.317 2.337v.845a.436.436 0 0 0 .862 0v-.845a2.47 2.47 0 0 0 2.31-2.521 2.619 2.619 0 0 0-2.742-2.179 1.964 1.964 0 0 1-1.644-.809 1.429 1.429 0 0 1 0-1.629 1.964 1.964 0 0 1 1.645-.81zm0 0" />
        </g>
    </symbol>
    <symbol xmlns="http://www.w3.org/2000/svg" viewBox="0 0 20 18" id="logout">
        <path fill="#171e48"
            d="M11 0a9.025 9.025 0 0 0-8.781 7h2.062a7 7 0 1 1 0 4H2.219A9 9 0 1 0 11 0zM8 5v3H0v2h8v3l5-4z" />
    </symbol>
    <symbol xmlns="http://www.w3.org/2000/svg" viewBox="0 0 52 52" id="camera">
        <defs>
            <filter id="a" width="52" height="52" x="0" y="0" filterUnits="userSpaceOnUse">
                <feOffset dy="3"></feOffset>
                <feGaussianBlur result="blur" stdDeviation="3"></feGaussianBlur>
                <feFlood flood-color="#2585d3" flood-opacity=".302"></feFlood>
                <feComposite in2="blur" operator="in"></feComposite>
                <feComposite in="SourceGraphic"></feComposite>
            </filter>
        </defs>
        <g fill="#fff" stroke="#2585d3" stroke-width="2" transform="translate(11 8)" filter="url(#a)">
            <circle cx="15" cy="15" r="15" stroke="none"></circle>
            <circle cx="15" cy="15" r="16" fill="none"></circle>
        </g>
        <path fill="#171e48"
            d="M24.017 16.887a.535.535 0 0 0-.444.274l-.692 1.379h-2.5a1.66 1.66 0 0 0-1.651 1.652v7.27a1.66 1.66 0 0 0 1.652 1.652h11.236a1.66 1.66 0 0 0 1.652-1.652v-7.27a1.66 1.66 0 0 0-1.652-1.652h-2.5l-.692-1.379a.507.507 0 0 0-.444-.274zm.31.991h3.346l.692 1.379a.507.507 0 0 0 .444.274h2.809a.649.649 0 0 1 .661.661v7.27a.649.649 0 0 1-.661.661H20.382a.649.649 0 0 1-.661-.661v-7.27a.649.649 0 0 1 .661-.661h2.809a.507.507 0 0 0 .444-.274l.692-1.379zM26 20.356a3.47 3.47 0 1 0 3.47 3.47A3.477 3.477 0 0 0 26 20.357zm0 .991a2.478 2.478 0 1 1-2.478 2.478A2.471 2.471 0 0 1 26 21.348z">
        </path>
    </symbol>
</svg>