<svg width="0" height="0" class="hidden">
  <symbol xmlns="http://www.w3.org/2000/svg" viewBox="0 0 16 12" id="hamburger">
    <path fill="#171e48" d="M.889 12a.878.878 0 0 1-.631-.257.8.8 0 0 1-.258-.6.829.829 0 0 1 .258-.608.891.891 0 0 1 .631-.248h14.222a.86.86 0 0 1 .622.248.815.815 0 0 1 .267.608.788.788 0 0 1-.267.6.847.847 0 0 1-.622.257zm0-5.143A.878.878 0 0 1 .258 6.6.8.8 0 0 1 0 6a.829.829 0 0 1 .258-.608.891.891 0 0 1 .631-.248h14.222a.86.86 0 0 1 .622.248A.815.815 0 0 1 16 6a.789.789 0 0 1-.267.6.847.847 0 0 1-.622.257zm0-5.143a.878.878 0 0 1-.631-.257.8.8 0 0 1-.258-.6.829.829 0 0 1 .258-.609A.891.891 0 0 1 .889 0h14.222a.86.86 0 0 1 .622.248.815.815 0 0 1 .267.609.789.789 0 0 1-.267.6.847.847 0 0 1-.622.257z"/>
  </symbol>
  <symbol xmlns="http://www.w3.org/2000/svg" viewBox="0 0 31.26 45" id="filter">
    <path fill="#5b607e" stroke="#5b607e" stroke-width=".5" d="M30.95 14.802a.515.515 0 0 0-.466-.3H14.515a.515.515 0 0 0-.466.3.535.535 0 0 0 .068.559l6.139 7.6v7.01a.529.529 0 0 0 .244.446.506.506 0 0 0 .5.024l3.449-1.746a.527.527 0 0 0 .286-.471l.007-5.265 6.139-7.6a.535.535 0 0 0 .069-.557zm-7.12 7.638a.533.533 0 0 0-.118.334l-.007 5.128-2.418 1.224v-6.351a.533.533 0 0 0-.118-.335l-5.562-6.888h13.785z"/>
    <path fill="none" stroke="#e2e5ea" d="M.496 0v45"/>
  </symbol>
  <symbol xmlns="http://www.w3.org/2000/svg" viewBox="0 0 16 16" id="search">
    <path fill="#5c617e" d="M15.783 14.616L12.8 11.661a7.2 7.2 0 0 0-.533-9.557 7.187 7.187 0 0 0-10.158 10.17 7.2 7.2 0 0 0 9.571.532l2.959 2.955a.768.768 0 0 0 .56.24.727.727 0 0 0 .56-.24.828.828 0 0 0 .024-1.145zM12.8 7.188a5.47 5.47 0 0 1-1.653 3.94A5.643 5.643 0 0 1 7.2 12.779a5.486 5.486 0 0 1-3.946-1.651 5.627 5.627 0 0 1-1.653-3.94 5.47 5.47 0 0 1 1.653-3.94A5.6 5.6 0 0 1 7.2 1.6a5.486 5.486 0 0 1 3.946 1.651A5.579 5.579 0 0 1 12.8 7.188z"/>
  </symbol>

  <symbol xmlns="http://www.w3.org/2000/svg" viewBox="0 0 15.2 15.2" id="activity">
    <path fill="none" stroke="#171e48" stroke-linecap="round" stroke-linejoin="round" stroke-miterlimit="10" stroke-width="1.2" d="M7.6.6a7 7 0 1 0 7 7 7 7 0 0 0-7-7zm4.667 7.44h-1.239l-.948 1.779-1.612-4.161-1.3 3.521-1.126-2.591-.576 1.453H2.933v-.1H5.4l.638-1.609 1.123 2.584 1.3-3.535 1.628 4.2.876-1.643h1.3v.1z" opacity=".5"/>
  </symbol>
  <symbol xmlns="http://www.w3.org/2000/svg" viewBox="0 0 15.2 15.2" id="activity-active">
    <path fill="none" stroke="#2585d3" stroke-linecap="round" stroke-linejoin="round" stroke-miterlimit="10" stroke-width="1.2" d="M7.6.6a7 7 0 1 0 7 7 7 7 0 0 0-7-7zm4.667 7.44h-1.239l-.948 1.779-1.612-4.161-1.3 3.521-1.126-2.591-.576 1.453H2.933v-.1H5.4l.638-1.609 1.123 2.584 1.3-3.535 1.628 4.2.876-1.643h1.3v.1z"/>
  </symbol>
  <symbol xmlns="http://www.w3.org/2000/svg" viewBox="0 0 14 14" id="overview">
    <path d="M3.238 0a3.238 3.238 0 1 0 3.238 3.238A3.238 3.238 0 0 0 3.238 0zm0 5.4A2.159 2.159 0 1 1 5.4 3.238 2.159 2.159 0 0 1 3.238 5.4zm7.524 1.076a3.238 3.238 0 1 0-3.238-3.238 3.238 3.238 0 0 0 3.238 3.238zm0-5.4a2.159 2.159 0 1 1-2.159 2.159 2.159 2.159 0 0 1 2.159-2.156zm0 6.448A3.238 3.238 0 1 0 14 10.762a3.238 3.238 0 0 0-3.238-3.238zm0 5.4a2.159 2.159 0 1 1 2.162-2.162 2.159 2.159 0 0 1-2.162 2.162zm-7.524-5.4a3.238 3.238 0 1 0 3.238 3.238 3.238 3.238 0 0 0-3.238-3.238zm0 5.4A2.159 2.159 0 1 1 5.4 10.762a2.159 2.159 0 0 1-2.162 2.162z" opacity=".5"/>
  </symbol>
  <symbol xmlns="http://www.w3.org/2000/svg" viewBox="0 0 14 14" id="overview-active">
    <path  fill="#2585d3" stroke-width="1" d="M3.238 0a3.238 3.238 0 1 0 3.238 3.238A3.238 3.238 0 0 0 3.238 0zm0 5.4A2.159 2.159 0 1 1 5.4 3.238 2.159 2.159 0 0 1 3.238 5.4zm7.524 1.076a3.238 3.238 0 1 0-3.238-3.238 3.238 3.238 0 0 0 3.238 3.238zm0-5.4a2.159 2.159 0 1 1-2.159 2.159 2.159 2.159 0 0 1 2.159-2.156zm0 6.448A3.238 3.238 0 1 0 14 10.762a3.238 3.238 0 0 0-3.238-3.238zm0 5.4a2.159 2.159 0 1 1 2.162-2.162 2.159 2.159 0 0 1-2.162 2.162zm-7.524-5.4a3.238 3.238 0 1 0 3.238 3.238 3.238 3.238 0 0 0-3.238-3.238zm0 5.4A2.159 2.159 0 1 1 5.4 10.762a2.159 2.159 0 0 1-2.162 2.162z"/>

  <symbol xmlns="http://www.w3.org/2000/svg" viewBox="0 0 17.519 16.5" id="ticket-search-filter">
    <path fill="#5b607e" stroke="#5b607e" stroke-width=".5" d="M17.21.552a.515.515 0 0 0-.466-.3H.775a.515.515 0 0 0-.466.3.535.535 0 0 0 .068.559l6.139 7.6v7.01a.529.529 0 0 0 .244.446.506.506 0 0 0 .5.024l3.449-1.746a.527.527 0 0 0 .286-.471l.007-5.265 6.139-7.6a.535.535 0 0 0 .069-.557zM10.09 8.19a.533.533 0 0 0-.118.334l-.007 5.128-2.418 1.224V8.525a.533.533 0 0 0-.118-.335L1.867 1.302h13.785z"></path>
  </symbol>
  <symbol xmlns="http://www.w3.org/2000/svg" viewBox="0 0 11 11" id="ticket-list-no-tags">
    <path fill="#747891" d="M3.768 10.631l-3.4-3.4a1.278 1.278 0 0 1 0-1.792L5.391.375A1.271 1.271 0 0 1 6.292 0h3.439A1.276 1.276 0 0 1 11 1.269v3.439a1.272 1.272 0 0 1-.375.9l-5.066 5.026a1.276 1.276 0 0 1-1.792 0zM5.991.972L.966 6.037a.415.415 0 0 0 0 .6l3.4 3.4a.417.417 0 0 0 .6 0l5.065-5.025a.424.424 0 0 0 .126-.3V1.269a.417.417 0 0 0-.426-.423H6.292a.419.419 0 0 0-.301.126zm1.3 1.99a.748.748 0 1 1 .747.748.747.747 0 0 1-.748-.748z"></path>
  </symbol>
  <symbol xmlns="http://www.w3.org/2000/svg" viewBox="0 0 14.2 14.2" id="ticket-list-duedate">
    <g fill="none" stroke="#5b607e" stroke-width="1.2">
      <path d="M7.1 13.6A6.5 6.5 0 1 0 .6 7.1a6.5 6.5 0 0 0 6.5 6.5z"></path>
      <path stroke-linecap="round" stroke-linejoin="round" d="M6.657 2.663v4.366L4.569 8.891"></path>
    </g>

  </symbol>
  <symbol xmlns="http://www.w3.org/2000/svg" viewBox="0 0 14 10" id="ticket-recurring">
    <path fill="#5b607e" d="M6.189 3.765l1.392-1.339a.611.611 0 0 0 0-.9L6.189.187a.671.671 0 0 0-.933 0 .611.611 0 0 0 0 .9l.278.268h-1.44a3.941 3.941 0 1 0 0 7.876.631.631 0 1 0 0-1.26 2.68 2.68 0 1 1 0-5.356h1.441l-.278.268a.611.611 0 0 0 0 .9.659.659 0 0 0 .458.189.716.716 0 0 0 .474-.207zM9.773.769a.633.633 0 1 0 0 1.262 2.689 2.689 0 1 1 0 5.365H8.538l.287-.268a.6.6 0 0 0 0-.9.708.708 0 0 0-.964 0L6.422 7.569a.6.6 0 0 0 0 .9L7.859 9.81a.687.687 0 0 0 .947 0 .6.6 0 0 0 0-.9l-.271-.252h1.234a3.954 3.954 0 1 0 0-7.889z"></path>
  </symbol>
</svg>
