  <svg xmlns="http://www.w3.org/2000/svg" width="24" height="24" viewBox="0 0 24 24">
    <g transform="translate(2,3)" opacity="0.7" fill="#fff">
      <path stroke="#fff" stroke-linecap="round" stroke-linejoin="round" stroke-width=".3" d="M17.025.15H2.84A2.693 2.693 0 0 0 .149 2.84v8.681a2.693 2.693 0 0 0 2.68 2.69v3.939l5.661-3.939h8.533a2.693 2.693 0 0 0 2.69-2.69V2.84a2.693 2.693 0 0 0-2.69-2.69zm1.543 11.371a1.545 1.545 0 0 1-1.543 1.543H8.132l-4.156 2.892v-2.892H2.84a1.545 1.545 0 0 1-1.543-1.543V2.84A1.545 1.545 0 0 1 2.84 1.296h14.185a1.545 1.545 0 0 1 1.543 1.543zm0 0"></path>
      <path d="M5.529 5.65a1.426 1.426 0 0 1 1.387 1.387 1.411 1.411 0 0 1-1.387 1.384 1.4 1.4 0 0 1-1.384-1.384A1.408 1.408 0 0 1 5.529 5.65zm4.616 0a1.421 1.421 0 0 1 1.384 1.387 1.408 1.408 0 0 1-1.384 1.384 1.4 1.4 0 0 1-1.384-1.384 1.408 1.408 0 0 1 1.383-1.387zm4.616 0a1.421 1.421 0 0 1 1.384 1.387 1.408 1.408 0 0 1-1.384 1.384 1.4 1.4 0 0 1-1.384-1.384 1.408 1.408 0 0 1 1.385-1.387z"></path>
    </g>
</svg>