<svg xmlns="http://www.w3.org/2000/svg" width="24" height="24" viewBox="0 0 24 24">
    <g fill="#fff">
        <g opacity="0.7">
            <path d="M13.264 32.6c-4.751 0-8.489-5.48-8.638-5.7a.535.535 0 0 1 0-.591c.157-.234 3.893-5.7 8.638-5.7s8.489 5.48 8.638 5.7a.535.535 0 0 1 0 .591c-.15.22-3.887 5.7-8.638 5.7zm-7.65-6.01c.831 1.115 3.989 4.991 7.65 4.991s6.818-3.871 7.65-4.991c-.831-1.115-3.989-4.991-7.65-4.991s-6.818 3.877-7.65 4.991z" transform="translate(2690 6726) translate(-2686.999 -6720) translate(-4.537 -20.6)"/>
            <path stroke="#fff" stroke-width="0.3px" d="M17.906 31.6a3 3 0 1 1 3-3 3 3 0 0 1-3 3zm0-5.062a2.063 2.063 0 1 0 2.063 2.062 2.062 2.062 0 0 0-2.063-2.058z" transform="translate(2690 6726) translate(-2686.999 -6720) translate(-9.28 -22.67)"/>
        </g>
    </g>
</svg>
