 <svg xmlns="http://www.w3.org/2000/svg" width="24" height="24" viewBox="-467 269 24 24">
     <g fill="#fff" opacity="0.7">
    <path fill="#fff" fill-opacity="0" d="M-467 269h24v24h-24z"></path>
    <path d="M-452.4 281.4l-2.5 2.5c1.3-.2 2.3-1.2 2.5-2.5zm-6-.5v.4l1-1c.2-.6.7-1.1 1.3-1.3l1-1h-.4c-1.5-.1-2.9 1.3-2.9 2.9z"></path>
    <path d="M-462.9 281c.8-1.1 4-5 7.6-5 .7 0 1.3.1 1.9.3l.8-.8c-.8-.3-1.7-.6-2.7-.6-4.7 0-8.5 5.5-8.6 5.7-.1.2-.1.4 0 .6.1.1 1.1 1.6 2.6 3l.7-.7c-1.1-1-1.9-2-2.3-2.5zm16.3-.3c-.1-.1-1-1.4-2.4-2.7l-.7.7c1 .9 1.7 1.9 2.1 2.3-.8 1.1-4 5-7.7 5-.5 0-1-.1-1.5-.2l-.8.8c.7.3 1.5.4 2.3.4 4.8 0 8.5-5.5 8.6-5.7.2-.2.2-.4.1-.6zm-10.1 2.9l.7-.7 2.6-2.6.7-.7 1.9-1.9.7-.7.7-.7c.2-.2.2-.6 0-.9-.2-.2-.6-.2-.9 0l-10.8 10.8c-.2.2-.2.6 0 .9.2.2.6.2.9 0l1.2-1.2.7-.7 1.6-1.6z"></path>
    </g>
</svg>