<svg xmlns="http://www.w3.org/2000/svg" width="24" height="24" viewBox="0 0 24 24">
    <g>
        <g fill="#21242a" stroke="rgba(255,255,255,0.3)" transform="translate(2690 6726) translate(-2690 -6726)">
            <rect width="24" height="24" stroke="none" rx="6"/>
            <rect width="23" height="23" x=".5" y=".5" fill="none" rx="5.5"/>
        </g>
        <path fill="#fff" stroke="#fff" stroke-width="0.3px" d="M13.562 14H3.873a.746.746 0 0 1-.761-.743v-1.113c.017-.338.525-.6.713-.689.066-.034.109-.052.109-.052l.05-.027 2.732-1.48a4.322 4.322 0 0 1-1.343-3.278V4.78c0-1.225 1.656-2.58 3.336-2.58h.082c1.679 0 3.336 1.354 3.336 2.579v1.839a4.325 4.325 0 0 1-1.342 3.277l2.655 1.439.127.067s.052.022.127.061c.2.1.676.35.695.681v1.114a.745.745 0 0 1-.761.743zM6.308 4.784v1.837A3.621 3.621 0 0 0 7.381 9.2a.875.875 0 0 1 .337.765.841.841 0 0 1-.471.7L4.36 12.191c-.023 0-.045.02-.067.02a1.26 1.26 0 0 0-.224.132v.781h9.362v-.787a1.183 1.183 0 0 0-.223-.132c-.023 0-.045-.02-.067-.02l-2.887-1.529a.842.842 0 0 1-.471-.7.875.875 0 0 1 .337-.765 3.622 3.622 0 0 0 1.074-2.577V4.777c0-.627-1.183-1.682-2.443-1.7-1.26.023-2.443 1.079-2.443 1.707zm8.953 7.029a1.459 1.459 0 0 0-.471-.875h1.81v-.788a.618.618 0 0 0-.2-.108c-.023-.022-.067-.022-.087-.044l-2.866-1.525a.906.906 0 0 1-.469-.7.832.832 0 0 1 .335-.765 3.606 3.606 0 0 0 1.031-2.578V2.6c0-.656-1.186-1.724-2.486-1.724a2.907 2.907 0 0 0-1.724.568 4.8 4.8 0 0 0-1.122-.13A3.991 3.991 0 0 1 11.858 0c1.68 0 3.38 1.375 3.38 2.6v1.836a4.347 4.347 0 0 1-1.365 3.277l2.865 1.529s.762.305.762.743v1.092a.748.748 0 0 1-.762.745zm-14.5 0A.748.748 0 0 1 0 11.072V9.981c0-.437.761-.743.761-.743L3.627 7.71a4.347 4.347 0 0 1-1.365-3.277V2.6c0-1.224 1.7-2.6 3.378-2.6a3.994 3.994 0 0 1 2.847 1.312 4.826 4.826 0 0 0-1.12.13A2.9 2.9 0 0 0 5.64.875c-1.3 0-2.483 1.067-2.483 1.724v1.837a3.6 3.6 0 0 0 1.03 2.575.832.832 0 0 1 .335.765.9.9 0 0 1-.469.7L1.186 10c-.023.022-.066.022-.087.044a.594.594 0 0 0-.2.108v.787h1.813a1.461 1.461 0 0 0-.469.875z" opacity="0.7" transform="translate(2690 6726) translate(-2686.5 -6721)"/>
    </g>
</svg>
