<svg xmlns="http://www.w3.org/2000/svg" width="24" height="24" viewBox="0 0 24 24">
    <g opacity="0.7" transform="translate(1,2)">
    <path fill="#fff" stroke="#fff" stroke-linecap="round" stroke-width=".3" d="M15.656.15a.889.889 0 0 0-.65.275l-1.242 1.281-.754-.793a.924.924 0 0 0-.667-.275.889.889 0 0 0-.65.275L.478 12.491a.988.988 0 0 0 0 1.357l2 2.043a.462.462 0 0 0 .576.077.865.865 0 0 1 1.094.137.936.936 0 0 1 .133 1.128.5.5 0 0 0 .073.595l1.981 2.056a.916.916 0 0 0 1.315 0l1.223-1.281.768.793a.916.916 0 0 0 1.315 0l11.22-11.575a.988.988 0 0 0 0-1.357L20.179 4.42a.462.462 0 0 0-.576-.077.865.865 0 0 1-1.094-.137.935.935 0 0 1-.133-1.128.5.5 0 0 0-.073-.595L16.316.425a.924.924 0 0 0-.66-.275zm0 .976h.014l1.8 1.876a1.863 1.863 0 0 0 .369 1.89 1.724 1.724 0 0 0 1.832.381l1.818 1.86v.017L10.306 18.694h-.014l-.739-.778 7.921-8.174.148.152a.465.465 0 0 0 .667.008.5.5 0 0 0 .008-.694l-.148-.152.709-.747a.988.988 0 0 0 0-1.357l-1.99-2.043a.462.462 0 0 0-.576-.077.865.865 0 0 1-1.094-.137.936.936 0 0 1-.133-1.128.5.5 0 0 0-.073-.595l-.544-.58zm-3.311.488h.014l.931.961a.484.484 0 0 0 .325.334l.548.577a1.864 1.864 0 0 0 .369 1.89 1.724 1.724 0 0 0 1.832.381l1.818 1.876-.961 1.006-.03.03-.044.03a.486.486 0 0 0-.059.077l-8.393 8.636a.485.485 0 0 0-.31.334l-1.386 1.436-1.821-1.876a1.864 1.864 0 0 0-.369-1.89 1.724 1.724 0 0 0-1.832-.381l-1.82-1.862v-.016l8.809-9.088.4.152.355-.259.014-.445-.1-.137zm-1.112 2.668l-.34.243-.014.445.089.137.34.35.4.137.34-.243.014-.445-.089-.137-.34-.351zm1.346 1.388l-.355.243-.014.445.1.137.325.334.4.152.355-.259.014-.445-.1-.137-.325-.334zm1.337 1.373l-.34.243-.014.445.089.137.34.351.4.137.34-.243.014-.445-.089-.137-.34-.35zm1.345 1.387l-.355.243-.014.445.1.137.325.35.4.137.355-.259.014-.427-.089-.152-.34-.334z"></path>
    </g>
</svg>
