<svg xmlns="http://www.w3.org/2000/svg" width="24" height="24" viewBox="0 0 24 24">
    <g>
        <g fill="#21242a" stroke="rgba(255,255,255,0.3)" transform="translate(2690 6726) translate(-2690 -6726)">
            <rect width="24" height="24" stroke="none" rx="6"/>
            <rect width="23" height="23" x=".5" y=".5" fill="none" rx="5.5"/>
        </g>
        <g opacity="0.7">
            <path fill="#fff" d="M23.694 23.823l-2.756-1.529a4.375 4.375 0 0 0 1.312-3.276v-1.835c0-1.223-1.618-2.577-3.259-2.577s-3.3 1.354-3.3 2.577v1.835a4.546 4.546 0 0 0 1.378 3.252l-2.825 1.53s-.743.328-.743.743v1.114a.737.737 0 0 0 .743.745h9.472a.737.737 0 0 0 .744-.743v-1.115c-.022-.416-.766-.721-.766-.721zm-.132 1.7h-9.187v-.783a1.159 1.159 0 0 1 .219-.131c.022 0 .044-.022.066-.022l2.822-1.529a.84.84 0 0 0 .459-.7.888.888 0 0 0-.328-.764 3.666 3.666 0 0 1-1.05-2.577v-1.834c0-.63 1.182-1.7 2.428-1.7 1.269 0 2.384 1.07 2.384 1.7v1.835a3.6 3.6 0 0 1-.962 2.577.84.84 0 0 0-.328.764.905.905 0 0 0 .459.7l2.756 1.528c.022.022.066.022.087.043a.574.574 0 0 1 .2.109v.786zm3.194-3.886l-2.8-1.529a4.4 4.4 0 0 0 1.334-3.276V15c0-1.223-1.662-2.6-3.3-2.6a3.863 3.863 0 0 0-2.778 1.31 4.544 4.544 0 0 1 1.094.131 2.792 2.792 0 0 1 1.684-.568c1.269 0 2.428 1.07 2.428 1.725v1.835a3.648 3.648 0 0 1-1.007 2.577.84.84 0 0 0-.328.764.905.905 0 0 0 .459.7l2.8 1.529c.022.022.066.022.087.043a.574.574 0 0 1 .2.109v.786h-1.77a1.465 1.465 0 0 1 .459.874h1.443a.737.737 0 0 0 .744-.743v-1.091c-.005-.437-.749-.741-.749-.741z" transform="translate(2690 6726) translate(-2685 -6721) translate(-13.5 -12.4)"/>
        </g>
    </g>
</svg>
