<svg xmlns="http://www.w3.org/2000/svg" width="50" height="50" viewBox="0 0 50 50">
    <g id="prefix__android-mobile" transform="translate(-241 -155)">
        <rect id="prefix__Rectangle_798" width="50" height="50" data-name="Rectangle 798" rx="4" transform="translate(241 155)" style="fill:#fff"/>
        <g id="prefix__Group_1162" data-name="Group 1162" transform="translate(1.845 3.208)">
            <path id="prefix__Path_1873" d="M117.38 29.944a1.8 1.8 0 1 0 1.771 1.8 1.785 1.785 0 0 0-1.771-1.8zm0 2.4a.6.6 0 1 1 .591-.6.6.6 0 0 1-.591.598zm-.591-29.359h1.182a.6.6 0 0 0 0-1.2h-1.182a.6.6 0 0 0 0 1.2zm9.449-3H107.93a1.19 1.19 0 0 0-1.181 1.2v33.554a1.19 1.19 0 0 0 1.181 1.2h18.309a1.19 1.19 0 0 0 1.181-1.2V1.185a1.189 1.189 0 0 0-1.182-1.198zm0 34.153a.6.6 0 0 1-.591.6h-17.126a.6.6 0 0 1-.591-.6V1.784a.6.6 0 0 1 .591-.6h17.127a.6.6 0 0 1 .591.6V34.14z" data-name="Path 1873" transform="translate(147.251 159.013)" style="fill-rule:evenodd;fill:#5c617e"/>
            <path id="prefix__Path_1874" d="M124.3 4.223h-13.586a1.19 1.19 0 0 0-1.181 1.2v22.766a1.189 1.189 0 0 0 1.181 1.2H124.3a1.189 1.189 0 0 0 1.181-1.2V5.422a1.19 1.19 0 0 0-1.181-1.199z" data-name="Path 1874" transform="translate(146.829 158.372)" style="fill:#edeef5;fill-rule:evenodd"/>
            <g id="prefix__android-icon" transform="translate(167.105 157.464)">
                <path id="prefix__Path_1913" d="M93.735 20.975a.577.577 0 0 0 .61.61h.61v2.133a.914.914 0 1 0 1.827 0v-2.133H98v2.133a.914.914 0 1 0 1.827 0v-2.133h.61a.577.577 0 0 0 .61-.61v-6.091h-7.312v6.092zm-1.522-6.092a.937.937 0 0 0-.914.914v4.264a.914.914 0 0 0 1.827 0V15.8a.937.937 0 0 0-.914-.914zm10.356 0a.937.937 0 0 0-.914.914v4.264a.914.914 0 0 0 1.827 0V15.8a.936.936 0 0 0-.914-.914zm-3.044-3.533l.791-.791a.3.3 0 1 0-.426-.426l-.914.914a2.678 2.678 0 0 0-1.584-.426 3.638 3.638 0 0 0-1.645.365l-.853-.914a.671.671 0 0 0-.487 0 .671.671 0 0 0 0 .487l.791.791a3.725 3.725 0 0 0-1.462 2.924h7.311a3.518 3.518 0 0 0-1.522-2.924zm-3.352 1.707h-.61v-.61h.61v.61zm3.047 0h-.61v-.61h.61v.61z" data-name="Path 1913" style="fill:#868ba1"/>
            </g>
        </g>
    </g>
</svg>
