<svg xmlns="http://www.w3.org/2000/svg" width="50" height="50" viewBox="0 0 50 50">
    <g id="prefix__ios-mobile" transform="translate(-241 -155)">
        <rect id="prefix__Rectangle_798" width="50" height="50" data-name="Rectangle 798" rx="4" transform="translate(241 155)" style="fill:#fff"/>
        <g id="prefix__Group_1162" data-name="Group 1162" transform="translate(1.845 3.208)">
            <path id="prefix__Path_1873" d="M117.38 29.944a1.8 1.8 0 1 0 1.771 1.8 1.785 1.785 0 0 0-1.771-1.8zm0 2.4a.6.6 0 1 1 .591-.6.6.6 0 0 1-.591.598zm-.591-29.359h1.182a.6.6 0 0 0 0-1.2h-1.182a.6.6 0 0 0 0 1.2zm9.449-3H107.93a1.19 1.19 0 0 0-1.181 1.2v33.554a1.19 1.19 0 0 0 1.181 1.2h18.309a1.19 1.19 0 0 0 1.181-1.2V1.185a1.189 1.189 0 0 0-1.182-1.198zm0 34.153a.6.6 0 0 1-.591.6h-17.126a.6.6 0 0 1-.591-.6V1.784a.6.6 0 0 1 .591-.6h17.127a.6.6 0 0 1 .591.6V34.14z" data-name="Path 1873" transform="translate(147.251 159.013)" style="fill-rule:evenodd;fill:#5c617e"/>
            <path id="prefix__Path_1874" d="M124.3 4.223h-13.586a1.19 1.19 0 0 0-1.181 1.2v22.766a1.189 1.189 0 0 0 1.181 1.2H124.3a1.189 1.189 0 0 0 1.181-1.2V5.422a1.19 1.19 0 0 0-1.181-1.199z" data-name="Path 1874" transform="translate(146.829 158.372)" style="fill:#edeef5;fill-rule:evenodd"/>
            <path id="prefix__Path_1875" d="M24.8 12.667a2.681 2.681 0 0 0 .316 4.828c-.046.191-1.286 3.271-2.782 3.271-.8 0-1.094-.5-2.023-.5-1 0-1.28.5-2.043.5-1.249 0-3.269-2.651-3.269-5.557 0-2.223 1.344-3.764 3.1-3.764.813 0 1.534.553 2.03.553a15.983 15.983 0 0 1 2.367-.553 2.771 2.771 0 0 1 2.304 1.222zm-4.815-1.73a2.416 2.416 0 0 1 .626-1.889 2.649 2.649 0 0 1 1.872-.928 2.631 2.631 0 0 1-.695 1.93 2.1 2.1 0 0 1-1.803.887z" data-name="Path 1875" transform="translate(244.124 159.831)" style="opacity:.7;fill:#5c617e"/>
        </g>
    </g>
</svg>
