<svg xmlns="http://www.w3.org/2000/svg" width="50" height="50" viewBox="0 0 50 50">
    <g id="prefix__linux" transform="translate(-241 -155)">
        <rect id="prefix__Rectangle_798" width="50" height="50" data-name="Rectangle 798" rx="4" transform="translate(241 155)" style="fill:#fff"/>
        <g id="prefix__windows-monitor" transform="translate(241.999 157.062)">
            <path id="prefix__Path_1876" d="M198.346 325.463l-.432-5.763H189.6l-.421 5.763H188v1.018h11.559v-1.018z" data-name="Path 1876" transform="translate(-169.698 -288.33)" style="stroke-linecap:round;stroke-linejoin:round;stroke:#5c617e;stroke-width:1.5px;fill:#fff"/>
            <path id="prefix__Path_1877" d="M114.76 154.582H82.89a1.79 1.79 0 0 1-1.79-1.79v-20.7a1.79 1.79 0 0 1 1.79-1.79h31.87a1.79 1.79 0 0 1 1.79 1.79V152.8a1.79 1.79 0 0 1-1.79 1.782z" data-name="Path 1877" transform="translate(-74.314 -120.124)" style="stroke-miterlimit:10;stroke:#5c617e;stroke-width:1.5px;fill:#fff"/>
            <g id="prefix__linux-icon-2" transform="translate(-69.211 3.939)">
                <g id="prefix__Group_1186" data-name="Group 1186" transform="translate(86.212 9.999)">
                    <path id="prefix__Path_1912" d="M92.105-239.923a1.918 1.918 0 0 0-1.115.767c-.393.606-.406.722-.251 3.783l.039.806-.554.773a6.486 6.486 0 0 0-1.25 2.127 7.449 7.449 0 0 1-.728 1.65 1.184 1.184 0 0 0-.129 1.051c.064.071.058.116-.019.213-.052.064-.187.238-.29.387a1.352 1.352 0 0 1-.96.6c-.561.135-.69.3-.6.722a3.663 3.663 0 0 1 .007.986 4.359 4.359 0 0 0-.032.806c.052.155.187.2 1.56.548a14.274 14.274 0 0 1 1.579.477c.728.329 1.154.3 1.585-.084a2.5 2.5 0 0 1 .548-.354c.29-.142.38-.148 1.772-.148.806.006 1.527.032 1.611.058a.678.678 0 0 1 .258.277c.187.367.4.477.909.464a1.7 1.7 0 0 0 1.328-.606 6 6 0 0 1 1.482-1.005c.561-.277.87-.541.87-.735 0-.129-.1-.232-.612-.657-.5-.412-.677-.709-.677-1.115 0-.3-.019-.354-.161-.419s-.155-.077-.052-.2c.1-.1.116-.239.11-.812a3.407 3.407 0 0 0-.277-1.489 6.726 6.726 0 0 0-1.16-2.217 10.458 10.458 0 0 1-1.257-2.133 12.177 12.177 0 0 1-.193-1.508 3.53 3.53 0 0 0-.361-1.721 2.132 2.132 0 0 0-1.2-1.167 3.094 3.094 0 0 0-1.78-.125zm1.94 2.34a1.18 1.18 0 0 1 .122 1.418c-.155.168-.226.18-.477.077l-.18-.064.206-.161a.447.447 0 0 0 .052-.715c-.155-.174-.168-.174-.335-.084a.548.548 0 0 0-.226.638c.09.168.019.213-.187.1s-.258-.213-.258-.593a.792.792 0 0 1 .819-.857.465.465 0 0 1 .464.241zm-2.224.006c.3.264.406.98.174 1.109-.18.09-.18.1-.219-.239a.59.59 0 0 0-.148-.387c-.148-.11-.187-.1-.316.026a.6.6 0 0 0 .135.767c.168.142.168.142.039.213-.206.11-.251.09-.393-.206-.226-.471-.142-1.212.168-1.392a.54.54 0 0 1 .561.109zm2.481 2.565a9.177 9.177 0 0 0 .361.864 10.855 10.855 0 0 1 .419 1.025 5.773 5.773 0 0 0 .393.9 7.43 7.43 0 0 1 .412 1.006 7.28 7.28 0 0 1 .1 2.2c-.071.264-.09.277-.316.277a.559.559 0 0 0-.322.077 2.34 2.34 0 0 0-.077.883v.806l-.335.322a4.532 4.532 0 0 1-1.405.909 3.449 3.449 0 0 1-2.185.006 2.442 2.442 0 0 1-.651-.683c0-.026.116-.077.258-.122.477-.142.516-.632.071-.954a10.505 10.505 0 0 1-1.665-1.404 3.013 3.013 0 0 1 .013-1.386 8.137 8.137 0 0 1 .445-1.192 8.468 8.468 0 0 0 .432-1.063 3.987 3.987 0 0 1 .632-1.308c.155-.161.174-.245.2-.7a1.8 1.8 0 0 1 .052-.509 3.7 3.7 0 0 1 .393.322 1.122 1.122 0 0 0 1.154.393 1.953 1.953 0 0 0 .535-.251 3.659 3.659 0 0 1 1-.567c.036.014.074.079.084.149z" data-name="Path 1912" transform="translate(-86.212 240.001)" style="fill:#7d8198"/>
                </g>
            </g>
        </g>
    </g>
</svg>
