<svg xmlns="http://www.w3.org/2000/svg" width="22.378" height="18" viewBox="0 0 22.378 18">
    <path id="prefix__logout" d="M14.595 21.576v4.451a.935.935 0 0 1-.925.973H.973A.976.976 0 0 1 0 26.027V9.973A.976.976 0 0 1 .973 9h12.7a.935.935 0 0 1 .924.973v4.451a.973.973 0 1 1-1.946 0v-3.478H1.946v14.108h10.7v-3.478a.973.973 0 0 1 1.946 0zm7.492-4.305l-3.795-3.843a.98.98 0 1 0-1.386 1.386L19.07 17l-11.8.024a.973.973 0 1 0 0 1.946l11.8-.024-2.165 2.189a.991.991 0 0 0 0 1.386.96.96 0 0 0 .681.292.92.92 0 0 0 .681-.292l3.819-3.843a1 1 0 0 0 0-1.408z" transform="translate(0 -9)" style="fill:#171e48"/>
</svg>
