<svg xmlns="http://www.w3.org/2000/svg" width="227.622" height="263.81" viewBox="0 0 227.622 263.81">
    <defs>
        <style>
            .prefix__cls-2{fill:#2585d3}.prefix__cls-3{fill:#fff}.prefix__cls-5{fill:#e0e0e0}.prefix__cls-6{fill:#d7d7d7}.prefix__cls-7{fill:#dde4fd}.prefix__cls-8,.prefix__cls-9{fill:#646784}.prefix__cls-9{opacity:.78}.prefix__cls-10{fill:#4667df}
        </style>
    </defs>
    <g id="prefix__Group_1210" data-name="Group 1210" transform="translate(-596 -323)">
        <path id="prefix__Path_2050" d="M113.811 136.773c62.856 0 113.811-52.146 113.811-116.472S176.1-74.6 113.811-96.17 0-44.024 0 20.3s50.955 116.473 113.811 116.473z" data-name="Path 2050" transform="translate(596 423)" style="fill:#e9edfc"/>
        <path id="prefix__Rectangle_901" d="M15 0h109a15 15 0 0 1 15 15v201H0V15A15 15 0 0 1 15 0z" class="prefix__cls-2" data-name="Rectangle 901" transform="translate(631 345)"/>
        <path id="prefix__Rectangle_902" d="M0 0H112V204H0z" class="prefix__cls-3" data-name="Rectangle 902" transform="translate(645 357)"/>
        <path id="prefix__Path_1918" d="M3795-4919v-208.619l52.217-19.236v247.665z" data-name="Path 1918" transform="translate(-3038 5486)" style="fill:#cbd6fd"/>
        <g id="prefix__Group_1209" data-name="Group 1209" transform="translate(666.008 369.947)">
            <path id="prefix__Path_5" d="M378.434 225.025c.052 1.078.621 12.054 1.751 11.806a4.235 4.235 0 0 0 1.411-1.15c.575-.608 1.235-1.392 1.869-2.176 1.3-1.607 2.476-3.221 2.581-3.358v-.007c-3.946-2.227-7.39-4.481-7.612-5.115z" class="prefix__cls-2" data-name="Path 5" transform="translate(-351.84 -138.52)"/>
            <path id="prefix__Path_6" d="M349.534 246.44c-3.411 2.953-4.56 3.789-5.815 2.907a5.2 5.2 0 0 1-1.026-1.5c.085 1.072 1.091 7.024 2.208 13.786 1.5 8.99 3.188 19.424 3.188 21.8 0 4.168.823 35.595.823 35.595a11.111 11.111 0 0 0 7.063.673s3.1-21.352.568-28.042-2.052-14.393-1.169-23.73-1.6-24.841-1.6-24.841c-1.541 1.15-3.074 2.339-4.24 3.352z" class="prefix__cls-5" data-name="Path 6" transform="translate(-299.982 -144.784)"/>
            <path id="prefix__Path_7" d="M364.282 294.39c-.1 7.226-2.248 19.947-2.248 19.947a12.618 12.618 0 0 0 3.476-1.065c1.143-.542 1.842-1.1 1.81-1.261-.059-.294-.118-12.982 0-17.974s1-13.328 0-17.379 1.98-13.936 1.98-13.936c-1.117-6.762-2.123-12.714-2.208-13.786v-.007l-3.718-2.7c.418 3.41 1.875 16.85-.1 22.443-2.266 6.428 1.112 18.499 1.008 25.718z" class="prefix__cls-6" data-name="Path 7" transform="translate(-324.379 -145.869)"/>
            <path id="prefix__Path_8" d="M424.707 170.336c-.588 1.764-.353 6.285 1 7.4a3.739 3.739 0 0 0 2.868.477l-1.143-8.624a7.228 7.228 0 0 0-2.725.747z" class="prefix__cls-7" data-name="Path 8" transform="translate(-424.404 -119.302)"/>
            <path id="prefix__Path_9" d="M400.484 141.685l2.411 18.229a1.794 1.794 0 0 1 1.856 1.1c.915 2.261.385 3.2 1.058 5.4.359 1.176-.595 1.882-1.771 2.117l.124.934 15.5 8.579-.536-4.123-.686-5.305-.908-6.965-1.332-10.264z" class="prefix__cls-6" data-name="Path 9" transform="translate(-399.868 -109.631)"/>
            <path id="prefix__Path_10" d="M421.577 169.585l1.143 8.624c1.176-.235 2.13-.941 1.771-2.117-.673-2.2-.144-3.143-1.058-5.4a1.794 1.794 0 0 0-1.856-1.107z" class="prefix__cls-7" data-name="Path 10" transform="translate(-418.549 -119.302)"/>
            <path id="prefix__Path_11" d="M369.608 356.23c-1.7.536-2.006 1.313-1.947 2.163.47.941 4.475 2.221 6.762 1.81s18.915-8.454 18.915-8.454a33.169 33.169 0 0 0-.111-3.319 12.617 12.617 0 0 1-3.476 1.065 8.97 8.97 0 0 1-6.03-1.849c-1.242 2.09-11.356 7.715-14.113 8.584z" class="prefix__cls-8" data-name="Path 11" transform="translate(-352.096 -181.026)"/>
            <path id="prefix__Path_12" d="M367.664 360.57c.039.529.222 1.091.3 1.633.209 1.411 2.881 2.94 5.109 2.587s18.588-6.488 19.62-7.638a6.143 6.143 0 0 0 .647-3.228s-16.621 8.043-18.915 8.454-6.291-.868-6.761-1.808z" class="prefix__cls-9" data-name="Path 12" transform="translate(-352.099 -183.203)"/>
            <path id="prefix__Path_13" d="M394.882 175.927a4.523 4.523 0 0 1-1.614-1.379c-.575-.849-2.254-1.411-3.861-1.764a28.988 28.988 0 0 0-3.443-.529l.908 6.965a17.42 17.42 0 0 0 4.9 1.379 5.259 5.259 0 0 1 2.888.8 10.06 10.06 0 0 0 2.921-4.5 10.012 10.012 0 0 1-2.699-.972z" class="prefix__cls-7" data-name="Path 13" transform="translate(-368.295 -120.227)"/>
            <path id="prefix__Path_14" d="M390.034 182.915l.686 5.305h.007c5.246 2.136 7.318 1.359 7.318 1.359h.039c-.026-1.947-.039-3.247-.039-3.352v-.007a6.407 6.407 0 0 0-1.013-.412s.327-.261.791-.712a5.26 5.26 0 0 0-2.888-.8 17.42 17.42 0 0 1-4.901-1.381z" class="prefix__cls-3" data-name="Path 14" transform="translate(-371.457 -123.923)"/>
            <path id="prefix__Path_15" d="M378.247 158.762l-.013.052c1.607.353 3.286.915 3.861 1.764a4.524 4.524 0 0 0 1.614 1.379c-.026-18.189 7.749-24.984 7.749-24.984-.686-.2-1.15-.934-1.516-1.908a26.1 26.1 0 0 1-.836-3.11 7.059 7.059 0 0 0-5.4 4.253c-1.846 3.966-5.459 22.554-5.459 22.554z" class="prefix__cls-3" data-name="Path 15" transform="translate(-357.122 -106.258)"/>
            <path id="prefix__Path_16" d="M360.724 97.173c-1.764 1.163.673 3.012 1.921 6.3a4.894 4.894 0 0 0 2.365 2.685 9.223 9.223 0 0 0 6.213.412c3.678-.849 4.58-1.065 4.58-1.065-.418 3.652 2.7 7.017 2.7 7.017a6.2 6.2 0 0 1 .131-1.274 5.392 5.392 0 0 1 2.163-3.5c-.706-2.907-6.723-6.775-10.356-8.977s-4.946-1.424-4.946-1.424c-1.681.748-3.007-1.337-4.771-.174z" class="prefix__cls-8" data-name="Path 16" transform="translate(-334.613 -94.076)"/>
            <path id="prefix__Path_17" d="M361.63 181.067c3.724-6.795 7.7-17.634 7.7-22.319 0-4.469-1.666-6.475-2.79-7.514-7.487 5.593-12.185 29.27-12.185 29.27a11.575 11.575 0 0 0-3.11-4.038v-.007a14.806 14.806 0 0 0-7.768-3.665c-5.044-.595-12.427-4.358-12.427-4.358a4.007 4.007 0 0 1-.072 1.183 10.06 10.06 0 0 1-2.92 4.5c-.464.451-.791.712-.791.712a6.4 6.4 0 0 1 1.013.412v.007c3.966 1.895 15.654 9.278 17.837 10.369 1.542.771 4.41 2.45 7.363 2.437a6.53 6.53 0 0 0 4.926-2.169 25.319 25.319 0 0 0 3.228-4.809z" class="prefix__cls-10" data-name="Path 17" transform="translate(-301.69 -112.941)"/>
            <path id="prefix__Path_18" d="M343.143 139.635s-7.775 6.795-7.749 24.984a10.012 10.012 0 0 0 2.7.98 4.008 4.008 0 0 0 .072-1.183s7.383 3.763 12.427 4.358a14.806 14.806 0 0 1 7.768 3.665c.078-.294 4.887-19.241 7.246-23.691 2.378-4.475 5.527-3.744 5.527-3.744-1.516-1.2-3.861-2.966-6.011-4.587l-.007.007s-7.024 12.3-20.881 18.281c-.001.001-4.182-10.518-1.092-19.07z" class="prefix__cls-2" data-name="Path 18" transform="translate(-308.807 -108.92)"/>
            <path id="prefix__Path_19" d="M371.226 219.315c1.268-1.522.47-5.286-.287-9.232-.889-4.626-.052-12.727 0-13.178a25.319 25.319 0 0 1-3.228 4.809 6.53 6.53 0 0 1-4.926 2.169c.412 2.208.712 8.454-9.193 8.258-10.865-.216-15.171-4.188-15.89-4.946.007 4.175-.02 7.618-.118 8a.712.712 0 0 0 .007.078v.007c.222.634 3.665 2.888 7.612 5.116v.007c1.542.869 3.162 1.738 4.691 2.5l.007.007c2.986 1.483 5.645 2.587 6.8 2.587 3.345 0 10.833-4.933 13.472-5.547a1.844 1.844 0 0 0 1.053-.635z" class="prefix__cls-2" data-name="Path 19" transform="translate(-310.997 -128.772)"/>
            <path id="prefix__Path_20" d="M351.289 187.985c0 .1.013 1.4.039 3.352.026 3.286.072 8.422.078 12.767.719.758 5.024 4.73 15.89 4.946 9.9.2 9.6-6.05 9.193-8.258-2.953.013-5.821-1.666-7.363-2.437-2.182-1.092-13.871-8.475-17.837-10.37z" class="prefix__cls-2" data-name="Path 20" transform="translate(-324.702 -125.68)"/>
            <path id="prefix__Path_21" d="M371.579 309.639a8.97 8.97 0 0 0 6.03 1.849s2.143-12.721 2.248-19.947-3.273-19.294-1.006-25.723c1.973-5.593.516-19.032.1-22.443l-7.37-5.371c-.634.784-1.294 1.568-1.869 2.176 0 0 1.307 30.747 1.869 34.562s-1.261 32.962-.934 33.9a2.814 2.814 0 0 0 .932.997z" class="prefix__cls-5" data-name="Path 21" transform="translate(-339.954 -143.019)"/>
            <path id="prefix__Path_22" d="M352.514 110.778c.007.595.1 8.742.947 11.2.242.706.438 1.548.64 2.411a26.094 26.094 0 0 0 .836 3.11c.366.974.83 1.705 1.516 1.908a12.322 12.322 0 0 0 1.437.333c1.673.281 3.593.327 4.417-.1 1.085-.568 6.442-3.228 6.625-5.253l.849 6.4s-.83 4.952-4.2 6.873a15.227 15.227 0 0 0 7.677-9.317L373 126.38l-.34-2.528-.621-4.645a3.491 3.491 0 0 1-3.5 1.96c-1.529-.314-2.535-2-2.535-4.025 0 0-3.116-3.365-2.7-7.017 0 0-.9.216-4.58 1.065a9.223 9.223 0 0 1-6.21-.412z" class="prefix__cls-7" data-name="Path 22" transform="translate(-322.118 -98.69)"/>
            <path id="prefix__Path_23" d="M361.294 94.771c-5.1-.941-4.4 1.81-4.4 1.81s1.307-.784 4.946 1.424 9.65 6.07 10.356 8.977a2.842 2.842 0 0 1 2.1-.47 5.174 5.174 0 0 0-1.287-3.959c-1.477-1.379-5.985-6.187-10.754-7.559-.32-.086-.641-.164-.961-.223z" class="prefix__cls-3" data-name="Path 23" transform="translate(-326.017 -93.3)"/>
            <path id="prefix__Path_24" d="M372.784 241.594l3.718 2.7c-1.529-2.862-3.724-8.7-3.809-8.925l-.007-.007c-1.529-.764-3.149-1.633-4.691-2.5-.1.137-1.281 1.751-2.581 3.358z" class="prefix__cls-6" data-name="Path 24" transform="translate(-333.789 -141.238)"/>
            <path id="prefix__Path_25" d="M345.732 139.233c-3.09 8.552 1.091 19.071 1.091 19.071 13.858-5.978 20.881-18.281 20.881-18.281l.007-.007c-.725-.536-1.424-1.058-2.071-1.542l-.007.007s-7.52 12.571-17.477 16.412a34.45 34.45 0 0 1-.921-13.609l.222-.039c-.1-.6-.209-1.169-.287-1.666v-.013a12.325 12.325 0 0 1-1.438-.333z" class="prefix__cls-10" data-name="Path 25" transform="translate(-311.396 -108.518)"/>
            <path id="prefix__Path_26" d="M348.052 140.064a34.451 34.451 0 0 0 .921 13.609c9.957-3.842 17.477-16.412 17.477-16.412l.007-.007c-1.784-1.326-3.1-2.3-3.1-2.3l-.261.033.261 1.96a15.227 15.227 0 0 1-7.677 9.317.352.352 0 0 1-.085.046 4.54 4.54 0 0 1-.595.287.05.05 0 0 1-.033.013 4.251 4.251 0 0 1-.575.2c-4.449 1.235-5.07-1.45-5.07-1.45s-.6-2.894-1.045-5.331z" class="prefix__cls-3" data-name="Path 26" transform="translate(-312.214 -107.298)"/>
            <path id="prefix__Path_27" d="M357.834 137.306v.013c.078.5.183 1.065.287 1.666.444 2.437 1.045 5.331 1.045 5.331s.621 2.685 5.07 1.45a4.254 4.254 0 0 0 .575-.2.05.05 0 0 0 .033-.013c.2-.091.405-.189.595-.287a.351.351 0 0 0 .085-.046c3.371-1.921 4.2-6.873 4.2-6.873l-.849-6.4c-.183 2.025-5.54 4.685-6.625 5.253-.823.433-2.743.387-4.416.106z" data-name="Path 27" transform="translate(-322.061 -106.258)" style="fill:#d1d8f0"/>
            <path id="prefix__Path_28" d="M348.258 94.186l-.039.131c4.77 1.372 9.278 6.181 10.754 7.559a5.174 5.174 0 0 1 1.287 3.959c1.842.372 2.921 2.744 2.411 5.305 0 0 .405-.8 2.319-3.992s.438-5.175-.385-7.742a4.549 4.549 0 0 0-3.541-2.934 5.079 5.079 0 0 0-4.07-3.672c-3.542-.8-8.736 1.386-8.736 1.386z" class="prefix__cls-8" data-name="Path 28" transform="translate(-311.982 -92.624)"/>
            <path id="prefix__Path_29" d="M338.068 234.8c.085.229 2.28 6.063 3.809 8.925v.007a5.2 5.2 0 0 0 1.026 1.5c1.254.882 2.4.046 5.815-2.907 1.17-1.013 2.7-2.2 4.24-3.345 2.947-2.182 5.919-4.2 6.436-4.5.771-.431.033-3.162 0-3.273a1.844 1.844 0 0 1-1.052.634c-2.64.614-10.127 5.547-13.472 5.547-1.157-.002-3.816-1.106-6.802-2.588z" class="prefix__cls-2" data-name="Path 29" transform="translate(-299.165 -140.662)"/>
            <path id="prefix__Path_30" d="M353.141 116.787a6.207 6.207 0 0 0-.131 1.274c0 2.025 1.006 3.711 2.535 4.025a3.491 3.491 0 0 0 3.5-1.96 6.016 6.016 0 0 0 .771-2c.51-2.561-.568-4.933-2.411-5.305a2.842 2.842 0 0 0-2.1.47 5.392 5.392 0 0 0-2.164 3.496zm2.947 3.117a2.129 2.129 0 0 1-1.248-2.666c.255-1.287 1.235-2.176 2.182-1.986a2.124 2.124 0 0 1 1.254 2.666c-.254 1.282-1.234 2.175-2.188 1.982z" class="prefix__cls-2" data-name="Path 30" transform="translate(-309.123 -99.609)"/>
            <path id="prefix__Path_31" d="M355.52 118.538a2.129 2.129 0 0 0 1.248 2.666c.954.189 1.934-.7 2.189-1.986a2.124 2.124 0 0 0-1.254-2.666c-.949-.19-1.929.699-2.183 1.986z" class="prefix__cls-3" data-name="Path 31" transform="translate(-309.802 -100.909)"/>
            <path id="prefix__Path_32" d="M341.3 374.163a2.055 2.055 0 0 0 1.241 1.927c5 2.1 9.01.052 9.872-1.862a5.857 5.857 0 0 0 .3-2.143s-1.692 2.79-6.011 2.7-5.227-2.7-5.227-2.7h-.007a19.784 19.784 0 0 0-.168 2.078z" class="prefix__cls-9" data-name="Path 32" transform="translate(-294.254 -189.498)"/>
            <path id="prefix__Path_33" d="M341.3 367.662h.007s.915 2.613 5.227 2.7 6.011-2.7 6.011-2.7a54.848 54.848 0 0 0-.908-8.062 14.792 14.792 0 0 1-1.562.4 11.111 11.111 0 0 1-7.063-.673 79.066 79.066 0 0 0-1.712 8.335z" class="prefix__cls-8" data-name="Path 33" transform="translate(-294.084 -185.075)"/>
            <path id="prefix__Path_34" d="M331.534 175.266v.007a11.575 11.575 0 0 1 3.11 4.038s4.7-23.678 12.185-29.27c-.412-.392-.751-.653-.908-.856a16.511 16.511 0 0 0-1.614-1.352s-3.149-.732-5.527 3.744c-2.359 4.447-7.168 23.395-7.246 23.689z" class="prefix__cls-2" data-name="Path 34" transform="translate(-281.981 -111.746)"/>
            <path id="prefix__Path_35" d="M341.963 316.924c.562-.183.889-.327.889-.327 1.058-2.7 2.117-31.374 1.784-34.582a128.267 128.267 0 0 1 0-21.868c.595-5.488 0-23.932 0-23.932-.516.294-3.489 2.313-6.436 4.5 0 0 2.483 15.5 1.6 24.841s-1.352 17.033 1.169 23.73-.568 28.042-.568 28.042a14.8 14.8 0 0 0 1.562-.404z" class="prefix__cls-6" data-name="Path 35" transform="translate(-284.407 -142.399)"/>
        </g>
    </g>
</svg>
