<svg xmlns="http://www.w3.org/2000/svg" width="22" height="18" viewBox="0 0 22 18">
    <defs>
        <style>
            .prefix__cls-1{fill:#2585d3}
        </style>
    </defs>
    <g id="prefix__reload-refresh" transform="translate(-8.33 -17.304)">
        <path id="prefix__Path_1916" d="M15.915 26.366H13.54a5.962 5.962 0 0 1 .1-1.09.779.779 0 0 1 .027-.155A6.02 6.02 0 0 1 23.73 21.77a.187.187 0 0 1 .035.03l2.042-2.051a8.952 8.952 0 0 0-9.727-1.7 9.065 9.065 0 0 0-5.421 8.309H8.33l3.787 3.814 1.831-1.841z" class="prefix__cls-1" data-name="Path 1916"/>
        <path id="prefix__Path_1917" d="M40.186 35.39l-1.831 1.841-1.964 1.978h2.375a5.962 5.962 0 0 1-.1 1.09.779.779 0 0 1-.027.155A6.02 6.02 0 0 1 28.573 43.8c-.084-.074-.165-.15-.246-.232l-2.037 2.048a8.952 8.952 0 0 0 9.81 1.964 9.061 9.061 0 0 0 5.554-8.371h2.326z" class="prefix__cls-1" data-name="Path 1917" transform="translate(-13.646 -12.966)"/>
    </g>
</svg>
