<svg xmlns="http://www.w3.org/2000/svg" width="50" height="50" viewBox="0 0 50 50">
    <defs>
        <style>
            .prefix__cls-4,.prefix__cls-5{fill:#5c617e}.prefix__cls-4{opacity:.7}.prefix__cls-5{opacity:.8}
        </style>
    </defs>
    <g id="prefix__windows" transform="translate(-241 -155)">
        <rect id="prefix__Rectangle_798" width="50" height="50" data-name="Rectangle 798" rx="4" transform="translate(241 155)" style="fill:#fff"/>
        <g id="prefix__windows-monitor" transform="translate(241.999 157.062)">
            <path id="prefix__Path_1876" d="M198.346 325.463l-.432-5.763H189.6l-.421 5.763H188v1.018h11.559v-1.018z" data-name="Path 1876" transform="translate(-169.698 -288.33)" style="stroke-linecap:round;stroke-linejoin:round;stroke:#5c617e;stroke-width:1.5px;fill:#fff"/>
            <path id="prefix__Path_1877" d="M114.76 154.582H82.89a1.79 1.79 0 0 1-1.79-1.79v-20.7a1.79 1.79 0 0 1 1.79-1.79h31.87a1.79 1.79 0 0 1 1.79 1.79V152.8a1.79 1.79 0 0 1-1.79 1.782z" data-name="Path 1877" transform="translate(-74.314 -120.124)" style="stroke-miterlimit:10;stroke:#5c617e;stroke-width:1.5px;fill:#fff"/>
            <g id="prefix__Group_1164" data-name="Group 1164" transform="translate(17.859 16.627)">
                <path id="prefix__Path_1878" d="M244.765 178.2v5.725c0 .026 0 .04-.04.04-.461 0-.908 0-1.369.013-.513 0-1.027.013-1.54.013s-1.027.013-1.54.013-1.027.013-1.54.013h-.5c-.026 0-.039 0-.039-.039V179.2a.035.035 0 0 1 .032-.039h.008c.342-.053.7-.105 1.04-.145s.658-.092.987-.145.684-.105 1.026-.145c.316-.039.632-.092.934-.132l.816-.118.776-.118c.25-.04.487-.066.737-.105.066-.013.118-.013.184-.026h.013c.002-.027.002-.027.015-.027z" class="prefix__cls-4" data-name="Path 1878" transform="translate(-232.658 -178.2)"/>
                <path id="prefix__Path_1879" d="M196.1 186.771c.158-.026.316-.04.487-.066l.553-.079.605-.079.553-.079.566-.079c.25-.039.5-.066.75-.105s.461-.066.7-.092.461-.066.7-.092h.013c.039 0 .039 0 .039.039v4.7c0 .04 0 .04-.039.04-.645 0-1.29 0-1.935.013h-1.079c-.619 0-1.237.013-1.856.013-.026 0-.039 0-.039-.039V187.247c-.018-.16-.018-.318-.018-.476z" class="prefix__cls-5" data-name="Path 1879" transform="translate(-196.1 -185.06)"/>
                <path id="prefix__Path_1880" d="M241.39 226.639h3.251a.036.036 0 0 1 .039.032v5.659c0 .039 0 .039-.039.039-.3-.039-.605-.079-.908-.132l-.8-.118c-.237-.04-.474-.066-.711-.105s-.474-.066-.711-.105-.474-.066-.711-.105-.474-.066-.711-.105-.474-.066-.724-.105c-.211-.026-.421-.066-.632-.092l-.592-.079a.035.035 0 0 1-.039-.032v-4.751c0-.039 0-.039.039-.039h3.224c.012.025.025.025.025.038z" class="prefix__cls-5" data-name="Path 1880" transform="translate(-232.573 -220.23)"/>
                <path id="prefix__Path_1881" d="M198.574 226.13c.7 0 1.382.013 2.079.013h.355c.053 0 .04 0 .04.039v4.7c0 .026 0 .039-.026.026-.342-.053-.671-.092-1.013-.145s-.7-.092-1.04-.145-.711-.092-1.066-.145c-.329-.039-.671-.092-1-.145-.263-.04-.513-.066-.776-.105a.029.029 0 0 1-.026-.026v-4.067c0-.053 0-.039.04-.039.579 0 1.158.013 1.737.013a6.177 6.177 0 0 0 .696.026z" class="prefix__cls-4" data-name="Path 1881" transform="translate(-196.1 -219.787)"/>
            </g>
        </g>
    </g>
</svg>
