<svg xmlns="http://www.w3.org/2000/svg" width="100" height="100" viewBox="0 0 100 100">
    <defs>
        <style>
            .cls-1{fill:#eaefff}.cls-2,.cls-5{fill:none}.cls-2{stroke:#2585d3;stroke-width:3px}.cls-3{fill:#2585d3}.cls-4{stroke:none}
        </style>
    </defs>
    <g id="Group_684" data-name="Group 684" transform="translate(-150.959 -126.959)">
        <path id="Path_1695" d="M50 0A50 50 0 1 1 0 50 50 50 0 0 1 50 0z" class="cls-1" data-name="Path 1695" transform="translate(150.959 126.959)"/>
        <g id="Group_1155" data-name="Group 1155" transform="translate(178.33 153.331)">
            <g id="Ellipse_374" class="cls-2" data-name="Ellipse 374" transform="translate(-2.371 -1.371)">
                <circle cx="25" cy="25" r="25" class="cls-4"/>
                <circle cx="25" cy="25" r="23.5" class="cls-5"/>
            </g>
            <path id="Union_40" d="M.064 21.7a3.089 3.089 0 0 1 3.169-2.929 2.972 2.972 0 0 1 3.093 3 3 3 0 0 1-3.093 2.861A3.091 3.091 0 0 1 .064 21.7zm.8-7.672c-.219-2.986-.433-5.91-.65-8.894C.138 4.351.076 3.558 0 2.775A2.837 2.837 0 0 1 2.446.07a3.488 3.488 0 0 1 3.665 1.4A2.483 2.483 0 0 1 6.4 2.705c-.076 1.241-.216 2.479-.292 3.718-.138 1.914-.291 3.825-.431 5.739a14.293 14.293 0 0 0-.077 1.8 2.178 2.178 0 0 1-2.371 1.8 2.155 2.155 0 0 1-2.367-1.737z" class="cls-3" data-name="Union 40" transform="translate(19.49 9.577)"/>
        </g>
    </g>
</svg>
