<svg xmlns="http://www.w3.org/2000/svg" width="100" height="100" viewBox="0 0 100 100">
    <defs>
        <style>
            .cls-1{fill:#eaefff}.cls-2{fill:#2585d3;stroke:#2585d3;stroke-linecap:round;stroke-linejoin:round;stroke-width:1.3px}
        </style>
    </defs>
    <g id="Group_684" data-name="Group 684" transform="translate(-150.959 -126.959)">
        <path id="Path_1695" d="M50 0A50 50 0 1 1 0 50 50 50 0 0 1 50 0z" class="cls-1" data-name="Path 1695" transform="translate(150.959 126.959)"/>
        <g id="reset-password" transform="translate(179.268 155.268)">
            <path id="Union_39" d="M20.5 44a19.693 19.693 0 0 1-14.412-6.353A22.689 22.689 0 0 1 0 22.128 22.691 22.691 0 0 1 5.924 6.534 19.7 19.7 0 0 1 20.384 0h.116c9.506 0 17.543 6.993 19.842 16.459L44 16.434l-4.537 8.552-4.635-8.493 4.06-.023C36.628 7.843 29.229 1.509 20.5 1.509h-.11A18.346 18.346 0 0 0 6.92 7.595 21.143 21.143 0 0 0 1.407 22.12a21.086 21.086 0 0 0 5.669 14.452A18.315 18.315 0 0 0 20.5 42.491h.113a18.815 18.815 0 0 0 15.45-8.608l1.144.875A20.2 20.2 0 0 1 20.617 44zm-6.287-13.2a.988.988 0 0 1-.957-1.009l-.056-9.947a.988.988 0 0 1 .946-1.017l1.269-.01-.015-2.385a5.39 5.39 0 0 1 5.188-5.554 5.4 5.4 0 0 1 5.252 5.492l.013 2.386 1.271-.01a.99.99 0 0 1 .961 1l.054 9.952a1.03 1.03 0 0 1-.275.715.9.9 0 0 1-.673.3l-12.974.087zm.313-10.575l.052 9.166 12.238-.075-.05-9.166zm2.207-3.8l.013 2.386 7.789-.048-.013-2.386a4.018 4.018 0 0 0-3.893-4.1 4.023 4.023 0 0 0-3.897 4.145z" class="cls-2" data-name="Union 39" transform="translate(-.309 -.309)"/>
        </g>
    </g>
</svg>
