<svg xmlns="http://www.w3.org/2000/svg" width="100" height="100" viewBox="0 0 100 100">
    <defs>
        <style>
            .cls-1{fill:#eaefff}.cls-2{fill:#2585d3}
        </style>
    </defs>
    <g id="Group_684" data-name="Group 684" transform="translate(-150.959 -126.959)">
        <path id="Path_1695" d="M50 0A50 50 0 1 1 0 50 50 50 0 0 1 50 0z" class="cls-1" data-name="Path 1695" transform="translate(150.959 126.959)"/>
        <g id="Group_1147" data-name="Group 1147" transform="translate(180.311 151.795)">
            <path id="Union_38" d="M25.312 50a.943.943 0 0 1-.663-.272c-4.776-4.718-9.036-16.058-9.214-16.538a3.727 3.727 0 0 1 1.44-4.915 3.831 3.831 0 0 1 1.9-.5 3.627 3.627 0 0 1 3.245 1.893l.481.892V14.815a3.75 3.75 0 0 1 7.5 0v11.34l12.406 3.5A3.5 3.5 0 0 1 45 33.333v2.777a21.946 21.946 0 0 1-3.908 13.478.941.941 0 0 1-.78.412zm-7.5-20.122a1.959 1.959 0 0 0-.645 2.605c.068.177 4.156 11.063 8.543 15.665H39.8a20.27 20.27 0 0 0 3.324-12.038v-2.777c0-1.65-1.091-1.865-1.1-1.865a.607.607 0 0 1-.091-.022l-.681-.193v.23a.937.937 0 0 1-1.873 0v-.757l-1.876-.53v.245a.938.938 0 0 1-1.876 0v-.772l-1.876-.53v.29a.937.937 0 0 1-1.873 0v-.82l-3.07-.865a.928.928 0 0 1-.681-.89V14.815a1.874 1.874 0 0 0-3.749 0V34.26a.927.927 0 0 1-.711.9.945.945 0 0 1-1.053-.463l-2.25-4.165a1.82 1.82 0 0 0-1.619-.891 1.878 1.878 0 0 0-.933.237zM0 25.925a3.731 3.731 0 0 1 3.751-3.7 3.7 3.7 0 1 1 0 7.408A3.733 3.733 0 0 1 0 25.925zm13.152 2.483a3.677 3.677 0 0 1-.964-2.483 3.754 3.754 0 0 1 7.437-.677.925.925 0 0 1-.749 1.077.937.937 0 0 1-1.093-.74 1.877 1.877 0 0 0-3.718.34 1.843 1.843 0 0 0 .483 1.242.92.92 0 0 1-.071 1.308.948.948 0 0 1-1.324-.067zm-.964-13.593a3.75 3.75 0 1 1 3.751 3.705 3.729 3.729 0 0 1-3.751-3.705zM0 14.815a3.731 3.731 0 0 1 3.751-3.7 3.7 3.7 0 1 1 0 7.405A3.731 3.731 0 0 1 0 14.815zM22.5 3.7a3.75 3.75 0 0 1 7.5 0 3.75 3.75 0 0 1-7.5 0zm-11.249 0a3.75 3.75 0 0 1 7.5 0 3.75 3.75 0 0 1-7.5 0zM0 3.7a3.75 3.75 0 0 1 7.5 0 3.729 3.729 0 0 1-3.749 3.7A3.731 3.731 0 0 1 0 3.7z" class="cls-2" data-name="Union 38" transform="translate(-.352 .164)"/>
        </g>
    </g>
</svg>
