<svg xmlns="http://www.w3.org/2000/svg" width="22" height="14" viewBox="0 0 22 14">
    <defs>
        <style>
            .cls-1{fill:#5c617e}
        </style>
    </defs>
    <g id="_12_Unhide" data-name="12 Unhide" transform="translate(-4.536 -20.6)">
        <path id="Path_1874" d="M15.537 34.6c-5.988 0-10.7-6.394-10.888-6.655a.586.586 0 0 1 0-.689c.2-.273 4.907-6.655 10.888-6.655s10.7 6.394 10.888 6.655a.586.586 0 0 1 0 .689c-.189.261-4.9 6.655-10.888 6.655zm-9.642-7.012c1.048 1.3 5.028 5.823 9.642 5.823s8.594-4.516 9.642-5.823c-1.048-1.3-5.028-5.823-9.642-5.823s-8.595 4.523-9.642 5.823zm9.642 3.8a3.8 3.8 0 1 1 3.871-3.8 3.838 3.838 0 0 1-3.871 3.803zm0-6.418a2.615 2.615 0 1 0 2.663 2.618 2.638 2.638 0 0 0-2.663-2.614z" class="cls-1" data-name="Path 1874"/>
    </g>
</svg>
