<svg xmlns="http://www.w3.org/2000/svg" width="17.669" height="14.212" viewBox="0 0 17.669 14.212">
  <path id="logout" d="M11.523,18.929v3.515a.738.738,0,0,1-.73.768H.768A.77.77,0,0,1,0,22.444V9.768A.77.77,0,0,1,.768,9H10.793a.738.738,0,0,1,.73.768v3.515a.768.768,0,1,1-1.536,0V10.536H1.536V21.676h8.45V18.929a.768.768,0,0,1,1.536,0Zm5.915-3.4-3-3.034a.774.774,0,0,0-1.095,1.095l1.709,1.728-9.315.019a.768.768,0,1,0,0,1.536h0l9.315-.019-1.709,1.728a.783.783,0,0,0,0,1.095.758.758,0,0,0,.538.23.727.727,0,0,0,.538-.23l3.015-3.034A.788.788,0,0,0,17.438,15.53Z" transform="translate(0 -9)" fill="#171e48"/>
</svg>
